<svg xmlns="http://www.w3.org/2000/svg" xmlns:xlink="http://www.w3.org/1999/xlink" width="480.466" height="247.85" viewBox="0 0 480.466 247.85">
  <defs>
    <linearGradient id="linear-gradient" y1="0.5" x2="1" y2="0.5" gradientUnits="objectBoundingBox">
      <stop offset="0.004" stop-color="#e67330"/>
      <stop offset="1" stop-color="#e3611d"/>
    </linearGradient>
    <linearGradient id="linear-gradient-2" y1="0.5" x2="1" y2="0.5" gradientUnits="objectBoundingBox">
      <stop offset="0.004" stop-color="#ed843c"/>
      <stop offset="0.333" stop-color="#eb7d36"/>
      <stop offset="0.79" stop-color="#e66b26"/>
      <stop offset="1" stop-color="#e3611d"/>
    </linearGradient>
  </defs>
  <g id="bolesa_sm" transform="translate(-70.784 -765)">
    <g id="Group_1" data-name="Group 1" transform="translate(-188.984 436.79)">
      <path id="Path_1" data-name="Path 1" d="M737.772,472.69l-18.42-45.17-14.22-34.86c-4-9.82-13.68-22.46-23.72-26.55l-89.59-36.54a17.142,17.142,0,0,0-6.45-1.36H466.7c-9.78,0-18.68,7.93-19.87,17.7-.94,7.64,3.11,14.15,9.59,16.63a16.433,16.433,0,0,0,5.95,1.08h23.35a15.441,15.441,0,0,1,1.81.1c8.81.9,14.85,8.43,13.73,17.6a19.666,19.666,0,0,1-3.85,9.39v.01a20.623,20.623,0,0,1-13.82,8.16,17.806,17.806,0,0,1-2.2.14H392c-9.78,0-18.68,7.93-19.87,17.71s5.76,17.7,15.54,17.7h66.14c9.77,0,16.73,7.93,15.54,17.7-.05.37-.1.74-.17,1.1-1.7,9.27-10.29,16.61-19.7,16.61H396.37c-9.78,0-18.67,7.92-19.87,17.7s5.77,17.7,15.54,17.7h78.73a15.221,15.221,0,0,1,14.88,10.49,16.726,16.726,0,0,1,.66,7.22,19.133,19.133,0,0,1-2.72,7.73,20.491,20.491,0,0,1-17.15,9.97H446.42c-9.78,0-18.67,7.93-19.87,17.7s5.76,17.71,15.54,17.71H648.95a12.822,12.822,0,0,0,6.85-1.93l.85-.54,67.63-67.63,4.68-4.67,6.81-6.82,1.68-1.68.52-.79C740.122,488.68,741.832,482.64,737.772,472.69Zm-103.05-21.28c-6.58-2.68-15.04-12.41-18.79-21.61l-25.87-63.44,68.21,27.82c6.58,2.68,15.03,12.41,18.79,21.61l25.87,63.44Zm36.02,95.37-.02.01c-1.18.73-2.9.73-5.09-.17l-89.59-36.54c-6.57-2.68-15.03-12.4-18.78-21.61l-25.88-63.44-6.77-16.6c-2.09-5.14-2.3-9.07-.93-11.07l10.69-10.69c-1.37,2.01-1.17,5.94.93,11.08l32.64,80.04c3.76,9.2,12.21,18.93,18.79,21.61l89.59,36.54c2.2.9,3.92.9,5.1.15Zm30.42-30.43c-1.18.75-2.9.75-5.11-.15l-89.58-36.54c-6.58-2.68-15.04-12.41-18.79-21.61l-25.87-63.44-6.77-16.6c-2.1-5.14-2.31-9.07-.93-11.08l8.51-8.51c-1.37,2.01-1.17,5.94.93,11.08l32.64,80.04c3.76,9.2,12.21,18.93,18.79,21.61l89.59,36.54c2.2.9,3.92.9,5.1.15Z" fill="#050607"/>
      <path id="Path_2" data-name="Path 2" d="M357.541,452.13c1.2-9.77-5.76-17.7-15.54-17.7h-62.24c-9.77,0-18.67,7.93-19.86,17.7s5.76,17.71,15.54,17.71h62.23C347.451,469.84,356.351,461.91,357.541,452.13Z" fill="#050607"/>
      <path id="Path_3" data-name="Path 3" d="M350.951,363.62h63.91c9.78,0,18.67-7.93,19.87-17.71s-5.77-17.7-15.54-17.7h-63.92c-9.77,0-18.67,7.93-19.86,17.7S341.171,363.62,350.951,363.62Z" fill="#050607"/>
      <path id="Path_4" data-name="Path 4" d="M398.141,540.65h-56.25c-9.78,0-18.67,7.93-19.87,17.7s5.77,17.71,15.54,17.71h56.25c9.78,0,18.67-7.93,19.87-17.71S407.921,540.65,398.141,540.65Z" fill="#050607"/>
    </g>
    <path id="Path_5" data-name="Path 5" d="M730.422,487.09l-1.01,1.01c-1.18.75-2.9.75-5.11-.15l-21.37-8.72-25.87-63.44c-3.76-9.2-12.21-18.93-18.79-21.61l-68.21-27.82-6.77-16.6c-2.1-5.14-2.31-9.07-.93-11.08l.89-.89c1.18-.79,2.92-.8,5.17.11l89.59,36.54c6.58,2.68,15.03,12.41,18.79,21.61l32.64,80.04C731.512,481.17,731.742,485.07,730.422,487.09Z" transform="translate(-188.984 436.79)" fill-rule="evenodd" fill="url(#linear-gradient)"/>
    <path id="Path_6" data-name="Path 6" d="M729.412,488.1l-10.78,10.79c-.01,0-.01.01-.02.01l-8.94,8.94c-1.18.75-2.9.75-5.1-.15l-89.59-36.54c-6.58-2.68-15.03-12.41-18.79-21.61l-32.64-80.04c-2.1-5.14-2.3-9.07-.93-11.08l4.24-4.24,4.71-4.71,10.79-10.79c-1.38,2.01-1.17,5.94.93,11.08l6.77,16.6,25.87,63.44c3.75,9.2,12.21,18.93,18.79,21.61l68.21,27.82,21.37,8.72C726.512,488.85,728.232,488.85,729.412,488.1Z" transform="translate(-188.984 436.79)" fill-rule="evenodd" fill="url(#linear-gradient-2)"/>
    <path id="Path_7" data-name="Path 7" d="M701.162,516.35l-19.74,19.74c-1.18.75-2.9.75-5.1-.15l-89.59-36.54c-6.58-2.68-15.03-12.41-18.79-21.61L535.3,397.75c-2.1-5.14-2.3-9.07-.93-11.08l19.74-19.74c-1.38,2.01-1.17,5.94.93,11.08l6.77,16.6,25.87,63.44c3.75,9.2,12.21,18.93,18.79,21.61l89.58,36.54C698.262,517.1,699.982,517.1,701.162,516.35Z" transform="translate(-188.984 436.79)" fill-rule="evenodd" fill="url(#linear-gradient-2)"/>
    <path id="Path_8" data-name="Path 8" d="M670.742,546.78l-18.73,18.73L651,566.52c-1.18.74-2.91.74-5.11-.16l-89.58-36.54c-6.58-2.68-15.04-12.41-18.79-21.61l-32.65-80.04c-2.09-5.14-2.3-9.07-.93-11.07l13-13,6.74-6.74c-1.37,2-1.16,5.93.93,11.07l6.77,16.6,25.88,63.44c3.75,9.21,12.21,18.93,18.78,21.61l89.59,36.54c2.19.9,3.91.9,5.09.17Z" transform="translate(-188.984 436.79)" fill-rule="evenodd" fill="url(#linear-gradient-2)"/>
    <path id="Path_9" data-name="Path 9" d="M729.412,488.1l-10.78,10.79c-.01,0-.01.01-.02.01-1.18.73-2.9.73-5.09-.17l-89.59-36.53c-6.57-2.69-15.03-12.41-18.78-21.62l-25.88-63.44-6.77-16.6c-2.09-5.14-2.3-9.07-.93-11.07l10.79-10.79c-1.38,2.01-1.17,5.94.93,11.08l6.77,16.6,25.87,63.44c3.75,9.2,12.21,18.93,18.79,21.61l68.21,27.82,21.37,8.72C726.512,488.85,728.232,488.85,729.412,488.1Z" transform="translate(-188.984 436.79)" fill="#fff" fill-rule="evenodd" opacity="0.3"/>
  </g>
</svg>
