<?xml version="1.0" encoding="UTF-8"?>
<svg xmlns="http://www.w3.org/2000/svg" viewBox="0 0 1362.09 1777.27">
  <defs>
    <style>
      .cls-1 {
        fill: #666;
      }

      .cls-1, .cls-2, .cls-3, .cls-4, .cls-5, .cls-6, .cls-7, .cls-8, .cls-9, .cls-10, .cls-11, .cls-12, .cls-13, .cls-14, .cls-15, .cls-16, .cls-17, .cls-18, .cls-19, .cls-20, .cls-21, .cls-22, .cls-23, .cls-24, .cls-25, .cls-26, .cls-27, .cls-28 {
        stroke-width: 0px;
      }

      .cls-2 {
        fill: #ff4848;
      }

      .cls-3 {
        fill: #c68938;
      }

      .cls-4 {
        fill: #9e2a3d;
      }

      .cls-29 {
        isolation: isolate;
      }

      .cls-5 {
        fill: #d8911e;
      }

      .cls-6 {
        fill: #aaa;
      }

      .cls-6, .cls-8, .cls-30, .cls-17, .cls-18, .cls-25, .cls-31 {
        mix-blend-mode: multiply;
      }

      .cls-7 {
        fill: #9e691b;
      }

      .cls-8 {
        fill: #e6e6e6;
      }

      .cls-9 {
        fill: #f2414f;
      }

      .cls-10 {
        fill: gray;
      }

      .cls-11, .cls-25 {
        fill: #b3b3b3;
      }

      .cls-12 {
        fill: #d1d2d3;
      }

      .cls-13 {
        fill: #fff;
      }

      .cls-14 {
        fill: #eda11b;
      }

      .cls-30 {
        opacity: .5;
      }

      .cls-15 {
        fill: #c63446;
      }

      .cls-16 {
        fill: #f7bd61;
      }

      .cls-17 {
        fill: #5d1b43;
        opacity: .25;
      }

      .cls-18 {
        fill: #ccc;
      }

      .cls-19 {
        fill: #e8e8e8;
      }

      .cls-20 {
        fill: #6d6d6d;
      }

      .cls-21 {
        fill: #e5b93c;
      }

      .cls-22 {
        fill: #aa7d33;
      }

      .cls-23 {
        fill: #ffd246;
      }

      .cls-24 {
        fill: #eaeaea;
      }

      .cls-26 {
        fill: #f4b042;
      }

      .cls-27 {
        fill: #cecece;
      }

      .cls-28 {
        fill: #f2c47c;
      }
    </style>
  </defs>
  <g class="cls-29">
    <g id="Layer_2" data-name="Layer 2">
      <g id="_Ñëîé_1" data-name="Ñëîé 1">
        <g>
          <g>
            <g>
              <g>
                <polygon class="cls-11" points="861.89 1494.95 833.5 1626.53 157.8 1226.12 186.19 1094.53 861.89 1494.95"/>
                <polygon class="cls-1" points="219.12 1076.98 186.19 1094.53 861.89 1494.95 894.82 1477.38 219.12 1076.98"/>
                <polygon class="cls-12" points="894.82 1477.38 866.42 1608.97 833.5 1626.53 861.89 1494.95 894.82 1477.38"/>
              </g>
              <g>
                <polygon class="cls-22" points="1165.11 675.38 1136.53 816.23 398.74 392.29 427.31 251.44 1165.11 675.38"/>
                <polygon class="cls-14" points="462.65 232.46 427.31 251.44 1165.11 675.38 1200.46 656.4 462.65 232.46"/>
                <polygon class="cls-12" points="1200.45 656.4 1171.88 797.25 1136.53 816.23 1165.11 675.38 1200.45 656.4"/>
              </g>
              <g>
                <polygon class="cls-22" points="1200.46 1165.48 1171.88 1306.34 434.08 882.39 462.65 741.54 1200.46 1165.48"/>
                <polygon class="cls-14" points="498 722.56 462.65 741.54 1200.46 1165.48 1235.8 1146.51 498 722.56"/>
                <polygon class="cls-14" points="1235.8 1146.51 1207.22 1287.36 1171.88 1306.34 1200.46 1165.48 1235.8 1146.51"/>
              </g>
              <g>
                <polygon class="cls-10" points="66.55 1059.59 66.55 1168.2 464.56 938.41 464.56 829.79 66.55 1059.59"/>
                <polygon class="cls-11" points="441.06 816.23 464.56 829.79 66.55 1059.59 43.05 1046.02 441.06 816.23"/>
                <polygon class="cls-20" points="43.05 1046.02 43.05 1154.63 66.55 1168.2 66.55 1059.59 43.05 1046.02"/>
              </g>
              <g>
                <polygon class="cls-1" points="1211.75 620.55 1319.13 1545.76 1194.22 1473.42 1087.12 546.55 1211.75 620.55"/>
                <polygon class="cls-12" points="1239.53 608.93 1346.28 1529.75 1319.13 1545.76 1211.75 620.55 1239.53 608.93"/>
                <polygon class="cls-19" points="1116.39 535.57 1239.53 608.93 1211.75 620.55 1087.12 546.55 1116.39 535.57"/>
              </g>
              <g>
                <polygon class="cls-1" points="463.67 186.13 570.38 1106.54 445.53 1033.72 339.29 112.41 463.67 186.13"/>
                <polygon class="cls-12" points="491.45 174.5 597.69 1090.89 570.38 1106.54 463.67 186.13 491.45 174.5"/>
                <polygon class="cls-19" points="369 101.56 491.45 174.51 463.67 186.13 339.3 112.42 369 101.56"/>
              </g>
              <g>
                <polygon class="cls-20" points="1215.25 618.83 960.47 1753.61 919.52 1777.27 1176.48 632.75 1215.25 618.83"/>
                <polygon class="cls-12" points="1176.48 632.75 919.52 1777.27 792.89 1705.93 1050.19 559.84 1176.48 632.75"/>
              </g>
              <polygon class="cls-19" points="1088.96 545.91 1215.25 618.83 1176.48 632.75 1050.2 559.84 1088.96 545.91"/>
              <g>
                <polygon class="cls-12" points="426.87 199.25 168.11 1351.76 41.83 1278.76 300.57 126.33 426.87 199.25"/>
                <polygon class="cls-20" points="465.62 185.33 209.07 1328.02 168.11 1351.76 426.87 199.25 465.62 185.33"/>
              </g>
              <polygon class="cls-19" points="339.34 112.42 465.62 185.33 426.87 199.25 300.58 126.33 339.34 112.42"/>
              <polygon class="cls-6" points="464.39 190.84 479.27 320.69 440.26 298.27 464.39 190.84"/>
              <g>
                <polygon class="cls-11" points="964.08 1575.67 964.08 1684.28 1362.09 1454.48 1362.09 1345.88 964.08 1575.67"/>
                <polygon class="cls-10" points="1338.59 1332.31 1362.09 1345.88 964.08 1575.67 940.58 1562.1 1338.59 1332.31"/>
                <polygon class="cls-20" points="940.58 1562.1 940.58 1670.7 964.08 1684.28 964.08 1575.67 940.58 1562.1"/>
              </g>
              <polygon class="cls-6" points="1212.82 629.7 1226.89 750.33 1190.44 729.37 1212.82 629.7"/>
              <g class="cls-30">
                <polygon class="cls-8" points="991.85 1455.49 1023.58 1473.58 1020.6 1485.87 987.95 1472.55 861.61 1399.88 865.46 1382.71 991.85 1455.49"/>
                <polygon class="cls-8" points="959.26 964.87 1085.66 1037.65 1117.38 1055.74 1114.41 1068.02 1081.76 1054.71 955.41 982.04 959.26 964.87"/>
                <polygon class="cls-8" points="209.12 533.74 335.53 606.38 367.02 624.49 364.27 636.74 331.62 623.53 205.2 551.17 209.12 533.74"/>
                <polygon class="cls-8" points="115.29 951.61 241.72 1024.23 273.23 1042.38 270.46 1054.6 237.82 1041.29 111.47 968.62 115.29 951.61"/>
              </g>
              <g>
                <g>
                  <polygon class="cls-26" points="212.93 168.01 1269.29 775.06 1235.08 795.36 178.73 188.31 212.93 168.01"/>
                  <polygon class="cls-5" points="1269.29 775.06 1223.79 1076.94 1189.59 1097.23 1235.08 795.36 1269.29 775.06"/>
                  <polygon class="cls-23" points="178.73 188.31 1235.08 795.36 1189.59 1097.23 133.24 490.19 178.73 188.31"/>
                  <g>
                    <polygon class="cls-13" points="1187.38 1095.96 1058.46 1021.87 1023.47 673.74 1152.39 747.82 1187.38 1095.96"/>
                    <polygon class="cls-13" points="911.28 937.29 782.36 863.21 747.38 515.07 876.29 589.16 911.28 937.29"/>
                    <polygon class="cls-13" points="635.19 778.63 506.27 704.54 471.28 356.41 600.2 430.51 635.19 778.63"/>
                    <polygon class="cls-13" points="324.11 271.84 359.1 619.97 230.18 545.88 195.19 197.76 324.11 271.84"/>
                  </g>
                  <polygon class="cls-13" points="747.38 515.07 829.33 522.23 954.59 594.21 876.29 589.16 747.38 515.07"/>
                  <polygon class="cls-13" points="1023.47 673.74 1105.42 680.9 1230.68 752.87 1152.39 747.82 1023.47 673.74"/>
                  <polygon class="cls-13" points="471.28 356.41 553.24 363.57 678.5 435.55 600.2 430.51 471.28 356.41"/>
                  <polygon class="cls-13" points="195.19 197.76 277.14 204.91 402.4 276.89 324.11 271.84 195.19 197.76"/>
                </g>
                <g>
                  <polygon class="cls-3" points="136.59 595.96 1192.94 1203 1158.74 1223.3 102.38 616.25 136.59 595.96"/>
                  <polygon class="cls-5" points="1192.94 1203 1147.45 1504.89 1113.24 1525.18 1158.73 1223.3 1192.94 1203"/>
                  <polygon class="cls-23" points="102.38 616.25 1158.74 1223.3 1113.24 1525.18 56.89 918.14 102.38 616.25"/>
                  <g>
                    <polygon class="cls-13" points="1111.04 1523.9 982.11 1449.81 947.12 1101.69 1076.04 1175.77 1111.04 1523.9"/>
                    <polygon class="cls-13" points="834.94 1365.24 706.02 1291.16 671.03 943.02 799.95 1017.11 834.94 1365.24"/>
                    <polygon class="cls-13" points="558.85 1206.58 429.93 1132.49 394.93 784.36 523.86 858.45 558.85 1206.58"/>
                    <polygon class="cls-13" points="247.77 699.79 282.75 1047.92 153.84 973.83 118.84 625.7 247.77 699.79"/>
                  </g>
                  <polygon class="cls-13" points="671.03 943.02 752.98 950.18 878.25 1022.16 799.95 1017.11 671.03 943.02"/>
                  <polygon class="cls-13" points="947.12 1101.69 1029.08 1108.84 1154.45 1180.89 1076.04 1175.77 947.12 1101.69"/>
                  <polygon class="cls-13" points="394.93 784.36 476.89 791.52 602.15 863.5 523.86 858.45 394.93 784.36"/>
                  <polygon class="cls-13" points="118.84 625.7 200.8 632.86 326.06 704.84 247.77 699.79 118.84 625.7"/>
                </g>
              </g>
              <g>
                <path class="cls-20" d="m1326.55,1409.63c4.93-2.85,8.93-.54,8.93,5.16s-3.99,12.62-8.93,15.46c-4.94,2.85-8.93.54-8.93-5.16s4-12.62,8.93-15.46Z"/>
                <path class="cls-20" d="m987.39,1603.38c4.94-2.85,8.93-.54,8.93,5.15s-3.99,12.62-8.93,15.47c-4.93,2.85-8.93.55-8.93-5.15s4-12.62,8.93-15.47Z"/>
              </g>
              <g>
                <polygon class="cls-18" points="1170.03 582.22 1164.59 625.88 1067.39 569.76 1170.05 576.52 1170.03 582.22"/>
                <g>
                  <path class="cls-27" d="m1091.31,435.62c7.1-.64,35.23-.43,42.38-.15,6.98.27,14.76,2.66,22.98,7.41,30.15,17.41,54.59,59.75,54.59,94.56,0,23.81-11.44,37.89-28.32,38.85-2.4.13-7.29.2-12.89.22v5.71h-.01c0,1.02-.32,2.17-1.03,3.4-2.43,4.2-8.34,7.62-13.19,7.62-3.37,0-5.35-1.65-5.43-4.06h0v-12.71c-3.44-.03-6.28-.06-7.94-.08-7.18-.12-15.25-2.5-23.77-7.43-30.15-17.41-54.59-59.75-54.59-94.56,0-23.3,10.95-37.29,27.23-38.77Z"/>
                  <path class="cls-24" d="m1172.81,571.45c11.57-4.15,18.96-16.62,18.96-35.54,0-33.16-22.73-73.49-50.78-90.08-7.64-4.51-11.71-7.23-7.35-7.05,6.49.25,13.72,2.54,21.37,7.05,28.04,16.58,50.77,56.91,50.77,90.08,0,22.69-10.64,36.1-26.33,37.01-3.94.23-8.94-.65-6.64-1.47Z"/>
                  <g>
                    <path class="cls-14" d="m1115.53,450.67c26.4,15.24,47.8,52.31,47.8,82.79s-21.4,42.84-47.8,27.6c-26.4-15.24-47.8-52.31-47.8-82.79s21.4-42.84,47.8-27.59Z"/>
                    <path class="cls-16" d="m1110.51,475.1c15.91,9.19,28.8,31.52,28.8,49.89s-12.9,25.82-28.8,16.63c-15.91-9.18-28.81-31.52-28.81-49.89s12.9-25.82,28.81-16.63Z"/>
                  </g>
                  <path class="cls-10" d="m1115.53,450.67c-26.4-15.25-47.8-2.89-47.8,27.59s21.4,67.56,47.8,82.79c26.4,15.24,47.8,2.88,47.8-27.6s-21.4-67.55-47.8-82.79Zm0,106.78c-24.67-14.25-44.68-48.89-44.68-77.39s20.01-40.04,44.68-25.8c24.68,14.25,44.68,48.89,44.68,77.39s-20,40.04-44.68,25.79Z"/>
                </g>
              </g>
              <g>
                <polygon class="cls-18" points="417.47 147.03 412.03 190.68 314.83 134.55 417.49 141.32 417.47 147.03"/>
                <g>
                  <path class="cls-27" d="m338.75.42c7.09-.65,35.22-.43,42.37-.15,6.98.27,14.76,2.66,22.98,7.41,30.15,17.4,54.59,59.74,54.59,94.56,0,23.81-11.44,37.9-28.32,38.85-2.4.14-7.29.2-12.89.23v5.7h-.02c0,1.02-.32,2.17-1.02,3.4-2.43,4.21-8.34,7.62-13.2,7.62-3.37,0-5.35-1.64-5.43-4.06h0v-12.71c-3.44-.03-6.29-.06-7.94-.08-7.19-.12-15.24-2.51-23.77-7.44-30.16-17.41-54.6-59.75-54.6-94.56,0-23.3,10.95-37.28,27.24-38.77Z"/>
                  <path class="cls-24" d="m420.25,136.25c11.57-4.15,18.96-16.62,18.96-35.54,0-33.17-22.73-73.49-50.77-90.07-7.64-4.52-11.71-7.23-7.36-7.06,6.5.26,13.73,2.54,21.37,7.06,28.04,16.59,50.78,56.91,50.78,90.07,0,22.68-10.64,36.1-26.34,37.01-3.93.23-8.93-.65-6.63-1.47Z"/>
                  <g>
                    <path class="cls-14" d="m362.97,15.47c26.4,15.24,47.8,52.31,47.8,82.79s-21.4,42.84-47.8,27.6c-26.41-15.24-47.81-52.31-47.81-82.79S336.57.23,362.97,15.47Z"/>
                    <path class="cls-16" d="m357.95,39.9c15.91,9.19,28.81,31.52,28.81,49.89s-12.9,25.82-28.81,16.63c-15.91-9.18-28.81-31.52-28.81-49.9s12.9-25.81,28.81-16.63Z"/>
                  </g>
                  <path class="cls-10" d="m362.97,15.47c-26.41-15.24-47.81-2.89-47.81,27.6s21.4,67.55,47.81,82.79c26.4,15.23,47.8,2.88,47.8-27.6s-21.4-67.55-47.8-82.79Zm0,106.78c-24.68-14.25-44.68-48.89-44.68-77.39s20.01-40.04,44.68-25.8c24.68,14.25,44.68,48.9,44.68,77.39s-20,40.04-44.68,25.79Z"/>
                </g>
              </g>
            </g>
            <g>
              <polygon class="cls-7" points="326.25 1694.62 326.25 1710.82 0 1522.46 .19 1506.37 326.25 1694.62"/>
              <polygon class="cls-14" points="397.44 1653.51 397.44 1669.72 326.25 1710.82 326.25 1694.62 397.44 1653.51"/>
              <polygon class="cls-21" points="71.4 1465.27 397.44 1653.51 326.25 1694.62 .21 1506.38 71.4 1465.27"/>
              <polygon class="cls-28" points="206.68 1246.32 186.66 1253.24 331.05 1669.95 349.73 1659.19 206.68 1246.32"/>
              <polygon class="cls-23" points="186.66 1253.15 331.05 1669.95 42.27 1503.23 186.66 1253.15"/>
              <path class="cls-2" d="m55.29,1498.56l128.22-222.09,128.23,370.15-256.45-148.06Zm20.68-5.54l208.16,120.18-104.08-300.45-104.08,180.27Z"/>
              <g class="cls-31">
                <path class="cls-4" d="m176.5,1491.19l-7.29-4.21c-1.55-20.1-3.36-41.04-5.42-62.8-2.06-21.76-3.09-34.44-3.09-38.04,0-4.17,1.12-7,3.37-8.47,2.24-1.47,5.11-1.2,8.6.81,3.49,2.02,6.36,5.07,8.6,9.17,2.25,4.1,3.37,8.2,3.37,12.3,0,3.59-1.01,15.1-3.04,34.5-2.02,19.41-3.72,38.32-5.09,56.73Z"/>
                <path class="cls-4" d="m163.64,1507.56c2.52-1.46,5.53-1.18,9.02.84,3.49,2.01,6.5,5.2,9.01,9.57,2.53,4.37,3.79,8.57,3.79,12.6s-1.26,6.73-3.79,8.11c-2.52,1.39-5.52,1.08-9.01-.94-3.49-2.01-6.5-5.17-9.02-9.47-2.52-4.3-3.78-8.46-3.78-12.49s1.26-6.78,3.78-8.23Z"/>
              </g>
              <polygon class="cls-25" points="331.05 1669.95 308.51 1684.38 18.6 1517 42.27 1503.23 331.05 1669.95"/>
            </g>
            <g>
              <polygon class="cls-17" points="929.17 1438.73 904.24 1663.65 821.53 1722.08 792.89 1705.93 800.62 1200.09 929.17 1438.73"/>
              <g>
                <polygon class="cls-2" points="556.99 1091.68 776.42 1217.32 880.04 1460.37 857.19 1663.65 714.12 1765.44 494.7 1639.79 391.08 1396.74 413.92 1193.47 556.99 1091.68"/>
                <path class="cls-13" d="m431.64,1212.07l-21.06,187.37,95.43,223.85,201.68,115.49,131.76-93.74,21.06-187.37-95.43-223.85-201.68-115.49-131.76,93.74Zm10.08,11.08l125-88.92,192.09,109.99,90.53,212.31-19.95,177.43-124.99,88.93-192.08-109.99-90.52-212.32,19.94-177.43Z"/>
                <polygon class="cls-9" points="581.2 1074.44 556.99 1091.68 776.42 1217.32 800.62 1200.09 581.2 1074.44"/>
                <polygon class="cls-15" points="800.62 1200.09 776.42 1217.32 880.04 1460.37 904.24 1443.14 800.62 1200.09"/>
                <polygon class="cls-4" points="904.24 1443.14 881.4 1646.41 857.19 1663.65 880.04 1460.37 904.24 1443.14"/>
              </g>
            </g>
          </g>
          <polygon class="cls-6" points="1246.91 923.51 1265.61 1084.59 1160.27 1183.21 1147.99 1073.31 1189.59 1097.23 1223.79 1076.94 1246.91 923.51"/>
          <polygon class="cls-6" points="1297.14 1356.25 1181.72 1365.24 1187.97 1419.27 1297.14 1356.25"/>
          <polygon class="cls-6" points="525.02 715.32 530.04 758.61 405.84 689.53 400.57 643.81 525.02 715.32"/>
        </g>
      </g>
    </g>
  </g>
</svg>