<svg xmlns="http://www.w3.org/2000/svg" width="800.038" height="285.278" viewBox="0 0 800.038 285.278">
  <g id="alrajhi_light" transform="translate(-21.078 -279.302)">
    <g id="Group_1" data-name="Group 1">
      <path id="Path_1" data-name="Path 1" d="M753.926,395.751c9.027,5.2,17.821,10.267,26.611,15.337,6.485,3.741,13,7.434,19.443,11.246,11.762,6.958,18.586,17.319,20.846,30.732a27.321,27.321,0,0,1,.257,4.481c.018,15,.068,29.995-.009,44.992-.052,10.173-3.892,18.931-10.435,26.592a45.933,45.933,0,0,1-12.5,9.8q-17.115,9.786-34.157,19.7a42.543,42.543,0,0,1-24.123,5.881,39.789,39.789,0,0,1-17.828-5.107q-21.988-12.578-43.861-25.355c-2.138-1.25-3.726-1.5-6.053-.129-14.262,8.4-28.662,16.572-42.993,24.858a42.412,42.412,0,0,1-23.91,5.736,44.8,44.8,0,0,1-20.453-6.566c-11.557-6.769-23.272-13.273-34.741-20.187-13.555-8.171-20.86-20.252-21.057-36.211-.177-14.329-.034-28.661-.038-42.992a41.159,41.159,0,0,1,10.041-27.01,43.7,43.7,0,0,1,12.155-9.831c14.357-8.241,28.656-16.584,43.032-24.793a3.47,3.47,0,0,0,1.971-3.54c-.051-17-.259-34,.037-50.99.267-15.308,6.954-27.465,20-35.583,10.448-6.5,21.273-12.4,31.942-18.541,2.811-1.618,5.623-3.243,8.508-4.721a40.174,40.174,0,0,1,14.558-4.044c9.472-.944,18.1,1.4,26.227,6.119,11.37,6.594,22.72,13.223,34.166,19.682a43.25,43.25,0,0,1,19.806,22.925,38.5,38.5,0,0,1,2.534,13.652c.056,17,.022,33.994.022,50.991C753.926,393.785,753.926,394.7,753.926,395.751ZM674.88,505.613a3.434,3.434,0,0,0,.493-.139c14.409-8.3,28.921-16.436,43.182-24.986,7.868-4.717,12.032-11.982,12.038-21.352.01-15.907-.021-31.815.038-47.722a3.289,3.289,0,0,0-1.9-3.33c-13.789-7.88-27.466-15.958-41.307-23.745-8.33-4.686-16.9-4.495-25.209.227-13.589,7.727-27.086,15.617-40.666,23.361a3.668,3.668,0,0,0-2.164,3.69c.077,15.657.057,31.315.04,46.972-.011,10.073,4.59,17.468,13.089,22.576,3.776,2.27,7.631,4.41,11.449,6.612ZM596.1,422.6c-1.113.591-1.776.917-2.415,1.286-10.372,5.994-20.7,12.068-31.125,17.966-6.944,3.928-10.521,9.817-10.593,17.681q-.191,20.621-.006,41.243c.057,7.6,3.5,13.4,10.087,17.23,12.086,7.019,24.16,14.059,36.323,20.943a17.886,17.886,0,0,0,18.346.175c11.184-6.244,22.214-12.767,33.3-19.184a14.262,14.262,0,0,0,1.352-1.025c-.675-.457-1.136-.814-1.637-1.1-9.445-5.437-18.877-10.895-28.348-16.286a49.531,49.531,0,0,1-18.3-17.649,48.761,48.761,0,0,1-6.988-25.652q-.011-16.248,0-32.495C596.1,424.827,596.1,423.922,596.1,422.6ZM698.51,518.924c.878.587,1.525,1.074,2.221,1.476q15.885,9.156,31.783,18.289c6.453,3.706,13.021,3.756,19.439.111q18.328-10.409,36.494-21.1a18.5,18.5,0,0,0,9.615-16.7c.118-13.907.139-27.817-.008-41.723-.08-7.547-3.47-13.341-10.137-17.154-9.384-5.366-18.715-10.825-28.075-16.232-1.843-1.065-3.718-2.075-5.914-3.3v3.1c0,11.16.027,22.319-.022,33.479a42.322,42.322,0,0,1-.5,6.7c-2.5,15.143-10.179,26.866-23.393,34.8-5.773,3.467-11.65,6.762-17.478,10.136C707.937,513.462,703.342,516.125,698.51,518.924ZM619.426,382.272c1-.5,1.658-.794,2.281-1.152,9.664-5.544,19.262-11.206,29-16.621,16.119-8.966,32.421-8.873,48.542-.111,9.859,5.358,19.458,11.194,29.179,16.8.61.352,1.272.616,2.047.987.056-.707.117-1.118.117-1.53q.008-19.736-.011-39.472a12.6,12.6,0,0,0-.355-2.706,19.1,19.1,0,0,0-9.623-12.741q-17.831-10.271-35.676-20.516c-6.623-3.783-13.3-3.7-19.927.057-3.544,2.009-7.062,4.063-10.589,6.1-8.567,4.949-17.193,9.8-25.68,14.883a18.018,18.018,0,0,0-9.3,16.3q-.016,18.361,0,36.724C619.426,380.167,619.426,381.051,619.426,382.272Z" fill="#fff"/>
      <path id="Path_2" data-name="Path 2" d="M161.118,409.523c-.065-3.356-.059-6.591-.22-9.818a16.2,16.2,0,0,0-.763-4.379,8.6,8.6,0,0,0-13.372-4.38c-.542.372-1.053.789-1.758,1.32l-6.989-5.786a16.713,16.713,0,0,1,9.72-5.276,20.354,20.354,0,0,1,12.658,1.389c6,2.787,9.3,7.648,10.146,14.115a78.645,78.645,0,0,1,.373,8.707c.064,3.591.572,4.158,4.164,4.3.327.013.652.077,1.27.153.026,1.3.063,2.605.076,3.907.013,1.325,0,2.65,0,3.927-1.841.61-93.007.837-97.421.256V389.7c-7.473-2.215-13.414,2.025-13.557,9.538-.1,5.414-.017,10.832-.027,16.248,0,.814-.069,1.629-.113,2.6-.953.045-1.763.116-2.573.116q-11.874.012-23.748,0c-9.993-.005-17.623-7.707-17.9-17.96a19.085,19.085,0,0,1,3.891-12.6,7.061,7.061,0,0,1,.662-.742,4.371,4.371,0,0,1,.7-.393l6.737,5.553a32.352,32.352,0,0,0-1.833,4.884c-.831,4.055-.179,7.877,3.063,10.734a7.437,7.437,0,0,0,4.187,1.921c5.565.22,11.144.09,17,.09.038-1,.077-1.88.1-2.76.112-3.737-.137-7.526.4-11.2A16.923,16.923,0,0,1,71.688,381.1c5.3-.388,10.637-.27,15.958-.363a6.646,6.646,0,0,1,1.2.252v28.555h33.31c-.2-4.089-.232-8.141-.634-12.157a8.752,8.752,0,0,0-7.658-8.029,8.537,8.537,0,0,0-6.141,1.472c-.553.363-1.035.833-1.811,1.468l-7.033-5.818a16.17,16.17,0,0,1,9.184-5.192c5.755-1.158,11.271-.492,16.163,3.031,4.786,3.447,7.066,8.284,7.346,14.085.125,2.577-.022,5.166.037,7.748.053,2.281,1.167,3.527,3.285,3.537,8.5.04,17,.014,25.5,0A2.477,2.477,0,0,0,161.118,409.523Z" fill="#fff"/>
      <path id="Path_3" data-name="Path 3" d="M424.451,409.094c1.9.726,10.2.885,13.368.311-.3-.7-.605-1.369-.866-2.051-2.585-6.756-2.1-13.191,2.042-19.231a16.08,16.08,0,0,1,7.577-5.89,20.262,20.262,0,0,1,14.608-.291,16.787,16.787,0,0,1,11.407,12.813c1.347,6.152.519,11.929-3.543,16.96a16.547,16.547,0,0,1-12.983,6.446c-9.576.166-19.158.039-28.737.054a7.852,7.852,0,0,1-5.918-2.722c-.338-.358-.663-.729-1.2-1.319-3.928,4.145-8.969,4.118-14.127,4.073-12.744-.113-25.489-.046-38.234-.027-1.823,0-3.633.086-5.156-1.293-1.93,11.44-7.386,16.462-18.916,17.418v-8.059a10.934,10.934,0,0,1,1.454-.548,9,9,0,0,0,7.352-9.083c.08-2.913.017-5.831.017-8.746V384.355h10v2.735q0,9.5,0,18.992a12.531,12.531,0,0,0,.043,1.746c.157,1.1.7,1.868,1.937,1.871,3.4.006,6.8,0,10.437,0V385.334a90.184,90.184,0,0,1,9.038-.051v8.424a9.247,9.247,0,0,0,3.044-2.559,26.926,26.926,0,0,1,9.585-6.617c6.371-2.594,12.889-3.246,19.322-.344,5.916,2.669,9.077,7.486,10.123,13.861a17.4,17.4,0,0,1-1.187,9.489C424.756,407.993,424.642,408.474,424.451,409.094Zm-38.407.278c.217.129.349.278.482.278,7.488.024,14.979.137,22.465.007,3.7-.064,6.317-2.505,7.169-6.158a11.212,11.212,0,0,0-1.664-9.038,8.247,8.247,0,0,0-7.748-3.667,18.2,18.2,0,0,0-9.671,3.629c-4.991,3.619-8.248,8.587-10.876,14.036A3.238,3.238,0,0,0,386.044,409.372Zm59.382-9.927a12.151,12.151,0,0,0,1.416,6.226c2.838,5.363,11.384,5.314,14.343.747a11.782,11.782,0,0,0,.768-12.483,8.594,8.594,0,0,0-13.883-2.006A9.606,9.606,0,0,0,445.426,399.445Z" fill="#fff"/>
      <path id="Path_4" data-name="Path 4" d="M280.842,386.336l7.042,5.793c-.518,1.14-1.083,2.147-1.447,3.222-1.531,4.524-1.042,8.75,2.458,12.186a7.11,7.11,0,0,0,4.124,2.042c4.54.258,9.1.1,13.9.1-.355-.866-.621-1.454-.841-2.06-2.763-7.6-2.2-14.707,3.261-21.008a16.011,16.011,0,0,1,8.907-5.159c6.6-1.449,12.716-.558,17.987,3.976a16.456,16.456,0,0,1,5.406,9.049c1.389,6.2.65,12.059-3.445,17.171a16.431,16.431,0,0,1-12.947,6.516q-16.24.237-32.486.011c-8.757-.125-16.3-7.641-16.82-16.39-.269-4.576.2-8.99,2.908-12.89C279.408,388.083,280.057,387.336,280.842,386.336Zm33.583,13.238a10.636,10.636,0,0,0,1.6,6.18,8.638,8.638,0,0,0,13.152,1.836,11.8,11.8,0,0,0,1.448-14.443,8.618,8.618,0,0,0-9.344-3.589C317.036,390.586,314.454,394.262,314.425,399.574Z" fill="#fff"/>
      <path id="Path_5" data-name="Path 5" d="M296.175,504.168c-.189.645-.344,1.171-.51,1.737h-9.6V449.226h9.852V470c.69-.354,1.059-.5,1.378-.714,6.025-4.1,14.728-2.949,20.141,1.157,5.581,4.234,8.573,9.851,8.476,16.939a20.027,20.027,0,0,1-15.873,19.5c-4.264.8-8.46.627-12.27-1.857C297.3,504.708,296.765,504.479,296.175,504.168ZM316,485.916A26.415,26.415,0,0,0,314.452,481c-3.191-6.37-11.836-6.886-15.719-2.232-3.353,4.018-3.8,8.5-2.068,13.273,2.7,7.445,11.806,7.617,15.839,3.706C314.972,493.355,315.857,490.306,316,485.916Z" fill="#fff"/>
      <path id="Path_6" data-name="Path 6" d="M221.812,409.707c3.221,0,6.383,0,9.546,0a3.494,3.494,0,0,0,3.692-2.749,15.506,15.506,0,0,0,.524-3.923c.04-11,.023-22,.023-32.993V367.2h9.3c.064.629.184,1.262.185,1.9q.017,17.746,0,35.493a16.665,16.665,0,0,1-1.289,7.062,10.666,10.666,0,0,1-9.84,6.525c-3.242.151-6.5.1-9.745-.009a18.023,18.023,0,0,1-3.49-.84c-.727,5.072-2.552,9.664-6.744,13.043-3.528,2.845-7.609,3.894-12.206,4.041v-8.129c.58-.173,1.261-.422,1.963-.579a8.025,8.025,0,0,0,6.26-5.816,20.311,20.311,0,0,0,.891-5.613c.09-9,.04-18,.04-26.994v-2.895h9.54c.042.893.118,1.778.119,2.663q.015,9.373,0,18.746A4.841,4.841,0,0,0,221.812,409.707Z" fill="#fff"/>
      <path id="Path_7" data-name="Path 7" d="M360.673,470.012c.175-.681.311-1.21.477-1.852h9.359c.527,1.931.737,31.991.26,37.762-1.574.04-3.192.1-4.811.117-1.575.02-3.151,0-4.762,0-.168-.669-.3-1.208-.451-1.8-.278.044-.565.006-.738.129-11.546,8.173-29.079-1.347-29.112-16.978-.017-8.065,3.239-14.2,10.219-18.092,6.13-3.417,12.456-3.784,18.624.193C359.995,469.669,360.279,469.8,360.673,470.012ZM340.681,486.99l.257.052c0,.582-.036,1.167.006,1.746a10.1,10.1,0,0,0,7.527,9.2,9.669,9.669,0,0,0,10.953-4.479,13.142,13.142,0,0,0,.988-10.843,9.835,9.835,0,0,0-9.071-6.951,9.5,9.5,0,0,0-9.631,6.456A38.236,38.236,0,0,0,340.681,486.99Z" fill="#fff"/>
      <path id="Path_8" data-name="Path 8" d="M61.864,470.118c.162-.735.28-1.27.426-1.935h9.491v37.678H62.4l-.647-1.911c-5.24,3.924-10.985,4.239-16.839,2.122A18.79,18.79,0,0,1,33.072,493.7c-2.6-8.1-1.033-15.507,5.136-21.555a19.309,19.309,0,0,1,11.583-5.285A17.143,17.143,0,0,1,61.864,470.118Zm.544,16.987a40.5,40.5,0,0,0-1.348-5.5,9.04,9.04,0,0,0-8.02-5.846,9.1,9.1,0,0,0-8.891,3.914c-2.62,3.77-2.853,7.88-1.346,12.122a9.077,9.077,0,0,0,7.887,6.362c4.248.52,7.706-.929,9.911-4.763A14.8,14.8,0,0,0,62.408,487.105Z" fill="#fff"/>
      <path id="Path_9" data-name="Path 9" d="M155.914,469.671c.1-.389.222-.853.384-1.471h9.352c.541,1.648.739,33.872.2,37.679h-9.493c-.148-.494-.309-1.026-.487-1.619a1.712,1.712,0,0,0-.658.136c-9.846,7.125-26.021.941-28.708-13.384-1.364-7.271.428-13.768,5.921-18.866,4.846-4.5,10.676-6.362,17.246-4.945C151.737,467.646,153.658,468.757,155.914,469.671Zm-9.648,28.54a9.354,9.354,0,0,0,9.282-6.563,13.269,13.269,0,0,0,.015-9.252,9.869,9.869,0,0,0-17.636-2.178,12.42,12.42,0,0,0-1.794,8.122C136.882,495.364,141.536,498.377,146.266,498.211Z" fill="#fff"/>
      <path id="Path_10" data-name="Path 10" d="M196.581,449.147h9.467c.015,3.4.036,6.773.044,10.149.008,3.327,0,6.653,0,10.258a13.786,13.786,0,0,0,1.632-.784c7.106-4.757,19.805-.93,22.17,9.072a33.129,33.129,0,0,1,.984,6.882c.131,6.494.048,12.993.041,19.49,0,.488-.071.975-.123,1.644h-9.73c-.045-.821-.131-1.694-.133-2.567-.012-6.081.025-12.161-.029-18.241a22.8,22.8,0,0,0-.5-4.44,5.835,5.835,0,0,0-5.077-4.816,7.153,7.153,0,0,0-8.7,5.837,29.669,29.669,0,0,0-.514,5.194c-.064,5.5-.024,10.995-.024,16.492V505.9H196.58C196.581,487,196.581,468.21,196.581,449.147Z" fill="#fff"/>
      <path id="Path_11" data-name="Path 11" d="M425.083,449.145h9.464c.015,3.49.036,6.951.044,10.411.008,3.582,0,7.165,0,10.747v10.931a17.7,17.7,0,0,0,1.715-1.286c3.314-3.284,6.65-6.548,9.887-9.906A5.813,5.813,0,0,1,451.006,468c3.221.163,6.457.043,9.932.488L445.027,484l17.341,22.042c-2.51,0-4.462.023-6.414-.007-1.907-.029-4.062.419-5.646-.326-1.488-.7-2.386-2.673-3.517-4.107-2.825-3.587-5.635-7.186-8.591-10.96a36.139,36.139,0,0,0-3.068,3.079,3.666,3.666,0,0,0-.516,2.083c-.059,2.5-.023,5-.023,7.5v2.588h-9.51Z" fill="#fff"/>
      <path id="Path_12" data-name="Path 12" d="M380.78,468.057c2.935,0,5.751-.059,8.56.052.523.021,1.02.722,1.425,1.03a53.774,53.774,0,0,1,5.9-2.068c6.674-1.542,16.465,2.665,17.888,12.526a25.8,25.8,0,0,1,.4,3.455c.056,7.408.061,14.817.073,22.226a2.337,2.337,0,0,1-.237.609h-9.58c-.04-.9-.112-1.783-.114-2.664-.01-6.163.033-12.326-.032-18.488a20.971,20.971,0,0,0-.591-4.673,5.328,5.328,0,0,0-4.251-4.074c-4.62-1.147-8.334,1.058-9.3,5.718a24.621,24.621,0,0,0-.485,4.692c-.057,5.579-.022,11.16-.022,16.74v2.693H380.78C380.78,493.381,380.78,480.936,380.78,468.057Z" fill="#fff"/>
      <path id="Path_13" data-name="Path 13" d="M167.535,525.953v-7.791c1.981-.967,3.928-1.571,5.448-2.733,2.858-2.186,3.623-5.421,3.619-8.895q-.021-17.721-.005-35.443v-2.868h9.689c.05.8.134,1.529.135,2.255.008,12.563.074,25.127-.017,37.689-.065,8.97-7.134,16.862-16.879,17.863A15.55,15.55,0,0,1,167.535,525.953Z" fill="#fff"/>
      <path id="Path_14" data-name="Path 14" d="M81.755,449.046h9.691v56.787H81.755Z" fill="#fff"/>
      <path id="Path_15" data-name="Path 15" d="M253.774,367.14h9.384c.539,1.72.7,47.5.135,51.071h-9.519C253.774,401.157,253.774,384.293,253.774,367.14Z" fill="#fff"/>
      <path id="Path_16" data-name="Path 16" d="M197.924,418.1h-9.068c-.527-1.7-.7-47.138-.177-50.9h9.246C197.924,384.1,197.924,400.956,197.924,418.1Z" fill="#fff"/>
      <path id="Path_17" data-name="Path 17" d="M110.593,506.078h-9.83c-.061-.818-.159-1.539-.16-2.261-.012-6.656-.09-13.314.038-19.967a26.872,26.872,0,0,1,1-6.853,12.232,12.232,0,0,1,9.484-8.942,24.5,24.5,0,0,1,11.676-.318v8.222c-1.194.03-2.326.05-3.457.089-1.079.038-2.165.032-3.235.158-3.768.445-5.484,2.4-5.5,6.355-.033,6.406-.009,12.813-.009,19.219Z" fill="#fff"/>
      <path id="Path_18" data-name="Path 18" d="M240.863,468.192h9.426v37.68h-9.25C240.49,504.232,240.3,472.04,240.863,468.192Z" fill="#fff"/>
      <path id="Path_19" data-name="Path 19" d="M245.529,461.21a5.711,5.711,0,0,1-6.1-6.032,6.035,6.035,0,0,1,6.038-5.983,6.226,6.226,0,0,1,6.226,6.044C251.7,458.321,248.851,461.719,245.529,461.21Z" fill="#fff"/>
      <path id="Path_20" data-name="Path 20" d="M181.578,461.21c-3.512.522-6.358-3.147-6.188-5.962a6.135,6.135,0,0,1,6.006-6.035,5.8,5.8,0,0,1,6.2,5.966C187.61,458.94,185.358,461.2,181.578,461.21Z" fill="#fff"/>
      <path id="Path_21" data-name="Path 21" d="M39.747,437.709a5.582,5.582,0,1,1,.075-11.162,5.581,5.581,0,1,1-.075,11.162Z" fill="#fff"/>
      <path id="Path_22" data-name="Path 22" d="M61.425,432.033a5.481,5.481,0,0,1-5.611,5.676,5.581,5.581,0,1,1-.19-11.161A5.487,5.487,0,0,1,61.425,432.033Z" fill="#fff"/>
      <path id="Path_23" data-name="Path 23" d="M307.592,374.035c-.071,3.275-2.37,5.284-5.924,5.174a5.331,5.331,0,0,1-5.237-5.713,5.67,5.67,0,0,1,5.663-5.457A5.444,5.444,0,0,1,307.592,374.035Z" fill="#fff"/>
      <path id="Path_24" data-name="Path 24" d="M159.593,432.1c.44,2.987-2.678,5.859-5.536,5.658a5.746,5.746,0,0,1-5.624-5.727,5.685,5.685,0,0,1,5.561-5.521C157.132,426.277,160.042,429.395,159.593,432.1Z" fill="#fff"/>
    </g>
  </g>
</svg>
