<svg xmlns="http://www.w3.org/2000/svg" width="512" height="217.193" viewBox="0 0 512 217.193">
  <g id="applepay_light" transform="translate(0 -147.404)">
    <g id="Group_3" data-name="Group 3">
      <g id="Group_1" data-name="Group 1">
        <path id="Path_7" data-name="Path 7" d="M96.766,175.412c6.028-7.54,10.118-17.663,9.04-28.008-8.824.439-19.592,5.822-25.826,13.367-5.6,6.462-10.552,17.009-9.26,26.92,9.9.859,19.8-4.951,26.046-12.279" fill="#fff"/>
        <path id="Path_8" data-name="Path 8" d="M105.693,189.626c-14.385-.857-26.616,8.164-33.486,8.164s-17.393-7.732-28.771-7.524A42.423,42.423,0,0,0,7.371,212.174c-15.457,26.641-4.079,66.159,10.952,87.856,7.3,10.734,16.1,22.554,27.688,22.129,10.952-.43,15.245-7.092,28.557-7.092s17.17,7.092,28.763,6.877c12.023-.215,19.539-10.74,26.838-21.485a95.314,95.314,0,0,0,12.017-24.7c-.216-.215-23.183-9.026-23.4-35.445-.217-22.121,18.032-32.644,18.891-33.3-10.3-15.24-26.406-16.959-31.988-17.391" fill="#fff"/>
      </g>
      <g id="Group_2" data-name="Group 2">
        <path id="Path_9" data-name="Path 9" d="M230.948,159.688c31.266,0,53.037,21.552,53.037,52.93,0,31.49-22.22,53.154-53.821,53.154H195.547v55.051H170.536V159.688Zm-35.4,85.09h28.7c21.776,0,34.169-11.724,34.169-32.048s-12.393-31.936-34.057-31.936h-28.81Z" fill="#fff"/>
        <path id="Path_10" data-name="Path 10" d="M290.52,287.436c0-20.548,15.745-33.166,43.664-34.729l32.158-1.9v-9.044c0-13.065-8.822-20.882-23.559-20.882-13.962,0-22.672,6.7-24.791,17.2h-22.78c1.34-21.218,19.428-36.851,48.463-36.851,28.474,0,46.675,15.075,46.675,38.636v80.958H367.234V301.505h-.556c-6.811,13.066-21.664,21.328-37.073,21.328-23,0-39.085-14.294-39.085-35.4Zm75.821-10.608V267.56l-28.922,1.786c-14.4,1.006-22.556,7.371-22.556,17.421,0,10.272,8.486,16.973,21.44,16.973C353.164,303.738,366.341,292.125,366.341,276.828Z" fill="#fff"/>
        <path id="Path_11" data-name="Path 11" d="M412.172,364.039V344.5a44.631,44.631,0,0,0,7.814.446c11.166,0,17.2-4.689,20.88-16.749,0-.224,2.124-7.147,2.124-7.259L400.558,203.35h26.127l29.707,95.587h.444l29.707-95.587H512L468,326.964c-10.046,28.477-21.66,37.633-46,37.633a93.23,93.23,0,0,1-9.825-.558Z" fill="#fff"/>
      </g>
    </g>
  </g>
</svg>
