<svg xmlns="http://www.w3.org/2000/svg" width="511.573" height="469.333" viewBox="0 0 511.573 469.333">
  <g id="bill" transform="translate(1 -20.121)">
    <g id="Group_4" data-name="Group 4">
      <g id="Group_3" data-name="Group 3">
        <path id="Path_6" data-name="Path 6" d="M178.2,335.853H58.733c-5.12,0-8.533,3.413-8.533,8.533v102.4c0,5.12,3.413,8.533,8.533,8.533H178.2c5.12,0,8.533-3.413,8.533-8.533v-102.4C186.733,339.267,183.32,335.853,178.2,335.853Zm-8.533,102.4H67.267V352.92h102.4Z" fill="#fff"/>
        <path id="Path_7" data-name="Path 7" d="M92.867,387.053h51.2c5.12,0,8.533-3.413,8.533-8.533s-3.413-8.533-8.533-8.533h-51.2c-5.12,0-8.533,3.413-8.533,8.533S87.747,387.053,92.867,387.053Z" fill="#fff"/>
        <path id="Path_8" data-name="Path 8" d="M92.867,421.187H127c5.12,0,8.533-3.413,8.533-8.533s-3.413-8.533-8.533-8.533H92.867c-5.12,0-8.533,3.413-8.533,8.533S87.747,421.187,92.867,421.187Z" fill="#fff"/>
        <path id="Path_9" data-name="Path 9" d="M509.293,83.267c-28.351-39.191-66.481-62.072-107.221-63.1-.665-.029-1.333-.049-2.006-.049-.118,0-.234.008-.352.009-.167,0-.334-.009-.5-.009-39.782,0-78.757,21.738-105.984,59.733H255V71.32c0-5.12-3.413-8.533-8.533-8.533H161.134c-5.12,0-8.533,3.413-8.533,8.533v8.533H40.813C17.773,79.853-1,98.627-1,122.52V446.787c0,23.893,18.773,42.667,41.813,42.667h325.12A42.253,42.253,0,0,0,408.6,446.787V156.507c39.926-2.508,75.628-24.585,100.693-63.853A9.243,9.243,0,0,0,509.293,83.267Zm-83.626-20.48a25.6,25.6,0,0,1-51.2,0,25.6,25.6,0,0,1,51.2,0Zm-256,17.066h68.267v93.013l-29.013-23.04a12.134,12.134,0,0,0-5.12-1.707,12.12,12.12,0,0,0-5.12,1.707l-29.013,23.04V79.853ZM365.933,472.387H40.813c-13.653,0-24.747-11.093-24.747-25.6V122.52c0-14.507,11.093-25.6,24.747-25.6H152.6v77.653a15.772,15.772,0,0,0,9.387,14.507,16.084,16.084,0,0,0,6.827,1.707,16.4,16.4,0,0,0,10.24-3.413L203.8,167.747l24.747,19.627a17.4,17.4,0,0,0,17.067,1.707A15.77,15.77,0,0,0,255,174.573V96.92h38.4c14.555,18.649,31.051,33.174,48.839,43.192A124.161,124.161,0,0,0,391.533,156.1V446.787A25.143,25.143,0,0,1,365.933,472.387Zm39.254-332.8q-3.254.079-6.5-.058l-.105,0a100.05,100.05,0,0,1-12.649-1.362q-.559-.1-1.117-.2-.777-.143-1.552-.3C355.878,132.077,329.728,114.67,308.2,88c15.181-20.292,33.231-34.822,52.975-43.015a43.306,43.306,0,0,0-3.778,17.8,42.667,42.667,0,1,0,85.334,0,43.33,43.33,0,0,0-3.68-17.584c19.643,8.285,37.732,22.866,52.32,43.184C469.187,120.813,438.467,138.733,405.187,139.587Z" fill="#fff"/>
      </g>
    </g>
  </g>
</svg>
