<svg xmlns="http://www.w3.org/2000/svg" xmlns:xlink="http://www.w3.org/1999/xlink" width="675.104" height="537.603" viewBox="0 0 675.104 537.603">
  <defs>
    <clipPath id="clip-path">
      <path id="Path_585" data-name="Path 585" d="M766.3,565.3l-520-14.9a48.07,48.07,0,0,1-46.5-43.3l-25.1-248a48.18,48.18,0,0,1,47.2-53l578.8-8a48.21,48.21,0,0,1,48.5,54.1L815.5,523.1A48.1,48.1,0,0,1,766.3,565.3Z" fill="none"/>
    </clipPath>
    <clipPath id="clip-path-2">
      <path id="Path_646" data-name="Path 646" d="M554.8,213.9s5,1.5,15.6,1.7,22.7,3.3,27.4,9.2,6.2,49.4,5.5,69.1-14.8,49-14.8,49-33.7,3.8-61.3,2.5-34.2-7.4-36.1-9.3-3-6.5-1.9-8.5,6.5-17.5,8.5-32.4-2.2-35.7-.3-54,9-23.7,9-23.7,8.9-3,24.3-3.5a235.364,235.364,0,0,1,24.1-.1Z" fill="none"/>
    </clipPath>
  </defs>
  <g id="checkmail" transform="translate(-174.458 -115.1)">
    <path id="Path_562" data-name="Path 562" d="M766.3,565.3l-520-14.9a48.07,48.07,0,0,1-46.5-43.3l-25.1-248a48.18,48.18,0,0,1,47.2-53l578.8-8a48.21,48.21,0,0,1,48.5,54.1L815.5,523.1A48.1,48.1,0,0,1,766.3,565.3Z" fill="rgba(255,209,184,0.12)"/>
    <g id="Group_8" data-name="Group 8" clip-path="url(#clip-path)">
      <path id="Path_563" data-name="Path 563" d="M691.4,632.6h415.5a15,15,0,0,0,15-15V382a15,15,0,0,0-15-15H691.4a15,15,0,0,0-15,15V617.6a15,15,0,0,0,15,15Z" fill="none" stroke="#ffd1b8" stroke-linecap="round" stroke-linejoin="round" stroke-width="1.8"/>
      <path id="Path_564" data-name="Path 564" d="M142.3,616.8H561.4a15,15,0,0,0,15-15V257.5a15,15,0,0,0-15-15H142.3a15,15,0,0,0-15,15V601.8a15,15,0,0,0,15,15Z" fill="none" stroke="#ffd1b8" stroke-linecap="round" stroke-linejoin="round" stroke-width="1.8"/>
      <path id="Path_565" data-name="Path 565" d="M714,366.9h20.3a4.32,4.32,0,0,0,4.3-3.8l1.6-14.4a4.33,4.33,0,0,0-4.3-4.8H712.4a4.34,4.34,0,0,0-4.3,4.8l1.6,14.4a4.32,4.32,0,0,0,4.3,3.8Z" fill="none" stroke="#ffd1b8" stroke-linecap="round" stroke-linejoin="round" stroke-width="1.8"/>
      <path id="Path_566" data-name="Path 566" d="M726.5,344s8-.8,9.6-11.6c0,0-7.2,2.1-9.5,7.2,0,0-1-11.4-6.4-12.5,0,0-2.4,8.5,1.4,12.7,0,0-2.9-4.8-10.3-4.7a13.6,13.6,0,0,0,9.2,8.8" fill="#ffd1b8"/>
      <path id="Path_567" data-name="Path 567" d="M228.3,347.2h20.3a4.32,4.32,0,0,0,4.3-3.8l1.6-14.4a4.33,4.33,0,0,0-4.3-4.8H226.7a4.34,4.34,0,0,0-4.3,4.8l1.6,14.4a4.33,4.33,0,0,0,4.3,3.8Z" fill="none" stroke="#ffd1b8" stroke-linecap="round" stroke-linejoin="round" stroke-width="1.8"/>
      <path id="Path_568" data-name="Path 568" d="M240.8,324.2s8-.8,9.6-11.6c0,0-7.2,2.1-9.5,7.2,0,0-1-11.4-6.4-12.5,0,0-2.4,8.5,1.4,12.7,0,0-2.9-4.8-10.3-4.7a13.6,13.6,0,0,0,9.2,8.8" fill="#ffd1b8"/>
      <path id="Path_569" data-name="Path 569" d="M694.6,416.7h90.2a4.23,4.23,0,0,0,4.2-4.2V385a4.23,4.23,0,0,0-4.2-4.2H694.6a4.23,4.23,0,0,0-4.2,4.2v27.4A4.25,4.25,0,0,0,694.6,416.7Z" fill="none" stroke="#ffd1b8" stroke-linecap="round" stroke-linejoin="round" stroke-width="1.8"/>
      <path id="Path_570" data-name="Path 570" d="M729.3,390.6h20.8a1.54,1.54,0,0,0,1.5-1.5h0a1.54,1.54,0,0,0-1.5-1.5H729.3a1.54,1.54,0,0,0-1.5,1.5h0a1.54,1.54,0,0,0,1.5,1.5Z" fill="#ffd1b8"/>
      <path id="Path_571" data-name="Path 571" d="M694.6,462.5h90.2a4.23,4.23,0,0,0,4.2-4.2V430.9a4.23,4.23,0,0,0-4.2-4.2H694.6a4.23,4.23,0,0,0-4.2,4.2v27.4a4.23,4.23,0,0,0,4.2,4.2Z" fill="none" stroke="#ffd1b8" stroke-linecap="round" stroke-linejoin="round" stroke-width="1.8"/>
      <path id="Path_572" data-name="Path 572" d="M729.3,436.4h20.8a1.54,1.54,0,0,0,1.5-1.5h0a1.54,1.54,0,0,0-1.5-1.5H729.3a1.54,1.54,0,0,0-1.5,1.5h0a1.54,1.54,0,0,0,1.5,1.5Z" fill="#ffd1b8"/>
      <path id="Path_573" data-name="Path 573" d="M231.4,494.9h90.2a4.23,4.23,0,0,0,4.2-4.2V463.3a4.23,4.23,0,0,0-4.2-4.2H231.4a4.23,4.23,0,0,0-4.2,4.2v27.4a4.23,4.23,0,0,0,4.2,4.2Z" fill="none" stroke="#ffd1b8" stroke-linecap="round" stroke-linejoin="round" stroke-width="1.8"/>
      <path id="Path_574" data-name="Path 574" d="M266.2,468.7H287a1.54,1.54,0,0,0,1.5-1.5h0a1.54,1.54,0,0,0-1.5-1.5H266.2a1.54,1.54,0,0,0-1.5,1.5h0a1.42,1.42,0,0,0,1.5,1.5Z" fill="#ffd1b8"/>
      <path id="Path_575" data-name="Path 575" d="M347.2,494.9h90.2a4.23,4.23,0,0,0,4.2-4.2V463.3a4.23,4.23,0,0,0-4.2-4.2H347.2a4.23,4.23,0,0,0-4.2,4.2v27.4a4.23,4.23,0,0,0,4.2,4.2Z" fill="none" stroke="#ffd1b8" stroke-linecap="round" stroke-linejoin="round" stroke-width="1.8"/>
      <path id="Path_576" data-name="Path 576" d="M382,468.7h20.8a1.54,1.54,0,0,0,1.5-1.5h0a1.54,1.54,0,0,0-1.5-1.5H382a1.54,1.54,0,0,0-1.5,1.5h0a1.42,1.42,0,0,0,1.5,1.5Z" fill="#ffd1b8"/>
      <path id="Path_577" data-name="Path 577" d="M809.6,416.7h90.2a4.23,4.23,0,0,0,4.2-4.2V385a4.23,4.23,0,0,0-4.2-4.2H809.6a4.23,4.23,0,0,0-4.2,4.2v27.4A4.25,4.25,0,0,0,809.6,416.7Z" fill="none" stroke="#ffd1b8" stroke-linecap="round" stroke-linejoin="round" stroke-width="1.8"/>
      <path id="Path_578" data-name="Path 578" d="M844.3,390.6h20.8a1.54,1.54,0,0,0,1.5-1.5h0a1.54,1.54,0,0,0-1.5-1.5H844.3a1.54,1.54,0,0,0-1.5,1.5h0a1.54,1.54,0,0,0,1.5,1.5Z" fill="#ffd1b8"/>
      <path id="Path_579" data-name="Path 579" d="M809.6,462.5h90.2a4.23,4.23,0,0,0,4.2-4.2V430.9a4.23,4.23,0,0,0-4.2-4.2H809.6a4.23,4.23,0,0,0-4.2,4.2v27.4a4.23,4.23,0,0,0,4.2,4.2Z" fill="none" stroke="#ffd1b8" stroke-linecap="round" stroke-linejoin="round" stroke-width="1.8"/>
      <path id="Path_580" data-name="Path 580" d="M844.3,436.4h20.8a1.54,1.54,0,0,0,1.5-1.5h0a1.54,1.54,0,0,0-1.5-1.5H844.3a1.54,1.54,0,0,0-1.5,1.5h0a1.54,1.54,0,0,0,1.5,1.5Z" fill="#ffd1b8"/>
      <path id="Path_581" data-name="Path 581" d="M100.1,347.3h455a4.65,4.65,0,0,0,4.6-4.6V263a4.65,4.65,0,0,0-4.6-4.6h-455a4.65,4.65,0,0,0-4.6,4.6v79.7a4.59,4.59,0,0,0,4.6,4.6Z" fill="none" stroke="#ffd1b8" stroke-linecap="round" stroke-linejoin="round" stroke-width="1.8"/>
      <path id="Path_582" data-name="Path 582" d="M100.1,446.3h455a4.65,4.65,0,0,0,4.6-4.6V362a4.65,4.65,0,0,0-4.6-4.6h-455a4.65,4.65,0,0,0-4.6,4.6v79.7a4.65,4.65,0,0,0,4.6,4.6Z" fill="none" stroke="#ffd1b8" stroke-linecap="round" stroke-linejoin="round" stroke-width="1.8"/>
      <rect id="Rectangle_27" data-name="Rectangle 27" width="9.9" height="50.3" transform="translate(519.23 297.09)" fill="none" stroke="#ffd1b8" stroke-linecap="round" stroke-linejoin="round" stroke-width="1.8"/>
      <rect id="Rectangle_28" data-name="Rectangle 28" width="10.3" height="36.6" transform="translate(508.89 310.7)" fill="none" stroke="#ffd1b8" stroke-linecap="round" stroke-linejoin="round" stroke-width="1.8"/>
      <rect id="Rectangle_29" data-name="Rectangle 29" width="9.9" height="50.3" transform="translate(220.85 395.83)" fill="none" stroke="#ffd1b8" stroke-linecap="round" stroke-linejoin="round" stroke-width="1.8"/>
      <rect id="Rectangle_30" data-name="Rectangle 30" width="10.3" height="36.6" transform="translate(210.51 409.54)" fill="none" stroke="#ffd1b8" stroke-linecap="round" stroke-linejoin="round" stroke-width="1.8"/>
      <rect id="Rectangle_31" data-name="Rectangle 31" width="9.9" height="50.3" transform="translate(240.94 395.83)" fill="none" stroke="#ffd1b8" stroke-linecap="round" stroke-linejoin="round" stroke-width="1.8"/>
      <rect id="Rectangle_32" data-name="Rectangle 32" width="9.9" height="50.3" transform="translate(250.677 397.771) rotate(-17.52)" fill="none" stroke="#ffd1b8" stroke-linecap="round" stroke-linejoin="round" stroke-width="1.8"/>
      <rect id="Rectangle_33" data-name="Rectangle 33" width="10.3" height="36.6" transform="translate(230.7 409.54)" fill="none" stroke="#ffd1b8" stroke-linecap="round" stroke-linejoin="round" stroke-width="1.8"/>
      <path id="Path_583" data-name="Path 583" d="M439.9,303.6l-1.1-14.9a1.65,1.65,0,0,1,1.7-1.8h8.6a1.71,1.71,0,0,1,1.7,1.8l-1.1,14.9s9,5.8,8.9,10.6c-.1,3.7-2.3,21.4-3.3,29.2a4.32,4.32,0,0,1-4.3,3.8H438.6a4.32,4.32,0,0,1-4.3-3.8c-1-7.8-3.2-25.5-3.3-29.2C430.9,309.4,439.9,303.6,439.9,303.6Z" fill="#ffd1b8"/>
      <path id="Path_584" data-name="Path 584" d="M395.7,303.6l-1.1-14.9a1.65,1.65,0,0,1,1.7-1.8h8.6a1.71,1.71,0,0,1,1.7,1.8l-1.1,14.9s9,5.8,8.9,10.6c-.1,3.7-2.3,21.4-3.3,29.2a4.32,4.32,0,0,1-4.3,3.8H394.4a4.32,4.32,0,0,1-4.3-3.8c-1-7.8-3.2-25.5-3.3-29.2C386.7,309.4,395.7,303.6,395.7,303.6Z" fill="#ffd1b8"/>
      <line id="Line_72" data-name="Line 72" x1="932.9" transform="translate(-95.7 540.7)" fill="none" stroke="#ffd1b8" stroke-linecap="round" stroke-linejoin="round" stroke-width="1.8"/>
    </g>
    <path id="Path_586" data-name="Path 586" d="M423.9,446.3H340.7a4.91,4.91,0,0,1-4.9-4.9V428.3a4.91,4.91,0,0,1,4.9-4.9h83.2a4.91,4.91,0,0,1,4.9,4.9v13.1a4.91,4.91,0,0,1-4.9,4.9Z" fill="none" stroke="#b8d8c7" stroke-linecap="round" stroke-linejoin="round" stroke-width="1.8"/>
    <rect id="Rectangle_34" data-name="Rectangle 34" width="60" height="21" transform="translate(352.2 402.3)" fill="none" stroke="#b8d8c7" stroke-linecap="round" stroke-linejoin="round" stroke-width="1.8"/>
    <circle id="Ellipse_151" data-name="Ellipse 151" cx="1.5" cy="1.5" r="1.5" transform="translate(343.7 429.5)" fill="#b8d8c7"/>
    <path id="Path_587" data-name="Path 587" d="M434.3,423.8l42.2-15.7a4.23,4.23,0,0,0,2.7-3.9h0l-83.8-6,12.9,23.2,21.8,2.9A8.57,8.57,0,0,0,434.3,423.8Z" fill="#63737a"/>
    <path id="Path_588" data-name="Path 588" d="M328.1,408.5l-7.6-59.3a2.68,2.68,0,0,1,2.8-3l101.4,7.2a3,3,0,0,1,2.8,2.8l6,65.3a2.66,2.66,0,0,1-3,2.9l-99.8-13.2A3.18,3.18,0,0,1,328.1,408.5Z" fill="#22272e"/>
    <path id="Path_589" data-name="Path 589" d="M479.2,404.3a4.13,4.13,0,0,1-2.7,3.9l-42.2,15.7a7.39,7.39,0,0,1-3.3.5,10.551,10.551,0,0,1-2.6-3.1Z" fill="#22272e"/>
    <ellipse id="Ellipse_152" data-name="Ellipse 152" cx="6" cy="7" rx="6" ry="7" transform="translate(363.397 381.141) rotate(-36.44)" fill="#63737a"/>
    <path id="Path_590" data-name="Path 590" d="M611.3,140.1H580.7l-3.1,2a1.49,1.49,0,0,1-2.3-1.3V119.1a4,4,0,0,1,4-4h32.1a4,4,0,0,1,4,4V136a4.18,4.18,0,0,1-4.1,4.1Z" fill="#f4c2c9"/>
    <line id="Line_73" data-name="Line 73" x2="10.7" transform="translate(594.9 125.1)" fill="none" stroke="#22272e" stroke-linecap="round" stroke-linejoin="round" stroke-width="1.8"/>
    <line id="Line_74" data-name="Line 74" x2="6.5" transform="translate(594.9 130.6)" fill="none" stroke="#22272e" stroke-linecap="round" stroke-linejoin="round" stroke-width="1.8"/>
    <rect id="Rectangle_35" data-name="Rectangle 35" width="5.5" height="5.5" transform="translate(583.9 125.1)" fill="none" stroke="#22272e" stroke-linecap="round" stroke-linejoin="round" stroke-width="1.8"/>
    <path id="Path_591" data-name="Path 591" d="M428.5,302l-169,25.6a6.52,6.52,0,0,1-7.5-6L241.9,169.4a6.93,6.93,0,0,1,7.4-7.4l169.3,10.8a6.54,6.54,0,0,1,6.1,5.9l9.7,115.9A7.06,7.06,0,0,1,428.5,302Z" fill="#63737a"/>
    <path id="Path_592" data-name="Path 592" d="M433.1,301.8,263.3,327.5a6.52,6.52,0,0,1-7.5-6L245.6,168.6a7,7,0,0,1,7.5-7.5l170,10.8a6.55,6.55,0,0,1,6.1,6L439,294.3A6.81,6.81,0,0,1,433.1,301.8Z" fill="#22272e"/>
    <path id="Path_593" data-name="Path 593" d="M322.4,249.4,274.6,252a2.78,2.78,0,0,1-2.9-2.6L268.9,209a2.84,2.84,0,0,1,2.8-3l47.8.3a2.76,2.76,0,0,1,2.8,2.6l2.8,37.5a2.82,2.82,0,0,1-2.7,3Z" fill="#6dafa7"/>
    <path id="Path_594" data-name="Path 594" d="M373.8,233.8l-40,1.4a2.78,2.78,0,0,1-2.9-2.6l-1.7-23.3a2.84,2.84,0,0,1,2.8-3l40,.3a2.9,2.9,0,0,1,2.8,2.6l1.7,21.6a2.76,2.76,0,0,1-2.7,3Z" fill="#ffb48b"/>
    <path id="Path_595" data-name="Path 595" d="M419.1,232.3l-33.7,1.2a2.78,2.78,0,0,1-2.9-2.6l-1.7-21.1a2.84,2.84,0,0,1,2.8-3l33.7.2a2.9,2.9,0,0,1,2.8,2.6l1.6,19.7a2.73,2.73,0,0,1-2.6,3Z" fill="#f4c2c9"/>
    <path id="Path_596" data-name="Path 596" d="M325.4,288.6l-47.8,5.2a2.77,2.77,0,0,1-3.1-2.6l-1.8-26.1a2.87,2.87,0,0,1,2.6-3l47.9-3.2a2.8,2.8,0,0,1,3,2.6l1.8,24.1a3,3,0,0,1-2.6,3Z" fill="none" stroke="#63737a" stroke-linecap="round" stroke-linejoin="round" stroke-width="1.8"/>
    <path id="Path_597" data-name="Path 597" d="M378.3,287.6l-39.9,4.7a2.77,2.77,0,0,1-3.1-2.6l-3.2-43.1a2.81,2.81,0,0,1,2.6-3l40-1.9a2.78,2.78,0,0,1,2.9,2.6l3.2,40.3a2.85,2.85,0,0,1-2.5,3Z" fill="#f4c2c9"/>
    <path id="Path_598" data-name="Path 598" d="M370,249.2l-28.7,1.7a1.11,1.11,0,0,0-1.1,1.3l1.3,17.8a1.16,1.16,0,0,0,1.3,1.1l28.7-2.5a1.16,1.16,0,0,0,1.1-1.3l-1.3-17A1.38,1.38,0,0,0,370,249.2Z" fill="#6dafa7"/>
    <path id="Path_599" data-name="Path 599" d="M423.1,277.7l-33.7,3.7a2.77,2.77,0,0,1-3.1-2.6l-2.7-34.7a2.81,2.81,0,0,1,2.6-3l33.7-1.6a2.78,2.78,0,0,1,2.9,2.6l2.7,32.6a2.7,2.7,0,0,1-2.4,3Z" fill="#ffb48b"/>
    <line id="Line_75" data-name="Line 75" x2="0.6" y2="7.4" transform="translate(301 272.1)" fill="none" stroke="#63737a" stroke-linecap="round" stroke-linejoin="round" stroke-width="1.8"/>
    <line id="Line_76" data-name="Line 76" y1="0.6" x2="7" transform="translate(297.8 275.5)" fill="none" stroke="#63737a" stroke-linecap="round" stroke-linejoin="round" stroke-width="1.8"/>
    <path id="Path_600" data-name="Path 600" d="M348.9,280.3c-.2-2-1.7-3.6-3.5-3.4a3.65,3.65,0,0,0-3,4.1,3.46,3.46,0,0,0,3.6,3.4A3.88,3.88,0,0,0,348.9,280.3Z" fill="#282828"/>
    <line id="Line_77" data-name="Line 77" y1="1.9" x2="18.7" transform="translate(354.7 277.8)" fill="none" stroke="#282828" stroke-linecap="round" stroke-linejoin="round" stroke-width="1.8"/>
    <path id="Path_601" data-name="Path 601" d="M396.3,250.5a3.37,3.37,0,0,0-3.1-3.3c-1.6.1-2.7,1.7-2.6,3.6a3.226,3.226,0,0,0,3.1,3.3,3.078,3.078,0,0,0,2.6-3.6Z" fill="#6dafa7"/>
    <line id="Line_78" data-name="Line 78" y1="1" x2="16.1" transform="translate(401.4 249.2)" fill="none" stroke="#282828" stroke-linecap="round" stroke-linejoin="round" stroke-width="1.8"/>
    <path id="Path_602" data-name="Path 602" d="M397.2,261.2c-.2-1.9-1.5-3.3-3.1-3.2s-2.7,1.8-2.6,3.7,1.6,3.4,3.1,3.2a3.23,3.23,0,0,0,2.6-3.7Z" fill="#6dafa7"/>
    <line id="Line_79" data-name="Line 79" y1="1.3" x2="16.2" transform="translate(402.2 259.5)" fill="none" stroke="#282828" stroke-linecap="round" stroke-linejoin="round" stroke-width="1.8"/>
    <path id="Path_603" data-name="Path 603" d="M398.1,271.9c-.2-1.9-1.5-3.3-3.1-3.2s-2.7,1.8-2.6,3.7a3.2,3.2,0,0,0,3.1,3.2,3.31,3.31,0,0,0,2.6-3.7Z" fill="#6dafa7"/>
    <line id="Line_80" data-name="Line 80" y1="1.6" x2="16.1" transform="translate(403.1 269.8)" fill="none" stroke="#282828" stroke-linecap="round" stroke-linejoin="round" stroke-width="1.8"/>
    <path id="Path_604" data-name="Path 604" d="M285.6,222.2l-6.5.1a1.28,1.28,0,0,1-1.2-1.1l-.5-6.8a1.16,1.16,0,0,1,1.2-1.2h6.5a1.28,1.28,0,0,1,1.2,1.1l.5,6.7a1.38,1.38,0,0,1-1.2,1.2Z" fill="#ffb48b"/>
    <line id="Line_81" data-name="Line 81" y1="0.1" x2="22.5" transform="translate(292.6 213.1)" fill="none" stroke="#282828" stroke-linecap="round" stroke-linejoin="round" stroke-width="1.8"/>
    <line id="Line_82" data-name="Line 82" y1="0.2" x2="22.5" transform="translate(293 218.8)" fill="none" stroke="#282828" stroke-linecap="round" stroke-linejoin="round" stroke-width="1.8"/>
    <path id="Path_605" data-name="Path 605" d="M393.5,220.6l-5.1.1a.86.86,0,0,1-.7-.6l-.5-6.5a.68.68,0,0,1,.7-.7H393a.86.86,0,0,1,.7.6l.5,6.4a.75.75,0,0,1-.7.7Z" fill="#282828"/>
    <line id="Line_83" data-name="Line 83" x2="16.7" transform="translate(398.3 212.8)" fill="none" stroke="#282828" stroke-linecap="round" stroke-linejoin="round" stroke-width="1.8"/>
    <line id="Line_84" data-name="Line 84" y1="0.2" x2="16.6" transform="translate(398.8 217.7)" fill="none" stroke="#282828" stroke-linecap="round" stroke-linejoin="round" stroke-width="1.8"/>
    <line id="Line_85" data-name="Line 85" y1="0.7" x2="27.8" transform="translate(388.2 225.5)" fill="none" stroke="#282828" stroke-linecap="round" stroke-linejoin="round" stroke-width="1.8"/>
    <path id="Path_606" data-name="Path 606" d="M286.7,237.7l-6.5.2a1.2,1.2,0,0,1-1.2-1.1l-.5-6.8a1.13,1.13,0,0,1,1.1-1.2l6.5-.2a1.28,1.28,0,0,1,1.2,1.1l.5,6.7A1.23,1.23,0,0,1,286.7,237.7Z" fill="#ffb48b"/>
    <line id="Line_86" data-name="Line 86" y1="0.6" x2="22.5" transform="translate(293.7 227.9)" fill="none" stroke="#282828" stroke-linecap="round" stroke-linejoin="round" stroke-width="1.8"/>
    <line id="Line_87" data-name="Line 87" y1="0.7" x2="22.5" transform="translate(294.1 233.7)" fill="none" stroke="#282828" stroke-linecap="round" stroke-linejoin="round" stroke-width="1.8"/>
    <path id="Path_607" data-name="Path 607" d="M303.1,189.3l-33.7-1a2.16,2.16,0,0,1-2.1-2l-.4-5.3a2.13,2.13,0,0,1,2.2-2.3l33.7,1.4a2.16,2.16,0,0,1,2.1,2l.4,4.9a2.18,2.18,0,0,1-2.2,2.3Z" fill="#6dafa7"/>
    <line id="Line_88" data-name="Line 88" y1="0.1" x2="31.8" transform="translate(337.2 212.9)" fill="none" stroke="#282828" stroke-linecap="round" stroke-linejoin="round" stroke-width="1.8"/>
    <line id="Line_89" data-name="Line 89" y1="0.4" x2="31.8" transform="translate(337.6 218.2)" fill="none" stroke="#282828" stroke-linecap="round" stroke-linejoin="round" stroke-width="1.8"/>
    <line id="Line_90" data-name="Line 90" y1="0.4" x2="17.1" transform="translate(338.2 227)" fill="none" stroke="#282828" stroke-linecap="round" stroke-linejoin="round" stroke-width="1.8"/>
    <path id="Path_608" data-name="Path 608" d="M418.1,188.8a3,3,0,0,0-2.5-2.9c-1.2-.1-2.2,1.2-2,2.7a2.85,2.85,0,0,0,2.5,2.9C417.3,191.6,418.2,190.3,418.1,188.8Z" fill="#63737a"/>
    <path id="Path_609" data-name="Path 609" d="M409.2,188.5a2.94,2.94,0,0,0-2.5-2.9c-1.3-.1-2.2,1.2-2.1,2.8a2.93,2.93,0,0,0,2.6,2.9C408.4,191.3,409.3,190,409.2,188.5Z" fill="#63737a"/>
    <path id="Path_610" data-name="Path 610" d="M400,188.1a3.13,3.13,0,0,0-2.6-3c-1.3-.1-2.3,1.2-2.2,2.8a3.13,3.13,0,0,0,2.6,3C399.2,191,400.1,189.7,400,188.1Z" fill="#63737a"/>
    <path id="Path_611" data-name="Path 611" d="M458.7,201.9l-44.4-.8a3.4,3.4,0,0,1-3.4-3.2l-4-48.9a2.73,2.73,0,0,1,2.9-2.9l44.6,4.7a3.43,3.43,0,0,1,3.1,3.2l3.9,44.9a2.71,2.71,0,0,1-2.7,3Z" fill="#cb7d53"/>
    <path id="Path_612" data-name="Path 612" d="M461.1,201.1l-44.4-.8a3.4,3.4,0,0,1-3.4-3.2l-4-48.9a2.73,2.73,0,0,1,2.9-2.9l44.6,4.7a3.43,3.43,0,0,1,3.1,3.2l3.9,44.9a2.77,2.77,0,0,1-2.7,3Z" fill="#ffb48b"/>
    <line id="Line_91" data-name="Line 91" x2="23.5" y2="2.2" transform="translate(428.7 154.4)" fill="none" stroke="#63737a" stroke-linecap="round" stroke-linejoin="round" stroke-width="1.8"/>
    <line id="Line_92" data-name="Line 92" x2="23.5" y2="2" transform="translate(429.1 159.2)" fill="none" stroke="#63737a" stroke-linecap="round" stroke-linejoin="round" stroke-width="1.8"/>
    <line id="Line_93" data-name="Line 93" x2="23.6" y2="1.6" transform="translate(430 170.2)" fill="none" stroke="#63737a" stroke-linecap="round" stroke-linejoin="round" stroke-width="1.8"/>
    <line id="Line_94" data-name="Line 94" x2="23.5" y2="1.4" transform="translate(430.4 174.9)" fill="none" stroke="#63737a" stroke-linecap="round" stroke-linejoin="round" stroke-width="1.8"/>
    <line id="Line_95" data-name="Line 95" x2="23.5" y2="1" transform="translate(431.4 186)" fill="none" stroke="#63737a" stroke-linecap="round" stroke-linejoin="round" stroke-width="1.8"/>
    <line id="Line_96" data-name="Line 96" x2="23.5" y2="0.8" transform="translate(431.8 190.7)" fill="none" stroke="#63737a" stroke-linecap="round" stroke-linejoin="round" stroke-width="1.8"/>
    <path id="Path_613" data-name="Path 613" d="M420.6,157.1l1.2,1.5,1.7-2.3" fill="none" stroke="#6dafa7" stroke-linecap="round" stroke-linejoin="round" stroke-width="1.8"/>
    <path id="Path_614" data-name="Path 614" d="M421.9,173.1l1.2,1.4,1.8-2.3" fill="none" stroke="#6dafa7" stroke-linecap="round" stroke-linejoin="round" stroke-width="1.8"/>
    <path id="Path_615" data-name="Path 615" d="M423.2,188.8l1.3,1.4,1.7-2.4" fill="none" stroke="#6dafa7" stroke-linecap="round" stroke-linejoin="round" stroke-width="1.8"/>
    <path id="Path_616" data-name="Path 616" d="M479.8,272.2s-6.2,12.9-6.7,21.1,8.2,41.1,22.4,66.2c0,0,13.4-4.4,13.4-8.5s-7.9-52.6-7.4-54,6-11.7,6-16.1S481.9,267.4,479.8,272.2Z" fill="#f4c2c9"/>
    <path id="Path_617" data-name="Path 617" d="M507.5,280.9c0-4.4-25.5-13.5-27.6-8.7,0,0-.8,1.8-1.9,4.4,8.1,6.3,16.8,11.7,26.7,13.5C506.1,286.9,507.5,283.1,507.5,280.9Z" fill="#e26e85"/>
    <path id="Path_618" data-name="Path 618" d="M506.4,217.4s-10,3.4-17.6,20.6-15.7,31.6-15.7,31.6,12.5,12.4,28.5,18.7C517.6,294.8,518.2,219,506.4,217.4Z" fill="#6dafa7"/>
    <path id="Path_619" data-name="Path 619" d="M475.9,264.5s17.1,14,33,20.1" fill="none" stroke="#282828" stroke-linecap="round" stroke-linejoin="round" stroke-width="1.8"/>
    <path id="Path_620" data-name="Path 620" d="M539.8,590.4s-.9,21-.7,23-7,6.3-15.9,6-9.7-2.9-9.7-2.9-2-22.7-2.2-25.9S538,586.1,539.8,590.4Z" fill="#f4c2c9"/>
    <path id="Path_621" data-name="Path 621" d="M539.3,602.5c.2-6,.5-12.1.5-12.1-1.8-4.3-28.7-3-28.5.2.1,1.5.6,7.1,1,12.7C520.2,607.2,530.6,606.2,539.3,602.5Z" fill="#22272e"/>
    <path id="Path_622" data-name="Path 622" d="M539.1,612.8s.8,5.9,1.1,12.3,1.3,18.1.2,20.1-7.2,3.7-21.5,4.8-27.5.1-29.8-1.7-1.6-4.5.6-6.6,10.9-11.4,14.5-15.2c4.7-5,8.1-10.1,8.1-10.7.3-2.4.8-2.4.8-2.4s.6,1.5,1.4,1.4,1.9-4.6,6.7-3.5,6.8,4.4,8.6,4.4S536.5,615,539.1,612.8Z" fill="#22272e"/>
    <path id="Path_623" data-name="Path 623" d="M577.3,594.6s2.7,21.6,3.2,22.9,5.5,4.9,13.3,4.5,10.8-2.7,11.1-3.2-.2-25.2-.4-26.8S579.1,590.8,577.3,594.6Z" fill="#f4c2c9"/>
    <path id="Path_624" data-name="Path 624" d="M604.8,603.1c-.1-5.5-.3-10.6-.4-11.3-.3-1.6-25.3-1.1-27.2,2.7,0,0,.6,4.8,1.3,10A46.9,46.9,0,0,0,604.8,603.1Z" fill="#22272e"/>
    <path id="Path_625" data-name="Path 625" d="M580.1,615.6a24.67,24.67,0,0,0-.2,4.7c.1,1.3.2,3.1.2,5.3.1,4.6.5,20.5,1.6,22.8s13.7,4.2,23.2,4.3,16.5-2.4,17.6-5,.5-6.4-2.8-10.6-10.9-10.7-11.8-13.8a47.462,47.462,0,0,0-2.9-7.7,6.58,6.58,0,0,1-2.7,2.2c-1.3.4-3.2-5-7.3-5.2s-5.9,1.4-8.5,5.2a9.1,9.1,0,0,1-6.4-2.2Z" fill="#22272e"/>
    <path id="Path_626" data-name="Path 626" d="M492.4,333.8a212.329,212.329,0,0,0-3.6,25.6c-1.2,14.7,3,105.8,3.6,112.9s2.9,47.6,5.5,67.3c2.1,16.2.6,48.9,5.5,53.5s19.9,7.1,29.2,4.6,13.6-7.1,14.7-10.9-3.3-32.7-3-47.4,0-58.1-.5-68.4c0,0,4.1-52.6,9-64.6s12-56.2-1.6-69C537.4,324.6,493.6,331.7,492.4,333.8Z" fill="#22272e"/>
    <path id="Path_627" data-name="Path 627" d="M514.3,339.6s-.1,19.8.7,34.6a85.112,85.112,0,0,0,1.5,13.4c2.5,10.4,7.9,11.2,12,13.6s18.8,61.3,24.8,76.6c0,0,4.6,35.2,8.2,56.2s3,46.4,5.7,55.1,18.5,10.4,26.2,9.7,18-3.7,17.7-12.7-1.8-34.6-3.1-56.4-3.8-54.3-4.4-61.9c0,0-3-36-4.6-54.5s-.7-37.4-3.1-69.3C593.3,312,514.2,321.8,514.3,339.6Z" fill="#22272e"/>
    <path id="Path_628" data-name="Path 628" d="M515,374.2a85.112,85.112,0,0,0,1.5,13.4c2.5,10.4,7.9,11.2,12,13.6s18.8,61.3,24.8,76.6" fill="none" stroke="#63737a" stroke-linecap="round" stroke-linejoin="round" stroke-width="1.8"/>
    <path id="Path_629" data-name="Path 629" d="M528.5,401.2s-11.7-6-16.9-3.8" fill="none" stroke="#63737a" stroke-linecap="round" stroke-linejoin="round" stroke-width="1.8"/>
    <ellipse id="Ellipse_153" data-name="Ellipse 153" cx="13.2" cy="14.5" rx="13.2" ry="14.5" transform="translate(497.4 457.9)" fill="none" stroke="#63737a" stroke-linecap="round" stroke-linejoin="round" stroke-width="1.8"/>
    <ellipse id="Ellipse_154" data-name="Ellipse 154" cx="13.6" cy="14.5" rx="13.6" ry="14.5" transform="translate(566 457)" fill="none" stroke="#63737a" stroke-linecap="round" stroke-linejoin="round" stroke-width="1.8"/>
    <path id="Path_630" data-name="Path 630" d="M516.4,604.8a9.559,9.559,0,0,1,0-3" fill="none" stroke="#63737a" stroke-linecap="round" stroke-linejoin="round" stroke-width="1.8"/>
    <path id="Path_631" data-name="Path 631" d="M524.7,606.1v-4.3" fill="none" stroke="#63737a" stroke-linecap="round" stroke-linejoin="round" stroke-width="1.8"/>
    <path id="Path_632" data-name="Path 632" d="M534.8,604.1s.1-2.5,0-3.6" fill="none" stroke="#63737a" stroke-linecap="round" stroke-linejoin="round" stroke-width="1.8"/>
    <path id="Path_633" data-name="Path 633" d="M582.8,605.4s-.5-2.7-.5-3.5" fill="none" stroke="#63737a" stroke-linecap="round" stroke-linejoin="round" stroke-width="1.8"/>
    <path id="Path_634" data-name="Path 634" d="M592.8,605.8a30.119,30.119,0,0,0,0-4.3" fill="none" stroke="#63737a" stroke-linecap="round" stroke-linejoin="round" stroke-width="1.8"/>
    <path id="Path_635" data-name="Path 635" d="M601.4,604.2a18.171,18.171,0,0,0,0-3.4" fill="none" stroke="#63737a" stroke-linecap="round" stroke-linejoin="round" stroke-width="1.8"/>
    <path id="Path_636" data-name="Path 636" d="M507,625s7.6-6.1,22.5,2.3" fill="none" stroke="#fff" stroke-linecap="round" stroke-linejoin="round" stroke-width="1.8"/>
    <path id="Path_637" data-name="Path 637" d="M501.3,632.7s9.4-7.5,23.4,1.6" fill="none" stroke="#fff" stroke-linecap="round" stroke-linejoin="round" stroke-width="1.8"/>
    <path id="Path_638" data-name="Path 638" d="M610.2,629.4s-9.1-4-21.4,2.5" fill="none" stroke="#fff" stroke-linecap="round" stroke-linejoin="round" stroke-width="1.8"/>
    <path id="Path_639" data-name="Path 639" d="M614.3,636.2s-10.5-4.6-23.2,3.7" fill="none" stroke="#fff" stroke-linecap="round" stroke-linejoin="round" stroke-width="1.8"/>
    <path id="Path_640" data-name="Path 640" d="M554.8,213.9s5,1.5,15.6,1.7,22.7,3.3,27.4,9.2,6.2,49.4,5.5,69.1-14.8,49-14.8,49-33.7,3.8-61.3,2.5-34.2-7.4-36.1-9.3-3-6.5-1.9-8.5,6.5-17.5,8.5-32.4-2.2-35.7-.3-54,9-23.7,9-23.7,8.9-3,24.3-3.5a235.364,235.364,0,0,1,24.1-.1Z" fill="#ffb48b"/>
    <g id="Group_9" data-name="Group 9" clip-path="url(#clip-path-2)">
      <path id="Path_641" data-name="Path 641" d="M515.2,209.9s-12.9,19.8-8.8,61.5-13.9,63.2-5.7,82.4" fill="none" stroke="#cb7d53" stroke-linecap="round" stroke-linejoin="round" stroke-width="1.8"/>
      <path id="Path_642" data-name="Path 642" d="M584.9,213.6s-15.7,2.6-19.6,29.1,6.4,61.9,4.5,81.8-7.2,31.6-7.2,31.6" fill="none" stroke="#cb7d53" stroke-linecap="round" stroke-linejoin="round" stroke-width="1.8"/>
      <path id="Path_643" data-name="Path 643" d="M586.6,349.7s5.3-49.9,0-77.5,6.7-51.6,20.2-48.3" fill="none" stroke="#cb7d53" stroke-linecap="round" stroke-linejoin="round" stroke-width="1.8"/>
      <path id="Path_644" data-name="Path 644" d="M540.2,351.8s4.4-32.4,2.9-61.4c-.6-10.9-6.9-64.4,16.4-81.3" fill="none" stroke="#cb7d53" stroke-linecap="round" stroke-linejoin="round" stroke-width="1.8"/>
      <path id="Path_645" data-name="Path 645" d="M515.2,349.7s6.9-40.8,6.5-64.8-2.4-74.8,9.7-83" fill="none" stroke="#cb7d53" stroke-linecap="round" stroke-linejoin="round" stroke-width="1.8"/>
    </g>
    <circle id="Ellipse_155" data-name="Ellipse 155" cx="6.5" cy="6.5" r="6.5" transform="translate(546.8 253.6)" fill="#cb7d53"/>
    <path id="Path_647" data-name="Path 647" d="M531.5,210.1c-2.7.1-4.8,1.7-6.7,3.6a10.24,10.24,0,0,0-2.8,4.9c-3.8,18.4,2,40.6,9.4,40.4,9.3-.3,21.8-17.2,31.6-36.4,4-7.9-3.7-13.4-8.2-13.4C551.3,209.1,537.1,209.8,531.5,210.1Z" fill="#6dafa7"/>
    <path id="Path_648" data-name="Path 648" d="M574.2,171.2a35.21,35.21,0,0,1-4.7,16.1c-4.7,8-10.4,12.2-12.3,15.8s-1.4-5.8,0-10.3S566.9,164.3,574.2,171.2Z" fill="#22272e"/>
    <path id="Path_649" data-name="Path 649" d="M529.4,201.6s-1.1,9.7-1.8,13.4-2.3,13.4,10.1,14c11.1.6,17.1-8,19.3-12.2a7.471,7.471,0,0,0,.9-4.1c-.3-4.4-.9-15.2-.6-24C557.7,177.5,529.4,193.7,529.4,201.6Z" fill="#f4c2c9"/>
    <path id="Path_650" data-name="Path 650" d="M551.4,202.3c-5.9,4.7-14.6,6.9-22.8,5.7-.3,2.6-.7,5.4-1,7q-.15.75-.3,1.8C537.4,217.3,548.9,212.3,551.4,202.3Z" fill="#e26e85"/>
    <path id="Path_651" data-name="Path 651" d="M517.6,165.6s-2.7,3.9-2.3,6.9,6.1,13.1,9,12.8,5.9-12.7,2.5-16.8S518.7,163.7,517.6,165.6Z" fill="#22272e"/>
    <path id="Path_652" data-name="Path 652" d="M519.9,171.3a82.7,82.7,0,0,1-1,15c-1.3,8-2.2,20,9.7,23.3s25.9-1.2,30.3-17.6,7.6-33-7.6-37.8S518.1,155.6,519.9,171.3Z" fill="#f4c2c9"/>
    <path id="Path_653" data-name="Path 653" d="M525,179.3a6.37,6.37,0,0,1-.2,3.6,5.068,5.068,0,0,1-.9,1.6,4.348,4.348,0,0,1-.6.7c-.1.1-.2.3-.3.4a1.389,1.389,0,0,0,0,.9,3.75,3.75,0,0,0,.7,1.2,9.8,9.8,0,0,0,2.4,2.1,4.81,4.81,0,0,1-3.4-1.1,4.17,4.17,0,0,1-1.3-1.6,2.65,2.65,0,0,1,0-2.3,2.18,2.18,0,0,1,.7-.9c.2-.2.4-.3.5-.5a9.384,9.384,0,0,0,.9-1.2,13.231,13.231,0,0,0,1.5-2.9Z" fill="#22272e"/>
    <path id="Path_654" data-name="Path 654" d="M558.3,183.9a18.731,18.731,0,0,1-2.2-6.9c-.6-4.6-5.5-4.3-7.8-12.8s-7.9,2-16.8,5.8-15.9-2.3-19.5-9.1,2.5-12.8,6.6-15.6S527,147,535,145s20.9-4.5,27.1,4.5,12.6,11.2,12.2,21-11.9,20.7-12.6,20.8S558.3,183.9,558.3,183.9Z" fill="#22272e"/>
    <path id="Path_655" data-name="Path 655" d="M537.2,174.5c-.3-.8-.6-2.3.5-3.1s3.6-.5,6,1c2.1,1.3,2.7,3.4,1.3,3.2s-2.5-.8-4.2-.9S537.5,175.2,537.2,174.5Z" fill="#22272e"/>
    <path id="Path_656" data-name="Path 656" d="M525.2,173.4a3.39,3.39,0,0,0-.3-2.9c-.6-.8-2.2-.7-3.7.4-1.3,1-1.7,2.9-.8,2.8a10.13,10.13,0,0,1,2.6-.4C524.1,173.4,525,174,525.2,173.4Z" fill="#22272e"/>
    <path id="Path_657" data-name="Path 657" d="M518.3,191.4s-.1,1.2,1.6,1.5,1.9-2.3,4.8-2.7c1.8-.2,8.1.3,10.7,2.7s6.2,5.2,11.4,3.6,8.3-8.9,9.3-19.5c.9-9.7,4.5-.3,4.5,2,0,1.6-1.5-.7-3.3,5.8-.8,2.9,0,11.1-3.1,17.1-2.4,4.6-9.1,9.3-17.6,9.9s-15.5-2.9-17.6-8.5C516.9,197.9,517.7,191.8,518.3,191.4Z" fill="#22272e"/>
    <path id="Path_658" data-name="Path 658" d="M522.4,180.9h0a1.46,1.46,0,0,0,1.6-1.3l.1-.8a1.46,1.46,0,0,0-1.3-1.6h0a1.46,1.46,0,0,0-1.6,1.3l-.1.8A1.46,1.46,0,0,0,522.4,180.9Z" fill="#22272e"/>
    <path id="Path_659" data-name="Path 659" d="M538.3,181.9h0a1.46,1.46,0,0,0,1.6-1.3l.1-.8a1.46,1.46,0,0,0-1.3-1.6h0a1.46,1.46,0,0,0-1.6,1.3l-.1.8a1.35,1.35,0,0,0,1.3,1.6Z" fill="#22272e"/>
    <path id="Path_660" data-name="Path 660" d="M557.2,184.8s2.7-6,7.4-5.3,2.4,13.4-6.3,13.3" fill="#f4c2c9"/>
    <path id="Path_661" data-name="Path 661" d="M564.3,184a4.369,4.369,0,0,0-.8-.7c-.3-.1-.2.1-.4.2,0,.1-.2.9-.3,1.6a6.259,6.259,0,0,1-.7,2.2,2.841,2.841,0,0,1-.8,1.1,1.26,1.26,0,0,1-1.3.2,1.16,1.16,0,0,0,.6-.8c.1-.3.1-.6.2-.9a19.194,19.194,0,0,1,.3-2.2l.3-1.2.3-.6c.1-.1.1-.2.3-.3a1.381,1.381,0,0,0,.4-.3,2,2,0,0,1,.9-.2,1.58,1.58,0,0,1,.8.5,1.81,1.81,0,0,1,.2,1.4Z" fill="#22272e"/>
    <path id="Path_662" data-name="Path 662" d="M529.4,197a10.41,10.41,0,0,0,5.4.7" fill="none" stroke="#f4c2c9" stroke-linecap="round" stroke-linejoin="round" stroke-width="1.8"/>
    <ellipse id="Ellipse_156" data-name="Ellipse 156" cx="9.1" cy="6" rx="9.1" ry="6" transform="translate(511.737 185.927) rotate(-84.55)" fill="none" stroke="#22272e" stroke-linecap="round" stroke-linejoin="round" stroke-width="1.8"/>
    <ellipse id="Ellipse_157" data-name="Ellipse 157" cx="9.1" cy="7.7" rx="9.1" ry="7.7" transform="translate(530.589 187.549) rotate(-84.55)" fill="none" stroke="#22272e" stroke-linecap="round" stroke-linejoin="round" stroke-width="1.8"/>
    <path id="Path_663" data-name="Path 663" d="M524.3,179.5s1.7-3.2,7.1.6" fill="none" stroke="#22272e" stroke-linecap="round" stroke-linejoin="round" stroke-width="1.8"/>
    <line id="Line_97" data-name="Line 97" x2="11.3" y2="2.4" transform="translate(546.7 180)" fill="none" stroke="#22272e" stroke-linecap="round" stroke-linejoin="round" stroke-width="1.8"/>
    <path id="Path_664" data-name="Path 664" d="M590,290.4l5.3,10.7s-5.6,7.6-11.6,22-10.4,32.2-14.5,37.3c0,0,4,9.6,13.8,13.8,0,0,19.1-28,27.8-40.2s17-27.8,16.4-35.6c-.9-11.5-9.6-28.5-10.4-33.1S590.2,277.1,590,290.4Z" fill="#f4c2c9"/>
    <path id="Path_665" data-name="Path 665" d="M616.7,265.3c-.7-4.5-26.5,11.8-26.7,25.1l.8,1.5A94.67,94.67,0,0,1,621,277C618.9,271.8,617,267.3,616.7,265.3Z" fill="#e26e85"/>
    <path id="Path_666" data-name="Path 666" d="M574.2,350c1.4,2.4,6.2,8.8,17.4,11.4a.5.5,0,0,1,.3.8l-5.1,6.9c-.1.2-.4.2-.6.2-12.5-3.8-15.8-10.1-16.3-11.3a.3.3,0,0,1,0-.4l3.4-7.5C573.5,349.6,574,349.6,574.2,350Z" fill="#22272e"/>
    <ellipse id="Ellipse_158" data-name="Ellipse 158" cx="4.783" cy="4.584" rx="4.783" ry="4.584" transform="matrix(0.522, -0.853, 0.853, 0.522, 569.578, 364.129)" fill="#fff"/>
    <path id="Path_667" data-name="Path 667" d="M592.9,224a6.6,6.6,0,0,1,6.3,2.4c2.3,2.9,6.1,8.5,10.8,18.1,7.9,16.1,13.4,26.7,13.4,26.7S596,286,590,290.4c0,0-11.1-18.7-14.7-26.5C571.8,256.5,572.8,227.7,592.9,224Z" fill="#6dafa7"/>
    <path id="Path_668" data-name="Path 668" d="M586.6,284.6a192.547,192.547,0,0,1,33.7-19.4" fill="none" stroke="#282828" stroke-linecap="round" stroke-linejoin="round" stroke-width="1.8"/>
    <path id="Path_669" data-name="Path 669" d="M565.3,353.8a36.83,36.83,0,0,0,24,23.6" fill="none" stroke="#63737a" stroke-linecap="round" stroke-linejoin="round" stroke-width="1.8"/>
    <path id="Path_670" data-name="Path 670" d="M595.3,301.1a15,15,0,0,1,8.2-4.7" fill="none" stroke="#e26e85" stroke-linecap="round" stroke-linejoin="round" stroke-width="1.8"/>
    <path id="Path_671" data-name="Path 671" d="M743.5,326.1,655,315.2a5.26,5.26,0,0,1-4.6-5.8l9.4-87.8a7.53,7.53,0,0,1,6.4-6.6l91.6-12.4a5.31,5.31,0,0,1,6,5.9L750.2,321a6,6,0,0,1-6.7,5.1Z" fill="#63737a"/>
    <path id="Path_672" data-name="Path 672" d="M740.5,325.8l-88.5-11a5.26,5.26,0,0,1-4.6-5.8l9.4-87.8a7.53,7.53,0,0,1,6.4-6.6l91.6-12.4a5.31,5.31,0,0,1,6,5.9L747.2,320.6A6.05,6.05,0,0,1,740.5,325.8Z" fill="#22272e"/>
    <path id="Path_673" data-name="Path 673" d="M737.2,244.2l-69.3,3.5a1.87,1.87,0,0,1-2-2.1l1.7-15.5a1.92,1.92,0,0,1,1.7-1.7l69.9-6.9a1.93,1.93,0,0,1,2.1,2.2l-2.3,19C739,243.4,738.2,244.1,737.2,244.2Z" fill="#6dafa7"/>
    <line id="Line_98" data-name="Line 98" y1="3.7" x2="45.9" transform="translate(685.6 230.1)" fill="none" stroke="#22272e" stroke-linecap="round" stroke-linejoin="round" stroke-width="1.8"/>
    <line id="Line_99" data-name="Line 99" y1="1.7" x2="24.7" transform="translate(685 238)" fill="none" stroke="#22272e" stroke-linecap="round" stroke-linejoin="round" stroke-width="1.8"/>
    <ellipse id="Ellipse_159" data-name="Ellipse 159" cx="3.4" cy="2.8" rx="3.4" ry="2.8" transform="translate(671.088 239.002) rotate(-61.66)" fill="#22272e"/>
    <path id="Path_674" data-name="Path 674" d="M733.3,275.9l-68.5-1.2a2,2,0,0,1-1.9-2.1l1.7-15.4a1.86,1.86,0,0,1,1.9-1.7l69-2.2a2,2,0,0,1,2,2.2l-2.2,18.8A2.06,2.06,0,0,1,733.3,275.9Z" fill="#f4c2c9"/>
    <line id="Line_100" data-name="Line 100" y1="0.6" x2="45.4" transform="translate(682.5 261.4)" fill="none" stroke="#22272e" stroke-linecap="round" stroke-linejoin="round" stroke-width="1.8"/>
    <line id="Line_101" data-name="Line 101" x2="24.5" transform="translate(681.8 267.8)" fill="none" stroke="#22272e" stroke-linecap="round" stroke-linejoin="round" stroke-width="1.8"/>
    <ellipse id="Ellipse_160" data-name="Ellipse 160" cx="3.4" cy="2.7" rx="3.4" ry="2.7" transform="translate(668.336 267.024) rotate(-64.21)" fill="#22272e"/>
    <path id="Path_675" data-name="Path 675" d="M729.5,307.3l-67.7-5.8a2,2,0,0,1-1.8-2.1l1.7-15.3a1.88,1.88,0,0,1,2-1.7l68.2,2.5a2,2,0,0,1,1.9,2.2l-2.2,18.6a2.08,2.08,0,0,1-2.1,1.6Z" fill="#ffb48b"/>
    <line id="Line_102" data-name="Line 102" x2="44.8" y2="2.4" transform="translate(679.4 290)" fill="none" stroke="#22272e" stroke-linecap="round" stroke-linejoin="round" stroke-width="1.8"/>
    <line id="Line_103" data-name="Line 103" x2="24.2" y2="1.7" transform="translate(678.7 295.7)" fill="none" stroke="#22272e" stroke-linecap="round" stroke-linejoin="round" stroke-width="1.8"/>
    <ellipse id="Ellipse_161" data-name="Ellipse 161" cx="3.4" cy="2.7" rx="3.4" ry="2.7" transform="translate(665.496 294.04) rotate(-66.81)" fill="#22272e"/>
  </g>
</svg>
