<svg xmlns="http://www.w3.org/2000/svg" width="35.687" height="34.049" viewBox="0 0 35.687 34.049">
  <g id="computer-monitor" transform="translate(-0.156)">
    <path id="Path_19261" data-name="Path 19261" d="M34.928,20.591c-3.693-5.848-3.2-11.778-4.979-14.6s-7.138-7.714-20.1.473-9.84,17.35-7.882,20.45c9.166,14.515,39.5,4.031,32.964-6.327Z" fill="#efefef"/>
    <path id="Path_19262" data-name="Path 19262" d="M25.75,10.75h2.5a1,1,0,0,1,1,1v13.5a1,1,0,0,1-1,1H7.75a1,1,0,0,1-1-1V11.75a1,1,0,0,1,1-1h18Z" fill="#f3f3f1"/>
    <path id="Path_19263" data-name="Path 19263" d="M16.23,26.25a5.783,5.783,0,0,1-1.48,3h6.48a5.871,5.871,0,0,1-1.48-3Z" fill="#f3f3f1"/>
    <g id="Group_2945" data-name="Group 2945">
      <path id="Path_19264" data-name="Path 19264" d="M17.986,17.25,12.74,14.7V9.054L17.986,11.5Z" fill="#df814e"/>
      <path id="Path_19265" data-name="Path 19265" d="M23.24,14.7,17.994,17.25V11.5L23.24,9.054Z" fill="#df814e"/>
      <path id="Path_19266" data-name="Path 19266" d="M12.74,9.054l5.254-2.3,5.246,2.3L17.994,11.5Z" fill="#df814e"/>
    </g>
    <path id="Path_19267" data-name="Path 19267" d="M9,25.25V11.75a1,1,0,0,1,1-1H7.75a1,1,0,0,0-1,1v13.5a1,1,0,0,0,1,1H10A1,1,0,0,1,9,25.25Z" fill="#d5dbe1"/>
    <path id="Path_19268" data-name="Path 19268" d="M16.23,26.25a5.783,5.783,0,0,1-1.48,3H17a5.783,5.783,0,0,0,1.48-3Z" fill="#d5dbe1"/>
    <path id="Path_19269" data-name="Path 19269" d="M15,14.7V10.1L12.75,9.054V14.7L18,17.25V16.155Z" fill="#bb6131"/>
    <path id="Path_19270" data-name="Path 19270" d="M20.254,11.5l3-1.4V9.054L18,11.5v5.75l2.25-1.095Z" fill="#bb6131"/>
    <path id="Path_19271" data-name="Path 19271" d="M16.5,9.054l3.377-1.481L18,6.75l-5.254,2.3L18,11.5l1.873-.874Z" fill="#bb6131"/>
    <g id="Group_2946" data-name="Group 2946">
      <path id="Path_19272" data-name="Path 19272" d="M8.375,7.28a1.5,1.5,0,1,1,1.5-1.5A1.5,1.5,0,0,1,8.375,7.28Zm0-2a.5.5,0,1,0,.5.5A.5.5,0,0,0,8.375,5.28Z" fill="#a4afc1"/>
      <path id="Path_19273" data-name="Path 19273" d="M26.74,0h1V2h-1Z" fill="#a4afc1"/>
      <path id="Path_19274" data-name="Path 19274" d="M26.74,5.75h1v2h-1Z" fill="#a4afc1"/>
      <path id="Path_19275" data-name="Path 19275" d="M23.24,3.25h2v1h-2Z" fill="#a4afc1"/>
      <path id="Path_19276" data-name="Path 19276" d="M28.99,3.25h2v1h-2Z" fill="#a4afc1"/>
    </g>
    <path id="Path_19277" data-name="Path 19277" d="M28.25,27H7.75A1.752,1.752,0,0,1,6,25.25V11.75A1.752,1.752,0,0,1,7.75,10h2.5v1.5H7.75a.25.25,0,0,0-.25.25v13.5a.25.25,0,0,0,.25.25h20.5a.25.25,0,0,0,.25-.25V11.75a.25.25,0,0,0-.25-.25h-2.5V10h2.5A1.752,1.752,0,0,1,30,11.75v13.5A1.752,1.752,0,0,1,28.25,27Z"/>
    <path id="Path_19278" data-name="Path 19278" d="M6.75,22h22.5v1.5H6.75Z"/>
    <path id="Path_19279" data-name="Path 19279" d="M21.25,30h-6.5a.75.75,0,0,1-.53-1.28,5.092,5.092,0,0,0,1.267-2.567l1.487.195A6.725,6.725,0,0,1,16.23,28.5h3.523a6.88,6.88,0,0,1-.746-2.147l1.485-.208a5.2,5.2,0,0,0,1.184,2.488A.75.75,0,0,1,21.25,30Z"/>
    <path id="Path_19280" data-name="Path 19280" d="M18,18a.756.756,0,0,1-.328-.075l-5.247-2.554A.752.752,0,0,1,12,14.7V9.054a.75.75,0,0,1,1.067-.68l5.247,2.446a.751.751,0,0,1,.433.68v5.75A.751.751,0,0,1,18,18Zm-4.5-3.772,3.747,1.823V11.978L13.5,10.23Z"/>
    <path id="Path_19281" data-name="Path 19281" d="M18,18a.751.751,0,0,1-.75-.75V11.5a.751.751,0,0,1,.433-.68l5.247-2.446A.75.75,0,0,1,24,9.054V14.7a.752.752,0,0,1-.422.675l-5.247,2.554A.766.766,0,0,1,18,18Zm.75-6.022v4.073L22.5,14.228v-4Z"/>
    <path id="Path_19282" data-name="Path 19282" d="M13.051,9.74l-.6-1.373,5.253-2.3a.753.753,0,0,1,.6,0l5.247,2.3-.6,1.373L18,7.569Z"/>
    <path id="Path_19283" data-name="Path 19283" d="M21.5,12.27H20V10.723L15.079,8.59l.6-1.377,5.373,2.329a.752.752,0,0,1,.452.688v2.04Z"/>
  </g>
</svg>
