<svg xmlns="http://www.w3.org/2000/svg" width="35.731" height="32.197" viewBox="0 0 35.731 32.197">
  <g id="courier" transform="translate(-0.134 -1.893)">
    <path id="Path_19284" data-name="Path 19284" d="M34.9,20.355c-3.782-5.791-3.38-11.727-5.2-14.518s-7.256-7.6-20.093.782S.036,24.119,2.042,27.188C11.43,41.56,41.6,30.611,34.9,20.355Z" fill="#efefef"/>
    <path id="Path_19285" data-name="Path 19285" d="M25.25,6.75H7.75a1,1,0,0,0-1,1v17.5a1,1,0,0,0,1,1h16.5a2,2,0,0,0,2-2V7.75A1,1,0,0,0,25.25,6.75Z" fill="#f3f3f1"/>
    <path id="Path_19286" data-name="Path 19286" d="M12.75,6.75v7.5l3.75-3.5,3.75,3.5V6.75Z" fill="#df814e"/>
    <path id="Path_19287" data-name="Path 19287" d="M28.771,23.033l-.7-3.157a1.918,1.918,0,0,0-1.443-1.457l-2.7-.62a1.908,1.908,0,0,0-.857,0l-2.708.621a1.92,1.92,0,0,0-1.444,1.457l-.7,3.156a7.093,7.093,0,0,0,1.74,4.778A4.712,4.712,0,0,0,23.5,29.25a4.727,4.727,0,0,0,3.536-1.439,6.9,6.9,0,0,0,1.729-4.633c0-.034,0-.145,0-.145Z" fill="#df814e"/>
    <path id="Path_19288" data-name="Path 19288" d="M9,25.25V7.75a1,1,0,0,1,1-1H7.75a1,1,0,0,0-1,1v17.5a1,1,0,0,0,1,1H10A1,1,0,0,1,9,25.25Z" fill="#d5dbe1"/>
    <g id="Group_2947" data-name="Group 2947">
      <path id="Path_19289" data-name="Path 19289" d="M15,6.75H12.75v7.5L15,12.15Z" fill="#bb6131"/>
      <path id="Path_19290" data-name="Path 19290" d="M18.75,10.75,17.625,11.8l2.625,2.45v-2.1Z" fill="#bb6131"/>
      <path id="Path_19291" data-name="Path 19291" d="M22.219,27.811a7.088,7.088,0,0,1-1.74-4.778l.7-3.156A1.918,1.918,0,0,1,22.62,18.42l2.01-.461-.695-.16a1.908,1.908,0,0,0-.857,0l-2.708.621a1.92,1.92,0,0,0-1.444,1.457l-.7,3.156a7.093,7.093,0,0,0,1.74,4.778A4.712,4.712,0,0,0,23.5,29.25a5.536,5.536,0,0,0,1.124-.114,4.562,4.562,0,0,1-2.41-1.325Z" fill="#bb6131"/>
    </g>
    <g id="Group_2948" data-name="Group 2948">
      <path id="Path_19292" data-name="Path 19292" d="M6.668,2.629h2v1h-2Z" transform="translate(0.033 6.339) rotate(-45)" fill="#a4afc1"/>
      <path id="Path_19293" data-name="Path 19293" d="M2.6,6.694h2v1h-2Z" transform="translate(-4.032 4.654) rotate(-45)" fill="#a4afc1"/>
      <path id="Path_19294" data-name="Path 19294" d="M3.1,1.952h1v2h-1Z" transform="translate(-1.032 3.413) rotate(-45)" fill="#a4afc1"/>
      <path id="Path_19295" data-name="Path 19295" d="M31.055,19.94a1.5,1.5,0,1,1,1.5-1.5A1.5,1.5,0,0,1,31.055,19.94Zm0-2a.5.5,0,1,0,.5.5A.5.5,0,0,0,31.055,17.94Z" fill="#a4afc1"/>
    </g>
    <path id="Path_19296" data-name="Path 19296" d="M15.25,27H7.75A1.752,1.752,0,0,1,6,25.25V7.75A1.752,1.752,0,0,1,7.75,6h17.5A1.752,1.752,0,0,1,27,7.75v7.5H25.5V7.75a.25.25,0,0,0-.25-.25H7.75a.25.25,0,0,0-.25.25v17.5a.25.25,0,0,0,.25.25h7.5Z"/>
    <path id="Path_19297" data-name="Path 19297" d="M20.25,15a.746.746,0,0,1-.512-.2L16.5,11.776,13.262,14.8A.75.75,0,0,1,12,14.25V6.75A.75.75,0,0,1,12.75,6h7.5a.75.75,0,0,1,.75.75v7.5a.751.751,0,0,1-.451.688A.763.763,0,0,1,20.25,15ZM16.5,10a.748.748,0,0,1,.512.2L19.5,12.524V7.5h-6v5.024L15.988,10.2A.748.748,0,0,1,16.5,10Z"/>
    <path id="Path_19298" data-name="Path 19298" d="M21,25a1,1,0,1,1,1-1A1,1,0,0,1,21,25Z"/>
    <path id="Path_19299" data-name="Path 19299" d="M26,25.011a1,1,0,1,1,1-1A1,1,0,0,1,26,25.011Z"/>
    <path id="Path_19300" data-name="Path 19300" d="M23.506,28a2.54,2.54,0,0,1-1.771-.708l1.043-1.078a1.059,1.059,0,0,0,1.457,0l1.043,1.078A2.546,2.546,0,0,1,23.506,28Z"/>
    <path id="Path_19301" data-name="Path 19301" d="M29.4,23.739l-.6-.45A9.553,9.553,0,0,0,23.506,22a9.613,9.613,0,0,0-5.311,1.293l-.6.438-.889-1.2.6-.445A10.807,10.807,0,0,1,23.5,20.5,10.74,10.74,0,0,1,29.7,22.09l.6.45Z"/>
    <path id="Path_19302" data-name="Path 19302" d="M23.506,30a5.5,5.5,0,0,1-4.077-1.67,7.766,7.766,0,0,1-1.949-5.3.846.846,0,0,1,.021-.182l.692-3.136A2.68,2.68,0,0,1,20.2,17.688l2.707-.621a2.645,2.645,0,0,1,1.194,0l2.7.62a2.681,2.681,0,0,1,2.007,2.025l.7,3.158a.722.722,0,0,1,.018.161v.145a7.707,7.707,0,0,1-1.938,5.153A5.51,5.51,0,0,1,23.506,30ZM18.98,23.112a6.381,6.381,0,0,0,1.53,4.179,3.987,3.987,0,0,0,3,1.209,3.992,3.992,0,0,0,3-1.21,6.161,6.161,0,0,0,1.519-4.112v-.062l-.679-3.078a1.176,1.176,0,0,0-.878-.888l-2.7-.62a1.17,1.17,0,0,0-.52,0l-2.709.622a1.171,1.171,0,0,0-.879.888Z"/>
  </g>
</svg>
