<?xml version="1.0" encoding="UTF-8"?>
<svg id="Layer_2" data-name="Layer 2" xmlns="http://www.w3.org/2000/svg" viewBox="0 0 2682 1845.19">
  <defs>
    <style>
      .cls-1 {
        fill-rule: evenodd;
      }

      .cls-1, .cls-2, .cls-3, .cls-4, .cls-5, .cls-6, .cls-7, .cls-8, .cls-9, .cls-10, .cls-11, .cls-12 {
        stroke-width: 0px;
      }

      .cls-1, .cls-4 {
        fill: #7b85a1;
      }

      .cls-2 {
        fill: #ffd03a;
      }

      .cls-3 {
        fill: #ffd9bf;
      }

      .cls-5 {
        fill: #3e5ec2;
      }

      .cls-13 {
        fill: none;
        stroke: #7b85a1;
        stroke-width: 25px;
      }

      .cls-6 {
        fill: #fff;
        isolation: isolate;
        opacity: .28;
      }

      .cls-7 {
        fill: #86a4ff;
      }

      .cls-8 {
        fill: #ffceac;
      }

      .cls-9 {
        fill: #e5ecff;
      }

      .cls-10 {
        fill: #f6934e;
      }

      .cls-11 {
        fill: #f08235;
      }

      .cls-12 {
        fill: #f4aa75;
      }
    </style>
  </defs>
  <g id="Layer_1-2" data-name="Layer 1">
    <path class="cls-7" d="m2203,1079c83.4,0,162.83-17.02,235-47.77v633.96c0,99.41-80.59,180-180,180H180c-99.41,0-180-80.59-180-180V541.81c0-99.41,80.59-180,180-180h1434.44c-7.51,37.9-11.44,77.09-11.44,117.19,0,331.37,268.63,600,600,600Z"/>
    <rect class="cls-2" x="226.76" y="950.3" width="516.58" height="370.57" rx="67" ry="67"/>
    <path class="cls-1" d="m631.62,950.3h-29.86v65.26c0,40.02,32.43,72.46,72.45,72.46h69.14v-29.87h-69.14c-23.52,0-42.59-19.07-42.59-42.59v-65.26Zm-263.27,370.56v-65.26c0-40.02-32.44-72.45-72.45-72.45h-69.14v29.86h69.14c23.52,0,42.59,19.07,42.59,42.59v65.26h29.86Z"/>
    <path class="cls-13" d="m522.11,1069.43h-74.11c-16.07,0-29.09,13.02-29.09,29.09v74.12c0,16.06,13.02,29.09,29.09,29.09h74.11c16.07,0,29.09-13.03,29.09-29.09v-74.12c0-16.07-13.02-29.09-29.09-29.09Z"/>
    <path class="cls-4" d="m226.76,1063.68h127.21v-29.87h-127.21v29.87Z"/>
    <path class="cls-4" d="m616.14,1239.56h127.21v-29.87h-127.21v29.87Z"/>
    <path class="cls-9" d="m319.77,1620.79c-9.41,12.43-22.53,18.65-39.35,18.65s-29.99-6.22-39.53-18.65c-9.42-12.57-14.12-29.21-14.12-49.93s4.7-37.31,14.12-49.75c9.54-12.56,22.72-18.84,39.53-18.84s29.94,6.28,39.35,18.84c9.54,12.44,14.31,29.02,14.31,49.75s-4.77,37.36-14.31,49.93Zm-62.88-49.93c0,26.12,7.84,39.19,23.53,39.19s23.54-13.07,23.54-39.19-7.85-39.19-23.54-39.19-23.53,13.06-23.53,39.19Z"/>
    <path class="cls-9" d="m374.25,1504.91h26.36v131.89h-30.12v-100.05l-23.35,6.41-7.34-25.81,34.45-12.44Z"/>
    <path class="cls-9" d="m514.39,1620.79c-9.41,12.43-22.53,18.65-39.35,18.65s-30-6.22-39.54-18.65c-9.41-12.57-14.12-29.21-14.12-49.93s4.71-37.31,14.12-49.75c9.54-12.56,22.72-18.84,39.54-18.84s29.94,6.28,39.35,18.84c9.54,12.44,14.31,29.02,14.31,49.75s-4.77,37.36-14.31,49.93Zm-62.88-49.93c0,26.12,7.84,39.19,23.53,39.19s23.54-13.07,23.54-39.19-7.85-39.19-23.54-39.19-23.53,13.06-23.53,39.19Z"/>
    <path class="cls-9" d="m568.87,1504.91h26.36v131.89h-30.13v-100.05l-23.34,6.41-7.35-25.81,34.46-12.44Z"/>
    <path class="cls-9" d="m855.86,1620.79c-9.41,12.43-22.53,18.65-39.35,18.65s-30-6.22-39.54-18.65c-9.41-12.57-14.12-29.21-14.12-49.93s4.71-37.31,14.12-49.75c9.54-12.56,22.72-18.84,39.54-18.84s29.94,6.28,39.35,18.84c9.54,12.44,14.31,29.02,14.31,49.75s-4.77,37.36-14.31,49.93Zm-62.88-49.93c0,26.12,7.84,39.19,23.53,39.19s23.54-13.07,23.54-39.19-7.85-39.19-23.54-39.19-23.53,13.06-23.53,39.19Z"/>
    <path class="cls-9" d="m910.34,1504.91h26.36v131.89h-30.12v-100.05l-23.35,6.41-7.34-25.81,34.45-12.44Z"/>
    <path class="cls-9" d="m1050.48,1620.79c-9.41,12.43-22.53,18.65-39.35,18.65s-30-6.22-39.54-18.65c-9.41-12.57-14.12-29.21-14.12-49.93s4.71-37.31,14.12-49.75c9.54-12.56,22.72-18.84,39.54-18.84s29.94,6.28,39.35,18.84c9.54,12.44,14.31,29.02,14.31,49.75s-4.77,37.36-14.31,49.93Zm-62.89-49.93c0,26.12,7.85,39.19,23.54,39.19s23.53-13.07,23.53-39.19-7.84-39.19-23.53-39.19-23.54,13.06-23.54,39.19Z"/>
    <path class="cls-9" d="m1104.96,1504.91h26.36v131.89h-30.13v-100.05l-23.34,6.41-7.35-25.81,34.46-12.44Z"/>
    <path class="cls-9" d="m1391.95,1620.79c-9.41,12.43-22.53,18.65-39.35,18.65s-30-6.22-39.54-18.65c-9.41-12.57-14.12-29.21-14.12-49.93s4.71-37.31,14.12-49.75c9.54-12.56,22.72-18.84,39.54-18.84s29.94,6.28,39.35,18.84c9.54,12.44,14.31,29.02,14.31,49.75s-4.77,37.36-14.31,49.93Zm-62.88-49.93c0,26.12,7.84,39.19,23.53,39.19s23.54-13.07,23.54-39.19-7.85-39.19-23.54-39.19-23.53,13.06-23.53,39.19Z"/>
    <path class="cls-9" d="m1446.43,1504.91h26.36v131.89h-30.13v-100.05l-23.34,6.41-7.35-25.81,34.46-12.44Z"/>
    <path class="cls-9" d="m1586.57,1620.79c-9.42,12.43-22.53,18.65-39.35,18.65s-30-6.22-39.54-18.65c-9.41-12.57-14.12-29.21-14.12-49.93s4.71-37.31,14.12-49.75c9.54-12.56,22.72-18.84,39.54-18.84s29.93,6.28,39.35,18.84c9.54,12.44,14.31,29.02,14.31,49.75s-4.77,37.36-14.31,49.93Zm-62.89-49.93c0,26.12,7.85,39.19,23.54,39.19s23.53-13.07,23.53-39.19-7.84-39.19-23.53-39.19-23.54,13.06-23.54,39.19Z"/>
    <path class="cls-9" d="m1641.05,1504.91h26.35v131.89h-30.12v-100.05l-23.35,6.41-7.34-25.81,34.46-12.44Z"/>
    <path class="cls-9" d="m1928.04,1620.79c-9.41,12.43-22.53,18.65-39.35,18.65s-30-6.22-39.54-18.65c-9.41-12.57-14.12-29.21-14.12-49.93s4.71-37.31,14.12-49.75c9.54-12.56,22.72-18.84,39.54-18.84s29.94,6.28,39.35,18.84c9.54,12.44,14.31,29.02,14.31,49.75s-4.77,37.36-14.31,49.93Zm-62.89-49.93c0,26.12,7.85,39.19,23.54,39.19s23.53-13.07,23.53-39.19-7.84-39.19-23.53-39.19-23.54,13.06-23.54,39.19Z"/>
    <path class="cls-9" d="m1982.52,1504.91h26.36v131.89h-30.13v-100.05l-23.34,6.41-7.35-25.81,34.46-12.44Z"/>
    <path class="cls-9" d="m2122.66,1620.79c-9.42,12.43-22.53,18.65-39.35,18.65s-30-6.22-39.54-18.65c-9.42-12.57-14.12-29.21-14.12-49.93s4.7-37.31,14.12-49.75c9.54-12.56,22.72-18.84,39.54-18.84s29.93,6.28,39.35,18.84c9.54,12.44,14.3,29.02,14.3,49.75s-4.76,37.36-14.3,49.93Zm-62.89-49.93c0,26.12,7.85,39.19,23.54,39.19s23.53-13.07,23.53-39.19-7.84-39.19-23.53-39.19-23.54,13.06-23.54,39.19Z"/>
    <path class="cls-9" d="m2177.13,1504.91h26.36v131.89h-30.12v-100.05l-23.35,6.41-7.34-25.81,34.45-12.44Z"/>
    <path class="cls-5" d="m1609.66,568.67H0v231.19h1695.91c-43.65-68.84-73.66-147.16-86.25-231.19Z"/>
    <path class="cls-6" d="m2203,1079c83.4,0,162.83-17.02,235-47.77v633.96c0,99.41-80.59,180-180,180H743.35L1467.07,361.81h147.37c-7.51,37.9-11.44,77.09-11.44,117.19,0,331.37,268.63,600,600,600Z"/>
    <path class="cls-12" d="m2203,479v479c-264.54,0-479-214.46-479-479S1938.46,0,2203,0v479Z"/>
    <path class="cls-10" d="m2203,479v479c264.54,0,479-214.46,479-479S2467.54,0,2203,0v479Z"/>
    <path class="cls-3" d="m2203,479.01v365.6c-201.92,0-365.6-163.68-365.6-365.6s163.68-365.6,365.6-365.6v365.6Z"/>
    <path class="cls-8" d="m2203,479.01v365.6c201.92,0,365.6-163.68,365.6-365.6s-163.68-365.6-365.6-365.6v365.6Z"/>
    <path class="cls-11" d="m2203,529.54l-103.39,103.39c-6.89,6.89-15.31,10.34-25.27,10.34s-18.38-3.45-25.27-10.34c-6.9-6.89-10.34-15.32-10.34-25.27s3.44-18.38,10.34-25.28l103.38-103.38-103.38-103.39c-6.9-6.89-10.34-15.32-10.34-25.27s3.44-18.38,10.34-25.27c6.89-6.9,15.31-10.34,25.27-10.34s18.38,3.44,25.27,10.34l103.39,103.38,103.39-103.38c6.89-6.9,15.31-10.34,25.27-10.34s18.38,3.44,25.27,10.34c6.89,6.89,10.34,15.31,10.34,25.27s-3.45,18.38-10.34,25.27l-103.39,103.39,103.39,103.38c6.89,6.9,10.34,15.32,10.34,25.28s-3.45,18.38-10.34,25.27c-6.89,6.89-15.32,10.34-25.27,10.34s-18.38-3.45-25.27-10.34l-103.39-103.39Z"/>
  </g>
</svg>