<svg id="delivery-icon" xmlns="http://www.w3.org/2000/svg" width="35.833" height="34.032" viewBox="0 0 35.833 34.032">
  <path id="Path_19339" data-name="Path 19339" d="M1.063,15.31c3.655,5.872,3.123,11.8,4.885,14.628s7.088,7.76,20.1-.343S36,12.309,34.067,9.2C25-5.378-5.41,4.911,1.063,15.31Z" fill="#efefef"/>
  <path id="Path_19340" data-name="Path 19340" d="M23.25,25.25H7.576a.826.826,0,0,1-.826-.826V12.25h18.5v11A2,2,0,0,1,23.25,25.25Z" fill="#f3f3f1"/>
  <path id="Path_19341" data-name="Path 19341" d="M22.481,7.265a1,1,0,0,0-.874-.515H10.393a1,1,0,0,0-.874.515L6.75,12.25h18.5Z" fill="#df814e"/>
  <path id="Path_19342" data-name="Path 19342" d="M28.771,23.033l-.7-3.157a1.918,1.918,0,0,0-1.443-1.457l-2.7-.62a1.908,1.908,0,0,0-.857,0l-2.708.621a1.92,1.92,0,0,0-1.444,1.457l-.7,3.156a7.093,7.093,0,0,0,1.74,4.778A4.712,4.712,0,0,0,23.5,29.25a4.727,4.727,0,0,0,3.536-1.439,6.9,6.9,0,0,0,1.729-4.633c0-.034,0-.145,0-.145Z" fill="#df814e"/>
  <path id="Path_19343" data-name="Path 19343" d="M9,24.424V12.25H6.75V24.424a.826.826,0,0,0,.826.826h2.25A.826.826,0,0,1,9,24.424Z" fill="#d5dbe1"/>
  <path id="Path_19344" data-name="Path 19344" d="M12.643,6.75h-2.25a1,1,0,0,0-.874.515L6.75,12.25H9l2.769-4.985A1,1,0,0,1,12.643,6.75Z" fill="#bb6131"/>
  <path id="Path_19345" data-name="Path 19345" d="M22.219,27.811a7.088,7.088,0,0,1-1.74-4.778l.7-3.156A1.918,1.918,0,0,1,22.62,18.42l2.01-.461-.695-.16a1.908,1.908,0,0,0-.857,0l-2.708.621a1.92,1.92,0,0,0-1.444,1.457l-.7,3.156a7.093,7.093,0,0,0,1.74,4.778A4.712,4.712,0,0,0,23.5,29.25a5.536,5.536,0,0,0,1.124-.114,4.562,4.562,0,0,1-2.41-1.325Z" fill="#bb6131"/>
  <g id="Group_2951" data-name="Group 2951">
    <path id="Path_19346" data-name="Path 19346" d="M29.188,15a1.5,1.5,0,1,1,1.5-1.5A1.5,1.5,0,0,1,29.188,15Zm0-2a.5.5,0,1,0,.5.5A.5.5,0,0,0,29.188,13Z" fill="#a4afc1"/>
    <path id="Path_19347" data-name="Path 19347" d="M3.5,0h1V2h-1Z" fill="#a4afc1"/>
    <path id="Path_19348" data-name="Path 19348" d="M3.5,5.75h1v2h-1Z" fill="#a4afc1"/>
    <path id="Path_19349" data-name="Path 19349" d="M0,3.25H2v1H0Z" fill="#a4afc1"/>
    <path id="Path_19350" data-name="Path 19350" d="M5.75,3.25h2v1h-2Z" fill="#a4afc1"/>
  </g>
  <path id="Path_19351" data-name="Path 19351" d="M21,25a1,1,0,1,1,1-1A1,1,0,0,1,21,25Z"/>
  <path id="Path_19352" data-name="Path 19352" d="M26,25.011a1,1,0,1,1,1-1A1,1,0,0,1,26,25.011Z"/>
  <path id="Path_19353" data-name="Path 19353" d="M23.506,28a2.54,2.54,0,0,1-1.771-.708l1.043-1.078a1.059,1.059,0,0,0,1.457,0l1.043,1.078A2.546,2.546,0,0,1,23.506,28Z"/>
  <path id="Path_19354" data-name="Path 19354" d="M29.4,23.739l-.6-.45A9.553,9.553,0,0,0,23.506,22a9.613,9.613,0,0,0-5.311,1.293l-.6.438-.889-1.2.6-.445A10.807,10.807,0,0,1,23.5,20.5,10.74,10.74,0,0,1,29.7,22.09l.6.45Z"/>
  <path id="Path_19355" data-name="Path 19355" d="M23.506,30a5.5,5.5,0,0,1-4.077-1.67,7.766,7.766,0,0,1-1.949-5.3.846.846,0,0,1,.021-.182l.692-3.136A2.68,2.68,0,0,1,20.2,17.688l2.707-.621a2.645,2.645,0,0,1,1.194,0l2.7.62a2.681,2.681,0,0,1,2.007,2.025l.7,3.158a.722.722,0,0,1,.018.161v.145a7.707,7.707,0,0,1-1.938,5.153A5.51,5.51,0,0,1,23.506,30ZM18.98,23.112a6.381,6.381,0,0,0,1.53,4.179,3.987,3.987,0,0,0,3,1.209,3.992,3.992,0,0,0,3-1.21,6.161,6.161,0,0,0,1.519-4.112v-.062l-.679-3.078a1.176,1.176,0,0,0-.878-.888l-2.7-.62a1.17,1.17,0,0,0-.52,0l-2.709.622a1.171,1.171,0,0,0-.879.888Z"/>
  <path id="Path_19356" data-name="Path 19356" d="M15.25,26H7.576A1.578,1.578,0,0,1,6,24.424V12.25a.75.75,0,0,1,.75-.75h18.5a.75.75,0,0,1,.75.75v3H24.5V13H7.5V24.424a.076.076,0,0,0,.076.076H15.25Z"/>
  <path id="Path_19357" data-name="Path 19357" d="M24.595,12.614,21.826,7.629a.253.253,0,0,0-.219-.129H10.393a.252.252,0,0,0-.219.13L7.405,12.614l-1.311-.729L8.863,6.9a1.755,1.755,0,0,1,1.53-.9H21.608a1.753,1.753,0,0,1,1.529.9l2.769,4.986Z"/>
  <path id="Path_19358" data-name="Path 19358" d="M15.25,6.75h1.5v5.5h-1.5Z"/>
</svg>
