<svg enable-background="new 0 0 36 36" height="512" viewBox="0 0 36 36" width="512" xmlns="http://www.w3.org/2000/svg"><path d="m13.411 34.999c6.298-2.859 12.105-1.559 15.14-2.936 3.035-1.378 8.617-6.016 2.28-19.978s-15.841-12.12-19.18-10.605c-15.632 7.095-9.395 38.582 1.76 33.519z" fill="#efefef"/><path d="m16.006 15.75h-.012l-9.244-4.5v5.129 4.121l9.25 5.125 9.25-5.125v-9.25z" fill="#f3f3f1"/><path d="m6.75 11.25 9.244-4.5 9.256 4.5-9.256 4.5z" fill="#2fdf84"/><path d="m28.771 23.033-.697-3.157c-.16-.724-.721-1.291-1.443-1.457l-2.698-.62c-.282-.065-.575-.065-.857 0l-2.708.621c-.722.166-1.284.733-1.444 1.457l-.697 3.156c0 1.558.5 3.486 1.74 4.778.826.861 1.981 1.439 3.536 1.439 1.556 0 2.711-.583 3.536-1.439 1.232-1.278 1.729-3.165 1.729-4.633.003-.034.003-.145.003-.145z" fill="#2fdf84"/><path d="m18.244 15.75h.012l6.994-3.405v-1.095l-8.125 3.955z" fill="#d5dbe1"/><path d="m9 20.5v-4.121-4.034l-2.25-1.095v5.129 4.121l9.25 5.125 1.125-.623z" fill="#d5dbe1"/><path d="m10.25 11.25 7.495-3.649-1.751-.851-9.244 4.5 9.244 4.5 1.751-.851z" fill="#00b871"/><path d="m22.219 27.811c-1.241-1.292-1.74-3.22-1.74-4.778l.697-3.156c.16-.724.722-1.292 1.444-1.457l2.01-.461-.695-.16c-.282-.065-.575-.065-.857 0l-2.708.621c-.722.166-1.284.733-1.444 1.457l-.697 3.156c0 1.558.5 3.486 1.74 4.778.826.861 1.981 1.439 3.536 1.439.402 0 .775-.042 1.124-.114-1.002-.207-1.797-.687-2.41-1.325z" fill="#00b871"/><g fill="#a4afc1"><path d="m29.625 15.75c-.827 0-1.5-.673-1.5-1.5s.673-1.5 1.5-1.5 1.5.673 1.5 1.5-.673 1.5-1.5 1.5zm0-2c-.275 0-.5.225-.5.5s.225.5.5.5.5-.225.5-.5-.225-.5-.5-.5z"/><path d="m7.625 25.375h1v2h-1z"/><path d="m7.625 31.125h1v2h-1z"/><path d="m4.125 28.625h2v1h-2z"/><path d="m9.875 28.625h2v1h-2z"/></g><path d="m21 25c-.552 0-1-.448-1-1s.448-1 1-1 1 .448 1 1-.448 1-1 1z"/><path d="m26 25.011c-.552 0-1-.448-1-1s.448-1 1-1 1 .448 1 1-.448 1-1 1z"/><path d="m23.506 27.997c-.642 0-1.283-.236-1.771-.708l1.043-1.078c.4.387 1.057.387 1.457 0l1.043 1.078c-.489.472-1.131.708-1.772.708z"/><path d="m29.399 23.739-.6-.45c-.013-.01-1.802-1.289-5.293-1.289-3.494 0-5.293 1.28-5.311 1.293l-.603.438-.889-1.197.598-.445c.086-.065 2.173-1.589 6.204-1.589s6.108 1.524 6.194 1.59l.6.45z"/><path d="m23.506 30c-1.618 0-3.028-.577-4.077-1.67-1.221-1.271-1.949-3.251-1.949-5.297 0-.062.008-.123.021-.182l.692-3.136c.222-1.003 1.01-1.799 2.009-2.027l2.707-.621c.393-.09.806-.091 1.194.001l2.696.62c.998.229 1.785 1.024 2.007 2.025l.696 3.158c.012.053.018.106.018.161v.145c0 1.519-.509 3.67-1.938 5.153-1.052 1.093-2.462 1.67-4.076 1.67zm-4.526-6.888c.019 1.292.428 3.031 1.53 4.179.771.802 1.778 1.209 2.995 1.209 1.215 0 2.223-.407 2.996-1.21 1.119-1.162 1.519-2.887 1.519-4.112v-.062l-.679-3.078c-.097-.438-.441-.787-.878-.888l-2.698-.62c-.171-.039-.349-.039-.52 0l-2.709.622c-.438.1-.782.448-.879.888z"/><path d="m14.884 25.904-8.5-4.75c-.238-.132-.384-.383-.384-.654v-9.25c0-.259.133-.499.353-.636.22-.138.495-.149.726-.039l8.921 4.344 8.922-4.344c.231-.11.507-.099.726.039.219.137.352.377.352.636v4h-1.5v-2.801l-8.166 3.976c-.205.1-.463.1-.668 0l-8.166-3.976v7.61l8.116 4.536z"/><path d="m24.922 11.925-8.928-4.341-8.916 4.341-.656-1.35 9.244-4.5c.207-.1.449-.1.656 0l9.256 4.5z"/><path d="m12 17.24h-1.5v-3.8c0-.283.159-.542.412-.67l9.09-4.58.676 1.34-8.678 4.372z"/></svg>