<svg xmlns="http://www.w3.org/2000/svg" width="216.17" height="67.56" viewBox="0 0 216.17 67.56">
  <g id="download_huawei" transform="translate(-299.41 -58.78)">
    <path id="Rectangle3" d="M306.17,58.78H508.82a6.758,6.758,0,0,1,6.76,6.76v54.04a6.758,6.758,0,0,1-6.76,6.76H306.17a6.758,6.758,0,0,1-6.76-6.76V65.53A6.756,6.756,0,0,1,306.17,58.78Z"/>
    <g id="HuaweiAppGallery-1">
      <path id="rect817" d="M346.03,72.5H323.19a8.642,8.642,0,0,0-8.64,8.64v22.84a8.642,8.642,0,0,0,8.64,8.64h22.84a8.642,8.642,0,0,0,8.64-8.64V81.14A8.636,8.636,0,0,0,346.03,72.5Z" fill="#e14459"/>
      <path id="path838" d="M324.33,75.12a1.177,1.177,0,0,0-.81.33,1.135,1.135,0,0,0,.81,1.94,1.177,1.177,0,0,0,.81-.33,1.136,1.136,0,0,0,.33-.8h0a1.161,1.161,0,0,0-1.14-1.14Zm20.42,0a1.177,1.177,0,0,0-.81.33,1.135,1.135,0,0,0,.81,1.94,1.177,1.177,0,0,0,.81-.33,1.136,1.136,0,0,0,.33-.8h0a1.161,1.161,0,0,0-1.14-1.14Z" fill="#c73148"/>
      <path id="path36" d="M324.28,76.1c-.4.02-.38.6-.38.6a12.153,12.153,0,0,0,21.19-.02s.08-.78-.75-.51a11.333,11.333,0,0,1-19.73.03.519.519,0,0,0-.33-.1Zm14.43,16.14-1.21,3.61-1.18-3.61h-1.15l1.86,5.25h.9l1.22-3.45,1.21,3.45h.9l1.86-5.25H342l-1.18,3.61-1.21-3.61Zm-6.44,0-2.35,5.25h1.11l.45-1.02.03-.08h2.45l.48,1.09h1.14l-2.33-5.22-.02-.03h-.96Zm17.04,0v5.25h1.07V92.24Zm-30.66,0v5.25h1.08V95.36h2.45v2.13h1.08V92.24h-1.08v2.12h-2.45V92.24Zm9.63,0v3.01c0,.86-.43,1.31-1.21,1.31s-1.22-.47-1.22-1.35V92.24h-1.08v3a2.1,2.1,0,0,0,2.29,2.32,2.128,2.128,0,0,0,2.31-2.37V92.23h-1.09Zm15.71,0v5.25h4.03v-.96h-2.97v-1.3h1.97v-.96h-1.97V93.2h2.86v-.96Zm-11.26,1.33.77,1.76.05.12h-1.64l.05-.12Z" fill="#fff"/>
    </g>
    <g id="Group-23">
      <path id="GET-IT-ON" d="M375.53,76.26a3.184,3.184,0,0,0-3.48-3.02c-2.34,0-3.77,1.56-3.77,4.07v1.17c0,2.43,1.18,4.12,3.74,4.12a3.192,3.192,0,0,0,3.54-3.17V77.62h-3.52v1.23h1.99v.66a1.807,1.807,0,0,1-2,1.73c-1.48,0-2.15-1.11-2.15-2.76V77.32c0-1.89.94-2.72,2.15-2.72a1.828,1.828,0,0,1,1.95,1.66h1.55Zm8.41,4.83h-4.1V78.48h3.85V77.22h-3.85V74.75h4.1V73.42h-5.69v9h5.69Zm6.09,1.33V74.77h2.62V73.42h-6.81v1.35h2.61v7.65Zm10.17,0v-9h-1.6v9Zm6.52,0V74.77h2.62V73.42h-6.81v1.35h2.61v7.65Zm9.83-5.08c0-1.82.92-2.75,2.17-2.75s2.16.93,2.16,2.75v1.22c0,1.82-.91,2.68-2.16,2.68s-2.17-.86-2.17-2.68Zm-1.62,1.21c0,2.55,1.44,4.04,3.78,4.04s3.79-1.5,3.79-4.04v-1.2c0-2.55-1.43-4.12-3.78-4.12s-3.79,1.56-3.79,4.12Zm11.77,3.87V76.1h.05l4.18,6.32h1.37v-9h-1.49v6.3h-.05l-4.16-6.3h-1.38v9Z" fill="#fff"/>
      <path id="AppGallery" d="M369.24,108.09l1.61-5.1h6.52l1.61,5.1h3.59l-6.44-18.91h-3.81l-6.46,18.91Zm4.95-15.52,2.47,7.87h-5.07l2.48-7.87Zm17.79,15.71c3.37,0,5.67-2.52,5.67-6.89V100.1c0-4.41-2.33-6.88-5.6-6.88a4.708,4.708,0,0,0-4.27,2.37h-.12V93.43h-3.2v19.6h3.28v-7.01h.12A4.522,4.522,0,0,0,391.98,108.28Zm-.86-2.66c-2.09,0-3.41-1.68-3.41-4.39v-1.02c0-2.65,1.3-4.32,3.37-4.32,2.02,0,3.23,1.57,3.23,4.34v1.01C394.31,104.1,393.02,105.62,391.12,105.62Zm17.04,2.66c3.37,0,5.67-2.52,5.67-6.89V100.1c0-4.41-2.33-6.88-5.6-6.88a4.708,4.708,0,0,0-4.27,2.37h-.12V93.43h-3.2v19.6h3.28v-7.01h.12A4.5,4.5,0,0,0,408.16,108.28Zm-.86-2.66c-2.09,0-3.41-1.68-3.41-4.39v-1.02c0-2.65,1.3-4.32,3.37-4.32,2.02,0,3.23,1.57,3.23,4.34v1.01C410.48,104.1,409.19,105.62,407.3,105.62Zm24.1-10.47c-.15-3.28-2.58-6.34-7.31-6.34-4.9,0-7.92,3.27-7.92,8.55v2.45c0,5.1,2.48,8.66,7.85,8.66,5.54,0,7.43-3.84,7.43-6.65V98h-7.38v2.59h4.18v1.38c0,2.05-1.68,3.63-4.2,3.63-3.12,0-4.52-2.33-4.52-5.81V97.35c0-3.97,1.97-5.71,4.52-5.71a3.835,3.835,0,0,1,4.09,3.49h3.26Zm11.17,11.15h.13v1.79h3.1V98.13c0-3.32-2.48-4.93-5.78-4.93-4.02,0-5.65,2.15-5.78,4.63h3.08a2.644,2.644,0,0,1,5.23.4v1.36h-3.66c-3.38.01-5.19,1.68-5.19,4.29,0,2.73,1.97,4.43,4.81,4.43A4.328,4.328,0,0,0,442.57,106.3Zm-3.04-.44a2.28,2.28,0,0,1-2.56-2.19c0-1.18.82-2,2.53-2h3.05v1.59A2.736,2.736,0,0,1,439.53,105.86Zm9.76,2.23h3.27V88.18h-3.27Zm7.01,0h3.27V88.18H456.3Zm12.8.25c3.71,0,5.64-2.18,6.04-4.54h-3.07a2.8,2.8,0,0,1-2.94,2.01c-2.01,0-3.31-1.57-3.31-3.95v-.37h9.49v-1.41c0-4.16-2.41-6.88-6.34-6.88-3.85,0-6.36,2.59-6.36,6.76v1.44C462.61,105.78,465.14,108.34,469.1,108.34Zm-3.28-9.06v-.03c0-2.01,1.25-3.57,3.16-3.57s3.13,1.55,3.13,3.57v.03Zm12.38,8.81h3.34V99.53c0-1.98.83-3.46,3.27-3.46a6.121,6.121,0,0,1,1.36.11V93.31a5.291,5.291,0,0,0-1.08-.1,3.617,3.617,0,0,0-3.48,2.18h-.14V93.44H478.2v14.65Zm23.2-14.66h-3.48l-3.42,11.55h-.11l-3.38-11.55h-3.62l5.17,14.74-.15.59c-.29,1.33-.94,2.09-2.73,2.09a8.771,8.771,0,0,1-1.16-.08v2.43a11.578,11.578,0,0,0,1.84.15c3.53,0,4.81-2.04,5.74-4.53l.37-1C496.51,107.71,501.4,93.43,501.4,93.43Z" fill="#fff"/>
    </g>
  </g>
</svg>
