<svg xmlns="http://www.w3.org/2000/svg" width="2888" height="1423" viewBox="0 0 2888 1423">
  <g id="eid_adha_mubarak" transform="translate(1176 -4675)">
    <rect id="Rectangle_16" data-name="Rectangle 16" width="2888" height="1423" transform="translate(-1176 4675)" fill="rgba(255,255,255,0)"/>
    <g id="eid_adha_mubarak-2" data-name="eid_adha_mubarak" transform="translate(-959.765 4816.999)">
      <g id="Group_1495" data-name="Group 1495">
        <path id="Path_1617" data-name="Path 1617" d="M1268.1,240.54c.72,19.68-3,39.32-7.97,58.81a31.586,31.586,0,0,1-9.12,15.8,6.851,6.851,0,0,1-5.19,1.46c-2.41-.44-3.8-2.63-3.67-5.18a49.085,49.085,0,0,1,1.08-9.15c4.01-16.32,4.17-32.98,3.05-49.49a112.682,112.682,0,0,0-7.4-33.7,261.3,261.3,0,0,0-15.91-33.29c-9.2-16.21-21.01-30.41-34.03-43.64-6.5-6.6-13.08-13.1-19.63-19.65-1.36-1.36-2.7-2.76-4.08-4.1-6.43-6.23-7.17-13.45-3.34-21.17,3.08-6.2,6.48-12.26,9.98-18.24,3.74-6.4,9.54-7.48,15.57-2.85a233.689,233.689,0,0,1,33.41,31.8,178.232,178.232,0,0,1,28.75,44.49,195.849,195.849,0,0,1,10.17,27.01,213.853,213.853,0,0,1,8.32,61.09h0Zm-206.28-21.3h0l13.34,8.79c-.32,8.04-6.25,21.48-7.17,29.49-.37,3.33-1.74,4.2-5.24,3.34-4.46-1.1-8.93-2.24-13.32-3.62-2.83-.89-4.93-.32-6.69,1.97-.55.74-1.17,1.43-1.74,2.15-32.97,43.81-81.11,87.94-137.14,109.25l20.92-24.6c24.3-12.42,78.16-61.41,93.62-101.79-1.53-1.36-2.81-2.63-4.23-3.71a114.282,114.282,0,0,1-22.07-22.73,7.832,7.832,0,0,1-2-5.01l3.43-25.87a28.508,28.508,0,0,1,3.9-7.23,120.25,120.25,0,0,1,21.97-21.91c6.48-4.89,13.36-9.07,21.59-10.28,7.64-1.13,14.02,1.21,18.99,7.25,5.08,6.18,6.57,13.61,7.37,21.21a76.823,76.823,0,0,1-1.02,21.35c-1.09,6.34-3.26,15.4-4.53,21.96h0Zm-24.4-12.07h0c1.12-5.18,1.76-9.6.45-15.05-2-8.33-23.13-9.45-25.47-2.29,3.7,6.47,18.79,14.08,25.03,17.34h0ZM68.66,317.65h0c-7.25,22.8-29.14,76.52-13.83,97.63,9.73,13.43,22.05-10.07,25.78-16.75a1.984,1.984,0,0,1,2.89-.87c.81.49,1.19,1.69,1.22,3.37.16,8.57-2.27,24.76-10.19,35.79-14.89,20.75-36.84,13.28-41.58-9.87-7.19-35.12,21.35-80.8,35.71-109.31h0Zm414.36-71.54h0c-7.25,22.8-29.14,76.52-13.84,97.63,9.73,13.43,22.06-10.07,25.78-16.75a1.985,1.985,0,0,1,2.89-.86c.82.48,1.19,1.68,1.21,3.36.18,8.58-2.25,24.77-10.17,35.8-14.9,20.74-36.84,13.28-41.58-9.88-7.19-35.12,21.35-80.8,35.72-109.31h0ZM430.73,612.57h0c-7.25,22.8-29.15,76.52-13.85,97.64,9.74,13.43,22.07-10.07,25.79-16.75a1.978,1.978,0,0,1,2.88-.87c.82.49,1.18,1.69,1.22,3.37.18,8.58-2.25,24.76-10.17,35.8-14.9,20.75-36.84,13.28-41.58-9.87-7.19-35.12,21.33-80.8,35.72-109.31h0ZM896.51,176.13h0c-14.37,28.52-42.9,74.19-35.71,109.31,4.73,23.16,26.68,30.62,41.58,9.88,7.92-11.04,10.35-27.22,10.18-35.8-.03-1.68-.41-2.87-1.21-3.37a1.979,1.979,0,0,0-2.89.87c-3.73,6.68-16.06,30.18-25.79,16.75-15.3-21.12,6.59-74.83,13.84-97.63h0Zm442.71,77.65h0c-7.25,22.8-29.15,76.52-13.84,97.63,9.73,13.43,22.06-10.07,25.78-16.75a1.966,1.966,0,0,1,2.88-.86c.81.48,1.18,1.68,1.22,3.36.18,8.58-2.26,24.76-10.17,35.8-14.9,20.74-36.84,13.28-41.58-9.88-7.18-35.12,21.35-80.8,35.72-109.31h0Zm880.47-157h0c-7.25,22.8-29.14,76.51-13.84,97.63,9.74,13.43,22.06-10.07,25.78-16.75a1.988,1.988,0,0,1,2.89-.87c.82.49,1.19,1.69,1.22,3.37.17,8.57-2.26,24.76-10.18,35.8-14.9,20.74-36.84,13.28-41.58-9.88-7.18-35.12,21.35-80.79,35.72-109.3h0Zm-251.22,40.86h0c-1.38-1.55-2.57-2.8-3.64-4.12-.99-1.2-1.78-2.55-2.79-3.74a8.19,8.19,0,0,0-9.66-2.64c-6.44,2.53-12.6,5.69-15.91,12.46a9.285,9.285,0,0,0,4.73,6.23,86.685,86.685,0,0,0,10.64,5.54c6.82,2.68,7.17,2.62,14.01-.26a73.045,73.045,0,0,0,10-5.31c6.05-3.75,11.91-7.81,17.98-11.55a35.286,35.286,0,0,1,7.27-3.2,2.917,2.917,0,0,1,3.86,3.22c-1.15,6.35-2.62,12.66-5.76,18.36a13.148,13.148,0,0,1-4.24,4.08q-36.78,24.855-73.65,49.59c-1.38.93-2.51,2.77-4.65,1.78-1.54-.71-1.77-2.18-1.09-5.36a60.8,60.8,0,0,0,1.07-6.55,13.451,13.451,0,0,1,4-8.92c3.07-2.89,6.12-5.81,9.19-8.72,1.13-1.06,2.3-2.08,3.39-3.19.26-.27.27-.79.42-1.29-3.68-1.99-7.51-3.8-11.06-6.02-5.44-3.41-8.67-8.34-8.55-14.93a27.465,27.465,0,0,1,1.26-7.9,43.137,43.137,0,0,1,7.09-14.28c6.52-8.18,12.95-16.47,21.46-22.79,2.5-1.85,4.99-3.74,7.56-5.5,5.05-3.46,10.81-4.08,16.64-3.41,5.3.61,9.43,5.45,10.12,10.97a31.379,31.379,0,0,1-3.42,18.74c-1.51,2.93-2.37,6.29-6.24,8.7h0ZM291.15,289.82h0c-2.64-2.14-7.15-3.97-9.14-1.23-13.29,18.38-7.49,52.57-21.12,73.96a2.83,2.83,0,0,1-3.44,1.44,2.9,2.9,0,0,1-2.03-2.65c-1.98-16.46-9.26-36.09-17.64-50.42a9.359,9.359,0,0,0-2.04-2.23c-1.05-.91-1.98-.86-3.18.06a8.261,8.261,0,0,0-.67.76c-6.19,6.02-26.14-9.02-20.58-18.42,3.17-5.36,5.88-11.05,10.27-15.86,29.03-2.6,34.34,48.87,41.94,67.77.67-20.65,7.65-59.25,21.52-72.21,8.18-7.64,24.79-2.75,19.54,3.38l-13.44,15.67h0ZM763.9,316.57h0c-3.42-2.76-9.23-5.11-11.77-1.59-17.17,23.69-9.66,67.78-27.24,95.37-1.2,1.88-2.83,2.39-4.43,1.85a3.788,3.788,0,0,1-2.63-3.42c-2.54-21.22-11.92-46.54-22.73-65.02a12.447,12.447,0,0,0-2.65-2.88c-1.33-1.18-2.55-1.11-4.09.08-.34.27-.55.68-.87.98-7.98,7.77-33.7-11.63-26.53-23.75,4.1-6.91,7.59-14.25,13.26-20.45,37.44-3.36,44.29,63.01,54.07,87.38.87-26.63,9.88-76.4,27.76-93.11,10.54-9.85,31.96-3.56,25.19,4.35l-17.33,20.21h0Zm427.04-23.27h0l13.66-15.93c5.34-6.23-11.55-11.19-19.86-3.43-14.09,13.18-21.19,52.41-21.87,73.4-7.72-19.21-13.12-71.53-42.63-68.88-4.48,4.88-7.22,10.67-10.45,16.12-5.65,9.56,14.62,24.85,20.92,18.72a7.189,7.189,0,0,1,.68-.77c1.22-.94,2.16-1,3.23-.07a9.665,9.665,0,0,1,2.07,2.27c8.52,14.57,15.92,34.53,17.92,51.26a3,3,0,0,0,2.07,2.69,2.89,2.89,0,0,0,3.5-1.45c13.86-21.75,7.94-56.51,21.47-75.19,2.01-2.78,6.6-.92,9.29,1.25h0Zm212.49-153.08h0c-3.42-2.76-9.23-5.11-11.77-1.59-17.17,23.69-9.66,67.78-27.24,95.37-1.2,1.88-2.83,2.4-4.44,1.85a3.812,3.812,0,0,1-2.63-3.42c-2.54-21.22-11.92-46.53-22.73-65.02a12.162,12.162,0,0,0-2.64-2.87c-1.34-1.18-2.56-1.11-4.1.08a11.891,11.891,0,0,0-.87.98c-7.98,7.77-33.7-11.63-26.53-23.75,4.1-6.92,7.59-14.25,13.24-20.46,37.45-3.35,44.29,63.02,54.08,87.38.87-26.63,9.88-76.4,27.77-93.1,10.53-9.85,31.95-3.56,25.18,4.35l-17.33,20.21h0ZM2289.92,324.1h0c-3.19-2.58-8.64-4.8-11.03-1.49-16.08,22.2-9.05,63.52-25.52,89.37-1.12,1.76-2.66,2.25-4.16,1.74a3.567,3.567,0,0,1-2.46-3.21c-2.38-19.88-11.18-43.6-21.3-60.93a11.68,11.68,0,0,0-2.47-2.7c-1.25-1.11-2.39-1.03-3.83.08-.32.25-.52.63-.82.91-7.49,7.28-31.58-10.89-24.86-22.25,3.84-6.48,7.1-13.35,12.42-19.17,35.09-3.15,41.51,59.05,50.67,81.88.82-24.96,9.25-71.6,26.02-87.26,9.87-9.23,29.95-3.33,23.6,4.07l-16.24,18.94h0ZM147.58,764.27h0c-3.19-2.59-8.64-4.8-11.03-1.49-16.07,22.2-9.05,63.51-25.53,89.37-1.12,1.76-2.65,2.24-4.15,1.73a3.579,3.579,0,0,1-2.46-3.2c-2.38-19.89-11.17-43.61-21.31-60.93a11.477,11.477,0,0,0-2.47-2.7c-1.25-1.11-2.39-1.04-3.83.08a12.2,12.2,0,0,0-.82.92c-7.48,7.28-31.58-10.89-24.86-22.25,3.83-6.48,7.11-13.35,12.42-19.16,35.09-3.15,41.51,59.05,50.68,81.87.81-24.95,9.24-71.59,26.01-87.25,9.87-9.23,29.96-3.34,23.6,4.07l-16.24,18.95h0Zm580.96-67.02h0c-3.2-2.58-8.65-4.79-11.03-1.49-16.08,22.2-9.06,63.52-25.53,89.37-1.12,1.76-2.66,2.25-4.16,1.74a3.568,3.568,0,0,1-2.46-3.2c-2.38-19.89-11.17-43.61-21.31-60.93a11.084,11.084,0,0,0-2.47-2.7c-1.26-1.11-2.39-1.04-3.83.08a10.239,10.239,0,0,0-.81.92c-7.49,7.28-31.59-10.9-24.87-22.25,3.84-6.48,7.11-13.36,12.42-19.16,35.09-3.15,41.51,59.05,50.68,81.87.81-24.95,9.25-71.59,26.02-87.25,9.87-9.24,29.95-3.34,23.6,4.07l-16.24,18.94h0ZM1945.08,577.57h0c-3.2-2.59-8.64-4.79-11.03-1.49-16.08,22.2-9.06,63.52-25.53,89.37-1.12,1.76-2.66,2.25-4.15,1.74a3.575,3.575,0,0,1-2.47-3.2c-2.37-19.89-11.17-43.61-21.3-60.93a11.5,11.5,0,0,0-2.47-2.7c-1.26-1.11-2.39-1.04-3.84.08-.31.25-.52.63-.81.91-7.49,7.29-31.59-10.89-24.86-22.24,3.83-6.48,7.1-13.35,12.42-19.16,35.09-3.16,41.51,59.05,50.67,81.87.81-24.95,9.24-71.59,26.01-87.26,9.88-9.23,29.96-3.33,23.61,4.08l-16.24,18.93h0ZM1445.15,770.62h0c-2.32-2.2-5.01-2.89-7.55-3.56a71.707,71.707,0,0,0-24.86-1.47c-2.44.24-4.82,1.36-7.14,2.29-1.64.65-3.17,1.48-4.97,1.07a3.108,3.108,0,0,1-.64-3.79c2.17-4.76,4.33-9.55,7.63-13.7a22.12,22.12,0,0,1,13.65-8.12c8.53-1.66,17.04-1.07,25.49.2,3.19.47,6.19,2.13,9.33,3.06,5.55,1.64,9.08,9.81,7.11,16.04a44.524,44.524,0,0,1-5.72,12.02c-5.56,8.04-12.31,15.02-18.98,22.08-7.06,7.47-14.3,14.78-21.44,22.18a29.042,29.042,0,0,0-6.51,10.9,7.741,7.741,0,0,0,1.92,8.56c2.17,2.17,4.35,4.59,7.9,4.37,7.14,2.48,14.53,1.92,21.91,1.92,9.19,0,18.11-1.72,27.11-3.17a196.208,196.208,0,0,0,29.29-7.28,4.008,4.008,0,0,1,2.24-.15,2.818,2.818,0,0,1,1.71,1.36,2.332,2.332,0,0,1-.42,2.1,99.072,99.072,0,0,1-21.05,16.4,90.569,90.569,0,0,1-27.69,10.33c-10.25,1.97-20.69,3.41-31.24,2.01a29.266,29.266,0,0,1-20.16-11.5,18.565,18.565,0,0,1-3.74-9.64,40.808,40.808,0,0,1,2.34-18.3,70.7,70.7,0,0,1,15.25-24.51q13.005-13.755,25.92-27.61c1.15-1.24,2.12-2.65,3.29-4.11h0Zm112.47-141.53h0a14.1,14.1,0,0,1,1.99-1.73,242.642,242.642,0,0,0,20.78-13.55,63.935,63.935,0,0,0,10.69-9.5c6.31-7.2,12.59-14.43,19.03-21.5a98.788,98.788,0,0,1,16.27-14.33,63.58,63.58,0,0,1,14.54-7.99,22.588,22.588,0,0,1,9.45-1.67c2.32.16,4.66,0,6.99.04a5.21,5.21,0,0,0,4.13-1.64c3.77-3.9,7.74-7.62,11.65-11.4a55.461,55.461,0,0,1,12.6-9.62,16.709,16.709,0,0,1,12.39-1.35,8.456,8.456,0,0,1,6.07,7.28,32.829,32.829,0,0,1-1.68,13.73,4.435,4.435,0,0,1-.46,1.07c-2.74,3.91-5.32,7.95-9.31,10.81-1.46,1.05-2.74,2.39-4.27,3.31a50.828,50.828,0,0,1-26.43,7.74,29.733,29.733,0,0,1-8.75-1.48,26.708,26.708,0,0,0-14.11-.24,47.685,47.685,0,0,0-15.27,6.39,73.121,73.121,0,0,0-11.57,9.08c-3.52,3.44-6.94,6.97-10.42,10.45q-7.7,7.68-15.41,15.32a17.973,17.973,0,0,1-2.1,1.68,44.008,44.008,0,0,1-13.3,7.07c-3.57,1.1-7.15,2.09-10.77,3.02a7.816,7.816,0,0,1-2.52-.19c-.07-.27-.14-.53-.21-.79h0Zm108.43-68.61h0c5.94,1.47,13.03-.41,20.96-3.75,3.7-1.56,7.72-2.89,10.23-6.39a4.046,4.046,0,0,0-2.43-2.57,18.372,18.372,0,0,0-4.01-1.29,13.854,13.854,0,0,0-9.29,1.93c-2.06,1.28-4.05,2.68-6.05,4.05a66.713,66.713,0,0,0-9.41,8.03h0ZM662.17,196.31h0c-6.05,2.18-27.37,41.09-11.55,34.24C796,167.63,848.15,153.47,997.91,100.17c16.94-6.03,30.01-31.64,18.49-29.4C914.03,90.64,778.24,154.52,662.17,196.31h0Zm987.15-70.63h0c-6.05,2.17-27.37,41.1-11.55,34.24C1783.15,97,1835.31,82.84,1985.06,29.54,2002,23.51,2015.07-2.1,2003.54.14c-102.36,19.87-238.15,83.75-354.22,125.54h0Zm510.62,745.61h0c84.55-30.44,183.48-76.98,258.04-91.45,8.4-1.63-1.12,17.03-13.46,21.41-109.09,38.83-147.08,49.15-252.98,94.98-11.54,5,4-23.36,8.41-24.95h0ZM1331,402.8h0l19.22,38.59c-18.04-3.92-34.13-8.57-46.76-14.38-22.11-10.15-31.34-26.82-46.36-45.58-4.63,1.14-12.59.11-17.05,1.84l-26.07,60.97c17.66,95.19,224.18,91.55,223.97,94.81-.63.11-1.27.28-1.94.34-39.83,3.94-163.06,37.28-195.49,51.22-8.7,3.74-15.85,25.9-4.21,31.56,10.38,5.05,20.7,10.22,31.09,15.27,10.85,5.28,21.66,10.67,32.64,15.64,14.06,6.35,44.31,19.47,56.42,26.93,6.65,4.1,2.11,11.34-10.04,19.81-46.75,32.63-283.05,105.31-352.9,67.3a98.143,98.143,0,0,1-20.58-15.31c-44.99-42.76-22.44-112.92,5.42-163.75q3.525-4.515,6.92-9.8a4.1,4.1,0,0,1,4.45,2.5,26.713,26.713,0,0,1,1.17,4.66c20.1,34.96,50.4,58.28,80.41,63.63,24.47,4.38,48.73-3.19,67.14-26.1,25.35-32.18,48.21-68.7,53.07-110.54,2.65-22.77,1.38-40.59-9.6-65.09-25.43-56.7-127.77-77.58-136.84-108.62-1-3.52,1.56-10.9-4.53-4.7-17.73,18.03-28.61,34.21-35.95,58.75-3.82,16.95,11.64,35.11,36.69,48.94,32.65,18.03,74.4,44.37,88.75,63.31,14.85,19.89,19.67,35.3,22.19,60.05,3.85,37.7-61.52,4.11-80.94-12.57-40.59-34.88-49.04-75.23-55.56-121.47-9.84,45.02-48.92,57.57-38.91,100.72,2.75,11.78-16.04,17.33-32.21,15.86-22.25-2.35-37.49-17-48.51-35.54-25.55-42.96-21.8-103.73-35.88-150.38a3.374,3.374,0,0,0-5.54-1.59c-14.18,11.59-56.96,68.93-53.82,86.69,19.76,43.5,35.81,46.82,30.45,89.31-5.43,43.18-122.22,71.82-165.62-15.9-41.09-83.07-42.88-390.07-53.07-471.95-.77-6.16-2.07-12.18-3.41-18.21a11.636,11.636,0,0,0-2.64-5.49c-9.78-10.89-56.88,56.64-69.32,64.97,24.89,29.21,2.41,86.87-6.99,120.36a10.955,10.955,0,0,0-.24,4.04c1.38,12.83,17.6-20.79,25.08-19.31,1.83.36,2.86,1.87,3.17,4.77.12,1.13.08,2.29.1,3.43.54,68.12,4.11,266.92,41.76,364.69,39.55,102.73,167.39,103.47,234.63-7.49a4.8,4.8,0,0,1,7.11-1.57,9.475,9.475,0,0,1,2.82,3.74c12.52,30.84,35.78,56.47,62.72,58.88a74.44,74.44,0,0,0,42.42-8.2c-.99,2.1-1.88,4.08-2.63,5.89-23,54.6-27.34,176.08,5.94,223.5,57.59,82.08,324.1-10.05,396.01-94.96l50.07-96.25c1.01-8.31-.87-10.39-5.49-17.36-4.19-6.29-51.8-16.22-57.92-20.31,82.08-15.7,117.08-30.35,187.72-29.08,6.88.13,13.77.68,20.64,1.21a7.392,7.392,0,0,0,7.83-4.33c2.3-4.3,4.84-8.45,7.23-12.7,3.55-6.31,16.39-66.24,19.77-72.64,2.92-30.64-113.07-34.2-202.66-49.43,64.01-17.19,175.53,41.12,236.68-100.17-3.33,39.42.67,76.95,23.1,109.72l-27.53,27.11,35.84,2.29,14.52-14.43c65.6,59.43,186.73,89.13,325.79-33.85a206.448,206.448,0,0,0,19.19-29.77c6.07-11.32,12.57-22.39,17.47-34.34a54.2,54.2,0,0,0,3.17-31.32c-5.18-27.24-26.73-60.27-45.57-79.02-23.9-23.76-69.24-60.32-102.63-56.15-86.31,9.93-157.36,126.53-199.13,195.94a17.859,17.859,0,0,1-2.51-1.65c-13.51-12.41-29.83-29.82-34.09-48.76a38.759,38.759,0,0,1,3.79-27.86c-.57-9.4-19.64-57.05-29.33-59.92-67.18,200.09-226.82,52.86-284.15,138.57h0Zm652.96-4.54h0c2.83,51.98-239.96,56.84-281.33,22.58,32.41-35.9,53.84-75.68,94.92-93.56,61.75-26.87,119.59-15.42,169.74,32.07,12.94,12.26,15.94,25.94,16.66,38.91h0ZM1756.81,184.63h0c-7.84,23.54-18.9,46.94-37.04,64.74-3.44,3.37-5.73,3.3-9.75.87-14.36-8.71-46.24-20.1-56.47-29.25-1.58-1.42-1.77-2.96-1.03-4.91,8.45-21.91,18.48-45.56,35.63-62.02,3.67-3.52,6.44-4.23,11.03-1.97,17.92,8.81,36.81,18.74,54.83,26.93,2.07.94,3.15,2.54,2.79,5.61h0ZM866.4,687.84h0c-7.84,23.54-18.9,46.95-37.05,64.74-3.44,3.37-5.73,3.3-9.74.87-14.37-8.7-46.24-20.1-56.47-29.25-1.59-1.42-1.78-2.96-1.03-4.91,8.44-21.91,18.48-45.56,35.62-62.02,3.67-3.52,6.44-4.22,11.04-1.97,17.92,8.81,36.8,18.74,54.82,26.93,2.09.95,3.16,2.55,2.81,5.61Zm1206.05,166.8h0c-7.85,23.55-18.9,46.95-37.05,64.75-3.44,3.37-5.73,3.29-9.74.87-10.74-6.51-31.23-14.51-45.18-21.96-7.46,18.89-17.51,37.03-32.24,51.46-3.44,3.37-5.73,3.3-9.74.87-14.37-8.7-46.24-20.1-56.47-29.25-1.59-1.42-1.77-2.97-1.03-4.91,8.44-21.91,18.48-45.56,35.63-62.02,3.66-3.53,6.44-4.23,11.03-1.97,14.68,7.21,30,15.17,44.96,22.32,7.59-18.46,16.93-37.07,31.16-50.73,3.66-3.53,6.44-4.23,11.03-1.97,17.93,8.81,36.81,18.74,54.83,26.93,2.09.95,3.16,2.55,2.81,5.61h0ZM131.68,501.2h0c9.19-2.12,70.1-15.47,76.61-1.01,1.48,3.29.45,8.11-2.63,9.74l-29.71,41.52a7.861,7.861,0,0,0-.83,3.03,2.21,2.21,0,0,0,3.14,2.03c7.21-4.16,36.9-40.04,41.88-49.23,6.08-11.26,11.95-20.48,16.12-32.66a54.387,54.387,0,0,0,1.56-6.22c1.64-7.52-4.74-15.06-11.02-16.57-24.52-5.93-45.65,3.38-67.44,4.53-3.93.21-5.92-2.09-5.62-6.09a55.206,55.206,0,0,1,6.87-22.88c6.66-11.96,17.26-20.54,28.21-22.91,14.03-3.04,21.21,3.02,28.96,12.53,1.24,1.53,2.87,1.66,4.54.44a7.024,7.024,0,0,0,1.45-1.25c8.12-10.91,30.65-38.88,13.94-50.09-28.66-19.25-66.7,22.72-79.53,42.93-16.01,25.21-28.62,60.04-30.31,89.04a2.932,2.932,0,0,0,3.81,3.12h0ZM381.74,60.49h0c-21.64,7.1-64.86,119.32-62.78,144.33,4.48,54.19,28.37,302.37,39.17,352.48.91,4.18,2.02,8.33,3.22,12.43,1.72,5.81,2.26,11.78,2.77,17.76a7.183,7.183,0,0,1-4.07,7.42c-67.21,35.72-176.87,33.35-245.71,12.13-46.75-14.4-91.35-71.76-76.14-121.7a58.532,58.532,0,0,0,1.57-6.23c.62-3.18.88-6.36-1.24-9.6C13.64,483.41-11.13,590.86,5.29,628.86c25.02,57.91,123.69,88.82,213.77,82.8l-21.93,38.25a136.141,136.141,0,0,0,.29,26.16c6.46,65.13,42.64,96.09,88.6,104.65,67.31,12.55,129.93-10.13,181.01-50.64,51.28-40.68,90.94-99.32,112.05-158.28,17.75-49.64-53.09-172.65-83.5-212.48-1.52-1.98-3.3-3.74-5.75-6.52-19.45,15.72-44.14,56.81-50.14,82a13.657,13.657,0,0,0,2.59,12c32.8,41.71,77.06,121.71,85.64,176.32.85,5.4-1.24,9.63-5.98,12.97-56.56,39.74-166.3,91.12-227.95,45.54-25.56-18.9-37.36-48.81-42.79-73.78,51.52-8.96,96.51-31.33,117.8-69.22l54.23-96.52L391.27,205.22c13.29-23.44,40.95-18.12,61.44-27.18C422.19,161.45,384.5,62.65,381.75,60.5h0ZM2339.3,490.98h0c-7.47,6.8-15.82,22.92-31.44,22.67-32.4-1.92-74.81-16.6-105.24-12.15A62.834,62.834,0,0,0,2170,517.32c-22.43,20.24-51.92,68.16-58.1,100.66-6.06,31.85,1.78,81.06,36.05,96.85a10.42,10.42,0,0,1,5.88,7.72c.8,3.6-1.47,6.14-5.22,5.68-22.84-2.8-50.74-24.08-62.97-44.37-23.04-38.26-32.67-113.68-54.31-165.55a4.123,4.123,0,0,0-.37-.61c-3.87-5.81-6.67-5.98-11.02-.45-8.2,10.37-34.39,50.51-36.12,62.3l22.6,73.69c4.94,16.1,1.67,46.63-10.28,61.55-44.77,55.89-101.11,55.72-153.59-9.76-35.51-44.32-47.43-105.06-64.68-180.38-.79-1.88-6.65-2.72-9.25.28-18.32,21.09-35.68,41.49-45.64,66.07a10.853,10.853,0,0,0,.05,8.39c9.84,25.55,26.86,61.83,24.35,87.27a18.4,18.4,0,0,1-7.68,13.86c-25.99,19.7-67.68,30-103.03,25.17-41.16-5.61-73.75-31.73-62.99-87.38-1.06-.88-2.3-.44-3.23.45-26.27,25.52-49.7,75.12-38.53,113.41,22.92,78.54,145.53,53.17,192.06,1.69,10.14-11.22,20.09-22.51,26.91-36.17a8.91,8.91,0,0,1,.72-1.24c1.98-2.83,5.72-3.4,8.1-.91,33.04,87.29,87.05,118.95,136.66,111.49,43.03-6.47,88.66-32.38,118.52-104.13a5.034,5.034,0,0,1,5.01-3.38,5.4,5.4,0,0,1,5.26,3.12,45.22,45.22,0,0,1,1.92,5.38c10.61,34.14,27.48,58.85,62.42,70.1,22.08,7.11,52.55,7.36,74.82,2.47,33.44-7.33,62.06-21.68,91.43-38.59,20.58-11.85,59.05-35.65,89.43-46.83,6.47-1.38,9.8-6.67,13.42-11.31l30.08-57.38c.95-2.41-1.19-4.95-3.83-4.84-13.46,14.51-53.4,34.61-95.4,34.13-35.28-.42-86.68-21.48-110.61-47.25-6.5-7-28.29-34.32-24.7-46.27a5.927,5.927,0,0,1,3.62-3.71,23.443,23.443,0,0,1,6.94-1.53c26.55-2.04,78.01,13.92,101.44,12.08,5-.38,17.37-3.21,20.97-6.29l50.6-83.69c1.51-2.37,2.78-5.09,1.62-8.11h0Zm-261.69-37.39h0c17.31-116.44,11.19-196.47-10.81-245.51-9.12-20.32-34.1,55.22-36.91,57.15l8.53-145.37a30.277,30.277,0,0,1-3.11-3.6c17.78-11.9,36.73-57.7,51.84-69.21,1.55-1.18,3.2-.78,4.56.74a10.953,10.953,0,0,1,2.46,5.14c54.27,187.37,66.6,385.26,10.09,532.25L2077.61,453.6h0ZM1693.15,875.1h0c.33-1.37.28-2.91.99-3.89a41.955,41.955,0,0,1,5.2-5.71c11.41-10.61,20.9-22.81,29.47-35.73a76.986,76.986,0,0,0,5.4-10.64c2.32-5.05,1.48-9.66-2.58-13.49-4.22-4-9.14-4.42-14.34-2.25a47.492,47.492,0,0,0-4.9,2.76,28.47,28.47,0,0,1-3.1,1.61,2.576,2.576,0,0,1-3.28-1.81,12.193,12.193,0,0,1,.46-7.6,103.83,103.83,0,0,1,4.5-11.07c4.57-8.82,12.02-13.89,21.92-14.17,9.3-.28,17.56,6.28,18.29,15.82.71,9.22-.03,18.02-3.71,26.83a126.79,126.79,0,0,1-33.21,46.46c-4.37,3.89-8.81,7.68-13.11,11.65-2.35,2.16-4.77,2.67-8.02,1.22h0Zm-887-10.13h0A21.237,21.237,0,0,0,817.87,857c8.35-11.86,18.79-22.23,28.68-33,6.51-7.08,12.12-14.59,15.68-23.27a28.841,28.841,0,0,0,1.91-13.47c-.48-5.93-7.51-13.25-13.5-13.84-6.94-.7-13.92-.51-20.44,2.15-7.28,2.97-14.47,6.14-21.74,9.15-8.92,3.68-17.95,7.14-26.8,10.94-7.93,3.42-16.48,5.26-24.6,8.09-12.69,4.41-25.93,6.86-39.13,9.02-19.76,3.23-39.72,3.67-59.95,2.53a158.366,158.366,0,0,1-70.78-20.97c-5.51-3.14-10.57-6.93-15.76-10.51-4.37-3-7.78-2.9-11.49.51-5.79,5.33-6.89,14.58-2.29,20.7,2.64,3.51,5.72,6.77,8.33,10.29,5.8,7.84,12.64,15.29,12.86,25.39.08,3.57-.05,7.15-.02,10.73.02,2.59-.22,5.24.3,7.76.98,4.68,6.02,6.03,9.77,2.49a17.015,17.015,0,0,0,4.21-6.63,38.544,38.544,0,0,0,1.48-18.37c-.32-2.21-1.17-4.77,1.3-6.34,2.87-1.83,5.51-.1,8.13,1.05,2.93,1.28,5.8,2.91,8.92,3.63,15.15,3.58,30.32,6.77,46.22,7.16,25.42.63,50.27-2.65,74.85-7.6a350.157,350.157,0,0,0,55.97-16.55c12.4-4.75,24.63-9.71,36.55-15.34,5.05-2.39,10.52-2.5,16.01-1.46a4.18,4.18,0,0,1,3.1,6.15,16.045,16.045,0,0,1-2.47,3.19c-5.53,5.59-11.32,10.99-16.63,16.75-8.75,9.52-16.81,19.5-22.54,30.83-1.4,2.78-1.34,5.01,2.17,6.81h0ZM16.75,257.93h0c-1.67,7.5,1.52,13.81,6.74,18.72a54.952,54.952,0,0,0,25.33,13.81,46.072,46.072,0,0,1,13.46,5.31,22.021,22.021,0,0,0,6.79,2.55c4.6.94,7.76-1.47,8.41-6.04a17.79,17.79,0,0,0,.16-2.73c-.1-5.77-.17-11.54-.37-17.32-.27-7.96-1.7-9.69-9.5-12.35a166.323,166.323,0,0,1-28.41-12.22,17.494,17.494,0,0,1-4.29-3.29,5.377,5.377,0,0,1-.04-7.46c2.17-2.53,4.29-5.28,6.97-7.16,8.46-5.92,17.21-11.22,27.05-14.85,11.38-4.19,22.4-9.38,33.58-14.09,8.4-3.53,16.77-7.1,25.23-10.47,13.51-5.39,27.09-10.61,40.63-15.95,7.62-3.01,15.05-6.59,22.85-9.04,8.43-2.65,16.4-6.46,24.76-9.13,6.72-2.14,10.67-6.59,13.5-12.61,1.68-3.56,3.79-6.93,5.24-10.57a25.218,25.218,0,0,0,1.56-7.91,3.646,3.646,0,0,0-4.9-3.73c-.58.17-1.13.43-1.7.65-19.34,7.25-38.65,14.54-58.01,21.72-10.24,3.8-20.59,7.29-30.85,11.09-15.37,5.7-30.76,11.37-46.01,17.39-10.73,4.23-21.24,8.99-31.81,13.58a31.709,31.709,0,0,0-3.88,2.37c-8.69,5.41-15.29,13.02-21.19,21.15a176.879,176.879,0,0,0-13.14,20.78c-4.54,8.57-8.94,17.39-8.15,27.81h0Zm1022.14,487.9h0a2.526,2.526,0,0,1,1.4-2.8c3.67-1.7,7.4-3.27,11.12-4.84,2.03-.85,4.12-1.57,6.14-2.44q5.31-2.3,10.59-4.7c28.47-12.88,58.3-25.09,83.3-44.23,8.18-6.26,14.83-13.75,18.98-23.36,1.6-3.7,3.91-7.1,5.87-10.65a10.152,10.152,0,0,1,4.07-3.65,13.554,13.554,0,0,0,5.32-5.45c2.07-3.79,5.29-6.52,8.86-8.95,3.2-2.16,6.38-2.19,9.33-.24,8.38,5.55,11.23,11.48,12.73,20.99a9.855,9.855,0,0,1,.33,3.29c-1.3,6.48-2.22,13.09-6.11,18.77a7.267,7.267,0,0,1-7.06,3.47c-8.22-.88-15.25-6.71-21.49-11.69-.87-.68-1.68-1.44-2.61-2.03a2.043,2.043,0,0,0-2.86.78,30.258,30.258,0,0,0-1.26,3.06,67.45,67.45,0,0,1-13.89,22.39,134.541,134.541,0,0,1-33.79,26.56c-6.42,3.62-12.88,7.17-19.54,10.32a64.072,64.072,0,0,1-12.05,4.01l-57.39,11.37h0Zm153.38-89.17h0c-2.21-1.68-.8-3.44,1.89-4.08,3.95-.95,10.66.52,12.72,8.24a2.888,2.888,0,0,1-.46,2.46,2.565,2.565,0,0,1-2.43.3c-3.53-2.98-8.09-4.17-11.72-6.91h0Zm375.38-498.18h0c-15.66-14.43-95.66-15.24-117.08-5.61a26.4,26.4,0,0,0-12.14,10.75q-8.64,14.415-17.13,28.91c-2.05,3.5-.73,6.12,3.17,6.54a17.879,17.879,0,0,0,2.64.07c25.48-.9,68.7-4.37,92.54,3.13a9.928,9.928,0,0,1,1.82.77,2.505,2.505,0,0,1,.89,3.9,34.606,34.606,0,0,1-5.93,5.1c-22.57,14.2-37.53,14.9-50.12,21.77-3.61,1.98-36.07,25.64-41.4,29.55-12.39,15.76,78.33-16.79,79.5-17.31,13.18-5.78,28.03-21.57,40.28-37.38,9.09-11.73,19.65-26.23,25.39-40.05,1.58-3.79.73-7.2-2.45-10.13Z" fill="#422b08" fill-rule="evenodd"/>
        <g id="Group_1494" data-name="Group 1494">
          <path id="Path_1618" data-name="Path 1618" d="M84.28,1054.1a27.6,27.6,0,0,0-4.69-9.38l-1.63-2.24,1.63-2.24h45.05q11.205,0,15.08-2.65l2.45-1.83,2.04,1.83v25.48l-4.08,1.43q-3.675-11.01-7.24-15.09t-10.09-4.07h-9.17c-3.53,0-5.84.65-6.93,1.93s-1.63,4.05-1.63,8.26v28.95h14.68q6.12,0,9.07-1.22a8.1,8.1,0,0,0,4.38-4.89l1.02-2.85,2.65,1.63v22.83l-4.48,1.63-.81-4.49a7.6,7.6,0,0,0-4.49-5.91q-3.675-1.635-11.82-1.63H105.08v30.78c0,4.07.61,6.76,1.84,8.05s3.94,1.94,8.15,1.94h9.99a11.945,11.945,0,0,0,9.68-4.28q3.57-4.275,6.83-14.88l4.28,1.43v24.46l-2.24,1.83a16.4,16.4,0,0,0-6.52-2.75,55.989,55.989,0,0,0-10.19-.71H75.73l-1.43-3.67a33.174,33.174,0,0,0,7.34-2.75,6.759,6.759,0,0,0,3.06-3.57,21.782,21.782,0,0,0,.82-6.93v-51.57a53.4,53.4,0,0,0-1.22-12.84Z" fill="#422b08"/>
          <path id="Path_1619" data-name="Path 1619" d="M199.66,1131.76a25.909,25.909,0,0,0,6.83-2.55,6.344,6.344,0,0,0,2.85-3.67,25.567,25.567,0,0,0,.72-7.03v-53q0-9.78-1.53-13.76t-7.44-8.87l1.84-2.65h34.45l1.43,3.26q-5.91,3.465-7.54,6.42t-1.63,10.5v50.15q0,9.585,1.53,13.55t7.24,8.87l-1.63,2.45H201.1l-1.43-3.67Z" fill="#422b08"/>
          <path id="Path_1620" data-name="Path 1620" d="M291.6,1131.76a33.174,33.174,0,0,0,7.34-2.75,6.759,6.759,0,0,0,3.06-3.57,21.84,21.84,0,0,0,.81-6.93v-55.24c0-4.75-.38-8.22-1.12-10.4s-2.48-4.08-5.2-5.71l-2.45-1.43.82-2.65a107.919,107.919,0,0,1,16.71-3.37,140.829,140.829,0,0,1,18.35-1.32q25.89,0,39.44,12.74t13.56,36.79q0,21.825-12.54,34.66t-34.15,12.84H293.01l-1.43-3.67Zm70.33-43.83q0-19.98-7.85-32.11t-20.69-12.13c-3.54,0-6.25.54-8.16,1.63a5.137,5.137,0,0,0-2.85,4.69v62.38q0,9.585,2.95,14.27t9.07,4.69q27.525,0,27.52-43.42Z" fill="#422b08"/>
          <path id="Path_1621" data-name="Path 1621" d="M590.85,1126.16a36.719,36.719,0,0,0,7.55,7.24l-1.84,2.04h-36.9l-1.22-3.67,3.06-.81a9.78,9.78,0,0,0,4.38-2.55,6.184,6.184,0,0,0,1.33-4.18q0-1.62-2.24-8.36l-4.08-12.03h-31.6l-1.63,5.1q-3.06,9.18-3.06,13.86a19.348,19.348,0,0,0,1.63,8.15l1.42,2.45-1.84,2.04H503.39l-1.42-3.67,3.06-.81a16.209,16.209,0,0,0,7.34-3.98q2.445-2.55,4.69-9.07l20.79-59.93a31.714,31.714,0,0,0,1.43-7.14q0-4.485-6.52-6.32l-2.24-.61,1.43-3.67h27.72l26.71,76.85a36.236,36.236,0,0,0,4.48,9.07Zm-32-28.03-13.86-41.38-13.66,41.38h27.52Z" fill="#422b08"/>
          <path id="Path_1622" data-name="Path 1622" d="M654.45,1055.42A15.446,15.446,0,0,0,652,1049a34.193,34.193,0,0,0-5.91-6.11l1.84-2.65H683.4l1.43,3.26a32.543,32.543,0,0,0-6.73,4.69,10.32,10.32,0,0,0-2.75,5.1,46.011,46.011,0,0,0-.71,9.58v56.87c0,4.35.61,7.21,1.83,8.56s3.94,2.04,8.16,2.04h7.75a11.815,11.815,0,0,0,9.38-3.98q3.465-3.975,7.14-15.19l4.08,1.43v24.46l-2.04,1.83a14.7,14.7,0,0,0-5.91-2.75,49.2,49.2,0,0,0-9.78-.71H645.1l-1.22-3.67a33.174,33.174,0,0,0,7.34-2.75,6.8,6.8,0,0,0,3.06-3.57,21.783,21.783,0,0,0,.82-6.93v-51.98a74.72,74.72,0,0,0-.61-11.11Z" fill="#422b08"/>
          <path id="Path_1623" data-name="Path 1623" d="M919.45,1126.16a36.892,36.892,0,0,0,7.54,7.24l-1.84,2.04h-36.9l-1.22-3.67,3.06-.81a9.78,9.78,0,0,0,4.38-2.55,6.184,6.184,0,0,0,1.33-4.18q0-1.62-2.24-8.36l-4.08-12.03h-31.6l-1.63,5.1q-3.06,9.18-3.06,13.86a19.348,19.348,0,0,0,1.63,8.15l1.43,2.45-1.84,2.04H831.99l-1.43-3.67,3.06-.81a16.208,16.208,0,0,0,7.34-3.98q2.445-2.55,4.69-9.07l20.79-59.93a31.714,31.714,0,0,0,1.43-7.14q0-4.485-6.52-6.32l-2.24-.61,1.43-3.67h27.72l26.71,76.85a36.236,36.236,0,0,0,4.48,9.07Zm-32-28.03-13.86-41.38-13.66,41.38h27.52Z" fill="#422b08"/>
          <path id="Path_1624" data-name="Path 1624" d="M973.06,1131.76a33.174,33.174,0,0,0,7.34-2.75,6.759,6.759,0,0,0,3.06-3.57,21.783,21.783,0,0,0,.82-6.93v-55.24c0-4.75-.38-8.22-1.12-10.4s-2.48-4.08-5.2-5.71l-2.45-1.43.82-2.65a107.918,107.918,0,0,1,16.71-3.37,140.829,140.829,0,0,1,18.35-1.32q25.89,0,39.44,12.74t13.56,36.79q0,21.825-12.54,34.66t-34.15,12.84H974.48l-1.43-3.67Zm70.33-43.83q0-19.98-7.85-32.11t-20.69-12.13q-5.31,0-8.16,1.63a5.137,5.137,0,0,0-2.85,4.69v62.38q0,9.585,2.95,14.27t9.07,4.69q27.525,0,27.52-43.42Z" fill="#422b08"/>
          <path id="Path_1625" data-name="Path 1625" d="M1201.78,1120.55a15.327,15.327,0,0,0,2.45,6.32,36.9,36.9,0,0,0,5.71,6.12l-1.63,2.45h-35.88l-1.22-3.67a26.05,26.05,0,0,0,6.83-2.55,6.4,6.4,0,0,0,2.86-3.67,26.048,26.048,0,0,0,.71-7.03v-28.54h-36.08v19.77a72.766,72.766,0,0,0,.61,10.91,15.659,15.659,0,0,0,2.34,6.32,34.842,34.842,0,0,0,5.6,6.01l-1.43,2.45h-35.88l-1.22-3.67q6.72-1.83,8.56-4.18c1.22-1.56,1.84-4.59,1.84-9.07v-53q0-9.78-1.53-13.76t-7.44-8.87l1.63-2.65h34.65l1.43,3.26q-5.91,3.465-7.54,6.42t-1.63,10.5v23.85h36.08v-18.76q0-9.78-1.53-13.76t-7.44-8.87l1.63-2.65h34.65l1.63,3.26q-5.91,3.465-7.64,6.42t-1.73,10.5v49.33a70.723,70.723,0,0,0,.61,10.81Z" fill="#422b08"/>
          <path id="Path_1626" data-name="Path 1626" d="M1346.11,1126.16a36.891,36.891,0,0,0,7.54,7.24l-1.84,2.04h-36.89l-1.23-3.67,3.06-.81a9.78,9.78,0,0,0,4.38-2.55,6.18,6.18,0,0,0,1.32-4.18q0-1.62-2.24-8.36l-4.08-12.03h-31.6l-1.63,5.1q-3.06,9.18-3.06,13.86a19.349,19.349,0,0,0,1.63,8.15l1.43,2.45-1.83,2.04h-22.43l-1.43-3.67,3.05-.81a16.208,16.208,0,0,0,7.34-3.98q2.445-2.55,4.69-9.07l20.79-59.93a31.719,31.719,0,0,0,1.43-7.14q0-4.485-6.53-6.32l-2.24-.61,1.43-3.67h27.73l26.7,76.85a36.224,36.224,0,0,0,4.49,9.07Zm-32-28.03-13.86-41.38-13.66,41.38Z" fill="#422b08"/>
          <path id="Path_1627" data-name="Path 1627" d="M1580.95,1123.41a27.629,27.629,0,0,0,6.52,9.99l-1.63,2.04h-35.47l-1.43-3.67q6.72-1.83,8.67-3.67,1.935-1.83,1.94-6.73,0-2.64-3.26-49.53l-1.22-17.74-27.52,78.28h-5.71l-27.32-77.67-2.85,46.48q-.825,9.78-.82,13.66a29.169,29.169,0,0,0,1.33,9.28,38.229,38.229,0,0,0,4.99,9.28l-1.84,2.04h-22.62l-1.23-3.67a49.984,49.984,0,0,0,7.65-2.85,6.72,6.72,0,0,0,3.26-3.46,25.309,25.309,0,0,0,1.32-6.93l2.44-39.14q1.02-13.65,1.02-17.94,0-6.93-1.53-10.19t-6.83-8.36l1.43-2.65H1510l21,63.4,22.22-63.4h26.3l2.04,2.24a45.819,45.819,0,0,0-5.2,9.37,28.62,28.62,0,0,0-1.32,9.58q0,3.87.81,12.03l2.65,36.29a46.306,46.306,0,0,0,2.44,13.66Z" fill="#422b08"/>
          <path id="Path_1628" data-name="Path 1628" d="M1708.76,1128.2q-8.97,9.075-26.3,9.07c-11.55,0-20.11-3.13-26.5-9.38s-9.58-15.02-9.58-26.3V1065.1q0-9.375-1.63-13.46t-7.14-8.76l1.43-2.65h35.68l1.43,3.26a30.58,30.58,0,0,0-6.72,4.38,9.686,9.686,0,0,0-2.75,4.99,43.349,43.349,0,0,0-.71,9.17v41.38q0,13.665,5.3,20.69t15.49,7.03q11.625,0,17.94-7.24t6.32-20.49v-46.27q0-6.315-2.34-8.66t-10.09-4.59l1.43-3.67h23.65l1.83,2.24-1.83,2.24a29.046,29.046,0,0,0-4.79,9.48,44.633,44.633,0,0,0-1.12,12.74v34.65q0,17.535-8.97,26.6Z" fill="#422b08"/>
          <path id="Path_1629" data-name="Path 1629" d="M1851.56,1094.26a21.836,21.836,0,0,1,6.01,15.29q0,11.82-9.99,18.86t-26.91,7.03h-42.61l-1.42-3.67a33.173,33.173,0,0,0,7.34-2.75,6.74,6.74,0,0,0,3.05-3.57,21.549,21.549,0,0,0,.81-6.93v-55.24q0-7.125-1.12-10.4c-.75-2.17-2.48-4.08-5.2-5.71l-2.44-1.43.81-2.65a101.69,101.69,0,0,1,16.82-3.37,147.821,147.821,0,0,1,18.65-1.32q17.94,0,28.03,6.73a21.312,21.312,0,0,1,10.09,18.75,19.629,19.629,0,0,1-4.79,13.15,29.157,29.157,0,0,1-13.15,8.46,30.144,30.144,0,0,1,16.01,8.77Zm-18.96,30.78q4.785-5.91,4.79-15.09a20.212,20.212,0,0,0-6.32-15.29q-6.315-5.91-17.94-7.95v-2.45q9.375,0,14.78-5.5t5.4-14.88q0-9.375-4.49-14.98a14.6,14.6,0,0,0-12.03-5.6,8.516,8.516,0,0,0-6.93,2.95q-2.445,2.955-2.45,8.25v58.3q0,8.355,3.57,13.25a11.176,11.176,0,0,0,9.48,4.89,14.973,14.973,0,0,0,12.13-5.91Z" fill="#422b08"/>
          <path id="Path_1630" data-name="Path 1630" d="M1991.5,1126.16a36.718,36.718,0,0,0,7.55,7.24l-1.84,2.04h-36.89l-1.23-3.67,3.06-.81a9.78,9.78,0,0,0,4.38-2.55,6.18,6.18,0,0,0,1.32-4.18q0-1.62-2.24-8.36l-4.08-12.03h-31.6l-1.63,5.1q-3.06,9.18-3.06,13.86a19.349,19.349,0,0,0,1.63,8.15l1.43,2.45-1.83,2.04h-22.43l-1.43-3.67,3.05-.81a16.208,16.208,0,0,0,7.34-3.98q2.445-2.55,4.69-9.07l20.79-59.93a31.719,31.719,0,0,0,1.43-7.14q0-4.485-6.53-6.32l-2.24-.61,1.42-3.67h27.73l26.7,76.85a36.58,36.58,0,0,0,4.48,9.07Zm-32-28.03-13.86-41.38-13.66,41.38Z" fill="#422b08"/>
          <path id="Path_1631" data-name="Path 1631" d="M2134.4,1128.5a23.807,23.807,0,0,1-19.16,8.77c-4.89,0-8.74-1.12-11.52-3.37s-5.2-6.08-7.23-11.52l-5.91-17.94a46.045,46.045,0,0,0-3.67-8.05,10.674,10.674,0,0,0-5.1-3.98l-3.47-1.84.41-2.04a37.252,37.252,0,0,0,4.28.2,21.055,21.055,0,0,0,3.47-.2,17.741,17.741,0,0,0,11.82-6.93q4.29-5.7,4.28-14.68,0-10.8-5.1-17.23a16.351,16.351,0,0,0-13.46-6.42q-9.165,0-9.17,8.56v56.88a49.05,49.05,0,0,0,1.33,12.74,28.753,28.753,0,0,0,4.79,9.48l1.63,2.45-1.63,2.04h-35.47l-1.43-3.67a33.173,33.173,0,0,0,7.34-2.75,6.717,6.717,0,0,0,3.06-3.57,21.839,21.839,0,0,0,.81-6.93v-54.22a40.831,40.831,0,0,0-1.12-10.91,10.915,10.915,0,0,0-5.2-6.22l-2.45-1.43.82-2.65a95.785,95.785,0,0,1,16.2-3.37,134.793,134.793,0,0,1,17.64-1.32q19.35,0,30.58,7.75,11.2,7.755,11.21,21.2a25.28,25.28,0,0,1-6.01,16.61,29.032,29.032,0,0,1-15.39,9.68,18.518,18.518,0,0,1,10.19,11.01l7.13,19.98c1.09,3.26,3.19,4.89,6.32,4.89,2.44,0,4.96-1.09,7.54-3.26l1.64,2.24Z" fill="#422b08"/>
          <path id="Path_1632" data-name="Path 1632" d="M2260.18,1126.16a36.884,36.884,0,0,0,7.54,7.24l-1.84,2.04h-36.89l-1.23-3.67,3.06-.81a9.779,9.779,0,0,0,4.38-2.55,6.181,6.181,0,0,0,1.32-4.18q0-1.62-2.24-8.36l-4.08-12.03h-31.6l-1.63,5.1q-3.06,9.18-3.06,13.86a19.351,19.351,0,0,0,1.63,8.15l1.43,2.45-1.83,2.04h-22.43l-1.43-3.67,3.05-.81a16.209,16.209,0,0,0,7.34-3.98q2.445-2.55,4.69-9.07l20.79-59.93a31.716,31.716,0,0,0,1.43-7.14q0-4.485-6.53-6.32l-2.24-.61,1.43-3.67h27.73l26.7,76.85a36.233,36.233,0,0,0,4.49,9.07Zm-32-28.03-13.86-41.38-13.66,41.38Z" fill="#422b08"/>
          <path id="Path_1633" data-name="Path 1633" d="M2404.09,1128.5a28.852,28.852,0,0,1-9.17,6.73,25.8,25.8,0,0,1-10.4,2.04q-7.95,0-12.23-3.98c-2.85-2.65-5.58-7.37-8.15-14.17l-7.75-19.98a32.719,32.719,0,0,0-4.69-8.05q-2.25-2.55-7.34-2.55v22.02c0,6.25.52,10.7,1.53,13.35s3.43,5.68,7.23,9.07l-1.43,2.45h-36.7l-1.43-3.67a33.177,33.177,0,0,0,7.34-2.75,6.74,6.74,0,0,0,3.05-3.57,21.839,21.839,0,0,0,.81-6.93v-53q0-9.78-1.53-13.76t-7.23-8.87l1.63-2.65h35.47l1.43,3.26q-6.525,3.465-8.36,6.52t-1.84,10.4v25.28h.62l24.26-27.52a16.626,16.626,0,0,0,2.55-3.98,13.942,13.942,0,0,0,.92-3.97,19.425,19.425,0,0,0-1.63-5.51l-1.22-2.24,2.65-2.24h24.05l1.22,3.67-4.68,1.43a31.145,31.145,0,0,0-10.81,8.15l-28.54,32.62q10.605.81,16.72,4.38a21,21,0,0,1,8.97,10.5l9.38,23.65a8.638,8.638,0,0,0,2.44,3.77,5.736,5.736,0,0,0,3.67,1.12c2.17,0,4.69-1.09,7.54-3.26l1.63,2.24Z" fill="#422b08"/>
        </g>
      </g>
    </g>
  </g>
</svg>
