<svg xmlns="http://www.w3.org/2000/svg" xmlns:xlink="http://www.w3.org/1999/xlink" width="675.104" height="435.075" viewBox="0 0 675.104 435.075">
  <defs>
    <clipPath id="clip-path">
      <path id="Path_22" data-name="Path 22" d="M766.3,563.9,246.3,549a48.07,48.07,0,0,1-46.5-43.3l-25.1-248a48.18,48.18,0,0,1,47.2-53l578.8-8a48.21,48.21,0,0,1,48.5,54.1L815.5,521.7a48.27,48.27,0,0,1-49.2,42.2Z" fill="none"/>
    </clipPath>
    <clipPath id="clip-path-2">
      <path id="Path_109" data-name="Path 109" d="M575.2,277.1c-13.9-11.5-32.7-8.7-42.1-8.3s-17.7-.2-35.9-1.8c-9.9-.9-16.3,1.3-20.1,3.6a12.86,12.86,0,0,0-5.8,7.7,81.619,81.619,0,0,0-2,19.4,124.447,124.447,0,0,0,1.9,17.8c.8,7.9,1.5,16.3,1.5,20.1,0,8.3-6.1,27.7-5.8,34.6s19.7,12.8,38,13.6,49.6-7.5,54.9-8.9,5.1-6.9,3.6-16.6c-1.1-6.9-.9-24.5.8-39.4,2.9,2.5,7,6,10.7,9.3,8-8.4,17-16.2,25.7-24.2C591.6,293,581.7,282.5,575.2,277.1Z" fill="none"/>
    </clipPath>
  </defs>
  <g id="error" transform="translate(-174.458 -174.125)">
    <path id="Path_1" data-name="Path 1" d="M766.3,563.9,246.3,549a48.07,48.07,0,0,1-46.5-43.3l-25.1-248a48.18,48.18,0,0,1,47.2-53l578.8-8a48.21,48.21,0,0,1,48.5,54.1L815.5,521.7a48.27,48.27,0,0,1-49.2,42.2Z" fill="#fffaf7"/>
    <g id="Group_1" data-name="Group 1" clip-path="url(#clip-path)">
      <path id="Path_2" data-name="Path 2" d="M341.9,608.9H-73.6a15,15,0,0,1-15-15V358.3a15,15,0,0,1,15-15H341.9a15,15,0,0,1,15,15V593.9a15,15,0,0,1-15,15Z" fill="none" stroke="#ffd1b8" stroke-linecap="round" stroke-linejoin="round" stroke-width="1.8"/>
      <path id="Path_3" data-name="Path 3" d="M891,593.1H471.9a15,15,0,0,1-15-15V233.8a15,15,0,0,1,15-15H891a15,15,0,0,1,15,15V578.1a15,15,0,0,1-15,15Z" fill="none" stroke="#ffd1b8" stroke-linecap="round" stroke-linejoin="round" stroke-width="1.8"/>
      <path id="Path_4" data-name="Path 4" d="M227.1,343.3H206.8a4.32,4.32,0,0,1-4.3-3.8l-1.6-14.4a4.33,4.33,0,0,1,4.3-4.8h23.5a4.34,4.34,0,0,1,4.3,4.8l-1.6,14.4a4.41,4.41,0,0,1-4.3,3.8Z" fill="none" stroke="#ffd1b8" stroke-linecap="round" stroke-linejoin="round" stroke-width="1.8"/>
      <path id="Path_5" data-name="Path 5" d="M214.5,320.3s-8-.8-9.6-11.6c0,0,7.2,2.1,9.5,7.2,0,0,1-11.4,6.4-12.5,0,0,2.4,8.5-1.4,12.7,0,0,2.9-4.8,10.3-4.7a13.6,13.6,0,0,1-9.2,8.8" fill="#ffd1b8"/>
      <path id="Path_6" data-name="Path 6" d="M338.7,393H248.5a4.23,4.23,0,0,1-4.2-4.2V361.4a4.23,4.23,0,0,1,4.2-4.2h90.2a4.23,4.23,0,0,1,4.2,4.2v27.4a4.1,4.1,0,0,1-4.2,4.2Z" fill="none" stroke="#ffd1b8" stroke-linecap="round" stroke-linejoin="round" stroke-width="1.8"/>
      <path id="Path_7" data-name="Path 7" d="M304,366.8H283.2a1.54,1.54,0,0,1-1.5-1.5h0a1.54,1.54,0,0,1,1.5-1.5H304a1.54,1.54,0,0,1,1.5,1.5h0a1.47,1.47,0,0,1-1.5,1.5Z" fill="#ffd1b8"/>
      <path id="Path_8" data-name="Path 8" d="M338.7,438.8H248.5a4.23,4.23,0,0,1-4.2-4.2V407.2a4.23,4.23,0,0,1,4.2-4.2h90.2a4.23,4.23,0,0,1,4.2,4.2v27.4a4.1,4.1,0,0,1-4.2,4.2Z" fill="none" stroke="#ffd1b8" stroke-linecap="round" stroke-linejoin="round" stroke-width="1.8"/>
      <path id="Path_9" data-name="Path 9" d="M304,412.6H283.2a1.54,1.54,0,0,1-1.5-1.5h0a1.54,1.54,0,0,1,1.5-1.5H304a1.54,1.54,0,0,1,1.5,1.5h0a1.47,1.47,0,0,1-1.5,1.5Z" fill="#ffd1b8"/>
      <path id="Path_10" data-name="Path 10" d="M801.9,471.1H711.7a4.23,4.23,0,0,1-4.2-4.2V439.5a4.23,4.23,0,0,1,4.2-4.2h90.2a4.23,4.23,0,0,1,4.2,4.2v27.4a4.1,4.1,0,0,1-4.2,4.2Z" fill="none" stroke="#ffd1b8" stroke-linecap="round" stroke-linejoin="round" stroke-width="1.8"/>
      <path id="Path_11" data-name="Path 11" d="M767.2,445H746.4a1.54,1.54,0,0,1-1.5-1.5h0a1.54,1.54,0,0,1,1.5-1.5h20.8a1.54,1.54,0,0,1,1.5,1.5h0a1.54,1.54,0,0,1-1.5,1.5Z" fill="#ffd1b8"/>
      <path id="Path_12" data-name="Path 12" d="M686.1,471.1H595.9a4.23,4.23,0,0,1-4.2-4.2V439.5a4.23,4.23,0,0,1,4.2-4.2h90.2a4.23,4.23,0,0,1,4.2,4.2v27.4a4.23,4.23,0,0,1-4.2,4.2Z" fill="none" stroke="#ffd1b8" stroke-linecap="round" stroke-linejoin="round" stroke-width="1.8"/>
      <path id="Path_13" data-name="Path 13" d="M651.4,445H630.6a1.54,1.54,0,0,1-1.5-1.5h0a1.54,1.54,0,0,1,1.5-1.5h20.8a1.54,1.54,0,0,1,1.5,1.5h0a1.54,1.54,0,0,1-1.5,1.5Z" fill="#ffd1b8"/>
      <path id="Path_14" data-name="Path 14" d="M223.7,393H133.5a4.23,4.23,0,0,1-4.2-4.2V361.4a4.23,4.23,0,0,1,4.2-4.2h90.2a4.23,4.23,0,0,1,4.2,4.2v27.4a4.1,4.1,0,0,1-4.2,4.2Z" fill="none" stroke="#ffd1b8" stroke-linecap="round" stroke-linejoin="round" stroke-width="1.8"/>
      <path id="Path_15" data-name="Path 15" d="M189,366.8H168.2a1.54,1.54,0,0,1-1.5-1.5h0a1.54,1.54,0,0,1,1.5-1.5H189a1.54,1.54,0,0,1,1.5,1.5h0a1.42,1.42,0,0,1-1.5,1.5Z" fill="#ffd1b8"/>
      <path id="Path_16" data-name="Path 16" d="M223.7,438.8H133.5a4.23,4.23,0,0,1-4.2-4.2V407.2a4.23,4.23,0,0,1,4.2-4.2h90.2a4.23,4.23,0,0,1,4.2,4.2v27.4a4.1,4.1,0,0,1-4.2,4.2Z" fill="none" stroke="#ffd1b8" stroke-linecap="round" stroke-linejoin="round" stroke-width="1.8"/>
      <path id="Path_17" data-name="Path 17" d="M189,412.6H168.2a1.54,1.54,0,0,1-1.5-1.5h0a1.54,1.54,0,0,1,1.5-1.5H189a1.54,1.54,0,0,1,1.5,1.5h0a1.42,1.42,0,0,1-1.5,1.5Z" fill="#ffd1b8"/>
      <path id="Path_18" data-name="Path 18" d="M933.2,323.6h-455a4.65,4.65,0,0,1-4.6-4.6V239.3a4.65,4.65,0,0,1,4.6-4.6h455a4.65,4.65,0,0,1,4.6,4.6V319a4.53,4.53,0,0,1-4.6,4.6Z" fill="none" stroke="#ffd1b8" stroke-linecap="round" stroke-linejoin="round" stroke-width="1.8"/>
      <path id="Path_19" data-name="Path 19" d="M933.2,422.6h-455a4.65,4.65,0,0,1-4.6-4.6V338.3a4.65,4.65,0,0,1,4.6-4.6h455a4.65,4.65,0,0,1,4.6,4.6V418a4.59,4.59,0,0,1-4.6,4.6Z" fill="none" stroke="#ffd1b8" stroke-linecap="round" stroke-linejoin="round" stroke-width="1.8"/>
      <rect id="Rectangle_1" data-name="Rectangle 1" width="9.9" height="50.3" transform="translate(504.3 273.3)" fill="none" stroke="#ffd1b8" stroke-linecap="round" stroke-linejoin="round" stroke-width="1.8"/>
      <rect id="Rectangle_2" data-name="Rectangle 2" width="10.3" height="36.6" transform="translate(514.1 287)" fill="none" stroke="#ffd1b8" stroke-linecap="round" stroke-linejoin="round" stroke-width="1.8"/>
      <rect id="Rectangle_3" data-name="Rectangle 3" width="9.9" height="50.3" transform="translate(802.6 372.1)" fill="none" stroke="#ffd1b8" stroke-linecap="round" stroke-linejoin="round" stroke-width="1.8"/>
      <rect id="Rectangle_4" data-name="Rectangle 4" width="10.3" height="36.6" transform="translate(812.5 385.8)" fill="none" stroke="#ffd1b8" stroke-linecap="round" stroke-linejoin="round" stroke-width="1.8"/>
      <rect id="Rectangle_5" data-name="Rectangle 5" width="9.9" height="50.3" transform="translate(782.5 372.1)" fill="none" stroke="#ffd1b8" stroke-linecap="round" stroke-linejoin="round" stroke-width="1.8"/>
      <rect id="Rectangle_6" data-name="Rectangle 6" width="50.3" height="9.9" transform="translate(758.022 418.923) rotate(-72.48)" fill="none" stroke="#ffd1b8" stroke-linecap="round" stroke-linejoin="round" stroke-width="1.8"/>
      <rect id="Rectangle_7" data-name="Rectangle 7" width="10.3" height="36.6" transform="translate(792.4 385.8)" fill="none" stroke="#ffd1b8" stroke-linecap="round" stroke-linejoin="round" stroke-width="1.8"/>
      <rect id="Rectangle_8" data-name="Rectangle 8" width="9.9" height="50.3" transform="translate(669.1 273.3)" fill="none" stroke="#ffd1b8" stroke-linecap="round" stroke-linejoin="round" stroke-width="1.8"/>
      <rect id="Rectangle_9" data-name="Rectangle 9" width="10.3" height="36.6" transform="translate(679 287)" fill="none" stroke="#ffd1b8" stroke-linecap="round" stroke-linejoin="round" stroke-width="1.8"/>
      <rect id="Rectangle_10" data-name="Rectangle 10" width="9.9" height="50.3" transform="translate(571.3 273.3)" fill="none" stroke="#ffd1b8" stroke-linecap="round" stroke-linejoin="round" stroke-width="1.8"/>
      <rect id="Rectangle_11" data-name="Rectangle 11" width="50.3" height="9.9" transform="translate(546.827 320.117) rotate(-72.48)" fill="none" stroke="#ffd1b8" stroke-linecap="round" stroke-linejoin="round" stroke-width="1.8"/>
      <rect id="Rectangle_12" data-name="Rectangle 12" width="10.3" height="36.6" transform="translate(581.2 287)" fill="none" stroke="#ffd1b8" stroke-linecap="round" stroke-linejoin="round" stroke-width="1.8"/>
      <path id="Path_20" data-name="Path 20" d="M812.4,279.9l1.1-14.9a1.65,1.65,0,0,0-1.7-1.8h-8.6a1.71,1.71,0,0,0-1.7,1.8l1.1,14.9s-9,5.8-8.9,10.6c.1,3.7,2.3,21.4,3.3,29.2a4.32,4.32,0,0,0,4.3,3.8h12.4a4.32,4.32,0,0,0,4.3-3.8c1-7.8,3.2-25.5,3.3-29.2C821.4,285.7,812.4,279.9,812.4,279.9Z" fill="#ffd1b8"/>
      <path id="Path_21" data-name="Path 21" d="M772.5,279.9l1.1-14.9a1.65,1.65,0,0,0-1.7-1.8h-8.6a1.71,1.71,0,0,0-1.7,1.8l1.1,14.9s-9,5.8-8.9,10.6c.1,3.7,2.3,21.4,3.3,29.2a4.32,4.32,0,0,0,4.3,3.8h12.4a4.32,4.32,0,0,0,4.3-3.8c1-7.8,3.2-25.5,3.3-29.2C781.5,285.7,772.5,279.9,772.5,279.9Z" fill="#ffd1b8"/>
      <line id="Line_1" data-name="Line 1" x2="955.8" transform="translate(173.2 517)" fill="none" stroke="#ffd1b8" stroke-linecap="round" stroke-linejoin="round" stroke-width="1.8"/>
    </g>
    <path id="Path_23" data-name="Path 23" d="M517.4,429.6l-1.3,6.3a5.78,5.78,0,0,1-5.6,4.6H497.6a5.76,5.76,0,0,1-5.6-4.6l-1.3-6.3L504,429Z" fill="#22272e"/>
    <rect id="Rectangle_13" data-name="Rectangle 13" width="7.2" height="104" transform="translate(500.3 437.4)" fill="#22272e"/>
    <path id="Path_24" data-name="Path 24" d="M507.4,548h-6.9a2.11,2.11,0,0,1-2.1-2.1V526.2a2.11,2.11,0,0,1,2.1-2.1h6.9a2.11,2.11,0,0,1,2.1,2.1v19.7A2.26,2.26,0,0,1,507.4,548Z" fill="#22272e"/>
    <path id="Path_25" data-name="Path 25" d="M504.7,542s-7.3,5.9-11.2,28" fill="none" stroke="#22272e" stroke-linecap="round" stroke-linejoin="round" stroke-width="4"/>
    <path id="Path_26" data-name="Path 26" d="M502.1,543.3s-22-5.3-34,20.8" fill="none" stroke="#22272e" stroke-linecap="round" stroke-linejoin="round" stroke-width="4"/>
    <path id="Path_27" data-name="Path 27" d="M505.9,542.8s19.7-3.5,32.1,24.5" fill="none" stroke="#22272e" stroke-linecap="round" stroke-linejoin="round" stroke-width="4"/>
    <circle id="Ellipse_1" data-name="Ellipse 1" cx="8.9" cy="8.9" r="8.9" transform="translate(459.2 555.2)" fill="#6dafa7"/>
    <circle id="Ellipse_2" data-name="Ellipse 2" cx="8.9" cy="8.9" r="8.9" transform="translate(525.3 555.2)" fill="none" stroke="#22272e" stroke-linecap="round" stroke-linejoin="round" stroke-width="1.8"/>
    <circle id="Ellipse_3" data-name="Ellipse 3" cx="8.9" cy="8.9" r="8.9" transform="translate(483.5 567.4)" fill="#6dafa7"/>
    <ellipse id="Ellipse_4" data-name="Ellipse 4" cx="60.9" cy="12" rx="60.9" ry="12" transform="translate(443.2 407.5)" fill="#ffb48b"/>
    <ellipse id="Ellipse_5" data-name="Ellipse 5" cx="60.9" cy="12" rx="60.9" ry="12" transform="translate(443.2 401.3)" fill="#22272e"/>
    <path id="Path_28" data-name="Path 28" d="M431.7,550.6c.7,4.7,1.6,11.3,1.2,13.7,0,0,1.7,4.1,11.1,3.5s14.2-5.7,14.2-5.7-.3-5.6-.7-11.3a65.75,65.75,0,0,1-25.8-.2Z" fill="#f4c2c9"/>
    <path id="Path_29" data-name="Path 29" d="M430.9,545.7s.4,2.1.8,5a66.23,66.23,0,0,0,25.9.2c-.3-5.6-.6-11.3-.6-12.5C456.9,535.9,429.7,538.2,430.9,545.7Z" fill="#e26e85"/>
    <path id="Path_30" data-name="Path 30" d="M433,562.1a66.056,66.056,0,0,0-2.1,7.1c-1.5,5.7-15.4,21.3-15,24.7s2.9,6.5,13.2,6.5,22.5.6,25.9-.8a7.79,7.79,0,0,0,3-2.8,18.66,18.66,0,0,0,3.1-12.8c-.8-7.3-2.2-19.4-2.2-20.5a6.26,6.26,0,0,0-.7-2.9s-2.8,3.9-6.2,4.6-3.7-3.5-9.1-4.6-7.8,4-8.7,4.2C433.2,564.8,433,562.9,433,562.1Z" fill="#22272e"/>
    <path id="Path_31" data-name="Path 31" d="M547.3,557.8c1.7-5.1,3.4-10.4,3.9-12.3,1.1-3.9-25.8-9.2-27.6-.9l-1,4.8C529.3,555,538.6,560.1,547.3,557.8Z" fill="#e26e85"/>
    <path id="Path_32" data-name="Path 32" d="M522.6,549.4,519.5,564s1.6,2.9,8.9,5.1,15.2,0,15.2,0,1.8-5.6,3.7-11.4C538.6,560.1,529.3,555,522.6,549.4Z" fill="#f4c2c9"/>
    <path id="Path_33" data-name="Path 33" d="M520.5,559.5a19.47,19.47,0,0,0-3.3,5.9c-1.6,4-18.3,23.2-18.6,26.5s3.1,6.5,6.6,7.7,27.1,4.2,31.4,2.7,6.4-10.4,6.5-19.6a98.732,98.732,0,0,1,2.3-18.6,5.85,5.85,0,0,1-4,3.3c-3,.8-4.1-5.9-9-8.2s-9.7,2.6-10.8,3.4S520.3,560.3,520.5,559.5Z" fill="#22272e"/>
    <path id="Path_34" data-name="Path 34" d="M471.5,363.6s-9.9,8-21.5,16.3-46.3,27.6-46.2,49.1c.1,13.4,7.6,56,12.4,77.1s-.6,29.7,5.7,37.1,25,5.5,33,2.2,12.5-11.6,8.6-23.8-6.7-34.4-5.3-51a254.561,254.561,0,0,0,.3-33.3,95.137,95.137,0,0,1,16.6-8,131.366,131.366,0,0,0,14.7-6.1s30.5-.3,32.4.6,11.9,17.7,12.5,20.2c0,0-1.9,6.7-3.9,31.3s-15.6,49.1-13.1,59.3,8.6,14.7,16.9,17.2,20.2,2.2,25.5-9.1,9.1-38.3,14.4-53.5,13.6-40.5,13-52.4-16-53.2-25.3-67.6S479.1,347.4,471.5,363.6Z" fill="#22272e"/>
    <path id="Path_35" data-name="Path 35" d="M458.4,437.4s-.6-6.7-1.5-9.2" fill="none" stroke="#63737a" stroke-linecap="round" stroke-linejoin="round" stroke-width="1.8"/>
    <path id="Path_36" data-name="Path 36" d="M534.7,444s1.6-7.4,3.4-11.3" fill="none" stroke="#63737a" stroke-linecap="round" stroke-linejoin="round" stroke-width="1.8"/>
    <circle id="Ellipse_6" data-name="Ellipse 6" cx="16.2" cy="16.2" r="16.2" transform="translate(411.3 414.4)" fill="none" stroke="#63737a" stroke-linecap="round" stroke-linejoin="round" stroke-width="1.8"/>
    <circle id="Ellipse_7" data-name="Ellipse 7" cx="16.2" cy="16.2" r="16.2" transform="translate(547.1 418.5)" fill="none" stroke="#63737a" stroke-linecap="round" stroke-linejoin="round" stroke-width="1.8"/>
    <path id="Path_37" data-name="Path 37" d="M430.8,577.3s9.1-6.9,22,.7" fill="none" stroke="#fff" stroke-linecap="round" stroke-linejoin="round" stroke-width="1.8"/>
    <path id="Path_38" data-name="Path 38" d="M427.5,584s9.1-6.9,22,.7" fill="none" stroke="#fff" stroke-linecap="round" stroke-linejoin="round" stroke-width="1.8"/>
    <path id="Path_39" data-name="Path 39" d="M516.1,574.4s11.5-5.1,22.7,6" fill="none" stroke="#fff" stroke-linecap="round" stroke-linejoin="round" stroke-width="1.8"/>
    <path id="Path_40" data-name="Path 40" d="M512.7,580.9s11.5-5.1,22.7,6" fill="none" stroke="#fff" stroke-linecap="round" stroke-linejoin="round" stroke-width="1.8"/>
    <path id="Path_41" data-name="Path 41" d="M453.1,326.3s-2.4-1.2-4.6-6.4,5.2-6.9,5.9-4S453.1,326.3,453.1,326.3Z" fill="#22272e"/>
    <path id="Path_42" data-name="Path 42" d="M416.4,316.2s4,9.4,18,9.2c11-.1,43.7-10.9,45.8-11.8s12.4-13.8,8.8-27.7-13.5-12.8-13.5-12.8-11.6,4.2-33.5,19.6S416.8,308.8,416.4,316.2Z" fill="#f4c2c9"/>
    <path id="Path_43" data-name="Path 43" d="M449.5,306.1s3,11.2,3.6,20.2c0,0,28-9.7,30.4-11.7s7.6-20.9,3.1-30.3S476,271.4,476,271.4a285.873,285.873,0,0,0-25.1,15.2C437.9,295.5,449.5,306.1,449.5,306.1Z" fill="#6dafa7"/>
    <path id="Path_44" data-name="Path 44" d="M458.8,324.3s-1.7-21.8-8.9-37.7" fill="none" stroke="#22272e" stroke-linecap="round" stroke-linejoin="round" stroke-width="1.8"/>
    <path id="Path_45" data-name="Path 45" d="M575.2,277.1c-13.9-11.5-32.7-8.7-42.1-8.3s-17.7-.2-35.9-1.8c-9.9-.9-16.3,1.3-20.1,3.6a12.86,12.86,0,0,0-5.8,7.7,81.619,81.619,0,0,0-2,19.4,124.447,124.447,0,0,0,1.9,17.8c.8,7.9,1.5,16.3,1.5,20.1,0,8.3-6.1,27.7-5.8,34.6s19.7,12.8,38,13.6,49.6-7.5,54.9-8.9,5.1-6.9,3.6-16.6c-1.1-6.9-.9-24.5.8-39.4,2.9,2.5,7,6,10.7,9.3,8-8.4,17-16.2,25.7-24.2C591.6,293,581.7,282.5,575.2,277.1Z" fill="#ffb48b"/>
    <g id="Group_2" data-name="Group 2" clip-path="url(#clip-path-2)">
      <path id="Path_46" data-name="Path 46" d="M476.7,384.5l.9,1a1.72,1.72,0,0,1,0,2.4l-1,.9a1.72,1.72,0,0,1-2.4,0l-.9-1a1.72,1.72,0,0,1,0-2.4l1-.9a1.63,1.63,0,0,1,2.4,0Z" fill="#cb7d53"/>
      <path id="Path_47" data-name="Path 47" d="M477,368.8l.9,1a1.72,1.72,0,0,1,0,2.4l-1,.9a1.72,1.72,0,0,1-2.4,0l-.9-1a1.72,1.72,0,0,1,0-2.4l1-.9a1.63,1.63,0,0,1,2.4,0Z" fill="#cb7d53"/>
      <path id="Path_48" data-name="Path 48" d="M477.2,353.1l.9,1a1.72,1.72,0,0,1,0,2.4l-1,.9a1.72,1.72,0,0,1-2.4,0l-.9-1a1.72,1.72,0,0,1,0-2.4l1-.9a1.63,1.63,0,0,1,2.4,0Z" fill="#cb7d53"/>
      <path id="Path_49" data-name="Path 49" d="M477.4,337.4l.9,1a1.72,1.72,0,0,1,0,2.4l-1,.9a1.72,1.72,0,0,1-2.4,0l-.9-1a1.72,1.72,0,0,1,0-2.4l1-.9a1.63,1.63,0,0,1,2.4,0Z" fill="#cb7d53"/>
      <path id="Path_50" data-name="Path 50" d="M477.7,321.7l.9,1a1.72,1.72,0,0,1,0,2.4l-1,.9a1.72,1.72,0,0,1-2.4,0l-.9-1a1.72,1.72,0,0,1,0-2.4l1-.9a1.63,1.63,0,0,1,2.4,0Z" fill="#cb7d53"/>
      <path id="Path_51" data-name="Path 51" d="M490.8,384.7l.9,1a1.72,1.72,0,0,1,0,2.4l-1,.9a1.72,1.72,0,0,1-2.4,0l-.9-1a1.72,1.72,0,0,1,0-2.4l1-.9a1.63,1.63,0,0,1,2.4,0Z" fill="#cb7d53"/>
      <path id="Path_52" data-name="Path 52" d="M491.1,369l.9,1a1.72,1.72,0,0,1,0,2.4l-1,.9a1.72,1.72,0,0,1-2.4,0l-.9-1a1.72,1.72,0,0,1,0-2.4l1-.9a1.63,1.63,0,0,1,2.4,0Z" fill="#cb7d53"/>
      <path id="Path_53" data-name="Path 53" d="M491.3,353.3l.9,1a1.72,1.72,0,0,1,0,2.4l-1,.9a1.72,1.72,0,0,1-2.4,0l-.9-1a1.72,1.72,0,0,1,0-2.4l1-.9a1.63,1.63,0,0,1,2.4,0Z" fill="#cb7d53"/>
      <path id="Path_54" data-name="Path 54" d="M491.5,337.6l.9,1a1.72,1.72,0,0,1,0,2.4l-1,.9a1.72,1.72,0,0,1-2.4,0l-.9-1a1.72,1.72,0,0,1,0-2.4l1-.9a1.63,1.63,0,0,1,2.4,0Z" fill="#cb7d53"/>
      <path id="Path_55" data-name="Path 55" d="M491.8,321.9l.9,1a1.72,1.72,0,0,1,0,2.4l-1,.9a1.72,1.72,0,0,1-2.4,0l-.9-1a1.72,1.72,0,0,1,0-2.4l1-.9a1.72,1.72,0,0,1,2.4,0Z" fill="#cb7d53"/>
      <path id="Path_56" data-name="Path 56" d="M505,384.9l.9,1a1.72,1.72,0,0,1,0,2.4l-1,.9a1.72,1.72,0,0,1-2.4,0l-.9-1a1.72,1.72,0,0,1,0-2.4l1-.9a1.63,1.63,0,0,1,2.4,0Z" fill="#cb7d53"/>
      <path id="Path_57" data-name="Path 57" d="M505.2,369.2l.9,1a1.72,1.72,0,0,1,0,2.4l-1,.9a1.72,1.72,0,0,1-2.4,0l-.9-1a1.72,1.72,0,0,1,0-2.4l1-.9a1.63,1.63,0,0,1,2.4,0Z" fill="#cb7d53"/>
      <path id="Path_58" data-name="Path 58" d="M505.4,353.5l.9,1a1.72,1.72,0,0,1,0,2.4l-1,.9a1.72,1.72,0,0,1-2.4,0l-.9-1a1.72,1.72,0,0,1,0-2.4l1-.9a1.63,1.63,0,0,1,2.4,0Z" fill="#cb7d53"/>
      <path id="Path_59" data-name="Path 59" d="M505.7,337.8l.9,1a1.72,1.72,0,0,1,0,2.4l-1,.9a1.72,1.72,0,0,1-2.4,0l-.9-1a1.72,1.72,0,0,1,0-2.4l1-.9A1.72,1.72,0,0,1,505.7,337.8Z" fill="#cb7d53"/>
      <path id="Path_60" data-name="Path 60" d="M505.9,322.1l.9,1a1.72,1.72,0,0,1,0,2.4l-1,.9a1.72,1.72,0,0,1-2.4,0l-.9-1a1.72,1.72,0,0,1,0-2.4l1-.9A1.72,1.72,0,0,1,505.9,322.1Z" fill="#cb7d53"/>
      <path id="Path_61" data-name="Path 61" d="M519.1,385.1l.9,1a1.72,1.72,0,0,1,0,2.4l-1,.9a1.72,1.72,0,0,1-2.4,0l-.9-1a1.72,1.72,0,0,1,0-2.4l1-.9a1.63,1.63,0,0,1,2.4,0Z" fill="#cb7d53"/>
      <path id="Path_62" data-name="Path 62" d="M519.3,369.4l.9,1a1.72,1.72,0,0,1,0,2.4l-1,.9a1.72,1.72,0,0,1-2.4,0l-.9-1a1.72,1.72,0,0,1,0-2.4l1-.9a1.63,1.63,0,0,1,2.4,0Z" fill="#cb7d53"/>
      <path id="Path_63" data-name="Path 63" d="M519.6,353.7l.9,1a1.72,1.72,0,0,1,0,2.4l-1,.9a1.72,1.72,0,0,1-2.4,0l-.9-1a1.72,1.72,0,0,1,0-2.4l1-.9a1.63,1.63,0,0,1,2.4,0Z" fill="#cb7d53"/>
      <path id="Path_64" data-name="Path 64" d="M519.8,338l.9,1a1.72,1.72,0,0,1,0,2.4l-1,.9a1.72,1.72,0,0,1-2.4,0l-.9-1a1.72,1.72,0,0,1,0-2.4l1-.9a1.72,1.72,0,0,1,2.4,0Z" fill="#cb7d53"/>
      <path id="Path_65" data-name="Path 65" d="M520,322.4l.9,1a1.72,1.72,0,0,1,0,2.4l-1,.9a1.72,1.72,0,0,1-2.4,0l-.9-1a1.72,1.72,0,0,1,0-2.4l1-.9a1.63,1.63,0,0,1,2.4,0Z" fill="#cb7d53"/>
      <path id="Path_66" data-name="Path 66" d="M533.2,385.3l.9,1a1.72,1.72,0,0,1,0,2.4l-1,.9a1.72,1.72,0,0,1-2.4,0l-.9-1a1.72,1.72,0,0,1,0-2.4l1-.9a1.63,1.63,0,0,1,2.4,0Z" fill="#cb7d53"/>
      <path id="Path_67" data-name="Path 67" d="M533.5,369.6l.9,1a1.72,1.72,0,0,1,0,2.4l-1,.9a1.72,1.72,0,0,1-2.4,0l-.9-1a1.72,1.72,0,0,1,0-2.4l1-.9a1.63,1.63,0,0,1,2.4,0Z" fill="#cb7d53"/>
      <path id="Path_68" data-name="Path 68" d="M533.7,353.9l.9,1a1.72,1.72,0,0,1,0,2.4l-1,.9a1.72,1.72,0,0,1-2.4,0l-.9-1a1.72,1.72,0,0,1,0-2.4l1-.9a1.72,1.72,0,0,1,2.4,0Z" fill="#cb7d53"/>
      <path id="Path_69" data-name="Path 69" d="M533.9,338.3l.9,1a1.72,1.72,0,0,1,0,2.4l-1,.9a1.72,1.72,0,0,1-2.4,0l-.9-1a1.72,1.72,0,0,1,0-2.4l1-.9a1.63,1.63,0,0,1,2.4,0Z" fill="#cb7d53"/>
      <path id="Path_70" data-name="Path 70" d="M534.2,322.6l.9,1a1.72,1.72,0,0,1,0,2.4l-1,.9a1.72,1.72,0,0,1-2.4,0l-.9-1a1.72,1.72,0,0,1,0-2.4l1-.9a1.63,1.63,0,0,1,2.4,0Z" fill="#cb7d53"/>
      <path id="Path_71" data-name="Path 71" d="M547.3,385.5l.9,1a1.72,1.72,0,0,1,0,2.4l-1,.9a1.72,1.72,0,0,1-2.4,0l-.9-1a1.72,1.72,0,0,1,0-2.4l1-.9a1.63,1.63,0,0,1,2.4,0Z" fill="#cb7d53"/>
      <path id="Path_72" data-name="Path 72" d="M547.6,369.8l.9,1a1.72,1.72,0,0,1,0,2.4l-1,.9a1.72,1.72,0,0,1-2.4,0l-.9-1a1.72,1.72,0,0,1,0-2.4l1-.9a1.72,1.72,0,0,1,2.4,0Z" fill="#cb7d53"/>
      <path id="Path_73" data-name="Path 73" d="M547.8,354.2l.9,1a1.72,1.72,0,0,1,0,2.4l-1,.9a1.72,1.72,0,0,1-2.4,0l-.9-1a1.72,1.72,0,0,1,0-2.4l1-.9a1.63,1.63,0,0,1,2.4,0Z" fill="#cb7d53"/>
      <path id="Path_74" data-name="Path 74" d="M548.1,338.5l.9,1a1.72,1.72,0,0,1,0,2.4l-1,.9a1.72,1.72,0,0,1-2.4,0l-.9-1a1.72,1.72,0,0,1,0-2.4l1-.9a1.63,1.63,0,0,1,2.4,0Z" fill="#cb7d53"/>
      <path id="Path_75" data-name="Path 75" d="M548.3,322.8l.9,1a1.72,1.72,0,0,1,0,2.4l-1,.9a1.72,1.72,0,0,1-2.4,0l-.9-1a1.72,1.72,0,0,1,0-2.4l1-.9a1.63,1.63,0,0,1,2.4,0Z" fill="#cb7d53"/>
      <path id="Path_76" data-name="Path 76" d="M561.5,385.7l.9,1a1.72,1.72,0,0,1,0,2.4l-1,.9a1.72,1.72,0,0,1-2.4,0l-.9-1a1.72,1.72,0,0,1,0-2.4l1-.9A1.72,1.72,0,0,1,561.5,385.7Z" fill="#cb7d53"/>
      <path id="Path_77" data-name="Path 77" d="M561.7,370.1l.9,1a1.72,1.72,0,0,1,0,2.4l-1,.9a1.72,1.72,0,0,1-2.4,0l-.9-1a1.72,1.72,0,0,1,0-2.4l1-.9a1.63,1.63,0,0,1,2.4,0Z" fill="#cb7d53"/>
      <path id="Path_78" data-name="Path 78" d="M561.9,354.4l.9,1a1.72,1.72,0,0,1,0,2.4l-1,.9a1.72,1.72,0,0,1-2.4,0l-.9-1a1.72,1.72,0,0,1,0-2.4l1-.9a1.63,1.63,0,0,1,2.4,0Z" fill="#cb7d53"/>
      <path id="Path_79" data-name="Path 79" d="M562.2,338.7l.9,1a1.72,1.72,0,0,1,0,2.4l-1,.9a1.72,1.72,0,0,1-2.4,0l-.9-1a1.72,1.72,0,0,1,0-2.4l1-.9a1.63,1.63,0,0,1,2.4,0Z" fill="#cb7d53"/>
      <path id="Path_80" data-name="Path 80" d="M562.4,323l.9,1a1.72,1.72,0,0,1,0,2.4l-1,.9a1.72,1.72,0,0,1-2.4,0l-.9-1a1.72,1.72,0,0,1,0-2.4l1-.9a1.63,1.63,0,0,1,2.4,0Z" fill="#cb7d53"/>
      <path id="Path_81" data-name="Path 81" d="M477.9,306l.9,1a1.72,1.72,0,0,1,0,2.4l-1,.9a1.72,1.72,0,0,1-2.4,0l-.9-1a1.72,1.72,0,0,1,0-2.4l1-.9a1.72,1.72,0,0,1,2.4,0Z" fill="#cb7d53"/>
      <path id="Path_82" data-name="Path 82" d="M478.1,290.3l.9,1a1.72,1.72,0,0,1,0,2.4l-1,.9a1.72,1.72,0,0,1-2.4,0l-.9-1a1.72,1.72,0,0,1,0-2.4l1-.9a1.72,1.72,0,0,1,2.4,0Z" fill="#cb7d53"/>
      <path id="Path_83" data-name="Path 83" d="M478.4,274.7l.9,1a1.72,1.72,0,0,1,0,2.4l-1,.9a1.72,1.72,0,0,1-2.4,0l-.9-1a1.72,1.72,0,0,1,0-2.4l1-.9a1.63,1.63,0,0,1,2.4,0Z" fill="#cb7d53"/>
      <path id="Path_84" data-name="Path 84" d="M478.6,259l.9,1a1.72,1.72,0,0,1,0,2.4l-1,.9a1.72,1.72,0,0,1-2.4,0l-.9-1a1.72,1.72,0,0,1,0-2.4l1-.9a1.63,1.63,0,0,1,2.4,0Z" fill="#cb7d53"/>
      <path id="Path_85" data-name="Path 85" d="M492,306.2l.9,1a1.72,1.72,0,0,1,0,2.4l-1,.9a1.72,1.72,0,0,1-2.4,0l-.9-1a1.72,1.72,0,0,1,0-2.4l1-.9a1.72,1.72,0,0,1,2.4,0Z" fill="#cb7d53"/>
      <path id="Path_86" data-name="Path 86" d="M492.3,290.6l.9,1a1.72,1.72,0,0,1,0,2.4l-1,.9a1.72,1.72,0,0,1-2.4,0l-.9-1a1.72,1.72,0,0,1,0-2.4l1-.9a1.63,1.63,0,0,1,2.4,0Z" fill="#cb7d53"/>
      <path id="Path_87" data-name="Path 87" d="M492.5,274.9l.9,1a1.72,1.72,0,0,1,0,2.4l-1,.9a1.72,1.72,0,0,1-2.4,0l-.9-1a1.72,1.72,0,0,1,0-2.4l1-.9a1.63,1.63,0,0,1,2.4,0Z" fill="#cb7d53"/>
      <path id="Path_88" data-name="Path 88" d="M492.7,259.2l.9,1a1.72,1.72,0,0,1,0,2.4l-1,.9a1.72,1.72,0,0,1-2.4,0l-.9-1a1.72,1.72,0,0,1,0-2.4l1-.9a1.63,1.63,0,0,1,2.4,0Z" fill="#cb7d53"/>
      <path id="Path_89" data-name="Path 89" d="M506.1,306.5l.9,1a1.72,1.72,0,0,1,0,2.4l-1,.9a1.72,1.72,0,0,1-2.4,0l-.9-1a1.72,1.72,0,0,1,0-2.4l1-.9a1.63,1.63,0,0,1,2.4,0Z" fill="#cb7d53"/>
      <path id="Path_90" data-name="Path 90" d="M506.4,290.8l.9,1a1.72,1.72,0,0,1,0,2.4l-1,.9a1.72,1.72,0,0,1-2.4,0l-.9-1a1.72,1.72,0,0,1,0-2.4l1-.9a1.63,1.63,0,0,1,2.4,0Z" fill="#cb7d53"/>
      <path id="Path_91" data-name="Path 91" d="M506.6,275.1l.9,1a1.72,1.72,0,0,1,0,2.4l-1,.9a1.72,1.72,0,0,1-2.4,0l-.9-1a1.72,1.72,0,0,1,0-2.4l1-.9a1.63,1.63,0,0,1,2.4,0Z" fill="#cb7d53"/>
      <path id="Path_92" data-name="Path 92" d="M506.9,259.4l.9,1a1.72,1.72,0,0,1,0,2.4l-1,.9a1.72,1.72,0,0,1-2.4,0l-.9-1a1.72,1.72,0,0,1,0-2.4l1-.9a1.63,1.63,0,0,1,2.4,0Z" fill="#cb7d53"/>
      <path id="Path_93" data-name="Path 93" d="M520.3,306.7l.9,1a1.72,1.72,0,0,1,0,2.4l-1,.9a1.72,1.72,0,0,1-2.4,0l-.9-1a1.72,1.72,0,0,1,0-2.4l1-.9a1.63,1.63,0,0,1,2.4,0Z" fill="#cb7d53"/>
      <path id="Path_94" data-name="Path 94" d="M520.5,291l.9,1a1.72,1.72,0,0,1,0,2.4l-1,.9a1.72,1.72,0,0,1-2.4,0l-.9-1a1.72,1.72,0,0,1,0-2.4l1-.9a1.63,1.63,0,0,1,2.4,0Z" fill="#cb7d53"/>
      <path id="Path_95" data-name="Path 95" d="M520.7,275.3l.9,1a1.72,1.72,0,0,1,0,2.4l-1,.9a1.72,1.72,0,0,1-2.4,0l-.9-1a1.72,1.72,0,0,1,0-2.4l1-.9a1.63,1.63,0,0,1,2.4,0Z" fill="#cb7d53"/>
      <path id="Path_96" data-name="Path 96" d="M521,259.6l.9,1a1.72,1.72,0,0,1,0,2.4l-1,.9a1.72,1.72,0,0,1-2.4,0l-.9-1a1.72,1.72,0,0,1,0-2.4l1-.9a1.63,1.63,0,0,1,2.4,0Z" fill="#cb7d53"/>
      <path id="Path_97" data-name="Path 97" d="M534.4,306.9l.9,1a1.72,1.72,0,0,1,0,2.4l-1,.9a1.72,1.72,0,0,1-2.4,0l-.9-1a1.72,1.72,0,0,1,0-2.4l1-.9a1.63,1.63,0,0,1,2.4,0Z" fill="#cb7d53"/>
      <path id="Path_98" data-name="Path 98" d="M534.6,291.2l.9,1a1.72,1.72,0,0,1,0,2.4l-1,.9a1.72,1.72,0,0,1-2.4,0l-.9-1a1.72,1.72,0,0,1,0-2.4l1-.9a1.63,1.63,0,0,1,2.4,0Z" fill="#cb7d53"/>
      <path id="Path_99" data-name="Path 99" d="M534.9,275.5l.9,1a1.72,1.72,0,0,1,0,2.4l-1,.9a1.72,1.72,0,0,1-2.4,0l-.9-1a1.72,1.72,0,0,1,0-2.4l1-.9a1.63,1.63,0,0,1,2.4,0Z" fill="#cb7d53"/>
      <path id="Path_100" data-name="Path 100" d="M535.1,259.8l.9,1a1.72,1.72,0,0,1,0,2.4l-1,.9a1.72,1.72,0,0,1-2.4,0l-.9-1a1.72,1.72,0,0,1,0-2.4l1-.9a1.63,1.63,0,0,1,2.4,0Z" fill="#cb7d53"/>
      <path id="Path_101" data-name="Path 101" d="M548.5,307.1l.9,1a1.72,1.72,0,0,1,0,2.4l-1,.9a1.72,1.72,0,0,1-2.4,0l-.9-1a1.72,1.72,0,0,1,0-2.4l1-.9a1.63,1.63,0,0,1,2.4,0Z" fill="#cb7d53"/>
      <path id="Path_102" data-name="Path 102" d="M548.8,291.4l.9,1a1.72,1.72,0,0,1,0,2.4l-1,.9a1.72,1.72,0,0,1-2.4,0l-.9-1a1.72,1.72,0,0,1,0-2.4l1-.9a1.63,1.63,0,0,1,2.4,0Z" fill="#cb7d53"/>
      <path id="Path_103" data-name="Path 103" d="M549,275.7l.9,1a1.72,1.72,0,0,1,0,2.4l-1,.9a1.72,1.72,0,0,1-2.4,0l-.9-1a1.72,1.72,0,0,1,0-2.4l1-.9a1.63,1.63,0,0,1,2.4,0Z" fill="#cb7d53"/>
      <path id="Path_104" data-name="Path 104" d="M549.2,260l.9,1a1.72,1.72,0,0,1,0,2.4l-1,.9a1.72,1.72,0,0,1-2.4,0l-.9-1a1.72,1.72,0,0,1,0-2.4l1-.9a1.72,1.72,0,0,1,2.4,0Z" fill="#cb7d53"/>
      <path id="Path_105" data-name="Path 105" d="M562.6,307.3l.9,1a1.72,1.72,0,0,1,0,2.4l-1,.9a1.72,1.72,0,0,1-2.4,0l-.9-1a1.72,1.72,0,0,1,0-2.4l1-.9a1.63,1.63,0,0,1,2.4,0Z" fill="#cb7d53"/>
      <path id="Path_106" data-name="Path 106" d="M562.9,291.6l.9,1a1.72,1.72,0,0,1,0,2.4l-1,.9a1.72,1.72,0,0,1-2.4,0l-.9-1a1.72,1.72,0,0,1,0-2.4l1-.9a1.63,1.63,0,0,1,2.4,0Z" fill="#cb7d53"/>
      <path id="Path_107" data-name="Path 107" d="M563.1,275.9l.9,1a1.72,1.72,0,0,1,0,2.4l-1,.9a1.72,1.72,0,0,1-2.4,0l-.9-1a1.72,1.72,0,0,1,0-2.4l1-.9A1.72,1.72,0,0,1,563.1,275.9Z" fill="#cb7d53"/>
      <path id="Path_108" data-name="Path 108" d="M563.4,260.3l.9,1a1.72,1.72,0,0,1,0,2.4l-1,.9a1.72,1.72,0,0,1-2.4,0l-.9-1a1.72,1.72,0,0,1,0-2.4l1-.9a1.63,1.63,0,0,1,2.4,0Z" fill="#cb7d53"/>
    </g>
    <path id="Path_110" data-name="Path 110" d="M502.8,279.3s-.2,11.8,12.9,12.6S539,279.2,537,270.1,502.8,266,502.8,279.3Z" fill="#f4c2c9"/>
    <path id="Path_111" data-name="Path 111" d="M530,276.2c-6.3,7.2-18.7,11-26.9,5.8a12.6,12.6,0,0,0,3.6,6.5C516.6,291.9,526.1,285.6,530,276.2Z" fill="#e26e85"/>
    <path id="Path_112" data-name="Path 112" d="M493.5,239.8a91,91,0,0,1,0,19.2c-1.1,11.1,6.2,24.7,18.1,26.5,12.8,2,25-5.1,28.6-27.1s-1.3-35.7-17.7-37S493.4,222.1,493.5,239.8Z" fill="#f4c2c9"/>
    <path id="Path_113" data-name="Path 113" d="M547,242.1a36.068,36.068,0,0,1-2.8,11c-1.9,4.1-3.9,5.4-3.9,5.4l-12-6.6s-33.8,7.9-34.7-12.1a35.249,35.249,0,0,1,.3-6.6,24.54,24.54,0,0,1,5.2-12.3,10,10,0,0,1,1.4-1.5c6-5.9,15.2-8.4,26-6.7C545.7,215.6,548.4,229.1,547,242.1Z" fill="#f4c2c9"/>
    <path id="Path_114" data-name="Path 114" d="M514,221.2c-12.1.2-21.4,3.5-20.5,18.6,0,0,.1,1.1.3,3,2.4-3.6,7.7-3.4,10.8-6.2A28.34,28.34,0,0,0,514,221.2Z" fill="#e26e85"/>
    <path id="Path_115" data-name="Path 115" d="M548.7,235.5a6.85,6.85,0,0,0-1.4-4.2,7.509,7.509,0,0,0,.5-2.6,7.15,7.15,0,0,0-3.6-6.2,7.14,7.14,0,0,0-6.9-6.6,7.24,7.24,0,0,0-9.2-3.1,7.11,7.11,0,0,0-5.4-2.5,7.29,7.29,0,0,0-4.4,1.5,7.47,7.47,0,0,0-3.9-1.2,7.16,7.16,0,0,0-5.9,3.1,8.809,8.809,0,0,0-1.7-.2,7.11,7.11,0,0,0-6.8,5,7.21,7.21,0,0,0-6.1,7.1,3.081,3.081,0,0,0,.1,1c-1.3,2.6-1.1,6.7-.2,6.5a15.6,15.6,0,0,1,10.3,1c5.8,2.9,8.4,2.2,14.7,0,7-2.4,18-3.8,19.6,8.6.4,3.2-3.2,10.3,1.8,12.5,1.3.6,2.7-.4,4-2.3a16,16,0,0,0,1.1-2.9,7.05,7.05,0,0,0,3.4-6.1,6.85,6.85,0,0,0-1.4-4.2A6.64,6.64,0,0,0,548.7,235.5Z" fill="#22272e"/>
    <path id="Path_116" data-name="Path 116" d="M538.7,256.2s2.5-5.7,5.6-4c2.6,1.4.3,14.5-6.7,14.6" fill="#f4c2c9"/>
    <path id="Path_117" data-name="Path 117" d="M510.1,252.2a9.65,9.65,0,0,1,.5,4.5,9.479,9.479,0,0,1-.5,2.3c-.3.7-.5,1.3-.8,2a6.781,6.781,0,0,0-.4,1.7,2.33,2.33,0,0,0,.7,1.4,4.4,4.4,0,0,0,3.6,1.4,4.11,4.11,0,0,1-4.5-.3,3.27,3.27,0,0,1-1.4-2.3,6.249,6.249,0,0,1,.4-2.5c.3-.7.6-1.4.9-2a10.657,10.657,0,0,0,.7-1.9C509.6,255.1,509.8,253.7,510.1,252.2Z" fill="#22272e"/>
    <path id="Path_118" data-name="Path 118" d="M511.7,272.2a8.38,8.38,0,0,1,8.1,2" fill="none" stroke="#22272e" stroke-linecap="round" stroke-linejoin="round" stroke-width="1.8"/>
    <path id="Path_119" data-name="Path 119" d="M498.8,246.2c1.3-.3,2.5-1.3,5.2-1.4,1.8-.1,2.9,0,3.1-1.3.2-1-1-2.3-3-2.3C500.2,241.2,495.2,247.1,498.8,246.2Z" fill="#22272e"/>
    <path id="Path_120" data-name="Path 120" d="M529.8,247.6c-1.3-.4-2.3-1.5-5-1.9-1.8-.3-2.9-.3-2.9-1.6-.1-1.1,1.2-2.2,3.2-2C528.8,242.5,533.3,248.8,529.8,247.6Z" fill="#22272e"/>
    <path id="Path_121" data-name="Path 121" d="M504,256.1h0a1.83,1.83,0,0,0,1.8-1.6v-1a1.83,1.83,0,0,0-1.6-1.8h0a1.83,1.83,0,0,0-1.8,1.6v1a1.63,1.63,0,0,0,1.6,1.8Z" fill="#22272e"/>
    <path id="Path_122" data-name="Path 122" d="M523.6,256.9h0a1.83,1.83,0,0,0,1.8-1.6v-1a1.83,1.83,0,0,0-1.6-1.8h0a1.83,1.83,0,0,0-1.8,1.6v1a1.68,1.68,0,0,0,1.6,1.8Z" fill="#22272e"/>
    <path id="Path_123" data-name="Path 123" d="M543,257.1c-.4-.1-.8-.1-.9.1a1.169,1.169,0,0,0-.2.7,3.082,3.082,0,0,0-.1,1c0,.4-.1.7-.1,1.1a7.5,7.5,0,0,1-.7,2.3,2,2,0,0,1-1.2,1,1.94,1.94,0,0,1-1.3-.3c.4-.2.8-.3.9-.5a.84.84,0,0,0,.2-.7c.1-.6.1-1.3.2-2.1.1-.4.1-.8.2-1.1a3.079,3.079,0,0,1,.5-1.2,1.65,1.65,0,0,1,1.3-.9.93.93,0,0,1,1.2.6Z" fill="#22272e"/>
    <path id="Path_124" data-name="Path 124" d="M482.9,257.7s-4.5,3.8-12.5,18.2c-6.4,11.6-11.9,28.9-19.7,38.6a20.19,20.19,0,0,1-6,5.4,30.33,30.33,0,0,1-4.8,2.2c-11.8,3.9-28.5.9-24-16.8s34.8-39.2,44.7-54.8S483.2,251.9,482.9,257.7Z" fill="#f4c2c9"/>
    <path id="Path_125" data-name="Path 125" d="M450.7,314.5a20.189,20.189,0,0,1-6,5.4,30.329,30.329,0,0,1-4.8,2.2" fill="none" stroke="#e26e85" stroke-linecap="round" stroke-linejoin="round" stroke-width="1.8"/>
    <path id="Path_126" data-name="Path 126" d="M483.9,226.6s5.4-2.6,7.3-3.5,6.3-1.8,7.9-2.3,1.8,2.1-.9,4.5-7.5,8.9-10.8,9.6S482.3,228.6,483.9,226.6Z" fill="#e26e85"/>
    <path id="Path_127" data-name="Path 127" d="M459.7,252.2s5.9-9.7,7.6-13.3c4.2-8.7,10.3-12.3,12.3-13.9s14.7-4.2,17.9-5.4c3-1.1,2.6,1.4,1.4,2.5-3.3,3-9.9,4.2-10.7,5.1,0,0,4.7-1.4,7.1-2.4a79.416,79.416,0,0,1,10.3-2.7c1.6-.3,2.6,1.5,0,3.2s-7.3,3.8-7.9,4.2-5.3,3.3-5.3,3.3,4.7,0,6.4-.1,5.3.1,6.2.1c2.4,0,2.8,3-2.1,3.8s-8,2.1-10.6,4.2c-3,2.4,1,9.2-11.1,18.5C481.3,259.3,462.6,264.9,459.7,252.2Z" fill="#f4c2c9"/>
    <path id="Path_128" data-name="Path 128" d="M492.4,232.8a9.359,9.359,0,0,0-1.8.6,13.359,13.359,0,0,0-2.9,2.1" fill="none" stroke="#e26e85" stroke-linecap="round" stroke-linejoin="round" stroke-width="1.8"/>
    <path id="Path_129" data-name="Path 129" d="M488.2,227.2s-1.7.5-2.9,1a9.89,9.89,0,0,0-2.6,2" fill="none" stroke="#e26e85" stroke-linecap="round" stroke-linejoin="round" stroke-width="1.8"/>
    <path id="Path_130" data-name="Path 130" d="M461.2,249.4c2.5-.1,11.1.8,15.6,15.6a1.09,1.09,0,0,1-.2,1.1l-3.9,5.9a.19.19,0,0,1-.3,0c-.7-2.2-5.1-15.5-15.4-16.4a.52.52,0,0,1-.4-.8c.9-1.3,2.7-3.8,3.5-4.8A1.38,1.38,0,0,1,461.2,249.4Z" fill="#22272e"/>
    <ellipse id="Ellipse_8" data-name="Ellipse 8" cx="5.1" cy="4.8" rx="5.1" ry="4.8" transform="translate(458.742 256.738) rotate(-60)" fill="#fff"/>
    <path id="Path_131" data-name="Path 131" d="M578.4,336.6s4.8-1.3,13.7-11.8-7-.4-7.9,0S578.4,336.6,578.4,336.6Z" fill="#22272e"/>
    <path id="Path_132" data-name="Path 132" d="M623.3,337.8c-2.8-7.8-12.3-21.2-22.6-33.7-8.7,8-17.7,15.8-25.7,24.2,5.4,4.8,10.2,9,10.2,9-1.4.7-4,2.1-6.7,3.4,4.7,7.7,8.1,16.5,8.7,25.3,9.3.2,19.8.4,24.7-1.6C620.7,360.9,628.6,352.5,623.3,337.8Z" fill="#f4c2c9"/>
    <path id="Path_133" data-name="Path 133" d="M569.6,345.1s-1.7-2.4-2.5-3.3-5.4-4-7.3-5.6-3.5.7-1.8,3.5,2.7,7.6,4,8.9S569.8,348.7,569.6,345.1Z" fill="#f4c2c9"/>
    <path id="Path_134" data-name="Path 134" d="M604.4,308.6s-16,11.6-26,28.1c0,0-17-16.4-20.1-22s-2.8-21.4,4.4-30.4,13.5-6.3,13.5-6.3a195.339,195.339,0,0,1,28.2,30.6Z" fill="#6dafa7"/>
    <path id="Path_135" data-name="Path 135" d="M573.9,332.2s10.6-18.9,26.6-28.7" fill="none" stroke="#22272e" stroke-linecap="round" stroke-linejoin="round" stroke-width="1.8"/>
    <path id="Path_136" data-name="Path 136" d="M585.1,337.3s10.5-6.7,19.2-5" fill="none" stroke="#e26e85" stroke-linecap="round" stroke-linejoin="round" stroke-width="1.8"/>
    <path id="Path_137" data-name="Path 137" d="M518.8,319.8l44.8-7.1a3.05,3.05,0,0,1,3.5,3.4l-7.4,50.5a3.11,3.11,0,0,1-2.3,2.5l-43.9,10.7a3,3,0,0,1-3.7-3.2l4-51.5a5.75,5.75,0,0,1,5-5.3Z" fill="#22272e"/>
    <path id="Path_138" data-name="Path 138" d="M532.2,316.6l-.3,3.7c0,.5.5.9,1.2.8l17.8-3.2a1.5,1.5,0,0,0,1.4-1.3l.2-2.7a.89.89,0,0,0-1.1-.8l-17.7,2.2A1.72,1.72,0,0,0,532.2,316.6Z" fill="#6dafa7"/>
    <path id="Path_139" data-name="Path 139" d="M569.6,345.1s-6-1.4-7.4-1-6.3,1-9.9,1.8-10.1.5-12.5,1.4a2.32,2.32,0,0,0-1.5,3.1s-2.5-.5-3.3.8c-1.2,1.9,1.3,3.1,1.3,3.1-2-.6-3.7.7-2.8,2.6.7,1.4,4,3.5,6.9,4.9a88.711,88.711,0,0,0,8.5,3.2s-2.6-.3-5.7-.6c-2.9-.2-4.2,1.2-2.5,2.8s12.2,4.6,16.1,3.7,8.2-3.3,14-4.8c2.5-.6,9-.4,16.3-.2-.6-8.8-3.9-17.6-8.7-25.3C574.1,342.9,569.6,345.1,569.6,345.1Z" fill="#f4c2c9"/>
    <path id="Path_140" data-name="Path 140" d="M536.3,354.4s5.1,2.2,9.3,3.6,8.7,1.2,9.9,1.7" fill="none" stroke="#e26e85" stroke-linecap="round" stroke-linejoin="round" stroke-width="1.8"/>
    <path id="Path_141" data-name="Path 141" d="M548.9,365s3.8,1.4,5.9.7" fill="none" stroke="#e26e85" stroke-linecap="round" stroke-linejoin="round" stroke-width="1.8"/>
    <path id="Path_142" data-name="Path 142" d="M538.4,350.4a44.9,44.9,0,0,0,8.1,2.2c3.3.4,8.7.4,9.4.4" fill="none" stroke="#e26e85" stroke-linecap="round" stroke-linejoin="round" stroke-width="1.8"/>
    <circle id="Ellipse_9" data-name="Ellipse 9" cx="1.2" cy="1.2" r="1.2" transform="translate(517.6 295.8)" fill="#22272e"/>
    <path id="Path_143" data-name="Path 143" d="M514.4,291.8s-1.2,2.5-.4,13.5" fill="none" stroke="#22272e" stroke-linecap="round" stroke-linejoin="round" stroke-width="1.8"/>
    <path id="Path_144" data-name="Path 144" d="M285,410.3l-2.5,195.1a3.78,3.78,0,0,0,3.7,3.8h0a3.67,3.67,0,0,0,3.7-3.6l8.3-195.3Z" fill="#b0d7c0"/>
    <path id="Path_145" data-name="Path 145" d="M733.9,410.3l2.5,195.1a3.78,3.78,0,0,1-3.7,3.8h0a3.67,3.67,0,0,1-3.7-3.6l-8.3-195.3Z" fill="#b0d7c0"/>
    <path id="Path_146" data-name="Path 146" d="M298.3,410.3H285l-.2,14.9h12.9Z" fill="#6dafa7"/>
    <path id="Path_147" data-name="Path 147" d="M733.9,410.3H720.6l.6,14.9h12.9Z" fill="#6dafa7"/>
    <path id="Path_148" data-name="Path 148" d="M341.8,406.7l-1.9,145.7a2.73,2.73,0,0,0,2.8,2.8h0a2.84,2.84,0,0,0,2.8-2.7l6.2-145.9h-9.9Z" fill="#b0d7c0"/>
    <path id="Path_149" data-name="Path 149" d="M677,406.7l1.9,145.7a2.73,2.73,0,0,1-2.8,2.8h0a2.84,2.84,0,0,1-2.8-2.7l-6.2-145.9H677Z" fill="#b0d7c0"/>
    <path id="Path_150" data-name="Path 150" d="M761.7,406.3H257.2l61-37.1H700.7Z" fill="#fff"/>
    <rect id="Rectangle_14" data-name="Rectangle 14" width="504.5" height="8" transform="translate(257.2 406.3)" fill="#b0d7c0"/>
    <path id="Path_151" data-name="Path 151" d="M378.6,371.7l31,21.5,6.6.1,42.3-18.9Z" fill="#63737a"/>
    <path id="Path_152" data-name="Path 152" d="M416.2,393.3l4,.1a12.86,12.86,0,0,0,5.8-1.2l30.5-14.5a3.38,3.38,0,0,0,2-3.3h-.1Z" fill="#22272e"/>
    <path id="Path_153" data-name="Path 153" d="M313,389.4l105.5,4.1a4.57,4.57,0,0,0,4.6-5.6L408,326a8.34,8.34,0,0,0-7.9-6.3L295,318.1a3.37,3.37,0,0,0-3.3,4.2l17,63.6a4.55,4.55,0,0,0,4.3,3.5Z" fill="#22272e"/>
    <ellipse id="Ellipse_10" data-name="Ellipse 10" cx="6.3" cy="7.5" rx="6.3" ry="7.5" transform="matrix(0.612, -0.79, 0.79, 0.612, 342.833, 356.09)" fill="#63737a"/>
    <path id="Path_162" data-name="Path 162" d="M474.8,203.8s-4.4,4.8-10.3,0,1.7-14,4.1-11.5-10.5,7.4-10.9,1.1,6.8-6.7-3.3-14.6" fill="none" stroke="#6dafa7" stroke-linecap="round" stroke-linejoin="round" stroke-width="1.8"/>
    <path id="Path_163" data-name="Path 163" d="M508.1,194s6.7-2.4,4.3-7.8-8.6,0-4.3,0,7.4-4.6,4.8-10.9" fill="none" stroke="#6dafa7" stroke-linecap="round" stroke-linejoin="round" stroke-width="1.8"/>
    <path id="Path_164" data-name="Path 164" d="M552.5,204.3s8.3,3,6.1-2.8-2-7.8,3.1-5.5,5.4-2.5,7.2-3.6" fill="none" stroke="#6dafa7" stroke-linecap="round" stroke-linejoin="round" stroke-width="1.8"/>
    <path id="Path_172" data-name="Path 172" d="M587,380.8a14.92,14.92,0,0,1-9.4,5.7,9.848,9.848,0,0,1-1.7.2c-9.2.7-15.9-5.9-15.9-5.9Z" fill="#6dafa7"/>
    <path id="Path_173" data-name="Path 173" d="M634.5,375.1s-3,9.8-12.6,11.5a17.36,17.36,0,0,1-4.5.2H575.9a9.855,9.855,0,0,0,1.7-.2,15.81,15.81,0,0,0,9.4-5.7,20.188,20.188,0,0,0,3.2-5.7h44.3Z" fill="#22272e"/>
    <path id="Path_183" data-name="Path 183" d="M670.8,319.9s.1-9.5-2.4-15c0,0-27,4.9-32,7.8,0,0,4.5,4.5,5.9,10S670.6,329.2,670.8,319.9Z" fill="#fff"/>
    <path id="Path_184" data-name="Path 184" d="M671.6,326.8s1.7-17.3,2.5-20.9c0,0-21.9,1.8-30.1,6.5l2.2,18.3Z" fill="#f4c2c9"/>
    <path id="Path_185" data-name="Path 185" d="M695.9,340.2s-.1-12.8,3.4-18.9c0,0-20.6.4-25.2,3.1s-4,15.7-4,15.7S695,341.6,695.9,340.2Z" fill="#fff"/>
    <rect id="Rectangle_17" data-name="Rectangle 17" width="22.7" height="62.5" transform="translate(676.6 334.6)" fill="#6dafa7"/>
    <circle id="Ellipse_15" data-name="Ellipse 15" cx="4.4" cy="4.4" r="4.4" transform="translate(683.6 379.7)" fill="none" stroke="#22272e" stroke-linecap="round" stroke-linejoin="round" stroke-width="1.8"/>
    <path id="Path_186" data-name="Path 186" d="M653.9,397.2V319.9l-13.6,3.3v65.9Z" fill="#6dafa7"/>
    <rect id="Rectangle_18" data-name="Rectangle 18" width="22.7" height="77.3" transform="translate(653.9 319.9)" fill="#ffb48b"/>
    <circle id="Ellipse_16" data-name="Ellipse 16" cx="4.4" cy="4.4" r="4.4" transform="translate(660.8 379.7)" fill="none" stroke="#22272e" stroke-linecap="round" stroke-linejoin="round" stroke-width="1.8"/>
    <line id="Line_38" data-name="Line 38" x2="11.1" transform="translate(659.7 367.2)" fill="none" stroke="#22272e" stroke-linecap="round" stroke-linejoin="round" stroke-width="1.8"/>
    <line id="Line_39" data-name="Line 39" x2="11.1" transform="translate(659.7 371.6)" fill="none" stroke="#22272e" stroke-linecap="round" stroke-linejoin="round" stroke-width="1.8"/>
  </g>
</svg>
