<svg xmlns="http://www.w3.org/2000/svg" xmlns:xlink="http://www.w3.org/1999/xlink" width="332.704" height="321.606" viewBox="0 0 332.704 321.606">
  <defs>
    <clipPath id="clip-path">
      <rect id="Rectangle_23" data-name="Rectangle 23" width="53.601" height="53.601" transform="translate(83.14 234.096)"/>
    </clipPath>
  </defs>
  <g id="geo-pattern-left" transform="translate(-18.435 -19.692)">
    <rect id="Rectangle_2" data-name="Rectangle 2" width="53.597" height="53.607" transform="translate(29.537 73.289)" fill="#ce775c"/>
    <rect id="Rectangle_3" data-name="Rectangle 3" width="53.601" height="53.601" transform="translate(83.138 126.894)" fill="#3b616a"/>
    <rect id="Rectangle_4" data-name="Rectangle 4" width="53.601" height="53.601" transform="translate(29.538 126.894)" fill="#89b09e"/>
    <rect id="Rectangle_5" data-name="Rectangle 5" width="53.6" height="53.6" transform="translate(136.737 19.692)" fill="#89b09e"/>
    <rect id="Rectangle_6" data-name="Rectangle 6" width="53.601" height="53.601" transform="translate(243.939 73.291)" fill="#f7f4e8"/>
    <rect id="Rectangle_7" data-name="Rectangle 7" width="53.601" height="53.601" transform="translate(190.339 126.894)" fill="#ce775c"/>
    <rect id="Rectangle_8" data-name="Rectangle 8" width="53.601" height="53.601" transform="translate(190.34 73.291)" fill="#89b09e"/>
    <rect id="Rectangle_9" data-name="Rectangle 9" width="53.601" height="53.601" transform="translate(29.538 180.495)" fill="#ce775c"/>
    <path id="Path_2" data-name="Path 2" d="M136.737,180.492v53.6h53.6v-53.6Zm26.805,38.781A11.366,11.366,0,1,1,174.9,207.912,11.373,11.373,0,0,1,163.542,219.273Z" fill="#ce775c"/>
    <path id="Path_3" data-name="Path 3" d="M297.54,126.894h0v-53.6h-53.6A53.6,53.6,0,0,0,297.54,126.894Z" fill="#3b616a"/>
    <rect id="Rectangle_10" data-name="Rectangle 10" width="53.601" height="53.601" transform="translate(136.74 126.894)" fill="#89b09e"/>
    <rect id="Rectangle_11" data-name="Rectangle 11" width="53.601" height="53.601" transform="translate(243.94 19.692)" fill="#f7f4e8"/>
    <path id="Path_4" data-name="Path 4" d="M56.345,73.188l.046.1h-.1Z" fill="#ce775c"/>
    <path id="Path_5" data-name="Path 5" d="M83.144,19.692l-26.8,53.5-26.808-53.5Z" fill="#ce775c"/>
    <rect id="Rectangle_12" data-name="Rectangle 12" width="53.601" height="53.601" transform="translate(29.538 287.697)" fill="#ce775c"/>
    <circle id="Ellipse_1" data-name="Ellipse 1" cx="26.802" cy="26.802" r="26.802" transform="translate(18.435 100.092) rotate(-45)" fill="#3b616a"/>
    <path id="Path_6" data-name="Path 6" d="M136.737,46.495a26.8,26.8,0,1,0-26.795,26.8A26.8,26.8,0,0,0,136.737,46.495Zm-15.433,0a11.366,11.366,0,1,1-11.362-11.369A11.367,11.367,0,0,1,121.3,46.495Z" fill="#3b616a"/>
    <path id="Path_7" data-name="Path 7" d="M163.542,181.107a26.8,26.8,0,0,0-5.705,52.985,26.768,26.768,0,0,0,11.41,0,26.8,26.8,0,0,0-5.705-52.985Zm0,38.166A11.366,11.366,0,1,1,174.9,207.912,11.373,11.373,0,0,1,163.542,219.273Z" fill="#3b616a"/>
    <path id="Path_8" data-name="Path 8" d="M324.344,19.692a26.8,26.8,0,0,0-5.7,52.985,26.726,26.726,0,0,0,11.41,0,26.8,26.8,0,0,0-5.7-52.985Zm0,38.166A11.366,11.366,0,1,1,335.7,46.5,11.373,11.373,0,0,1,324.344,57.858Z" fill="#3b616a"/>
    <path id="Path_9" data-name="Path 9" d="M136.741,73.289V126.9L83.135,73.289Z" fill="#89b09e"/>
    <path id="Path_10" data-name="Path 10" d="M56.339,126.894V73.29a26.8,26.8,0,1,0,0,53.6Z" fill="#f7f4e8"/>
    <g id="Group_8" data-name="Group 8">
      <g id="Group_4" data-name="Group 4">
        <g id="Group_3" data-name="Group 3">
          <path id="Path_11" data-name="Path 11" d="M190.55,73.5a26.138,26.138,0,0,1,10.5,2.913,31.218,31.218,0,0,1,7.761,5.623,30.585,30.585,0,0,1,5.7,7.661,25.2,25.2,0,0,1,2.932,10.4,25.935,25.935,0,0,1-10.516-2.9A31.589,31.589,0,0,1,193.5,83.884,25.392,25.392,0,0,1,190.55,73.5Z" fill="#f7f4e8"/>
          <path id="Path_12" data-name="Path 12" d="M243.939,73.5a25.4,25.4,0,0,1-2.946,10.384,31.589,31.589,0,0,1-13.434,13.311,25.919,25.919,0,0,1-10.516,2.9,25.211,25.211,0,0,1,2.932-10.4,30.581,30.581,0,0,1,5.7-7.661,31.236,31.236,0,0,1,7.761-5.623A26.175,26.175,0,0,1,243.939,73.5Z" fill="#f7f4e8"/>
        </g>
      </g>
      <g id="Group_7" data-name="Group 7">
        <g id="Group_5" data-name="Group 5">
          <path id="Path_13" data-name="Path 13" d="M190.55,126.688A25.4,25.4,0,0,1,193.5,116.3a31.589,31.589,0,0,1,13.434-13.311,25.919,25.919,0,0,1,10.516-2.9,25.211,25.211,0,0,1-2.932,10.4,30.561,30.561,0,0,1-5.7,7.661,31.236,31.236,0,0,1-7.761,5.623A26.154,26.154,0,0,1,190.55,126.688Z" fill="#f7f4e8"/>
          <path id="Path_14" data-name="Path 14" d="M243.939,126.688a26.138,26.138,0,0,1-10.5-2.913,31.218,31.218,0,0,1-7.761-5.623,30.557,30.557,0,0,1-5.7-7.661,25.2,25.2,0,0,1-2.932-10.4,25.935,25.935,0,0,1,10.516,2.9A31.589,31.589,0,0,1,240.994,116.3,25.438,25.438,0,0,1,243.939,126.688Z" fill="#f7f4e8"/>
        </g>
        <g id="Group_6" data-name="Group 6">
          <path id="Path_15" data-name="Path 15" d="M190.55,126.893a25.659,25.659,0,0,1,3-10.436,32.052,32.052,0,0,1,13.537-13.414,26.2,26.2,0,0,1,10.568-2.951,25.46,25.46,0,0,1-2.984,10.449,31.037,31.037,0,0,1-5.752,7.712,31.681,31.681,0,0,1-7.813,5.674A26.4,26.4,0,0,1,190.55,126.893Z" fill="#f7f4e8"/>
        </g>
      </g>
    </g>
    <g id="Group_17" data-name="Group 17">
      <g id="Group_11" data-name="Group 11">
        <g id="Group_10" data-name="Group 10">
          <g id="Group_9" data-name="Group 9">
            <path id="Path_16" data-name="Path 16" d="M83.244,180.495a26.134,26.134,0,0,1,10.5,2.913,31.236,31.236,0,0,1,7.761,5.623,30.585,30.585,0,0,1,5.7,7.661,25.2,25.2,0,0,1,2.932,10.4,25.935,25.935,0,0,1-10.516-2.9A31.589,31.589,0,0,1,86.19,190.88,25.432,25.432,0,0,1,83.244,180.495Z" fill="#89b09e"/>
            <path id="Path_17" data-name="Path 17" d="M136.633,180.495a25.418,25.418,0,0,1-2.946,10.384,31.584,31.584,0,0,1-13.435,13.311,25.919,25.919,0,0,1-10.516,2.9,25.211,25.211,0,0,1,2.932-10.4,30.581,30.581,0,0,1,5.7-7.661,31.236,31.236,0,0,1,7.761-5.623A26.173,26.173,0,0,1,136.633,180.495Z" fill="#89b09e"/>
          </g>
        </g>
      </g>
      <g id="Group_16" data-name="Group 16">
        <g id="Group_13" data-name="Group 13">
          <g id="Group_12" data-name="Group 12">
            <path id="Path_18" data-name="Path 18" d="M83.244,233.683A25.414,25.414,0,0,1,86.19,223.3a31.589,31.589,0,0,1,13.434-13.311,25.935,25.935,0,0,1,10.516-2.9,25.2,25.2,0,0,1-2.932,10.4,30.561,30.561,0,0,1-5.7,7.661,31.236,31.236,0,0,1-7.761,5.623A26.15,26.15,0,0,1,83.244,233.683Z" fill="#89b09e"/>
            <path id="Path_19" data-name="Path 19" d="M136.633,233.683a26.133,26.133,0,0,1-10.5-2.913,31.236,31.236,0,0,1-7.761-5.623,30.557,30.557,0,0,1-5.7-7.661,25.2,25.2,0,0,1-2.932-10.4,25.935,25.935,0,0,1,10.516,2.9A31.584,31.584,0,0,1,133.689,223.3,25.432,25.432,0,0,1,136.633,233.683Z" fill="#89b09e"/>
          </g>
        </g>
        <g id="Group_15" data-name="Group 15">
          <g id="Group_14" data-name="Group 14">
            <path id="Path_20" data-name="Path 20" d="M83.244,233.888a25.664,25.664,0,0,1,3-10.436,32.052,32.052,0,0,1,13.537-13.414,26.185,26.185,0,0,1,10.567-2.951,25.46,25.46,0,0,1-2.984,10.449,31.037,31.037,0,0,1-5.752,7.712,31.68,31.68,0,0,1-7.813,5.674A26.366,26.366,0,0,1,83.244,233.888Z" fill="#3b616a"/>
          </g>
        </g>
      </g>
    </g>
    <g id="Group_23" data-name="Group 23">
      <g id="Group_19" data-name="Group 19">
        <g id="Group_18" data-name="Group 18">
          <path id="Path_21" data-name="Path 21" d="M29.537,126.894a26.035,26.035,0,0,1,10.544,2.958,31.393,31.393,0,0,1,7.792,5.709,31,31,0,0,1,5.723,7.778A25.815,25.815,0,0,1,56.54,153.9a25.8,25.8,0,0,1-10.558-2.944A31,31,0,0,1,38.2,145.23a31.393,31.393,0,0,1-5.709-7.792A26.035,26.035,0,0,1,29.537,126.894Z" fill="#3b616a"/>
          <path id="Path_22" data-name="Path 22" d="M83.139,126.894a26.035,26.035,0,0,1-2.958,10.544,31.393,31.393,0,0,1-5.709,7.792,31,31,0,0,1-7.778,5.723A25.815,25.815,0,0,1,56.137,153.9a25.8,25.8,0,0,1,2.944-10.558,30.978,30.978,0,0,1,5.723-7.778,31.393,31.393,0,0,1,7.792-5.709A25.99,25.99,0,0,1,83.139,126.894Z" fill="#f7f4e8"/>
        </g>
      </g>
      <g id="Group_22" data-name="Group 22">
        <g id="Group_20" data-name="Group 20">
          <path id="Path_23" data-name="Path 23" d="M29.537,180.9a26.02,26.02,0,0,1,2.958-10.544,31.393,31.393,0,0,1,5.709-7.792,31,31,0,0,1,7.778-5.723,25.815,25.815,0,0,1,10.558-2.944A25.82,25.82,0,0,1,53.6,164.453a31,31,0,0,1-5.723,7.778,31.393,31.393,0,0,1-7.792,5.709A26,26,0,0,1,29.537,180.9Z" fill="#f7f4e8"/>
          <path id="Path_24" data-name="Path 24" d="M83.139,180.9A26.036,26.036,0,0,1,72.6,177.94a31.393,31.393,0,0,1-7.792-5.709,31,31,0,0,1-5.723-7.778A25.8,25.8,0,0,1,56.136,153.9a25.8,25.8,0,0,1,10.557,2.944,31,31,0,0,1,7.778,5.723,31.368,31.368,0,0,1,5.709,7.792A26.02,26.02,0,0,1,83.139,180.9Z" fill="#f7f4e8"/>
        </g>
        <g id="Group_21" data-name="Group 21">
          <path id="Path_25" data-name="Path 25" d="M29.537,181.106a26.277,26.277,0,0,1,3.01-10.6,31.859,31.859,0,0,1,5.761-7.844,31.481,31.481,0,0,1,7.83-5.775,26.07,26.07,0,0,1,10.61-3,26.075,26.075,0,0,1-3,10.61,31.481,31.481,0,0,1-5.775,7.83,31.834,31.834,0,0,1-7.844,5.761A26.273,26.273,0,0,1,29.537,181.106Z" fill="#f7f4e8"/>
        </g>
      </g>
    </g>
    <g id="Group_25" data-name="Group 25">
      <g id="Group_24" data-name="Group 24">
        <rect id="Rectangle_13" data-name="Rectangle 13" width="53.6" height="8.822" transform="translate(136.737 73.291)" fill="#3b616a"/>
        <rect id="Rectangle_14" data-name="Rectangle 14" width="53.6" height="8.822" transform="translate(136.737 88.218)" fill="#3b616a"/>
        <rect id="Rectangle_15" data-name="Rectangle 15" width="53.6" height="8.822" transform="translate(136.737 103.145)" fill="#3b616a"/>
        <rect id="Rectangle_16" data-name="Rectangle 16" width="53.6" height="8.822" transform="translate(136.737 118.072)" fill="#3b616a"/>
      </g>
    </g>
    <path id="Path_26" data-name="Path 26" d="M29.538,287.7l53.6-53.6v53.6Z" fill="#f7f4e8"/>
    <g id="Group_26" data-name="Group 26">
      <path id="Path_27" data-name="Path 27" d="M56.345,73.188l-.055.1H29.537v-53.6Z" fill="#f7f4e8"/>
      <path id="Path_28" data-name="Path 28" d="M56.391,73.289h-.1l.055-.1Z" fill="#f7f4e8"/>
      <path id="Path_29" data-name="Path 29" d="M83.144,19.692v53.6H56.391l-.046-.1Z" fill="#f7f4e8"/>
      <path id="Path_30" data-name="Path 30" d="M56.391,73.289h-.1l.055-.1Z" fill="#f7f4e8"/>
    </g>
    <g id="Group_28" data-name="Group 28">
      <g id="Group_27" data-name="Group 27">
        <path id="Path_31" data-name="Path 31" d="M297.49,73.29l-26.8-53.6h26.8Z" fill="#89b09e"/>
        <path id="Path_32" data-name="Path 32" d="M243.991,73.29l26.8-53.6h-26.8Z" fill="#89b09e"/>
      </g>
    </g>
    <g id="Group_31" data-name="Group 31">
      <g id="Group_30" data-name="Group 30" clip-path="url(#clip-path)">
        <g id="Group_29" data-name="Group 29">
          <rect id="Rectangle_17" data-name="Rectangle 17" width="8.822" height="102.279" transform="translate(74.241 225.409) rotate(-45)" fill="#3b616a"/>
          <rect id="Rectangle_18" data-name="Rectangle 18" width="8.822" height="102.279" transform="translate(85.649 214.001) rotate(-45)" fill="#3b616a"/>
          <rect id="Rectangle_19" data-name="Rectangle 19" width="8.822" height="102.279" transform="translate(97.973 203.325) rotate(-45)" fill="#3b616a"/>
          <rect id="Rectangle_20" data-name="Rectangle 20" width="8.822" height="102.279" transform="translate(63.686 235.964) rotate(-45)" fill="#3b616a"/>
          <rect id="Rectangle_21" data-name="Rectangle 21" width="8.822" height="102.279" transform="translate(53.131 246.519) rotate(-45)" fill="#3b616a"/>
          <rect id="Rectangle_22" data-name="Rectangle 22" width="8.822" height="102.279" transform="translate(42.576 257.074) rotate(-45)" fill="#3b616a"/>
        </g>
      </g>
    </g>
    <g id="Group_33" data-name="Group 33">
      <g id="Group_32" data-name="Group 32">
        <path id="Path_33" data-name="Path 33" d="M243.867,153.886a28.735,28.735,0,0,0-26.556,26.535.077.077,0,0,1-.153,0,28.715,28.715,0,0,0-26.535-26.535.077.077,0,0,1,0-.153,28.733,28.733,0,0,0,26.535-26.556.077.077,0,0,1,.153,0,28.755,28.755,0,0,0,26.556,26.556A.077.077,0,0,1,243.867,153.886Z" fill="#3b616a"/>
      </g>
    </g>
    <g id="Group_34" data-name="Group 34">
      <path id="Path_34" data-name="Path 34" d="M82.961,314.585A28.735,28.735,0,0,0,56.4,341.12a.077.077,0,0,1-.153,0,28.715,28.715,0,0,0-26.535-26.535.077.077,0,0,1,0-.153,28.734,28.734,0,0,0,26.535-26.556.077.077,0,0,1,.153,0,28.755,28.755,0,0,0,26.556,26.556A.077.077,0,0,1,82.961,314.585Z" fill="#f7f4e8"/>
    </g>
    <g id="Group_35" data-name="Group 35">
      <path id="Path_35" data-name="Path 35" d="M136.74,180.495l26.8-26.8,26.8,26.8Z" fill="#f7f4e8"/>
      <path id="Path_36" data-name="Path 36" d="M136.74,127h53.6l-26.8,26.8Z" fill="#f7f4e8"/>
    </g>
    <g id="Group_39" data-name="Group 39">
      <g id="Group_38" data-name="Group 38">
        <g id="Group_36" data-name="Group 36">
          <path id="Path_37" data-name="Path 37" d="M29.538,287.647l26.8-26.8,26.8,26.8Z" fill="#89b09e"/>
        </g>
        <g id="Group_37" data-name="Group 37">
          <path id="Path_38" data-name="Path 38" d="M29.538,234.147h53.6l-26.8,26.8Z" fill="#89b09e"/>
        </g>
      </g>
    </g>
    <rect id="Rectangle_24" data-name="Rectangle 24" width="32.878" height="32.878" transform="translate(56.34 184.045) rotate(45)" fill="#3b616a"/>
    <rect id="Rectangle_25" data-name="Rectangle 25" width="36.751" height="36.751" transform="translate(217.138 20.504) rotate(45)" fill="#3b616a"/>
    <rect id="Rectangle_26" data-name="Rectangle 26" width="25.264" height="25.264" transform="translate(204.507 33.86)" fill="#f7f4e8"/>
    <circle id="Ellipse_2" data-name="Ellipse 2" cx="13.806" cy="13.806" r="13.806" transform="translate(93.228 163.992) rotate(-76.119)" fill="#89b09e"/>
  </g>
</svg>
