<?xml version="1.0" encoding="UTF-8"?>
<svg xmlns="http://www.w3.org/2000/svg" xmlns:xlink="http://www.w3.org/1999/xlink" viewBox="0 0 2.1 4.16">
  <defs>
    <style>
      .cls-1 {
        fill: url(#radial-gradient-16);
      }

      .cls-1, .cls-2, .cls-3, .cls-4, .cls-5, .cls-6, .cls-7, .cls-8, .cls-9, .cls-10, .cls-11, .cls-12, .cls-13, .cls-14, .cls-15, .cls-16, .cls-17, .cls-18, .cls-19, .cls-20, .cls-21, .cls-22, .cls-23 {
        stroke-width: 0px;
      }

      .cls-2 {
        fill: url(#linear-gradient);
      }

      .cls-3 {
        fill: url(#radial-gradient-8);
      }

      .cls-24 {
        isolation: isolate;
      }

      .cls-5 {
        fill: url(#radial-gradient-13);
      }

      .cls-6 {
        fill: url(#radial-gradient-12);
      }

      .cls-25, .cls-26, .cls-14 {
        mix-blend-mode: soft-light;
      }

      .cls-26 {
        opacity: .5;
      }

      .cls-7 {
        fill: url(#radial-gradient-19);
      }

      .cls-8 {
        fill: url(#linear-gradient-2);
      }

      .cls-9 {
        fill: url(#radial-gradient-17);
      }

      .cls-10 {
        fill: url(#radial-gradient-2);
      }

      .cls-11 {
        fill: url(#radial-gradient-7);
      }

      .cls-12 {
        fill: url(#radial-gradient-5);
      }

      .cls-13 {
        fill: url(#radial-gradient);
      }

      .cls-15 {
        fill: url(#radial-gradient-14);
      }

      .cls-16 {
        fill: url(#radial-gradient-18);
      }

      .cls-17 {
        fill: url(#radial-gradient-10);
      }

      .cls-18 {
        fill: url(#radial-gradient-6);
      }

      .cls-19 {
        fill: url(#radial-gradient-15);
      }

      .cls-20 {
        fill: url(#radial-gradient-9);
      }

      .cls-21 {
        fill: url(#radial-gradient-3);
      }

      .cls-22 {
        fill: url(#radial-gradient-11);
      }

      .cls-23 {
        fill: url(#radial-gradient-4);
      }
    </style>
    <radialGradient id="radial-gradient" cx="-29.02" cy=".66" fx="-29.02" fy=".66" r="1.15" gradientTransform="translate(-27.97) rotate(-180) scale(1 -1)" gradientUnits="userSpaceOnUse">
      <stop offset=".15" stop-color="#ffdac4"/>
      <stop offset=".58" stop-color="#865d4a"/>
      <stop offset=".83" stop-color="#4c2f2b"/>
    </radialGradient>
    <radialGradient id="radial-gradient-2" cx="-29.02" cy="1.24" fx="-29.02" fy="1.24" r="1.46" xlink:href="#radial-gradient"/>
    <radialGradient id="radial-gradient-3" cx="-28.96" cy="1.79" fx="-28.96" fy="1.79" r="1.96" xlink:href="#radial-gradient"/>
    <linearGradient id="linear-gradient" x1="-29.09" y1="2.89" x2="-28.99" y2="4.36" gradientTransform="translate(-27.97) rotate(-180) scale(1 -1)" gradientUnits="userSpaceOnUse">
      <stop offset=".15" stop-color="#ffdac4"/>
      <stop offset=".58" stop-color="#865d4a"/>
      <stop offset=".83" stop-color="#4c2f2b"/>
    </linearGradient>
    <radialGradient id="radial-gradient-4" cx="-29.03" cy="1.18" fx="-29.03" fy="1.18" r=".92" gradientTransform="translate(-27.97) rotate(-180) scale(1 -1)" gradientUnits="userSpaceOnUse">
      <stop offset="0" stop-color="#633b2a"/>
      <stop offset=".83" stop-color="#2b1714"/>
    </radialGradient>
    <radialGradient id="radial-gradient-5" cx="-28.95" cy="1.84" fx="-28.95" fy="1.84" r="1.6" xlink:href="#radial-gradient"/>
    <radialGradient id="radial-gradient-6" cx="-28.98" cy="1.18" fx="-28.98" fy="1.18" r="2.08" xlink:href="#radial-gradient"/>
    <radialGradient id="radial-gradient-7" cx="-29.4" cy="1.27" fx="-29.4" fy="1.27" r=".34" gradientTransform="translate(-27.97) rotate(-180) scale(1 -1)" gradientUnits="userSpaceOnUse">
      <stop offset=".05" stop-color="#ffcc43"/>
      <stop offset=".49" stop-color="#ffa859"/>
      <stop offset=".97" stop-color="#f85320"/>
    </radialGradient>
    <radialGradient id="radial-gradient-8" cx="-28.59" cy="1.24" fx="-28.59" fy="1.24" r=".32" xlink:href="#radial-gradient-7"/>
    <radialGradient id="radial-gradient-9" cx="-29.12" cy="1.32" fx="-29.12" fy="1.32" r=".35" xlink:href="#radial-gradient-7"/>
    <radialGradient id="radial-gradient-10" cx="-28.88" cy="1.31" fx="-28.88" fy="1.31" r=".36" xlink:href="#radial-gradient-7"/>
    <radialGradient id="radial-gradient-11" cx="-29.03" cy=".4" fx="-29.03" fy=".4" r=".71" gradientTransform="translate(-27.97) rotate(-180) scale(1 -1)" gradientUnits="userSpaceOnUse">
      <stop offset=".21" stop-color="#ffdac4"/>
      <stop offset=".58" stop-color="#865d4a"/>
      <stop offset=".83" stop-color="#4c2f2b"/>
    </radialGradient>
    <radialGradient id="radial-gradient-12" cx="-29.04" cy=".5" fx="-29.04" fy=".5" r=".15" xlink:href="#radial-gradient-11"/>
    <radialGradient id="radial-gradient-13" cx="-29.04" cy=".17" fx="-29.04" fy=".17" r=".34" xlink:href="#radial-gradient-11"/>
    <radialGradient id="radial-gradient-14" cx="-29.03" cy=".34" fx="-29.03" fy=".34" r=".24" xlink:href="#radial-gradient-11"/>
    <linearGradient id="linear-gradient-2" x1="-29.03" y1="3.44" x2="-29.11" y2="4.77" xlink:href="#linear-gradient"/>
    <radialGradient id="radial-gradient-15" cx="-28.82" cy="2.73" fx="-28.82" fy="2.73" r="1.25" xlink:href="#radial-gradient-7"/>
    <radialGradient id="radial-gradient-16" cx="-29.2" cy="2.75" fx="-29.2" fy="2.75" r="1.34" xlink:href="#radial-gradient"/>
    <radialGradient id="radial-gradient-17" cx="-28.92" cy="3.96" fx="-28.92" fy="3.96" r="1.67" xlink:href="#radial-gradient-7"/>
    <radialGradient id="radial-gradient-18" cx="-28.43" cy="3.83" fx="-28.43" fy="3.83" r="1.63" xlink:href="#radial-gradient-7"/>
    <radialGradient id="radial-gradient-19" cx="-29.51" cy="3.81" fx="-29.51" fy="3.81" r="1.47" xlink:href="#radial-gradient-7"/>
  </defs>
  <g class="cls-24">
    <g id="Layer_2" data-name="Layer 2">
      <g id="Layer_1-2" data-name="Layer 1">
        <g>
          <path class="cls-13" d="m1.48.91s.21.23.23.62l-.38.16h-.61l-.33-.19s0-.34.22-.63c0,0,.45-.33.86.04Z"/>
          <g>
            <polygon class="cls-10" points="1.71 1.53 2.1 1.96 1.52 2.28 .56 2.26 0 1.96 .4 1.5 .73 1.69 1.34 1.69 1.71 1.53"/>
            <path class="cls-4" d="m.56,2.26L0,1.96H0s.4-.46.4-.46h0s.33.19.33.19h.61l.38-.16h0s.39.43.39.43l-.58.33h0s-.96-.02-.96-.02Zm1.16-.73l-.38.16h-.61s-.33-.19-.33-.19L0,1.96l.55.3.96.02.58-.32-.38-.42Z"/>
          </g>
          <polygon class="cls-21" points=".16 2.59 .37 3.46 .37 3.46 .36 3.69 .2 3.86 .2 3.97 .58 4.14 1.52 4.16 1.97 3.99 1.97 3.88 1.77 3.71 1.77 3.49 1.79 3.37 1.86 3.07 1.97 2.56 2.09 2.02 2.09 2 1.5 2.31 .55 2.28 .02 2 .16 2.59"/>
          <g>
            <polygon class="cls-2" points="1.77 3.53 1.39 3.63 .7 3.62 .37 3.46 .36 3.69 .69 3.85 1.38 3.86 1.77 3.71 1.77 3.53"/>
            <path class="cls-4" d="m.69,3.85h0s-.33-.16-.33-.16h0s0-.23,0-.23l.33.15h.69s.38-.09.38-.09v.19s-.39.15-.39.15h0s-.7,0-.7,0Zm1.08-.32l-.38.1h0s-.69-.01-.69-.01l-.33-.15v.22s.32.16.32.16h.69s.39-.14.39-.14v-.18Z"/>
          </g>
          <g>
            <polygon class="cls-23" points="1.79 1.62 1.35 1.79 .72 1.79 .33 1.59 .4 1.5 .73 1.69 1.34 1.69 1.71 1.53 1.79 1.62"/>
            <path class="cls-4" d="m.32,1.59l.08-.09.33.19h.61l.38-.16h0s.08.09.08.09l-.45.18h-.63s-.39-.21-.39-.21Zm1.46.03l-.08-.08-.38.16h-.61s-.33-.19-.33-.19l-.07.08.39.2h.63l.44-.18Z"/>
          </g>
          <g>
            <polygon class="cls-12" points="2.1 1.96 2.09 2.02 1.52 2.34 .56 2.31 .03 2.03 0 1.96 .56 2.26 1.52 2.28 2.1 1.96"/>
            <path class="cls-18" d="m.56,2.31h0S.03,2.03.03,2.03h0s-.03-.08-.03-.08l.56.3.96.02.59-.33v.07s0,0,0,0l-.57.32h0s-.96-.03-.96-.03Zm1.54-.35l-.58.32h0s-.96-.02-.96-.02L0,1.96l.02.07.53.28.96.03.57-.32v-.06Z"/>
          </g>
          <g class="cls-25">
            <path class="cls-4" d="m.85.99s-.03.05-.04.08c-.01.03-.02.06-.03.09-.02.06-.03.12-.04.18,0,.06-.02.12-.02.18,0,.06,0,.12-.01.18h0s-.01.1-.01.1h0s-.08.23-.08.23l-.08.23h0s0,.05,0,.05h0s.04.33.04.33l.04.33.04.33.04.33h0s-.01.23-.01.23h0s-.1.19-.1.19h0s0,.1,0,.1v-.1s0,0,0,0l.1-.19h0s.01-.24.01-.24h0s0,0,0,0l-.03-.33-.04-.33-.04-.33-.04-.33h0s0-.05,0-.05h0s.08-.23.08-.23l.08-.23h0s.01-.1.01-.1h0c0-.06,0-.12,0-.18,0-.06.01-.12.02-.18,0-.06.02-.12.03-.18,0-.03.02-.06.03-.09,0-.03.02-.06.04-.08Z"/>
          </g>
          <g class="cls-25">
            <path class="cls-14" d="m1.23,1.02s.03.05.04.08c0,.03.02.05.02.08.01.06.02.11.03.17,0,.06.01.11.01.17,0,.06,0,.11,0,.17h0s.01.1.01.1h0s0,0,0,0l.04.12.04.12.08.24h0s0,.05,0,.05h0s-.03.32-.03.32l-.03.32-.03.32-.03.32h0s0,.23,0,.23h0s0,0,0,0l.14.2h0s0,.1,0,.1v-.1s0,0,0,0h0s-.13-.2-.13-.2h0s0-.23,0-.23h0s.03-.32.03-.32l.03-.32.03-.32.03-.32h0s0-.06,0-.06h0s0,0,0,0l-.08-.24-.04-.12-.04-.12h0s-.01-.1-.01-.1h0c0-.06,0-.11,0-.17,0-.06,0-.11-.01-.17,0-.06-.02-.11-.03-.17,0-.03-.01-.06-.02-.08-.01-.03-.02-.05-.04-.08Z"/>
          </g>
          <polygon class="cls-11" points="1.48 1.36 1.62 1.5 1.43 1.56 1.48 1.36"/>
          <polygon class="cls-3" points=".6 1.36 .45 1.49 .64 1.55 .6 1.36"/>
          <polygon class="cls-20" points="1.17 1.44 1.27 1.61 1.07 1.61 1.17 1.44"/>
          <polygon class="cls-17" points=".92 1.44 1.02 1.61 .82 1.61 .92 1.44"/>
          <path class="cls-22" d="m1.06.55s.17-.03.3.18c0,.01.02.03.02.04.02.03.07.12.12.14,0,0-.11.03-.21-.05,0,0,.03.09-.08.16,0,0-.16-.03-.16-.16,0,0,0,.11-.21.13,0,0-.05-.1-.01-.19,0,0-.1.16-.27.05,0,0,.1-.03.17-.13.02-.03.04-.05.06-.07.05-.05.14-.11.25-.09"/>
          <g class="cls-25">
            <path class="cls-4" d="m1.31.86s-.01-.03-.02-.04c0-.01-.01-.03-.02-.04-.02-.03-.03-.05-.05-.08s-.04-.05-.06-.07c-.02-.02-.05-.04-.07-.06h0s0,0,0,0c-.01,0-.03.01-.04.02-.01,0-.02.01-.04.02-.01,0-.02.02-.03.03-.01,0-.02.02-.03.03-.02.02-.04.04-.05.07-.02.02-.03.05-.04.08.01-.03.03-.05.05-.07,0-.01.02-.02.03-.03,0-.01.02-.02.03-.03.02-.02.04-.04.06-.06.01,0,.02-.02.04-.02.01,0,.03-.01.04-.02h0s.05.04.07.06c.02.02.04.04.06.07.02.02.04.05.05.08.02.03.03.05.04.08Z"/>
            <path class="cls-4" d="m1.06.87s0-.02,0-.04c0,0,0-.01,0-.02,0,0,0-.01,0-.02,0-.01,0-.02,0-.04v-.02s0-.02,0-.02c0,0,0-.01,0-.02,0,0,0-.01,0-.02v-.02s0-.01,0-.02c0-.02,0-.05.01-.07-.01.02-.02.05-.02.07,0,.02,0,.05,0,.08,0,.03,0,.05,0,.08,0,.02,0,.05.01.07Z"/>
          </g>
          <rect class="cls-6" x=".97" y=".48" width=".19" height=".12" rx=".04" ry=".04"/>
          <path class="cls-5" d="m.88.18c0,.1.08.18.18.18s.18-.08.18-.18-.08-.18-.18-.18-.18.08-.18.18Zm.05,0c0-.08.06-.14.14-.14s.14.06.14.14-.06.14-.14.14-.14-.06-.14-.14Z"/>
          <circle class="cls-15" cx="1.06" cy=".41" r=".14"/>
          <g class="cls-26">
            <path class="cls-4" d="m1.06.27s0,0,0,0h0s0,0,0,0h0s0,.02,0,.03h0s0,.02,0,.02c0,0,0,.01,0,.02,0,.02,0,.05,0,.07,0,.02,0,.05,0,.07v.02s0,.02,0,.02c0,0,0,.01,0,.02h0s0,.01,0,.01h0s0,0,0,0c0,0,0,0,0,0,0,0,0,0,0,0,0,0,0,0,0,0,0,0,0,0,0,0h0s0,0,0,0v-.02s0,0,0,0c0,0,0,0,0,0v-.02s0-.01,0-.02h0s0-.01,0-.02c0,0,0-.01,0-.02,0-.01,0-.02,0-.04,0-.05,0-.1-.02-.14,0,0,0,0,0,0Zm.01.03s0,.02,0,.04c0,.02,0,.05,0,.07,0,.05,0,.1-.03.14h0s0,0,0,0h0s0,0,0,0c0,0,0,0,0,0,0,0,0,0,0,0,0,0,0,0,0,0h0s0,0,0,0h0s0-.02,0-.03c0-.01,0-.02,0-.04,0-.02,0-.05,0-.07s0-.05,0-.07c0,0,0-.01,0-.02h0s0-.02,0-.02c0,0,0-.01,0-.02h0s0-.01,0-.01h0s0,0,0,0c0,0,0,0,0,0,0,.01,0,.02.01.03Z"/>
            <path class="cls-4" d="m1.09.28s.01,0,.02.01c0,0,.01,0,.02.01,0,0,.01.01.02.02,0,0,0,.01.01.02,0,0,0,0,0,0h0s.01.04.01.05c0,.01,0,.03,0,.04,0,.01-.01.03-.02.04,0,.01-.02.02-.03.03-.01,0-.02.02-.03.03,0,0,0,0,0,0,0,0,0,0,0,0h0s0,0,0,0h0s0,0,0,0h0s0,0,0,0c0,0,0,0,0,0,0,0,0,0,0,0,0,0,0,0,0,0,0,0,0,0,0,0h0s0,0,0,0h0s0,0,0,0h0s0-.02.01-.03h0s0-.01,0-.02h0s0-.02,0-.02c0,0,0-.01,0-.02,0-.01,0-.03.01-.04,0-.03,0-.06-.01-.08-.01-.03-.03-.05-.05-.07,0,0,.01,0,.02.01Zm.04.06s.02.06.01.09c0,.01,0,.03-.01.04,0,0,0,.01,0,.02,0,0,0,0,0,0h0s0,.02,0,.02h0s0,.02-.01.03h0s0,.01,0,.01h0s0,0,0,0h0s0,0,0,0c0,0,0,0,0,0,0,0,0,0,0,0,0,0,0,0,0,0h0s0,0,0,0c0,0,0,0,0,0,.02-.02.05-.03.06-.06,0-.01.02-.02.02-.04,0-.01,0-.03,0-.04,0-.01,0-.03-.01-.04h0s0-.02,0-.02c0,0,0-.01-.01-.02,0,0,0-.01-.01-.02,0,0-.01-.01-.02-.02,0,0-.01,0-.02-.01,0,0-.01,0-.02-.01.02.02.04.04.05.07Z"/>
            <path class="cls-4" d="m1.05.28s-.01,0-.02.01c0,0-.01,0-.02.01,0,0,0,.01-.01.02h0s0,.01,0,.01c0,0,0,0,0,0h0s0,.02,0,.02c0,.01-.01.03-.01.04s0,.03,0,.04c0,.01,0,.03.02.04.02.02.04.04.06.06,0,0,.01,0,.02.01h0s0,0,0,0c0,0,0,0,0,0,0,0,0,0,0,0,0,0,0,0,0,0,0,0,0,0,0,0h0s0,0,0,0h0s0-.02-.01-.03c0,0,0-.01-.01-.02,0-.01-.01-.03-.02-.04,0-.01,0-.03,0-.04,0-.03,0-.06.02-.08,0-.01.01-.03.02-.04s.02-.02.03-.03c0,0-.01,0-.02.01Zm-.03.06s-.02.05-.01.08c0,.03.01.06.02.08,0,0,0,.01.01.02,0,0,0,.01.01.02h0s0,.01,0,.01h0s0,0,0,0c0,0,0,0,0,0,0,0,0,0,0,0,0,0,0,0,0,0h0s0,0,0,0c0,0-.01,0-.02-.01-.02-.02-.04-.04-.06-.06,0-.01-.01-.03-.02-.04,0-.01,0-.03,0-.04s0-.03.01-.04h0s0-.02,0-.02c0,0,0,0,0,0h0s0-.01,0-.01c0,0,.01-.01.02-.01,0,0,.01,0,.02-.01,0,0,.01,0,.02-.01,0,0,.01,0,.02-.01-.02.02-.04.04-.05.07Z"/>
          </g>
          <g>
            <polygon class="cls-8" points="1.97 3.88 1.52 4.06 .59 4.05 .2 3.86 .2 3.97 .58 4.14 1.52 4.16 1.97 3.99 1.97 3.88"/>
            <path class="cls-4" d="m.58,4.14l-.38-.18v-.11l.39.19h.93s.46-.16.46-.16v.12l-.45.16h0s-.94-.02-.94-.02Zm1.39-.26l-.45.17h0s-.93-.01-.93-.01h0s-.39-.18-.39-.18v.1l.38.18.94.02.45-.16v-.11Z"/>
          </g>
          <g>
            <polygon class="cls-19" points=".37 3.53 .7 3.68 1.38 3.68 1.77 3.57 1.77 3.51 1.58 3.56 1.42 3.61 1.38 3.62 .7 3.62 .37 3.46 .37 3.53"/>
            <path class="cls-1" d="m.36,3.53v-.07s.34.15.34.15h.68l.39-.11v.07s-.38.1-.38.1h-.69s-.33-.15-.33-.15Zm1.4.04v-.06s-.38.11-.38.11h-.68s-.33-.15-.33-.15v.06s.33.15.33.15h.69l.38-.1Z"/>
          </g>
          <path class="cls-9" d="m1.32,3.62l.06-.79c.01-.14-.06-.28-.18-.35l-.16-.09s-.06-.01-.09,0l-.12.08c-.11.07-.16.2-.15.33l.07.81h.57Z"/>
          <g class="cls-25">
            <rect class="cls-4" x=".6" y="3.19" width=".85" height="0" transform="translate(-2.19 4.16) rotate(-88.87)"/>
            <path class="cls-4" d="m.77,2.53s.06.02.09.03c.03.01.05.03.08.05.02.02.04.04.06.07h0s0,0,0,0c0,0,0,0,0,.01,0,0,0,.01,0,.02,0,.01.01.03.01.04h0s0,0,0,0c.01-.03.03-.05.05-.08.02-.02.04-.05.06-.07.02-.02.05-.04.07-.05.01,0,.03-.01.04-.02h.01s0,0,.01,0h0s0,0,0,0h.01s-.06,0-.09.02c-.03.01-.05.03-.07.05-.02.02-.04.04-.06.07-.02.02-.03.05-.05.08h0s0-.03-.01-.04c0,0,0-.01-.01-.02,0,0,0,0,0-.01h0s0-.01,0-.01c0-.01-.02-.03-.03-.04-.01-.01-.02-.02-.03-.03-.02-.02-.05-.04-.08-.05-.01,0-.03-.01-.04-.02-.01,0-.03,0-.05-.01Z"/>
          </g>
          <g class="cls-25">
            <g>
              <path class="cls-4" d="m1.36,3.19s-.02,0-.03,0c0,0-.02,0-.02.01-.02.01-.03.02-.04.04-.01.01-.02.03-.03.05,0,.02,0,.04-.01.05,0,.02,0,.04,0,.06,0,0,0,0,0,.01,0,0,0,0,0,.01,0,0,0,.02.01.02,0,.02.02.03.03.05.01.01.02.03.04.04,0,0-.01-.01-.02-.02,0,0-.01-.01-.02-.02-.01-.01-.02-.03-.03-.05,0-.02-.01-.03-.02-.05,0-.02,0-.04,0-.05,0-.04.01-.07.03-.1,0,0,.01-.01.02-.02,0,0,0,0,0,0,0,0,0,0,.01,0,.01-.01.03-.02.05-.03Z"/>
              <path class="cls-4" d="m1.36,3.13s-.03,0-.04,0c-.01,0-.03,0-.04.01-.01,0-.02.01-.03.02,0,0,0,0,0,0h0s0,.01,0,.01h0s-.03.05-.05.07c-.01.02-.02.05-.02.08,0,.03,0,.05.01.08,0,.03.02.05.03.07,0,.01.02.02.02.03,0,0,.02.02.03.03.01,0,.02.01.03.02.01,0,.02.01.04.01-.02,0-.05-.02-.07-.04-.01,0-.02-.02-.03-.03,0,0-.02-.02-.02-.03-.01-.02-.02-.05-.03-.07,0-.02-.01-.05,0-.08,0-.03,0-.05.02-.07,0-.02.02-.05.04-.06h0s0-.01,0-.01h0s0-.01,0-.01c.01,0,.02-.01.03-.02.02-.01.05-.02.08-.02Z"/>
              <path class="cls-4" d="m1.37,3.08s-.03,0-.05,0c-.02,0-.03,0-.05,0-.03,0-.06.03-.09.05-.01.01-.02.02-.03.04,0,.01-.02.03-.03.04-.01.03-.02.07-.02.1,0,.03,0,.07.01.1,0,0,0,0,0,.01,0,0,0,0,0,.01h0s0,.02,0,.02c0,0,0,0,0,.01,0,0,0,0,0,.01,0,0,0,.01.01.02,0,0,.01.01.02.02,0,0,0,0,0,0,0,0,0,0,0,0h0s0,.01,0,.01h0s0,0,0,0c0,0,0,0,.01,0h.01s0,0,0,0h0s.01,0,.01,0c0,0,.02,0,.02,0,0,0,.02,0,.03,0h.03s-.03,0-.03,0c0,0-.02,0-.02,0,0,0-.02,0-.02,0h-.01s0,0,0,0c0,0,0,0,0,0h-.01s0-.01-.01-.01h0s0,0,0,0h0s0-.01,0-.01c0,0,0,0,0,0,0,0,0,0,0,0,0,0-.01-.01-.02-.02-.02-.03-.03-.06-.04-.09,0-.03-.01-.07-.01-.1,0-.03,0-.07.02-.1.01-.03.03-.06.06-.08.05-.05.12-.07.19-.06Z"/>
              <path class="cls-4" d="m1.38,2.88s-.08.01-.11.02c-.04.01-.07.03-.1.05-.03.02-.06.05-.08.08-.02.03-.04.06-.06.1.02-.03.04-.07.06-.1.02-.03.05-.06.08-.08.03-.02.06-.04.1-.06.04-.01.07-.02.11-.03Z"/>
              <path class="cls-4" d="m1.03,3.02h0s0-.01,0-.01c0,0,0,0,0-.01,0,0,.01-.01.02-.02.01-.01.02-.03.04-.04.01-.01.03-.02.04-.03.01,0,.03-.02.04-.03.03-.02.06-.03.1-.04.02,0,.03,0,.05-.01.02,0,.03,0,.05,0-.04,0-.07,0-.11.01-.03,0-.07.02-.1.04-.02,0-.03.02-.05.03-.01.01-.03.02-.04.03-.03.02-.05.05-.06.08h0Z"/>
              <path class="cls-4" d="m1.31,2.96s.02-.01.03-.01c0,0,.02,0,.03,0,0,0,.01.02.01.03,0,0,0,.01,0,.02,0,0,0,0,0,.01,0,0-.02.01-.03,0,0,0-.02,0-.03-.01,0,0-.01-.02,0-.03,0,0,0-.02,0-.03Zm0,.04s0,0,0,.01c0,0,.02,0,.02,0,0,0,.02,0,.02-.01,0,0,0-.01,0-.02,0,0,0-.02,0-.02,0,0-.01-.01-.02-.01,0,0-.02,0-.02,0,0,0,0,0,0,.01,0,0,0,0,0,.01s0,0,0,.01Z"/>
              <path class="cls-4" d="m1.19,3s.02-.01.03-.01c0,0,.02,0,.03,0,0,0,.01.02.01.03,0,0,0,.01,0,.02,0,0,0,0,0,.01,0,0-.02.01-.03,0,0,0-.02,0-.03-.01,0,0-.01-.02,0-.03,0,0,0-.02,0-.03Zm0,.04s0,0,0,.01c0,0,.02,0,.02,0,0,0,.02,0,.02-.01,0,0,0-.01,0-.02,0,0,0-.02,0-.02,0,0-.01-.01-.02-.01,0,0-.02,0-.02,0,0,0,0,0,0,.01,0,0,0,0,0,.01s0,0,0,.01Z"/>
              <path class="cls-4" d="m1.08,3.09s.02-.01.03-.01c0,0,.02,0,.03,0,0,0,.01.02.01.03,0,0,0,.01,0,.02s0,0,0,.01c0,0-.02.01-.03,0,0,0-.02,0-.03-.01,0,0-.01-.02-.01-.03,0,0,0-.02.01-.03Zm0,.04s0,0,0,.01c0,0,.02,0,.02,0,0,0,.02,0,.02-.01,0,0,0-.01,0-.02,0,0,0-.02,0-.02,0,0-.01-.01-.02-.01,0,0-.02,0-.02,0,0,0,0,0,0,.01s0,0,0,.01c0,0,0,0,0,.01Z"/>
              <path class="cls-4" d="m1.03,3.21s.02-.01.03-.01c0,0,.02,0,.03,0,0,0,.01.02.01.03,0,0,0,.01,0,.02,0,0,0,0,0,.01,0,0-.02.01-.03,0,0,0-.02,0-.03-.01,0,0-.01-.02-.01-.03,0,0,0-.02.01-.03Zm0,.04s0,0,0,.01c0,0,.02,0,.02,0,0,0,.02,0,.02-.01,0,0,0-.01,0-.02,0,0,0-.02,0-.02,0,0-.01-.01-.02-.01,0,0-.02,0-.02,0,0,0,0,0,0,.01,0,0,0,0,0,.01,0,0,0,0,0,.01Z"/>
              <path class="cls-4" d="m1.02,3.37s0-.02,0-.03h0s0,0,0,0c0,0,.01,0,.02,0,0,0,.01,0,.02,0,.01,0,.02.02.02.03,0,.01,0,.03-.02.03-.01,0-.03,0-.04,0,0,0,0-.02,0-.03Zm.02.03s.01,0,.02,0c.01,0,.02-.02.02-.03,0,0,0-.01,0-.02,0,0,0,0-.01-.01,0,0-.02,0-.03,0h0s0,.02,0,.03,0,.02,0,.03c0,0,.01,0,.02,0Z"/>
              <path class="cls-4" d="m1.05,3.48s.02-.01.03-.01c0,0,.02,0,.03,0,0,0,.01.02.01.03,0,0,0,.01,0,.02,0,0,0,0,0,.01,0,0-.02.01-.03,0,0,0-.02,0-.03-.01,0,0-.01-.02-.01-.03,0,0,0-.02.01-.03Zm0,.04s0,0,0,.01c0,0,.02,0,.02,0,0,0,.02,0,.02-.01,0,0,0-.01,0-.02,0,0,0-.02,0-.02,0,0-.01-.01-.02-.01,0,0-.02,0-.02,0,0,0,0,0,0,.01,0,0,0,0,0,.01,0,0,0,0,0,.01Z"/>
              <path class="cls-4" d="m1.14,3.56s.02-.01.03-.01c0,0,.02,0,.03,0,0,0,.01.02.01.03,0,0,0,.01,0,.02,0,0,0,0,0,.01,0,0-.02.01-.03,0,0,0-.02,0-.03-.01,0,0-.01-.02-.01-.03,0,0,0-.02.01-.03Zm0,.04s0,0,0,.01c0,0,.02,0,.02,0,0,0,.02,0,.02-.01,0,0,0-.01,0-.02,0,0,0-.02,0-.02,0,0-.01-.01-.02-.01,0,0-.02,0-.02,0,0,0,0,0,0,.01,0,0,0,0,0,.01,0,0,0,0,0,.01Z"/>
            </g>
            <g>
              <path class="cls-4" d="m.73,3.37s.04,0,.05,0c.02,0,.04,0,.05,0,.03,0,.07.03.09.05.01.01.02.03.03.04,0,0,0,0,0,.01,0,0,0,0,0,.01h0s0,.02,0,.02c.01.03.02.07.03.1,0,0,0-.02,0-.03,0,0,0-.02,0-.03h0s0-.02,0-.03c0,0,0-.02,0-.03,0,0,0,0,0-.01h0s0-.02,0-.02c0,0,0,0,0-.01,0-.02-.02-.03-.04-.04-.01-.01-.03-.02-.05-.03-.02,0-.03-.01-.05-.02-.04,0-.07,0-.11,0Z"/>
              <path class="cls-4" d="m.73,3.41s.03,0,.04,0c.01,0,.03,0,.04.01.01,0,.03.01.04.02.01,0,.02.01.03.02.01,0,.02.02.03.03,0,.01.02.02.02.04.01.03.02.05.02.08,0-.03,0-.06-.02-.09,0-.01-.01-.03-.02-.04,0-.01-.02-.02-.03-.03-.02-.02-.05-.03-.08-.04-.03,0-.06-.01-.09-.01Z"/>
              <path class="cls-4" d="m.74,3.52s.03,0,.05,0c.02,0,.03,0,.04.02,0,0,.01,0,.02.02,0,0,0,0,0,0,0,0,0,0,0,.01,0,.01.01.03.02.05,0-.02,0-.03-.01-.05,0,0,0-.02-.01-.02s-.01-.01-.02-.02c-.01-.01-.03-.02-.05-.02-.02,0-.03,0-.05,0Z"/>
              <path class="cls-4" d="m.74,3.54s.03,0,.04,0c.01,0,.02,0,.03.01.01,0,.02.02.02.03,0,.01,0,.02.01.04,0-.01,0-.03,0-.04,0,0,0-.01,0-.02,0,0,0,0-.01-.01,0,0-.01,0-.02,0,0,0-.01,0-.02,0-.01,0-.03,0-.04,0Z"/>
            </g>
            <g>
              <path class="cls-4" d="m.71,2.62s.06.02.08.03c.03.02.05.03.07.06,0,.01.02.02.02.04,0,0,0,0,0,0h0s0,.01,0,.01c0,0,0,0,0,.01h0s0,.02,0,.02c0,0,0,0,0,.01h0s0,.02,0,.02h0s0,.02,0,.02c0,0,0,0,0,.01h0s0,.02,0,.02c0,.01,0,.03,0,.04,0,0,0,.01,0,.02,0,0,0,0,0,.01h0s-.01.04-.02.05c0,.01-.02.03-.02.04h0s0,.01,0,.02h0s0,0,0,0h0s0,.01,0,.01h0s0,0,0,0h0s0,.01,0,.01c-.03.02-.05.03-.08.03.03,0,.06-.01.09-.03h.01s0-.01,0-.01h0s0,0,0,0h0s0-.01,0-.01c0,0,0,0,0,0h0s0,0,0-.01h0c.04-.05.06-.12.06-.18h0s0-.02,0-.02c0,0,0,0,0-.01h0s0-.02,0-.02h0s0-.02,0-.02c0,0,0,0,0-.01,0,0,0,0,0-.01h0s0-.02,0-.02h0s0-.01,0-.01c0,0,0,0,0-.01,0-.01-.02-.03-.03-.04-.04-.05-.1-.08-.15-.09Z"/>
              <path class="cls-4" d="m.69,2.69s.03.02.05.03c.01.01.03.03.04.04.01.02.02.03.02.05,0,.02,0,.04,0,.06,0,0,0,.02,0,.03,0,0,0,.02,0,.03,0,.02-.01.04-.02.05-.02.03-.04.06-.07.09.03-.03.05-.06.08-.09.02-.03.03-.07.03-.11,0-.02,0-.04,0-.06,0-.02-.01-.04-.02-.05-.02-.03-.05-.06-.09-.07Z"/>
              <path class="cls-4" d="m.68,2.82s.03.03.04.05c0,.02.02.04.02.05,0,.02,0,.04,0,.06,0,.02-.02.04-.03.05.01-.01.03-.03.03-.05,0,0,0-.02,0-.03,0,0,0-.02,0-.03,0-.01,0-.02,0-.03,0,0,0-.02-.01-.03-.01-.02-.03-.03-.04-.04Z"/>
              <path class="cls-4" d="m.77,2.56s.02-.01.03-.01c.01,0,.02,0,.03.01,0,0,0,0,.01.01,0,0,0,.01,0,.02,0,0,0,.01,0,.02,0,0,0,.01-.01.01,0,0-.02.01-.03.01-.01,0-.02,0-.03-.01,0,0-.01-.02-.01-.03,0-.01,0-.02.01-.03Zm0,.05s0,0,0,.01c0,0,.02.01.03.01.01,0,.02,0,.03-.01,0,0,.01-.02.01-.03,0,0,0-.02-.01-.03,0,0-.02-.01-.03-.01-.01,0-.02,0-.03.01,0,0,0,0,0,.01,0,0,0,.01,0,.02s0,.01,0,.02Z"/>
              <path class="cls-4" d="m.87,2.63s.02-.01.03-.01c.01,0,.02,0,.03.01,0,0,0,0,.01.01,0,0,0,.01,0,.02s0,.01,0,.02c0,0,0,.01-.01.01,0,0-.02.01-.03.01-.01,0-.02,0-.03-.01,0,0-.01-.02-.01-.03,0-.01,0-.02.01-.03Zm0,.05s0,0,0,.01c0,0,.02.01.03.01.01,0,.02,0,.03-.01,0,0,.01-.02.01-.03s0-.02-.01-.03c0,0-.02-.01-.03-.01-.01,0-.02,0-.03.01,0,0,0,0,0,.01,0,0,0,.01,0,.02,0,0,0,.01,0,.02Z"/>
              <path class="cls-4" d="m.94,2.78s.02-.01.03-.01c.01,0,.02,0,.03.01,0,0,0,0,.01.01,0,0,0,.01,0,.02,0,0,0,.01,0,.02,0,0,0,.01-.01.01,0,0-.02.01-.03.01-.01,0-.02,0-.03-.01,0,0-.01-.02-.01-.03,0-.01,0-.02.01-.03Zm0,.05s0,0,0,.01c0,0,.02.01.03.01.01,0,.02,0,.03-.01,0,0,.01-.02.01-.03,0,0,0-.02-.01-.03,0,0-.02-.01-.03-.01-.01,0-.02,0-.03.01,0,0,0,0,0,.01,0,0,0,.01,0,.02s0,.01,0,.02Z"/>
              <path class="cls-4" d="m.94,2.94s.02-.01.03-.01c.01,0,.02,0,.03.01,0,0,0,0,.01.01,0,0,0,.01,0,.02,0,0,0,.01,0,.02,0,0,0,.01-.01.01,0,0-.02.01-.03.01-.01,0-.02,0-.03-.01,0,0-.01-.02-.01-.03,0-.01,0-.02.01-.03Zm0,.05s0,0,0,.01c0,0,.02.01.03.01.01,0,.02,0,.03-.01,0,0,.01-.02.01-.03,0,0,0-.02-.01-.03,0,0-.02-.01-.03-.01-.01,0-.02,0-.03.01,0,0,0,0,0,.01,0,0,0,.01,0,.02s0,.01,0,.02Z"/>
              <path class="cls-4" d="m.88,3.07s.02-.01.03-.01c.01,0,.02,0,.03.01,0,0,0,0,.01.01,0,0,0,.01,0,.02,0,0,0,.01,0,.02,0,0,0,.01-.01.01,0,0-.02.01-.03.01-.01,0-.02,0-.03-.01,0,0-.01-.02-.01-.03,0-.01,0-.02.01-.03Zm0,.05s0,0,0,.01c0,0,.02.01.03.01.01,0,.02,0,.03-.01,0,0,.01-.02.01-.03,0,0,0-.02-.01-.03,0,0-.02-.01-.03-.01-.01,0-.02,0-.03.01,0,0,0,0,0,.01,0,0,0,.01,0,.02,0,0,0,.01,0,.02Z"/>
              <path class="cls-4" d="m.75,3.16s.02-.01.03-.01c.01,0,.02,0,.03.01,0,0,0,0,.01.01,0,0,0,.01,0,.02,0,0,0,.01,0,.02,0,0,0,.01-.01.01,0,0-.02.01-.03.01-.01,0-.02,0-.03-.01,0,0-.01-.02-.01-.03,0-.01,0-.02.01-.03Zm0,.05s0,0,0,.01c0,0,.02.01.03.01.01,0,.02,0,.03-.01,0,0,.01-.02.01-.03,0,0,0-.02-.01-.03,0,0-.02-.01-.03-.01-.01,0-.02,0-.03.01,0,0,0,0,0,.01,0,0,0,.01,0,.02,0,0,0,.01,0,.02Z"/>
            </g>
          </g>
          <path class="cls-16" d="m.16,2.59l.02.08.06.27.02.08.02.08.07.31v.06s.01,0,.01,0h.02s.02.02.02.02l.09.04h.03s.12.07.12.07v-.09s-.01-.02-.01-.02v-.03s-.04-.34-.04-.34v-.07s-.01-.06-.01-.06h0s0-.05,0-.05v-.07s-.01-.07-.01-.07v-.05s0,0,0,0c0-.05-.02-.09-.05-.13l-.08-.12-.07-.11s-.07-.03-.09,0l-.07.15-.02.05Z"/>
          <g class="cls-25">
            <rect class="cls-4" x=".35" y="2.7" width="0" height=".78" transform="translate(-.38 .07) rotate(-7.07)"/>
            <path class="cls-4" d="m.42,2.49s-.03.03-.04.04c-.01.02-.02.03-.03.05,0,.02-.02.04-.02.06,0,0,0,0,0,.01,0,0,0,0,0,.01,0,0,0,.02,0,.03h0s-.01-.03-.02-.05c0-.02-.02-.03-.03-.05-.01-.01-.02-.03-.04-.04-.01-.01-.03-.02-.04-.03.01.01.03.02.04.03.01.01.02.03.03.04.01.01.02.03.03.05,0,.02.01.03.02.05h0s0,0,0,0c0-.02,0-.04.02-.06,0-.02.01-.04.02-.06,0,0,0,0,0-.01,0,0,0,0,0-.01,0,0,.01-.02.02-.03.01-.02.02-.03.04-.05Z"/>
          </g>
          <g class="cls-25">
            <g>
              <path class="cls-4" d="m.59,3.11s-.02.02-.03.04c0,.01-.01.03-.02.04,0,.03,0,.06,0,.09,0,.02,0,.03.01.05,0,.02.01.03.02.04.01.03.03.05.06.07-.01-.01-.02-.02-.03-.04,0-.01-.02-.03-.02-.04,0-.01-.01-.03-.02-.04,0-.01,0-.03-.01-.04,0-.03,0-.06,0-.09,0,0,0,0,0-.01,0,0,0,0,0-.01,0,0,0-.01,0-.02,0-.01.02-.03.03-.04Z"/>
              <path class="cls-4" d="m.58,3.04s-.04.02-.06.04c-.02.02-.03.04-.03.06-.02.04-.02.09-.01.13,0,.02,0,.04.02.07,0,0,0,.01,0,.02,0,0,0,.01,0,.02,0,.01.01.02.02.03.01.02.03.04.04.05,0,0,.02.01.03.02,0,0,.02,0,.03.01,0,0-.01,0-.02,0,0,0,0,0,0,0h0s-.02-.02-.03-.02c0,0-.02-.02-.02-.02,0,0-.01-.02-.02-.03,0,0-.01-.02-.02-.03,0,0,0-.01,0-.02,0,0,0-.01,0-.02,0-.02-.01-.04-.02-.06,0-.02,0-.04,0-.07,0-.02,0-.04.01-.06,0-.02.02-.04.03-.06.01-.02.03-.03.05-.04Z"/>
              <path class="cls-4" d="m.57,2.98h0s-.06.01-.08.03c0,0,0,0,0,0h0s0,.02-.01.03c0,.01-.01.03-.02.04-.01.03-.02.06-.02.08,0,.03,0,.06,0,.09,0,.03.01.06.02.08,0,.01.01.03.02.04,0,.01.01.03.02.04.02.02.04.05.06.06.01,0,.03.01.04.02.01,0,.03,0,.04,0-.01,0-.03,0-.04,0-.01,0-.03,0-.04-.02-.02-.02-.04-.04-.06-.06-.01-.02-.03-.05-.04-.08,0-.03-.02-.05-.02-.08,0-.06,0-.11.02-.17,0-.01.01-.03.02-.04,0,0,0-.01.01-.02h0s0-.01,0-.02c.02-.02.05-.03.08-.04h0Z"/>
              <path class="cls-4" d="m.55,2.79s-.05.03-.08.05c-.02.02-.04.04-.06.07-.02.03-.03.05-.04.08-.01.03-.02.06-.02.09,0-.03.02-.06.03-.09.01-.03.02-.05.04-.08.02-.02.04-.05.06-.07.02-.02.05-.04.07-.05Z"/>
              <path class="cls-4" d="m.55,2.74s-.05.02-.07.03c-.02.01-.04.03-.06.05-.02.02-.03.04-.04.07v.02s-.02.02-.02.02c0,0,0,0,0,0h0s0,.02,0,.03H.34s0,0,0,0c0,0,0-.01,0-.02h0s0-.02,0-.02v-.02s.02-.02.02-.02c.01-.02.03-.04.05-.06.02-.02.04-.04.06-.05.02-.01.05-.03.07-.04Z"/>
              <path class="cls-4" d="m.54,2.87s0,0,.01-.01c0,0,.01,0,.02,0h0s0,0,0,0c0,0,0,.01,0,.02,0,0,0,.01,0,.02,0,.01,0,.02,0,.03h0s0,0,0,0c0,0-.01,0-.02,0,0,0,0,0-.01,0,0,0,0,0,0-.01,0,0,0,0,0-.01,0,0,0-.02,0-.03Zm0,.05s0,0,.01,0c0,0,0,0,.01,0h0s0-.02,0-.03c0,0,0-.01,0-.02,0,0,0-.01,0-.02h0s0,0-.01,0c0,0,0,0-.01,0,0,0,0,0,0,.01,0,0,0,0,0,.01,0,0,0,.02.01.02Z"/>
              <path class="cls-4" d="m.45,2.93s0,0,0-.01c0,0,0,0,.01,0,0,0,0,0,.01,0,0,0,0,0,.01,0,0,0,0,.02.01.02,0,0,0,.02,0,.03,0,0,0,0,0,.01,0,0,0,0-.01,0,0,0,0,0-.01,0,0,0,0,0,0,0,0,0,0-.01,0-.02s0-.02,0-.02Zm0,.05s.01,0,.02,0c0,0,.01,0,.02-.01,0,0,0-.01,0-.02,0,0,0-.01,0-.02,0,0-.01-.01-.02,0,0,0-.01,0-.02.01,0,0,0,.02,0,.02,0,0,0,.02,0,.02Z"/>
              <path class="cls-4" d="m.39,3.03s0,0,0-.01c0,0,0,0,.01,0,0,0,0,0,.01,0,0,0,0,0,.01,0,0,0,0,.02.01.02,0,0,0,.02,0,.03,0,0,0,0,0,.01,0,0,0,0-.01,0,0,0,0,0-.01,0,0,0,0,0,0,0,0,0,0-.01,0-.02s0-.02,0-.02Zm0,.05s.01,0,.02,0c0,0,.01,0,.01-.01,0,0,0-.01,0-.02,0,0,0-.01,0-.02,0,0-.01-.01-.02,0,0,0-.01,0-.02.01,0,0,0,.02,0,.02,0,0,0,.02,0,.02Z"/>
              <path class="cls-4" d="m.36,3.15s0,0,0-.01c0,0,0,0,.01,0,0,0,0,0,.01,0,0,0,0,0,.01,0,0,0,0,.02.01.02,0,0,0,.02,0,.03,0,0,0,0,0,.01,0,0,0,0-.01,0,0,0,0,0-.01,0,0,0,0,0,0,0,0,0,0-.01,0-.02s0-.02,0-.02Zm0,.05s.01,0,.02,0c0,0,.01,0,.01-.01,0,0,0-.01,0-.02,0,0,0-.01,0-.02,0,0-.01-.01-.02,0,0,0-.01,0-.02.01,0,0,0,.02,0,.02,0,0,0,.02,0,.02Z"/>
              <path class="cls-4" d="m.38,3.31s0-.02,0-.03h0s0,0,0,0c0,0,.01,0,.02,0,0,0,.01,0,.02,0,0,0,0,0,.01.01,0,0,0,.01,0,.02,0,.01,0,.02,0,.03,0,0,0,0-.01,0,0,0-.01,0-.02,0,0,0,0-.02,0-.03Zm.02.03s0,0,.01,0c0,0,0-.02,0-.03,0,0,0-.02-.01-.02,0,0,0,0-.01,0,0,0,0,0-.01,0h0s0,.02,0,.03c0,.01,0,.02,0,.03,0,0,.01,0,.01,0Z"/>
              <path class="cls-4" d="m.42,3.41s0,0,0-.01c0,0,0,0,.01,0,0,0,0,0,.01,0,0,0,0,0,.01,0,0,0,0,.02.01.02,0,0,0,.02,0,.03,0,0,0,0,0,.01,0,0,0,0-.01,0,0,0,0,0-.01,0,0,0,0,0,0,0,0,0,0-.01,0-.02,0,0,0-.02,0-.02Zm0,.05s.01,0,.02,0c0,0,.01,0,.01-.01,0,0,0-.01,0-.02,0,0,0-.01,0-.02,0,0-.01-.01-.02,0s-.01,0-.02.01c0,0,0,.02,0,.02,0,0,0,.02.01.02Z"/>
              <path class="cls-4" d="m.5,3.52s0-.01,0-.02c0,0,0-.01,0-.02,0,0,0-.01.01-.01,0,0,.01,0,.02,0,0,0,0,0,.01.01,0,0,0,.01,0,.02,0,0,0,.01,0,.02,0,0,0,.01-.01.01,0,0,.01,0,.02-.01,0,0,0-.01,0-.02,0,0,0,0,0-.01,0,0,0,0,0-.01,0,0,0-.01-.02-.02,0,0-.02,0-.02,0,0,0-.01.01-.01.02,0,0,0,.01,0,.02,0,0,0,.01,0,.02Z"/>
            </g>
            <path class="cls-4" d="m.39,3.47s0-.01,0-.02,0-.01,0-.02c0,0,0-.01-.01-.02,0,0,0-.01-.01-.01,0,0,0,.01,0,.02,0,0,0,.01,0,.02,0,0,0,.01,0,.02s0,.01.01.02Z"/>
            <g>
              <path class="cls-4" d="m.24,2.93s0-.05,0-.07c0-.02,0-.05,0-.07,0-.01,0-.02,0-.03,0-.01,0-.02-.01-.03-.01-.02-.02-.04-.04-.06.01.02.02.04.03.06,0,.02.02.04.02.07,0,0,0,.01,0,.02,0,0,0,.01,0,.02,0,.01,0,.02,0,.03,0,.02,0,.05,0,.07Z"/>
              <path class="cls-4" d="m.17,2.59s0,0,0-.01c0,0,0,0,.01,0,0,0,.01,0,.02,0,0,0,0,0,.01,0,0,0,.01.02.01.03,0,.01,0,.02,0,.03,0,0,0,0,0,.01,0,0,0,0-.01,0,0,0-.01,0-.01,0,0,0,0,0-.01,0,0,0,0-.02-.01-.03,0,0,0-.02,0-.03Zm0,.05s0,0,.01,0c0,0,0,0,.01,0,0,0,.01,0,.02-.02,0,0,0-.02,0-.03,0,0,0-.02,0-.02,0,0-.01-.01-.02-.01,0,0,0,0-.01,0,0,0,0,0,0,.01,0,0,0,.02,0,.03,0,0,0,.02.01.03Z"/>
              <path class="cls-4" d="m.25,2.73s0,0,0-.01c0,0,0,0,.01,0,0,0,.01,0,.02,0,0,0,0,0,.01,0,0,0,.01.02.01.03,0,.01,0,.02,0,.03,0,0,0,0,0,.01,0,0,0,0-.01,0,0,0-.01,0-.01,0,0,0,0,0-.01,0,0,0,0-.02-.01-.03s0-.02,0-.03Zm0,.05s0,0,.01,0c0,0,0,0,.01,0,0,0,.01,0,.02-.02,0,0,0-.02,0-.03s0-.02,0-.02c0,0-.01-.01-.02-.01,0,0,0,0-.01,0,0,0,0,0,0,.01,0,0,0,.02,0,.03,0,0,0,.02.01.03Z"/>
              <path class="cls-4" d="m.27,2.89s0,0,0-.01c0,0,0,0,.01,0,0,0,.01,0,.02,0,0,0,0,0,.01,0,0,0,.01.02.01.03,0,.01,0,.02,0,.03,0,0,0,0,0,.01,0,0,0,0-.01,0,0,0-.01,0-.01,0,0,0,0,0-.01,0,0,0,0-.02-.01-.03,0,0,0-.02,0-.03Zm0,.05s0,0,.01,0c0,0,0,0,.01,0,0,0,.01,0,.02-.02,0,0,0-.02,0-.03,0,0,0-.02,0-.02,0,0-.01-.01-.02-.01,0,0,0,0-.01,0,0,0,0,0,0,.01,0,0,0,.02,0,.03,0,0,0,.02.01.03Z"/>
              <path class="cls-4" d="m.27,3.01s0,0,.01,0c0,0,.01.01.01.02,0,0,0,.02,0,.03,0,0,0,.02-.02.02h0s0,0,0,0c0-.01,0-.03,0-.04,0,0,0-.01,0-.02v-.02s0,0,0,0Zm0,.02v.02s.01.03.02.04h0s.01-.01.01-.02c0,0,0-.02,0-.02,0,0,0-.02,0-.02,0,0-.01-.01-.02-.01v.02Z"/>
            </g>
          </g>
          <path class="cls-7" d="m1.42,3.61l.13-.04h.02s.02-.01.02-.01h0s.03-.01.03-.01c.05-.01.09-.03.14-.04h0s.01-.07.01-.07v-.07s.07-.26.07-.26v-.04s.12-.51.12-.51h0s-.09-.17-.09-.17c-.02-.04-.08-.04-.11,0l-.09.11h0s-.09.12-.09.12c-.03.04-.05.08-.06.13,0,0,0,0,0,0v.05s-.01.07-.01.07v.07s-.01.05-.01.05h0s0,.06,0,.06v.07s-.05.35-.05.35v.03s0,.02,0,.02v.08Z"/>
          <g class="cls-25">
            <rect class="cls-4" x="1.34" y="3.11" width=".8" height="0" transform="translate(-1.57 4.43) rotate(-82.35)"/>
            <path class="cls-4" d="m1.68,2.5s.02.01.02.02c0,0,.01.02.02.02.01.02.02.04.03.05,0,.02.02.04.02.06,0,.02.01.04.02.06h0s0,0,0,0c0-.02.01-.03.02-.05,0-.02.02-.03.03-.05.01-.01.02-.03.04-.04.01-.01.03-.02.04-.03-.02,0-.03.02-.05.03-.01.01-.03.03-.04.04-.01.01-.02.03-.03.05,0,.02-.02.03-.02.05h0s-.01-.04-.02-.06c0-.02-.02-.04-.03-.06,0,0-.01-.02-.02-.03,0,0-.01-.02-.02-.03,0,0-.01-.02-.02-.02,0,0-.02-.01-.03-.02Z"/>
          </g>
          <g class="cls-25">
            <g>
              <path class="cls-4" d="m1.49,3.13s.02.02.03.04c0,0,0,.01.01.02h0s0,.01,0,.01h0s0,.01,0,.01c0,.03,0,.06,0,.1,0,.02,0,.03-.01.05,0,.02-.01.03-.02.04,0,.01-.02.03-.03.04,0,.01-.02.03-.03.04.03-.02.05-.05.06-.07,0-.01.02-.03.02-.04,0-.02.01-.03.01-.05,0-.03,0-.07,0-.1,0-.02-.01-.03-.02-.05,0-.01-.02-.03-.03-.04Z"/>
              <path class="cls-4" d="m1.5,3.06s.04.02.06.04c.02.02.03.04.04.06,0,.02.01.04.02.07,0,.02,0,.05,0,.07,0,.05-.03.09-.05.13,0,0-.01.02-.02.03,0,0,0,0-.01.01,0,0,0,0-.01.01,0,0-.02.01-.03.02h0s0,0,0,0h0s0,0,0,0h0s.04-.01.06-.03c0,0,0,0,.01-.01,0,0,0,0,.01-.01,0,0,.02-.02.02-.03.01-.02.03-.04.03-.06,0-.02.02-.04.02-.07,0-.05,0-.1-.02-.14,0-.02-.02-.04-.04-.06-.02-.02-.04-.03-.06-.04Z"/>
              <path class="cls-4" d="m1.51,3h0s.03,0,.04.01c.01,0,.03.01.04.02.01,0,.02.02.03.03h0s0,.02,0,.02c0,0,0,.01,0,.02.02.06.03.12.02.18,0,.01,0,.03,0,.04,0,.01,0,.03-.01.04-.01.03-.02.06-.04.08-.02.02-.04.05-.06.06-.03.02-.06.02-.09.02.03,0,.06,0,.09-.02.03-.01.05-.04.07-.06.02-.02.03-.05.04-.08,0-.01.01-.03.01-.04,0-.01,0-.03,0-.04,0-.03,0-.06,0-.09,0-.02,0-.03,0-.05,0,0,0-.01,0-.02,0,0,0-.01,0-.02,0,0,0-.01-.01-.02,0,0,0,0,0,0h0s-.02-.03-.03-.04c-.02-.02-.05-.03-.08-.03h0Z"/>
              <path class="cls-4" d="m1.53,2.8s.06.03.08.05c.02.02.05.04.06.07.02.03.03.05.05.08.01.03.02.06.03.09,0-.03-.01-.06-.02-.09-.01-.03-.03-.06-.05-.08-.02-.03-.04-.05-.07-.07-.03-.02-.05-.04-.08-.05Z"/>
              <path class="cls-4" d="m1.53,2.75s.05.02.08.04c.02.01.05.03.07.05.02.02.04.04.05.07v.02s.02.01.02.02h0s0,.02,0,.02c0,0,0,.01,0,.02h0s0,0,0,0h0s-.02-.05-.03-.08c-.01-.02-.03-.05-.05-.07-.02-.02-.04-.04-.07-.05,0,0-.01,0-.02,0,0,0-.01,0-.02,0-.01,0-.03,0-.04-.01Z"/>
              <path class="cls-4" d="m1.55,2.9s0,0,0-.01c0,0,0,0-.01,0,0,0,0,0-.01,0h0s0,.02,0,.03c0,0,0,.01,0,.02,0,0,0,.01,0,.02h0s0,0,.01,0c0,0,0,0,.01,0,0,0,0,0,0-.01,0,0,0,0,0-.01,0,0,0-.01,0-.02Zm-.01.04s0,0-.01,0c0,0-.01,0-.02,0h0s0,0,0,0c0,0,0-.01,0-.02,0,0,0-.01,0-.02,0-.01,0-.02,0-.03h0s0,0,0,0c0,0,.01,0,.02,0,0,0,0,0,.01.01,0,0,0,.02,0,.03,0,0,0,.02-.01.03Z"/>
              <path class="cls-4" d="m1.64,2.94s-.01-.01-.02-.01c0,0-.02,0-.02,0,0,0,0,.01,0,.02,0,0,0,.02,0,.02,0,0,0,.01.02.01,0,0,.02,0,.02,0,0,0,0-.01.01-.02,0,0,0-.02,0-.02Zm0,.05s-.01.01-.02.01c0,0,0,0-.01,0,0,0,0,0,0-.01,0,0,0-.02,0-.03,0,0,0-.02.01-.02,0,0,0,0,.01,0,0,0,0,0,.01,0,0,0,.02,0,.02.02,0,0,0,.02,0,.03,0,0,0,.02-.01.02Z"/>
              <path class="cls-4" d="m1.71,3.05s-.01-.01-.02-.01c0,0-.02,0-.02,0,0,0,0,.01,0,.02,0,0,0,.02,0,.02,0,0,0,.01.02.01,0,0,.02,0,.02,0,0,0,0-.01.01-.02,0,0,0-.02,0-.02Zm0,.05s-.01.01-.02.01c0,0,0,0-.01,0,0,0,0,0,0-.01,0,0,0-.02,0-.03,0,0,0-.02.01-.02,0,0,0,0,.01,0,0,0,0,0,.01,0,0,0,.02,0,.02.02,0,0,0,.02,0,.03,0,0,0,.02-.01.02Z"/>
              <path class="cls-4" d="m1.74,3.17s-.01-.01-.02-.01c0,0-.02,0-.02,0,0,0,0,.01,0,.02s0,.02,0,.02c0,0,0,.01.02.01,0,0,.02,0,.02,0,0,0,0-.01.01-.02,0,0,0-.02,0-.02Zm0,.05s-.01.01-.02.01c0,0,0,0-.01,0,0,0,0,0,0-.01,0,0,0-.02,0-.03,0,0,0-.02.01-.02,0,0,0,0,.01,0,0,0,0,0,.01,0,0,0,.02,0,.02.02,0,0,0,.02,0,.03,0,0,0,.02-.01.02Z"/>
              <path class="cls-4" d="m1.71,3.33s0-.02,0-.03h0s-.02,0-.03,0c0,0-.01.02-.02.03,0,.01,0,.02,0,.03,0,0,0,0,.01,0,0,0,.01,0,.02,0,0-.01,0-.02,0-.03Zm-.02.04s0,0,0,0c0,0,0,0,0,0,0,0-.01-.02-.01-.03,0,0,0-.01,0-.02,0,0,0-.01.01-.01,0,0,.01,0,.02,0,0,0,.01,0,.02,0h0s0,0,0,0c0,.01,0,.02,0,.03,0,.01,0,.02,0,.03,0,0-.01,0-.02,0Z"/>
              <path class="cls-4" d="m1.68,3.44s-.01-.01-.02-.01c0,0-.02,0-.02,0,0,0,0,.01,0,.02,0,0,0,.02,0,.02,0,0,0,.01.02.01,0,0,.02,0,.02,0,0,0,0-.01.01-.02,0,0,0-.02,0-.02Zm0,.05s-.01.01-.02.01c0,0,0,0-.01,0,0,0,0,0,0-.01,0,0,0-.02,0-.03,0,0,0-.02.01-.02,0,0,0,0,.01,0,0,0,0,0,.01,0,0,0,.02,0,.02.02,0,0,0,.02,0,.03,0,0,0,.02-.01.02Z"/>
              <path class="cls-4" d="m1.59,3.55s.01-.03,0-.04c0,0,0-.01-.02-.02,0,0-.02,0-.02,0,0,0-.01,0-.02.02,0,0,0,.01,0,.02,0,0,0,.02,0,.02,0,0,.01.01.02.01,0,0-.01,0-.01-.01,0,0,0-.01,0-.02,0,0,0-.01,0-.02,0,0,0-.01.01-.01,0,0,.01,0,.02,0,0,0,0,0,.01.01,0,.01,0,.03,0,.04Z"/>
            </g>
            <path class="cls-4" d="m1.71,3.5s0-.01.01-.02,0-.01,0-.02c0,0,0-.01,0-.02,0,0,0-.01,0-.02,0,0-.01,0-.01.02,0,0,0,.01-.01.02,0,0,0,.01,0,.02s0,.01,0,.02Z"/>
            <g>
              <path class="cls-4" d="m1.87,2.95s0-.05,0-.07c0-.01,0-.02,0-.04,0,0,0-.01,0-.02,0,0,0-.01,0-.02,0-.02.01-.05.02-.07.01-.02.02-.04.04-.06-.02.02-.03.04-.04.06,0,.01-.01.02-.01.03,0,.01,0,.02-.01.04,0,0,0,.01,0,.02,0,0,0,.01,0,.02,0,.01,0,.02,0,.04,0,.02,0,.05,0,.07Z"/>
              <path class="cls-4" d="m1.95,2.59s-.01-.02-.02-.02c0,0-.02,0-.02.01,0,0,0,.02-.01.03s0,.02,0,.03c0,0,.01.02.02.02,0,0,.02,0,.03,0,0,0,.01-.02.01-.03,0,0,0-.02,0-.03Zm0,.06s0,0-.01,0c0,0-.01,0-.02,0-.01,0-.02,0-.03-.02,0,0,0-.02,0-.03,0-.01,0-.02.01-.03,0,0,.02-.01.03-.01,0,0,.01,0,.01,0,0,0,0,0,0,.01,0,0,0,.02,0,.03,0,.01,0,.02-.01.03Z"/>
              <path class="cls-4" d="m1.87,2.74s-.01-.02-.02-.02c0,0-.02,0-.02.01,0,0,0,.02-.01.03,0,0,0,.02,0,.03,0,0,.01.02.02.02,0,0,.02,0,.03,0,0,0,.01-.02.01-.03,0-.01,0-.02,0-.03Zm0,.06s0,0-.01,0c0,0-.01,0-.02,0-.01,0-.02,0-.03-.02,0,0,0-.02,0-.03,0-.01,0-.02.01-.03,0,0,.02-.01.03-.01,0,0,.01,0,.01,0,0,0,0,0,0,.01,0,0,0,.02,0,.03s0,.02-.01.03Z"/>
              <path class="cls-4" d="m1.85,2.91s-.01-.02-.02-.02c0,0-.02,0-.02.01,0,0,0,.02-.01.03,0,0,0,.02,0,.03,0,0,.01.02.02.02,0,0,.02,0,.03,0,0,0,.01-.02.01-.03,0-.01,0-.02,0-.03Zm0,.06s0,0-.01,0c0,0-.01,0-.02,0-.01,0-.02,0-.03-.02,0,0,0-.02,0-.03,0-.01,0-.02.01-.03,0,0,.02-.01.03-.01,0,0,.01,0,.01,0,0,0,0,0,0,.01,0,0,0,.02,0,.03s0,.02-.01.03Z"/>
              <path class="cls-4" d="m1.83,3.04s0,.01-.01.02c0,0,0,.02,0,.02,0,0,0,.01.01.02h0s0-.02.01-.04v-.04s0,0,0,.01Zm.01.03s0,.03,0,.04h0s0,0,0,0c0,0-.01-.01-.02-.02,0,0,0-.02,0-.03,0,0,0-.02.01-.02,0,0,.02-.01.03,0,0,.01,0,.03,0,.04Z"/>
            </g>
          </g>
        </g>
      </g>
    </g>
  </g>
</svg>