<svg xmlns="http://www.w3.org/2000/svg" width="125.43" height="7.559" viewBox="0 0 125.43 7.559">
  <g id="line_2" transform="translate(0 -0.012)">
    <g id="Group_2954" data-name="Group 2954">
      <path id="Path_19391" data-name="Path 19391" d="M22.12,3.89c.35.03.94.07,1.03-.1A3.6,3.6,0,0,0,22.12,3.89Z" fill="#df814e"/>
      <path id="Path_19392" data-name="Path 19392" d="M18.94,3.98c.23,0,.45,0,.47-.09C19.27,3.83,18.88,3.84,18.94,3.98Z" fill="#df814e"/>
      <path id="Path_19393" data-name="Path 19393" d="M56.55,7.27a1.162,1.162,0,0,0,.9.04A3.1,3.1,0,0,0,56.55,7.27Z" fill="#df814e"/>
      <path id="Path_19394" data-name="Path 19394" d="M59.46,7.29c.22.01.52-.04.64.04C60,7.17,59.56,7.18,59.46,7.29Z" fill="#df814e"/>
      <path id="Path_19395" data-name="Path 19395" d="M53.65,7.41c.15.01.24-.01.26-.09-.09-.01-.12-.06-.26-.04Z" fill="#df814e"/>
      <path id="Path_19396" data-name="Path 19396" d="M50.36,7.35v.13a.528.528,0,0,0,.32-.13A.58.58,0,0,0,50.36,7.35Z" fill="#df814e"/>
      <path id="Path_19397" data-name="Path 19397" d="M28.37,7.47c.16,0,.31,0,.32-.09C28.59,7.31,28.32,7.32,28.37,7.47Z" fill="#df814e"/>
      <path id="Path_19398" data-name="Path 19398" d="M62.62,7.24a.753.753,0,0,0,.39.04C62.99,7.14,62.68,7.14,62.62,7.24Z" fill="#df814e"/>
      <path id="Path_19399" data-name="Path 19399" d="M31.28,7.33a1.612,1.612,0,0,0-.71.09C30.81,7.45,31.22,7.5,31.28,7.33Z" fill="#df814e"/>
      <path id="Path_19400" data-name="Path 19400" d="M61.2,7.16c-.2.1-.72-.02-.9.09C60.47,7.35,61.22,7.42,61.2,7.16Z" fill="#df814e"/>
      <path id="Path_19401" data-name="Path 19401" d="M75.64,7.25c.16-.02.14.08.32.04C75.98,7.16,75.65,7.12,75.64,7.25Z" fill="#df814e"/>
      <path id="Path_19402" data-name="Path 19402" d="M63.33,7.27c.32-.07.79.14.77-.09-.42,0-.63-.06-.77.09Z" fill="#df814e"/>
      <path id="Path_19403" data-name="Path 19403" d="M77.77,7.28c.15-.03.5.07.45-.09C77.98,7.25,77.87,7.13,77.77,7.28Z" fill="#df814e"/>
      <path id="Path_19404" data-name="Path 19404" d="M74.09,7.26a.87.87,0,0,0-.58-.08C73.61,7.34,73.97,7.29,74.09,7.26Z" fill="#df814e"/>
      <path id="Path_19405" data-name="Path 19405" d="M70.55,7.23c.38.06,1.11.16,1.35-.05A3.012,3.012,0,0,0,70.55,7.23Z" fill="#df814e"/>
      <path id="Path_19406" data-name="Path 19406" d="M68.16,7.08c.07.22-.16,0-.13.17.31-.04.86.08.97-.09-.29-.02-.74.07-.84-.08Z" fill="#df814e"/>
      <path id="Path_19407" data-name="Path 19407" d="M114.91,4.96c1.96.08,2.66-1.1,4.6-1.17-.69-.29-1.73-.33-2.36-.67-2.54-.24-5.11-.36-7.69-.44,1.14,0,2.29.01,3.45.02,1.91.01,3.82.01,5.71-.17a13.011,13.011,0,0,1-2.06-.22,3.712,3.712,0,0,0,1.59-.15c3.11.03,4.2-1.17,7.28-1.29-1.11-.27-2.76-.29-3.75-.61C110.11-.23,98.22.17,86.57.1c-2.92-.02-5.84.14-8.8.14C68.44.25,58.91.52,49.13.78c-8.46.22-18.03.27-26.02.62a42.425,42.425,0,0,0-4.4.07C12.63,1.69,5.2,1.68,0,2.06c.58.04.18.11.19.33.26.12.96.03,1.13.19-.4,0-.65.08-1.12.06-.02.22.74.08,1.13.11-.03.14-.5.09-.46.26.6-.02.79.35,1.88.22.01.16.11.12,0,.25,3.12-.03,6,.18,8.99.24,1.73-.15,4.59-.16,7.3-.16-.02.09.08.13.28.12-.08-.3.63.01.65-.09,1.48,0,3.34-.09,5.62.04a13.186,13.186,0,0,1-1.4.11c.07.13-.16.13-.09.25.33.02.23-.15.56-.13-.02.11.04.18.28.16-.05-.11-.16-.16.18-.17-.02.11-.19.14.19.12.29,0-.24-.12.09-.13.25.01.33.1.56.12a.4.4,0,0,1,.19-.13c-.06.11.19.08.28.12-.02-.09.07-.13.28-.13.1.04.03.15.28.12-.03-.11.19-.11.37-.13.13.02.02.16.19.16.21-.06-.12-.1.09-.13.14.06.2.13.19-.04.57.33.95-.1,2.15-.03-.04.06-.11.07,0,.13.63-.13,1.05-.2,1.31-.02a1.421,1.421,0,0,1,.93-.06c.08-.04,0-.13.37-.13.21.24.88,0,1.22.15.15-.03-.02-.21.28-.17,0,.07-.01.15.19.12.63-.32,1.61.05,1.96-.16.13.02.02.16.19.17.05-.1.29-.12.65-.18.18.13.44,0,.75.11.15-.18.74-.14,1.03-.06a5.292,5.292,0,0,1,1.67-.14c-.02.22.46.09.71.13-.02.14-.31.08-.3.25.38,0,.5.36,1.18.25,0,.16.07.12,0,.25,1.41.02,2.73.15,4.06.27-5.02.06-10.36.05-14.94.26a20.591,20.591,0,0,0-3.03.02c-4.19.15-9.31.05-12.9.37.4.05.12.12.13.34.18.12.66.04.78.21-.27,0-.45.07-.77.05-.02.22.51.09.77.12-.02.14-.34.09-.32.25.41-.01.54.36,1.29.24,0,.16.07.12,0,.25,2.15,0,4.14.26,6.19.34,1.2-.12,3.16-.1,5.03-.07-.01.09.05.13.19.12-.05-.3.43.02.45-.09a36.4,36.4,0,0,1,3.87.1,5.066,5.066,0,0,1-.97.09c.05.13-.11.12-.06.25.23.02.16-.15.39-.13-.02.11.02.18.19.17-.03-.11-.11-.16.13-.17-.02.11-.13.14.13.13.2.01-.16-.12.06-.13.17.01.23.1.39.12a.325.325,0,0,1,.13-.13c-.04.11.13.08.19.12-.01-.09.05-.13.19-.13.07.04.02.15.19.12-.02-.11.13-.11.26-.13.09.03.01.16.13.17.14-.06-.08-.1.06-.13.1.06.14.13.13-.04.39.34.66-.09,1.48,0-.03.06-.08.07,0,.13.43-.12.73-.18.9,0,.21-.08.43-.19.64-.05.06-.04,0-.13.26-.13.14.24.6,0,.84.16.1-.03-.02-.21.19-.17,0,.07,0,.15.13.13.44-.32,1.11.07,1.35-.13.09.03.01.16.13.17.04-.1.2-.12.45-.17.12.14.31.01.52.12.1-.18.51-.13.71-.05.63-.29,1.49.01,2.13-.18.07.04.02.15.19.12.08-.29.85.07,1.1-.13.14.3.69-.2.97.12-.06-.22.21-.02.39-.13,0,.07,0,.15.13.13.2-.04.42-.06.52-.17.06.25.54-.11.84.12,0-.05-.01-.12.06-.13.3.32.71-.19,1.1.12.03-.07-.1-.11,0-.13.12.06.67,0,.65.12.24.04.1-.16.32-.13a3.173,3.173,0,0,0,.52.17c.06-.31.44.05.77-.17.27.29.56.03,1.1,0,.14.27-.39.11-.39.3.2-.08.54.07.84-.09-.17,0-.16-.12-.26-.17,0,.05.01.12-.06.13.03-.06-.08-.22.06-.21.24.08.26.05.52.12.03-.07-.1-.11,0-.13.32,0,.62.21.58,0,.13.01.17.08.26.12.03-.07-.1-.11,0-.13.2,0,.16.15.39.12,0-.1.33-.2.45-.09-.1,0-.22,0-.19.09.26.06.23-.08.32-.13.05.11.34.06.45.12.01-.23.71-.12.58,0,.21-.1.94-.19.71,0,.3.06.12-.17.32-.17.07.11.32.1.32.25-.16,0-.2-.08-.26.04.48.13,1.19-.1,1.61,0,.11-.03,0-.2.13-.21.42.07.73-.09,1.1-.05.33-.11,1.61.05,1.87-.05.01.05-.01.12.07.13a2.148,2.148,0,0,1,1.35-.05,15.949,15.949,0,0,1,2.45-.1c-.14.18.26.06.45.04-.08,0-.18,0-.19-.04,1.4.05,2.55.02,3.55.06.91.04,1.9-.14,2.77-.06a3.815,3.815,0,0,1,1.03.08c6.03-.09,12.55.08,19.41.27a24.551,24.551,0,0,0,3.93-.11c-.42-.12-1.13-.04-1.42-.24a1.733,1.733,0,0,0,1.09-.13c2.14.06,2.9-1.12,5.02-1.2-.68-.25-1.64-.32-2.33-.57,3.9.06,7.96.2,12.18.36a22.763,22.763,0,0,0,3.6-.08c-.38-.12-1.03-.05-1.3-.25a1.534,1.534,0,0,0,1-.12ZM58.1,7.26V7.09c.14,0,.4.02.52-.09.11.19.43,0,.45.21A3.772,3.772,0,0,0,58.1,7.26Z" fill="#df814e"/>
    </g>
  </g>
</svg>
