<svg xmlns="http://www.w3.org/2000/svg" xmlns:xlink="http://www.w3.org/1999/xlink" width="605.697" height="390.039" viewBox="0 0 605.697 390.039">
  <defs>
    <linearGradient id="linear-gradient" y1="0.5" x2="1" y2="0.5" gradientUnits="objectBoundingBox">
      <stop offset="0.004" stop-color="#e67330"/>
      <stop offset="1" stop-color="#e3611d"/>
    </linearGradient>
    <linearGradient id="linear-gradient-2" y1="0.5" x2="1" y2="0.5" gradientUnits="objectBoundingBox">
      <stop offset="0.004" stop-color="#ed843c"/>
      <stop offset="0.333" stop-color="#eb7d36"/>
      <stop offset="0.79" stop-color="#e66b26"/>
      <stop offset="1" stop-color="#e3611d"/>
    </linearGradient>
  </defs>
  <g id="logo-white" transform="translate(-183.984 -328.21)">
    <g id="Group_2" data-name="Group 2">
      <g id="Group_1" data-name="Group 1">
        <path id="Path_1" data-name="Path 1" d="M737.772,472.69l-18.42-45.17-14.22-34.86c-4-9.82-13.68-22.46-23.72-26.55l-89.59-36.54a17.142,17.142,0,0,0-6.45-1.36H466.7c-9.78,0-18.68,7.93-19.87,17.7-.94,7.64,3.11,14.15,9.59,16.63a16.433,16.433,0,0,0,5.95,1.08h23.35a15.441,15.441,0,0,1,1.81.1c8.81.9,14.85,8.43,13.73,17.6a19.666,19.666,0,0,1-3.85,9.39v.01a20.623,20.623,0,0,1-13.82,8.16,17.806,17.806,0,0,1-2.2.14H392c-9.78,0-18.68,7.93-19.87,17.71s5.76,17.7,15.54,17.7h66.14c9.77,0,16.73,7.93,15.54,17.7-.05.37-.1.74-.17,1.1-1.7,9.27-10.29,16.61-19.7,16.61H396.37c-9.78,0-18.67,7.92-19.87,17.7s5.77,17.7,15.54,17.7h78.73a15.221,15.221,0,0,1,14.88,10.49,16.726,16.726,0,0,1,.66,7.22,19.133,19.133,0,0,1-2.72,7.73,20.491,20.491,0,0,1-17.15,9.97H446.42c-9.78,0-18.67,7.93-19.87,17.7s5.76,17.71,15.54,17.71H648.95a12.822,12.822,0,0,0,6.85-1.93l.85-.54,67.63-67.63,4.68-4.67,6.81-6.82,1.68-1.68.52-.79C740.122,488.68,741.832,482.64,737.772,472.69Zm-103.05-21.28c-6.58-2.68-15.04-12.41-18.79-21.61l-25.87-63.44,68.21,27.82c6.58,2.68,15.03,12.41,18.79,21.61l25.87,63.44Zm36.02,95.37-.02.01c-1.18.73-2.9.73-5.09-.17l-89.59-36.54c-6.57-2.68-15.03-12.4-18.78-21.61l-25.88-63.44-6.77-16.6c-2.09-5.14-2.3-9.07-.93-11.07l10.69-10.69c-1.37,2.01-1.17,5.94.93,11.08l32.64,80.04c3.76,9.2,12.21,18.93,18.79,21.61l89.59,36.54c2.2.9,3.92.9,5.1.15Zm30.42-30.43c-1.18.75-2.9.75-5.11-.15l-89.58-36.54c-6.58-2.68-15.04-12.41-18.79-21.61l-25.87-63.44-6.77-16.6c-2.1-5.14-2.31-9.07-.93-11.08l8.51-8.51c-1.37,2.01-1.17,5.94.93,11.08l32.64,80.04c3.76,9.2,12.21,18.93,18.79,21.61l89.59,36.54c2.2.9,3.92.9,5.1.15Z" fill="#fff"/>
        <path id="Path_2" data-name="Path 2" d="M357.541,452.13c1.2-9.77-5.76-17.7-15.54-17.7h-62.24c-9.77,0-18.67,7.93-19.86,17.7s5.76,17.71,15.54,17.71h62.23C347.451,469.84,356.351,461.91,357.541,452.13Z" fill="#fff"/>
        <path id="Path_3" data-name="Path 3" d="M350.951,363.62h63.91c9.78,0,18.67-7.93,19.87-17.71s-5.77-17.7-15.54-17.7h-63.92c-9.77,0-18.67,7.93-19.86,17.7S341.171,363.62,350.951,363.62Z" fill="#fff"/>
        <path id="Path_4" data-name="Path 4" d="M398.141,540.65h-56.25c-9.78,0-18.67,7.93-19.87,17.7s5.77,17.71,15.54,17.71h56.25c9.78,0,18.67-7.93,19.87-17.71S407.921,540.65,398.141,540.65Z" fill="#fff"/>
      </g>
      <path id="Path_5" data-name="Path 5" d="M730.422,487.09l-1.01,1.01c-1.18.75-2.9.75-5.11-.15l-21.37-8.72-25.87-63.44c-3.76-9.2-12.21-18.93-18.79-21.61l-68.21-27.82-6.77-16.6c-2.1-5.14-2.31-9.07-.93-11.08l.89-.89c1.18-.79,2.92-.8,5.17.11l89.59,36.54c6.58,2.68,15.03,12.41,18.79,21.61l32.64,80.04C731.512,481.17,731.742,485.07,730.422,487.09Z" fill-rule="evenodd" fill="url(#linear-gradient)"/>
      <path id="Path_6" data-name="Path 6" d="M729.412,488.1l-10.78,10.79c-.01,0-.01.01-.02.01l-8.94,8.94c-1.18.75-2.9.75-5.1-.15l-89.59-36.54c-6.58-2.68-15.03-12.41-18.79-21.61l-32.64-80.04c-2.1-5.14-2.3-9.07-.93-11.08l4.24-4.24,4.71-4.71,10.79-10.79c-1.38,2.01-1.17,5.94.93,11.08l6.77,16.6,25.87,63.44c3.75,9.2,12.21,18.93,18.79,21.61l68.21,27.82,21.37,8.72C726.512,488.85,728.232,488.85,729.412,488.1Z" fill-rule="evenodd" fill="url(#linear-gradient-2)"/>
      <path id="Path_7" data-name="Path 7" d="M701.162,516.35l-19.74,19.74c-1.18.75-2.9.75-5.1-.15l-89.59-36.54c-6.58-2.68-15.03-12.41-18.79-21.61L535.3,397.75c-2.1-5.14-2.3-9.07-.93-11.08l19.74-19.74c-1.38,2.01-1.17,5.94.93,11.08l6.77,16.6,25.87,63.44c3.75,9.2,12.21,18.93,18.79,21.61l89.58,36.54C698.262,517.1,699.982,517.1,701.162,516.35Z" fill-rule="evenodd" fill="url(#linear-gradient-2)"/>
      <path id="Path_8" data-name="Path 8" d="M670.742,546.78l-18.73,18.73L651,566.52c-1.18.74-2.91.74-5.11-.16l-89.58-36.54c-6.58-2.68-15.04-12.41-18.79-21.61l-32.65-80.04c-2.09-5.14-2.3-9.07-.93-11.07l13-13,6.74-6.74c-1.37,2-1.16,5.93.93,11.07l6.77,16.6,25.88,63.44c3.75,9.21,12.21,18.93,18.78,21.61l89.59,36.54c2.19.9,3.91.9,5.09.17Z" fill-rule="evenodd" fill="url(#linear-gradient-2)"/>
      <path id="Path_9" data-name="Path 9" d="M729.412,488.1l-10.78,10.79c-.01,0-.01.01-.02.01-1.18.73-2.9.73-5.09-.17l-89.59-36.53c-6.57-2.69-15.03-12.41-18.78-21.62l-25.88-63.44-6.77-16.6c-2.09-5.14-2.3-9.07-.93-11.07l10.79-10.79c-1.38,2.01-1.17,5.94.93,11.08l6.77,16.6,25.87,63.44c3.75,9.2,12.21,18.93,18.79,21.61l68.21,27.82,21.37,8.72C726.512,488.85,728.232,488.85,729.412,488.1Z" fill="#fff" fill-rule="evenodd" opacity="0.3"/>
    </g>
    <g id="Group_4" data-name="Group 4">
      <g id="Group_3" data-name="Group 3">
        <path id="Path_10" data-name="Path 10" d="M251.967,696.684H251.8a28.1,28.1,0,0,1-10.747-1.938,17.571,17.571,0,0,1-7.258-5.374l-.055-.055a36.045,36.045,0,0,1-10.64,5.373,42.635,42.635,0,0,1-13.129,1.994,35.2,35.2,0,0,1-12.3-1.994,21.857,21.857,0,0,1-8.753-5.706,19.561,19.561,0,0,1-4.433-9.307,30.717,30.717,0,0,1,.333-12.631,37.722,37.722,0,0,1,4.986-12.41,35.053,35.053,0,0,1,8.421-9.307,37.456,37.456,0,0,1,11.191-5.817,42.1,42.1,0,0,1,13.073-1.995h31.358L246.7,671.145q-1.275,5.817.941,8.865,2.161,3.047,7.2,3.046a5.3,5.3,0,0,1,4.4,1.995,5.513,5.513,0,0,1,.969,4.819,8.458,8.458,0,0,1-3.019,4.82A8.041,8.041,0,0,1,251.967,696.684Zm-16.952-45.539H219.558a17.882,17.882,0,0,0-6.427,1.163,17.44,17.44,0,0,0-5.594,3.325,22.259,22.259,0,0,0-4.212,5.042,21.439,21.439,0,0,0-2.493,6.371,18.576,18.576,0,0,0-.276,6.481,11.36,11.36,0,0,0,2.16,5.041,10.627,10.627,0,0,0,4.211,3.269,13.585,13.585,0,0,0,5.928,1.219,17.858,17.858,0,0,0,6.592-1.219,18.119,18.119,0,0,0,5.54-3.269,19.136,19.136,0,0,0,4.1-5.041,20.228,20.228,0,0,0,2.493-6.481ZM208.09,623.889a8.452,8.452,0,0,1,1.274-2.992,9.874,9.874,0,0,1,2.217-2.1,11.709,11.709,0,0,1,2.77-1.274,10.5,10.5,0,0,1,2.991-.444,8.214,8.214,0,0,1,2.714.444,5.9,5.9,0,0,1,2.272,1.274,4.9,4.9,0,0,1,1.385,2.1,5.434,5.434,0,0,1,.056,2.992,7.282,7.282,0,0,1-1.276,2.936,9.9,9.9,0,0,1-2.326,2.161,10.354,10.354,0,0,1-2.825,1.274,9.736,9.736,0,0,1-2.88.443,8.871,8.871,0,0,1-2.827-.443,6.57,6.57,0,0,1-2.215-1.274,5.354,5.354,0,0,1-1.33-5.1Zm18.947,0a8.434,8.434,0,0,1,1.274-2.992,8.526,8.526,0,0,1,2.216-2.1,10.715,10.715,0,0,1,2.715-1.274,10.5,10.5,0,0,1,2.992-.444,8.725,8.725,0,0,1,2.77.444,6.5,6.5,0,0,1,2.271,1.274,4.483,4.483,0,0,1,1.329,2.1,5.434,5.434,0,0,1,.056,2.992,7.293,7.293,0,0,1-1.274,2.936,9.051,9.051,0,0,1-2.271,2.161,11.476,11.476,0,0,1-2.826,1.274,10.293,10.293,0,0,1-2.936.443,8.863,8.863,0,0,1-2.826-.443,5.982,5.982,0,0,1-2.161-1.274,5.1,5.1,0,0,1-1.274-2.161,6.01,6.01,0,0,1-.055-2.936Z" fill="#fff"/>
        <path id="Path_11" data-name="Path 11" d="M254.847,683.056h14.9a5.3,5.3,0,0,1,4.4,1.995,5.513,5.513,0,0,1,.969,4.819,8.461,8.461,0,0,1-3.018,4.82,8.046,8.046,0,0,1-5.236,1.994h-14.9a5.3,5.3,0,0,1-4.4-1.994,5.514,5.514,0,0,1-.969-4.82,8.458,8.458,0,0,1,3.019-4.819A8.044,8.044,0,0,1,254.847,683.056Z" fill="#fff"/>
        <path id="Path_12" data-name="Path 12" d="M269.75,683.056h14.9a5.3,5.3,0,0,1,4.4,1.995,5.513,5.513,0,0,1,.97,4.819A8.458,8.458,0,0,1,287,694.69a8.045,8.045,0,0,1-5.235,1.994h-14.9a5.3,5.3,0,0,1-4.4-1.994,5.511,5.511,0,0,1-.97-4.82,8.458,8.458,0,0,1,3.019-4.819A8.046,8.046,0,0,1,269.75,683.056Z" fill="#fff"/>
        <path id="Path_13" data-name="Path 13" d="M284.652,683.056h14.9a5.3,5.3,0,0,1,4.4,1.995,5.51,5.51,0,0,1,.97,4.819,8.458,8.458,0,0,1-3.019,4.82,8.045,8.045,0,0,1-5.235,1.994h-14.9a5.3,5.3,0,0,1-4.4-1.994,5.511,5.511,0,0,1-.97-4.82,8.458,8.458,0,0,1,3.019-4.819A8.046,8.046,0,0,1,284.652,683.056Z" fill="#fff"/>
        <path id="Path_14" data-name="Path 14" d="M299.556,683.056h14.9a5.3,5.3,0,0,1,4.4,1.995,5.513,5.513,0,0,1,.969,4.819,8.458,8.458,0,0,1-3.019,4.82,8.043,8.043,0,0,1-5.235,1.994h-14.9a5.3,5.3,0,0,1-4.4-1.994,5.514,5.514,0,0,1-.969-4.82,8.462,8.462,0,0,1,3.018-4.819A8.047,8.047,0,0,1,299.556,683.056Z" fill="#fff"/>
        <path id="Path_15" data-name="Path 15" d="M388.972,689.372l-.056-.055a35.189,35.189,0,0,1-10.636,5.373,42.648,42.648,0,0,1-13.131,1.994H311.577l2.881-13.628h7.423l9.7-45.539h14.958l-.442,2.05.332-.111a36.241,36.241,0,0,1,10.3-1.939h21a35.2,35.2,0,0,1,12.3,1.995,20.278,20.278,0,0,1,8.643,5.706,19.563,19.563,0,0,1,4.431,9.307,30.714,30.714,0,0,1-.332,12.631q-.222,1.053-.5,2.1l-.443,1.94q-1.22,5.763,1,8.809,2.16,3.047,7.2,3.046a5.3,5.3,0,0,1,4.4,1.995,5.513,5.513,0,0,1,.971,4.819,8.47,8.47,0,0,1-3.02,4.82,8.045,8.045,0,0,1-5.235,1.994h-.166a28.108,28.108,0,0,1-10.749-1.938A17.558,17.558,0,0,1,388.972,689.372Zm-20.942-6.316a19,19,0,0,0,6.592-1.136,17.935,17.935,0,0,0,5.513-3.184,19.037,19.037,0,0,0,4.127-5.015,22.424,22.424,0,0,0,2.493-6.565,18.941,18.941,0,0,0,.5-4.155,12.127,12.127,0,0,0-2.217-7.424,9.8,9.8,0,0,0-4.126-3.269,15.039,15.039,0,0,0-6.122-1.163H355.232a12.406,12.406,0,0,0-8.448,3.02A15.783,15.783,0,0,0,342.048,663l-4.266,20.055Z" fill="#fff"/>
        <path id="Path_16" data-name="Path 16" d="M410.023,683.056h14.9a5.3,5.3,0,0,1,4.4,1.995,5.51,5.51,0,0,1,.97,4.819,8.458,8.458,0,0,1-3.019,4.82,8.045,8.045,0,0,1-5.235,1.994h-14.9a5.3,5.3,0,0,1-4.4-1.994,5.511,5.511,0,0,1-.969-4.82,8.457,8.457,0,0,1,3.018-4.819A8.046,8.046,0,0,1,410.023,683.056Z" fill="#fff"/>
        <path id="Path_17" data-name="Path 17" d="M424.926,683.056h14.9a5.3,5.3,0,0,1,4.4,1.995,5.513,5.513,0,0,1,.969,4.819,8.458,8.458,0,0,1-3.019,4.82,8.043,8.043,0,0,1-5.235,1.994h-14.9a5.3,5.3,0,0,1-4.4-1.994,5.514,5.514,0,0,1-.969-4.82,8.457,8.457,0,0,1,3.018-4.819A8.047,8.047,0,0,1,424.926,683.056Z" fill="#fff"/>
        <path id="Path_18" data-name="Path 18" d="M439.829,683.056h14.9a5.3,5.3,0,0,1,4.4,1.995,5.513,5.513,0,0,1,.969,4.819,8.458,8.458,0,0,1-3.019,4.82,8.043,8.043,0,0,1-5.235,1.994h-14.9a5.3,5.3,0,0,1-4.4-1.994,5.514,5.514,0,0,1-.969-4.82,8.458,8.458,0,0,1,3.019-4.819,8.044,8.044,0,0,1,5.235-1.995Z" fill="#fff"/>
        <path id="Path_19" data-name="Path 19" d="M454.731,683.056h14.9a5.3,5.3,0,0,1,4.4,1.995A5.513,5.513,0,0,1,475,689.87a8.458,8.458,0,0,1-3.019,4.82,8.041,8.041,0,0,1-5.235,1.994h-14.9a5.3,5.3,0,0,1-4.4-1.994,5.514,5.514,0,0,1-.969-4.82,8.459,8.459,0,0,1,3.019-4.819,8.044,8.044,0,0,1,5.235-1.995Z" fill="#fff"/>
        <path id="Path_20" data-name="Path 20" d="M469.634,683.056h14.9a5.3,5.3,0,0,1,4.4,1.995,5.51,5.51,0,0,1,.969,4.819,8.456,8.456,0,0,1-3.018,4.82,8.045,8.045,0,0,1-5.235,1.994h-14.9a5.3,5.3,0,0,1-4.4-1.994,5.511,5.511,0,0,1-.97-4.82,8.459,8.459,0,0,1,3.019-4.819,8.047,8.047,0,0,1,5.235-1.995Z" fill="#fff"/>
        <path id="Path_21" data-name="Path 21" d="M486.088,718.236a8.388,8.388,0,0,1-2.77-.444,6.052,6.052,0,0,1-2.188-1.3,4.755,4.755,0,0,1-1.3-2.188,4.518,4.518,0,0,1-.222-1.44,7.178,7.178,0,0,1,.166-1.5,7.844,7.844,0,0,1,3.435-4.959,10.325,10.325,0,0,1,5.817-1.8,8.523,8.523,0,0,1,2.715.443,6.5,6.5,0,0,1,2.272,1.274,4.413,4.413,0,0,1,1.605,3.491,6.118,6.118,0,0,1-.22,1.551,7.276,7.276,0,0,1-1.276,2.936,9.24,9.24,0,0,1-2.243,2.16,9.937,9.937,0,0,1-2.825,1.33,10.615,10.615,0,0,1-2.966.446Zm15.567-27.756a30.223,30.223,0,0,1-8.476,4.377,37.36,37.36,0,0,1-11.524,1.716l2.881-13.628a12.771,12.771,0,0,0,8.421-2.992q3.546-2.991,4.931-9.529l5.6-26.093h22.325l-2.881,13.628H516.4L513.566,671.2q-1.219,5.816,1,8.809,2.158,3.047,7.146,3.046a5.3,5.3,0,0,1,4.4,1.995,5.513,5.513,0,0,1,.969,4.819,8.411,8.411,0,0,1-3.046,4.82,7.874,7.874,0,0,1-5.153,1.994h-.331a29.265,29.265,0,0,1-10.638-1.938,18.268,18.268,0,0,1-6.258-4.265Zm3.379,27.756a6.735,6.735,0,0,1-4.985-1.774,4.6,4.6,0,0,1-1.552-3.6,7.116,7.116,0,0,1,.167-1.5,7.972,7.972,0,0,1,3.489-4.987,10.359,10.359,0,0,1,5.762-1.772,7.581,7.581,0,0,1,5.042,1.717,4.6,4.6,0,0,1,1.55,3.6,6.909,6.909,0,0,1-.165,1.441,8.251,8.251,0,0,1-3.546,5.1,10.177,10.177,0,0,1-5.762,1.775Z" fill="#fff"/>
        <path id="Path_22" data-name="Path 22" d="M521.71,683.056h14.9a5.3,5.3,0,0,1,4.4,1.995,5.51,5.51,0,0,1,.97,4.819,8.458,8.458,0,0,1-3.019,4.82,8.045,8.045,0,0,1-5.235,1.994h-14.9a5.3,5.3,0,0,1-4.4-1.994,5.511,5.511,0,0,1-.969-4.82,8.457,8.457,0,0,1,3.018-4.819A8.046,8.046,0,0,1,521.71,683.056Z" fill="#fff"/>
        <path id="Path_23" data-name="Path 23" d="M536.612,683.056h14.9a5.3,5.3,0,0,1,4.4,1.995,5.51,5.51,0,0,1,.97,4.819,8.458,8.458,0,0,1-3.019,4.82,8.045,8.045,0,0,1-5.235,1.994h-14.9a5.3,5.3,0,0,1-4.4-1.994,5.511,5.511,0,0,1-.969-4.82,8.457,8.457,0,0,1,3.018-4.819,8.046,8.046,0,0,1,5.235-2Z" fill="#fff"/>
        <path id="Path_24" data-name="Path 24" d="M551.515,683.056h14.9a5.3,5.3,0,0,1,4.4,1.995,5.513,5.513,0,0,1,.969,4.819,8.457,8.457,0,0,1-3.019,4.82,8.043,8.043,0,0,1-5.235,1.994h-14.9a5.3,5.3,0,0,1-4.4-1.994,5.514,5.514,0,0,1-.969-4.82,8.461,8.461,0,0,1,3.018-4.819,8.047,8.047,0,0,1,5.236-2Z" fill="#fff"/>
        <path id="Path_25" data-name="Path 25" d="M566.418,683.056h14.9a5.3,5.3,0,0,1,4.4,1.995,5.513,5.513,0,0,1,.969,4.819,8.457,8.457,0,0,1-3.019,4.82,8.041,8.041,0,0,1-5.235,1.994h-14.9a5.3,5.3,0,0,1-4.4-1.994,5.514,5.514,0,0,1-.969-4.82,8.459,8.459,0,0,1,3.019-4.819,8.044,8.044,0,0,1,5.235-1.995Z" fill="#fff"/>
        <path id="Path_26" data-name="Path 26" d="M581.32,683.056h14.9a5.3,5.3,0,0,1,4.4,1.995,5.513,5.513,0,0,1,.969,4.819,8.458,8.458,0,0,1-3.019,4.82,8.041,8.041,0,0,1-5.235,1.994h-14.9a5.3,5.3,0,0,1-4.4-1.994,5.514,5.514,0,0,1-.969-4.82,8.459,8.459,0,0,1,3.019-4.819,8.044,8.044,0,0,1,5.235-1.995Z" fill="#fff"/>
        <path id="Path_27" data-name="Path 27" d="M593.342,696.684l2.881-13.628a12.417,12.417,0,0,0,8.5-3.046,15.678,15.678,0,0,0,4.682-8.865l10.082-47.256h15.9l-10.028,47.034a34.5,34.5,0,0,1-3.906,10.278,30.276,30.276,0,0,1-6.869,8.171,30.926,30.926,0,0,1-9.474,5.346,35.657,35.657,0,0,1-11.768,1.966Z" fill="#fff"/>
        <path id="Path_28" data-name="Path 28" d="M708.044,685.051a5.277,5.277,0,0,0-4.4-2q-5,0-7.153-3.046-2.209-3-1-8.8l.886-4.158a30.188,30.188,0,0,0,.338-12.522,19.721,19.721,0,0,0-4.383-9.25,20.766,20.766,0,0,0-8.689-5.818,35.5,35.5,0,0,0-12.247-1.935,42.948,42.948,0,0,0-13.183,1.985,36.043,36.043,0,0,0-11.137,5.817,35,35,0,0,0-8.476,9.251,39.017,39.017,0,0,0-4.932,12.472,31.5,31.5,0,0,0-.387,12.635,19.731,19.731,0,0,0,4.482,9.251,21.659,21.659,0,0,0,8.7,5.755,35.254,35.254,0,0,0,12.359,2,42,42,0,0,0,13.072-2q1.5-.506,2.884-1.049a14.363,14.363,0,0,1-4.382,7.528,12.293,12.293,0,0,1-8.477,3.047l-3,13.907a35.73,35.73,0,0,0,11.748-1.935,30.763,30.763,0,0,0,9.526-5.381,29.776,29.776,0,0,0,6.879-8.14,34.168,34.168,0,0,0,3.108-7.178c.063-.175.113-.35.163-.524a28.862,28.862,0,0,0,10.249,1.722h.162a8.011,8.011,0,0,0,5.232-2,8.452,8.452,0,0,0,3.021-4.819,5.506,5.506,0,0,0-.963-4.815Zm-27.615-18a22.246,22.246,0,0,1-2.485,6.48,20.243,20.243,0,0,1-4.132,5.044,18.113,18.113,0,0,1-5.544,3.27A18.689,18.689,0,0,1,661.7,683a14.473,14.473,0,0,1-6-1.161,10.817,10.817,0,0,1-4.183-3.27,11.342,11.342,0,0,1-2.109-5.044,12.544,12.544,0,0,1-.225-2.385,18.729,18.729,0,0,1,.5-4.1,20.64,20.64,0,0,1,6.68-11.448,18.5,18.5,0,0,1,12.109-4.457q6.967,0,10.25,4.32a11.786,11.786,0,0,1,2.21,7.378,18.986,18.986,0,0,1-.5,4.215Z" fill="#fff"/>
        <path id="Path_29" data-name="Path 29" d="M703.644,683.056h14.9a5.3,5.3,0,0,1,4.4,1.995,5.51,5.51,0,0,1,.97,4.819,8.458,8.458,0,0,1-3.019,4.82,8.045,8.045,0,0,1-5.235,1.994h-14.9a5.3,5.3,0,0,1-4.4-1.994,5.511,5.511,0,0,1-.97-4.82,8.459,8.459,0,0,1,3.019-4.819,8.046,8.046,0,0,1,5.235-2Z" fill="#e3611d"/>
        <path id="Path_30" data-name="Path 30" d="M718.546,683.056h14.9a5.3,5.3,0,0,1,4.4,1.995,5.51,5.51,0,0,1,.97,4.819,8.458,8.458,0,0,1-3.019,4.82,8.045,8.045,0,0,1-5.235,1.994h-14.9a5.3,5.3,0,0,1-4.4-1.994,5.515,5.515,0,0,1-.97-4.82,8.459,8.459,0,0,1,3.019-4.819,8.046,8.046,0,0,1,5.235-1.995Z" fill="#e3611d"/>
        <path id="Path_31" data-name="Path 31" d="M733.45,683.056h14.9a5.3,5.3,0,0,1,4.4,1.995,5.513,5.513,0,0,1,.969,4.819,8.457,8.457,0,0,1-3.019,4.82,8.044,8.044,0,0,1-5.235,1.994h-14.9a5.3,5.3,0,0,1-4.4-1.994,5.514,5.514,0,0,1-.969-4.82,8.463,8.463,0,0,1,3.018-4.819,8.047,8.047,0,0,1,5.236-2Z" fill="#e3611d"/>
        <path id="Path_32" data-name="Path 32" d="M745.471,696.573l2.881-13.628a12.773,12.773,0,0,0,8.421-2.992q3.6-2.991,4.986-9.529l5.54-26.093h22.382l-2.937,13.628h-6.537l-2.659,12.465Q775,682.892,766.441,689.731T745.471,696.573Zm13.906,21.663a8.64,8.64,0,0,1-2.8-.444,5.767,5.767,0,0,1-2.189-1.3,4.888,4.888,0,0,1-1.274-2.188,4.544,4.544,0,0,1-.222-1.44,7.183,7.183,0,0,1,.167-1.5,7.57,7.57,0,0,1,3.49-5.042,10.32,10.32,0,0,1,5.707-1.717,8.7,8.7,0,0,1,2.77.443,6.491,6.491,0,0,1,2.271,1.274,4.472,4.472,0,0,1,1.329,2.106,4.7,4.7,0,0,1,.222,1.495,6.9,6.9,0,0,1-.166,1.441,7.721,7.721,0,0,1-3.545,5.1,10.179,10.179,0,0,1-5.76,1.772Z" fill="#e3611d"/>
      </g>
      <path id="Path_33" data-name="Path 33" d="M709.018,689.87A8.452,8.452,0,0,1,706,694.689a8.011,8.011,0,0,1-5.232,2H700.6a28.862,28.862,0,0,1-10.249-1.722c-.05.174-.1.349-.163.524l6.192-28.44-.886,4.158q-1.217,5.8,1,8.8,2.154,3.052,7.153,3.046a5.277,5.277,0,0,1,4.4,2,5.506,5.506,0,0,1,.971,4.815Z" fill="#e3611d"/>
    </g>
  </g>
</svg>
