<svg xmlns="http://www.w3.org/2000/svg" width="34.906" height="34.644" viewBox="0 0 34.906 34.644">
  <g id="mobile-phones_hp" transform="translate(-0.547 -0.725)">
    <g id="Layer_2">
      <g id="Group_2" data-name="Group 2">
        <path id="Path_13" data-name="Path 13" d="M3.442,23.931c6.061,3.333,8.5,8.761,11.417,10.367s9.978,3.3,17.366-10.137S32.446,4.216,29.233,2.45C14.191-5.822-7.292,18.028,3.442,23.931Z" fill="#efefef"/>
      </g>
    </g>
    <g id="color">
      <g id="Group_3" data-name="Group 3">
        <path id="Path_14" data-name="Path 14" d="M21.25,8.75v18.5a2.006,2.006,0,0,1-2,2H8.75a2.006,2.006,0,0,1-2-2V8.75a2.006,2.006,0,0,1,2-2h.5a1.5,1.5,0,0,1,1.5,1.5,1,1,0,0,0,1,1h4.5a1,1,0,0,0,1-1,1.5,1.5,0,0,1,1.5-1.5h.5A2.006,2.006,0,0,1,21.25,8.75Z" fill="#f3f3f1"/>
      </g>
      <g id="Group_5" data-name="Group 5">
        <g id="Group_4" data-name="Group 4">
          <path id="Path_15" data-name="Path 15" d="M9,27.25V8.75a2,2,0,0,1,1.066-1.757A1.5,1.5,0,0,0,9.25,6.75h-.5a2.006,2.006,0,0,0-2,2v18.5a2.006,2.006,0,0,0,2,2H11A2.006,2.006,0,0,1,9,27.25Z" fill="#d5dbe1"/>
        </g>
      </g>
      <g id="Group_6" data-name="Group 6">
        <circle id="Ellipse_1" data-name="Ellipse 1" cx="1.25" cy="1.25" r="1.25" transform="translate(21.25 16.75)" fill="#f3f3f1"/>
      </g>
      <g id="Group_7" data-name="Group 7">
        <path id="Path_16" data-name="Path 16" d="M28.25,22.25H16.75a1,1,0,0,1-1-1v-6.5a1,1,0,0,1,1-1h11.5a1,1,0,0,1,1,1v6.5A1,1,0,0,1,28.25,22.25Z" fill="#f7a45d"/>
      </g>
      <g id="Group_8" data-name="Group 8">
        <path id="Path_17" data-name="Path 17" d="M18,21.25v-6.5a1,1,0,0,1,1-1H16.75a1,1,0,0,0-1,1v6.5a1,1,0,0,0,1,1H19A1,1,0,0,1,18,21.25Z" fill="#dd7b26"/>
      </g>
      <g id="Group_9" data-name="Group 9">
        <path id="Path_18" data-name="Path 18" d="M18.75,6.75a1.5,1.5,0,0,0-1.5,1.5,1,1,0,0,1-1,1h-4.5a1,1,0,0,1-1-1,1.5,1.5,0,0,0-1.5-1.5Z" fill="#f7a45d"/>
      </g>
      <g id="Group_10" data-name="Group 10">
        <path id="Path_19" data-name="Path 19" d="M13,8.25a1.5,1.5,0,0,0-1.5-1.5H9.25a1.5,1.5,0,0,1,1.5,1.5,1,1,0,0,0,1,1H14A1,1,0,0,1,13,8.25Z" fill="#dd7b26"/>
      </g>
      <g id="Group_15" data-name="Group 15">
        <g id="Group_11" data-name="Group 11">
          <path id="Path_20" data-name="Path 20" d="M30.875,28.875h2v1h-2Z" fill="#a4afc1"/>
        </g>
        <g id="Group_12" data-name="Group 12">
          <path id="Path_21" data-name="Path 21" d="M25.125,28.875h2v1h-2Z" fill="#a4afc1"/>
        </g>
        <g id="Group_13" data-name="Group 13">
          <path id="Path_22" data-name="Path 22" d="M28.625,25.375h1v2h-1Z" fill="#a4afc1"/>
        </g>
        <g id="Group_14" data-name="Group 14">
          <path id="Path_23" data-name="Path 23" d="M28.625,31.125h1v2h-1Z" fill="#a4afc1"/>
        </g>
      </g>
      <g id="Group_16" data-name="Group 16">
        <path id="Path_24" data-name="Path 24" d="M22.5,5.375a1.5,1.5,0,1,1,1.5-1.5A1.5,1.5,0,0,1,22.5,5.375Zm0-2a.5.5,0,1,0,.5.5A.5.5,0,0,0,22.5,3.375Z" fill="#a4afc1"/>
      </g>
    </g>
    <g id="line">
      <g id="Group_17" data-name="Group 17">
        <path id="Path_25" data-name="Path 25" d="M22.5,20a2,2,0,1,1,2-2A2,2,0,0,1,22.5,20Zm0-2.5a.5.5,0,1,0,.5.5A.5.5,0,0,0,22.5,17.5Z"/>
      </g>
      <g id="Group_18" data-name="Group 18">
        <path id="Path_26" data-name="Path 26" d="M17.5,17.25h1v1.5h-1Z"/>
      </g>
      <g id="Group_19" data-name="Group 19">
        <path id="Path_27" data-name="Path 27" d="M26.5,17.25h1v1.5h-1Z"/>
      </g>
      <g id="Group_20" data-name="Group 20">
        <path id="Path_28" data-name="Path 28" d="M28.25,23H16.75A1.752,1.752,0,0,1,15,21.25v-6.5A1.752,1.752,0,0,1,16.75,13h11.5A1.752,1.752,0,0,1,30,14.75v6.5A1.752,1.752,0,0,1,28.25,23Zm-11.5-8.5a.25.25,0,0,0-.25.25v6.5a.25.25,0,0,0,.25.25h11.5a.25.25,0,0,0,.25-.25v-6.5a.25.25,0,0,0-.25-.25Z"/>
      </g>
      <g id="Group_23" data-name="Group 23">
        <g id="Group_21" data-name="Group 21">
          <path id="Path_29" data-name="Path 29" d="M16.25,10h-4.5A1.752,1.752,0,0,1,10,8.25a.75.75,0,0,0-.75-.75h-.5V6h.5A2.252,2.252,0,0,1,11.5,8.25a.25.25,0,0,0,.25.25h4.5a.25.25,0,0,0,.25-.25A2.252,2.252,0,0,1,18.75,6h.5V7.5h-.5a.75.75,0,0,0-.75.75A1.752,1.752,0,0,1,16.25,10Z"/>
        </g>
        <g id="Group_22" data-name="Group 22">
          <path id="Path_30" data-name="Path 30" d="M19.25,30H8.75A2.752,2.752,0,0,1,6,27.25V8.75A2.752,2.752,0,0,1,8.75,6h10.5A2.752,2.752,0,0,1,22,8.75v1.5H20.5V8.75A1.252,1.252,0,0,0,19.25,7.5H8.75A1.252,1.252,0,0,0,7.5,8.75v18.5A1.252,1.252,0,0,0,8.75,28.5h10.5a1.252,1.252,0,0,0,1.25-1.25v-1.5H22v1.5A2.752,2.752,0,0,1,19.25,30Z"/>
        </g>
      </g>
    </g>
  </g>
</svg>
