<svg xmlns="http://www.w3.org/2000/svg" width="34.833" height="31.42" viewBox="0 0 34.833 31.42">
  <g id="money-growth_hp" transform="translate(-0.583 -2.29)">
    <path id="Path_31" data-name="Path 31" d="M31.833,8.377c0,6.917,3.583,11.667,3.583,15S33.5,33.71,18.167,33.71.583,24.293.583,20.627c0-17.167,31.25-24.5,31.25-12.25Z" fill="#efefef"/>
    <g id="Group_24" data-name="Group 24">
      <path id="Path_32" data-name="Path 32" d="M28.467,4.967h1v2h-1Z" transform="translate(4.262 22.226) rotate(-45)" fill="#a4afc1"/>
      <path id="Path_33" data-name="Path 33" d="M32.533,9.033h1v2h-1Z" transform="translate(2.578 26.291) rotate(-45)" fill="#a4afc1"/>
      <path id="Path_34" data-name="Path 34" d="M31.856,5.467h2v1h-2Z" transform="translate(5.404 24.981) rotate(-45)" fill="#a4afc1"/>
    </g>
    <path id="Path_35" data-name="Path 35" d="M6.75,18.75v8.5H9.5l2-7.386S10.042,18.75,6.75,18.75Z" fill="#f7a45d"/>
    <path id="Path_36" data-name="Path 36" d="M26.75,24a16.31,16.31,0,0,0-4.25,1.071V24.64a2,2,0,0,0-1.6-1.96l-9.63-1.97L9.78,26.13c1.91.9,6.83,3.12,9.22,3.12,3,0,10.25-4,10.25-4A2.5,2.5,0,0,0,26.75,24Z" fill="#f3f3f1"/>
    <path id="Path_37" data-name="Path 37" d="M15.25,6.75H7.75a1,1,0,0,0-1,1v4.5a1,1,0,0,0,1,1h7.5a1,1,0,0,0,1-1V7.75A1,1,0,0,0,15.25,6.75Z" fill="#f7a45d"/>
    <path id="Path_38" data-name="Path 38" d="M28.25,10.75h-7.5a1,1,0,0,0-1,1v4.5a1,1,0,0,0,1,1h7.5a1,1,0,0,0,1-1v-4.5A1,1,0,0,0,28.25,10.75Z" fill="#f7a45d"/>
    <path id="Path_39" data-name="Path 39" d="M6.75,18.75v8.5H9v-8.3A12.155,12.155,0,0,0,6.75,18.75Z" fill="#dd7b26"/>
    <path id="Path_40" data-name="Path 40" d="M12.03,26.13l1.37-4.984-2.13-.436L9.78,26.13c1.91.9,6.83,3.12,9.22,3.12a5.7,5.7,0,0,0,1.077-.131A41.167,41.167,0,0,1,12.03,26.13Z" fill="#d5dbe1"/>
    <path id="Path_41" data-name="Path 41" d="M9,12.25V7.75a1,1,0,0,1,1-1H7.75a1,1,0,0,0-1,1v4.5a1,1,0,0,0,1,1H10A1,1,0,0,1,9,12.25Z" fill="#dd7b26"/>
    <path id="Path_42" data-name="Path 42" d="M22,16.25v-4.5a1,1,0,0,1,1-1H20.75a1,1,0,0,0-1,1v4.5a1,1,0,0,0,1,1H23A1,1,0,0,1,22,16.25Z" fill="#dd7b26"/>
    <path id="Path_43" data-name="Path 43" d="M28.25,18h-6.5V16.5h6.5a.253.253,0,0,0,.25-.25v-4.5a.253.253,0,0,0-.25-.25h-8.5V10h8.5A1.752,1.752,0,0,1,30,11.75v4.5A1.752,1.752,0,0,1,28.25,18Z"/>
    <path id="Path_44" data-name="Path 44" d="M24.5,13H27v1.5H24.5Z"/>
    <path id="Path_45" data-name="Path 45" d="M13.25,14H7.75A1.752,1.752,0,0,1,6,12.25V7.75A1.752,1.752,0,0,1,7.75,6h8.5V7.5H7.75a.253.253,0,0,0-.25.25v4.5a.253.253,0,0,0,.25.25h5.5Z"/>
    <path id="Path_46" data-name="Path 46" d="M18.75,18.31h-1.5v-.75a4.815,4.815,0,0,1,4.81-4.81H23v1.5h-.94a3.314,3.314,0,0,0-3.31,3.31Z"/>
    <path id="Path_47" data-name="Path 47" d="M18.75,22.5h-1.5V16a5.784,5.784,0,0,0-3.761-5.4l-.7-.261.521-1.406.7.261A7.287,7.287,0,0,1,18.749,16v6.5Z"/>
    <path id="Path_48" data-name="Path 48" d="M9.5,28H6.75A.75.75,0,0,1,6,27.25v-8.5A.75.75,0,0,1,6.75,18c3.506,0,5.138,1.217,5.2,1.269a.75.75,0,0,1,.269.792l-2,7.386A.75.75,0,0,1,9.5,28Zm-2-1.5H8.926l1.7-6.271A8.5,8.5,0,0,0,7.5,19.522Z"/>
    <path id="Path_49" data-name="Path 49" d="M19,30c-2.405,0-7.009-2-9.539-3.191l.639-1.357C14.212,27.39,17.456,28.5,19,28.5c2.028,0,6.632-2.191,9.045-3.455a2.567,2.567,0,0,0-1.3-.3,10.653,10.653,0,0,0-3.013.711,11.6,11.6,0,0,1-3.487.789,17.954,17.954,0,0,1-5.006-1.045l.512-1.41a16.73,16.73,0,0,0,4.494.955,10.653,10.653,0,0,0,3.013-.711,11.6,11.6,0,0,1,3.487-.789,3.225,3.225,0,0,1,3.2,1.722.75.75,0,0,1-.334.935C29.31,26.074,22.157,30,19,30Z"/>
    <path id="Path_50" data-name="Path 50" d="M23.25,25.09h-1.5v-.45a1.255,1.255,0,0,0-1-1.225l-9.631-1.97.3-1.47,9.631,1.97a2.76,2.76,0,0,1,2.2,2.695Z"/>
    <path id="Path_51" data-name="Path 51" d="M9,9.5h2.5V11H9Z"/>
  </g>
</svg>
