<svg xmlns="http://www.w3.org/2000/svg" width="407.748" height="407.029" viewBox="0 0 407.748 407.029">
  <g id="money" transform="translate(0.001 -0.358)">
    <path id="Path_10" data-name="Path 10" d="M229.559,186.253a43.755,43.755,0,0,0-23.717,4.761L175.33,155.185a24.143,24.143,0,0,1,8.488-.833A23.889,23.889,0,0,1,200.2,162.73a10,10,0,0,0,15.227-12.967A44.058,44.058,0,0,0,161.7,139.175l-4.484-5.266a10,10,0,1,0-15.227,12.967l4.495,5.277A44.043,44.043,0,0,0,202.1,217.462l30.513,35.829a24.152,24.152,0,0,1-8.488.831,23.889,23.889,0,0,1-16.385-8.378,10,10,0,1,0-15.227,12.967,43.757,43.757,0,0,0,30.014,15.347q1.8.145,3.59.145a43.628,43.628,0,0,0,20.132-4.9l4.482,5.263A10,10,0,1,0,265.956,261.6l-4.486-5.268a44.047,44.047,0,0,0-31.911-70.079Zm-49.583,16.033a24.036,24.036,0,0,1-19.864-34.123l28.351,33.291A24.12,24.12,0,0,1,179.976,202.286Zm39.5,4.735a24.142,24.142,0,0,1,8.487-.833,24.061,24.061,0,0,1,19.875,34.137Z" fill="#fff"/>
    <path id="Path_11" data-name="Path 11" d="M316.342,108.537C263.573,46.576,170.233,39.1,108.268,91.864a147.6,147.6,0,0,0,83.912,259.5q6.036.483,12.029.482a146.5,146.5,0,0,0,95.46-35.24C361.632,263.841,369.111,170.5,316.342,108.537ZM280.218,293.77A117.556,117.556,0,1,1,293.5,127.986,116.815,116.815,0,0,1,280.218,293.77Z" fill="#fff"/>
    <path id="Path_12" data-name="Path 12" d="M369.41,85.1l12.509,3.634A10,10,0,0,0,387.5,69.531l-42-12.2a10,10,0,0,0-12.789,9.6v46.2a10,10,0,0,0,20,0V96.124c55.961,76.876,44.049,185.445-29.521,248.1a182.625,182.625,0,0,1-103.172,43.2,10,10,0,0,0,.851,19.964q.435,0,.875-.038a202.514,202.514,0,0,0,114.412-47.9C417.493,290.181,430.85,170.3,369.41,85.1Z" fill="#fff"/>
    <path id="Path_13" data-name="Path 13" d="M185.572,387.187A183.9,183.9,0,0,1,28.4,149.529,10,10,0,1,0,9.3,143.6a203.9,203.9,0,0,0,174.277,263.49q.51.051,1.011.051a10,10,0,0,0,.988-19.951Z" fill="#fff"/>
    <path id="Path_14" data-name="Path 14" d="M28.417,121.25a10,10,0,0,0,13.541-4.08c2.86-5.327,6.022-10.569,9.4-15.58A10,10,0,0,0,34.766,90.418c-3.745,5.561-7.254,11.378-10.43,17.291A10,10,0,0,0,28.417,121.25Z" fill="#fff"/>
    <path id="Path_15" data-name="Path 15" d="M78.272,66.636a9.961,9.961,0,0,0,6.479-2.387A183.248,183.248,0,0,1,211.944,20.535,10,10,0,0,0,212.815.554,203.223,203.223,0,0,0,71.784,49.023a10,10,0,0,0,6.488,17.613Z" fill="#fff"/>
  </g>
</svg>
