<svg xmlns="http://www.w3.org/2000/svg" width="428.24" height="609.961" viewBox="0 0 428.24 609.961">
  <g id="monster" transform="translate(-856.346 -261.403)">
    <g id="monster-2" data-name="monster" transform="translate(739.693 220.565)">
      <g id="OBJECTS" transform="translate(156.307 313.787)" opacity="0.08">
        <g id="Group_12" data-name="Group 12">
          <path id="Path_4" data-name="Path 4" d="M264.244,334.511c-56.708,0-95.061-66.065-104.742-110.552" transform="translate(-133.1 -178.157)" fill="none" stroke="#f28d49" stroke-linecap="round" stroke-linejoin="round" stroke-width="19.2"/>
          <path id="Path_5" data-name="Path 5" d="M259.083,334.511c56.709,0,98.579-66.065,108.261-110.552" transform="translate(-98.894 -178.157)" fill="none" stroke="#f28d49" stroke-linecap="round" stroke-linejoin="round" stroke-width="19.2"/>
          <g id="Group_3" data-name="Group 3" transform="translate(43.371 169.737)">
            <path id="Path_6" data-name="Path 6" d="M254.818,318.929C258.65,332.853,239.742,438.023,236,446.935c-2.007,9.675,6.526,23.509-5,30.654-13.573,8.411-48.8,6.38-56.848-2.247-9.261-9.914,15.882-25.623,24.793-27.292-.022-15.7,13.164-115.2,17-129.12C224.185,316.2,246.214,314.5,254.818,318.929Z" transform="translate(-172.133 -316.206)" fill="#f28d49" stroke="#f28d49" stroke-width="1" fill-rule="evenodd"/>
            <path id="Path_7" data-name="Path 7" d="M265.626,318.929c-3.833,13.925,15.076,119.094,18.818,128.007,2.007,9.675-6.526,23.509,5,30.654,13.573,8.411,48.8,6.38,56.85-2.247,9.261-9.914-15.883-25.623-24.794-27.292.022-15.7-13.164-115.2-16.995-129.12C296.248,316.2,274.222,314.5,265.626,318.929Z" transform="translate(-140.193 -316.206)" fill="#f28d49" stroke="#f28d49" stroke-width="1" fill-rule="evenodd"/>
            <path id="Path_8" data-name="Path 8" d="M265.606,318.929c-3.833,13.925,15.076,119.094,18.818,128.007l-.048.011c1.733,5.248,5.353,12.6,12.122,16.226a52.566,52.566,0,0,1,.849-16.657c0,7.781,2.829,13.441,9.9,20.869-1.062-7.426-.463-10.771,2.726-21.028a42.083,42.083,0,0,1,6.471,18.906c2.237-2.485,4.5-9.416,5.259-17.166l-.225-.046c.023-15.7-13.162-115.2-16.995-129.12C296.23,316.2,274.209,314.5,265.606,318.929Z" transform="translate(-140.199 -316.206)" fill="#f28d49" stroke="#f28d49" stroke-width="1" fill-rule="evenodd"/>
            <path id="Path_9" data-name="Path 9" d="M248,318.929c3.833,13.925-15.078,119.094-18.818,128.007l.048.011a43.276,43.276,0,0,0-1.653,16.9,26.849,26.849,0,0,1-11.319-17.333c0,7.781-2.831,13.441-9.905,20.869,1.062-7.426.463-10.771-2.726-21.028a42.082,42.082,0,0,0-6.471,18.906c-2.238-2.485-4.5-9.416-5.259-17.166l.224-.046c-.022-15.7,13.164-115.2,16.995-129.12C217.371,316.2,239.4,314.5,248,318.929Z" transform="translate(-165.345 -316.206)" fill="#f28d49" stroke="#f28d49" stroke-width="1" fill-rule="evenodd"/>
          </g>
          <path id="Path_10" data-name="Path 10" d="M378.515,405.016c-15.074-44.432-32.22-49.456-43.329-48.661,21.73,20.279,18.461,57.183,9.925,82-4.76-19.042-13.377-42.741-30.833-60.2-4.794,24.08-9.826,39.207-3.967,73.65-24.128-13.738-27.347-36.613-25.975-58.367-9.521,12.7-28.329,33.8-29.123,56.011-10.342-11.114-16.516-45.558-8.585-66.979-9.786,32.792-26.137,31.308-46.236,44.077,17.958-29.694,18.507-40.017,21.877-70.189-11.114-.793-33.8,6.571-48.876,51C174.23,340.4,201.835,290.641,277.5,290.6,352.3,290.553,377.686,338.745,378.515,405.016Z" transform="translate(-128.33 -155.267)" fill="#f28d49" stroke="#f28d49" stroke-width="1" fill-rule="evenodd"/>
          <path id="Path_11" data-name="Path 11" d="M370.554,418.958c-13.719-2.65-27.929-9.582-37.91-31.952,2.917,27.863,4.06,44.429-8.416,70.486.085-26.251-11.137-31.427-21.6-56.6,1.093,25.736-11.365,54.857-26.549,71.435-2.161-43.138-5.131-50.209-13.059-71.435-10.464,25.174-19.18,26.841-21.6,56.6-14.983-28.062-14.786-40.9-11.865-68.76-12.271,13.522-26.562,24.185-30.935,42.209-3.126-24.578-1.327-52.327,8.173-68.8-13,.2-25.6,17.733-43.507,17.07,32.75-23.13,33.289-138.721,120.539-138.721,76.269,0,76.649,109.58,111.352,134.624-14.459,1.622-25.006-5.7-39.426-15.865C354.042,384.686,360.962,401.6,370.554,418.958Z" transform="translate(-131.8 -172.479)" fill="#f28d49" stroke="#f28d49" stroke-width="1" fill-rule="evenodd"/>
          <g id="Group_4" data-name="Group 4" transform="translate(91.733 50.189)">
            <ellipse id="Ellipse_1" data-name="Ellipse 1" cx="29.402" cy="30.101" rx="29.402" ry="30.101" transform="translate(0 0)" fill="#f28d49" stroke="#f28d49" stroke-width="1"/>
            <ellipse id="Ellipse_2" data-name="Ellipse 2" cx="29.241" cy="29.938" rx="29.241" ry="29.938" transform="translate(52.901 0.164)" fill="#f28d49" stroke="#f28d49" stroke-width="1"/>
            <path id="Path_12" data-name="Path 12" d="M235.4,278.543a21.564,21.564,0,1,0-21.056-21.557A21.564,21.564,0,0,0,235.4,278.543Z" transform="translate(-205.996 -224.409)" fill="#f28d49" stroke="#f28d49" stroke-width="1" fill-rule="evenodd"/>
            <path id="Path_13" data-name="Path 13" d="M232.431,265.779a9.684,9.684,0,1,0-9.459-9.683A9.684,9.684,0,0,0,232.431,265.779Z" transform="translate(-203.032 -220.633)" fill="#f28d49" stroke="#f28d49" stroke-width="1" fill-rule="evenodd"/>
            <path id="Path_14" data-name="Path 14" d="M234.128,257.8a2.853,2.853,0,1,0-2.778-2.853,2.853,2.853,0,0,0,2.778,2.853Z" transform="translate(-200.153 -218.681)" fill="#f28d49" stroke="#f28d49" stroke-width="1" fill-rule="evenodd"/>
            <path id="Path_15" data-name="Path 15" d="M274.655,278.543A21.564,21.564,0,1,0,253.6,256.984,21.564,21.564,0,0,0,274.655,278.543Z" transform="translate(-192.511 -224.409)" fill="#f28d49" stroke="#f28d49" stroke-width="1" fill-rule="evenodd"/>
            <path id="Path_16" data-name="Path 16" d="M271.69,265.779a9.684,9.684,0,1,0-9.457-9.683,9.684,9.684,0,0,0,9.457,9.683Z" transform="translate(-189.546 -220.633)" fill="#f28d49" stroke="#f28d49" stroke-width="1" fill-rule="evenodd"/>
            <path id="Path_17" data-name="Path 17" d="M273.389,257.8a2.853,2.853,0,1,0-2.786-2.853A2.852,2.852,0,0,0,273.389,257.8Z" transform="translate(-186.67 -218.681)" fill="#f28d49" stroke="#f28d49" stroke-width="1" fill-rule="evenodd"/>
          </g>
          <path id="Path_18" data-name="Path 18" d="M168.812,238.492c-9.987,2.917-19.026-10.311-24.507-20.872-5.14-9.905-5.844-16.755-2.044-17.905s7.184,2.061,11.455,8.953c-1.524-7.885-4.689-15.72.346-17.442,6.468-2.213,9.124,9.107,10.546,15.516-1.488-6.733.213-17.455,5.4-16.85,8.345.976,2.054,23.462,2.054,23.462s4.691-10.919,13.369-8.119-4.189,10.79-5.711,18.225S174.764,236.754,168.812,238.492Z" transform="translate(-139.851 -189.867)" fill="#f28d49" stroke="#f28d49" stroke-width="1" fill-rule="evenodd"/>
          <path id="Path_19" data-name="Path 19" d="M155.318,224.754c-3.539-4.387-6.934-4.1-10.33-4.952a82.087,82.087,0,0,1,12.1,24.279c2.829-3.538,16.255-8.565,21.919-3.612-2.215-7.533-1.758-16.847-.2-18.685-2.547,1.133-6.509,3.113-7.216,6.367,1.556-4.1-1.557-15.988-4.669-19.384,0,3.255-1.273,13.866-2.547,16.13-1.272-2.547-4.385-7.641-4.243-12.027C156.583,215.7,155.318,221.074,155.318,224.754Z" transform="translate(-138.086 -183.375)" fill="#f28d49" stroke="#f28d49" stroke-width="1" fill-rule="evenodd"/>
          <path id="Path_20" data-name="Path 20" d="M342.614,238.492c9.987,2.917,19.026-10.311,24.507-20.872,5.14-9.905,5.846-16.755,2.045-17.905s-7.185,2.061-11.455,8.953c1.522-7.885,4.689-15.718-.346-17.442-6.469-2.213-9.126,9.107-10.547,15.516,1.488-6.733-.213-17.455-5.4-16.85-8.345.976-2.055,23.462-2.055,23.462s-4.689-10.919-13.369-8.119,4.189,10.79,5.711,18.225S336.66,236.754,342.614,238.492Z" transform="translate(-76.936 -189.867)" fill="#f28d49" stroke="#f28d49" stroke-width="1" fill-rule="evenodd"/>
          <path id="Path_21" data-name="Path 21" d="M352.754,224.754c3.538-4.387,6.932-4.1,10.33-4.952a97.689,97.689,0,0,0-12.537,25.058c-2.831-3.538-15.947-9.879-21.61-4.919,2.215-7.534,1.882-16.319.326-18.157,2.547,1.133,6.509,3.113,7.216,6.367-1.556-4.1,1.557-15.988,4.669-19.384,0,3.255,1.273,13.866,2.547,16.13,1.273-2.547,4.387-7.641,4.245-12.028C351.481,215.7,352.754,221.074,352.754,224.754Z" transform="translate(-74.899 -183.375)" fill="#f28d49" stroke="#f28d49" stroke-width="1" fill-rule="evenodd"/>
          <path id="Path_22" data-name="Path 22" d="M214.3,269.783c15.4,35.172,71.159,43.544,96.12-.335" transform="translate(-114.278 -162.531)" fill="#f28d49" stroke="#f28d49" stroke-linecap="round" stroke-linejoin="round" stroke-width="2.4" fill-rule="evenodd"/>
          <path id="Path_23" data-name="Path 23" d="M236.818,293.2c5.711,6.072,26.364,7.517,35.616-.057" transform="translate(-106.542 -154.392)" fill="#f28d49" stroke="#f28d49" stroke-linecap="round" stroke-linejoin="round" stroke-width="2.4" fill-rule="evenodd"/>
          <path id="Path_24" data-name="Path 24" d="M281.971,268.837c3.84-.843,7.528.817,8.442,4.865" transform="translate(-91.033 -162.814)" fill="none" stroke="#f28d49" stroke-linecap="round" stroke-linejoin="round" stroke-width="2.4" fill-rule="evenodd"/>
          <path id="Path_25" data-name="Path 25" d="M219.656,268.837c-3.84-.843-7.528.817-8.442,4.865" transform="translate(-115.336 -162.814)" fill="none" stroke="#f28d49" stroke-linecap="round" stroke-linejoin="round" stroke-width="2.4" fill-rule="evenodd"/>
          <g id="Group_5" data-name="Group 5" transform="translate(67.329 129.604)">
            <path id="Path_26" data-name="Path 26" d="M189.966,333.115c13.1-.551,28.275-1.581,42.448-22.985l-16.339-19.818C210.857,305.4,199.1,322.184,189.966,333.115Z" transform="translate(-189.966 -284.968)" fill="#f28d49" stroke="#f28d49" stroke-width="1" fill-rule="evenodd"/>
            <path id="Path_27" data-name="Path 27" d="M198.974,328.6c12.812-2.8,25.91-8.859,36.243-24.939L213.9,286.334C211.6,302.091,205.949,315.217,198.974,328.6Z" transform="translate(-186.872 -286.334)" fill="#f28d49" stroke="#f28d49" stroke-width="1" fill-rule="evenodd"/>
          </g>
          <g id="Group_6" data-name="Group 6" transform="translate(106.337 176.76)">
            <path id="Path_28" data-name="Path 28" d="M219.191,374.082c10.859-6.784,23.255-14.973,24.966-39.978l-23.431-8.953C223.573,340.471,221.675,360.391,219.191,374.082Z" transform="translate(-218.935 -320.156)" fill="#f28d49" stroke="#f28d49" stroke-width="1" fill-rule="evenodd"/>
            <path id="Path_29" data-name="Path 29" d="M226.7,364.532c9.53-8.553,17.74-20.016,18.764-38.657L219,321.434C224.642,335.928,226.173,349.8,226.7,364.532Z" transform="translate(-219 -321.434)" fill="#f28d49" stroke="#f28d49" stroke-width="1" fill-rule="evenodd"/>
          </g>
          <g id="Group_7" data-name="Group 7" transform="translate(139.251 156.479)">
            <path id="Path_30" data-name="Path 30" d="M260.862,352.4c-8.707-7.2-18.592-15.8-17.175-37.873l21.534-5.1C260.944,322.505,260.279,340.143,260.862,352.4Z" transform="translate(-243.481 -305.277)" fill="#f28d49" stroke="#f28d49" stroke-width="1" fill-rule="evenodd"/>
            <path id="Path_31" data-name="Path 31" d="M255.637,343.131a46.667,46.667,0,0,1-11.906-35.991l23.66-.8C260.769,318.356,257.813,330.308,255.637,343.131Z" transform="translate(-243.503 -306.338)" fill="#f28d49" stroke="#f28d49" stroke-width="1" fill-rule="evenodd"/>
          </g>
          <g id="Group_8" data-name="Group 8" transform="translate(143.844 199.285)">
            <path id="Path_32" data-name="Path 32" d="M259.943,386.335c7.795-8.655,16.578-18.924,11.8-41.221l-22.735-1.954C255.347,355.848,258.688,373.74,259.943,386.335Z" transform="translate(-246.199 -336.496)" fill="#f28d49" stroke="#f28d49" stroke-width="1" fill-rule="evenodd"/>
            <path id="Path_33" data-name="Path 33" d="M264.457,376.7c6.187-9.868,10.5-21.948,6.711-38.5l-24.251,2.752C255.484,352.211,260.3,363.954,264.457,376.7Z" transform="translate(-246.917 -338.2)" fill="#f28d49" stroke="#f28d49" stroke-width="1" fill-rule="evenodd"/>
          </g>
          <g id="Group_9" data-name="Group 9" transform="translate(171.818 165.546)">
            <path id="Path_34" data-name="Path 34" d="M302.642,357.049c-10.99-2.612-23.66-5.966-32.139-26.4l17.067-14.09C289.507,330.184,296.7,346.306,302.642,357.049Z" transform="translate(-266.789 -311.893)" fill="#f28d49" stroke="#f28d49" stroke-width="1" fill-rule="evenodd"/>
            <path id="Path_35" data-name="Path 35" d="M294.316,351.287a46.66,46.66,0,0,1-26.577-27.031l20.871-11.169C287.978,326.794,290.607,338.823,294.316,351.287Z" transform="translate(-267.739 -313.087)" fill="#f28d49" stroke="#f28d49" stroke-width="1" fill-rule="evenodd"/>
          </g>
          <g id="Group_10" data-name="Group 10" transform="translate(188.675 126.001)">
            <path id="Path_36" data-name="Path 36" d="M317.546,326.33c-11.158-1.76-24.049-4.131-34.071-23.845l15.933-15.36C302.387,300.554,310.8,316.075,317.546,326.33Z" transform="translate(-279.192 -282.46)" fill="#f28d49" stroke="#f28d49" stroke-width="1" fill-rule="evenodd"/>
            <path id="Path_37" data-name="Path 37" d="M308.864,321.3a46.663,46.663,0,0,1-28.578-24.909l19.952-12.739C300.658,297.366,304.2,309.157,308.864,321.3Z" transform="translate(-280.286 -283.653)" fill="#f28d49" stroke="#f28d49" stroke-width="1" fill-rule="evenodd"/>
          </g>
          <path id="Path_38" data-name="Path 38" d="M164.291,209.3l-.065.235s4.691-10.919,13.369-8.119c7.826,2.524-1.86,9.261-4.964,16.018l-9.976-4.55Z" transform="translate(-132.018 -186.058)" fill="#f28d49" stroke="#f28d49" stroke-width="1" fill-rule="evenodd"/>
          <path id="Path_39" data-name="Path 39" d="M339.3,209.3l.063.235s-4.689-10.919-13.369-8.119c-7.826,2.524,1.86,9.261,4.964,16.018l9.976-4.55Z" transform="translate(-76.935 -186.058)" fill="#f28d49" stroke="#f28d49" stroke-width="1" fill-rule="evenodd"/>
          <path id="Path_40" data-name="Path 40" d="M175.581,440.3c-2.028-9.57,6.963-16.749,10.458-16.249" transform="translate(-127.679 -109.432)" fill="#f28d49" stroke="#f28d49" stroke-linecap="round" stroke-linejoin="round" stroke-width="1.2" fill-rule="evenodd"/>
          <path id="Path_41" data-name="Path 41" d="M185.428,443.281c-4.5-3.3.4-15.281,8.392-15.465" transform="translate(-124.784 -108.131)" fill="#f28d49" stroke="#f28d49" stroke-linecap="round" stroke-linejoin="round" stroke-width="1.2" fill-rule="evenodd"/>
          <path id="Path_42" data-name="Path 42" d="M325.776,440.3c2.028-9.57-6.965-16.749-10.459-16.249" transform="translate(-79.578 -109.432)" fill="#f28d49" stroke="#f28d49" stroke-linecap="round" stroke-linejoin="round" stroke-width="1.2" fill-rule="evenodd"/>
          <path id="Path_43" data-name="Path 43" d="M315.762,443.281c4.5-3.3-.4-15.281-8.392-15.465" transform="translate(-82.308 -108.131)" fill="#f28d49" stroke="#f28d49" stroke-linecap="round" stroke-linejoin="round" stroke-width="1.2" fill-rule="evenodd"/>
        </g>
      </g>
      <g id="OBJECTS-2" data-name="OBJECTS" transform="translate(156.307 256.107)">
        <g id="Group_12-2" data-name="Group 12">
          <path id="Path_4-2" data-name="Path 4" d="M279.842,350.973c-65.152,0-109.217-75.9-120.34-127.014" transform="translate(-129.169 -171.332)" fill="none" stroke="#a15d2f" stroke-linecap="round" stroke-linejoin="round" stroke-width="19.2"/>
          <path id="Path_5-2" data-name="Path 5" d="M259.083,350.973c65.154,0,113.258-75.9,124.382-127.014" transform="translate(-75.04 -171.332)" fill="none" stroke="#a15d2f" stroke-linecap="round" stroke-linejoin="round" stroke-width="19.2"/>
          <g id="Group_3-2" data-name="Group 3" transform="translate(49.825 195.017)">
            <path id="Path_6-2" data-name="Path 6" d="M267.124,319.335c4.4,16-17.322,136.83-21.621,147.068-2.3,11.114,7.5,27.012-5.747,35.218-15.59,9.664-56.062,7.329-65.313-2.582-10.632-11.392,18.247-29.437,28.485-31.356-.025-18.041,15.127-132.35,19.528-148.348C231.939,316.2,257.247,314.244,267.124,319.335Z" transform="translate(-172.13 -316.206)" fill="#f28d49" fill-rule="evenodd"/>
            <path id="Path_7-2" data-name="Path 7" d="M265.7,319.335c-4.4,16,17.322,136.83,21.619,147.068,2.3,11.114-7.5,27.012,5.747,35.218,15.59,9.664,56.062,7.329,65.315-2.582,10.632-11.392-18.248-29.437-28.487-31.356.025-18.041-15.127-132.35-19.526-148.348C300.885,316.2,275.577,314.244,265.7,319.335Z" transform="translate(-121.586 -316.206)" fill="#f28d49" fill-rule="evenodd"/>
            <path id="Path_8-2" data-name="Path 8" d="M265.681,319.335c-4.4,16,17.322,136.83,21.619,147.068l-.056.012c1.991,6.035,6.151,14.476,13.928,18.642-.556-6.162-.651-9.385.976-19.14,0,8.94,3.251,15.443,11.379,23.976-1.219-8.533-.525-12.375,3.132-24.16,2.439,3.252,6.214,11.157,7.434,21.721,2.57-2.856,5.166-10.825,6.042-19.722-.086-.018-.173-.037-.259-.052.026-18.041-15.127-132.35-19.526-148.348C300.867,316.2,275.559,314.244,265.681,319.335Z" transform="translate(-121.597 -316.206)" fill="#a15d2f" fill-rule="evenodd"/>
            <path id="Path_9-2" data-name="Path 9" d="M256.351,319.335c4.4,16-17.323,136.83-21.619,147.068l.056.012a49.718,49.718,0,0,0-1.9,19.418,30.847,30.847,0,0,1-13-19.912c0,8.94-3.252,15.443-11.379,23.976,1.219-8.533.525-12.375-3.132-24.16-2.439,3.252-6.214,11.157-7.434,21.721-2.572-2.856-5.166-10.825-6.042-19.722.085-.018.171-.037.258-.052-.025-18.041,15.127-132.35,19.526-148.348C221.166,316.2,246.474,314.244,256.351,319.335Z" transform="translate(-161.385 -316.206)" fill="#a15d2f" fill-rule="evenodd"/>
          </g>
          <path id="Path_10-2" data-name="Path 10" d="M409.059,422.056c-17.319-51.047-37.019-56.82-49.782-55.908,24.966,23.308,21.21,65.7,11.4,94.206-5.469-21.877-15.369-49.107-35.423-69.163-5.509,27.659-11.29,45.044-4.558,84.617-27.721-15.775-31.419-42.065-29.843-67.059-10.939,14.587-32.548,38.83-33.458,64.353-11.885-12.761-18.986-52.342-9.863-76.953-11.243,37.675-30.03,35.965-53.12,50.64,20.631-34.113,21.264-45.977,25.135-80.641-12.762-.912-38.835,7.55-56.154,58.6.962-76.928,32.677-134.1,119.61-134.148C378.939,290.547,408.107,345.914,409.059,422.056Z" transform="translate(-121.617 -135.11)" fill="#c5733c" fill-rule="evenodd"/>
          <path id="Path_11-2" data-name="Path 11" d="M401.422,445.534c-15.761-3.045-32.089-11.009-43.555-36.709,3.351,32.012,4.665,51.044-9.669,80.982.1-30.161-12.795-36.107-24.818-65.031,1.256,29.569-13.057,63.025-30.509,82.072-2.481-49.562-5.895-57.686-15-82.072-12.023,28.923-22.036,30.839-24.817,65.031-17.214-32.241-16.979-46.986-13.633-79-14.1,15.536-30.516,27.784-35.541,48.494-3.592-28.238-1.525-60.127,9.39-79.049-14.942.23-29.41,20.375-49.985,19.613,37.628-26.576,38.247-159.378,138.486-159.378,87.627,0,88.064,125.9,127.934,154.666-16.612,1.863-28.727-6.545-45.3-18.228C382.45,406.158,390.4,425.58,401.422,445.534Z" transform="translate(-127.115 -162.347)" fill="#f28d49" fill-rule="evenodd"/>
          <g id="Group_4-2" data-name="Group 4" transform="translate(105.393 57.667)">
            <ellipse id="Ellipse_1-2" data-name="Ellipse 1" cx="33.779" cy="34.584" rx="33.779" ry="34.584" fill="#f28d49"/>
            <ellipse id="Ellipse_2-2" data-name="Ellipse 2" cx="33.596" cy="34.395" rx="33.596" ry="34.395" transform="translate(60.78 0.187)" fill="#f28d49"/>
            <path id="Path_12-2" data-name="Path 12" d="M238.533,284.963A24.774,24.774,0,1,0,214.342,260.2a24.774,24.774,0,0,0,24.191,24.768Z" transform="translate(-204.754 -222.768)" fill="#fff" fill-rule="evenodd"/>
            <path id="Path_13-2" data-name="Path 13" d="M233.841,268.662a11.126,11.126,0,1,0-10.867-11.125A11.126,11.126,0,0,0,233.841,268.662Z" transform="translate(-200.061 -216.794)" fill="#4d4d4d" fill-rule="evenodd"/>
            <path id="Path_14-2" data-name="Path 14" d="M234.546,258.647a3.277,3.277,0,1,0-3.2-3.277A3.242,3.242,0,0,0,234.546,258.647Z" transform="translate(-195.511 -213.706)" fill="#fff" fill-rule="evenodd"/>
            <path id="Path_15-2" data-name="Path 15" d="M277.79,284.963A24.774,24.774,0,1,0,253.6,260.2a24.774,24.774,0,0,0,24.189,24.768Z" transform="translate(-183.414 -222.768)" fill="#fff" fill-rule="evenodd"/>
            <path id="Path_16-2" data-name="Path 16" d="M273.1,268.662a11.126,11.126,0,1,0-10.865-11.124A11.126,11.126,0,0,0,273.1,268.662Z" transform="translate(-178.722 -216.794)" fill="#4d4d4d" fill-rule="evenodd"/>
            <path id="Path_17-2" data-name="Path 17" d="M273.8,258.647a3.277,3.277,0,1,0-3.2-3.277,3.241,3.241,0,0,0,3.2,3.277Z" transform="translate(-174.172 -213.706)" fill="#fff" fill-rule="evenodd"/>
          </g>
          <path id="Path_18-2" data-name="Path 18" d="M173.124,245.736c-11.475,3.351-21.858-11.847-28.156-23.981-5.906-11.381-6.715-19.25-2.348-20.576s8.253,2.368,13.16,10.285c-1.75-9.059-5.387-18.06.4-20.04,7.431-2.544,10.482,10.468,12.115,17.827-1.709-7.736.244-20.054,6.2-19.358,9.587,1.121,2.36,26.948,2.36,26.948s5.389-12.545,15.36-9.328-4.813,12.4-6.566,20.939S179.962,243.739,173.124,245.736Z" transform="translate(-139.851 -189.865)" fill="#f28d49" fill-rule="evenodd"/>
          <path id="Path_19-2" data-name="Path 19" d="M156.857,227.136c-4.066-5.04-7.966-4.716-11.868-5.69A94.311,94.311,0,0,1,158.9,249.34c3.251-4.064,18.677-9.84,25.177-4.151-2.545-8.655-2.021-19.355-.232-21.468-2.933,1.3-7.479,3.576-8.291,7.315,1.787-4.714-1.789-18.368-5.365-22.271,0,3.74-1.463,15.931-2.933,18.532-1.462-2.933-5.038-8.778-4.875-13.818C158.318,216.732,156.857,222.908,156.857,227.136Z" transform="translate(-137.059 -179.591)" fill="#a15d2f" fill-rule="evenodd"/>
          <path id="Path_20-2" data-name="Path 20" d="M345.531,245.736c11.475,3.351,21.86-11.847,28.156-23.981,5.906-11.381,6.716-19.25,2.349-20.576s-8.255,2.368-13.161,10.285c1.749-9.059,5.387-18.06-.4-20.04-7.432-2.544-10.484,10.468-12.117,17.827,1.709-7.736-.244-20.054-6.2-19.358-9.587,1.121-2.36,26.948-2.36,26.948s-5.387-12.545-15.36-9.328,4.813,12.4,6.566,20.939S338.693,243.739,345.531,245.736Z" transform="translate(-40.291 -189.865)" fill="#f28d49" fill-rule="evenodd"/>
          <path id="Path_21-2" data-name="Path 21" d="M356.3,227.136c4.064-5.04,7.965-4.716,11.867-5.69a112.24,112.24,0,0,0-14.4,28.789c-3.252-4.064-18.321-11.344-24.822-5.653,2.545-8.656,2.161-18.748.374-20.861,2.933,1.3,7.479,3.576,8.29,7.315-1.787-4.714,1.789-18.368,5.364-22.271,0,3.74,1.463,15.931,2.933,18.532,1.463-2.933,5.04-8.778,4.878-13.818C354.835,216.732,356.3,222.908,356.3,227.136Z" transform="translate(-37.068 -179.591)" fill="#a15d2f" fill-rule="evenodd"/>
          <path id="Path_22-2" data-name="Path 22" d="M214.3,269.835c17.688,40.409,81.749,50.029,110.433-.384" transform="translate(-99.383 -146.604)" fill="none" stroke="#a15d2f" stroke-linecap="round" stroke-linejoin="round" stroke-width="2.4" fill-rule="evenodd"/>
          <path id="Path_23-2" data-name="Path 23" d="M236.818,293.208c6.554,6.977,30.291,8.644,40.92-.066" transform="translate(-87.143 -133.726)" fill="none" stroke="#a15d2f" stroke-linecap="round" stroke-linejoin="round" stroke-width="2.4" fill-rule="evenodd"/>
          <path id="Path_24-2" data-name="Path 24" d="M281.971,268.869c4.412-.968,8.644.939,9.7,5.589" transform="translate(-62.599 -147.053)" fill="none" stroke="#a15d2f" stroke-linecap="round" stroke-linejoin="round" stroke-width="2.4" fill-rule="evenodd"/>
          <path id="Path_25-2" data-name="Path 25" d="M220.916,268.869c-4.413-.968-8.644.939-9.7,5.589" transform="translate(-101.059 -147.053)" fill="none" stroke="#a15d2f" stroke-linecap="round" stroke-linejoin="round" stroke-width="2.4" fill-rule="evenodd"/>
          <g id="Group_5-2" data-name="Group 5" transform="translate(77.356 148.912)">
            <path id="Path_26-2" data-name="Path 26" d="M189.966,339.489c15.05-.633,32.486-1.817,48.761-26.407l-18.764-22.769C213.969,307.649,200.462,326.93,189.966,339.489Z" transform="translate(-189.966 -284.176)" fill="#c5733c" fill-rule="evenodd"/>
            <path id="Path_27-2" data-name="Path 27" d="M198.974,334.9c14.716-3.218,29.769-10.178,41.641-28.653l-24.492-19.912C213.477,304.435,206.988,319.516,198.974,334.9Z" transform="translate(-185.07 -286.337)" fill="#f28d49" fill-rule="evenodd"/>
          </g>
          <g id="Group_6-2" data-name="Group 6" transform="translate(122.172 203.086)">
            <path id="Path_28-2" data-name="Path 28" d="M219.191,381.374c12.477-7.794,26.718-17.2,28.684-45.94l-26.921-10.289C224.226,342.757,222.051,365.644,219.191,381.374Z" transform="translate(-218.896 -319.417)" fill="#c5733c" fill-rule="evenodd"/>
            <path id="Path_29-2" data-name="Path 29" d="M227.848,370.95c10.949-9.826,20.375-23,21.557-44.413L219,321.434C225.483,338.086,227.241,354.023,227.848,370.95Z" transform="translate(-219 -321.434)" fill="#f28d49" fill-rule="evenodd"/>
          </g>
          <g id="Group_7-2" data-name="Group 7" transform="translate(160.047 179.778)">
            <path id="Path_30-2" data-name="Path 30" d="M263.44,358.8c-10-8.267-21.361-18.157-19.733-43.513l24.74-5.866C263.539,324.451,262.767,344.718,263.44,358.8Z" transform="translate(-243.53 -304.653)" fill="#c5733c" fill-rule="evenodd"/>
            <path id="Path_31-2" data-name="Path 31" d="M257.417,348.611c-8.429-9.87-15.144-22.482-13.678-41.351l27.182-.926C263.315,320.147,259.919,333.881,257.417,348.611Z" transform="translate(-243.537 -306.334)" fill="#f28d49" fill-rule="evenodd"/>
          </g>
          <g id="Group_8-2" data-name="Group 8" transform="translate(165.27 228.966)">
            <path id="Path_32-2" data-name="Path 32" d="M261.57,392.769c8.953-9.944,19.046-21.743,13.562-47.36l-26.12-2.246C256.29,357.73,260.127,378.292,261.57,392.769Z" transform="translate(-245.784 -335.502)" fill="#c5733c" fill-rule="evenodd"/>
            <path id="Path_33-2" data-name="Path 33" d="M267.066,382.437c7.108-11.338,12.052-25.216,7.718-44.237l-27.863,3.163C256.757,354.3,262.292,367.79,267.066,382.437Z" transform="translate(-246.921 -338.2)" fill="#f28d49" fill-rule="evenodd"/>
          </g>
          <g id="Group_9-2" data-name="Group 9" transform="translate(197.404 190.202)">
            <path id="Path_34-2" data-name="Path 34" d="M307.427,363.079c-12.626-3-27.182-6.855-36.924-30.323l19.6-16.187C292.338,332.207,300.6,350.73,307.427,363.079Z" transform="translate(-266.237 -311.195)" fill="#c5733c" fill-rule="evenodd"/>
            <path id="Path_35-2" data-name="Path 35" d="M298.274,356.975c-11.923-5.129-23.516-13.482-30.535-31.057l23.979-12.832C290.987,328.835,294.012,342.656,298.274,356.975Z" transform="translate(-267.739 -313.087)" fill="#f28d49" fill-rule="evenodd"/>
          </g>
          <g id="Group_10-2" data-name="Group 10" transform="translate(216.768 144.769)">
            <path id="Path_36-2" data-name="Path 36" d="M322.62,332.168c-12.821-2.022-27.63-4.746-39.145-27.4l18.305-17.648C305.2,302.555,314.868,320.386,322.62,332.168Z" transform="translate(-278.549 -281.766)" fill="#c5733c" fill-rule="evenodd"/>
            <path id="Path_37-2" data-name="Path 37" d="M313.117,326.907c-12.282-4.2-24.484-11.634-32.833-28.618l22.924-14.636C303.694,299.408,307.767,312.955,313.117,326.907Z" transform="translate(-280.284 -283.653)" fill="#f28d49" fill-rule="evenodd"/>
          </g>
          <path id="Path_38-2" data-name="Path 38" d="M164.537,210.541l-.074.27s5.389-12.545,15.36-9.328c8.991,2.9-2.138,10.651-5.711,18.4l-11.461-5.228Z" transform="translate(-127.458 -183.836)" fill="#f28d49" fill-rule="evenodd"/>
          <path id="Path_39-2" data-name="Path 39" d="M341.727,210.541l.073.27s-5.387-12.545-15.36-9.328c-8.991,2.9,2.138,10.651,5.711,18.4l11.461-5.228Z" transform="translate(-40.291 -183.836)" fill="#f28d49" fill-rule="evenodd"/>
          <path id="Path_40-2" data-name="Path 40" d="M175.624,442.728c-2.331-10.987,8-19.244,12.015-18.677" transform="translate(-120.59 -62.583)" fill="none" stroke="#c5733c" stroke-linecap="round" stroke-linejoin="round" stroke-width="1.2" fill-rule="evenodd"/>
          <path id="Path_41-2" data-name="Path 41" d="M185.683,445.584c-5.171-3.788.463-17.56,9.643-17.768" transform="translate(-116.009 -60.522)" fill="none" stroke="#c5733c" stroke-linecap="round" stroke-linejoin="round" stroke-width="1.2" fill-rule="evenodd"/>
          <path id="Path_42-2" data-name="Path 42" d="M327.332,442.728c2.331-10.987-8-19.244-12.017-18.677" transform="translate(-44.474 -62.583)" fill="none" stroke="#c5733c" stroke-linecap="round" stroke-linejoin="round" stroke-width="1.2" fill-rule="evenodd"/>
          <path id="Path_43-2" data-name="Path 43" d="M317.013,445.584c5.173-3.788-.463-17.56-9.643-17.768" transform="translate(-48.793 -60.522)" fill="none" stroke="#c5733c" stroke-linecap="round" stroke-linejoin="round" stroke-width="1.2" fill-rule="evenodd"/>
        </g>
      </g>
    </g>
    <g id="Screens" transform="translate(614.188 16.946)">
      <g id="Group_163" data-name="Group 163" transform="translate(243.155 245.457)">
        <g id="Group_146" data-name="Group 146">
          <g id="Group_143" data-name="Group 143" transform="translate(0.62 0.704)">
            <rect id="Rectangle_9" data-name="Rectangle 9" width="424.985" height="236.148" rx="6.378" fill="#fff"/>
          </g>
          <g id="Group_145" data-name="Group 145">
            <g id="Group_144" data-name="Group 144">
              <path id="Path_57" data-name="Path 57" d="M652.019,482.306a32.11,32.11,0,0,0,3.3-.4,17.006,17.006,0,0,0,8.435-4.594,16.52,16.52,0,0,0,3.793-6,16.949,16.949,0,0,0,.94-4.009c.108-1.426.087-2.942.079-4.518-.018-6.3-.039-13.571-.063-21.748-.052-32.752-.126-80.1-.218-138.6q0-10.975-.024-22.46V268.363c-.095-3.917.412-7.923-1.19-11.5a16.287,16.287,0,0,0-13.434-10.074c-1.954-.147-4.085-.052-6.142-.079l-25.355.021-109.852.063-251.71.053a16.671,16.671,0,0,0-7.7,1.944,16.5,16.5,0,0,0-5.8,5.38,15.927,15.927,0,0,0-2.535,7.466c-.131,2.653-.037,5.5-.066,8.227v97.074q0,31.607-.018,61.995v30.052c.018,2.461-.042,4.978.039,7.376a16.058,16.058,0,0,0,12.712,14.973,34.506,34.506,0,0,0,7.077.36h21.417l27.89.013,53.326.034,95.716.084,138.6.218,37.683.129,9.8.068c2.209.024,3.339.068,3.339.068s-1.13.047-3.339.071l-9.8.068-37.683.129-138.6.218-95.716.081-53.326.034-27.89.016H264.291a35.162,35.162,0,0,1-7.337-.381,17.314,17.314,0,0,1-13.728-16.14c-.087-2.522-.026-4.949-.047-7.439V428.912q0-30.38-.016-61.995t0-64.225V269.843c.031-2.779-.071-5.467.068-8.335a17.432,17.432,0,0,1,17.4-16.05l251.71.055,109.852.063,25.355.018c2.1.031,4.1-.068,6.249.092a17.361,17.361,0,0,1,14.306,10.77,16.6,16.6,0,0,1,1.227,5.987q0,2.971.018,5.911v11.611q0,11.482-.024,22.46c-.092,58.5-.166,105.851-.218,138.6-.024,8.178-.045,15.446-.063,21.748,0,1.576,0,3.087-.11,4.558a17.332,17.332,0,0,1-.99,4.09,16.749,16.749,0,0,1-12.522,10.61,15.925,15.925,0,0,1-2.49.263C652.282,482.317,652.019,482.306,652.019,482.306Z" transform="translate(-243.155 -245.457)" fill="#bcc8ce" stroke="#bcc8ce" stroke-width="2"/>
            </g>
          </g>
        </g>
        <g id="Group_147" data-name="Group 147" transform="translate(136.391 69.959)">
          <path id="Path_58" data-name="Path 58" d="M307.37,285.5v2.95H295.076V272.566h12v2.95h-8.348v3.444H306.1v2.861h-7.374V285.5Z" transform="translate(-295.076 -271.313)" fill="#263238"/>
          <path id="Path_59" data-name="Path 59" d="M315.439,272.566v15.882h-3.018L304.5,278.8v9.643h-3.628V272.566h3.039l7.9,9.643v-9.643Z" transform="translate(-285.645 -271.313)" fill="#263238"/>
          <path id="Path_60" data-name="Path 60" d="M312.253,275.561H307.17v-2.995h13.841v2.995h-5.094v12.888H312.24Z" transform="translate(-275.4 -271.313)" fill="#263238"/>
          <path id="Path_61" data-name="Path 61" d="M325.488,285.5v2.95h-12.3V272.566h12v2.95h-8.346v3.444h7.371v2.861h-7.371V285.5Z" transform="translate(-265.605 -271.313)" fill="#263238"/>
          <path id="Path_62" data-name="Path 62" d="M329.106,288.448l-3.063-4.426h-3.378v4.426h-3.678V272.566h6.875c4.24,0,6.9,2.2,6.9,5.763a5.164,5.164,0,0,1-3.265,5.012l3.559,5.107Zm-3.447-12.888h-2.995V281.1h2.995c2.246,0,3.381-1.051,3.381-2.769s-1.135-2.769-3.381-2.769Z" transform="translate(-256.175 -271.313)" fill="#263238"/>
          <path id="Path_63" data-name="Path 63" d="M327.4,280.676a8.745,8.745,0,0,1,15.155-5.4l-2.364,2.18a5.094,5.094,0,1,0,0,6.42l2.364,2.178a8.729,8.729,0,0,1-15.155-5.377Z" transform="translate(-242.488 -271.482)" fill="#263238"/>
          <path id="Path_64" data-name="Path 64" d="M333.614,281.283a8.7,8.7,0,1,1,8.69,8.212,8.22,8.22,0,0,1-8.69-8.212Zm13.66,0a4.97,4.97,0,1,0-4.967,5.083,4.841,4.841,0,0,0,4.954-5.083Z" transform="translate(-232.402 -272.089)" fill="#263238"/>
          <path id="Path_65" data-name="Path 65" d="M341.276,272.589h7.214a7.978,7.978,0,1,1,0,15.882h-7.213Zm7.035,12.872a4.931,4.931,0,1,0,0-9.846h-3.36v9.846Z" transform="translate(-219.913 -271.336)" fill="#263238"/>
          <path id="Path_66" data-name="Path 66" d="M360.706,285.5v2.95H348.412V272.566h12v2.95h-8.354v3.444h7.374v2.861h-7.374V285.5Z" transform="translate(-208.304 -271.313)" fill="#263238"/>
        </g>
        <g id="Group_148" data-name="Group 148" transform="translate(39.475 112.447)">
          <rect id="Rectangle_10" data-name="Rectangle 10" width="59.336" height="80.838" rx="3.952" fill="#ebebeb" opacity="0.5"/>
        </g>
        <g id="Group_149" data-name="Group 149" transform="translate(113.572 112.447)">
          <rect id="Rectangle_11" data-name="Rectangle 11" width="59.336" height="80.838" rx="3.952" fill="#ebebeb" opacity="0.5"/>
        </g>
        <g id="Group_150" data-name="Group 150" transform="translate(187.671 112.447)">
          <rect id="Rectangle_12" data-name="Rectangle 12" width="59.336" height="80.838" rx="3.952" fill="#ebebeb" opacity="0.5"/>
        </g>
        <g id="Group_151" data-name="Group 151" transform="translate(261.768 112.447)">
          <rect id="Rectangle_13" data-name="Rectangle 13" width="59.336" height="80.838" rx="3.952" fill="#ebebeb" opacity="0.5"/>
        </g>
        <g id="Group_152" data-name="Group 152" transform="translate(335.868 112.447)">
          <rect id="Rectangle_14" data-name="Rectangle 14" width="59.336" height="80.838" rx="3.952" fill="#ebebeb" opacity="0.5"/>
        </g>
        <g id="Group_153" data-name="Group 153" transform="translate(58.9 136.596)">
          <path id="Path_67" data-name="Path 67" d="M288.754,319.974c0,5.779-4.466,9.515-10.508,9.515-8.3,0-12.669-5.953-12.669-15.83,0-10.686,5.682-16.19,14.025-16.19a13.944,13.944,0,0,1,7.169,1.624l-.948,1.839a11.684,11.684,0,0,0-6.221-1.442c-7.093,0-11.726,4.644-11.726,13.8a25.117,25.117,0,0,0,.263,3.788,9.89,9.89,0,0,1,10.056-6.494C284.509,310.593,288.754,314.292,288.754,319.974Zm-2.3.042c0-4.508-3.244-7.439-8.566-7.439-5.185,0-8.75,3.292-8.75,7.531,0,3.7,3.113,7.395,9.021,7.395a7.479,7.479,0,0,0,8.288-7.487Z" transform="translate(-265.577 -297.456)" fill="#f28d49" stroke="#f28d49" stroke-width="4"/>
        </g>
        <g id="Group_154" data-name="Group 154" transform="translate(128.495 136.84)">
          <path id="Path_68" data-name="Path 68" d="M318.943,320.364h-6.628v8.748h-2.254v-8.748H292.07V318.7l17.135-21.149h2.569l-16.812,20.789h15.149v-7.71h2.209v7.71h6.622Z" transform="translate(-292.07 -297.549)" fill="#f28d49" stroke="#f28d49" stroke-width="4"/>
        </g>
        <g id="Group_156" data-name="Group 156" transform="translate(204.291 172.198)">
          <g id="Group_155" data-name="Group 155">
            <path id="Path_69" data-name="Path 69" d="M348.425,311.692a138.236,138.236,0,0,1-27.5,0,138.749,138.749,0,0,1,27.5,0Z" transform="translate(-320.924 -311.009)" fill="#f28d49"/>
          </g>
        </g>
        <g id="Group_160" data-name="Group 160" transform="translate(21.168 17.836)">
          <g id="Group_157" data-name="Group 157">
            <circle id="Ellipse_3" data-name="Ellipse 3" cx="6.433" cy="6.433" r="6.433" fill="#263238"/>
          </g>
          <g id="Group_158" data-name="Group 158" transform="translate(18.546 0.011)">
            <path id="Path_70" data-name="Path 70" d="M271.139,258.684a6.433,6.433,0,1,1-6.433-6.433A6.433,6.433,0,0,1,271.139,258.684Z" transform="translate(-258.273 -252.251)" fill="#263238"/>
          </g>
          <g id="Group_159" data-name="Group 159" transform="translate(36.75)">
            <circle id="Ellipse_4" data-name="Ellipse 4" cx="6.433" cy="6.433" r="6.433" fill="#263238"/>
          </g>
        </g>
        <g id="Group_162" data-name="Group 162" transform="translate(1.227 41.723)">
          <g id="Group_161" data-name="Group 161">
            <path id="Path_71" data-name="Path 71" d="M668.639,262.023c0,.378-95.152.686-212.5.686-117.388,0-212.516-.307-212.516-.686s95.131-.683,212.516-.683C573.487,261.332,668.639,261.64,668.639,262.023Z" transform="translate(-243.622 -261.34)" fill="#bcc8ce" stroke="#bcc8ce" stroke-width="2"/>
          </g>
        </g>
      </g>
    </g>
  </g>
</svg>
