<svg xmlns="http://www.w3.org/2000/svg" width="597.936" height="671.835" viewBox="0 0 597.936 671.835">
  <g id="monster_2" transform="translate(-762.603 -93.344)">
    <ellipse id="Ellipse_23" data-name="Ellipse 23" cx="260.732" cy="17.612" rx="260.732" ry="17.612" transform="translate(791.838 729.461)" fill="#c9ecf4"/>
    <g id="Group_72" data-name="Group 72">
      <g id="Group_56" data-name="Group 56">
        <path id="Path_97" data-name="Path 97" d="M1280.9,304.087s7.057-19.871,22.47-24.327c0,0-5.1,20.985-3.861,35.284Z" fill="#fce6bb"/>
        <path id="Path_98" data-name="Path 98" d="M1309.91,311.09s13.76-15.978,29.743-14.564c0,0-12.337,17.725-16.35,31.505Z" fill="#fce6bb"/>
        <path id="Path_99" data-name="Path 99" d="M1327.43,334.452s19.562-7.872,33.109.726c0,0-19.1,10.077-28.995,20.474Z" fill="#fce6bb"/>
        <g id="Group_55" data-name="Group 55">
          <g id="Group_54" data-name="Group 54">
            <path id="Path_100" data-name="Path 100" d="M1327.28,359.15a.191.191,0,0,0-.011.077c-.131,1.582-2.659,26.931-27.886,28.634,0,0-10.438,75.892-76.287,92.241A106.618,106.618,0,0,1,1200,483.145L1147.172,440.3l28.491-31.436s44.6-.571,74.936-50.994c0,0-14.559-24.821-8.911-42.984a10.6,10.6,0,0,1,2.274-4.274c7.505-7.911,23.766,15.635,23.766,15.635s9.867-34.919,22.195-33.941,10.142,21.58,10.142,21.58,17.514-15.009,24.678-6.032-1.857,26.953-1.857,26.953,23.942-7.911,25.326,1.516C1349.58,345.745,1327.28,359.15,1327.28,359.15Z" fill="#d95718"/>
            <path id="Path_101" data-name="Path 101" d="M1273.33,326.519a98.6,98.6,0,0,1,14.548,3.558,76,76,0,0,1,13.288,5.74,74.528,74.528,0,0,1,11.9,8.2,140.721,140.721,0,0,1,10.8,10.42,40.6,40.6,0,0,0-7.757-13.485,44.825,44.825,0,0,0-12.3-9.941,45.563,45.563,0,0,0-14.943-5.118,42.287,42.287,0,0,0-7.834-.509A30.28,30.28,0,0,0,1273.33,326.519Z" fill="#b70401"/>
          </g>
          <path id="Path_102" data-name="Path 102" d="M1327.26,359.231c-.132,1.582-2.659,26.931-27.886,28.634,0,0-10.438,75.892-76.287,92.241-21.481-12.867-49.389-32.985-5.439-32.172,63.519,1.176,77.254-70.376,77.254-70.376C1319.35,384.283,1326.8,360.747,1327.26,359.231Z" fill="#b70401"/>
        </g>
        <path id="Path_103" data-name="Path 103" d="M1257.8,359.018c-30.084,53.323-82.144,49.851-82.144,49.851s44.6-.571,74.936-50.994c0,0-14.559-24.821-8.911-42.984a10.6,10.6,0,0,1,2.274-4.274C1241.64,335,1257.8,359.018,1257.8,359.018Z" fill="#ff7878"/>
      </g>
      <g id="Group_59" data-name="Group 59">
        <path id="Path_104" data-name="Path 104" d="M842.246,304.087s-7.057-19.871-22.471-24.327c0,0,5.1,20.985,3.862,35.284Z" fill="#fce6bb"/>
        <path id="Path_105" data-name="Path 105" d="M813.239,311.09s-13.76-15.978-29.743-14.564c0,0,12.337,17.725,16.35,31.505Z" fill="#fce6bb"/>
        <path id="Path_106" data-name="Path 106" d="M795.712,334.452s-19.562-7.872-33.109.726c0,0,19.1,10.077,28.995,20.474Z" fill="#fce6bb"/>
        <g id="Group_58" data-name="Group 58">
          <g id="Group_57" data-name="Group 57">
            <path id="Path_107" data-name="Path 107" d="M795.868,359.15a.191.191,0,0,1,.011.077c.132,1.582,2.659,26.931,27.887,28.634,0,0,10.438,75.892,76.287,92.241a106.618,106.618,0,0,0,23.095,3.043L975.977,440.3l-28.491-31.436s-44.6-.571-74.936-50.994c0,0,14.559-24.821,8.911-42.984a10.61,10.61,0,0,0-2.274-4.274c-7.505-7.911-23.766,15.635-23.766,15.635s-9.867-34.919-22.2-33.941-10.142,21.58-10.142,21.58-17.514-15.009-24.678-6.032,1.857,26.953,1.857,26.953-23.942-7.911-25.326,1.516S795.868,359.15,795.868,359.15Z" fill="#d95718"/>
            <path id="Path_108" data-name="Path 108" d="M849.816,326.519a98.645,98.645,0,0,0-14.549,3.558,76.005,76.005,0,0,0-13.288,5.74,74.572,74.572,0,0,0-11.9,8.2,140.723,140.723,0,0,0-10.8,10.42,40.6,40.6,0,0,1,7.757-13.485,44.825,44.825,0,0,1,12.3-9.941,45.563,45.563,0,0,1,14.943-5.118,42.288,42.288,0,0,1,7.834-.509A30.319,30.319,0,0,1,849.816,326.519Z" fill="#b70401"/>
          </g>
          <path id="Path_109" data-name="Path 109" d="M795.882,359.231c.132,1.582,2.659,26.931,27.886,28.634,0,0,10.438,75.892,76.287,92.241,21.481-12.867,49.389-32.985,5.439-32.172-63.519,1.176-77.254-70.376-77.254-70.376C803.793,384.283,796.344,360.747,795.882,359.231Z" fill="#b70401"/>
        </g>
        <path id="Path_110" data-name="Path 110" d="M865.342,359.018c30.085,53.323,82.144,49.851,82.144,49.851s-44.6-.571-74.936-50.994c0,0,14.559-24.821,8.911-42.984a10.61,10.61,0,0,0-2.274-4.274C881.505,335,865.342,359.018,865.342,359.018Z" fill="#ff7878"/>
      </g>
      <g id="Group_62" data-name="Group 62">
        <g id="Group_61" data-name="Group 61">
          <g id="Group_60" data-name="Group 60">
            <path id="Path_111" data-name="Path 111" d="M990.826,670.737c-29.535,13.372-37.325,46.247-46.247,58.5-3.384,4.648-12.449,7.054-22.4,8.252-16.295,1.956-34.974.67-34.974.67a35.039,35.039,0,0,1-9.966,3.143,24.316,24.316,0,0,1-23.47-9.834h-.011a36.2,36.2,0,0,1-9.922-1.648c-8.306-2.637-18.02-9.482-12.9-27.315,9.911-34.534,57.377-36.776,57.377-36.776l11.526-53.444a.174.174,0,0,0,.011-.044l6.845-31.754,33.985-11.691,52.927,7.241s8.812,26.81,10.735,52.169C1005.77,647.015,1003.41,665.045,990.826,670.737Z" fill="#d95718"/>
            <path id="Path_112" data-name="Path 112" d="M853.768,731.466h-.011a36.2,36.2,0,0,1-9.922-1.648c-.692-36.556,20.151-39.578,20.151-39.578C847.648,698.965,853.768,731.466,853.768,731.466Z" fill="#b20000"/>
            <path id="Path_113" data-name="Path 113" d="M887.2,738.158a35,35,0,0,1-9.966,3.142c-4.482-27.008,11.45-39.358,11.45-39.358C879.962,716.611,887.2,738.158,887.2,738.158Z" fill="#b20000"/>
          </g>
          <path id="Path_114" data-name="Path 114" d="M835.4,699.362s-24,3.2-19.6,34.543c0,0,13.551-11.254,23.95-7.009A28.276,28.276,0,0,0,835.4,699.362Z" fill="#fce6bb"/>
          <path id="Path_115" data-name="Path 115" d="M864.925,712.9s-24,3.2-19.6,34.543c0,0,13.551-11.254,23.95-7.009A28.276,28.276,0,0,0,864.925,712.9Z" fill="#fce6bb"/>
          <path id="Path_116" data-name="Path 116" d="M895.878,707.484s-26.744,7.07-17.262,41.961c0,0,13.745-14.7,26.139-11.378A32.3,32.3,0,0,0,895.878,707.484Z" fill="#fce6bb"/>
        </g>
        <path id="Path_117" data-name="Path 117" d="M990.826,670.737c-29.535,13.372-37.325,46.247-46.247,58.5-3.384,4.648-12.449,7.054-22.4,8.252,10.471-14,22.294-37.633,1.912-56.081-30.392-27.491-24.48-67.618-24.25-69.123a.174.174,0,0,0,.011-.044l57.663-7.713s26.107,12.251,46.829,23.678C1005.77,647.015,1003.41,665.045,990.826,670.737Z" fill="#900"/>
      </g>
      <g id="Group_65" data-name="Group 65">
        <g id="Group_64" data-name="Group 64">
          <g id="Group_63" data-name="Group 63">
            <path id="Path_118" data-name="Path 118" d="M1252,748.848a35.825,35.825,0,0,1-10.054.33h-.011a24.3,24.3,0,0,1-24.557,6.681,34.567,34.567,0,0,1-9.46-4.417,237.078,237.078,0,0,1-25.162-3.175c-13.02-2.417-26.941-6.505-30.556-13.163-7.252-13.317-10.68-46.928-38.2-64.047-16.69-10.372-9.6-42.83-1.439-66.761a275,275,0,0,1,11.053-27.491l40.423-.2,13-.066,27.689,13.811,4.483,2.23,7.076,86.912s46.763,8.427,52.081,43.961C1271.11,741.8,1260.58,747.321,1252,748.848Z" fill="#d95718"/>
            <path id="Path_119" data-name="Path 119" d="M1241.94,749.182h.011a36.182,36.182,0,0,0,10.052-.337c5.465-36.152-14.805-41.872-14.805-41.872C1252.26,717.759,1241.94,749.182,1241.94,749.182Z" fill="#b20000"/>
            <path id="Path_120" data-name="Path 120" d="M1207.92,751.445a35.006,35.006,0,0,0,9.47,4.418c7.974-26.19-6.206-40.517-6.206-40.517C1217.91,731.03,1207.92,751.445,1207.92,751.445Z" fill="#b20000"/>
          </g>
          <path id="Path_121" data-name="Path 121" d="M1264.35,719.755s23.377,6.312,14.916,36.809c0,0-11.964-12.928-22.828-10.08A28.292,28.292,0,0,1,1264.35,719.755Z" fill="#fce6bb"/>
          <path id="Path_122" data-name="Path 122" d="M1234.54,728.37s23.377,6.312,14.916,36.809c0,0-11.964-12.929-22.828-10.08A28.262,28.262,0,0,1,1234.54,728.37Z" fill="#fce6bb"/>
          <path id="Path_123" data-name="Path 123" d="M1203.32,719.9s25.59,10.506,11.628,43.857c0,0-11.706-16.368-24.428-14.7A32.354,32.354,0,0,1,1203.32,719.9Z" fill="#fce6bb"/>
        </g>
        <path id="Path_124" data-name="Path 124" d="M1268.36,723.456c-16.185-33.732-60.443-38.149-60.443-38.149l-3.2-81.341V590.352l4.483,2.23,7.076,86.912S1263.05,687.922,1268.36,723.456Z" fill="#ff7878"/>
        <path id="Path_125" data-name="Path 125" d="M1182.76,748.266c-13.02-2.417-26.941-6.505-30.556-13.163-7.252-13.317-10.68-46.928-38.2-64.047-16.69-10.372-9.6-42.83-1.439-66.761l51.477-27.689,30.337,27.172s-6.021,44.577-24.59,78C1157.79,703.348,1171.52,731.213,1182.76,748.266Z" fill="#900"/>
      </g>
      <g id="Group_66" data-name="Group 66">
        <path id="Path_126" data-name="Path 126" d="M1104.55,93.352a51.128,51.128,0,0,0-51.462,45.779,6.818,6.818,0,0,1-3.509,5.336,96.778,96.778,0,0,0-11.629,7.4c-33.352,24.711-52.054,70.488-55.586,136.059l21.943,1.182c3.153-58.524,18.782-98.69,46.454-119.382l.065-.048a6.794,6.794,0,0,1,9.79,1.97,51.131,51.131,0,1,0,43.934-78.292Z" fill="#d95718"/>
        <path id="Path_127" data-name="Path 127" d="M1103.92,195.621a51.094,51.094,0,0,1-43.313-23.975,6.8,6.8,0,0,0-9.79-1.978c-.021.022-.043.033-.065.055-27.667,20.69-43.3,60.861-46.445,119.381l-21.953-1.187c.1-1.824.209-3.626.329-5.417l20.525,1.11c3.142-58.52,18.778-98.691,46.445-119.381.022-.022.044-.033.066-.055a6.8,6.8,0,0,1,9.79,1.978,51.132,51.132,0,0,0,94.417-29.161,47.5,47.5,0,0,0-.473-5.2,49.762,49.762,0,0,1,1.571,10.691A51.139,51.139,0,0,1,1103.92,195.621Z" fill="#b70401"/>
        <path id="Path_128" data-name="Path 128" d="M1147.58,117.949a51.068,51.068,0,0,0-92.3,24.48,6.812,6.812,0,0,1-3.505,5.329,97.829,97.829,0,0,0-11.636,7.4c-32.809,24.316-51.444,69.024-55.4,132.9l-2.384-.132c3.538-65.563,22.239-111.348,55.586-136.06a97.841,97.841,0,0,1,11.636-7.4,6.81,6.81,0,0,0,3.505-5.329,51.083,51.083,0,0,1,94.494-21.183Z" fill="#ff7878"/>
        <circle id="Ellipse_24" data-name="Ellipse 24" cx="42.395" cy="42.395" r="42.395" transform="translate(1052.97 176.055) rotate(-76.714)" fill="#fff"/>
        <circle id="Ellipse_25" data-name="Ellipse 25" cx="22.682" cy="22.682" r="22.682" transform="translate(1078.193 164.841) rotate(-76.714)" fill="#992f1d"/>
        <circle id="Ellipse_26" data-name="Ellipse 26" cx="11.447" cy="11.447" r="11.447" transform="translate(1091.709 156.489) rotate(-76.714)" fill="#530700"/>
        <path id="Path_129" data-name="Path 129" d="M1103.31,139.559a5.7,5.7,0,1,1-5.7-5.7A5.7,5.7,0,0,1,1103.31,139.559Z" fill="#fff"/>
      </g>
      <g id="Group_67" data-name="Group 67">
        <path id="Path_130" data-name="Path 130" d="M1219.32,577.705c-9.933,35.556-26.744,61.421-47.6,79.573-61.277,53.367-157.463,40.2-216.533,11.317C929.5,656.036,910.831,640.5,905.1,626.172c-23.393-58.5-11.735-63.014,3.812-175.45,8.559-61.893-32.216-200.6,116.535-227.345C1178.53,195.852,1271.13,392.179,1219.32,577.705Z" fill="#d95718"/>
        <path id="Path_131" data-name="Path 131" d="M1219.32,577.705c-14.438,51.7-43.412,82.88-78.21,99.713,29.787-18.6,54.136-49.06,67.124-95.559,40.182-143.894-3.615-294.073-94.8-348.22C1211.16,278.182,1260.21,431.306,1219.32,577.705Z" fill="#ff7878"/>
        <path id="Path_132" data-name="Path 132" d="M1120.26,685.636C1032.326,713.16,920.714,665.2,905.1,626.171c-23.393-58.5-11.735-63.014,3.812-175.45,8.559-61.893-32.216-200.6,116.535-227.345,2.868-.516,5.7-.945,8.527-1.307-121.82,36.281-85.8,163.485-93.9,222.005-15.537,112.436-27.206,116.963-3.8,175.461C950.084,654.069,1039.04,695.591,1120.26,685.636Z" fill="#b70401"/>
      </g>
      <path id="Path_133" data-name="Path 133" d="M977.876,236.1c5.826-30.85,35.236-22.4,47.039-40.094s22.63-17.8,22.63-17.8-7.074,8.783-6.7,16.921c0,0,20.3-13.932,28.607-4.65,0,0-10.879,5.279-13.809,15.7,0,0,28.118-6.441,36.272,18.36,0,0-10.021-5.966-18.418-.9,0,0,16.394,14.083,3.289,34.06,0,0-7.71-15.837-21.242-20,0,0,1.593,22.2-11.97,29.215,0,0-.745-16.274-11.522-21.341s-15.287,10.367-34.744,5.016C977.493,245.138,977.876,236.1,977.876,236.1Z" fill="#433352"/>
      <path id="Path_134" data-name="Path 134" d="M1009.37,212.056S978.022,226.9,989.136,239.7s38.266-18.7,57.618-1.749c0,0,2.564-6.475.428-10.916,0,0,6.244-4.418,13.814.677,0,0-3.4-10.334-12.037-10.46,0,0-2.4-4.544-.651-8.947,0,0-5.185-3.551-7.285,2.508,0,0-5.3-4.771-5.1-7.55,0,0-4.537,3.135-2.3,7.317C1033.63,210.577,1027.61,206.1,1009.37,212.056Z" fill="#645374"/>
      <g id="Group_71" data-name="Group 71">
        <g id="Group_69" data-name="Group 69">
          <path id="Path_135" data-name="Path 135" d="M1010.97,449.48c-.011,4.12-.176,7.032-.176,7.032l-2.56-.154h-.011a102.857,102.857,0,0,1-12.746-6.713l-2.725-1.769c-.912-.571-1.8-1.2-2.659-1.857l-2.594-1.945c-.868-.637-1.648-1.395-2.472-2.088-.495-.407-.967-.824-1.439-1.264l-.011-.011-.78-2.34s.209-.3.6-.824c2.461-3.307,12.054-15.46,20.085-15.328C1010.07,422.329,1010.99,439.47,1010.97,449.48Z" fill="#fff"/>
          <path id="Path_136" data-name="Path 136" d="M1158.21,438.371l-.439,1.307c-.824.791-1.681,1.56-2.56,2.3-.824.692-1.615,1.461-2.484,2.088l-2.593,1.945a31.905,31.905,0,0,1-2.659,1.857l-2.714,1.769a103.69,103.69,0,0,1-12.911,6.779l-1.648.1s-.175-3-.175-7.241c-.011-10.021.955-26.942,7.493-27.052,7.779-.132,17.031,11.273,19.833,15C1157.91,437.943,1158.21,438.371,1158.21,438.371Z" fill="#fff"/>
          <g id="Group_68" data-name="Group 68">
            <circle id="Ellipse_27" data-name="Ellipse 27" cx="69.483" cy="69.483" r="69.483" transform="translate(960.907 352.216) rotate(-45)" fill="#b20000"/>
            <circle id="Ellipse_28" data-name="Ellipse 28" cx="69.483" cy="69.483" r="69.483" transform="translate(968.197 344.928) rotate(-45)" fill="#fff"/>
            <circle id="Ellipse_29" data-name="Ellipse 29" cx="37.173" cy="37.173" r="37.173" transform="translate(1016.36 350.553) rotate(-45)" fill="#992f1d"/>
            <circle id="Ellipse_30" data-name="Ellipse 30" cx="18.76" cy="18.76" r="18.76" transform="translate(1042.4 350.553) rotate(-45)" fill="#530700"/>
            <circle id="Ellipse_31" data-name="Ellipse 31" cx="9.343" cy="9.343" r="9.343" transform="translate(1046.777 327.513)" fill="#fff"/>
          </g>
          <path id="Path_137" data-name="Path 137" d="M1164.04,432.668c-.077.1-.165.209-.252.308a65.2,65.2,0,0,1-6.01,6.7c-.824.791-1.681,1.56-2.56,2.3-.824.692-1.615,1.461-2.484,2.088l-2.593,1.945a31.905,31.905,0,0,1-2.659,1.857l-2.714,1.769a103.69,103.69,0,0,1-12.911,6.779c-3.472,1.549-7.032,2.923-10.625,4.142a166.083,166.083,0,0,1-102.218.011c-3.648-1.231-7.252-2.626-10.779-4.208h-.011a102.857,102.857,0,0,1-12.746-6.713l-2.725-1.769c-.912-.571-1.8-1.2-2.659-1.857l-2.593-1.945c-.868-.637-1.648-1.395-2.472-2.088-.494-.406-.967-.824-1.439-1.264l-.011-.011a61.4,61.4,0,0,1-7.076-7.68l-.011-.011L976.47,433l-.263-.33c.879.615,1.747,1.22,2.593,1.846l1.275.923c.439.286.89.56,1.34.835l1.989,1.275.649.407c.879.56,1.824,1.022,2.725,1.538.923.484,1.8,1.022,2.736,1.472l2.791,1.362c1.824.956,3.78,1.681,5.648,2.516a138.041,138.041,0,0,0,13.02,4.637q5.175,1.582,10.427,2.791a224.285,224.285,0,0,0,97.449.011c3.758-.879,7.494-1.868,11.186-3.011,4.153-1.286,8.241-2.747,12.262-4.417,1.879-.835,3.824-1.571,5.648-2.516l2.791-1.362c.945-.462,1.824-.989,2.736-1.483s1.846-.978,2.725-1.527l1.165-.747,1.472-.945c.451-.275.9-.538,1.341-.835l1.274-.923C1162.29,433.9,1163.16,433.283,1164.04,432.668Z" fill="#b20000"/>
          <path id="Path_138" data-name="Path 138" d="M1164.04,432.668c-.077.1-.165.209-.252.308-.517.451-1.055.89-1.6,1.308-.89.692-1.747,1.461-2.681,2.088l-2.813,1.945a33.642,33.642,0,0,1-2.868,1.857l-2.944,1.769a115.3,115.3,0,0,1-13.966,6.779c-3.758,1.549-7.6,2.923-11.493,4.142a193.715,193.715,0,0,1-110.59.011c-3.944-1.231-7.845-2.626-11.658-4.208h-.011a114.136,114.136,0,0,1-13.789-6.714l-2.945-1.769c-.989-.571-1.956-1.2-2.878-1.857l-2.813-1.945c-.934-.637-1.78-1.395-2.67-2.088-.539-.407-1.044-.824-1.56-1.264l-.011-.011-.022-.022-.263-.33c.879.615,1.747,1.22,2.593,1.846l1.275.923c.439.286.89.56,1.34.835l1.989,1.275.649.407c.879.56,1.824,1.022,2.725,1.538.923.484,1.8,1.022,2.736,1.472l2.791,1.362c1.824.956,3.78,1.681,5.648,2.516a138.041,138.041,0,0,0,13.02,4.637q5.175,1.582,10.427,2.791a224.285,224.285,0,0,0,97.449.011c3.758-.879,7.494-1.868,11.186-3.011,4.153-1.286,8.241-2.747,12.262-4.417,1.879-.835,3.824-1.571,5.648-2.516l2.791-1.362c.945-.462,1.824-.989,2.736-1.483s1.846-.978,2.725-1.527l1.165-.747,1.472-.945c.451-.275.9-.538,1.341-.835l1.274-.923C1162.29,433.9,1163.16,433.283,1164.04,432.668Z" fill="#ff7878"/>
        </g>
        <path id="Path_139" data-name="Path 139" d="M1144.64,473.244A108.87,108.87,0,0,1,1109.734,492a130.731,130.731,0,0,1-39.6,6.394,129.378,129.378,0,0,1-39.623-6.347,108.507,108.507,0,0,1-34.9-18.776,262.053,262.053,0,0,0,37.092,10.419,189.692,189.692,0,0,0,74.85-.019A259.86,259.86,0,0,0,1144.64,473.244Z" fill="#b20000"/>
        <g id="Group_70" data-name="Group 70">
          <path id="Path_140" data-name="Path 140" d="M1090.36,558.773h0C1090.35,558.75,1090.35,558.757,1090.36,558.773Z" fill="#b20000"/>
          <path id="Path_141" data-name="Path 141" d="M1115.6,573.691c-.155-.119-.493-.448-.747-.705-.274-.278-.544-.571-.814-.869-.538-.6-1.056-1.238-1.561-1.89a41.835,41.835,0,0,1-2.8-4.141,49.009,49.009,0,0,1-6.217-19.533,66.3,66.3,0,0,1-.1-10.722,48.445,48.445,0,0,0-2.28,10.718,45.539,45.539,0,0,0,.234,11.185,45.03,45.03,0,0,0,3.052,10.992q.556,1.314,1.193,2.6a27.474,27.474,0,0,1-6.348-2.778,23.338,23.338,0,0,1-5.344-4.43,23.582,23.582,0,0,1-2.092-2.7c-.3-.473-.594-.951-.85-1.428-.126-.238-.247-.476-.354-.7l-.148-.329c-.025-.056-.061-.148-.073-.182l-5.635-10.052s-5.195,17.876-5.912,21.4l-.731,3.651a26.44,26.44,0,0,1-3.93-3.321,28.633,28.633,0,0,1-3.606-4.521,28.15,28.15,0,0,1-1.449-2.513c-.221-.426-.421-.857-.61-1.28l-.263-.622-.175-.462-3.588-9.428-6.007,7.834a24.471,24.471,0,0,1-4.134,4.264,27.93,27.93,0,0,1-5.146,3.284,35.441,35.441,0,0,1-5.273,2.12c.134-1.28.251-2.558.328-3.835.125-1.935.2-3.867.182-5.8-.008-1.964-.056-3.8-.211-5.92l-.729-9.958-7.175,6.648a22.253,22.253,0,0,1-4.443,3.184,20.419,20.419,0,0,1-5.154,1.909,24.82,24.82,0,0,1-5.652.547c-.517-.01-1.034-.039-1.551-.083.392-.948.784-1.9,1.143-2.859.489-1.273.928-2.577,1.382-3.863q.627-1.961,1.2-3.933a57.515,57.515,0,0,0,1.667-8.08,29.27,29.27,0,0,0,.293-4.123,13.447,13.447,0,0,0-.509-4.074,25.81,25.81,0,0,1-2.207,7.552c-1.048,2.4-2.228,4.733-3.471,7.03s-2.574,4.547-3.933,6.779l-2.074,3.327-2.13,3.293-2.372,3.667,4.351,1.7c.461.18.714.269,1.051.383l.941.3c.623.183,1.244.348,1.867.487a32.578,32.578,0,0,0,3.779.635,30.413,30.413,0,0,0,7.749-.135,29.41,29.41,0,0,0,6.12-1.608c-.058.726-.12,1.451-.2,2.173-.175,1.729-.406,3.446-.7,5.141-.268,1.7-.65,3.365-1.02,5.02l-1.513,6.767,6.9-.351c.544-.028.831-.053,1.217-.09l1.063-.118c.7-.088,1.384-.19,2.063-.31q2.039-.357,4.028-.889a44.068,44.068,0,0,0,7.783-2.872,38.8,38.8,0,0,0,7.179-4.509c.1-.082.2-.173.3-.256a39.458,39.458,0,0,0,4.984,6.118,35.472,35.472,0,0,0,13.714,8.452l5.943,2.01.958-6.073q.833-5.281,1.734-10.575a32.323,32.323,0,0,0,6.253,4.2,33.439,33.439,0,0,0,8.884,3.053,40.645,40.645,0,0,0,9.083.753l10.291-.314Z" fill="#b20000"/>
        </g>
      </g>
    </g>
  </g>
</svg>
