<svg xmlns="http://www.w3.org/2000/svg" width="247.085" height="240.931" viewBox="0 0 247.085 240.931">
  <g id="monster-err" transform="translate(-850.141 -713.247)">
    <g id="Question_Marks" transform="translate(746 537.94)">
      <g id="Group_14" data-name="Group 14">
        <g id="Group_12" data-name="Group 12">
          <path id="Path_11" data-name="Path 11" d="M157.612,247.439l-.921-.391a18.133,18.133,0,0,0,1.454-4.955l.994.109A19.115,19.115,0,0,1,157.612,247.439Zm-.393-11.456a13.331,13.331,0,0,0-10.431-7.774l.166-.986a14.3,14.3,0,0,1,11.175,8.347Z" fill="#ff9340"/>
          <path id="Path_12" data-name="Path 12" d="M151.983,257.5l-9.839,4.479-.448-.984a13.369,13.369,0,0,1-1.287-4.337,9.939,9.939,0,0,1,.393-3.633,57.474,57.474,0,0,1,2.987-6.861q1.318-2.664.671-4.087a3.178,3.178,0,0,0-1.849-1.831,3.966,3.966,0,0,0-2.91.371,4.5,4.5,0,0,0-2.488,2.6q-.649,1.766.393,4.948L127,251.494a15.023,15.023,0,0,1-.034-10.752q1.969-4.976,9.219-8.276,5.645-2.569,10.186-1.793a10.764,10.764,0,0,1,8.578,6.346,9,9,0,0,1,.716,4.8,23.013,23.013,0,0,1-2.7,7.26,14.619,14.619,0,0,0-1.786,4.83A7.486,7.486,0,0,0,151.983,257.5ZM143,264.744l10.537-4.8,4.231,9.294-10.537,4.8Z" fill="#ff9340"/>
        </g>
        <g id="Group_13" data-name="Group 13">
          <path id="Path_13" data-name="Path 13" d="M127.641,279.732l-5,6.794-.679-.5a10.425,10.425,0,0,1-2.526-2.468,7.75,7.75,0,0,1-1.113-2.627,44.574,44.574,0,0,1-.571-5.814q-.114-2.318-1.1-3.042a2.476,2.476,0,0,0-1.957-.545,3.1,3.1,0,0,0-1.843,1.359,3.518,3.518,0,0,0-.707,2.72,6.114,6.114,0,0,0,2.149,3.224l-5.969,6.3a11.73,11.73,0,0,1-4.111-7.318q-.549-4.141,3.139-9.148a13.662,13.662,0,0,1,6.264-5.1,8.4,8.4,0,0,1,8.261,1.066,7.036,7.036,0,0,1,2.314,3,17.968,17.968,0,0,1,.922,5.975,11.449,11.449,0,0,0,.618,3.972A5.812,5.812,0,0,0,127.641,279.732Zm-3.371,8.357,5.361-7.277,6.419,4.728-5.361,7.277Z" fill="#ff9340"/>
        </g>
      </g>
    </g>
    <g id="Character_1_" transform="translate(746 537.94)">
      <g id="Group_20" data-name="Group 20">
        <path id="Path_14" data-name="Path 14" d="M234.088,412.636a4.484,4.484,0,0,1-3.987-2.425c-4.019-7.763-9.067-16.872-18.154-26.732a4.483,4.483,0,0,1-1.012-4.282c3.374-11.711,8.671-27.719,8.724-27.879a4.485,4.485,0,0,1,8.516,2.82c-.049.148-4.611,13.938-7.923,25.156a126.137,126.137,0,0,1,17.816,26.794,4.487,4.487,0,0,1-3.98,6.548Z" fill="#ff9340"/>
        <path id="Path_15" data-name="Path 15" d="M241.56,416.238H206.772l18.436-10.457,15.455.6Z" fill="#263238"/>
        <ellipse id="Ellipse_1" data-name="Ellipse 1" cx="30.042" cy="24.896" rx="30.042" ry="24.896" transform="translate(194.691 335.555) rotate(-17.355)" fill="#263238"/>
        <path id="Path_16" data-name="Path 16" d="M151.653,333.981a4.487,4.487,0,0,1-1.719-8.631,5.055,5.055,0,0,0,2.97-3.77,4.484,4.484,0,0,1,3.67-3.995,31.943,31.943,0,0,0,3.3-.845c6.078-1.775,13.6-3.977,37.309,2.662,23.381-13.076,23.647-37.6,23.647-38.655a4.491,4.491,0,0,1,4.47-4.494h.016A4.479,4.479,0,0,1,229.8,280.7c.009,1.3-.137,32.083-30.042,47.5a4.47,4.47,0,0,1-3.3.322c-22.6-6.525-28.957-4.666-34.068-3.172-.453.132-.912.267-1.38.4a13.839,13.839,0,0,1-7.641,7.891A4.436,4.436,0,0,1,151.653,333.981Z" fill="#263238"/>
        <path id="Path_17" data-name="Path 17" d="M204.081,301.891C195.575,268.066,172.9,180.83,245.548,175.5c65.178-4.785,83.067,81.97,87.415,112.026a352.114,352.114,0,0,1,3.534,45.819,33.307,33.307,0,0,1-26.755,33.013c-35.511,7.212-69.116,8.238-91.749-.7a14.862,14.862,0,0,1-9.233-15.2C209.632,340.738,209.648,324.028,204.081,301.891Z" fill="#ff9340"/>
        <path id="Path_18" data-name="Path 18" d="M332.96,287.52c-4.1-28.324-20.221-107.042-76.66-111.964a16.4,16.4,0,0,0-16.074,8.517c-2.518,4.876-2.437,10.791,1.335,16.636C254,220,283.665,286.67,279.185,323c-2.04,16.53-12.407,29.728-3.385,48.31a291.158,291.158,0,0,0,33.94-4.96,33.294,33.294,0,0,0,26.76-33.01A351.648,351.648,0,0,0,332.96,287.52Z" opacity="0.1"/>
        <path id="Path_19" data-name="Path 19" d="M323.239,333.79a.449.449,0,0,1-.449-.443,350.08,350.08,0,0,0-3.529-45.76c-10.8-74.652-39.875-112.408-84.1-109.15a.448.448,0,1,1-.065-.894c44.752-3.3,74.173,34.723,85.05,109.916a350.843,350.843,0,0,1,3.539,45.879.449.449,0,0,1-.443.453Z" fill="#263238"/>
        <ellipse id="Ellipse_2" data-name="Ellipse 2" cx="30.042" cy="24.896" rx="30.042" ry="24.896" transform="translate(279.023 337.95) rotate(-17.355)" fill="#263238"/>
        <path id="Path_20" data-name="Path 20" d="M325.3,412.636a4.484,4.484,0,0,1-3.987-2.425c-4.018-7.763-9.067-16.871-18.154-26.732a4.486,4.486,0,0,1-1.011-4.282c3.374-11.711,8.671-27.719,8.724-27.879a4.485,4.485,0,1,1,8.516,2.82c-.049.148-4.611,13.938-7.923,25.156a126.092,126.092,0,0,1,17.815,26.794,4.487,4.487,0,0,1-3.98,6.548Z" fill="#ff9340"/>
        <path id="Path_21" data-name="Path 21" d="M315.876,275.906a4.486,4.486,0,0,1-2.1-8.452h0c.865-.46,20.395-11.135,25.878-36.77-13.021-5.445-36.423-17.738-41.54-23.917a4.479,4.479,0,0,1-.962-2.081,22.323,22.323,0,0,1,1-11l-2.362-4.562A4.486,4.486,0,1,1,303.757,185l3.4,6.563a4.485,4.485,0,0,1-.172,4.428,10.925,10.925,0,0,0-1.119,5.912c5.763,5.206,29.04,17.543,40.427,21.77a4.485,4.485,0,0,1,2.872,4.892c-5.072,32.767-30.14,46.271-31.2,46.829A4.462,4.462,0,0,1,315.876,275.906Z" fill="#263238"/>
        <path id="Path_22" data-name="Path 22" d="M301.566,206.149a2.242,2.242,0,0,1-1.875-3.469c.155-.237,3.863-5.83,9.5-7.341a2.242,2.242,0,1,1,1.161,4.332c-3.939,1.056-6.88,5.418-6.909,5.462A2.243,2.243,0,0,1,301.566,206.149Z" fill="#263238"/>
        <path id="Path_23" data-name="Path 23" d="M332.768,416.238H297.979l18.436-10.457,15.456.6Z" fill="#263238"/>
        <g id="Group_15" data-name="Group 15">
          <ellipse id="Ellipse_3" data-name="Ellipse 3" cx="23.923" cy="21.531" rx="23.923" ry="21.531" transform="matrix(0.996, -0.088, 0.088, 0.996, 232.289, 241.472)" fill="#fff"/>
          <path id="Path_24" data-name="Path 24" d="M258.5,261.115c1.81,6.351.446,12.306-3.045,13.3s-7.789-3.347-9.6-9.7-.446-12.306,3.045-13.3S256.689,254.764,258.5,261.115Z" fill="#263238"/>
          <path id="Path_25" data-name="Path 25" d="M230.795,264.86c15.1-1.944,45-10.466,49.939-13.9-3.888-11.363-21.959-21.082-38.128-15.608C228.032,240.282,230.795,264.86,230.795,264.86Z" fill="#263238"/>
          <path id="Path_26" data-name="Path 26" d="M233.734,272.16c18.742-3.562,43.114-9.543,50.084-13.375-.43,12.228-3.98,24.615-23.119,28.8C245.062,291.008,233.734,272.16,233.734,272.16Z" fill="#263238"/>
        </g>
        <g id="Group_16" data-name="Group 16">
          <ellipse id="Ellipse_4" data-name="Ellipse 4" cx="14.719" cy="18.626" rx="14.719" ry="18.626" transform="matrix(0.834, -0.552, 0.552, 0.834, 185.461, 260.963)" fill="#fff"/>
          <path id="Path_27" data-name="Path 27" d="M208.337,268.68c1.137,5.357.155,9.826-2.193,9.982s-5.175-4.061-6.313-9.419-.156-9.826,2.193-9.982S207.2,263.322,208.337,268.68Z" fill="#263238"/>
          <path id="Path_28" data-name="Path 28" d="M189.748,266.628c10.132,1.2,30.25-.138,33.593-1.967-2.47-9.7-14.454-20.672-25.342-19.265C188.185,246.664,189.748,266.628,189.748,266.628Z" fill="#263238"/>
          <path id="Path_29" data-name="Path 29" d="M191.63,272.942c12.588.573,28.973.251,33.684-1.521-.43,9.606-2.951,18.772-15.812,18.622C198.994,289.919,191.63,272.942,191.63,272.942Z" fill="#263238"/>
        </g>
        <path id="Path_30" data-name="Path 30" d="M264.088,229.3a56.457,56.457,0,0,1-32.059-9.8,4.485,4.485,0,0,1,5.409-7.156,48.966,48.966,0,0,0,35.838,7.111,4.486,4.486,0,1,1,1.672,8.814A58.156,58.156,0,0,1,264.088,229.3Z" fill="#263238"/>
        <path id="Path_31" data-name="Path 31" d="M183.878,221.566a4.488,4.488,0,0,1-4.222-6c2.378-6.619,6.321-10.917,11.72-12.774,9.787-3.371,20.327,3.183,20.771,3.464a4.485,4.485,0,0,1-4.779,7.592c-2.042-1.271-8.374-4.205-13.1-2.564-2.723.946-4.741,3.34-6.169,7.314A4.485,4.485,0,0,1,183.878,221.566Z" fill="#263238"/>
        <path id="Path_32" data-name="Path 32" d="M219.231,297.246a1.312,1.312,0,0,1-.374-.054,1.336,1.336,0,0,1-.921-1.643,8.789,8.789,0,0,1,4.562-4.929c5.146-2.653,12.988-2.1,23.309,1.632a1.346,1.346,0,0,1-.916,2.532c-11.834-4.287-17.977-3.36-21.048-1.827a6.235,6.235,0,0,0-3.318,3.33A1.36,1.36,0,0,1,219.231,297.246Z" fill="#263238"/>
        <g id="Group_19" data-name="Group 19">
          <g id="Group_17" data-name="Group 17">
            <path id="Path_33" data-name="Path 33" d="M176.882,292.32A119.347,119.347,0,0,0,132.1,305.471c7.729-1.46,35.355,32.727,42.458,59.094,13.1-4.859,28.382-8.167,44.678-10.751C209.362,326.637,191.313,295.852,176.882,292.32Z" fill="#ff9340"/>
            <path id="Path_34" data-name="Path 34" d="M176.882,292.32A119.347,119.347,0,0,0,132.1,305.471c7.729-1.46,35.355,32.727,42.458,59.094,13.1-4.859,28.382-8.167,44.678-10.751C209.362,326.637,191.313,295.852,176.882,292.32Z" fill="#fff" opacity="0.6"/>
          </g>
          <g id="Group_18" data-name="Group 18">
            <path id="Path_35" data-name="Path 35" d="M176.882,292.32c-17.08-1.928-44.811,12.372-44.811,12.372-4.913,3.133-3.58,9.011-.9,11.49,2.572-3.691,31.233-13.294,42.007-14.582C167.817,296.64,172.8,293.043,176.882,292.32Z" fill="#ff9340"/>
            <path id="Path_36" data-name="Path 36" d="M176.882,292.32c-17.08-1.928-44.811,12.372-44.811,12.372-4.913,3.133-3.58,9.011-.9,11.49,2.572-3.691,31.233-13.294,42.007-14.582C167.817,296.64,172.8,293.043,176.882,292.32Z" fill="#fff" opacity="0.2"/>
          </g>
        </g>
        <path id="Path_37" data-name="Path 37" d="M151.656,333.981a4.484,4.484,0,0,1-3.761-2.035c-3.253-4.984-1.221-12.59-.781-14.063a4.485,4.485,0,0,1,8.6,2.559c-.733,2.51-.882,5.717-.3,6.6a4.485,4.485,0,0,1-3.751,6.937Z" fill="#263238"/>
      </g>
    </g>
  </g>
</svg>
