<?xml version="1.0" encoding="UTF-8"?>
<svg id="Layer_2" data-name="Layer 2" xmlns="http://www.w3.org/2000/svg" viewBox="0 0 449.55 446.53">
  <defs>
    <style>
      .cls-1 {
        fill: #e6cb47;
      }

      .cls-1, .cls-2, .cls-3 {
        stroke-width: 0px;
      }

      .cls-2 {
        fill: #b3b3b3;
      }

      .cls-3 {
        fill: #204f79;
      }
    </style>
  </defs>
  <g id="Layer_1-2" data-name="Layer 1">
    <g>
      <path class="cls-1" d="m337.42,127.91c0-10.25-8.31-18.56-18.56-18.56,0,10.25,8.31,18.56,18.56,18.56Z"/>
      <path class="cls-1" d="m284.45,406.04c6.83,0,12.38-5.54,12.38-12.37-6.83,0-12.38,5.54-12.38,12.37Z"/>
      <path class="cls-3" d="m317.54,110.48c-9.01,0-16.31,7.3-16.31,16.31,9.01,0,16.31-7.3,16.31-16.31Z"/>
      <path class="cls-2" d="m302.54,350.45c7.56,0,13.69-6.13,13.69-13.69-7.56,0-13.69,6.13-13.69,13.69Z"/>
      <path class="cls-3" d="m41.72,319.7c0,5.69,4.62,10.31,10.31,10.31,0-5.69-4.62-10.31-10.31-10.31Z"/>
      <path class="cls-3" d="m55.5,334.98c-9.53,0-17.25,7.72-17.25,17.25,9.53,0,17.25-7.72,17.25-17.25Z"/>
      <path class="cls-2" d="m109.6,280.89c-7.15,0-12.94,5.79-12.94,12.94,7.15,0,12.94-5.79,12.94-12.94Z"/>
      <path class="cls-2" d="m374.26,127.25c0-9.53-7.72-17.25-17.25-17.25,0,9.53,7.72,17.25,17.25,17.25Z"/>
      <path class="cls-3" d="m378.76,349.23c6.21,0,11.25-5.04,11.25-11.25-6.21,0-11.25,5.04-11.25,11.25Z"/>
      <path class="cls-1" d="m354.11,444.56c0-7.97-6.46-14.44-14.44-14.44,0,7.97,6.46,14.44,14.44,14.44Z"/>
      <path class="cls-1" d="m427.33,292.8c0-6.01-4.87-10.87-10.88-10.87,0,6.01,4.87,10.87,10.88,10.87Z"/>
      <path class="cls-3" d="m208.23,411.19c0,8.18,6.63,14.81,14.81,14.81,0-8.18-6.63-14.81-14.81-14.81Z"/>
      <path class="cls-3" d="m186.85,277.33c0-9.63-7.81-17.44-17.44-17.44,0,9.63,7.81,17.44,17.44,17.44Z"/>
      <path class="cls-2" d="m113.82,391.79c0,8.9,7.22,16.12,16.13,16.12,0-8.9-7.22-16.12-16.13-16.12Z"/>
      <path class="cls-3" d="m147.57,388.04c0-7.66-6.21-13.87-13.88-13.87,0,7.66,6.21,13.87,13.88,13.87Z"/>
      <path class="cls-1" d="m298.89,126.88c0-9.11-7.39-16.5-16.5-16.5,0,9.11,7.39,16.5,16.5,16.5Z"/>
      <path class="cls-1" d="m209.07,368.92c7.25,0,13.13-5.88,13.13-13.12-7.25,0-13.13,5.88-13.13,13.12Z"/>
      <path class="cls-2" d="m429.67,107.61c0-8.59-6.97-15.56-15.56-15.56,0,8.59,6.97,15.56,15.56,15.56Z"/>
      <path class="cls-3" d="m320.07,335.54c0,8.9,7.22,16.12,16.13,16.12,0-8.9-7.22-16.12-16.13-16.12Z"/>
      <path class="cls-3" d="m304.42,236.09c5.49,0,9.94-4.45,9.94-9.94-5.49,0-9.94,4.45-9.94,9.94Z"/>
      <path class="cls-2" d="m318.95,259.05c10.15,0,18.38-8.23,18.38-18.37-10.15,0-18.38,8.23-18.38,18.37Z"/>
      <path class="cls-3" d="m15.84,262.15c-7.15,0-12.94,5.79-12.94,12.94,7.15,0,12.94-5.79,12.94-12.94Z"/>
      <path class="cls-2" d="m32.81,282.67c-5.18,0-9.38,4.2-9.38,9.37,5.18,0,9.38-4.2,9.38-9.37Z"/>
      <path class="cls-3" d="m316.79,332.26c0-8.18-6.63-14.81-14.81-14.81,0,8.18,6.63,14.81,14.81,14.81Z"/>
      <path class="cls-2" d="m321.48,299.45c0,7.35,5.96,13.31,13.31,13.31,0-7.35-5.96-13.31-13.31-13.31Z"/>
      <path class="cls-1" d="m320.17,332.83c8.8,0,15.94-7.13,15.94-15.94-8.8,0-15.94,7.13-15.94,15.94Z"/>
      <path class="cls-2" d="m321.76,187.25c0,7.04,5.71,12.75,12.75,12.75,0-7.04-5.71-12.75-12.75-12.75Z"/>
      <path class="cls-3" d="m229.23,423.75c5.7,0,10.31-4.62,10.31-10.31-5.7,0-10.31,4.62-10.31,10.31Z"/>
      <path class="cls-3" d="m227.16,430.13c0,7.97,6.46,14.44,14.44,14.44,0-7.97-6.46-14.44-14.44-14.44Z"/>
      <path class="cls-3" d="m360.11,330.39c6.11,0,11.06-4.95,11.06-11.06-6.11,0-11.06,4.95-11.06,11.06Z"/>
      <path class="cls-2" d="m338.73,314.27c9.01,0,16.31-7.3,16.31-16.31-9.01,0-16.31,7.3-16.31,16.31Z"/>
      <path class="cls-3" d="m262.7,390.29c10.15,0,18.38-8.23,18.38-18.37-10.15,0-18.38,8.23-18.38,18.37Z"/>
      <path class="cls-3" d="m409.7,125.19c0-7.25-5.88-13.12-13.13-13.12,0,7.25,5.88,13.12,13.13,13.12Z"/>
      <path class="cls-1" d="m391.23,111.79c-7.56,0-13.69,6.13-13.69,13.69,7.56,0,13.69-6.13,13.69-13.69Z"/>
      <path class="cls-3" d="m314.54,405.01c0-5.69-4.62-10.31-10.31-10.31,0,5.69,4.62,10.31,10.31,10.31Z"/>
      <path class="cls-2" d="m247.6,367.88c6.11,0,11.06-4.95,11.06-11.06-6.11,0-11.06,4.95-11.06,11.06Z"/>
      <path class="cls-1" d="m1.97,242.46c0,8.18,6.63,14.81,14.81,14.81,0-8.18-6.63-14.81-14.81-14.81Z"/>
      <path class="cls-3" d="m18.75,221.74c-10.36,0-18.75,8.39-18.75,18.75,10.36,0,18.75-8.39,18.75-18.75Z"/>
      <path class="cls-3" d="m277.51,292.99c0-6.21-5.04-11.25-11.25-11.25,0,6.21,5.04,11.25,11.25,11.25Z"/>
      <path class="cls-2" d="m248.07,301.05c0,5.59,4.53,10.12,10.13,10.12,0-5.59-4.53-10.12-10.13-10.12Z"/>
      <path class="cls-3" d="m148.04,354.95c-8.18,0-14.81,6.63-14.81,14.81,8.18,0,14.81-6.63,14.81-14.81Z"/>
      <path class="cls-3" d="m337.7,427.78c10.15,0,18.38-8.23,18.38-18.37-10.15,0-18.38,8.23-18.38,18.37Z"/>
      <path class="cls-1" d="m320.82,407.16c8.08,0,14.63-6.55,14.63-14.62-8.08,0-14.63,6.55-14.63,14.62Z"/>
      <path class="cls-3" d="m432.11,333.39c9.42,0,17.06-7.64,17.06-17.06-9.42,0-17.06,7.64-17.06,17.06Z"/>
      <path class="cls-1" d="m360.39,338.36c0,5.8,4.7,10.5,10.5,10.5,0-5.8-4.7-10.5-10.5-10.5Z"/>
      <path class="cls-3" d="m338.83,351.67c8.91,0,16.13-7.22,16.13-16.12-8.91,0-16.13,7.22-16.13,16.12Z"/>
      <path class="cls-3" d="m341.54,86.43c5.9,0,10.69-4.78,10.69-10.69-5.9,0-10.69,4.78-10.69,10.69Z"/>
      <path class="cls-1" d="m245.63,294.86c8.28,0,15-6.71,15-15-8.28,0-15,6.72-15,15Z"/>
      <path class="cls-3" d="m303.48,424.5c6.52,0,11.81-5.29,11.81-11.81-6.52,0-11.81,5.29-11.81,11.81Z"/>
      <path class="cls-3" d="m316.89,444.84c0-8.28-6.72-15-15-15,0,8.28,6.72,15,15,15Z"/>
      <path class="cls-2" d="m319.89,410.35c0,9.11,7.39,16.5,16.5,16.5,0-9.11-7.39-16.5-16.5-16.5Z"/>
      <path class="cls-3" d="m359.73,37.68c0,6.52,5.29,11.81,11.81,11.81,0-6.52-5.29-11.81-11.81-11.81Z"/>
      <path class="cls-3" d="m359.36,443.63c6.94,0,12.56-5.62,12.56-12.56-6.94,0-12.56,5.62-12.56,12.56Z"/>
      <path class="cls-3" d="m164.91,263.08c-6.11,0-11.06,4.95-11.06,11.06,6.11,0,11.06-4.95,11.06-11.06Z"/>
      <path class="cls-1" d="m164.72,255.21c0-5.9-4.79-10.69-10.69-10.69,0,5.9,4.79,10.69,10.69,10.69Z"/>
      <path class="cls-2" d="m220.32,395.16c-5.18,0-9.38,4.2-9.38,9.37,5.18,0,9.38-4.2,9.38-9.37Z"/>
      <path class="cls-3" d="m226.98,313.52c8.18,0,14.81-6.63,14.81-14.81-8.18,0-14.81,6.63-14.81,14.81Z"/>
      <path class="cls-1" d="m360.48,300.95c0,5.69,4.62,10.31,10.31,10.31,0-5.69-4.62-10.31-10.31-10.31Z"/>
      <path class="cls-3" d="m201.57,179.56c0-5.18-4.2-9.37-9.38-9.37,0,5.18,4.2,9.37,9.38,9.37Z"/>
      <path class="cls-2" d="m281.26,334.23c10.36,0,18.75-8.39,18.75-18.75-10.36,0-18.75,8.39-18.75,18.75Z"/>
      <path class="cls-3" d="m285.67,301.14c0,5.49,4.45,9.94,9.94,9.94,0-5.49-4.45-9.94-9.94-9.94Z"/>
      <path class="cls-2" d="m264.38,313.61c8.28,0,15-6.72,15-15-8.28,0-15,6.72-15,15Z"/>
      <path class="cls-3" d="m127.32,338.17c-6.01,0-10.88,4.87-10.88,10.87,6.01,0,10.88-4.87,10.88-10.87Z"/>
      <path class="cls-3" d="m149.07,314.55c0-9.32-7.56-16.87-16.88-16.87,0,9.32,7.56,16.87,16.88,16.87Z"/>
      <path class="cls-2" d="m110.54,238.52c0-8.18-6.63-14.81-14.81-14.81,0,8.18,6.63,14.81,14.81,14.81Z"/>
      <path class="cls-3" d="m51.56,376.41c-5.18,0-9.38,4.2-9.38,9.37,5.18,0,9.38-4.2,9.38-9.37Z"/>
      <path class="cls-1" d="m189.76,392.73c0,7.87,6.38,14.25,14.25,14.25,0-7.87-6.38-14.25-14.25-14.25Z"/>
      <path class="cls-2" d="m435.77,413.72c0,5.38,4.37,9.75,9.75,9.75,0-5.38-4.37-9.75-9.75-9.75Z"/>
      <path class="cls-1" d="m240.2,255.68c0-6.42-5.2-11.62-11.63-11.62,0,6.42,5.2,11.62,11.63,11.62Z"/>
      <path class="cls-3" d="m153.38,356.35c0,6.63,5.37,12,12,12,0-6.63-5.37-12-12-12Z"/>
      <path class="cls-3" d="m338.54,201.97c9.22,0,16.69-7.47,16.69-16.69-9.22,0-16.69,7.47-16.69,16.69Z"/>
      <path class="cls-3" d="m108.94,394.04c-6.42,0-11.63,5.2-11.63,11.62,6.42,0,11.63-5.2,11.63-11.62Z"/>
      <path class="cls-3" d="m358.7,369.29c7.66,0,13.88-6.21,13.88-13.87-7.66,0-13.88,6.21-13.88,13.87Z"/>
      <path class="cls-3" d="m357.01,372.48c0,9.53,7.72,17.25,17.25,17.25,0-9.53-7.72-17.25-17.25-17.25Z"/>
      <path class="cls-3" d="m281.92,334.89c0,9.63,7.81,17.44,17.44,17.44,0-9.63-7.81-17.44-17.44-17.44Z"/>
      <path class="cls-3" d="m278.64,369.1c0-7.45-6.04-13.5-13.5-13.5,0,7.45,6.04,13.5,13.5,13.5Z"/>
      <path class="cls-2" d="m391.05,331.51c0-7.35-5.96-13.31-13.31-13.31,0,7.35,5.96,13.31,13.31,13.31Z"/>
      <path class="cls-3" d="m397.61,300.58c0,6.11,4.95,11.06,11.06,11.06,0-6.11-4.95-11.06-11.06-11.06Z"/>
      <path class="cls-1" d="m375.11,315.39c10.25,0,18.56-8.31,18.56-18.56-10.25,0-18.56,8.31-18.56,18.56Z"/>
      <path class="cls-2" d="m191.82,432.28c0,5.59,4.53,10.12,10.13,10.12,0-5.59-4.53-10.12-10.13-10.12Z"/>
      <path class="cls-1" d="m72.28,393.19c-7.35,0-13.31,5.96-13.31,13.31,7.35,0,13.31-5.96,13.31-13.31Z"/>
      <path class="cls-3" d="m77.82,393.29c0,7.25,5.88,13.12,13.13,13.12,0-7.25-5.88-13.12-13.13-13.12Z"/>
      <path class="cls-3" d="m210.85,338.82c0,5.28,4.28,9.56,9.56,9.56,0-5.28-4.28-9.56-9.56-9.56Z"/>
      <path class="cls-3" d="m243.29,333.76c0-9.84-7.98-17.81-17.81-17.81,0,9.84,7.98,17.81,17.81,17.81Z"/>
      <path class="cls-2" d="m225.48,352.51c9.84,0,17.81-7.97,17.81-17.81-9.84,0-17.81,7.97-17.81,17.81Z"/>
      <path class="cls-3" d="m146.26,394.22c-6.21,0-11.25,5.04-11.25,11.25,6.21,0,11.25-5.04,11.25-11.25Z"/>
      <path class="cls-1" d="m75,315.48c-10.36,0-18.75,8.39-18.75,18.75,10.36,0,18.75-8.39,18.75-18.75Z"/>
      <path class="cls-3" d="m79.13,319.61c0,5.8,4.7,10.5,10.5,10.5,0-5.8-4.7-10.5-10.5-10.5Z"/>
      <path class="cls-1" d="m149.07,239.55c0-9.32-7.56-16.87-16.88-16.87,0,9.32,7.56,16.87,16.88,16.87Z"/>
      <path class="cls-1" d="m164.91,225.59c-6.11,0-11.06,4.95-11.06,11.06,6.11,0,11.06-4.95,11.06-11.06Z"/>
      <path class="cls-3" d="m89.16,263.83c-5.28,0-9.56,4.28-9.56,9.56,5.28,0,9.56-4.28,9.56-9.56Z"/>
      <path class="cls-2" d="m78.85,244.34c0,6.11,4.95,11.06,11.06,11.06,0-6.11-4.95-11.06-11.06-11.06Z"/>
      <path class="cls-3" d="m316.23,144.22c0-7.56-6.13-13.69-13.69-13.69,0,7.56,6.13,13.69,13.69,13.69Z"/>
      <path class="cls-2" d="m282.76,145.25c8.7,0,15.75-7.05,15.75-15.75-8.7,0-15.75,7.05-15.75,15.75Z"/>
      <path class="cls-3" d="m358.61,186.59c0,7.77,6.3,14.06,14.06,14.06,0-7.77-6.3-14.06-14.06-14.06Z"/>
      <path class="cls-1" d="m427.23,330.2c0-5.9-4.79-10.69-10.69-10.69,0,5.9,4.79,10.69,10.69,10.69Z"/>
      <path class="cls-1" d="m397.05,337.51c0,6.73,5.46,12.19,12.19,12.19,0-6.73-5.46-12.19-12.19-12.19Z"/>
      <path class="cls-3" d="m393.86,334.14c10.25,0,18.56-8.31,18.56-18.56-10.25,0-18.56,8.31-18.56,18.56Z"/>
      <path class="cls-1" d="m276.57,217.06c0-5.18-4.2-9.37-9.38-9.37,0,5.18,4.2,9.37,9.38,9.37Z"/>
      <path class="cls-1" d="m393.58,446.53c0-10.15-8.23-18.37-18.38-18.37,0,10.15,8.23,18.37,18.38,18.37Z"/>
      <path class="cls-1" d="m319.98,260.46c0,9.01,7.3,16.31,16.31,16.31,0-9.01-7.3-16.31-16.31-16.31Z"/>
      <path class="cls-3" d="m166.13,299.36c-7.46,0-13.5,6.04-13.5,13.5,7.46,0,13.5-6.04,13.5-13.5Z"/>
      <path class="cls-2" d="m413.73,89.24c9.01,0,16.31-7.3,16.31-16.31-9.01,0-16.31,7.3-16.31,16.31Z"/>
      <path class="cls-3" d="m430.05,70.49c0-9.01-7.3-16.31-16.31-16.31,0,9.01,7.3,16.31,16.31,16.31Z"/>
      <path class="cls-2" d="m321.2,144.32c7.66,0,13.88-6.21,13.88-13.87-7.66,0-13.88,6.21-13.88,13.87Z"/>
      <path class="cls-1" d="m431.73,33.75c9.84,0,17.81-7.97,17.81-17.81-9.84,0-17.81,7.97-17.81,17.81Z"/>
      <path class="cls-3" d="m354.01,256.99c0-7.87-6.38-14.25-14.25-14.25,0,7.87,6.38,14.25,14.25,14.25Z"/>
      <path class="cls-2" d="m357.29,258.21c9.22,0,16.69-7.47,16.69-16.69-9.22,0-16.69,7.47-16.69,16.69Z"/>
      <path class="cls-3" d="m360.2,225.68c0,6.01,4.87,10.87,10.88,10.87,0-6.01-4.87-10.87-10.88-10.87Z"/>
      <path class="cls-1" d="m150.01,315.48c-10.36,0-18.75,8.39-18.75,18.75,10.36,0,18.75-8.39,18.75-18.75Z"/>
      <path class="cls-3" d="m150.01,352.98c0-10.35-8.39-18.75-18.75-18.75,0,10.35,8.39,18.75,18.75,18.75Z"/>
      <path class="cls-3" d="m164.63,338.36c-5.8,0-10.5,4.7-10.5,10.5,5.8,0,10.5-4.7,10.5-10.5Z"/>
      <path class="cls-3" d="m152.82,318.3c0,7.25,5.88,13.12,13.13,13.12,0-7.25-5.88-13.12-13.13-13.12Z"/>
      <path class="cls-3" d="m246.95,331.04c6.83,0,12.38-5.54,12.38-12.37-6.83,0-12.38,5.54-12.38,12.37Z"/>
      <path class="cls-3" d="m280.7,333.67c0-9.73-7.89-17.62-17.63-17.62,0,9.73,7.89,17.62,17.63,17.62Z"/>
      <path class="cls-3" d="m263.45,352.04c9.32,0,16.88-7.55,16.88-16.87-9.32,0-16.88,7.55-16.88,16.87Z"/>
      <path class="cls-3" d="m15.56,337.42c-6.83,0-12.38,5.54-12.38,12.37,6.83,0,12.38-5.54,12.38-12.37Z"/>
      <path class="cls-1" d="m338.08,91.02c0,9.73,7.89,17.62,17.63,17.62,0-9.73-7.89-17.62-17.63-17.62Z"/>
      <path class="cls-2" d="m398.08,226.06c0,5.59,4.53,10.12,10.13,10.12,0-5.59-4.53-10.12-10.13-10.12Z"/>
      <path class="cls-3" d="m390.2,255.68c0-6.42-5.2-11.62-11.63-11.62,0,6.42,5.2,11.62,11.63,11.62Z"/>
      <path class="cls-1" d="m378.01,237.49c7.04,0,12.75-5.71,12.75-12.75-7.04,0-12.75,5.71-12.75,12.75Z"/>
      <path class="cls-3" d="m110.16,350.64c0-7.77-6.3-14.06-14.06-14.06,0,7.77,6.3,14.06,14.06,14.06Z"/>
      <path class="cls-1" d="m72.19,355.79c-7.25,0-13.13,5.88-13.13,13.12,7.25,0,13.13-5.88,13.13-13.12Z"/>
      <path class="cls-3" d="m73.5,388.98c0-8.7-7.05-15.75-15.75-15.75,0,8.7,7.05,15.75,15.75,15.75Z"/>
      <path class="cls-3" d="m89.35,376.13c-5.49,0-9.94,4.45-9.94,9.94,5.49,0,9.94-4.45,9.94-9.94Z"/>
      <path class="cls-1" d="m75.28,353.26c0,10.04,8.14,18.19,18.19,18.19,0-10.04-8.14-18.19-18.19-18.19Z"/>
      <path class="cls-3" d="m.47,428.44c0,9.84,7.98,17.81,17.81,17.81,0-9.84-7.98-17.81-17.81-17.81Z"/>
      <path class="cls-1" d="m33.56,431.91c-6.01,0-10.88,4.87-10.88,10.87,6.01,0,10.88-4.87,10.88-10.87Z"/>
      <path class="cls-1" d="m375.86,52.12c9.42,0,17.06-7.64,17.06-17.06-9.42,0-17.06,7.64-17.06,17.06Z"/>
      <path class="cls-2" d="m397.05,68.43c6.73,0,12.19-5.46,12.19-12.19-6.73,0-12.19,5.46-12.19,12.19Z"/>
      <path class="cls-2" d="m434.64,112.63c0,6.63,5.37,12,12,12,0-6.63-5.37-12-12-12Z"/>
      <path class="cls-1" d="m431.83,371.17c9.73,0,17.63-7.89,17.63-17.62-9.73,0-17.63,7.89-17.63,17.62Z"/>
      <path class="cls-1" d="m435.58,338.54c0,5.59,4.53,10.12,10.13,10.12,0-5.59-4.53-10.12-10.13-10.12Z"/>
      <path class="cls-3" d="m412.61,352.89c10.25,0,18.56-8.31,18.56-18.56-10.25,0-18.56,8.31-18.56,18.56Z"/>
      <path class="cls-2" d="m279.67,257.65c0-8.59-6.97-15.56-15.56-15.56,0,8.59,6.97,15.56,15.56,15.56Z"/>
      <path class="cls-1" d="m247.79,255.21c5.9,0,10.69-4.78,10.69-10.69-5.9,0-10.69,4.78-10.69,10.69Z"/>
      <path class="cls-1" d="m426.95,179.94c0-5.59-4.53-10.12-10.13-10.12,0,5.59,4.53,10.12,10.13,10.12Z"/>
      <path class="cls-2" d="m396.01,182c7.87,0,14.25-6.38,14.25-14.25-7.87,0-14.25,6.38-14.25,14.25Z"/>
      <path class="cls-2" d="m396.3,106.68c7.56,0,13.69-6.13,13.69-13.69-7.56,0-13.69,6.13-13.69,13.69Z"/>
      <path class="cls-3" d="m377.17,92.61c0,7.97,6.46,14.44,14.44,14.44,0-7.97-6.46-14.44-14.44-14.44Z"/>
      <path class="cls-1" d="m396.76,74.71c0,7.04,5.71,12.75,12.75,12.75,0-7.04-5.71-12.75-12.75-12.75Z"/>
      <path class="cls-1" d="m189.29,354.76c0,8.39,6.8,15.19,15.19,15.19,0-8.39-6.8-15.19-15.19-15.19Z"/>
      <path class="cls-3" d="m338.36,52.12c9.42,0,17.06-7.64,17.06-17.06-9.42,0-17.06,7.64-17.06,17.06Z"/>
      <path class="cls-3" d="m435.3,375.76c0,5.9,4.79,10.69,10.69,10.69,0-5.9-4.79-10.69-10.69-10.69Z"/>
      <path class="cls-1" d="m428.73,444.19c0-7.56-6.13-13.69-13.69-13.69,0,7.56,6.13,13.69,13.69,13.69Z"/>
      <path class="cls-3" d="m398.26,442.22c5.39,0,9.75-4.36,9.75-9.75-5.38,0-9.75,4.36-9.75,9.75Z"/>
      <path class="cls-3" d="m112.97,428.44c0,9.84,7.98,17.81,17.81,17.81,0-9.84-7.98-17.81-17.81-17.81Z"/>
      <path class="cls-1" d="m148.32,429.66c-8.49,0-15.38,6.88-15.38,15.37,8.49,0,15.38-6.88,15.38-15.37Z"/>
      <path class="cls-1" d="m183.19,348.67c0-5.59-4.53-10.12-10.13-10.12,0,5.59,4.53,10.12,10.13,10.12Z"/>
      <path class="cls-2" d="m183.19,319.8c-5.59,0-10.13,4.53-10.13,10.12,5.59,0,10.13-4.53,10.13-10.12Z"/>
      <path class="cls-2" d="m417.02,132.5c0,5.38,4.37,9.75,9.75,9.75,0-5.38-4.37-9.75-9.75-9.75Z"/>
      <path class="cls-1" d="m415.8,162.22c6.73,0,12.19-5.46,12.19-12.19-6.73,0-12.19,5.46-12.19,12.19Z"/>
      <path class="cls-3" d="m394.42,146.1c9.63,0,17.44-7.81,17.44-17.44-9.63,0-17.44,7.81-17.44,17.44Z"/>
      <path class="cls-3" d="m395.92,148.91c0,7.97,6.46,14.44,14.44,14.44,0-7.97-6.46-14.44-14.44-14.44Z"/>
      <path class="cls-3" d="m353.45,181.44c0-7.25-5.88-13.12-13.13-13.12,0,7.25,5.88,13.12,13.13,13.12Z"/>
      <path class="cls-1" d="m359.83,180.69c6.42,0,11.63-5.2,11.63-11.62-6.42,0-11.63,5.2-11.63,11.62Z"/>
      <path class="cls-3" d="m352.89,150.13c-6.63,0-12,5.37-12,12,6.63,0,12-5.37,12-12Z"/>
      <path class="cls-3" d="m277.42,180.4c0-6.11-4.95-11.06-11.06-11.06,0,6.11,4.95,11.06,11.06,11.06Z"/>
      <path class="cls-3" d="m204.85,223.15c-8.8,0-15.94,7.13-15.94,15.94,8.8,0,15.94-7.13,15.94-15.94Z"/>
      <path class="cls-1" d="m323.17,217.34c5.49,0,9.94-4.45,9.94-9.94-5.49,0-9.94,4.45-9.94,9.94Z"/>
      <path class="cls-2" d="m353.83,219.31c0-7.66-6.21-13.87-13.88-13.87,0,7.66,6.21,13.87,13.88,13.87Z"/>
      <path class="cls-3" d="m41.25,431.72c0,6.21,5.04,11.25,11.25,11.25,0-6.21-5.04-11.25-11.25-11.25Z"/>
      <path class="cls-3" d="m70.41,423.38c0-5.28-4.28-9.56-9.56-9.56,0,5.28,4.28,9.56,9.56,9.56Z"/>
      <path class="cls-2" d="m280.79,109.73c-9.84,0-17.81,7.97-17.81,17.81,9.84,0,17.81-7.97,17.81-17.81Z"/>
      <path class="cls-3" d="m258.2,161.19c0-5.59-4.53-10.12-10.13-10.12,0,5.59,4.53,10.12,10.13,10.12Z"/>
      <path class="cls-1" d="m221.73,199.72c0-6.73-5.46-12.19-12.19-12.19,0,6.73,5.46,12.19,12.19,12.19Z"/>
      <path class="cls-3" d="m202.04,188.47c-5.7,0-10.31,4.62-10.31,10.31,5.7,0,10.31-4.62,10.31-10.31Z"/>
      <path class="cls-2" d="m204.38,219.87c0-8.28-6.72-15-15-15,0,8.28,6.72,15,15,15Z"/>
      <path class="cls-3" d="m412.8,277.71c10.05,0,18.19-8.14,18.19-18.19-10.05,0-18.19,8.14-18.19,18.19Z"/>
      <path class="cls-3" d="m38.35,391.32c0,9.42,7.64,17.06,17.06,17.06,0-9.42-7.64-17.06-17.06-17.06Z"/>
      <path class="cls-1" d="m52.22,413.25c-5.9,0-10.69,4.78-10.69,10.69,5.9,0,10.69-4.78,10.69-10.69Z"/>
      <path class="cls-3" d="m390.39,218.37c0-6.63-5.37-12-12-12,0,6.63,5.37,12,12,12Z"/>
      <path class="cls-3" d="m394.05,184.53c0,10.04,8.14,18.19,18.19,18.19,0-10.04-8.14-18.19-18.19-18.19Z"/>
      <path class="cls-2" d="m416.17,424.32c6.32,0,11.44-5.12,11.44-11.44-6.32,0-11.44,5.12-11.44,11.44Z"/>
      <path class="cls-3" d="m395.83,411.29c0,8.08,6.55,14.62,14.63,14.62,0-8.08-6.55-14.62-14.63-14.62Z"/>
      <path class="cls-3" d="m34.13,387.1c0-6.63-5.37-12-12-12,0,6.63,5.37,12,12,12Z"/>
      <path class="cls-3" d="m33.94,394.04c-6.42,0-11.63,5.2-11.63,11.62,6.42,0,11.63-5.2,11.63-11.62Z"/>
      <path class="cls-1" d="m15.84,412.13c-7.15,0-12.94,5.79-12.94,12.94,7.15,0,12.94-5.79,12.94-12.94Z"/>
      <path class="cls-3" d="m3.56,394.04c0,6.42,5.2,11.62,11.63,11.62,0-6.42-5.2-11.62-11.63-11.62Z"/>
      <path class="cls-1" d="m15.75,299.74c-7.04,0-12.75,5.71-12.75,12.75,7.04,0,12.75-5.71,12.75-12.75Z"/>
      <path class="cls-3" d="m127.6,375.38c-6.32,0-11.44,5.12-11.44,11.44,6.32,0,11.44-5.12,11.44-11.44Z"/>
      <path class="cls-1" d="m113.63,354.1c0,9.11,7.39,16.5,16.5,16.5,0-9.11-7.39-16.5-16.5-16.5Z"/>
      <path class="cls-3" d="m111.85,353.64c-9.63,0-17.44,7.81-17.44,17.44,9.63,0,17.44-7.81,17.44-17.44Z"/>
      <path class="cls-2" d="m33.28,273.77c0-5.69-4.62-10.31-10.31-10.31,0,5.69,4.62,10.31,10.31,10.31Z"/>
      <path class="cls-3" d="m33.28,244.71c-5.7,0-10.31,4.62-10.31,10.31,5.7,0,10.31-4.62,10.31-10.31Z"/>
      <path class="cls-3" d="m357.39,145.63c9.11,0,16.5-7.39,16.5-16.5-9.11,0-16.5,7.39-16.5,16.5Z"/>
      <path class="cls-2" d="m413.64,51.84c9.11,0,16.5-7.39,16.5-16.5-9.11,0-16.5,7.39-16.5,16.5Z"/>
      <path class="cls-1" d="m341.08,274.43c6.42,0,11.63-5.2,11.63-11.62-6.42,0-11.63,5.2-11.63,11.62Z"/>
      <path class="cls-3" d="m355.7,296.17c0-9.73-7.89-17.62-17.63-17.62,0,9.73,7.89,17.62,17.63,17.62Z"/>
      <path class="cls-3" d="m358.04,261.02c0,8.39,6.8,15.19,15.19,15.19,0-8.39-6.8-15.19-15.19-15.19Z"/>
      <path class="cls-3" d="m357.39,295.61c9.11,0,16.5-7.39,16.5-16.5-9.11,0-16.5,7.39-16.5,16.5Z"/>
      <path class="cls-1" d="m206.73,297.2c0,9.84,7.98,17.81,17.81,17.81,0-9.84-7.98-17.81-17.81-17.81Z"/>
      <path class="cls-1" d="m171.38,294.11c7.46,0,13.5-6.04,13.5-13.5-7.46,0-13.5,6.04-13.5,13.5Z"/>
      <path class="cls-3" d="m187.41,315.39c0-10.25-8.31-18.56-18.56-18.56,0,10.25,8.31,18.56,18.56,18.56Z"/>
      <path class="cls-2" d="m202.88,300.11c-6.63,0-12,5.37-12,12,6.63,0,12-5.37,12-12Z"/>
      <path class="cls-3" d="m432.67,298.14c0,8.8,7.14,15.94,15.94,15.94,0-8.8-7.14-15.94-15.94-15.94Z"/>
      <path class="cls-3" d="m226.51,391.98c0,8.7,7.05,15.75,15.75,15.75,0-8.7-7.05-15.75-15.75-15.75Z"/>
      <path class="cls-3" d="m228.85,386.63c6.11,0,11.06-4.95,11.06-11.06-6.11,0-11.06,4.95-11.06,11.06Z"/>
      <path class="cls-1" d="m248.07,376.04c0,5.59,4.53,10.12,10.13,10.12,0-5.59-4.53-10.12-10.13-10.12Z"/>
      <path class="cls-3" d="m391.61,32.06c0-7.97-6.46-14.44-14.44-14.44,0,7.97,6.46,14.44,14.44,14.44Z"/>
      <path class="cls-1" d="m378.3,12.19c6.73,0,12.19-5.46,12.19-12.19-6.73,0-12.19,5.46-12.19,12.19Z"/>
      <path class="cls-3" d="m394.7,33.28c9.32,0,16.88-7.55,16.88-16.87-9.32,0-16.88,7.55-16.88,16.87Z"/>
      <path class="cls-3" d="m320.82,182.19c8.08,0,14.63-6.55,14.63-14.62-8.08,0-14.63,6.55-14.63,14.62Z"/>
      <path class="cls-2" d="m301.42,91.86c0,8.8,7.14,15.94,15.94,15.94,0-8.8-7.14-15.94-15.94-15.94Z"/>
      <path class="cls-3" d="m433.89,224.37c0,7.45,6.04,13.5,13.5,13.5,0-7.45-6.04-13.5-13.5-13.5Z"/>
      <path class="cls-3" d="m416.55,236.46c5.9,0,10.69-4.78,10.69-10.69-5.9,0-10.69,4.78-10.69,10.69Z"/>
      <path class="cls-1" d="m429.2,257.18c0-8.08-6.55-14.62-14.63-14.62,0,8.08,6.55,14.62,14.63,14.62Z"/>
      <path class="cls-1" d="m433.89,261.86c0,7.45,6.04,13.5,13.5,13.5,0-7.45-6.04-13.5-13.5-13.5Z"/>
      <path class="cls-2" d="m435.58,254.93c5.59,0,10.13-4.53,10.13-10.12-5.59,0-10.13,4.53-10.13,10.12Z"/>
      <path class="cls-3" d="m356.64,409.6c0,9.94,8.06,18,18,18,0-9.94-8.06-18-18-18Z"/>
      <path class="cls-3" d="m358.7,406.79c7.66,0,13.88-6.21,13.88-13.87-7.66,0-13.88,6.21-13.88,13.87Z"/>
      <path class="cls-3" d="m431.83,221.18c9.73,0,17.63-7.89,17.63-17.62-9.73,0-17.63,7.89-17.63,17.62Z"/>
      <path class="cls-3" d="m429.77,220.24c0-8.7-7.05-15.75-15.75-15.75,0,8.7,7.05,15.75,15.75,15.75Z"/>
      <path class="cls-3" d="m376.61,388.88c8.6,0,15.56-6.97,15.56-15.56-8.6,0-15.56,6.97-15.56,15.56Z"/>
      <path class="cls-3" d="m395.83,407.16c8.08,0,14.63-6.55,14.63-14.62-8.08,0-14.63,6.55-14.63,14.62Z"/>
      <path class="cls-1" d="m276.95,404.91c0-5.59-4.53-10.12-10.13-10.12,0,5.59,4.53,10.12,10.13,10.12Z"/>
      <path class="cls-3" d="m244.79,410.25c0,9.22,7.47,16.69,16.69,16.69,0-9.22-7.47-16.69-16.69-16.69Z"/>
      <path class="cls-3" d="m245.26,407.72c8.7,0,15.75-7.05,15.75-15.75-8.7,0-15.75,7.05-15.75,15.75Z"/>
      <path class="cls-3" d="m75.47,428.44c0,9.84,7.98,17.81,17.81,17.81,0-9.84-7.98-17.81-17.81-17.81Z"/>
      <path class="cls-1" d="m71.91,431.06c-6.94,0-12.56,5.62-12.56,12.56,6.94,0,12.56-5.62,12.56-12.56Z"/>
      <path class="cls-3" d="m221.07,236.55c0-6.01-4.87-10.87-10.88-10.87,0,6.01,4.87,10.87,10.88,10.87Z"/>
      <path class="cls-1" d="m208.23,219.78c8.18,0,14.81-6.63,14.81-14.81-8.18,0-14.81,6.63-14.81,14.81Z"/>
      <path class="cls-2" d="m282.29,372.76c0,9.22,7.47,16.69,16.69,16.69,0-9.22-7.47-16.69-16.69-16.69Z"/>
      <path class="cls-3" d="m318.39,184.62c-9.94,0-18,8.06-18,18,9.94,0,18-8.06,18-18Z"/>
      <path class="cls-3" d="m297.2,200.18c0-7.25-5.88-13.12-13.13-13.12,0,7.25,5.88,13.12,13.13,13.12Z"/>
      <path class="cls-2" d="m285.39,180.12c5.8,0,10.5-4.7,10.5-10.5-5.8,0-10.5,4.7-10.5,10.5Z"/>
      <path class="cls-3" d="m317.54,183.03c0-9.01-7.3-16.31-16.31-16.31,0,9.01,7.3,16.31,16.31,16.31Z"/>
      <path class="cls-3" d="m354.48,369.95c0-8.39-6.8-15.19-15.19-15.19,0,8.39,6.8,15.19,15.19,15.19Z"/>
      <path class="cls-3" d="m184.23,431.25c-6.73,0-12.19,5.46-12.19,12.19,6.73,0,12.19-5.46,12.19-12.19Z"/>
      <path class="cls-3" d="m151.22,426.75c9.01,0,16.31-7.3,16.31-16.31-9.01,0-16.31,7.3-16.31,16.31Z"/>
      <path class="cls-2" d="m391.7,294.67c0-8.08-6.55-14.62-14.63-14.62,0,8.08,6.55,14.62,14.63,14.62Z"/>
      <path class="cls-3" d="m223.41,276.39c0-8.59-6.97-15.56-15.56-15.56,0,8.59,6.97,15.56,15.56,15.56Z"/>
      <path class="cls-3" d="m208.51,294.49c7.87,0,14.25-6.38,14.25-14.25-7.87,0-14.25,6.38-14.25,14.25Z"/>
      <path class="cls-3" d="m396.58,368.92c7.25,0,13.13-5.88,13.13-13.12-7.25,0-13.13,5.88-13.13,13.12Z"/>
      <path class="cls-3" d="m431.27,371.73c0-10.35-8.39-18.75-18.75-18.75,0,10.35,8.39,18.75,18.75,18.75Z"/>
      <path class="cls-1" d="m394.42,372.38c0,9.63,7.81,17.44,17.44,17.44,0-9.63-7.81-17.44-17.44-17.44Z"/>
      <path class="cls-2" d="m150.76,389.73c9.53,0,17.25-7.72,17.25-17.25-9.53,0-17.25,7.72-17.25,17.25Z"/>
      <path class="cls-2" d="m153.76,394.22c0,6.21,5.04,11.25,11.25,11.25,0-6.21-5.04-11.25-11.25-11.25Z"/>
      <path class="cls-3" d="m169.41,372.38c0,9.63,7.81,17.44,17.44,17.44,0-9.63-7.81-17.44-17.44-17.44Z"/>
      <path class="cls-1" d="m282.85,410.82c0,8.59,6.97,15.56,15.56,15.56,0-8.59-6.97-15.56-15.56-15.56Z"/>
      <path class="cls-3" d="m285.57,442.41c5.59,0,10.13-4.53,10.13-10.12-5.59,0-10.13,4.53-10.13,10.12Z"/>
      <path class="cls-1" d="m109.41,274.89c0-6.94-5.62-12.56-12.56-12.56,0,6.94,5.62,12.56,12.56,12.56Z"/>
      <path class="cls-3" d="m126.66,263.83c-5.28,0-9.56,4.28-9.56,9.56,5.28,0,9.56-4.28,9.56-9.56Z"/>
      <path class="cls-1" d="m128.16,256.15c0-6.94-5.62-12.56-12.56-12.56,0,6.94,5.62,12.56,12.56,12.56Z"/>
      <path class="cls-2" d="m110.54,242.46c-8.18,0-14.81,6.63-14.81,14.81,8.18,0,14.81-6.63,14.81-14.81Z"/>
    </g>
  </g>
</svg>