<svg xmlns="http://www.w3.org/2000/svg" xmlns:xlink="http://www.w3.org/1999/xlink" width="275.001" height="242.017" viewBox="0 0 275.001 242.017">
  <defs>
    <linearGradient id="linear-gradient" x1="0.496" y1="2.224" x2="0.506" y2="0.468" gradientUnits="objectBoundingBox">
      <stop offset="0" stop-color="#f2f2f2"/>
      <stop offset="1" stop-color="#efefef"/>
    </linearGradient>
  </defs>
  <g id="no-notifications" transform="translate(-89.999 -104)">
    <path id="Path_2" data-name="Path 2" d="M92.775,291.615a9.924,9.924,0,0,0,3.066-1.623,5.562,5.562,0,0,0,1.734-3.177c.362-1.519.506-3.136.945-4.658a1.466,1.466,0,0,1,.609-.873,1.5,1.5,0,0,1,1-.279,1.461,1.461,0,0,1,1.252.813,1.643,1.643,0,0,1,.156.422c.032.141.052.579.085.76.083.446.153.891.218,1.339a12.54,12.54,0,0,0,1.028,4.128c.931,1.86,1.864,3,3.13,3.5a8.01,8.01,0,0,0,4.555.014q.266-.064.528-.11a1.538,1.538,0,0,1,.6,3.018c-.171.037-.339.073-.5.105a16.126,16.126,0,0,0-7.148,4.811c-.524.6-1.291,2.287-2.073,3.361a4.067,4.067,0,0,1-1.77,1.5,1.6,1.6,0,0,1-.927.042,1.57,1.57,0,0,1-.911-.609,1.715,1.715,0,0,1-.3-.7,5.423,5.423,0,0,1-.03-.673c-.159-.548-.354-1.083-.5-1.637a9.32,9.32,0,0,0-1.795-3.259,6.168,6.168,0,0,0-2.7-2.2c-.151-.037-1.373-.336-1.8-.508a1.92,1.92,0,0,1-1.039-.9,1.726,1.726,0,0,1-.167-1,1.642,1.642,0,0,1,.57-1.055,2,2,0,0,1,.918-.435A12.566,12.566,0,0,1,92.775,291.615Zm7.166-2.151c.057.126.117.253.181.381,1.364,2.723,2.889,4.244,4.742,4.982l.062.024a20.649,20.649,0,0,0-3.22,2.936,17.721,17.721,0,0,0-1.326,2.115,12.964,12.964,0,0,0-2.154-3.867,9.1,9.1,0,0,0-2.406-2.384,10.627,10.627,0,0,0,2.007-1.308A7.653,7.653,0,0,0,99.941,289.464Z" fill-rule="evenodd"/>
    <circle id="Ellipse_1" data-name="Ellipse 1" cx="6" cy="6" r="6" transform="translate(114 104)" fill="#417ba4"/>
    <circle id="Ellipse_2" data-name="Ellipse 2" cx="6" cy="6" r="6" transform="translate(353 229)" fill="#417ba4"/>
    <path id="Path_3" data-name="Path 3" d="M219,332A114,114,0,1,0,105,218,114,114,0,0,0,219,332Z" fill="url(#linear-gradient)"/>
    <path id="Path_4" data-name="Path 4" d="M218.5,149A22.5,22.5,0,1,0,196,126.5,22.5,22.5,0,0,0,218.5,149Zm-.5-10a12,12,0,1,0-12-12A12,12,0,0,0,218,139Z" fill="#011625" fill-rule="evenodd"/>
    <path id="Path_5" data-name="Path 5" d="M218.05,307.1A44.05,44.05,0,1,0,174,263.05,44.05,44.05,0,0,0,218.05,307.1Z" fill="#d89256"/>
    <path id="Path_6" data-name="Path 6" d="M287.767,230.3V196.5a69.5,69.5,0,0,0-139.008,0V230.3a41.14,41.14,0,0,1-23.393,37.119A9.413,9.413,0,0,0,120,275.942v.183a4.9,4.9,0,0,0,4.9,4.908h186.72a4.9,4.9,0,0,0,4.9-4.908v-.183a9.412,9.412,0,0,0-5.356-8.5A41.138,41.138,0,0,1,287.767,230.3Z" fill="#ebe5dc"/>
    <path id="Path_7" data-name="Path 7" d="M317,281H120v-6H317Z" fill="#011625" fill-rule="evenodd"/>
    <path id="Path_8" data-name="Path 8" d="M274,191a28,28,0,1,0-28-28A28,28,0,0,0,274,191Z" fill="#fff"/>
    <path id="Path_9" data-name="Path 9" d="M267,162.989a9.142,9.142,0,0,1,1.7-5.857,7.59,7.59,0,0,1,10.57.021A9.019,9.019,0,0,1,281,162.989a9.145,9.145,0,0,1-1.727,5.879,7.616,7.616,0,0,1-10.57,0A9.235,9.235,0,0,1,267,162.989Zm8.89,0a6.82,6.82,0,0,0-.373-2.584,1.48,1.48,0,0,0-1.517-.883,1.5,1.5,0,0,0-1.54.883,6.82,6.82,0,0,0-.373,2.584,7.07,7.07,0,0,0,.373,2.627,1.5,1.5,0,0,0,1.54.862,1.483,1.483,0,0,0,1.517-.862A7.07,7.07,0,0,0,275.89,162.989Z" fill="#011625"/>
    <path id="Path_10" data-name="Path 10" d="M164.108,296.3c-4.79,4.332-9.567,8.577-14.23,13.047a2.5,2.5,0,1,0,3.449,3.614c4.639-4.442,9.375-8.651,14.134-12.953a2.5,2.5,0,1,0-3.353-3.708Z" fill="#011625" fill-rule="evenodd"/>
    <path id="Path_11" data-name="Path 11" d="M272.324,296.3c4.764,4.333,9.514,8.579,14.149,13.049a2.5,2.5,0,0,1-3.463,3.608c-4.612-4.442-9.321-8.653-14.053-12.955a2.5,2.5,0,0,1,3.367-3.7Z" fill="#011625" fill-rule="evenodd"/>
    <path id="Path_12" data-name="Path 12" d="M215.152,324.3c-.076,6.445-.207,12.821-.1,19.264a2.495,2.495,0,1,0,4.989-.086c-.106-6.408.023-12.73.1-19.131a2.5,2.5,0,1,0-4.994-.047Z" fill="#011625" fill-rule="evenodd"/>
  </g>
</svg>
