<svg xmlns="http://www.w3.org/2000/svg" width="495" height="358.999" viewBox="0 0 495 358.999">
  <g id="obj" transform="translate(-382.055 -901.167)">
    <g id="Group_1" data-name="Group 1" opacity="0.2">
      <path id="Path_4" data-name="Path 4" d="M735.623,1240.8,452.967,957.866a126.753,126.753,0,0,1,37.693-4.841L761.372,1224A181.162,181.162,0,0,1,735.623,1240.8Z" fill="#d4861f"/>
      <path id="Path_5" data-name="Path 5" d="M780.053,1207.7l-250.6-250.846c18.444,3.084,36.438,7.357,52.793,10.274l218.219,218.429A284.415,284.415,0,0,1,780.053,1207.7Z" fill="#d4861f"/>
      <path id="Path_6" data-name="Path 6" d="M849.99,1110.961c-1.384,2.529-2.768,5.008-4.152,7.457L683.731,956.155a226.381,226.381,0,0,0,29.063-13.479l146.765,146.9A169.5,169.5,0,0,1,849.99,1110.961Z" fill="#d4861f"/>
      <path id="Path_7" data-name="Path 7" d="M867.954,1062.991,734.627,929.531c9.343-6.009,17.823-11.743,26.074-16.471L875,1027.465A289.933,289.933,0,0,1,867.954,1062.991Z" fill="#d4861f"/>
      <path id="Path_8" data-name="Path 8" d="M549.849,1244.972c-37.822-12.39-73.251-32.892-107.075-63.139-5-4.474-51-49.226-60.331-104.428Z" fill="#d4861f"/>
      <path id="Path_9" data-name="Path 9" d="M815.72,1165.841,620.09,970.022a246.13,246.13,0,0,0,36.855-5.684L832.8,1140.36Q824.223,1154.075,815.72,1165.841Z" fill="#d4861f"/>
      <path id="Path_10" data-name="Path 10" d="M785.311,902.7c15.9-3.7,33.269-1.152,56.42,12.653,25.548,15.232,34.833,45.9,35.325,79.185Z" fill="#d4861f"/>
      <path id="Path_11" data-name="Path 11" d="M676.289,1258.972l-269.64-269.9a97.575,97.575,0,0,1,22.363-20.189L711.2,1251.348A168.215,168.215,0,0,1,676.289,1258.972Z" fill="#d4861f"/>
      <path id="Path_12" data-name="Path 12" d="M617.588,1258.605q-11.05-.97-21.817-2.662L382.055,1042.025a102.748,102.748,0,0,1,10.652-31.912l249.812,250.053C634.194,1259.915,625.885,1259.335,617.588,1258.605Z" fill="#d4861f"/>
    </g>
  </g>
</svg>
