<svg xmlns="http://www.w3.org/2000/svg" width="150.871" height="29.301" viewBox="0 0 150.871 29.301">
  <g id="opencart_logo_white" transform="translate(-0.115 -0.362)">
    <path id="Path_18" data-name="Path 18" d="M15.07,15.637a8.318,8.318,0,0,1-2.015,5.683A6.915,6.915,0,0,1,7.6,23.736a6.907,6.907,0,0,1-5.46-2.416A8.32,8.32,0,0,1,.115,15.637,8.3,8.3,0,0,1,2.136,9.954,6.986,6.986,0,0,1,7.6,7.564a6.941,6.941,0,0,1,5.46,2.39A8.3,8.3,0,0,1,15.07,15.637Zm-4.445,0a4.373,4.373,0,0,0-.733-2.576,2.634,2.634,0,0,0-2.3-1.184A2.635,2.635,0,0,0,5.3,13.06a4.339,4.339,0,0,0-.739,2.576,4.479,4.479,0,0,0,.739,2.6,2.635,2.635,0,0,0,2.3,1.185,2.634,2.634,0,0,0,2.3-1.185A4.514,4.514,0,0,0,10.625,15.637Zm20.516,0a8.742,8.742,0,0,1-1.824,5.512,6.046,6.046,0,0,1-5.024,2.586,5.557,5.557,0,0,1-3.663-1.248c0,.191.021.653.064,1.392s.063,1.348.063,1.826q0,3.96-2.36,3.957a2.075,2.075,0,0,1-1.59-.68,2.365,2.365,0,0,1-.622-1.651V10.161a2.3,2.3,0,0,1,.638-1.625A2.084,2.084,0,0,1,18.4,7.857a2.169,2.169,0,0,1,2.073,1.412,4.662,4.662,0,0,1,3.812-1.705,6.064,6.064,0,0,1,5.029,2.555A8.8,8.8,0,0,1,31.141,15.637Zm-4.445,0a4.375,4.375,0,0,0-.738-2.576,2.82,2.82,0,0,0-4.594,0,4.373,4.373,0,0,0-.733,2.576,4.513,4.513,0,0,0,.733,2.6,2.819,2.819,0,0,0,4.594,0A4.516,4.516,0,0,0,26.7,15.637Zm20.617-.478a1.9,1.9,0,0,1-.527,1.54,2.6,2.6,0,0,1-1.637.424H37.127a2.148,2.148,0,0,0,1.2,1.959,4.808,4.808,0,0,0,2.36.538,6.418,6.418,0,0,0,2.605-.712A6.624,6.624,0,0,1,45.24,18.2a1.733,1.733,0,0,1,1.313.568,1.92,1.92,0,0,1,.537,1.36q0,1.823-2.728,2.841a12.194,12.194,0,0,1-4.236.77,7.323,7.323,0,0,1-5.619-2.3,8.165,8.165,0,0,1-2.148-5.795,8.016,8.016,0,0,1,2.232-5.7A7.27,7.27,0,0,1,40.12,7.564a6.674,6.674,0,0,1,5.13,2.246A7.661,7.661,0,0,1,47.313,15.159Zm-4.444-1.116a2.6,2.6,0,0,0-.941-1.854A2.815,2.815,0,0,0,40,11.356a2.849,2.849,0,0,0-1.962.833,2.483,2.483,0,0,0-.909,1.854Zm19.377,7.068a2.366,2.366,0,0,1-.621,1.652,2.076,2.076,0,0,1-1.59.68q-2.329,0-2.329-3.691c0-.473.032-1.216.1-2.241s.1-1.769.1-2.241q0-3.912-2.531-3.914T52.847,15.27c0,.473.027,1.221.074,2.241S53,19.28,53,19.753q0,3.688-2.3,3.691a2.055,2.055,0,0,1-1.584-.68,2.346,2.346,0,0,1-.627-1.652V10.156a2.277,2.277,0,0,1,.627-1.631,2.077,2.077,0,0,1,1.59-.669,2.23,2.23,0,0,1,2.216,1.412,4.147,4.147,0,0,1,3.807-1.705A5.771,5.771,0,0,1,60.742,8.9a5.136,5.136,0,0,1,1.5,3.92ZM76.19,20.64q0,1.505-1.961,2.385a7.906,7.906,0,0,1-3.3.711,6.906,6.906,0,0,1-5.46-2.416,8.32,8.32,0,0,1-2.02-5.683A8.345,8.345,0,0,1,65.51,9.911a6.859,6.859,0,0,1,5.418-2.347,8.808,8.808,0,0,1,3.328.568,2.55,2.55,0,0,1,1.934,2.39,2.235,2.235,0,0,1-.51,1.45,1.622,1.622,0,0,1-1.307.627,5.209,5.209,0,0,1-1.563-.361,5.1,5.1,0,0,0-1.621-.362,2.962,2.962,0,0,0-2.473,1.131,4.051,4.051,0,0,0-.824,2.629,4.326,4.326,0,0,0,.74,2.57,2.621,2.621,0,0,0,2.3,1.216,5.908,5.908,0,0,0,1.792-.388,6.082,6.082,0,0,1,1.648-.387,1.654,1.654,0,0,1,1.281.626A2.062,2.062,0,0,1,76.19,20.64Zm16.156.472a2.364,2.364,0,0,1-.622,1.652,2.084,2.084,0,0,1-1.6.68,2.132,2.132,0,0,1-2.073-1.413,4.66,4.66,0,0,1-3.811,1.7,6.094,6.094,0,0,1-5.061-2.586,8.877,8.877,0,0,1-1.79-5.512,8.9,8.9,0,0,1,1.79-5.518,6.15,6.15,0,0,1,5.061-2.555,4.662,4.662,0,0,1,3.811,1.705,2.13,2.13,0,0,1,2.073-1.412,2.086,2.086,0,0,1,1.58.679,2.294,2.294,0,0,1,.637,1.62ZM87.9,15.637a4.369,4.369,0,0,0-.734-2.576,2.685,2.685,0,0,0-2.3-1.184,2.635,2.635,0,0,0-2.3,1.184,4.341,4.341,0,0,0-.738,2.576,4.629,4.629,0,0,0,.711,2.6,2.7,2.7,0,0,0,2.324,1.185,2.635,2.635,0,0,0,2.3-1.185A4.509,4.509,0,0,0,87.9,15.637Zm15.784-5.773a1.954,1.954,0,0,1-1.388,1.959q-1.283.431-2.557.882a3.1,3.1,0,0,0-1.393,2.953v5.454a2.373,2.373,0,0,1-.627,1.652,2.209,2.209,0,0,1-3.189,0,2.342,2.342,0,0,1-.628-1.652V10.156a2.294,2.294,0,0,1,.622-1.631,2.1,2.1,0,0,1,1.6-.669,2.232,2.232,0,0,1,2.217,1.412,4.034,4.034,0,0,1,3.073-1.705,2.186,2.186,0,0,1,1.61.679A2.261,2.261,0,0,1,103.686,9.863Zm11.595.2a1.753,1.753,0,0,1-1.158,1.875,8.833,8.833,0,0,1-2.378.2v8.97a2.373,2.373,0,0,1-.626,1.652,2.2,2.2,0,0,1-3.18,0,2.334,2.334,0,0,1-.637-1.652v-8.97a4.381,4.381,0,0,1-2-.345,1.806,1.806,0,0,1-.857-1.732,1.736,1.736,0,0,1,.883-1.705,4.275,4.275,0,0,1,1.973-.339V6.12q0-3.354,2.222-3.351c1.478,0,2.222,1.115,2.222,3.351v1.9a8.833,8.833,0,0,1,2.378.2A1.733,1.733,0,0,1,115.281,10.065Zm35.705-2.7c-.012-1.363-2.534-1.982-9.061-1.982-15.316,0-19.2-.654-23.359-5.025,1.749,2.625,2.706,7.548,18.895,7.3,16.89-.26,6.586,4.351,3.588,9.56,5.407-4.821,9.922-8,9.938-9.836Zm-21.522,14a2.315,2.315,0,0,1-4.63,0v0a2.326,2.326,0,0,1,2.316-2.314h0A2.313,2.313,0,0,1,129.465,21.367Zm10.547,0a2.315,2.315,0,0,1-4.63,0v0a2.326,2.326,0,0,1,2.316-2.314h0A2.313,2.313,0,0,1,140.012,21.367Z" transform="translate(0)" fill="#7cdfff"/>
  </g>
</svg>
