<svg xmlns="http://www.w3.org/2000/svg" width="35.128" height="33.268" viewBox="0 0 35.128 33.268">
  <g id="payment_" transform="translate(-0.436 -1.366)">
    <path id="Path_19324" data-name="Path 19324" d="M8.114,5.564C6.309,12.241,1.61,15.891.74,19.109S-.107,29.584,14.695,33.586s19.432-4.5,20.388-8.041C39.564,8.973,11.311-6.262,8.114,5.564Z" fill="#efefef"/>
    <path id="Path_19325" data-name="Path 19325" d="M23.25,25.25H7.576a.826.826,0,0,1-.826-.826V12.25h18.5v11A2,2,0,0,1,23.25,25.25Z" fill="#f3f3f1"/>
    <path id="Path_19326" data-name="Path 19326" d="M22.481,7.265a1,1,0,0,0-.874-.515H10.393a1,1,0,0,0-.874.515L6.75,12.25h18.5Z" fill="#df814e"/>
    <path id="Path_19327" data-name="Path 19327" d="M9,24.424V12.25H6.75V24.424a.826.826,0,0,0,.826.826h2.25A.826.826,0,0,1,9,24.424Z" fill="#d5dbe1"/>
    <path id="Path_19328" data-name="Path 19328" d="M12.643,6.75h-2.25a1,1,0,0,0-.874.515L6.75,12.25H9l2.769-4.985A1,1,0,0,1,12.643,6.75Z" fill="#bb6131"/>
    <g id="Group_2950" data-name="Group 2950">
      <path id="Path_19329" data-name="Path 19329" d="M8.119,2.417h2v1h-2Z" transform="translate(0.609 7.302) rotate(-45)" fill="#a4afc1"/>
      <path id="Path_19330" data-name="Path 19330" d="M4.053,6.482h2v1h-2Z" transform="translate(-3.457 5.618) rotate(-45)" fill="#a4afc1"/>
      <path id="Path_19331" data-name="Path 19331" d="M4.553,1.74h1v2h-1Z" transform="translate(-0.457 4.376) rotate(-45)" fill="#a4afc1"/>
      <path id="Path_19332" data-name="Path 19332" d="M31.113,16.75a1.5,1.5,0,1,1,1.5-1.5,1.5,1.5,0,0,1-1.5,1.5Zm0-2a.5.5,0,1,0,.5.5A.5.5,0,0,0,31.113,14.75Z" fill="#a4afc1"/>
    </g>
    <path id="Path_19333" data-name="Path 19333" d="M26.625,28H23.75V26.5h2.875a.875.875,0,0,0,0-1.75h-1.25a2.375,2.375,0,0,1,0-4.75H28.25v1.5H25.375a.875.875,0,0,0,0,1.75h1.25a2.375,2.375,0,0,1,0,4.75Z"/>
    <path id="Path_19334" data-name="Path 19334" d="M25.262,27.457h1.5V29.25h-1.5Z"/>
    <path id="Path_19335" data-name="Path 19335" d="M25.262,18.75h1.5v2h-1.5Z"/>
    <path id="Path_19336" data-name="Path 19336" d="M21.25,26H7.576A1.578,1.578,0,0,1,6,24.424V12.25a.75.75,0,0,1,.75-.75h18.5a.75.75,0,0,1,.75.75v4H24.5V13H7.5V24.424a.076.076,0,0,0,.076.076H21.25Z"/>
    <path id="Path_19337" data-name="Path 19337" d="M24.594,12.614,21.825,7.629a.247.247,0,0,0-.218-.129H10.393a.251.251,0,0,0-.219.128L7.405,12.614l-1.312-.729L8.863,6.9a1.75,1.75,0,0,1,1.53-.9H21.607a1.749,1.749,0,0,1,1.53.9l2.769,4.985Z"/>
    <path id="Path_19338" data-name="Path 19338" d="M15.25,6.75h1.5v5.5h-1.5Z"/>
  </g>
</svg>
