<svg xmlns="http://www.w3.org/2000/svg" width="209.688" height="225.987" viewBox="0 0 209.688 225.987">
  <g id="pic-2" transform="translate(-1175.124 -294.144)">
    <path id="path294" d="M658.232-340.718c0-1.023,41.74-1.851,93.23-1.851s93.23.828,93.23,1.851-41.741,1.851-93.23,1.851-93.23-.828-93.23-1.851" transform="translate(526 858.999)" fill="#d7c191"/>
    <path id="path296" d="M706.208-477.949H680.122v37.983h26.085v-37.983" transform="translate(526 858.999)" fill="#d7c191"/>
    <path id="path298" d="M706.208-477.949H720.1v37.983H706.208v-37.983" transform="translate(526 858.999)" fill="#fff"/>
    <path id="path300" d="M720.1-477.949H706.208v37.983H720.1Zm-.532.533V-440.5H706.742v-36.917h12.821" transform="translate(526 858.999)" fill="#c5ac75"/>
    <path id="path302" d="M731.312-414.1h-53.7v56.157h53.7V-414.1" transform="translate(526 858.999)" fill="#b75230"/>
    <path id="path304" d="M731.312-414.1h12.625v56.157H731.312V-414.1" transform="translate(526 858.999)" fill="#fff"/>
    <path id="path306" d="M743.937-414.1H731.312v56.156h12.625Zm-.533.533v55.091H731.845v-55.091H743.4" transform="translate(526 858.999)" fill="#b75230"/>
    <path id="path308" d="M679.416-357.942l10.693-26.441L701.1-372.564l10.323-4.263,2.512,18.885H679.416" transform="translate(526 858.999)" fill="#8f3a1e"/>
    <path id="path310" d="M703.916-414.1l.547,19.211,1.909-3.657,1.037,3.657.819-2.675,1.855,2.675,1.692-1.419.927,3.329.984-21.121h-9.769" transform="translate(526 858.999)" fill="#faebda"/>
    <path id="path312" d="M700.258-357.942l1.365-23.359,1.855,2.675.437-.655,1.528,2.128,1.473-2.947.437.709,1.447-2.62v24.068h-8.543" transform="translate(526 858.999)" fill="#faebda"/>
    <path id="path314" d="M737.146-359.632h-.005a.214.214,0,0,1-.208-.22l1.373-52.347a.215.215,0,0,1,.215-.209h.005a.215.215,0,0,1,.208.22l-1.375,52.348a.211.211,0,0,1-.213.208" transform="translate(526 858.999)" fill="#b75230"/>
    <path id="path316" d="M737.089-352.818l-2.616,12h-6.327l-13.748-12h22.691" transform="translate(526 858.999)" fill="#8f3a1e"/>
    <path id="path318" d="M732.268-352.818l-2.617,12h-1.5l-9.3-8.123-4.447-3.881h17.869" transform="translate(526 858.999)" fill="#523028"/>
    <path id="path320" d="M743.937-352.812H681.886a2.566,2.566,0,0,1-2.565-2.565,2.565,2.565,0,0,1,2.565-2.564h62.051a2.564,2.564,0,0,1,2.565,2.564,2.565,2.565,0,0,1-2.565,2.565" transform="translate(526 858.999)" fill="#8f3a1e"/>
    <path id="path322" d="M737.1-352.812h-62.05a2.566,2.566,0,0,1-2.565-2.565,2.565,2.565,0,0,1,2.565-2.564H737.1a2.564,2.564,0,0,1,2.565,2.564,2.565,2.565,0,0,1-2.565,2.565" transform="translate(526 858.999)" fill="#523028"/>
    <path id="path324" d="M675.046-352.812a2.566,2.566,0,0,1-2.565-2.565V-451.6a8.294,8.294,0,0,0-8.284-8.284h-3.723a2.563,2.563,0,0,1-2.564-2.564,2.564,2.564,0,0,1,2.564-2.565H664.2A13.429,13.429,0,0,1,677.612-451.6v96.225a2.565,2.565,0,0,1-2.565,2.565" transform="translate(526 858.999)" fill="#523028"/>
    <path id="path326" d="M663.582-457.975H651.91a2.786,2.786,0,0,1-2.787-2.787v-3.924a2.786,2.786,0,0,1,2.787-2.787h11.672a2.786,2.786,0,0,1,2.787,2.787v3.924a2.786,2.786,0,0,1-2.787,2.787" transform="translate(526 858.999)" fill="#8f3a1e"/>
    <path id="path328" d="M668.029-421.956h4.452v-12.007h-4.452a1.66,1.66,0,0,0-1.66,1.66v8.685a1.661,1.661,0,0,0,1.66,1.661" transform="translate(526 858.999)" fill="#2d0d08"/>
    <path id="path330" d="M661.824-425.522l4.545,1.711v-8.3l-4.545,1.711v4.877" transform="translate(526 858.999)" fill="#8f3a1e"/>
    <path id="path332" d="M663.229-427.96a5.334,5.334,0,0,1-5.333,5.333,5.334,5.334,0,0,1-5.333-5.333,5.334,5.334,0,0,1,5.333-5.333,5.334,5.334,0,0,1,5.333,5.333" transform="translate(526 858.999)" fill="#2d0d08"/>
    <path id="path334" d="M659.222-427.96a1.326,1.326,0,0,1-1.327,1.327,1.326,1.326,0,0,1-1.327-1.327,1.326,1.326,0,0,1,1.327-1.327,1.326,1.326,0,0,1,1.327,1.327" transform="translate(526 858.999)" fill="#fefaf1"/>
    <path id="path336" d="M689.617-355.378a14.572,14.572,0,0,1-14.571,14.572,14.572,14.572,0,0,1-14.572-14.572,14.572,14.572,0,0,1,14.572-14.571,14.571,14.571,0,0,1,14.571,14.571" transform="translate(526 858.999)" fill="#2d0d08"/>
    <path id="path338" d="M679.53-355.378a4.484,4.484,0,0,1-4.484,4.485,4.485,4.485,0,0,1-4.485-4.485,4.485,4.485,0,0,1,4.485-4.484,4.484,4.484,0,0,1,4.484,4.484" transform="translate(526 858.999)" fill="#fefaf1"/>
    <path id="path340" d="M663.15-355.164a.213.213,0,0,1-.215-.213,12.123,12.123,0,0,1,12.111-12.109.214.214,0,0,1,.213.215.213.213,0,0,1-.213.213,11.7,11.7,0,0,0-11.683,11.681.213.213,0,0,1-.213.213" transform="translate(526 858.999)" fill="#fff"/>
    <path id="path342" d="M732.268-352.818l-13.423,3.881-4.447-3.881Z" transform="translate(526 858.999)" fill="#2d0d08"/>
    <path id="path344" d="M717.669-439.967H677.612V-414.1h40.057v-25.868" transform="translate(526 858.999)" fill="#fcb842"/>
    <path id="path346" d="M717.669-439.967h19.956V-414.1H717.669v-25.868" transform="translate(526 858.999)" fill="#ffd895"/>
    <path id="path348" d="M688.526-439.967l.709,8.241.545-2.237.436,1.419.655-.764,1.911,2.183.819-8.841h-5.075" transform="translate(526 858.999)" fill="#faebda"/>
    <path id="path350" d="M688.526-414.1c-.111,0,0-12.535,0-12.535l1.909,3.312.628-1.037,1.064,1.732,1.473-2.495.381,11.023h-5.456" transform="translate(526 858.999)" fill="#faebda"/>
    <path id="path352" d="M727.057-415.134h0a.214.214,0,0,1-.209-.219l.56-23.369a.225.225,0,0,1,.219-.209.214.214,0,0,1,.208.219l-.559,23.369a.214.214,0,0,1-.215.209" transform="translate(526 858.999)" fill="#faebda"/>
    <path id="path354" d="M697.64-414.1l4.093-17.027,4.475,17.027Z" transform="translate(526 858.999)" fill="#f39a02"/>
    <path id="path356" d="M660.658-465.215H651.9a.473.473,0,0,1-.472-.472h0a.474.474,0,0,1,.472-.472h8.757a.475.475,0,0,1,.472.472h0a.474.474,0,0,1-.472.472" transform="translate(526 858.999)" fill="#fff"/>
    <path id="path358" d="M793.571-522.795l1.177,8.635,2.573-.808s.387,7.365,6.8,4.96l.327,10.775s7.547,2.319,12.752-2.705l-10.244-27.353s-9.957-2.592-13.385,6.5" transform="translate(526 858.999)" fill="#f89184"/>
    <path id="path360" d="M793.571-522.795c-11.029,2.209-10.517-12.009-4.357-12.532s3.865,4.667,8.847-.179,11.043-5.217,12.357-2.1,6.433,1.379,5.593,6.653,4.572,7.391.264,9.872-3.063,8.493-3.063,8.493-2.993-4.4-6.243-4.625c1.649-4.856.984-8.608-1.944-7.936s-.368,6.272-.368,6.272l-2.125.451s.1-6.619-2.959-6.559a12.384,12.384,0,0,0-6,2.188" transform="translate(526 858.999)" fill="#2d0d08"/>
    <path id="path362" d="M796.515-519.7c.263,1.244.743,2.195,1.071,2.125s.381-1.133.116-2.376-.743-2.195-1.071-2.125-.381,1.133-.116,2.376" transform="translate(526 858.999)" fill="#2d0d08"/>
    <path id="path364" d="M794.415-535.244a.27.27,0,0,0,.212-.1.269.269,0,0,0-.045-.377c-4.839-3.831-8.933-2.02-9.8-.964a.268.268,0,0,0,.037.379.269.269,0,0,0,.377-.039c.672-.816,4.484-2.571,9.051,1.045a.275.275,0,0,0,.167.057" transform="translate(526 858.999)" fill="#2d0d08"/>
    <path id="path366" d="M815.875-527.077a.29.29,0,0,0,.095-.017.272.272,0,0,0,.157-.349c-.487-1.272-.008-2.305.547-3.5a7.258,7.258,0,0,0,.739-5.556.27.27,0,0,0-.332-.188.271.271,0,0,0-.187.332,6.725,6.725,0,0,1-.708,5.187c-.58,1.252-1.127,2.435-.561,3.92a.268.268,0,0,0,.251.173" transform="translate(526 858.999)" fill="#2d0d08"/>
    <path id="path368" d="M813.135-534.808a.275.275,0,0,0,.184-.075.269.269,0,0,0,.011-.38,4.875,4.875,0,0,1-1.081-2.076,8.233,8.233,0,0,0-1.74-3.223.271.271,0,0,0-.379-.027.268.268,0,0,0-.027.379,7.762,7.762,0,0,1,1.635,3.037,5.383,5.383,0,0,0,1.2,2.28.267.267,0,0,0,.2.084" transform="translate(526 858.999)" fill="#2d0d08"/>
    <path id="path370" d="M801.7-494.641a32.463,32.463,0,0,1-1.168-5.924s9.984-6.98,17.141-4.176a14.143,14.143,0,0,1,1.147,7.16l-17.12,2.94" transform="translate(526 858.999)" fill="#fcb842"/>
    <path id="path372" d="M790.535-383.116c4.213,5.933,11.223,17.5,16.769,26.94.624,1.075,1.248,2.107,1.829,3.117l4.084-2.365c-.257-.881-.559-1.892-.924-2.988-2.6-8.063-7.5-21.608-11.632-31.52a5.435,5.435,0,0,1,.172-4.515c6.213-12.148,13.313-20.569,18.125-27.263.537-.472,1.011-.967,1.461-1.44,10.084-10.729,1.14-20.812-.408-22.275-7.1-1.805-22.9,7.247-22.9,7.247,2.945,9.868-3.677,24.123-9.031,44.4-.989,3.741.216,7.5,2.451,10.664" transform="translate(526 858.999)" fill="#3e5cbc"/>
    <path id="path374" d="M797.115-438.17c.064.6.129,1.2.215,1.805,3.741,30.315,21.028,49.215,23.736,83.916.151,1.977.172,3.073.172,3.073h4.731s.085-1.332.193-3.676c.516-11.18,1.4-45.451-5.741-70.09,4.236-4.493,5.117-8.88,4.6-12.556a17.93,17.93,0,0,0-5.009-9.719c-7.1-1.805-22.9,7.247-22.9,7.247" transform="translate(526 858.999)" fill="#5872c5"/>
    <path id="path376" d="M797.115-438.17c.064.6.129,1.2.215,1.805,6.192-2.881,18.469-5.676,27.692.667a17.93,17.93,0,0,0-5.009-9.719c-7.1-1.805-22.9,7.247-22.9,7.247" transform="translate(526 858.999)" fill="#3e5cbc"/>
    <path id="path378" d="M782.309-485.246a33.359,33.359,0,0,0-5.215-11.735l-1.372,1.373s-2.951-5.42-6.312-1.991c-.909,3.277,6.587,12.9,9.468,14.684l3.431-2.332" transform="translate(526 858.999)" fill="#f89184"/>
    <path id="path380" d="M793.7-470.012c2.6-17.475,12.232-31,20.391-27.908s.847,29.265-20.116,43.552c-11.253-11.664-15.1-28.545-15.1-28.545l3.431-2.332s3.951,9.1,11.391,15.233" transform="translate(526 858.999)" fill="#fcb842"/>
    <path id="path382" d="M769.337-502.271l6.857,13.244,1.7-1.009,4.557-2.688-6.32-13.523-4.989,2.923-1.805,1.053" transform="translate(526 858.999)" fill="#5872c5"/>
    <path id="path384" d="M769.337-502.271l6.857,13.244,1.7-1.009-6.752-13.288-1.805,1.053" transform="translate(526 858.999)" fill="#3e5cbc"/>
    <path id="path386" d="M813.21-355.424l4,6.1a1.873,1.873,0,0,1-.163,2.283c-1.253,1.4-3.477,3.871-5.036,5.444a2.687,2.687,0,0,1-1.919.791H800.15a.663.663,0,0,1-.231-1.287c2.455-.9,5.293-2.212,6.407-3.792a20,20,0,0,0,2.812-7.175l4.072-2.365" transform="translate(526 858.999)" fill="#2d0d08"/>
    <path id="path388" d="M789.7-433.874c18.743-26.125-.812-60.4,19.277-67.286s22.161,32.089,12.181,55.027c-20.369,4-31.459,12.26-31.459,12.26" transform="translate(526 858.999)" fill="#ffd895"/>
    <path id="path390" d="M826.167-353.059c-.107,2.343-.195,3.676-.195,3.676h-4.728s-.023-1.1-.172-3.075l5.095-.6" transform="translate(526 858.999)" fill="#f89184"/>
    <path id="path392" d="M825.973-349.383a26.649,26.649,0,0,1,.623,6.324,2.263,2.263,0,0,1-2.26,2.253H806.374a.768.768,0,0,1-.215-1.508c5.713-1.572,13.593-4.2,15.085-7.069h4.728" transform="translate(526 858.999)" fill="#2d0d08"/>
    <path id="path394" d="M807.3-356.176c.624,1.075,1.248,2.107,1.829,3.117l4.084-2.365c-.257-.881-.559-1.892-.924-2.988l-4.989,2.236" transform="translate(526 858.999)" fill="#f89184"/>
    <path id="path396" d="M809.259-483.16a9.785,9.785,0,0,1,.1-2.273.267.267,0,0,1,.243-.225.269.269,0,0,1,.277.184,14.836,14.836,0,0,0,7.724,8.124.276.276,0,0,1,.151.349.268.268,0,0,1-.348.149,15.549,15.549,0,0,1-7.627-7.4c-.233,5.621,4.72,9.249,4.772,9.288a.265.265,0,0,1,.061.375.27.27,0,0,1-.375.061c-.052-.039-4.595-3.377-4.979-8.633" transform="translate(526 858.999)" fill="#fff"/>
    <path id="path398" d="M817.371-425.948l38.759,2.5,2.4-37.251-38.756-2.5-2.4,37.251" transform="translate(526 858.999)" fill="#fff"/>
    <path id="path400" d="M817.655-426.2l38.225,2.461,2.364-36.719-38.224-2.463Zm38.723,3.028L817.087-425.7l.019-.267,2.417-37.516,39.288,2.531-.017.265-2.416,37.517" transform="translate(526 858.999)" fill="#b75230"/>
    <path id="path402" d="M817.371-425.948l-7.66-.493,2.4-37.251,7.66.493-2.4,37.251" transform="translate(526 858.999)" fill="#fff"/>
    <path id="path404" d="M810-426.69l7.128.459,2.364-36.719-7.128-.459Zm7.625,1.024-8.193-.527.019-.265,2.416-37.517,8.193.528-.019.265-2.416,37.516" transform="translate(526 858.999)" fill="#b75230"/>
    <path id="path406" d="M833.823-474.451c-17.492-2.479-31.024-10.539-27.992-18.72,2.848-7.679,24.072-3.387,38.6,14.428a11.678,11.678,0,0,1,2.555,8.013,249.15,249.15,0,0,1-4.147,33.28l-3.989-1.188s.9-13.751-5.028-35.813" transform="translate(526 858.999)" fill="#fcb842"/>
    <path id="path408" d="M842.841-437.45c.795,3.639.963,6.316-.837,9.347a2.814,2.814,0,0,1-5.256-1.7,13.629,13.629,0,0,1,1.623-5.832c-2.847.428-2.509,4.069-4.069,3.391-1.661-.721,1.011-4.753,4.551-6.392l3.989,1.188" transform="translate(526 858.999)" fill="#f89184"/>
    <path id="path410" d="M771.975-507.141l-21.919-19.2a19.46,19.46,0,0,0,2-8.5c0-16.428-21.547-29.744-48.128-29.744S655.8-551.271,655.8-534.843,677.354-505.1,703.933-505.1c15.347,0,29-4.444,37.816-11.359l30.227,9.316" transform="translate(526 858.999)" fill="#fff"/>
    <path id="path412" d="M703.933-564.321c-26.391,0-47.86,13.224-47.86,29.479s21.469,29.477,47.86,29.477c14.773,0,28.5-4.119,37.652-11.3a.266.266,0,0,1,.243-.045l29.032,8.948-20.979-18.381a.27.27,0,0,1-.065-.316,19.2,19.2,0,0,0,1.979-8.381C751.794-551.1,730.324-564.321,703.933-564.321Zm0,59.489c-26.684,0-48.395-13.463-48.395-30.011s21.711-30.012,48.395-30.012,48.395,13.463,48.395,30.012a19.7,19.7,0,0,1-1.943,8.429l21.767,19.072a.265.265,0,0,1,.057.331.263.263,0,0,1-.311.124L741.8-516.161c-9.245,7.2-23.039,11.329-37.871,11.329" transform="translate(526 858.999)" fill="#b75230"/>
    <path id="path414" d="M713.686-523.657a.267.267,0,0,1-.092-.016l-3.057-1.117c-.033.216-.089.527-.177.9a.262.262,0,0,1-.32.2.266.266,0,0,1-.2-.321,9.743,9.743,0,0,0,.209-1.167.268.268,0,0,1,.124-.2.273.273,0,0,1,.233-.025l3.072,1.124,2.044-11.092a.268.268,0,0,1,.309-.215.268.268,0,0,1,.213.312l-2.1,11.4a.268.268,0,0,1-.129.184.275.275,0,0,1-.132.035" transform="translate(526 858.999)" fill="#b75230"/>
    <path id="path416" d="M699.978-504.931h-.019a.266.266,0,0,1-.247-.285l.611-8.467a.281.281,0,0,1,.285-.248.269.269,0,0,1,.247.285l-.611,8.467a.267.267,0,0,1-.267.248" transform="translate(526 858.999)" fill="#b75230"/>
    <path id="path418" d="M682.04-508.08a.27.27,0,0,1-.109-.024.267.267,0,0,1-.133-.352l7.272-16.2a.267.267,0,0,1,.352-.133.267.267,0,0,1,.135.353l-7.272,16.2a.268.268,0,0,1-.244.157" transform="translate(526 858.999)" fill="#b75230"/>
    <path id="path420" d="M711.682-531.389c-.428,1.636-1.124,2.869-1.555,2.757s-.435-1.531-.008-3.165,1.124-2.871,1.555-2.759.435,1.531.008,3.167" transform="translate(526 858.999)" fill="#b75230"/>
    <path id="path422" d="M715.229-552.015a.364.364,0,0,1-.061-.067.343.343,0,0,1,.081-.481c6.664-4.787,11.983-2.123,13.065-.679a.348.348,0,0,1-.069.485.345.345,0,0,1-.485-.071c-.844-1.127-5.8-3.7-12.111.825a.344.344,0,0,1-.42-.013" transform="translate(526 858.999)" fill="#b75230"/>
    <path id="path424" d="M686.409-545.016a10.434,10.434,0,0,0-.813-2.575c-.8-1.964-1.707-4.189-.637-7.424a.348.348,0,0,1,.437-.221.349.349,0,0,1,.22.437c-.989,2.995-.172,5,.621,6.945.089.22.179.436.263.653l-.091,2.184" transform="translate(526 858.999)" fill="#b75230"/>
    <path id="path426" d="M690.552-553.363a6.991,6.991,0,0,0,1.32-2.443,10.918,10.918,0,0,1,2.511-4.175.323.323,0,0,1,.488-.009.343.343,0,0,1,.011.488,10.315,10.315,0,0,0-2.36,3.941,10.942,10.942,0,0,1-.784,1.749l-1.185.448" transform="translate(526 858.999)" fill="#b75230"/>
    <path id="path428" d="M696.922-525.037c-2.621,9.18,9.584,15.488,10.8,16.089l.449-.153c-1.455-6.048,1.335-13.085,1.965-14.559-1.345-.493-7.029-2.881-6.615-7.852a.267.267,0,0,1-.048-.185c.328-2.769,1.364-7.393,4.491-7.175,3.9.259,7.475,2.937,7.944,3.3,5.124,1.261,7.949-.421,9.413-2.057a9.9,9.9,0,0,0,1.564-9.7,5.841,5.841,0,0,0-4.568-4.12c-3.483-.464-4.917.607-5.957,1.387-1.524,1.144-2.416,1.52-5.947-2.253-4.7-5.011-9.688-6.275-12.545-5.832a4.141,4.141,0,0,0-3.316,2.212c-.832,1.743-2.457,2.313-4.028,2.865-2.275.8-4.24,1.491-3.791,5.487a11.593,11.593,0,0,1-1.92,7.315c-1.288,2.331-2.067,3.739.835,5.6,4.448,2.844,4.183,8.42,3.852,10.729,1.331-1.545,4.472-4.755,7.785-5.037-1.241-4.5-1.06-8.24.487-9.8a2.912,2.912,0,0,1,3.008-.636,2.418,2.418,0,0,1,1.647,1.4c1.045,2.4-1.105,6.793-1.359,7.3a20.293,20.293,0,0,1-4.144,5.684ZM707.7-508.393a.26.26,0,0,1-.113-.025c-.141-.067-14.113-6.759-11.157-16.839a.277.277,0,0,1,.076-.121,20.21,20.21,0,0,0,4.049-5.511.166.166,0,0,1,.016-.035l.015-.033c.011-.023.021-.044.031-.065a.244.244,0,0,1,.021-.037c.379-.779,2.188-4.705,1.3-6.745a1.875,1.875,0,0,0-1.3-1.1,2.369,2.369,0,0,0-2.487.5c-1.425,1.437-1.528,5.2-.261,9.6a.266.266,0,0,1-.041.232.266.266,0,0,1-.209.108c-4.152.095-8.333,5.6-8.375,5.656a.268.268,0,0,1-.329.08.263.263,0,0,1-.141-.307c.019-.077,1.909-7.769-3.432-11.188-3.325-2.127-2.305-3.968-1.013-6.3a11.147,11.147,0,0,0,1.853-7c-.495-4.416,1.865-5.247,4.145-6.048,1.536-.54,2.987-1.049,3.724-2.592a4.7,4.7,0,0,1,3.717-2.509c3.921-.608,9.032,1.745,13.013,5.995,3.368,3.6,3.953,3.153,5.239,2.189,1.112-.833,2.635-1.976,6.348-1.487a6.355,6.355,0,0,1,5,4.463,10.451,10.451,0,0,1-1.667,10.24c-1.568,1.752-4.572,3.557-10,2.207a.25.25,0,0,1-.1-.049c-.039-.029-3.769-2.961-7.7-3.221-.052,0-.1-.005-.156-.005-2.595,0-3.471,4.384-3.743,6.512a.263.263,0,0,1,.043.179c-.612,5.312,6.433,7.56,6.505,7.583a.268.268,0,0,1,.164.145.269.269,0,0,1,0,.22c-.037.081-3.689,8.2-1.992,14.709a.267.267,0,0,1-.172.32l-.785.268a.275.275,0,0,1-.087.015" transform="translate(526 858.999)" fill="#b75230"/>
  </g>
</svg>
