<svg xmlns="http://www.w3.org/2000/svg" width="223.544" height="216.839" viewBox="0 0 223.544 216.839">
  <g id="pic-1" transform="translate(-561.399 -594.653)">
    <path id="path152" d="M44.248-49.359c0-1.021,39.024-1.849,87.163-1.849s87.164.828,87.164,1.849-39.024,1.852-87.164,1.852-87.163-.829-87.163-1.852" transform="translate(526 858.999)" fill="#d7c191"/>
    <path id="path154" d="M215.563-95.836h39.3v-163.55h-39.3Zm39.564.533H215.3a.267.267,0,0,1-.267-.267V-259.653a.267.267,0,0,1,.267-.267h39.831a.267.267,0,0,1,.267.267V-95.569a.267.267,0,0,1-.267.267" transform="translate(526 858.999)" fill="#b75230"/>
    <path id="path156" d="M215.563-95.836h42.845v-167.32H215.563Zm43.112.533H215.3a.267.267,0,0,1-.267-.267V-263.422a.268.268,0,0,1,.267-.268h43.379a.268.268,0,0,1,.268.268V-95.569a.267.267,0,0,1-.268.267" transform="translate(526 858.999)" fill="#b75230"/>
    <path id="path158" d="M222.615-176.322a2.97,2.97,0,0,0-2.967,2.967,2.97,2.97,0,0,0,2.967,2.968,2.97,2.97,0,0,0,2.968-2.968A2.97,2.97,0,0,0,222.615-176.322Zm0,6.468a3.5,3.5,0,0,1-3.5-3.5,3.5,3.5,0,0,1,3.5-3.5,3.505,3.505,0,0,1,3.5,3.5,3.5,3.5,0,0,1-3.5,3.5" transform="translate(526 858.999)" fill="#b75230"/>
    <path id="path160" d="M207.722-54.961H197.254a.267.267,0,0,1-.267-.267.268.268,0,0,1,.267-.267h10.2v-9.434a.266.266,0,0,1,.267-.267h12.5v-9.947a.268.268,0,0,1,.268-.268h13.264V-85.1a.267.267,0,0,1,.268-.267h10.712v-10.2a.267.267,0,0,1,.267-.267h10.128a.267.267,0,0,1,.267.267.267.267,0,0,1-.267.267h-9.861v10.2a.267.267,0,0,1-.267.267H234.287v9.691a.267.267,0,0,1-.267.267H220.755v9.947a.268.268,0,0,1-.267.267h-12.5v9.434a.268.268,0,0,1-.268.267" transform="translate(526 858.999)" fill="#b75230"/>
    <path id="path162" d="M169.254-54.961H158.786a.267.267,0,0,1-.267-.267.268.268,0,0,1,.267-.267h10.2v-9.434a.266.266,0,0,1,.267-.267h12.5v-9.947a.268.268,0,0,1,.268-.268h13.264V-85.1a.267.267,0,0,1,.268-.267h10.712v-10.2a.267.267,0,0,1,.267-.267h10.128a.267.267,0,0,1,.267.267.267.267,0,0,1-.267.267H206.8v10.2a.267.267,0,0,1-.267.267H195.82v9.691a.267.267,0,0,1-.267.267H182.288v9.947a.268.268,0,0,1-.267.267h-12.5v9.434a.268.268,0,0,1-.268.267" transform="translate(526 858.999)" fill="#b75230"/>
    <path id="path164" d="M172.417-79.489,187.328-94.05l-10.268-8.63L160.541-88.3l11.876,8.806" transform="translate(526 858.999)" fill="#fff"/>
    <path id="path166" d="M177.062-102.462,160.8-88.3l11.6,8.6,14.68-14.336Zm-4.744,23.105-11.875-8.805a.163.163,0,0,1-.068-.127.158.158,0,0,1,.057-.129L176.952-102.8a.166.166,0,0,1,.215,0l10.268,8.628a.163.163,0,0,1,.059.12.166.166,0,0,1-.049.126L172.532-79.371a.171.171,0,0,1-.115.047.169.169,0,0,1-.1-.033" transform="translate(526 858.999)" fill="#b75230"/>
    <path id="path168" d="M170.289-76.153,182.237-93.23,170.545-99.8,156.984-82.6l13.305,6.449" transform="translate(526 858.999)" fill="#b75230"/>
    <path id="path170" d="M161.594-91.4l.021-20.841-14.7.475.08,22.7,14.6-2.329" transform="translate(526 858.999)" fill="#8f3a1e"/>
    <path id="path172" d="M173.5-83.274l9.381-18.611-13.345-6.18L159.4-87.752,173.5-83.274" transform="translate(526 858.999)" fill="#8f3a1e"/>
    <path id="path174" d="M166-81.1l7.456-19.461-13.9-4.8-8.024,21.231L166-81.1" transform="translate(526 858.999)" fill="#b75230"/>
    <path id="path176" d="M158.337-89.728l-12.153-15.78L135.34-96.565l13.313,17.124,9.684-10.287" transform="translate(526 858.999)" fill="#b75230"/>
    <path id="path178" d="M161.758-80.113l7.456-19.461-13.9-4.8-8.025,21.232,14.471,3.032" transform="translate(526 858.999)" fill="#fff"/>
    <path id="path180" d="M155.412-104.169l-7.9,20.9L161.654-80.3,169-99.473Zm6.312,24.219-14.469-3.033a.168.168,0,0,1-.111-.083.165.165,0,0,1-.009-.137l8.025-21.232a.159.159,0,0,1,.207-.1l13.9,4.8a.163.163,0,0,1,.095.086.159.159,0,0,1,0,.128l-7.456,19.463a.165.165,0,0,1-.153.105l-.035,0" transform="translate(526 858.999)" fill="#b75230"/>
    <path id="path182" d="M181.06-87.607H149.634l-2.683,25.578c-.673,6.418,5.131,12.672,11.759,12.672h20.948c6.357,0,10.428-5.566,8.685-11.876L181.06-87.607" transform="translate(526 858.999)" fill="#fcb842"/>
    <path id="path184" d="M172.693-87.607H141.268l-6.591,25.578A10.141,10.141,0,0,0,144.5-49.357h20.947a10.58,10.58,0,0,0,10.5-11.876l-3.253-26.373" transform="translate(526 858.999)" fill="#ffd895"/>
    <path id="path186" d="M147.756-71.347a6.235,6.235,0,0,0,6.235,6.235,6.234,6.234,0,0,0,6.233-6.235,6.233,6.233,0,0,0-6.233-6.234,6.234,6.234,0,0,0-6.235,6.234" transform="translate(526 858.999)" fill="#faebda"/>
    <path id="path188" d="M168.565-61.068v1.307A2.577,2.577,0,0,1,166-57.193a2.577,2.577,0,0,1-2.569-2.568v-1.307h5.139" transform="translate(526 858.999)" fill="#2d0d08"/>
    <path id="path190" d="M145.565-61.068v1.307A2.577,2.577,0,0,1,143-57.193a2.578,2.578,0,0,1-2.571-2.568v-1.307h5.14" transform="translate(526 858.999)" fill="#2d0d08"/>
    <path id="path192" d="M180.028-81.614c3.173,11.586,21.248,8.281,18.088,28.331a4.687,4.687,0,0,1-4.637,3.927H180.028l10.916-.737a3.809,3.809,0,0,0,3.489-3.233c3.128-20-14.895-16.684-18.064-28.26l3.659-.027" transform="translate(526 858.999)" fill="#2d0d08"/>
    <path id="path194" d="M179.6-83.732l.429,2.118c.2.972-.2,1.758-.9,1.758h-1.175c-.683,0-1.393-.775-1.588-1.732l-.436-2.144H179.6" transform="translate(526 858.999)" fill="#ffd895"/>
    <path id="path196" d="M106.08-204.964c4.729-12.608,36.761,3.979,42.7,14.467,4.519,7.985-7.319,9.529-14.571,5.464-11.242-6.305-33.025-6.864-28.125-19.931" transform="translate(526 858.999)" fill="#fcb842"/>
    <path id="path198" d="M81.808-207.449C74-209.659,62.895-191.338,58.692-176.768s-6.147,29.176-5.586,37.863l3.222.14s4.886-24.132,18.756-39.123,14.151-27.46,6.725-29.561" transform="translate(526 858.999)" fill="#ffd895"/>
    <path id="path200" d="M82.085-208.523c-5.6-2.288-6.352-12.235,1.94-9.993a35.45,35.45,0,0,0,19.358-.327c4.484-1.215,11.069,4.389,3.363,10.9s-24.661-.584-24.661-.584" transform="translate(526 858.999)" fill="#fcb842"/>
    <path id="path202" d="M123.088-58.823H118.6c-.763-1.279-1.592-2.916-2.49-4.822-6.594-14.2-16.083-43.986-20.838-67.449C85.763-114.025,80.357-76.9,78.7-63.645c-.4,3.051-.583,4.822-.583,4.822h-4.06l.112-4.822.673-32.008v-.719l.2-9.555.022-.876.472-22.812.2-10.16,6.572-.157,29.586-.7c-.022.269-.022.561-.022.853-.135,3.073-.068,6.527.134,10.228.359,6.819,1.189,14.423,2.243,22.072.045.246.067.47.09.694.471,3.343.987,6.685,1.5,9.938.045.224.067.427.09.628,2.2,13.616,4.733,26.02,6.124,32.569.628,3.051,1.032,4.822,1.032,4.822" transform="translate(526 858.999)" fill="#5872c5"/>
    <path id="path204" d="M82.309-139.932c-.808,8.5-3.611,11.395-6.774,10.317l.2-10.16,6.572-.157" transform="translate(526 858.999)" fill="#3e5cbc"/>
    <path id="path206" d="M112.007-129.547c-3.05.83-5.7-2.153-6.483-10.385l6.348.157c-.135,3.073-.068,6.527.134,10.228" transform="translate(526 858.999)" fill="#3e5cbc"/>
    <path id="path208" d="M84.789-207.77c-4.337-1.772-4.917-9.473,1.5-7.739a27.441,27.441,0,0,0,14.989-.252c3.471-.94,8.569,3.4,2.6,8.443s-19.094-.452-19.094-.452" transform="translate(526 858.999)" fill="#2d0d08"/>
    <path id="path210" d="M42.618-135.682c8.311,5.493,24.931,10.791,24.931,10.791s-2.78,15.064-1.62,22.143c-12.847-2.732-29.072-11.221-29.072-11.221s1.316-13.479,5.761-21.712" transform="translate(526 858.999)" fill="#b75230"/>
    <path id="path212" d="M43.036-139.4c7.88,6.093,24.061,12.61,24.061,12.61s-3.887,14.814-3.257,21.96c-12.609-3.678-28.16-13.344-28.16-13.344s2.312-13.345,7.356-21.225" transform="translate(526 858.999)" fill="#fff"/>
    <path id="path214" d="M35.99-118.308c1.672,1.021,15.869,9.6,27.54,13.1-.431-6.813,2.732-19.449,3.235-21.409-1.979-.811-16.27-6.767-23.656-12.367C38.582-131.721,36.291-119.931,35.99-118.308Zm27.85,13.761a.274.274,0,0,1-.079-.01c-12.5-3.645-28.073-13.279-28.229-13.376a.28.28,0,0,1-.128-.286c.023-.133,2.38-13.49,7.4-21.327a.275.275,0,0,1,.189-.125.281.281,0,0,1,.22.053c7.758,6,23.834,12.507,24,12.573a.28.28,0,0,1,.166.331c-.039.146-3.868,14.85-3.25,21.864a.281.281,0,0,1-.1.241.282.282,0,0,1-.178.062" transform="translate(526 858.999)" fill="#b75230"/>
    <path id="path216" d="M115.8-138.856a63.864,63.864,0,0,1-21.511,4.733,52.175,52.175,0,0,1-21.87-3.432A19.2,19.2,0,0,1,77.6-156.464c-4.419-17.945-5.07-29.967-3.656-38.043.045-.269.089-.537.134-.785.113-.515.225-1.009.337-1.48a6.184,6.184,0,0,1,.18-.7c1.929-7.132,5.719-10.519,9.622-12.135h.022a12.959,12.959,0,0,1,2.333-.785c8.972-2.243,14.288,0,14.288,0a8.344,8.344,0,0,1,8.03,1.212c2.49,1.884,4.913,5.7,6.1,13.189a6.028,6.028,0,0,1,.134.875c.112.649.2,1.323.269,2.041.022.291.067.605.09.92.74,8.052.269,19.492-2.31,35.687,0,0,3.97,10.095,2.624,17.608" transform="translate(526 858.999)" fill="#faebda"/>
    <path id="path218" d="M115.794-138.861a64.072,64.072,0,0,1-21.51,4.741s-5.158-52.743.7-64.509c-.373-6.737,6.826-12.049,13.893-10.557,5.224,3.931,10.074,16.331,4.3,52.721,0,0,3.972,10.1,2.612,17.6" transform="translate(526 858.999)" fill="#ffd895"/>
    <path id="path220" d="M94.284-134.12a52.559,52.559,0,0,1-21.861-3.424,19.215,19.215,0,0,1,5.18-18.921c-9.459-38.323-1.668-49.735,6.607-53.137h.022c5.487.329,10.36,5.772,11.018,12.664.813,8.495,2.217,43.043-.966,62.819" transform="translate(526 858.999)" fill="#fcb842"/>
    <path id="path222" d="M115.125-195.112c-5.653,9.017-18.55,18.64-18.685,18.752a.42.42,0,0,1-.18.045.411.411,0,0,1-.157-.045c-.18-.135-14.984-11.709-21.69-20.412a6.184,6.184,0,0,1,.18-.7c6.146,8.188,19.985,19.2,21.69,20.525,1.57-1.212,13.66-10.521,18.708-19.044a6.03,6.03,0,0,1,.134.875" transform="translate(526 858.999)" fill="#fff"/>
    <path id="path224" d="M115.484-192.15c-5.765,8.995-19.044,18.415-19.178,18.527a.2.2,0,0,1-.157.068.3.3,0,0,1-.18-.068c-.157-.133-15.5-12.112-22.027-20.883.045-.269.089-.537.134-.785,5.9,8.256,20.367,19.763,22.072,21.085,1.615-1.144,14.109-10.34,19.246-18.864.022.291.067.605.09.92" transform="translate(526 858.999)" fill="#fff"/>
    <path id="path226" d="M78.7-63.641c-.4,3.051-.593,4.829-.593,4.829h-4.06l.11-4.829H78.7" transform="translate(526 858.999)" fill="#f89184"/>
    <path id="path228" d="M123.081-58.812H118.6a53.709,53.709,0,0,1-2.481-4.829h5.927c.637,3.051,1.032,4.829,1.032,4.829" transform="translate(526 858.999)" fill="#f89184"/>
    <path id="path230" d="M133.925-130.814H101.842V-181.39h32.083v50.576" transform="translate(526 858.999)" fill="#d7c191"/>
    <path id="path232" d="M133.925-130.814h45.236V-181.39H133.925v50.576" transform="translate(526 858.999)" fill="#fff"/>
    <path id="path234" d="M179.161-181.39H133.925v50.576h45.236Zm-.533.532v49.511H134.458v-49.511h44.169" transform="translate(526 858.999)" fill="#c5ac75"/>
    <path id="path236" d="M171.193-138.87h-27.6v-4.272h27.6v4.272" transform="translate(526 858.999)" fill="#d7c191"/>
    <path id="path238" d="M124.588-164.757l-12.163,15.208L109.362-152l12.162-15.208,3.064,2.451" transform="translate(526 858.999)" fill="#c5ac75"/>
    <path id="path240" d="M126.01-148.012a3.4,3.4,0,0,1-3.4,3.4,3.4,3.4,0,0,1-3.4-3.4,3.4,3.4,0,0,1,3.4-3.4,3.4,3.4,0,0,1,3.4,3.4" transform="translate(526 858.999)" fill="#faebda"/>
    <path id="path242" d="M113.231-181.39l.318,11.195,1.114-2.132.6,2.132.477-1.559,1.081,1.559.986-.828.54,1.94.572-12.307h-5.692" transform="translate(526 858.999)" fill="#c5ac75"/>
    <path id="path244" d="M118.924-130.814l-.318-11.195-1.114,2.132-.6-2.132-.477,1.559-1.081-1.559-.985.827-.541-1.939-.572,12.307h5.692" transform="translate(526 858.999)" fill="#c5ac75"/>
    <path id="path246" d="M78.787-51.532a2.13,2.13,0,0,1-2.153,2.174h-23.1a.74.74,0,0,1-.2-1.457c6.549-1.706,16.486-4.666,20.726-8.008h4.06s.314,2.2.516,4.6c.023.179.023.381.045.584.045.717.09,1.435.112,2.108" transform="translate(526 858.999)" fill="#2d0d08"/>
    <path id="path248" d="M143.209-49.357H120.1a2.129,2.129,0,0,1-2.153-2.174c.022-.9.09-1.907.179-2.872a4.85,4.85,0,0,1,.045-.582c.18-2.087.427-3.837.427-3.837h4.486c4.217,3.343,13.773,6.3,20.322,8.008a.741.741,0,0,1-.2,1.457" transform="translate(526 858.999)" fill="#2d0d08"/>
    <path id="path250" d="M53.106-138.9c-4.694,6.586-4.483,10.315-2.96,13.781s6.146,4.1,6.357,2.732-1.1-6.881-.1-8.931a7.514,7.514,0,0,1,1.576,3.837c.157,2.153,2.259,1.839,2.259-.527s-2.049-8.3-3.905-10.752l-3.222-.14" transform="translate(526 858.999)" fill="#f89184"/>
    <path id="path252" d="M160.794-172.569a6.96,6.96,0,0,1-.92,2.916c-1.144,1.973-4.307,1.167-7.919-1.1-8.545-5.339-19.649-18.752-12.852-22.677,9.039-5.249,22.835,11.192,21.691,20.86" transform="translate(526 858.999)" fill="#ffd895"/>
    <path id="path254" d="M107.166-238.131l.7,9.528-2.942-.281s1.26,7.985-6.165,6.865l2.1,11.628s-7.566,4.2-14.291,0l4.764-31.663s10.087-5.043,15.831,3.923" transform="translate(526 858.999)" fill="#f89184"/>
    <path id="path256" d="M107.166-238.131c12.329-.14,8.546-15.271,1.821-14.431s-3.082,5.885-9.527,1.821-13.029-3.081-13.73.561-6.585,2.941-4.483,8.405-3.222,8.968,1.961,10.648,5.216,8.411,5.216,8.411,2.209-5.4,5.642-6.379c-2.872-4.833-3.012-9.008.28-8.952s1.822,6.64,1.822,6.64H98.55s-1.611-7.075,1.682-7.705a13.586,13.586,0,0,1,6.935.98" transform="translate(526 858.999)" fill="#2d0d08"/>
    <path id="path258" d="M104.714-234.138c0,1.392-.3,2.521-.665,2.521s-.666-1.129-.666-2.521.3-2.521.666-2.521.665,1.129.665,2.521" transform="translate(526 858.999)" fill="#2d0d08"/>
    <path id="path260" d="M103.366-251.3a.273.273,0,0,1-.179-.064.281.281,0,0,1-.037-.395c4.313-5.2,9.1-4.192,10.27-3.263a.282.282,0,0,1,.043.395.277.277,0,0,1-.394.044c-.907-.727-5.4-1.741-9.487,3.181a.282.282,0,0,1-.216.1" transform="translate(526 858.999)" fill="#2d0d08"/>
    <path id="path262" d="M82.213-237.658a.229.229,0,0,1-.043,0,.279.279,0,0,1-.234-.319c.232-1.485-.518-2.485-1.386-3.644a7.936,7.936,0,0,1-2.053-5.781.283.283,0,0,1,.3-.261.279.279,0,0,1,.261.3A7.386,7.386,0,0,0,81-241.961c.905,1.208,1.761,2.348,1.492,4.064a.28.28,0,0,1-.277.239" transform="translate(526 858.999)" fill="#2d0d08"/>
    <path id="path264" d="M83.394-246.571a.268.268,0,0,1-.147-.041.28.28,0,0,1-.092-.385,5.382,5.382,0,0,0,.689-2.477,9,9,0,0,1,1.13-3.847.278.278,0,0,1,.382-.109.279.279,0,0,1,.109.38,8.539,8.539,0,0,0-1.063,3.635,5.9,5.9,0,0,1-.769,2.712.281.281,0,0,1-.239.133" transform="translate(526 858.999)" fill="#2d0d08"/>
    <path id="path266" d="M80.232-147.132c1.722-3.271,2.337-6.333,1.372-6.84s-3.142,1.731-4.863,5-2.337,6.333-1.372,6.841,3.141-1.732,4.863-5" transform="translate(526 858.999)" fill="#f39a00"/>
    <path id="path268" d="M78.675-53.64a3.94,3.94,0,0,0-3.005.627,3.85,3.85,0,0,0-1.795,3.656h-.583a4.352,4.352,0,0,1,2.086-4.105,4.438,4.438,0,0,1,3.252-.761c.023.179.023.381.045.584" transform="translate(526 858.999)" fill="#fff"/>
    <path id="path270" d="M122.6-49.357h-.583a3.472,3.472,0,0,0-.359-3.588A3.793,3.793,0,0,0,118.13-54.4a4.85,4.85,0,0,1,.045-.582,4.43,4.43,0,0,1,3.926,1.7,3.952,3.952,0,0,1,.494,3.925" transform="translate(526 858.999)" fill="#fff"/>
    <path id="path272" d="M77.98-100.117c-.224,1.525-1.233,2.96-3.14,4.464v-.719a6.359,6.359,0,0,0,2.579-3.835c.247-1.751-.74-3.567-2.378-5.72l.022-.876c1.974,2.491,3.231,4.576,2.916,6.685" transform="translate(526 858.999)" fill="#fff"/>
    <path id="path274" d="M115.933-96.214a6.165,6.165,0,0,1-3.97-4.644,6.748,6.748,0,0,1,2.288-6.616c.045.246.067.47.09.694a6.2,6.2,0,0,0-1.84,5.809,5.7,5.7,0,0,0,3.343,4.128c.045.224.067.427.09.628" transform="translate(526 858.999)" fill="#fff"/>
    <path id="path276" d="M159.917-173.42a1.845,1.845,0,0,1,.711,1.864,6.422,6.422,0,0,1-.753,1.9c-.968,1.671-3.381,1.348-6.291-.161a1.975,1.975,0,0,1-.528-3.1,5.165,5.165,0,0,1,3.723-1.516,5.272,5.272,0,0,1,3.139,1.011" transform="translate(526 858.999)" fill="#2d0d08"/>
    <path id="path278" d="M157.492-172.692a3.049,3.049,0,0,1,2.309,1.971c2.325,6.323,1.305,9.6-.756,12.416-2.236,3.056-6.887,2.673-6.8,1.293s2.564-6.48,2.032-8.7a7.5,7.5,0,0,0-2.367,3.4c-.62,2.069-2.6,1.308-2.093-1,.429-1.941,2.819-6.035,4.961-8.473a2.926,2.926,0,0,1,2.711-.913h0" transform="translate(526 858.999)" fill="#f89184"/>
    <path id="path280" d="M234.021-84.833H218.51a.266.266,0,0,1-.267-.267.266.266,0,0,1,.267-.267h15.511a.267.267,0,0,1,.267.267.267.267,0,0,1-.267.267" transform="translate(526 858.999)" fill="#b75230"/>
    <path id="path282" d="M220.489-74.876H207.276a.267.267,0,0,1-.267-.267.268.268,0,0,1,.267-.268h13.213a.268.268,0,0,1,.267.268.267.267,0,0,1-.267.267" transform="translate(526 858.999)" fill="#b75230"/>
    <path id="path284" d="M207.722-64.662h-8.169a.268.268,0,0,1-.268-.267.267.267,0,0,1,.268-.267h8.169a.267.267,0,0,1,.268.267.268.268,0,0,1-.268.267" transform="translate(526 858.999)" fill="#b75230"/>
    <path id="path286" d="M200.318-263.811H142.106a.268.268,0,0,1-.268-.268.268.268,0,0,1,.268-.267h58.212a.267.267,0,0,1,.267.267.267.267,0,0,1-.267.268" transform="translate(526 858.999)" fill="#b75230"/>
    <path id="path288" d="M180.4-255.3H122.191a.266.266,0,0,1-.267-.267.267.267,0,0,1,.267-.267H180.4a.267.267,0,0,1,.267.267.266.266,0,0,1-.267.267" transform="translate(526 858.999)" fill="#b75230"/>
    <path id="path290" d="M168.66-247.471H144.489a.267.267,0,0,1-.268-.267.268.268,0,0,1,.268-.267H168.66a.267.267,0,0,1,.267.267.267.267,0,0,1-.267.267" transform="translate(526 858.999)" fill="#b75230"/>
  </g>
</svg>
