<svg xmlns="http://www.w3.org/2000/svg" width="252.335" height="227.945" viewBox="0 0 252.335 227.945">
  <g id="pic-3" transform="translate(-848.705 -292.187)">
    <path id="path558" d="M471.791-454.572h23.7v-48.064h-23.7v48.064" transform="translate(526 858.999)" fill="#d7c191"/>
    <path id="path560" d="M471.791-454.572H438.378v-48.064h33.413v48.064" transform="translate(526 858.999)" fill="#fff"/>
    <path id="path562" d="M471.791-502.636H438.378v48.064h33.413Zm-.533.533v47H438.911v-47h32.347" transform="translate(526 858.999)" fill="#c5ac75"/>
    <path id="path564" d="M426.642-454.572h75.771v90.906H426.642v-90.906" transform="translate(526 858.999)" fill="#b75230"/>
    <path id="path566" d="M426.642-454.572H408.828v90.906h17.813v-90.906" transform="translate(526 858.999)" fill="#8f3a1e"/>
    <path id="path568" d="M431.971-363.666l15.087-37.308,15.5,16.676,14.567-6.015,3.541,26.647h-48.7" transform="translate(526 858.999)" fill="#8f3a1e"/>
    <path id="path570" d="M462.919-454.572l-.5,17.757-1.767-3.38-.957,3.38-.757-2.472-1.716,2.472-1.564-1.312-.856,3.077-.909-19.523h9.029" transform="translate(526 858.999)" fill="#faebda"/>
    <path id="path572" d="M454.739-363.666l-1.367-23.379-1.857,2.677-.436-.656-1.529,2.131-1.475-2.949-.437.709-1.448-2.621v24.088h8.549" transform="translate(526 858.999)" fill="#faebda"/>
    <path id="path574" d="M418.408-366.051h.008a.3.3,0,0,0,.293-.309l-1.937-85.533a.3.3,0,0,0-.3-.293h-.009a.3.3,0,0,0-.293.309l1.939,85.533a.3.3,0,0,0,.3.293" transform="translate(526 858.999)" fill="#b75230"/>
    <path id="path576" d="M480.288-408.519h42.7v44.853h-42.7v-44.853" transform="translate(526 858.999)" fill="#fcb842"/>
    <path id="path578" d="M480.288-408.519H459.018v44.853h21.271v-44.853" transform="translate(526 858.999)" fill="#ffd895"/>
    <path id="path580" d="M511.352-408.519l-.757,8.784-.581-2.385-.465,1.512-.7-.813-2.037,2.327-.872-9.424h5.411" transform="translate(526 858.999)" fill="#faebda"/>
    <path id="path582" d="M511.352-363.666c.116,0,0-13.361,0-13.361l-2.037,3.531-.669-1.105-1.133,1.845-1.571-2.66-.408,11.751h5.819" transform="translate(526 858.999)" fill="#faebda"/>
    <path id="path584" d="M470.28-364.77h.005a.228.228,0,0,0,.223-.233l-.6-42.191a.24.24,0,0,0-.233-.221.228.228,0,0,0-.223.233l.6,42.189a.228.228,0,0,0,.228.223" transform="translate(526 858.999)" fill="#faebda"/>
    <path id="path586" d="M501.637-363.666l-4.364-18.149L492.5-363.666Z" transform="translate(526 858.999)" fill="#f39a00"/>
    <path id="path588" d="M444.394-493.089H425.162V-476.7h19.232v-16.385" transform="translate(526 858.999)" fill="#fcb842"/>
    <path id="path590" d="M444.394-493.089h9.581V-476.7h-9.581v-16.385" transform="translate(526 858.999)" fill="#ffd895"/>
    <path id="path592" d="M434.778-476.7l1.965-6.629,2.148,6.629Z" transform="translate(526 858.999)" fill="#f39a00"/>
    <path id="path594" d="M449.726-454.572h16.361V-476.7H449.726v22.132" transform="translate(526 858.999)" fill="#d7c191"/>
    <path id="path596" d="M449.726-454.572H413.275V-476.7h36.451v22.132" transform="translate(526 858.999)" fill="#c5ac75"/>
    <path id="path598" d="M426.1-458.68H444.8v-2.18H426.1v2.18" transform="translate(526 858.999)" fill="#faebda"/>
    <path id="path600" d="M460.756-472.783a1.733,1.733,0,0,0,1.733,1.732,1.733,1.733,0,0,0,1.732-1.732,1.733,1.733,0,0,0-1.732-1.733,1.733,1.733,0,0,0-1.733,1.733" transform="translate(526 858.999)" fill="#faebda"/>
    <path id="path602" d="M526.663-500.681l3.329,6.337,1.76-1.344s2.363,5.58,6.641,1.925l3.271,8.228s6.476-.323,9.089-5.661L535.18-509.449s-8.416.789-8.517,8.768" transform="translate(526 858.999)" fill="#f89184"/>
    <path id="path604" d="M526.663-500.681c-7.9,4.8-11.485-6.328-6.876-8.457s4.293,2.523,6.783-2.616,7.067-7.123,8.956-5.083,5.353-.737,6.181,3.571,5.6,4.427,2.971,7.549.015,7.417.015,7.417-3.545-2.559-6.116-1.823c-.089-4.212-1.653-6.924-3.725-5.584s1.472,4.945,1.472,4.945l-1.515.944s-1.779-5.139-4.121-4.236a10.182,10.182,0,0,0-4.024,3.372" transform="translate(526 858.999)" fill="#2d0d08"/>
    <path id="path606" d="M529.8-499.113c.553.887,1.189,1.487,1.423,1.341s-.024-.981-.576-1.868-1.188-1.485-1.421-1.34.023.981.575,1.867" transform="translate(526 858.999)" fill="#2d0d08"/>
    <path id="path608" d="M516.193-508.652a.2.2,0,0,1-.073-.013.219.219,0,0,1-.135-.28c.371-1.059,3.023-3.608,7.837-2a.218.218,0,0,1,.14.277.214.214,0,0,1-.279.14c-4.544-1.505-6.993.912-7.283,1.729a.222.222,0,0,1-.208.149" transform="translate(526 858.999)" fill="#2d0d08"/>
    <path id="path610" d="M542.612-510.225a.216.216,0,0,1-.167-.076,3.855,3.855,0,0,1-.664-3.184,5.527,5.527,0,0,0-.907-4.205.219.219,0,0,1,.052-.307.221.221,0,0,1,.308.051,5.955,5.955,0,0,1,.985,4.5,3.47,3.47,0,0,0,.56,2.856.22.22,0,0,1-.024.312.219.219,0,0,1-.144.053" transform="translate(526 858.999)" fill="#2d0d08"/>
    <path id="path612" d="M538.329-515.425a.23.23,0,0,1-.1-.024,4.438,4.438,0,0,1-1.564-1.424,6.37,6.37,0,0,0-2.113-1.887.221.221,0,0,1-.085-.3.219.219,0,0,1,.3-.087,6.739,6.739,0,0,1,2.248,2,4.048,4.048,0,0,0,1.416,1.3.22.22,0,0,1,.1.3.222.222,0,0,1-.2.121" transform="translate(526 858.999)" fill="#2d0d08"/>
    <path id="path614" d="M541.715-481.992a26.666,26.666,0,0,1-2.593-4.228s5.693-8.229,12.007-8.117a11.621,11.621,0,0,1,2.931,5.187l-12.344,7.159" transform="translate(526 858.999)" fill="#b75230"/>
    <path id="path616" d="M574.688-373.74c-.089,1.925-.16,3.02-.16,3.02h-3.887s-.016-.9-.14-2.525a111.252,111.252,0,0,0-9.732-36.155c-1.113-2.437-2.349-4.928-3.727-7.436L568.769-435.1c.424,1.219.831,2.491,1.2,3.78,5.864,20.241,5.14,48.395,4.717,57.578" transform="translate(526 858.999)" fill="#3e5cbc"/>
    <path id="path618" d="M569.971-431.312c-.371.389-.759.795-1.2,1.183a159.492,159.492,0,0,1-8,20.736,297.717,297.717,0,0,1-20.312,36.349c-.988,1.5-1.553,2.331-1.553,2.331l-3.621-1.36c.476-.759.971-1.589,1.5-2.508,7.843-14.129,18.651-46.664,16.62-61.376a16.7,16.7,0,0,0-.531-2.561s10.933-12.575,16.763-11.092a15.043,15.043,0,0,1,4.027,7.489c.584,3.108-.035,6.905-3.692,10.809" transform="translate(526 858.999)" fill="#5872c5"/>
    <path id="path620" d="M573.663-442.122c-5.988-2.12-13.795,1.8-20.259,6.164a16.69,16.69,0,0,0-.531-2.561s10.933-12.575,16.763-11.092a15.042,15.042,0,0,1,4.027,7.489" transform="translate(526 858.999)" fill="#3e5cbc"/>
    <path id="path622" d="M504.407-439.6h23.336v-22.209H504.407V-439.6" transform="translate(526 858.999)" fill="#fff"/>
    <path id="path624" d="M504.673-439.87h22.8v-21.676h-22.8Zm23.336.533H504.139v-22.743h23.871v22.743" transform="translate(526 858.999)" fill="#b75230"/>
    <path id="path626" d="M504.407-439.6h-5.872v-22.209h5.872V-439.6" transform="translate(526 858.999)" fill="#fff"/>
    <path id="path628" d="M498.8-439.87h5.336v-21.676H498.8Zm5.871.533h-6.405v-22.743h6.405v22.743" transform="translate(526 858.999)" fill="#b75230"/>
    <path id="path630" d="M545.461-430.134c6.963-25.477-13.5-47.913,0-58.961S571.7-470.719,570.576-450.2a137.625,137.625,0,0,0-25.115,20.067" transform="translate(526 858.999)" fill="#8f3a1e"/>
    <path id="path632" d="M558.9-470.858a8.044,8.044,0,0,1-1.565,1.021.221.221,0,0,1-.268-.053.222.222,0,0,1-.009-.273,12.2,12.2,0,0,0,1.727-9.045.224.224,0,0,1,.16-.269.221.221,0,0,1,.267.161,12.773,12.773,0,0,1-1.289,8.633c3.865-2.535,3.916-7.579,3.917-7.633a.216.216,0,0,1,.22-.219.219.219,0,0,1,.22.22c0,.053-.055,4.684-3.379,7.457" transform="translate(526 858.999)" fill="#fff"/>
    <path id="path634" d="M546.589-460.818c-4.255-13.876-2.977-26.752,4.164-27.348,6.707-.56,10.913,16.724,2.727,33.744a9.586,9.586,0,0,1-5.068,4.693,204.5,204.5,0,0,1-26.2,8.519l-.508-3.381s10.543-4.127,24.887-16.227" transform="translate(526 858.999)" fill="#b75230"/>
    <path id="path636" d="M522.211-441.21c-3.424,2.621-5.863,3.651-11.357,1.579-.445-2.2,5.1-5,8.483-3.58-1.311-1.969-3.935-1.139-3.975-2.536-.043-1.487,3.889-.905,6.341,1.156l.508,3.381" transform="translate(526 858.999)" fill="#f89184"/>
    <path id="path638" d="M540.457-373.051c-.988,1.5-1.553,2.331-1.553,2.331l-3.621-1.36c.476-.759.971-1.589,1.5-2.507l3.673,1.536" transform="translate(526 858.999)" fill="#f89184"/>
    <path id="path640" d="M574.688-373.74c-.089,1.925-.16,3.02-.16,3.02h-3.887s-.016-.9-.14-2.525l4.187-.495" transform="translate(526 858.999)" fill="#f89184"/>
    <path id="path642" d="M575.04-365.52a1.866,1.866,0,0,1-1.853,1.855H558.42a.64.64,0,0,1-.176-1.253c4.7-1.291,11.179-3.445,12.4-5.795h3.887a19.04,19.04,0,0,1,.495,3.8v.495c.017.317.017.617.017.9" transform="translate(526 858.999)" fill="#2d0d08"/>
    <path id="path644" d="M539.151-366.827a4.227,4.227,0,0,1-.017.459c0,.336-.019.707-.053,1.06a1.758,1.758,0,0,1-1.749,1.643H521.364a.851.851,0,0,1-.264-1.66c4.857-1.5,11.357-3.921,14.183-6.748l3.621,1.36a26.7,26.7,0,0,1,.247,3.887" transform="translate(526 858.999)" fill="#2d0d08"/>
    <path id="path646" d="M539.151-366.827a4.227,4.227,0,0,1-.017.459,2.154,2.154,0,0,0-1.961.159,2.3,2.3,0,0,0-.865,2.544h-.459a2.667,2.667,0,0,1,1.095-2.915,2.517,2.517,0,0,1,2.208-.247" transform="translate(526 858.999)" fill="#fff"/>
    <path id="path648" d="M575.023-366.915v.495a2.052,2.052,0,0,0-2.172.052,2.285,2.285,0,0,0-.813,2.7h-.459a2.713,2.713,0,0,1,1.043-3.091,2.526,2.526,0,0,1,2.4-.159" transform="translate(526 858.999)" fill="#fff"/>
    <path id="path650" d="M325.566-340.718c0-1.023,21.1-1.851,47.139-1.851s47.139.828,47.139,1.851-21.1,1.851-47.139,1.851-47.139-.828-47.139-1.851" transform="translate(526 858.999)" fill="#d7c191"/>
    <path id="path652" d="M378.855-485.038h32.039v-13.177H378.855v13.177" transform="translate(526 858.999)" fill="#d7c191"/>
    <path id="path654" d="M378.855-485.038h-4.5v-13.177h4.5v13.177" transform="translate(526 858.999)" fill="#c5ac75"/>
    <path id="path656" d="M393.967-485.038h1.815v-13.177h-1.815v13.177" transform="translate(526 858.999)" fill="#c5ac75"/>
    <path id="path658" d="M378.855-492.608v1.964h32.039v-1.964H378.855" transform="translate(526 858.999)" fill="#c5ac75"/>
    <path id="path660" d="M392.946-498.215H409.3v-13.177H392.946v13.177" transform="translate(526 858.999)" fill="#b75230"/>
    <path id="path662" d="M392.946-498.215h-2.3v-13.177h2.3v13.177" transform="translate(526 858.999)" fill="#8f3a1e"/>
    <path id="path664" d="M400.056-498.215h2.137v-13.177h-2.137v13.177" transform="translate(526 858.999)" fill="#8f3a1e"/>
    <path id="path666" d="M392.946-505.785v1.964H409.3v-1.964H392.946" transform="translate(526 858.999)" fill="#8f3a1e"/>
    <path id="path668" d="M352.076-422.428c-1.084,8.265,1.428,12.6,5.728,17.075.1,6.911,3.621,16.595,5.112,18.732-3.388,5.389-20.192,20.567-28.728,23.548l1.355,3.555s23.58-7.973,38.893-19.587c6.64-12.968,5.375-34.84,5.284-41.019a51.926,51.926,0,0,0-27.644-2.3" transform="translate(526 858.999)" fill="#3e5cbc"/>
    <path id="path670" d="M336.9-362.4a.265.265,0,0,1-.252-.184.266.266,0,0,1,.171-.335c10.933-3.523,26.979-15.091,32.392-23.355a4.757,4.757,0,0,0,.116-4.805c-3.405-6.7-4.091-17-4.1-17.1a.264.264,0,0,1,.248-.281c.148-.041.272.1.28.248.008.1.688,10.292,4.041,16.9a5.349,5.349,0,0,1-.144,5.336c-5.465,8.343-21.649,20.017-32.672,23.569a.256.256,0,0,1-.083.013" transform="translate(526 858.999)" fill="#5872c5"/>
    <path id="path672" d="M392.864-391.86c-.4,15.648-24.521,37.495-24.521,37.495l-3.8-3.419c6.921-10.169,12.739-29.913,12.739-29.913a109.56,109.56,0,0,0-16.391-18.747c-4.161-1.827-11.847-8.387-10.615-16.921a13.531,13.531,0,0,1,.723-2.867c9.744-5.817,24.8-5.944,24.8-5.944s.552.764,1.465,2.123c3.864,5.86,14.288,22.844,15.6,38.193" transform="translate(526 858.999)" fill="#5872c5"/>
    <path id="path674" d="M368.879-359.014a.267.267,0,0,1-.173-.065.267.267,0,0,1-.028-.375c.1-.113,9.995-11.623,14.921-23.765a13.011,13.011,0,0,0-4.58-15.3c-8.364-6.165-17.828-18.192-18.535-26.872a.265.265,0,0,1,.243-.285.263.263,0,0,1,.287.243c.695,8.531,10.049,20.391,18.32,26.488a13.537,13.537,0,0,1,4.756,15.923c-4.959,12.225-14.909,23.8-15.009,23.915a.269.269,0,0,1-.2.092" transform="translate(526 858.999)" fill="#3e5cbc"/>
    <path id="path676" d="M364.543-357.788s-2.421,4.108-3.969,7.575a4.775,4.775,0,0,0,1.037,5.4l3.272,3.145a5.363,5.363,0,0,0,3.719,1.5H382.9a.959.959,0,0,0,.456-1.805,45.63,45.63,0,0,0-10.077-3.785c-4.675-3.929-4.665-6.391-4.936-8.6l-3.795-3.428" transform="translate(526 858.999)" fill="#2d0d08"/>
    <path id="path678" d="M334.189-363.074l-6.113,1.668a3.232,3.232,0,0,0-2.239,4.113,58.057,58.057,0,0,0,9.971,17.921,1.074,1.074,0,0,0,1.867-.961c-2.861-10.6-3.448-13.535-2.131-19.187l-1.355-3.555" transform="translate(526 858.999)" fill="#2d0d08"/>
    <path id="path680" d="M377.26-430.054c-6.56,3.417-18.131,6.221-26.984,6.688a13.531,13.531,0,0,1,.723-2.867c9.744-5.817,24.8-5.944,24.8-5.944s.552.764,1.465,2.123" transform="translate(526 858.999)" fill="#3e5cbc"/>
    <path id="path682" d="M367.174-423.01c5.365-.368,7.939-2.265,7.939-2.265s7.183,7.86,1.763,11.791-9.7-9.525-9.7-9.525" transform="translate(526 858.999)" fill="#3e5cbc"/>
    <path id="path684" d="M350.591-506.623l4.323,7.779-2.6.915s4.192,6.256-2.523,8.215l6.327,9.007s-4.749,6.515-12.079,5.595l-8.367-28.629s6.552-8.211,14.916-2.88" transform="translate(526 858.999)" fill="#f89184"/>
    <path id="path686" d="M350.591-506.623c10.367-4.944,1.247-16.253-4.108-12.911s-.3,6.18-7.34,5.268-12.22,2.495-11.387,5.848-4.413,5.064-.5,8.861.787,8.84,5.825,8.232,7.7,5.068,7.7,5.068-.245-5.428,2.272-7.6c-4.32-2.961-6.072-6.435-3.267-7.677s4.139,4.9,4.139,4.9l2.013-.932s-4.132-5.351-1.6-7.172a12.655,12.655,0,0,1,6.245-1.885" transform="translate(526 858.999)" fill="#2d0d08"/>
    <path id="path688" d="M350.083-502.288c.544,1.177.735,2.248.424,2.392s-1.005-.693-1.549-1.871-.736-2.249-.425-2.393,1.005.695,1.551,1.872" transform="translate(526 858.999)" fill="#2d0d08"/>
    <path id="path690" d="M342.116-516.236a.24.24,0,0,1-.068-.009.266.266,0,0,1-.188-.324c1.612-6.087,6.063-7.105,7.409-6.779a.266.266,0,0,1,.195.321.263.263,0,0,1-.321.195c-1.049-.255-5.243.64-6.769,6.4a.268.268,0,0,1-.257.2" transform="translate(526 858.999)" fill="#2d0d08"/>
    <path id="path692" d="M329.575-496.427a.268.268,0,0,1-.256-.193c-.384-1.343-1.408-1.895-2.595-2.533a7.41,7.41,0,0,1-4-4.085.268.268,0,0,1,.152-.345.269.269,0,0,1,.344.152,6.862,6.862,0,0,0,3.757,3.811c1.239.668,2.408,1.3,2.853,2.856a.266.266,0,0,1-.183.328.27.27,0,0,1-.072.011" transform="translate(526 858.999)" fill="#2d0d08"/>
    <path id="path694" d="M327.085-504.424h-.031a.265.265,0,0,1-.232-.295,5.031,5.031,0,0,0-.388-2.363,8.354,8.354,0,0,1-.551-3.7.248.248,0,0,1,.284-.245.266.266,0,0,1,.245.284,7.941,7.941,0,0,0,.524,3.487,5.522,5.522,0,0,1,.412,2.593.265.265,0,0,1-.264.236" transform="translate(526 858.999)" fill="#2d0d08"/>
    <path id="path696" d="M345.274-498.617c2.348,3.631,7.8,1.395,7.8,1.395s3.54,9.273,7.832,12.381l-.335.541s-13.205.344-16.343-6.993a15.522,15.522,0,0,0-.325-5.432l1.369-1.892" transform="translate(526 858.999)" fill="#2d0d08"/>
    <path id="path698" d="M350.992-426.223c11.517-.543,24.8-5.963,24.8-5.963s-.009-50.8-20.467-49.656-19.375,25.805-4.332,55.619" transform="translate(526 858.999)" fill="#ffd895"/>
    <path id="path700" d="M376.036-444.788h44.177v-40.249H376.036v40.249" transform="translate(526 858.999)" fill="#fff"/>
    <path id="path702" d="M376.3-445.055h43.643v-39.716H376.3Zm44.176.533H375.77V-485.3H420.48v40.783" transform="translate(526 858.999)" fill="#c5ac75"/>
    <path id="path704" d="M376.036-444.788h-6.208v-40.249h6.208v40.249" transform="translate(526 858.999)" fill="#fff"/>
    <path id="path706" d="M370.1-445.055h5.675v-39.716H370.1Zm6.209.533h-6.743V-485.3H376.3v40.783" transform="translate(526 858.999)" fill="#c5ac75"/>
    <path id="path708" d="M397.178-444.788h1.9v-40.249h-1.9v40.249" transform="translate(526 858.999)" fill="#fff"/>
    <path id="path710" d="M397.444-445.055h1.361v-39.716h-1.361Zm1.9.533h-2.429V-485.3h2.429v40.783" transform="translate(526 858.999)" fill="#c5ac75"/>
    <path id="path712" d="M376.036-465.86v1.895h44.177v-1.895H376.036" transform="translate(526 858.999)" fill="#fff"/>
    <path id="path714" d="M376.3-464.232h43.643v-1.361H376.3Zm44.176.535H375.77v-2.431H420.48v2.431" transform="translate(526 858.999)" fill="#c5ac75"/>
    <path id="path716" d="M351.612-453.186a9.686,9.686,0,0,0,2.245-.1.266.266,0,0,0,.224-.241.27.27,0,0,0-.183-.273,14.66,14.66,0,0,1-8.019-7.631.272.272,0,0,0-.344-.151.265.265,0,0,0-.148.345,15.354,15.354,0,0,0,7.3,7.535c-5.552.227-9.132-4.665-9.169-4.717a.263.263,0,0,0-.371-.06.265.265,0,0,0-.06.369c.037.052,3.332,4.539,8.521,4.92" transform="translate(526 858.999)" fill="#fff"/>
    <path id="path718" d="M396.24-442.027c-13.948,8.343-31.251,6.347-31.251,6.347a68.7,68.7,0,0,1-9.809-12.08c-.445-.657-.871-1.316-1.273-1.995-.616-1-1.211-2.017-1.784-3.037-.4-.743-.807-1.507-1.188-2.271-5.075-9.957-7.007-19.681-1.339-22.505,5.372-2.675,10.425.659,14.331,7.728.34.595.68,1.232,1,1.911.595,1.232,1.168,2.591,1.7,4.013.255.679.509,1.38.743,2.1a83.461,83.461,0,0,1,3.419,15.435c7.515,3.227,23.035,0,23.035,0l2.42,4.353" transform="translate(526 858.999)" fill="#fcb842"/>
    <path id="path720" d="M396.235-442.036c4.268-2.095,8.311-1.568,12.131-6.42a.578.578,0,0,0,.051-.64.577.577,0,0,0-.573-.291c-2.055.244-6.028.86-8.015,2.115-1.159-2.937,1.643-3.9.979-5.476-.752-1.785-2.1.563-2.96,1.309-3.308,2.88-1.1,4.572-4.032,5.056l2.42,4.347" transform="translate(526 858.999)" fill="#f89184"/>
    <path id="path722" d="M364.926-467.93c-4.565,3.631-10.764,10.68-12.8,15.137-.4-.743-.807-1.507-1.188-2.271a59.629,59.629,0,0,1,12.992-14.777c.34.595.68,1.232,1,1.911" transform="translate(526 858.999)" fill="#fff"/>
    <path id="path724" d="M367.367-461.815c-4.225,3.376-9.787,9.639-12.187,14.055-.445-.657-.871-1.316-1.273-1.995a59.983,59.983,0,0,1,12.717-14.161c.255.679.509,1.38.743,2.1" transform="translate(526 858.999)" fill="#fff"/>
    <path id="path726" d="M357.606-541.111H478.859v-4.061H357.606Zm121.52.535H357.339a.267.267,0,0,1-.267-.267v-4.6a.267.267,0,0,1,.267-.267H479.126a.267.267,0,0,1,.267.267v4.6a.267.267,0,0,1-.267.267" transform="translate(526 858.999)" fill="#b75230"/>
    <path id="path728" d="M376.87-545.705h14.66v-20.572H376.87Zm14.927.533H376.6a.267.267,0,0,1-.267-.267v-21.107a.267.267,0,0,1,.267-.267H391.8a.267.267,0,0,1,.267.267v21.107a.267.267,0,0,1-.267.267" transform="translate(526 858.999)" fill="#b75230"/>
    <path id="path730" d="M392.063-545.705h25.109V-557.6H392.063Zm25.376.533H391.8a.267.267,0,0,1-.267-.267v-12.425a.267.267,0,0,1,.267-.267h25.643a.267.267,0,0,1,.267.267v12.425a.267.267,0,0,1-.267.267" transform="translate(526 858.999)" fill="#b75230"/>
    <path id="path732" d="M431.767-545.705h21.856v-16.828H431.767Zm22.123.533H431.5a.267.267,0,0,1-.267-.267V-562.8a.267.267,0,0,1,.267-.267H453.89a.267.267,0,0,1,.267.267v17.361a.267.267,0,0,1-.267.267" transform="translate(526 858.999)" fill="#b75230"/>
  </g>
</svg>
