<svg xmlns="http://www.w3.org/2000/svg" width="33.828" height="24.869" viewBox="0 0 33.828 24.869">
  <g id="pickup-truck-bobg" transform="translate(0 -6.002)">
    <g id="effect">
      <g id="Group_3058" data-name="Group 3058">
        <path id="Path_19675" data-name="Path 19675" d="M3.5,23.121h1v2h-1Z" fill="#df814e" opacity="0.25"/>
      </g>
      <g id="Group_3059" data-name="Group 3059">
        <path id="Path_19676" data-name="Path 19676" d="M3.5,28.871h1v2h-1Z" fill="#df814e" opacity="0.25"/>
      </g>
      <g id="Group_3060" data-name="Group 3060">
        <path id="Path_19677" data-name="Path 19677" d="M0,26.371H2v1H0Z" fill="#df814e" opacity="0.25"/>
      </g>
      <path id="Path_19678" data-name="Path 19678" d="M32.328,21.56a1.5,1.5,0,1,1,1.5-1.5A1.5,1.5,0,0,1,32.328,21.56Zm0-2a.5.5,0,1,0,.5.5A.5.5,0,0,0,32.328,19.56Z" fill="#df814e" opacity="0.25"/>
    </g>
    <g id="color">
      <path id="Path_19680" data-name="Path 19680" d="M25.25,20.3h-2.5v6.95h6.5V24.3A4,4,0,0,0,25.25,20.3Z" fill="#df814e"/>
      <circle id="Ellipse_174" data-name="Ellipse 174" cx="1.75" cy="1.75" r="1.75" transform="translate(11.75 25.75)" fill="#f3f3f1"/>
      <circle id="Ellipse_175" data-name="Ellipse 175" cx="1.75" cy="1.75" r="1.75" transform="translate(23.75 25.75)" fill="#f3f3f1"/>
      <path id="Path_19681" data-name="Path 19681" d="M17.771,12.033l-.7-3.157a1.918,1.918,0,0,0-1.443-1.457l-2.7-.62a1.908,1.908,0,0,0-.857,0l-2.707.62A1.92,1.92,0,0,0,7.926,8.877l-.7,3.156a7.093,7.093,0,0,0,1.74,4.778,4.712,4.712,0,0,0,3.536,1.439,4.727,4.727,0,0,0,3.536-1.439,6.9,6.9,0,0,0,1.729-4.633c0-.034,0-.145,0-.145Z" fill="#df814e"/>
    </g>
    <g id="shadow">
      <path id="Path_19682" data-name="Path 19682" d="M10.5,16.75H8.25v10.5H10.5V16.75Z" fill="#d5dbe1"/>
      <path id="Path_19683" data-name="Path 19683" d="M22.75,20.3v6.95H25V20.3Z" fill="#bb6131"/>
      <path id="Path_19684" data-name="Path 19684" d="M14,27.5a1.738,1.738,0,0,1,.625-1.33,1.75,1.75,0,1,0,0,2.66A1.738,1.738,0,0,1,14,27.5Z" fill="#d5dbe1"/>
      <path id="Path_19685" data-name="Path 19685" d="M26,27.5a1.738,1.738,0,0,1,.625-1.33,1.75,1.75,0,1,0,0,2.66A1.738,1.738,0,0,1,26,27.5Z" fill="#d5dbe1"/>
      <path id="Path_19686" data-name="Path 19686" d="M11.219,16.811a7.088,7.088,0,0,1-1.74-4.778l.7-3.156A1.918,1.918,0,0,1,11.62,7.42l2.01-.461-.695-.16a1.908,1.908,0,0,0-.857,0l-2.709.62A1.92,1.92,0,0,0,7.926,8.877l-.7,3.156a7.093,7.093,0,0,0,1.74,4.778,4.712,4.712,0,0,0,3.536,1.439,5.536,5.536,0,0,0,1.124-.114,4.562,4.562,0,0,1-2.41-1.325Z" fill="#bb6131"/>
    </g>
    <g id="reg">
      <path id="Path_19687" data-name="Path 19687" d="M10.344,14.2a.99.99,0,1,1,.989-.99A.99.99,0,0,1,10.344,14.2Z"/>
      <path id="Path_19688" data-name="Path 19688" d="M14.682,14.2a.99.99,0,1,1,.989-.99A.991.991,0,0,1,14.682,14.2Z"/>
      <path id="Path_19689" data-name="Path 19689" d="M12.506,17.079h0a2.671,2.671,0,0,1-1.9-.79l-.529-.531L11.135,14.7l.53.531a1.178,1.178,0,0,0,.841.35h0a1.186,1.186,0,0,0,.843-.35l.529-.531,1.062,1.06-.53.53a2.676,2.676,0,0,1-1.9.79Z"/>
      <path id="Path_19690" data-name="Path 19690" d="M7.2,12.611l-.9-1.2a10.825,10.825,0,0,1,6.2-1.589A10.749,10.749,0,0,1,18.7,11.41l-.9,1.2a9.562,9.562,0,0,0-5.294-1.29A9.427,9.427,0,0,0,7.2,12.611Z"/>
      <path id="Path_19691" data-name="Path 19691" d="M12.506,19a5.5,5.5,0,0,1-4.077-1.67,7.766,7.766,0,0,1-1.949-5.3.83.83,0,0,1,.021-.181l.692-3.137A2.682,2.682,0,0,1,9.2,6.689l2.708-.621a2.713,2.713,0,0,1,1.193,0l2.7.62a2.683,2.683,0,0,1,2.007,2.026l.7,3.157a.731.731,0,0,1,.018.162v.145a7.709,7.709,0,0,1-1.938,5.153A5.513,5.513,0,0,1,12.506,19ZM7.98,12.111a6.383,6.383,0,0,0,1.53,4.18A3.984,3.984,0,0,0,12.5,17.5a3.992,3.992,0,0,0,3-1.21,6.159,6.159,0,0,0,1.519-4.112v-.063l-.679-3.077a1.171,1.171,0,0,0-.877-.888l-2.7-.62a1.16,1.16,0,0,0-.521,0l-2.708.62a1.174,1.174,0,0,0-.879.888Z"/>
      <path id="Path_19692" data-name="Path 19692" d="M12.5,28H8.25a.75.75,0,0,1-.75-.75V19.31H9V26.5h3.5Z"/>
      <path id="Path_19693" data-name="Path 19693" d="M22.75,28H14.48V26.5H22v-9H18.94V16h3.81a.75.75,0,0,1,.75.75v10.5A.75.75,0,0,1,22.75,28Z"/>
      <path id="Path_19694" data-name="Path 19694" d="M29.25,28H26.479V26.5H28.5V24.3a3.254,3.254,0,0,0-3.25-3.25H23.5V26.5h1V28H22.75a.75.75,0,0,1-.75-.75V20.3a.75.75,0,0,1,.75-.75h2.5A4.756,4.756,0,0,1,30,24.3v2.95A.75.75,0,0,1,29.25,28Z"/>
      <path id="Path_19695" data-name="Path 19695" d="M13.5,30A2.5,2.5,0,1,1,16,27.5,2.5,2.5,0,0,1,13.5,30Zm0-3.5a1,1,0,1,0,1,1A1,1,0,0,0,13.5,26.5Z"/>
      <path id="Path_19696" data-name="Path 19696" d="M25.5,30A2.5,2.5,0,1,1,28,27.5,2.5,2.5,0,0,1,25.5,30Zm0-3.5a1,1,0,1,0,1,1A1,1,0,0,0,25.5,26.5Z"/>
    </g>
  </g>
</svg>
