<svg xmlns="http://www.w3.org/2000/svg" width="31.42" height="35.416" viewBox="0 0 31.42 35.416">
  <g id="pie-chart_hp" transform="translate(-2.29)">
    <g id="Group_25" data-name="Group 25">
      <path id="Path_52" data-name="Path 52" d="M27.623,4.167c-6.917,0-11.667-3.583-15-3.583S2.29,2.5,2.29,17.833s9.417,17.583,13.083,17.583C32.54,35.417,39.873,4.167,27.623,4.167Z" fill="#efefef"/>
    </g>
    <g id="Group_26" data-name="Group 26">
      <path id="Path_53" data-name="Path 53" d="M27.25,8.75v18.5a2,2,0,0,1-2,2H10.75a2,2,0,0,1-2-2V8.75a2,2,0,0,1,2-2h14.5A2,2,0,0,1,27.25,8.75Z" fill="#f3f3f1"/>
    </g>
    <g id="Group_27" data-name="Group 27">
      <circle id="Ellipse_2" data-name="Ellipse 2" cx="4.25" cy="4.25" r="4.25" transform="translate(11.75 14.75)" fill="#f7a45d"/>
    </g>
    <g id="Group_28" data-name="Group 28">
      <path id="Path_54" data-name="Path 54" d="M11,27.25V8.75a2,2,0,0,1,2-2H10.75a2,2,0,0,0-2,2v18.5a2,2,0,0,0,2,2H13A2,2,0,0,1,11,27.25Z" fill="#d5dbe1"/>
    </g>
    <g id="Group_29" data-name="Group 29">
      <path id="Path_55" data-name="Path 55" d="M14,19a4.238,4.238,0,0,1,3.125-4.08,4.251,4.251,0,1,0,0,8.16A4.238,4.238,0,0,1,14,19Z" fill="#dd7b26"/>
    </g>
    <g id="Group_30" data-name="Group 30">
      <path id="Path_56" data-name="Path 56" d="M22.75,16.75h1.5v1.5h-1.5Z"/>
    </g>
    <g id="Group_31" data-name="Group 31">
      <path id="Path_57" data-name="Path 57" d="M22.75,14h1.5v1.5h-1.5Z"/>
    </g>
    <g id="Group_32" data-name="Group 32">
      <path id="Path_58" data-name="Path 58" d="M22.75,19.75h1.5v1.5h-1.5Z"/>
    </g>
    <g id="Group_33" data-name="Group 33">
      <path id="Path_59" data-name="Path 59" d="M22.75,22.5h1.5V24h-1.5Z"/>
    </g>
    <g id="Group_34" data-name="Group 34">
      <path id="Path_60" data-name="Path 60" d="M11.75,25.75h12.5v1.5H11.75Z"/>
    </g>
    <g id="Group_35" data-name="Group 35">
      <path id="Path_61" data-name="Path 61" d="M16,24a5,5,0,1,1,5-5A5.006,5.006,0,0,1,16,24Zm0-8.5A3.5,3.5,0,1,0,19.5,19,3.5,3.5,0,0,0,16,15.5Z"/>
    </g>
    <g id="Group_36" data-name="Group 36">
      <path id="Path_62" data-name="Path 62" d="M13.848,22.212l-1.061-1.061,2.462-2.462V14.75h1.5V19a.747.747,0,0,1-.22.53Z"/>
    </g>
    <g id="Group_37" data-name="Group 37">
      <path id="Path_63" data-name="Path 63" d="M25.25,30H10.75A2.752,2.752,0,0,1,8,27.25V8.75A2.752,2.752,0,0,1,10.75,6h14.5A2.752,2.752,0,0,1,28,8.75v18.5A2.752,2.752,0,0,1,25.25,30ZM10.75,7.5A1.252,1.252,0,0,0,9.5,8.75v18.5a1.252,1.252,0,0,0,1.25,1.25h14.5a1.252,1.252,0,0,0,1.25-1.25V8.75A1.252,1.252,0,0,0,25.25,7.5Z"/>
    </g>
    <g id="Group_38" data-name="Group 38">
      <path id="Path_64" data-name="Path 64" d="M10.484,0h1V2h-1Z" fill="#a4afc1"/>
    </g>
    <g id="Group_39" data-name="Group 39">
      <path id="Path_65" data-name="Path 65" d="M6.984,3h2V4h-2Z" fill="#a4afc1"/>
    </g>
    <g id="Group_40" data-name="Group 40">
      <path id="Path_66" data-name="Path 66" d="M12.734,3h2V4h-2Z" fill="#a4afc1"/>
    </g>
    <g id="Group_41" data-name="Group 41">
      <path id="Path_67" data-name="Path 67" d="M30.98,27.875a1.5,1.5,0,1,1,1.5-1.5A1.5,1.5,0,0,1,30.98,27.875Zm0-2a.5.5,0,1,0,.5.5A.5.5,0,0,0,30.98,25.875Z" fill="#a4afc1"/>
    </g>
  </g>
</svg>
