<?xml version="1.0" encoding="UTF-8"?>
<svg id="Layer_2" data-name="Layer 2" xmlns="http://www.w3.org/2000/svg" viewBox="0 0 125.68 88.91">
  <defs>
    <style>
      .cls-1 {
        fill: #93746a;
      }

      .cls-1, .cls-2 {
        stroke-width: 0px;
      }

      .cls-2 {
        fill: #694b40;
      }
    </style>
  </defs>
  <g id="Layer_1-2" data-name="Layer 1">
    <g>
      <g>
        <path class="cls-2" d="m87.42,53.66c-.9.78-1.86,1.47-2.94,1.97-1.07.49-2.19.83-3.35,1.13.04.14.06.23.09.33.22.72.64,1.34,1.07,1.95.25.34.47.69.63,1.08.17.42.17.82-.03,1.24-.26.54-.68.94-1.1,1.34-.34.33-.7.66-1.07.96-.18.15-.38.28-.59.37-.37.16-.69-.05-.71-.44-.02-.29-.18-.52-.31-.75-.42-.79-.76-1.63-1.12-2.45-.49-1.13-.83-2.3-1.11-3.5-.07-.28-.2-.44-.49-.55-1.18-.48-2.2-1.21-3.02-2.19-.24-.29-.43-.62-.65-.93-.05-.07-.09-.13-.16-.24-.08.1-.14.17-.19.25-.97,1.56-2.29,2.76-3.88,3.65-1.07.6-2.23.91-3.46.89-.98-.02-1.9-.25-2.78-.67-1.35-.66-2.42-1.65-3.32-2.84-1.06-1.4-1.93-2.91-2.54-4.56-.34-.93-.72-1.85-1.01-2.79-.33-1.06-.61-2.14-.85-3.23-.28-1.23-.5-2.48-.74-3.73-.04-.23-.09-.45-.15-.73-.14.1-.22.17-.31.23-.17.12-.33.24-.5.35-.13.08-.27.13-.39,0-.12-.12-.06-.28.02-.4.19-.27.37-.54.59-.78.54-.59.42-.45.35-1.08-.35-2.78-.68-5.56-.87-8.35-.01-.22-.03-.45-.03-.67-.02-2.27.03-4.54.31-6.79.22-1.8.71-3.52,1.55-5.14.31-.61.63-1.21.98-1.8.41-.68.96-1.24,1.6-1.72.41-.31.84-.58,1.28-.84.47-.28.99-.44,1.53-.51.65-.09,1.26.05,1.83.36.6.33,1.08.8,1.44,1.38.83,1.32,1.28,2.76,1.26,4.32,0,.75.1,1.48.21,2.22.2,1.34.32,2.68.12,4.03-.12.78-.27,1.55-.44,2.31-.07.31-.23.61-.35.91-.03.08-.07.16-.13.31.12-.07.18-.1.22-.14,1.01-1.04,2.01-2.09,3.03-3.11,1.07-1.08,2.16-2.14,3.24-3.21.11-.11.27-.19.42-.24.46-.15.91.25.8.73-.04.17-.13.35-.25.48-.35.39-.71.76-1.08,1.13-.6.61-1.22,1.21-1.82,1.81-.04.04-.08.09-.12.13.02.02.03.05.04.05.88-.12,1.52.29,2.05.93.53.64.76,1.41.95,2.2.18.75.22,1.51.25,2.28.01.33.04.65.06.98,0,.1,0,.21-.03.3-.03.08-.11.19-.19.21-.08.02-.21-.04-.25-.11-.08-.11-.15-.26-.16-.39-.06-.96-.36-1.86-.72-2.74-.21-.52-.45-1.03-.86-1.43-.28-.28-.59-.53-.9-.78-.16-.14-.36-.25-.5-.41-.13-.14-.2-.33-.32-.53-.23.22-.47.45-.71.68-1.43,1.38-2.86,2.76-4.29,4.15-.69.67-1.36,1.35-2.04,2.03-.78.77-1.56,1.53-2.34,2.28-.15.14-.2.29-.16.49.17.93.32,1.87.51,2.8.28,1.39.56,2.78.89,4.17.46,1.93,1.08,3.81,1.86,5.64.47,1.11,1.07,2.13,1.84,3.06.31.37.65.71,1.08.93.57.29,1.13.31,1.71.06.83-.35,1.56-.84,2.25-1.41,1-.82,1.83-1.8,2.67-2.78.28-.33.63-.6.95-.9.04-.04.1-.07.15-.1.67-.37,1.31-.16,1.61.55.08.2.14.41.18.62.14.83.6,1.46,1.23,1.99.17.14.36.26.63.28-.02-.23-.03-.44-.05-.65-.3-2.47-.29-4.93,0-7.4.19-1.58.54-3.12,1.04-4.63.6-1.82,1.43-3.54,2.5-5.14.68-1.02,1.45-1.97,2.42-2.75.92-.74,1.92-1.36,3.05-1.73,1.48-.48,2.99-.64,4.53-.3.98.22,1.82.71,2.58,1.35,1.31,1.1,2.06,2.52,2.42,4.16.51,2.27.48,4.54.08,6.82-.34,1.96-.87,3.87-1.53,5.74-.48,1.34-1.12,2.61-1.85,3.83-.25.42-.53.82-.79,1.24-.09.14-.16.31-.18.47-.16,1.32-.25,2.64-.29,3.97-.02.65.07,1.29.3,1.89.18.48.42.93.78,1.31.49.52.99.42,1.43.13.36-.24.64-.55.85-.94.48-.89.76-1.83.76-2.84,0-.57,0-1.14.01-1.72,0-.96.01-1.92.14-2.88.03-.21-.03-.34-.22-.45-.21-.12-.4-.26-.66-.28-.24-.02-.45-.27-.46-.54-.01-.22,0-.45.04-.67.26-1.09.66-2.13,1.18-3.11.22-.41.49-.8.77-1.18.18-.24.31-.5.37-.79.24-1.07.5-2.13.73-3.2.34-1.54,1.04-2.9,2.02-4.12.52-.65,1.05-1.31,1.62-1.92,1.34-1.43,3.01-2.01,4.95-1.84,1.06.09,2.04.41,2.93,1,1.03.68,1.88,1.54,2.43,2.66.9,1.83,1.29,3.75.97,5.8-.14.85-.31,1.69-.64,2.49-.3.72-.7,1.39-1.14,2.03-.41.6-.84,1.19-1.29,1.75-.48.6-1.04,1.12-1.69,1.54-.86.57-1.67,1.22-2.61,1.65-1.12.51-2.3.77-3.54.67-.34-.03-.33-.03-.39.3-.25,1.29-.48,2.59-.76,3.88-.3,1.38-.9,2.62-1.77,3.73-.52.67-1.12,1.24-1.83,1.7-.84.54-1.75.87-2.76.86-.27,0-.28.02-.39.29-.24.59-.25,1.2-.17,1.81.22,1.62.87,3.03,2,4.21.09.1.19.19.29.27.24.21.52.32.84.32.53,0,1.04-.11,1.53-.29,1.22-.44,2.22-1.19,3.09-2.14,1.02-1.12,1.93-2.32,2.68-3.65.7-1.24,1.42-2.46,2.07-3.72.6-1.16,1.14-2.35,1.68-3.54.7-1.53,1.43-3.05,2.2-4.55.36-.69.69-1.39,1.05-2.08.6-1.12,1.2-2.25,1.85-3.35.4-.67.86-1.31,1.34-1.94.61-.79,1.24-1.57,1.89-2.33.8-.91,1.61-1.82,2.46-2.68.83-.85,1.83-1.45,3-1.77.87-.24,1.73-.31,2.61-.16.83.15,1.62.44,2.26,1.01.39.34.69.75.89,1.23.21.53.34,1.07.33,1.64,0,.17,0,.35.03.52.16.85.1,1.71.06,2.57-.03.59-.25,1.14-.45,1.68-.29.78-.65,1.52-1.09,2.22-.13.2-.29.4-.48.55-.5.39-1.07.29-1.43-.23-.23-.33-.43-.67-.64-1.01-.22-.34-.43-.69-.66-1.03-.24-.36-.3-.75-.22-1.17.04-.22.16-.37.35-.48.6-.34,1.04-.85,1.41-1.42.31-.48.34-1.02.22-1.57-.1-.45-.38-.65-.84-.72-.92-.15-1.67.19-2.27.86-.9.98-1.7,2.04-2.31,3.23-.25.48-.46.98-.68,1.47-.36.78-.73,1.55-1.07,2.34-.29.66-.55,1.34-.84,2.01-.44,1.05-.87,2.12-1.34,3.16-.49,1.07-1.03,2.11-1.54,3.17-.25.53-.46,1.09-.7,1.63-.79,1.82-1.55,3.65-2.52,5.38-.79,1.42-1.56,2.85-2.5,4.18-1.09,1.54-2.33,2.95-3.86,4.07-1.04.76-2.2,1.27-3.45,1.6-1.4.37-2.8.46-4.22.17-1.6-.33-2.91-1.12-3.79-2.53-1.09-1.73-1.62-3.62-1.6-5.67.01-1.06.25-2.07.68-3.03.1-.23.24-.45.37-.67.05-.09.1-.17.16-.28-.08-.06-.14-.11-.2-.14-.79-.4-1.29-1.08-1.69-1.84-.59-1.11-.85-2.31-.95-3.55-.06-.74-.07-1.47.02-2.2.01-.1,0-.19,0-.29-.03-.01-.05-.03-.08-.04Zm-8.46-3.12c.15-.04.26-.06.36-.1.63-.27,1.27-.52,1.88-.82,1.23-.58,2.26-1.42,3.12-2.48.78-.96,1.38-2.03,1.9-3.14.45-.94.8-1.92,1.16-2.9.68-1.87,1.06-3.8,1.1-5.78.02-.72-.02-1.43-.28-2.11-.29-.73-.78-1.21-1.61-1.25-.53-.03-1.07-.03-1.57.16-.42.16-.84.33-1.24.52-.64.31-1.18.76-1.68,1.27-1.35,1.4-2.33,3.04-3.04,4.84-.5,1.26-.86,2.55-1.09,3.89-.13.74-.25,1.47-.17,2.22.04.36.08.71.12,1.06.17,1.38.41,2.75.87,4.07.06.16.11.33.17.54Zm-21.16-16.87c.58-.56,1.1-1.11,1.63-1.64.52-.53,1.05-1.06,1.57-1.59.52-.53,1.06-1.05,1.54-1.64-.46.11-.85.01-1.19-.29-.14-.13-.27-.28-.37-.44-.16-.24-.28-.5-.44-.73-.39-.55-.6-1.21-1.02-1.73-.04-.05-.05-.11-.07-.17-.12-.33-.14-.67-.03-.99.22-.67.48-1.32.73-1.98.25-.66.53-1.31.74-1.98.3-.94.37-1.92.36-2.91,0-.03,0-.06,0-.09-.03-.79-.33-1.49-.76-2.14-.16-.24-.28-.27-.54-.15-.18.09-.36.19-.53.3-.77.49-1.32,1.14-1.57,2.04-.17.62-.37,1.23-.55,1.85-.25.88-.4,1.77-.39,2.69,0,.42,0,.84.02,1.26.05,1.11.1,2.22.15,3.34.11,2.23.32,4.44.66,6.64.01.1.04.19.08.35Zm41.92,14.81c.13-.03.21-.04.28-.07.71-.27,1.41-.58,2.07-.97.16-.1.32-.22.45-.36.6-.68,1.03-1.47,1.26-2.35.18-.69.23-1.39-.06-2.07-.09-.22-.22-.45-.39-.61-.42-.38-.64-.32-.98-.02-.77.7-1.34,1.54-1.69,2.51-.42,1.17-.74,2.38-.92,3.61-.01.09-.01.18-.02.32Z"/>
        <path class="cls-2" d="m46.54,53.57c0,.1-.01.17,0,.24.3,1.65.17,3.28-.2,4.9-.17.74-.37,1.47-.59,2.19-.26.82-.63,1.59-1.03,2.35-.51.99-1.05,1.96-1.66,2.89-.75,1.15-1.64,2.19-2.67,3.1-.9.8-1.87,1.52-2.92,2.12-1.21.69-2.45,1.31-3.81,1.65-2.26.56-4.42.31-6.47-.81-.98-.54-1.89-1.19-2.64-2.02-.3-.33-.57-.7-.8-1.08-.71-1.14-1.2-2.37-1.39-3.7-.15-1.05-.03-2.08.29-3.09.12-.37.25-.74.39-1.1.32-.83.82-1.53,1.5-2.1.35-.29.76-.48,1.19-.63.45-.16.92-.27,1.41-.23.12.01.25.02.36.07.38.17.5.54.25.88-.21.3-.46.57-.7.85-.35.4-.77.75-.91,1.29-.38,1.42-.3,2.77.63,3.99.53.7,1.23,1.14,2.07,1.39,1.08.32,2.13.23,3.14-.22,1.28-.58,2.46-1.32,3.57-2.19,1.12-.88,2-1.98,2.74-3.19.3-.5.61-.99.91-1.49.33-.54.54-1.12.74-1.71.05-.15.08-.32.08-.48,0-.87.03-1.74-.13-2.6-.15-.77-.38-1.53-.76-2.22-.1-.18-.18-.37-.28-.55-.4-.71-.32-1.4.14-2.04.18-.25.38-.48.61-.68.71-.61,1.45-1.19,2.27-1.66.68-.39,1.36-.35,2.01.11.66.47,1.06,1.12,1.36,1.85.07.17.13.34.21.56.12-.07.21-.12.29-.19,1.12-.92,1.91-2.06,2.3-3.47.16-.6.17-1.22.02-1.82-.18-.74-.46-1.44-.87-2.08-.17-.26-.39-.5-.61-.72-.76-.81-1.53-1.61-2.3-2.41-.86-.89-1.73-1.77-2.58-2.65-.21-.22-.4-.46-.6-.7-.35-.4-.7-.8-1.04-1.21-.47-.57-.68-1.25-.72-1.98-.05-.95.08-1.88.29-2.8.24-1.09.6-2.14,1-3.18.24-.63.47-1.26.72-1.89.43-1.11,1-2.15,1.55-3.2.33-.62.65-1.25,1-1.86.5-.87,1-1.73,1.54-2.58.6-.95,1.2-1.9,1.85-2.82.73-1.02,1.49-2.02,2.29-2.99,1.11-1.35,2.3-2.62,3.59-3.8.76-.69,1.48-1.43,2.25-2.12.63-.56,1.3-1.09,1.98-1.59,1.04-.76,2.13-1.44,3.26-2.05.92-.5,1.88-.9,2.87-1.22,1.66-.54,3.38-.79,5.12-.88,1.11-.06,2.2.11,3.29.3.95.16,1.88.39,2.79.7,1.1.38,2.18.82,3.11,1.56.32.26.62.56.9.87.57.61,1.13,1.23,1.68,1.87.43.5.79,1.07,1.07,1.67.67,1.44,1.08,2.95,1.25,4.53.17,1.59.21,3.18-.04,4.77-.22,1.38-.58,2.72-1.16,3.99-.41.89-.86,1.76-1.46,2.55-.41.55-.92,1.01-1.5,1.38-.16.1-.33.21-.49.31-.39.26-.83.28-1.19-.02-.33-.27-.63-.57-.93-.88-.43-.45-.83-.92-1.24-1.39-.22-.24-.43-.49-.64-.74-.5-.58-1-1.16-1.48-1.75-.31-.38-.42-.81-.3-1.29.08-.31.23-.57.49-.75.36-.25.72-.5,1.1-.72.4-.24.73-.56,1.04-.89.85-.89,1.48-1.92,1.97-3.04.38-.88.58-1.81.68-2.76.11-1.01.06-2.02-.17-3.02-.06-.25-.16-.45-.36-.62-.6-.5-1.24-.93-1.93-1.28-2.06-1.04-4.26-1.4-6.54-1.21-1.3.11-2.55.46-3.75.99-1.13.5-2.19,1.15-3.18,1.89-.65.48-1.28.98-1.91,1.48-.73.58-1.39,1.24-2,1.94-.75.86-1.51,1.72-2.22,2.61-.6.76-1.14,1.57-1.72,2.35-.55.75-1.08,1.52-1.54,2.32-.53.92-1.04,1.85-1.58,2.77-.73,1.24-1.35,2.54-1.98,3.84-.44.9-.9,1.79-1.32,2.7-.26.56-.47,1.16-.68,1.74-.25.67-.46,1.35-.72,2.02-.31.78-.53,1.59-.74,2.4-.03.13-.07.26-.11.38-.09.29-.06.35.19.49.38.22.76.44,1.13.67,1.02.64,1.93,1.41,2.81,2.21.63.57,1.23,1.16,1.82,1.77.32.33.6.7.85,1.08.63.97,1.19,1.98,1.53,3.09.59,1.94.55,3.85-.26,5.72-.47,1.07-1.17,1.98-2.04,2.77-.66.6-1.38,1.12-2.17,1.52-.68.34-1.41.55-2.16.64-.1.01-.19.03-.3.04Z"/>
        <path class="cls-2" d="m23.35,40.92c.04.15.06.25.08.34.13.56.29,1.11.39,1.67.25,1.44.07,2.86-.39,4.23-.17.51-.41,1-.67,1.47-.29.53-.61,1.04-.96,1.53-.73,1.05-1.67,1.87-2.81,2.45-.4.21-.82.36-1.26.47-.33.08-.34.11-.26.44.11.44.23.87.33,1.31.33,1.55.49,3.11.43,4.69-.05,1.37-.2,2.73-.59,4.05-.51,1.73-1.47,3.17-2.86,4.33-1.42,1.18-3.06,1.77-4.89,1.85-1.11.05-2.21-.04-3.29-.3-1.04-.25-1.96-.73-2.76-1.45-.69-.62-1.29-1.3-1.85-2.04-.45-.6-.79-1.27-1.03-1.97-.37-1.04-.7-2.09-.87-3.19-.16-1.06-.13-2.12.07-3.17.13-.67.33-1.3.62-1.92.36-.78.9-1.43,1.52-2.01.56-.52,1.12-1.04,1.69-1.55.4-.36.82-.71,1.31-.94.23-.11.46-.16.71-.12.63.09.93.73.59,1.27-.13.2-.29.4-.48.55-.41.34-.83.66-1.26.98-.75.55-1.46,1.15-2.02,1.9-.37.48-.65,1.02-.79,1.61-.16.7-.3,1.4-.41,2.1-.14.9.11,1.74.46,2.56.15.35.33.68.52,1,.2.35.49.62.83.84.74.48,1.55.78,2.4.97.32.07.68.07,1,.01.73-.11,1.45-.25,2.14-.52,1.24-.49,2.07-1.4,2.43-2.66.53-1.87.62-3.78.41-5.71-.15-1.47-.44-2.91-.7-4.36-.08-.45-.15-.91-.22-1.36-.08-.54-.22-1.05-.42-1.56-.18-.45-.31-.93-.42-1.41-.18-.78-.29-1.57-.27-2.37.05-2.24.65-4.31,1.95-6.16,1.14-1.62,2.65-2.74,4.51-3.43,1.84-.68,3.71-.75,5.62-.45,1.03.16,2.05.38,3.04.7.91.3,1.82.62,2.73.93.53.18,1.08.31,1.65.32.44,0,.76-.16.95-.58.27-.59.43-1.21.58-1.84.04-.17.07-.34.1-.51.08-.53-.15-.98-.64-1.18-.36-.15-.73-.26-1.11-.35-.46-.11-.93-.16-1.38-.26-.28-.06-.57-.12-.81-.26-.61-.34-.85-.99-.58-1.63.33-.78.73-1.53,1.11-2.29.05-.1.12-.2.2-.27.2-.16.29-.39.37-.62.15-.51.38-.69.92-.74.51-.05,1,.03,1.48.19.67.22,1.35.43,1.97.74,1.37.67,2.34,1.72,2.8,3.2.52,1.68.55,3.37.09,5.08-.26.98-.58,1.94-1.1,2.82-.62,1.06-1.38,2-2.45,2.65-.78.48-1.63.76-2.53.86-1.1.12-2.19.03-3.25-.24-.74-.19-1.47-.42-2.21-.63-.13-.04-.27-.06-.46-.1Zm-6.59.38c-.08.05-.13.07-.16.11-.29.36-.53.75-.69,1.19-.42,1.19-.41,2.38.02,3.57.11.31.23.61.46.86.31.33.63.37,1.01.12.48-.3.76-.76.99-1.25.23-.5.17-1.02.06-1.53-.13-.63-.47-1.17-.83-1.69-.22-.32-.43-.64-.64-.97-.08-.12-.14-.24-.22-.4Z"/>
        <path class="cls-2" d="m63.71,67.63c1.05.04,2.27-.19,3.43-.67.84-.34,1.59-.82,2.26-1.44,1.32-1.22,1.99-2.75,2.17-4.5.09-.88.09-1.77.13-2.66,0-.1-.02-.2-.04-.3-.13-.51.04-.92.42-1.26.33-.3.72-.45,1.15-.53.68-.13,1.36-.11,2.05-.08.41.02.74.21,1,.53.25.29.42.63.51,1,.52,1.96.58,3.92-.06,5.86-.35,1.06-.71,2.11-1.12,3.15-.57,1.44-1.46,2.66-2.59,3.71-1.38,1.29-3,2.19-4.8,2.74-2.11.65-4.27.83-6.45.48-1.61-.26-3.15-.75-4.62-1.49-1.38-.69-2.63-1.57-3.7-2.68-1.73-1.78-2.85-3.89-3.37-6.32-.21-.98-.3-1.96-.22-2.95.12-1.52.52-2.96,1.26-4.29.57-1.03,1.28-1.95,2.21-2.67.35-.27.72-.51,1.16-.59.45-.08.83,0,1.12.39.28.37.26.77.06,1.16-.17.33-.38.66-.61.95-.69.9-1.2,1.87-1.43,2.98-.19.9-.16,1.81.07,2.7.11.4.22.81.38,1.19.45,1.06,1.16,1.94,2.01,2.7,1.5,1.34,3.23,2.25,5.19,2.69.72.16,1.46.2,2.41.21Z"/>
        <path class="cls-2" d="m40.14,43.86c-.02.99-.46,1.97-1.39,2.68-.8.61-1.73.89-2.74.69-1.5-.31-2.59-1.55-2.61-3.09,0-.65.26-1.23.64-1.75.09-.12.17-.25.25-.38.52-.84,1.24-1.44,2.23-1.64,1.29-.27,2.51.34,3.16,1.52.31.56.46,1.15.46,1.97Z"/>
        <path class="cls-2" d="m33.7,49.4c.01,1.99-1.5,3.42-3.5,3.22-1.01-.1-1.87-.53-2.48-1.35-.69-.93-.85-1.98-.39-3.04.54-1.26,1.55-1.97,2.9-2.17.77-.11,1.43.18,2.05.64.97.72,1.4,1.69,1.43,2.7Z"/>
        <path class="cls-2" d="m98.96,12.74c-.06.15-.09.32-.18.44-.15.19-.32.38-.51.52-.71.53-1.43,1.05-2.15,1.57-1.36.98-2.72,1.95-4.07,2.92-1,.72-2,1.44-3,2.16-.85.61-1.71,1.22-2.56,1.84-1.3.94-2.59,1.88-3.89,2.81-.88.63-1.77,1.24-2.67,1.84-.25.17-.53.3-.81.43-.13.06-.29.14-.39,0-.09-.13.03-.26.11-.35.29-.3.58-.61.9-.87,1.02-.83,2.04-1.66,3.07-2.47.72-.57,1.45-1.12,2.17-1.69.93-.73,1.86-1.46,2.79-2.19,1.26-.98,2.53-1.96,3.79-2.95.92-.72,1.82-1.45,2.74-2.16,1.01-.79,2.04-1.56,3.05-2.35.25-.19.52-.32.85-.29.41.03.72.37.76.79Z"/>
        <path class="cls-2" d="m106.32,30.28c-.07-.18.04-.3.15-.41.32-.32.62-.65.96-.94.79-.67,1.6-1.33,2.4-1.99,1.17-.95,2.35-1.89,3.53-2.84.68-.55,1.38-1.09,2.07-1.63.75-.59,1.5-1.19,2.27-1.77,1.26-.95,2.54-1.89,3.81-2.83.2-.15.43-.23.68-.24.39-.01.68.15.85.49.18.34.13.68-.09.98-.11.15-.24.28-.39.39-.95.7-1.9,1.41-2.86,2.09-1.4,1-2.81,1.99-4.23,2.97-1.34.92-2.7,1.83-4.06,2.73-1.16.78-2.32,1.55-3.5,2.31-.37.24-.77.42-1.15.63-.14.07-.28.12-.44.04Z"/>
        <path class="cls-2" d="m70.82,37.41c.82.05,1.79.57,2.52,1.55.43.57.62,1.21.61,1.92-.03,1.77-1.6,3.09-3.35,2.78-1.36-.24-2.22-1.08-2.72-2.34-.14-.36-.22-.74-.22-1.14,0-1.57,1.23-2.81,3.16-2.77Z"/>
        <path class="cls-2" d="m110.79,15.17c0,.21-.1.42-.29.57-.21.17-.43.35-.66.5-1.12.75-2.24,1.49-3.37,2.23-1.03.68-2.06,1.36-3.08,2.04-.5.33-1.01.66-1.51.99-1.13.75-2.25,1.51-3.39,2.24-1.07.69-2.16,1.36-3.25,2.02-.39.24-.82.41-1.24.6-.09.04-.2.06-.3.06-.19,0-.28-.14-.19-.31.06-.12.15-.22.24-.31.59-.62,1.27-1.11,1.96-1.61.85-.62,1.71-1.22,2.57-1.82.87-.61,1.74-1.21,2.61-1.81,1.4-.97,2.8-1.94,4.2-2.9,1.28-.89,2.57-1.77,3.86-2.65.24-.16.48-.31.73-.45.1-.05.21-.09.32-.11.43-.07.79.24.79.72Z"/>
        <path class="cls-2" d="m47.55,6.77c.41,0,.73.32.68.73-.02.19-.09.4-.2.57-.74,1.11-1.5,2.21-2.25,3.31-.66.97-1.32,1.94-1.98,2.91-.87,1.26-1.75,2.51-2.63,3.76-.59.84-1.18,1.69-1.79,2.52-.67.91-1.35,1.82-2.03,2.72-.17.23-.36.44-.56.65-.1.11-.23.21-.36.28-.18.1-.34-.01-.31-.21.01-.12.05-.24.1-.35.3-.58.6-1.16.93-1.72.39-.66.8-1.3,1.22-1.94.54-.84,1.09-1.67,1.63-2.51.92-1.42,1.84-2.84,2.77-4.25.85-1.29,1.71-2.56,2.57-3.84.43-.64.86-1.29,1.3-1.93.1-.14.2-.28.32-.41.15-.18.35-.28.59-.28Z"/>
        <path class="cls-2" d="m64.04,61.36c0,1.58-1.25,2.84-2.84,2.84-1.56,0-2.79-1.24-2.79-2.81,0-1.45,1.15-2.81,2.84-2.81,1.55,0,2.79,1.24,2.8,2.78Z"/>
        <path class="cls-2" d="m30.41,16.61c-.17.4-.25.82-.27,1.25-.04,1.01.05,2.02.2,3.02.07.43.13.87.2,1.3.06.39-.27.72-.66.62-.16-.04-.32-.13-.46-.23-.38-.27-.79-.51-1.23-.68-.36-.13-.72-.23-1.11-.12-.29.08-.55.37-.58.65-.02.2.02.26.2.31.1.03.2.04.3.07.26.06.38.19.38.41,0,.2-.17.43-.38.46-.83.15-1.48-.21-1.64-1.06-.1-.5.05-.96.34-1.36.59-.8,1.39-1.15,2.38-1,.39.06.76.21,1.16.32.05-.09-.02-.21-.04-.32-.19-.76-.34-1.53-.4-2.32-.04-.59-.04-1.19.11-1.77.2-.75.56-1.41,1.27-1.8.44-.24.9-.27,1.34,0,.46.28.62.86.36,1.34-.16.3-.36.57-.62.79-.33.29-.49.31-.87.09Z"/>
        <path class="cls-2" d="m70.06,10.96c-.17-.28-.34-.54-.47-.81-.33-.66-.46-1.34-.14-2.03.28-.62.73-1.04,1.44-1.06.8-.03,1.37.72,1.15,1.5-.1.35-.3.65-.62.84-.04.03-.09.06-.13.08,0,0-.01.02-.05.06.03.08.07.2.11.3.16.39.33.77.48,1.16.25.62.37,1.27.4,1.94,0,.16-.01.3-.13.43-.16.17-.38.21-.58.07-.1-.07-.18-.16-.25-.26-.34-.49-.83-.78-1.37-1-.51-.21-.95,0-1.32.34-.55.53-.58,1.16-.34,1.78.11.28.36.46.61.62.13.08.26.05.38-.02.17-.11.34-.22.51-.33.12-.08.24-.14.36-.02.11.11.09.24.03.37-.22.47-.97.79-1.44.58-.52-.23-.97-.57-1.19-1.13-.22-.53-.23-1.08-.07-1.62.28-.91.89-1.49,1.82-1.73.24-.06.5-.04.8-.06Z"/>
        <path class="cls-2" d="m87.67,11.06c.04-.26.07-.47.1-.68.1-.62.26-1.22.59-1.76.28-.45.66-.77,1.21-.86.7-.12,1.4.39,1.47,1.1.07.69-.16,1.27-.78,1.64-.12.07-.29.12-.43.12-.26,0-.41-.22-.32-.47.05-.12.12-.23.19-.35.12-.22.22-.44.21-.69,0-.08-.05-.2-.1-.22-.06-.03-.19,0-.25.05-.18.14-.3.33-.37.55-.16.49-.23,1-.25,1.51-.02.75,0,1.51,0,2.27,0,.12,0,.25-.01.37-.04.33-.27.57-.56.6-.27.03-.54-.14-.67-.44-.14-.32-.26-.64-.41-.95-.19-.38-.46-.69-.84-.91-.17-.1-.32-.09-.48.02-.31.22-.38.47-.23.81.04.09.08.19.1.29.03.15-.03.28-.16.37-.13.1-.26.11-.4.03-.37-.21-.62-.49-.66-.93-.09-.82.85-2.09,1.91-1.97.33.04.63.16.91.34.07.04.13.09.25.18Z"/>
        <path class="cls-2" d="m5.91,47.08c-.08-.3-.15-.56-.22-.82-.1-.39-.16-.78-.13-1.18.02-.36.12-.7.35-1,.24-.32.57-.42.95-.34.3.06.57.41.62.76.05.35-.05.66-.29.9-.22.21-.23.41-.12.68.27.67.51,1.35.76,2.03.09.23.16.46.09.72-.11.4-.46.63-.87.52-.26-.07-.52-.19-.75-.34-.43-.27-.83-.59-1.25-.87-.17-.11-.35-.21-.53-.31-.16-.09-.3-.05-.42.07-.13.13-.26.28-.15.49.1.19.2.38.33.55.14.2.19.3.1.44-.11.16-.28.21-.46.18-.36-.06-.63-.27-.82-.59-.28-.47-.29-.94-.01-1.42.14-.25.3-.49.53-.67.4-.31.86-.38,1.33-.22.28.09.54.24.8.36.04.02.09.03.16.06Z"/>
        <path class="cls-2" d="m61.29,34.26c.08-.66.35-1.38,1.18-1.75.31-.14.62-.15.93-.06.71.19,1.17.65,1.37,1.35.08.27.12.56.16.84.02.15,0,.31-.04.45-.06.25-.24.38-.46.37-.2,0-.37-.14-.44-.37-.05-.18-.08-.36-.12-.54-.04-.18-.08-.36-.14-.53-.04-.1-.09-.21-.16-.29-.32-.38-.82-.32-1.06.12-.26.48-.17.95.04,1.41.03.08.11.15.19.2.2.14.4.27.61.41.23.14.32.32.27.5-.05.18-.26.32-.51.31-.33-.02-.63-.14-.91-.32-.66-.43-.89-1.31-.89-2.09Z"/>
        <path class="cls-2" d="m18.31,25.62c0-.51.16-1.01.57-1.4.68-.66,1.71-.58,2.32.15.44.53.57,1.16.6,1.82,0,.08,0,.16-.03.24-.05.18-.18.3-.37.33-.18.02-.33-.05-.42-.2-.07-.11-.12-.23-.17-.36-.12-.28-.21-.58-.35-.85-.19-.36-.49-.35-.69,0-.2.36-.22.74-.04,1.12.1.2.23.38.37.56.13.18.27.36.13.58-.13.21-.36.16-.56.12-.53-.11-.88-.46-1.12-.92-.19-.36-.24-.75-.24-1.2Z"/>
        <path class="cls-2" d="m21.74,55.21c.03.22.05.46.08.69,0,.05.01.1.02.15.03.32-.04.49-.24.57-.17.07-.4-.01-.55-.23-.39-.54-.57-1.13-.43-1.79.09-.46.37-.8.8-1.02.42-.22.85-.34,1.32-.21.62.17,1.08.52,1.29,1.14.06.19.07.4.05.6-.04.38-.42.58-.75.38-.18-.11-.31-.29-.45-.44-.05-.06-.08-.14-.11-.22-.13-.23-.34-.34-.58-.29-.25.05-.38.19-.42.46-.01.07-.01.14-.02.22Z"/>
      </g>
      <g>
        <path class="cls-1" d="m7.74,81.55h1.22c.3-.01.62,0,.94.01.32.02.62.08.89.19.27.11.49.27.67.49.17.22.26.54.26.96s-.12.75-.37,1.06c-.25.31-.53.56-.85.78.05.2.12.48.22.84.1.36.21.71.35,1.06.13.35.28.65.43.9.15.25.31.38.46.38.08,0,.15-.01.21-.04.04,0,.07-.02.11-.03-.03.14-.07.26-.14.37-.06.09-.13.18-.24.26-.1.08-.23.12-.39.12-.18,0-.34-.08-.5-.23-.16-.15-.3-.34-.43-.58-.13-.23-.24-.49-.35-.77-.1-.28-.19-.55-.26-.8-.07-.25-.13-.48-.18-.67s-.07-.32-.08-.39c-.12.05-.23.08-.33.11s-.19.05-.28.07v2.4c0,.13.01.25.04.35.03.08.07.16.12.24.05.07.12.11.22.11v.1h-1.73v-.1c.1,0,.18-.04.22-.11.05-.07.08-.15.11-.24.03-.1.04-.22.04-.35v-5.71c0-.13-.01-.25-.04-.35-.03-.09-.06-.17-.11-.24-.05-.07-.12-.1-.22-.1v-.08Zm3.01,1.76c0-.21-.03-.38-.1-.49-.07-.12-.16-.2-.28-.26s-.26-.09-.43-.1-.35-.02-.54-.02h-.29v2.27c.17-.03.34-.09.53-.19.19-.1.37-.21.53-.34.17-.13.31-.27.42-.42.11-.15.17-.3.17-.45Z"/>
        <path class="cls-1" d="m19.57,88.83v-.1c.07,0,.13-.02.16-.07.03-.05.05-.1.06-.16,0-.06.01-.12,0-.19,0-.07-.01-.13-.02-.17l-.14-.53-2.41.03-.11.47s-.02.09-.03.17-.01.14,0,.21c0,.06.03.12.06.17.04.05.09.08.17.08v.1h-1.71v-.1c.08,0,.16-.03.23-.1.07-.06.13-.14.17-.22.05-.08.08-.15.11-.23s.05-.12.06-.14l1.4-5.73c.04-.14.03-.29,0-.44-.04-.16-.13-.24-.26-.24v-.1h1.8l1.59,6.49c.04.13.08.25.14.35.05.08.11.16.18.24s.16.11.25.11v.1h-1.71Zm-2.11-2.15h1.94s-.97-3.92-.97-3.92l-.97,3.92Zm2.3,1.41v-.03h-.01v-.03.06Z"/>
        <path class="cls-1" d="m24.97,88.04v-5.7c0-.13-.01-.24-.04-.35-.03-.09-.06-.17-.11-.24-.05-.07-.12-.1-.22-.1v-.1h1.73v.1c-.1,0-.19.05-.25.15.3.79.58,1.5.86,2.15.28.65.51,1.21.69,1.69l1.43-3.73c-.03-.07-.07-.14-.12-.19-.05-.05-.11-.08-.19-.08v-.1h1.73v.1c-.09,0-.16.03-.21.1-.05.07-.09.15-.12.24-.03.1-.04.22-.04.35v5.7c0,.13.01.25.04.35.03.08.07.16.12.24.05.07.12.11.21.11v.1h-1.73v-.1c.1,0,.18-.04.22-.11s.08-.15.11-.24c.03-.1.04-.22.04-.35v-3.87c-.03.07-.06.16-.09.26-.03.1-.07.2-.12.31-.08.21-.17.44-.26.68-.09.24-.18.47-.27.7-.09.23-.18.44-.26.63-.09.19-.16.35-.23.46-.06.12-.14.23-.26.32-.12.09-.24.14-.37.14-.07,0-.14,0-.2-.03s-.11-.04-.16-.06c-.05-.03-.09-.06-.12-.08.06,0,.11-.03.15-.07.1-.06.15-.18.15-.33,0-.08-.05-.26-.14-.52-.09-.26-.2-.55-.33-.87-.12-.31-.25-.62-.37-.93-.12-.31-.22-.54-.3-.69v3.95c0,.13.01.25.04.35.03.08.07.16.12.24.05.07.12.11.22.11v.1h-1.73v-.1c.1,0,.18-.04.22-.11.05-.07.08-.15.11-.24.03-.1.04-.22.04-.35Z"/>
        <path class="cls-1" d="m37.78,88.83v-.1c.07,0,.13-.02.16-.07.03-.05.05-.1.06-.16,0-.06.01-.12,0-.19,0-.07-.01-.13-.02-.17l-.14-.53-2.41.03-.11.47s-.02.09-.03.17-.01.14,0,.21c0,.06.03.12.06.17.04.05.09.08.17.08v.1h-1.71v-.1c.08,0,.16-.03.23-.1.07-.06.13-.14.17-.22.05-.08.08-.15.11-.23s.05-.12.06-.14l1.4-5.73c.04-.14.03-.29,0-.44-.04-.16-.13-.24-.26-.24v-.1h1.8l1.59,6.49c.04.13.08.25.14.35.05.08.11.16.18.24s.16.11.25.11v.1h-1.71Zm-2.11-2.15h1.94s-.97-3.92-.97-3.92l-.97,3.92Zm2.3,1.41v-.03h-.01v-.03.06Z"/>
        <path class="cls-1" d="m43.19,88.04v-5.7c0-.13-.01-.24-.04-.35-.03-.09-.06-.17-.11-.24-.05-.07-.12-.1-.22-.1v-.1h1.33c.55,0,1.03.09,1.43.28.4.19.73.44.99.76.26.32.45.71.58,1.15.12.44.19.93.19,1.46s-.06,1.01-.17,1.45c-.11.44-.29.82-.54,1.13-.25.31-.58.56-.98.75-.4.19-.89.29-1.48.31h-1.36v-.1c.1,0,.18-.04.22-.11.05-.07.08-.15.11-.24.03-.1.04-.22.04-.35Zm3.23-2.94c0-.9-.2-1.56-.6-2-.4-.44-.95-.66-1.65-.67v5.53c.44-.03.81-.12,1.1-.28.29-.16.52-.36.69-.62.17-.26.29-.55.35-.89.06-.33.1-.69.1-1.07Z"/>
        <path class="cls-1" d="m54.17,88.83v-.1c.07,0,.13-.02.16-.07.03-.05.05-.1.06-.16,0-.06.01-.12,0-.19,0-.07-.01-.13-.02-.17l-.14-.53-2.41.03-.11.47s-.02.09-.03.17-.01.14,0,.21c0,.06.03.12.06.17.04.05.09.08.17.08v.1h-1.71v-.1c.08,0,.16-.03.23-.1.07-.06.13-.14.17-.22.05-.08.08-.15.11-.23s.05-.12.06-.14l1.4-5.73c.04-.14.03-.29,0-.44-.04-.16-.13-.24-.26-.24v-.1h1.8l1.59,6.49c.04.13.08.25.14.35.05.08.11.16.18.24s.16.11.25.11v.1h-1.71Zm-2.11-2.15h1.94s-.97-3.92-.97-3.92l-.97,3.92Zm2.3,1.41v-.03h-.01v-.03.06Z"/>
        <path class="cls-1" d="m59.58,88.04v-5.7c0-.13-.01-.24-.04-.35-.03-.09-.06-.17-.11-.24-.05-.07-.12-.1-.22-.1v-.1h1.73v.1c-.1,0-.19.06-.25.17.3.48.55.89.77,1.22.22.33.4.62.55.85.15.24.27.43.36.58s.17.27.22.37v-2.5c0-.13-.01-.24-.04-.35-.03-.09-.06-.17-.11-.24-.05-.07-.12-.1-.22-.1v-.1h1.73v.1c-.09,0-.16.03-.21.1-.05.07-.09.15-.12.24-.03.1-.04.22-.04.35v5.7c0,.13.01.25.04.35.03.08.07.16.12.24.05.07.12.11.21.11v.1h-1.73v-.1c.1,0,.18-.04.22-.11s.08-.15.11-.24c.03-.1.04-.22.04-.35v-2.25c-.17.23-.39.35-.67.35-.09-.02-.16-.04-.21-.06-.04-.02-.07-.03-.1-.04-.03,0-.05-.02-.07-.03-.02-.02-.04-.03-.06-.04.06,0,.11-.03.15-.07.1-.06.15-.18.15-.33,0-.08-.05-.22-.15-.42s-.22-.4-.35-.62c-.13-.22-.27-.43-.41-.63-.14-.2-.24-.36-.32-.46v4.59c0,.13.01.25.04.35.03.08.07.16.12.24.05.07.12.11.22.11v.1h-1.73v-.1c.1,0,.18-.04.22-.11.05-.07.08-.15.11-.24.03-.1.04-.22.04-.35Z"/>
        <path class="cls-1" d="m72.81,81.65v-.1h1.73v.1c-.09,0-.16.03-.22.1-.05.07-.09.15-.12.24-.03.1-.04.22-.04.35v2.33c.18-.05.36-.15.52-.3.16-.16.31-.35.45-.58.14-.23.26-.47.36-.73.1-.26.18-.5.24-.73,0,0,.01-.03.01-.06,0-.06.02-.12.02-.19,0-.07,0-.14-.02-.2-.02-.06-.05-.12-.09-.17s-.1-.07-.17-.07v-.1h1.73v.1c-.14,0-.24.06-.31.19-.06.14-.12.27-.15.4-.06.23-.13.48-.21.74-.09.26-.19.52-.32.78s-.27.5-.42.74-.32.45-.5.64c.06.19.16.46.28.81.12.35.27.69.42,1.03s.32.63.5.88.34.37.5.37c.08,0,.15-.01.21-.04.04,0,.07-.02.11-.03-.03.14-.07.26-.14.37-.06.09-.13.18-.23.26-.1.08-.23.12-.4.12-.16,0-.31-.06-.46-.19s-.3-.28-.44-.48c-.14-.19-.27-.41-.39-.65s-.23-.48-.33-.71c-.1-.24-.18-.45-.26-.66-.07-.2-.13-.37-.17-.5-.06.02-.12.04-.18.06-.06.02-.12.03-.18.04v2.22c0,.13.01.25.04.35.03.08.07.16.12.24.05.07.12.11.22.11v.1h-1.73v-.1c.1,0,.18-.04.22-.11.05-.07.08-.15.11-.24.03-.1.04-.22.04-.35v-5.7c0-.13-.01-.24-.04-.35-.03-.09-.06-.17-.11-.24-.05-.07-.12-.1-.22-.1Z"/>
        <path class="cls-1" d="m84.29,88.83v-.1c.07,0,.13-.02.16-.07.03-.05.05-.1.06-.16,0-.06.01-.12,0-.19,0-.07-.01-.13-.02-.17l-.14-.53-2.41.03-.11.47s-.02.09-.03.17-.01.14,0,.21c0,.06.03.12.06.17.04.05.09.08.17.08v.1h-1.71v-.1c.08,0,.16-.03.23-.1.07-.06.13-.14.17-.22.05-.08.08-.15.11-.23s.05-.12.06-.14l1.4-5.73c.04-.14.03-.29,0-.44-.04-.16-.13-.24-.26-.24v-.1h1.8l1.59,6.49c.04.13.08.25.14.35.05.08.11.16.18.24s.16.11.25.11v.1h-1.71Zm-2.11-2.15h1.94s-.97-3.92-.97-3.92l-.97,3.92Zm2.3,1.41v-.03h-.01v-.03.06Z"/>
        <path class="cls-1" d="m89.33,81.55h1.22c.3-.01.62,0,.94.01.32.02.62.08.89.19.27.11.49.27.67.49.17.22.26.54.26.96s-.12.75-.37,1.06c-.25.31-.53.56-.85.78.05.2.12.48.22.84.1.36.21.71.35,1.06.13.35.28.65.43.9.15.25.31.38.46.38.08,0,.15-.01.21-.04.04,0,.07-.02.11-.03-.03.14-.07.26-.14.37-.06.09-.13.18-.24.26-.1.08-.23.12-.39.12-.18,0-.34-.08-.5-.23-.16-.15-.3-.34-.43-.58-.13-.23-.24-.49-.35-.77-.1-.28-.19-.55-.26-.8-.07-.25-.13-.48-.18-.67s-.07-.32-.08-.39c-.12.05-.23.08-.33.11s-.19.05-.28.07v2.4c0,.13.01.25.04.35.03.08.07.16.12.24.05.07.12.11.22.11v.1h-1.73v-.1c.1,0,.18-.04.22-.11.05-.07.08-.15.11-.24.03-.1.04-.22.04-.35v-5.71c0-.13-.01-.25-.04-.35-.03-.09-.06-.17-.11-.24-.05-.07-.12-.1-.22-.1v-.08Zm3.01,1.76c0-.21-.03-.38-.1-.49-.07-.12-.16-.2-.28-.26s-.26-.09-.43-.1-.35-.02-.54-.02h-.29v2.27c.17-.03.34-.09.53-.19.19-.1.37-.21.53-.34.17-.13.31-.27.42-.42.11-.15.17-.3.17-.45Z"/>
        <path class="cls-1" d="m97.56,88.04v-5.7c0-.13-.01-.24-.04-.35-.03-.09-.06-.17-.11-.24-.05-.07-.12-.1-.22-.1v-.1h3.92l-.48,1.14h-.1c0-.06,0-.11-.01-.15-.04-.09-.13-.14-.29-.14h-1.68v2.61c.05-.07.1-.15.15-.24.06-.09.12-.17.19-.24.07-.07.14-.14.22-.19.07-.05.15-.08.22-.08.18,0,.32.05.44.14.12.09.23.14.35.14.06,0,.11-.01.16-.03.05-.02.1-.04.15-.06.05-.03.09-.06.14-.1-.08.17-.17.32-.26.46-.09.11-.2.21-.31.31-.12.1-.24.15-.38.15-.15,0-.27-.03-.37-.1s-.2-.1-.3-.1c-.06,0-.12.01-.19.04l-.12.04-.06.03v2.81h1.86c.16,0,.25-.05.29-.15.02-.04.02-.08.01-.14h.1l.49,1.14h-4.1v-.1c.1,0,.18-.04.22-.11.05-.07.08-.15.11-.24.03-.1.04-.22.04-.35Z"/>
        <path class="cls-1" d="m104.99,88.04v-5.7c0-.13-.01-.24-.04-.35-.03-.09-.06-.17-.11-.24-.05-.07-.12-.1-.22-.1v-.1h3.92l-.48,1.14h-.1c0-.06,0-.11-.01-.15-.04-.09-.13-.14-.29-.14h-1.68v2.61c.05-.07.1-.15.15-.24.06-.09.12-.17.19-.24.07-.07.14-.14.22-.19.07-.05.15-.08.22-.08.18,0,.32.05.44.14.12.09.23.14.35.14.06,0,.11-.01.16-.03.05-.02.1-.04.15-.06.05-.03.09-.06.14-.1-.08.17-.17.32-.26.46-.09.11-.2.21-.31.31-.12.1-.24.15-.38.15-.15,0-.27-.03-.37-.1s-.2-.1-.3-.1c-.06,0-.12.01-.19.04l-.12.04-.06.03v2.81h1.86c.16,0,.25-.05.29-.15.02-.04.02-.08.01-.14h.1l.49,1.14h-4.1v-.1c.1,0,.18-.04.22-.11.05-.07.08-.15.11-.24.03-.1.04-.22.04-.35Z"/>
        <path class="cls-1" d="m112.42,88.04v-5.7c0-.13-.01-.24-.04-.35-.03-.09-.06-.17-.11-.24-.05-.07-.12-.1-.22-.1v-.1h1.73v.1c-.1,0-.19.05-.25.15.3.79.58,1.5.86,2.15.28.65.51,1.21.69,1.69l1.43-3.73c-.03-.07-.07-.14-.12-.19-.05-.05-.11-.08-.19-.08v-.1h1.73v.1c-.09,0-.16.03-.21.1-.05.07-.09.15-.12.24-.03.1-.04.22-.04.35v5.7c0,.13.01.25.04.35.03.08.07.16.12.24.05.07.12.11.21.11v.1h-1.73v-.1c.1,0,.18-.04.22-.11s.08-.15.11-.24c.03-.1.04-.22.04-.35v-3.87c-.03.07-.06.16-.09.26-.03.1-.07.2-.12.31-.08.21-.17.44-.26.68-.09.24-.18.47-.27.7-.09.23-.18.44-.26.63-.09.19-.16.35-.23.46-.06.12-.14.23-.26.32-.12.09-.24.14-.37.14-.07,0-.14,0-.2-.03s-.11-.04-.16-.06c-.05-.03-.09-.06-.12-.08.06,0,.11-.03.15-.07.1-.06.15-.18.15-.33,0-.08-.05-.26-.14-.52-.09-.26-.2-.55-.33-.87-.12-.31-.25-.62-.37-.93-.12-.31-.22-.54-.3-.69v3.95c0,.13.01.25.04.35.03.08.07.16.12.24.05.07.12.11.22.11v.1h-1.73v-.1c.1,0,.18-.04.22-.11.05-.07.08-.15.11-.24.03-.1.04-.22.04-.35Z"/>
      </g>
    </g>
  </g>
</svg>