<svg xmlns="http://www.w3.org/2000/svg" width="35.128" height="33.268" viewBox="0 0 35.128 33.268">
  <g id="revert_hp" transform="translate(0 -1.366)">
    <path id="Path_68" data-name="Path 68" d="M7.678,5.564C5.873,12.241,1.174,15.891.3,19.109S-.543,29.584,14.259,33.586s19.432-4.5,20.388-8.041C39.128,8.973,10.875-6.262,7.678,5.564Z" fill="#efefef"/>
    <path id="Path_69" data-name="Path 69" d="M25.25,6.75H7.75a1,1,0,0,0-1,1v17.5a1,1,0,0,0,1,1h16.5a2,2,0,0,0,2-2V7.75A1,1,0,0,0,25.25,6.75Z" fill="#f3f3f1"/>
    <path id="Path_70" data-name="Path 70" d="M12.75,6.75v7.5l3.75-3.5,3.75,3.5V6.75Z" fill="#f7a45d"/>
    <path id="Path_71" data-name="Path 71" d="M9,25.25V7.75a1,1,0,0,1,1-1H7.75a1,1,0,0,0-1,1v17.5a1,1,0,0,0,1,1H10A1,1,0,0,1,9,25.25Z" fill="#d5dbe1"/>
    <path id="Path_72" data-name="Path 72" d="M15,6.75H12.75v7.5L15,12.15Z" fill="#dd7b26"/>
    <path id="Path_73" data-name="Path 73" d="M18.75,10.75,17.625,11.8l2.625,2.45v-2.1Z" fill="#dd7b26"/>
    <g id="Group_42" data-name="Group 42">
      <path id="Path_74" data-name="Path 74" d="M5.76,2.384h2v1h-2Z" transform="translate(-0.059 5.625) rotate(-45)" fill="#a4afc1"/>
      <path id="Path_75" data-name="Path 75" d="M1.694,6.45h2v1h-2Z" transform="translate(-4.125 3.941) rotate(-45)" fill="#a4afc1"/>
      <path id="Path_76" data-name="Path 76" d="M2.194,1.707h1v2h-1Z" transform="translate(-1.125 2.698) rotate(-45)" fill="#a4afc1"/>
      <path id="Path_77" data-name="Path 77" d="M31.038,14a1.5,1.5,0,1,1,1.5-1.5,1.5,1.5,0,0,1-1.5,1.5Zm0-2a.5.5,0,1,0,.5.5A.5.5,0,0,0,31.038,12Z" fill="#a4afc1"/>
    </g>
    <path id="Path_78" data-name="Path 78" d="M30,29.25H28.5V27.341a4.933,4.933,0,0,0-4.875-4.977H21.75v-1.5h1.875A6.434,6.434,0,0,1,30,27.341Z"/>
    <path id="Path_79" data-name="Path 79" d="M24.538,25.042l-3.281-2.863a.75.75,0,0,1,0-1.13l3.281-2.864.986,1.13-2.634,2.3,2.634,2.3Z"/>
    <path id="Path_80" data-name="Path 80" d="M22.25,27H7.75A1.752,1.752,0,0,1,6,25.25V7.75A1.752,1.752,0,0,1,7.75,6h17.5A1.752,1.752,0,0,1,27,7.75v7.5H25.5V7.75a.25.25,0,0,0-.25-.25H7.75a.25.25,0,0,0-.25.25v17.5a.25.25,0,0,0,.25.25h14.5Z"/>
    <path id="Path_81" data-name="Path 81" d="M20.25,15a.746.746,0,0,1-.512-.2L16.5,11.776,13.262,14.8A.75.75,0,0,1,12,14.25V6.75A.75.75,0,0,1,12.75,6h7.5a.75.75,0,0,1,.75.75v7.5a.75.75,0,0,1-.451.688.763.763,0,0,1-.3.062ZM16.5,10a.748.748,0,0,1,.512.2L19.5,12.524V7.5h-6v5.024L15.988,10.2A.748.748,0,0,1,16.5,10Z"/>
  </g>
</svg>
