<svg xmlns="http://www.w3.org/2000/svg" xmlns:xlink="http://www.w3.org/1999/xlink" width="675.104" height="569.078" viewBox="0 0 675.104 569.078">
  <defs>
    <clipPath id="clip-path">
      <path id="Path_704" data-name="Path 704" d="M766.3,584.5l-520-14.9a48.07,48.07,0,0,1-46.5-43.3l-25.1-248a48.18,48.18,0,0,1,47.2-53l578.8-8a48.21,48.21,0,0,1,48.5,54.1L815.5,542.3A48.19,48.19,0,0,1,766.3,584.5Z" fill="none"/>
    </clipPath>
    <clipPath id="clip-path-2">
      <path id="Path_780" data-name="Path 780" d="M418.1,273.5c1.7-9.6,5.3-24.5,40-24.6,29.6-.1,43.3,4.3,50.5,9.8s8,20,5.7,42.7-2.7,36.2-1.4,50.3,7,20.2-.6,27.8a176.927,176.927,0,0,1-49.9,7.2c-28,0-41.9-7.8-42.5-10s-3.3-2.9-.8-8.6,4.2-25.8,2.6-37.9c-.9-7.1-3.5-17.1-4.6-29a109.619,109.619,0,0,1,1-27.7Z" fill="none"/>
    </clipPath>
  </defs>
  <g id="review" transform="translate(-174.458 -99.5)">
    <path id="Path_676" data-name="Path 676" d="M766.3,584.5l-520-14.9a48.07,48.07,0,0,1-46.5-43.3l-25.1-248a48.18,48.18,0,0,1,47.2-53l578.8-8a48.21,48.21,0,0,1,48.5,54.1L815.5,542.3A48.19,48.19,0,0,1,766.3,584.5Z" fill="rgba(255,209,184,0.12)"/>
    <g id="Group_10" data-name="Group 10" clip-path="url(#clip-path)">
      <path id="Path_677" data-name="Path 677" d="M341.9,629.5H-73.6a15,15,0,0,1-15-15V378.9a15,15,0,0,1,15-15H341.9a15,15,0,0,1,15,15V614.5a15,15,0,0,1-15,15Z" fill="none" stroke="#ffd1b8" stroke-linecap="round" stroke-linejoin="round" stroke-width="1.8"/>
      <path id="Path_678" data-name="Path 678" d="M891,613.7H471.9a15,15,0,0,1-15-15V254.4a15,15,0,0,1,15-15H891a15,15,0,0,1,15,15V598.7a15,15,0,0,1-15,15Z" fill="none" stroke="#ffd1b8" stroke-linecap="round" stroke-linejoin="round" stroke-width="1.8"/>
      <path id="Path_679" data-name="Path 679" d="M242.3,293.5H152.4v-8.9h89.9a1.79,1.79,0,0,1,1.8,1.8v5.2a1.82,1.82,0,0,1-1.8,1.9Z" fill="none" stroke="#ffd1b8" stroke-linecap="round" stroke-linejoin="round" stroke-width="1.8"/>
      <path id="Path_680" data-name="Path 680" d="M226,284.6H205.7a4.32,4.32,0,0,1-4.3-3.8l-1.6-14.4a4.33,4.33,0,0,1,4.3-4.8h23.5a4.34,4.34,0,0,1,4.3,4.8l-1.6,14.4a4.32,4.32,0,0,1-4.3,3.8Z" fill="none" stroke="#ffd1b8" stroke-linecap="round" stroke-linejoin="round" stroke-width="1.8"/>
      <path id="Path_681" data-name="Path 681" d="M213.4,261.7s-8-.8-9.6-11.6c0,0,7.2,2.1,9.5,7.2,0,0,1-11.4,6.4-12.5,0,0,2.4,8.5-1.4,12.7,0,0,2.9-4.8,10.3-4.7a13.6,13.6,0,0,1-9.2,8.8" fill="#ffd1b8"/>
      <path id="Path_682" data-name="Path 682" d="M761.7,344.3H741.4a4.32,4.32,0,0,1-4.3-3.8l-1.6-14.4a4.33,4.33,0,0,1,4.3-4.8h23.5a4.34,4.34,0,0,1,4.3,4.8L766,340.5A4.41,4.41,0,0,1,761.7,344.3Z" fill="none" stroke="#ffd1b8" stroke-linecap="round" stroke-linejoin="round" stroke-width="1.8"/>
      <path id="Path_683" data-name="Path 683" d="M749.2,321.3s-8-.8-9.6-11.6c0,0,7.2,2.1,9.5,7.2,0,0,1-11.4,6.4-12.5,0,0,2.4,8.5-1.4,12.7,0,0,2.9-4.8,10.3-4.7a13.6,13.6,0,0,1-9.2,8.8" fill="#ffd1b8"/>
      <path id="Path_684" data-name="Path 684" d="M338.7,413.6H248.5a4.23,4.23,0,0,1-4.2-4.2V382a4.23,4.23,0,0,1,4.2-4.2h90.2a4.23,4.23,0,0,1,4.2,4.2v27.4a4.1,4.1,0,0,1-4.2,4.2Z" fill="none" stroke="#ffd1b8" stroke-linecap="round" stroke-linejoin="round" stroke-width="1.8"/>
      <path id="Path_685" data-name="Path 685" d="M304,387.5H283.2a1.54,1.54,0,0,1-1.5-1.5h0a1.54,1.54,0,0,1,1.5-1.5H304a1.54,1.54,0,0,1,1.5,1.5h0a1.54,1.54,0,0,1-1.5,1.5Z" fill="#ffd1b8"/>
      <path id="Path_686" data-name="Path 686" d="M338.7,459.4H248.5a4.23,4.23,0,0,1-4.2-4.2V427.8a4.23,4.23,0,0,1,4.2-4.2h90.2a4.23,4.23,0,0,1,4.2,4.2v27.4a4.1,4.1,0,0,1-4.2,4.2Z" fill="none" stroke="#ffd1b8" stroke-linecap="round" stroke-linejoin="round" stroke-width="1.8"/>
      <path id="Path_687" data-name="Path 687" d="M304,433.3H283.2a1.54,1.54,0,0,1-1.5-1.5h0a1.54,1.54,0,0,1,1.5-1.5H304a1.54,1.54,0,0,1,1.5,1.5h0a1.54,1.54,0,0,1-1.5,1.5Z" fill="#ffd1b8"/>
      <path id="Path_688" data-name="Path 688" d="M801.9,491.8H711.7a4.23,4.23,0,0,1-4.2-4.2V460.2a4.23,4.23,0,0,1,4.2-4.2h90.2a4.23,4.23,0,0,1,4.2,4.2v27.4a4.1,4.1,0,0,1-4.2,4.2Z" fill="none" stroke="#ffd1b8" stroke-linecap="round" stroke-linejoin="round" stroke-width="1.8"/>
      <path id="Path_689" data-name="Path 689" d="M767.2,465.6H746.4a1.54,1.54,0,0,1-1.5-1.5h0a1.54,1.54,0,0,1,1.5-1.5h20.8a1.54,1.54,0,0,1,1.5,1.5h0a1.47,1.47,0,0,1-1.5,1.5Z" fill="#ffd1b8"/>
      <path id="Path_690" data-name="Path 690" d="M686.1,491.8H595.9a4.23,4.23,0,0,1-4.2-4.2V460.2a4.23,4.23,0,0,1,4.2-4.2h90.2a4.23,4.23,0,0,1,4.2,4.2v27.4a4.23,4.23,0,0,1-4.2,4.2Z" fill="none" stroke="#ffd1b8" stroke-linecap="round" stroke-linejoin="round" stroke-width="1.8"/>
      <path id="Path_691" data-name="Path 691" d="M651.4,465.6H630.6a1.54,1.54,0,0,1-1.5-1.5h0a1.54,1.54,0,0,1,1.5-1.5h20.8a1.54,1.54,0,0,1,1.5,1.5h0a1.47,1.47,0,0,1-1.5,1.5Z" fill="#ffd1b8"/>
      <path id="Path_692" data-name="Path 692" d="M569.5,491.8H479.3a4.23,4.23,0,0,1-4.2-4.2V460.2a4.23,4.23,0,0,1,4.2-4.2h90.2a4.23,4.23,0,0,1,4.2,4.2v27.4a4.1,4.1,0,0,1-4.2,4.2Z" fill="none" stroke="#ffd1b8" stroke-linecap="round" stroke-linejoin="round" stroke-width="1.8"/>
      <path id="Path_693" data-name="Path 693" d="M534.8,465.6H514a1.54,1.54,0,0,1-1.5-1.5h0a1.54,1.54,0,0,1,1.5-1.5h20.8a1.54,1.54,0,0,1,1.5,1.5h0a1.47,1.47,0,0,1-1.5,1.5Z" fill="#ffd1b8"/>
      <path id="Path_694" data-name="Path 694" d="M223.7,413.6H133.5a4.23,4.23,0,0,1-4.2-4.2V382a4.23,4.23,0,0,1,4.2-4.2h90.2a4.23,4.23,0,0,1,4.2,4.2v27.4a4.1,4.1,0,0,1-4.2,4.2Z" fill="none" stroke="#ffd1b8" stroke-linecap="round" stroke-linejoin="round" stroke-width="1.8"/>
      <path id="Path_695" data-name="Path 695" d="M189,387.5H168.2a1.54,1.54,0,0,1-1.5-1.5h0a1.54,1.54,0,0,1,1.5-1.5H189a1.54,1.54,0,0,1,1.5,1.5h0a1.47,1.47,0,0,1-1.5,1.5Z" fill="#ffd1b8"/>
      <path id="Path_696" data-name="Path 696" d="M223.7,459.4H133.5a4.23,4.23,0,0,1-4.2-4.2V427.8a4.23,4.23,0,0,1,4.2-4.2h90.2a4.23,4.23,0,0,1,4.2,4.2v27.4a4.1,4.1,0,0,1-4.2,4.2Z" fill="none" stroke="#ffd1b8" stroke-linecap="round" stroke-linejoin="round" stroke-width="1.8"/>
      <path id="Path_697" data-name="Path 697" d="M189,433.3H168.2a1.54,1.54,0,0,1-1.5-1.5h0a1.54,1.54,0,0,1,1.5-1.5H189a1.54,1.54,0,0,1,1.5,1.5h0a1.47,1.47,0,0,1-1.5,1.5Z" fill="#ffd1b8"/>
      <path id="Path_698" data-name="Path 698" d="M933.2,344.3h-455a4.65,4.65,0,0,1-4.6-4.6V260a4.65,4.65,0,0,1,4.6-4.6h455a4.65,4.65,0,0,1,4.6,4.6v79.7a4.59,4.59,0,0,1-4.6,4.6Z" fill="none" stroke="#ffd1b8" stroke-linecap="round" stroke-linejoin="round" stroke-width="1.8"/>
      <path id="Path_699" data-name="Path 699" d="M933.2,443.2h-455a4.65,4.65,0,0,1-4.6-4.6V358.9a4.65,4.65,0,0,1,4.6-4.6h455a4.65,4.65,0,0,1,4.6,4.6v79.7a4.59,4.59,0,0,1-4.6,4.6Z" fill="none" stroke="#ffd1b8" stroke-linecap="round" stroke-linejoin="round" stroke-width="1.8"/>
      <rect id="Rectangle_36" data-name="Rectangle 36" width="9.9" height="50.3" transform="translate(504.3 293.9)" fill="none" stroke="#ffd1b8" stroke-linecap="round" stroke-linejoin="round" stroke-width="1.8"/>
      <rect id="Rectangle_37" data-name="Rectangle 37" width="10.3" height="36.6" transform="translate(514.1 307.7)" fill="none" stroke="#ffd1b8" stroke-linecap="round" stroke-linejoin="round" stroke-width="1.8"/>
      <rect id="Rectangle_38" data-name="Rectangle 38" width="9.9" height="50.3" transform="translate(802.6 392.8)" fill="none" stroke="#ffd1b8" stroke-linecap="round" stroke-linejoin="round" stroke-width="1.8"/>
      <rect id="Rectangle_39" data-name="Rectangle 39" width="10.3" height="36.6" transform="translate(812.5 406.5)" fill="none" stroke="#ffd1b8" stroke-linecap="round" stroke-linejoin="round" stroke-width="1.8"/>
      <rect id="Rectangle_40" data-name="Rectangle 40" width="9.9" height="50.3" transform="translate(782.5 392.8)" fill="none" stroke="#ffd1b8" stroke-linecap="round" stroke-linejoin="round" stroke-width="1.8"/>
      <rect id="Rectangle_41" data-name="Rectangle 41" width="50.3" height="9.9" transform="translate(758.03 439.525) rotate(-72.48)" fill="none" stroke="#ffd1b8" stroke-linecap="round" stroke-linejoin="round" stroke-width="1.8"/>
      <rect id="Rectangle_42" data-name="Rectangle 42" width="10.3" height="36.6" transform="translate(792.4 406.5)" fill="none" stroke="#ffd1b8" stroke-linecap="round" stroke-linejoin="round" stroke-width="1.8"/>
      <rect id="Rectangle_43" data-name="Rectangle 43" width="9.9" height="50.3" transform="translate(669.1 293.9)" fill="none" stroke="#ffd1b8" stroke-linecap="round" stroke-linejoin="round" stroke-width="1.8"/>
      <rect id="Rectangle_44" data-name="Rectangle 44" width="10.3" height="36.6" transform="translate(679 307.7)" fill="none" stroke="#ffd1b8" stroke-linecap="round" stroke-linejoin="round" stroke-width="1.8"/>
      <rect id="Rectangle_45" data-name="Rectangle 45" width="9.9" height="50.3" transform="translate(571.3 293.9)" fill="none" stroke="#ffd1b8" stroke-linecap="round" stroke-linejoin="round" stroke-width="1.8"/>
      <rect id="Rectangle_46" data-name="Rectangle 46" width="50.3" height="9.9" transform="translate(546.834 340.719) rotate(-72.48)" fill="none" stroke="#ffd1b8" stroke-linecap="round" stroke-linejoin="round" stroke-width="1.8"/>
      <rect id="Rectangle_47" data-name="Rectangle 47" width="10.3" height="36.6" transform="translate(581.2 307.7)" fill="none" stroke="#ffd1b8" stroke-linecap="round" stroke-linejoin="round" stroke-width="1.8"/>
      <path id="Path_700" data-name="Path 700" d="M812.4,300.5l1.1-14.9a1.65,1.65,0,0,0-1.7-1.8h-8.6a1.71,1.71,0,0,0-1.7,1.8l1.1,14.9s-9,5.8-8.9,10.6c.1,3.7,2.3,21.4,3.3,29.2a4.32,4.32,0,0,0,4.3,3.8h12.4a4.32,4.32,0,0,0,4.3-3.8c1-7.8,3.2-25.5,3.3-29.2C821.4,306.3,812.4,300.5,812.4,300.5Z" fill="#ffd1b8"/>
      <path id="Path_701" data-name="Path 701" d="M712.2,399.6l1.1-14.9a1.65,1.65,0,0,0-1.7-1.8H703a1.71,1.71,0,0,0-1.7,1.8l1.1,14.9s-9,5.8-8.9,10.6c.1,3.7,2.3,21.4,3.3,29.2a4.32,4.32,0,0,0,4.3,3.8h12.4a4.32,4.32,0,0,0,4.3-3.8c1-7.8,3.2-25.5,3.3-29.2C721.2,405.4,712.2,399.6,712.2,399.6Z" fill="#ffd1b8"/>
      <line id="Line_104" data-name="Line 104" x2="955.8" transform="translate(173.2 547.6)" fill="none" stroke="#ffd1b8" stroke-linecap="round" stroke-linejoin="round" stroke-width="1.8"/>
      <path id="Path_702" data-name="Path 702" d="M281.3,363.9H205.8a6.12,6.12,0,0,1-6.1-6.1V342a6.12,6.12,0,0,1,6.1-6.1h75.5a6.12,6.12,0,0,1,6.1,6.1v15.8a6.06,6.06,0,0,1-6.1,6.1Z" fill="none" stroke="#ffd1b8" stroke-linecap="round" stroke-linejoin="round" stroke-width="1.8"/>
      <line id="Line_105" data-name="Line 105" x2="0.9" transform="translate(207.2 340.5)" fill="none" stroke="#ffd1b8" stroke-linecap="round" stroke-linejoin="round" stroke-width="1.8"/>
      <path id="Path_703" data-name="Path 703" d="M273.2,356.3H214a5,5,0,0,1,5-5h49.1a5,5,0,0,1,5.1,5Z" fill="none" stroke="#ffd1b8" stroke-linecap="round" stroke-linejoin="round" stroke-width="1.8"/>
      <rect id="Rectangle_48" data-name="Rectangle 48" width="42.6" height="21.5" transform="translate(222.3 314.5)" fill="none" stroke="#ffd1b8" stroke-linecap="round" stroke-linejoin="round" stroke-width="1.8"/>
    </g>
    <path id="Path_705" data-name="Path 705" d="M587.4,408.5l-39.4-15a2.84,2.84,0,0,1-1.8-2.7h0l63.2-9.2s7.8,13.1,7,13.4S587.4,408.5,587.4,408.5Z" fill="#22272e"/>
    <path id="Path_706" data-name="Path 706" d="M546.2,390.9l42.2,14.8L612.6,394s-5.3-11.9-5.9-11.8S546.2,390.9,546.2,390.9Z" fill="#63737a"/>
    <path id="Path_707" data-name="Path 707" d="M586.6,406l13.8-58.6a6.61,6.61,0,0,1,6.1-5l63.3-1.7a2.44,2.44,0,0,1,2.4,3.1l-12.9,45a6.49,6.49,0,0,1-4.7,4.5l-65,15.6a2.39,2.39,0,0,1-3-2.9Z" fill="#22272e"/>
    <ellipse id="Ellipse_162" data-name="Ellipse 162" cx="6" cy="3.8" rx="6" ry="3.8" transform="translate(630.33 374.667) rotate(-73.74)" fill="#63737a"/>
    <path id="Path_708" data-name="Path 708" d="M687.2,311.1,542.4,303a6.49,6.49,0,0,1-6.1-7.1l12.4-126.5a8.74,8.74,0,0,1,7.9-7.8L708.4,150a6.43,6.43,0,0,1,6.9,7.3l-19,146.3a8.75,8.75,0,0,1-9.1,7.5Z" fill="#63737a"/>
    <path id="Path_709" data-name="Path 709" d="M683.2,311.1,537.7,303a6.43,6.43,0,0,1-6.1-7.1L544,168.8a8.66,8.66,0,0,1,8-7.8l152.5-11.7a6.55,6.55,0,0,1,7,7.3l-19.1,147a9,9,0,0,1-9.2,7.5Z" fill="#22272e"/>
    <path id="Path_710" data-name="Path 710" d="M680.5,248.4l-2.1,16.5-20.6-.4,1.9-16.2Z" fill="#fff"/>
    <path id="Path_711" data-name="Path 711" d="M639.1,248.2l-1.9,15.9-21-.3,1.7-15.6Z" fill="#f4c2c9"/>
    <path id="Path_712" data-name="Path 712" d="M657.8,264.5l-2,16.1-20.5-.7,1.9-15.8Z" fill="#b0d7c0"/>
    <path id="Path_713" data-name="Path 713" d="M575.1,176.7l-17.1,1a1.11,1.11,0,0,1-1.1-1.1l.3-2.9a1.91,1.91,0,0,1,1.6-1.6L576,171a1,1,0,0,1,1.1,1.1l-.3,3a1.91,1.91,0,0,1-1.7,1.6Z" fill="#63737a"/>
    <path id="Path_714" data-name="Path 714" d="M585.9,211.2l-30.2.9a2.1,2.1,0,0,1-2.1-2.3l1.6-15.8a2.78,2.78,0,0,1,2.6-2.5l30.4-1.5a2,2,0,0,1,2.1,2.3l-1.8,16.4a2.7,2.7,0,0,1-2.6,2.5Z" fill="#b0d7c0"/>
    <path id="Path_715" data-name="Path 715" d="M632.5,209.8l-33.1,1a2.1,2.1,0,0,1-2.1-2.3l1.8-16.7a2.78,2.78,0,0,1,2.6-2.5l33.4-1.6a2,2,0,0,1,2.1,2.3l-2,17.3a2.88,2.88,0,0,1-2.7,2.5Z" fill="#ffb48b"/>
    <path id="Path_716" data-name="Path 716" d="M683.2,208.3l-36.5,1.1a2.05,2.05,0,0,1-2.1-2.3l2.1-17.6a2.87,2.87,0,0,1,2.6-2.5l36.7-1.8a2,2,0,0,1,2.1,2.3l-2.3,18.3a2.78,2.78,0,0,1-2.6,2.5Z" fill="#f4c2c9"/>
    <path id="Path_717" data-name="Path 717" d="M593.6,294.4l75.8,3.4a5.41,5.41,0,0,0,5.5-4.6l8.4-66.2a5.21,5.21,0,0,0-5.3-5.9l-77.5,1.5a5.38,5.38,0,0,0-5.2,4.7l-6.7,61.3a5.25,5.25,0,0,0,5,5.8Z" fill="none" stroke="#63737a" stroke-linecap="round" stroke-linejoin="round" stroke-width="1.8"/>
    <line id="Line_106" data-name="Line 106" y1="0.9" x2="88" transform="translate(594.6 231.8)" fill="none" stroke="#63737a" stroke-linecap="round" stroke-linejoin="round" stroke-width="1.8"/>
    <line id="Line_107" data-name="Line 107" x1="7.1" y2="62.1" transform="translate(612.6 233.1)" fill="none" stroke="#63737a" stroke-linecap="round" stroke-linejoin="round" stroke-width="1.8"/>
    <line id="Line_108" data-name="Line 108" x1="7.5" y2="63.3" transform="translate(633.4 232.9)" fill="none" stroke="#63737a" stroke-linecap="round" stroke-linejoin="round" stroke-width="1.8"/>
    <line id="Line_109" data-name="Line 109" x1="7.8" y2="64.3" transform="translate(653.8 232.8)" fill="none" stroke="#63737a" stroke-linecap="round" stroke-linejoin="round" stroke-width="1.8"/>
    <line id="Line_110" data-name="Line 110" x2="62.5" y2="0.2" transform="translate(618 248.2)" fill="none" stroke="#63737a" stroke-linecap="round" stroke-linejoin="round" stroke-width="1.8"/>
    <line id="Line_111" data-name="Line 111" x2="62.2" y2="1.1" transform="translate(616.2 263.8)" fill="none" stroke="#63737a" stroke-linecap="round" stroke-linejoin="round" stroke-width="1.8"/>
    <line id="Line_112" data-name="Line 112" x2="61.9" y2="1.9" transform="translate(614.4 279.3)" fill="none" stroke="#63737a" stroke-linecap="round" stroke-linejoin="round" stroke-width="1.8"/>
    <path id="Path_718" data-name="Path 718" d="M683.8,166.9a3.11,3.11,0,0,1-2.4,2.7c-1.2.1-2-1-1.8-2.4a3.11,3.11,0,0,1,2.4-2.7,1.89,1.89,0,0,1,1.8,2.4Z" fill="#63737a"/>
    <path id="Path_719" data-name="Path 719" d="M674,167.6a2.78,2.78,0,0,1-2.4,2.6c-1.2.1-2-1-1.8-2.4a2.78,2.78,0,0,1,2.4-2.6C673.4,165.1,674.2,166.2,674,167.6Z" fill="#63737a"/>
    <path id="Path_720" data-name="Path 720" d="M664.4,168.2a2.88,2.88,0,0,1-2.4,2.6c-1.1.1-1.9-1-1.8-2.3a2.88,2.88,0,0,1,2.4-2.6C663.8,165.7,664.5,166.8,664.4,168.2Z" fill="#63737a"/>
    <path id="Path_721" data-name="Path 721" d="M376.2,290.9l-93.3,7.4c-2.9.2-5.5-2.4-5.7-5.8l-5.5-86.4c-.2-3.4,2.3-6.5,5.2-6.2l89.9,9a6.2,6.2,0,0,1,5.5,5.7l7.3,72.1a3.63,3.63,0,0,1-3.4,4.2Z" fill="#c46b3b"/>
    <path id="Path_722" data-name="Path 722" d="M380.7,290.1l-94.4,7.5c-3,.2-5.6-2.4-5.8-5.8l-5.4-86.9c-.2-3.5,2.4-6.6,5.3-6.3l91,8.9a6.29,6.29,0,0,1,5.6,5.7l7.4,72.5a4.19,4.19,0,0,1-3.7,4.4Z" fill="#ffb48b"/>
    <path id="Path_723" data-name="Path 723" d="M318.4,280l-21.6,1a3.07,3.07,0,0,1-3-3l-4-58.7c-.1-1.6,1.1-3.1,2.5-3l21.3,1.5a2.93,2.93,0,0,1,2.6,2.9l4.5,56.4a2.69,2.69,0,0,1-2.3,2.9Z" fill="#22272e"/>
    <path id="Path_724" data-name="Path 724" d="M320.3,279.1l-21.7,1.1a3.07,3.07,0,0,1-3-3l-4-58.9c-.1-1.6,1.1-3.1,2.5-3l21.4,1.5a2.93,2.93,0,0,1,2.6,2.9l4.5,56.6A2.65,2.65,0,0,1,320.3,279.1Z" fill="#6dafa7"/>
    <line id="Line_113" data-name="Line 113" x2="3.3" y2="0.2" transform="translate(302.6 219.8)" fill="none" stroke="#22272e" stroke-linecap="round" stroke-linejoin="round" stroke-width="1.8"/>
    <line id="Line_114" data-name="Line 114" x2="0.3" transform="translate(307.7 220.1)" fill="none" stroke="#22272e" stroke-linecap="round" stroke-linejoin="round" stroke-width="1.8"/>
    <line id="Line_115" data-name="Line 115" x2="26.6" y2="1.5" transform="translate(291.9 222.9)" fill="none" stroke="#22272e" stroke-linecap="round" stroke-linejoin="round" stroke-width="1.8"/>
    <line id="Line_116" data-name="Line 116" y1="0.9" x2="26.9" transform="translate(295.3 271.7)" fill="none" stroke="#22272e" stroke-linecap="round" stroke-linejoin="round" stroke-width="1.8"/>
    <path id="Path_725" data-name="Path 725" d="M363.8,220.8l-21-1.6a2,2,0,0,0-2.2,2.2l.7,8.2a2.06,2.06,0,0,0,2,1.9l21,.8a2.08,2.08,0,0,0,2.2-2.3l-.7-7.4a2.35,2.35,0,0,0-2-1.8Z" fill="#6dafa7"/>
    <path id="Path_726" data-name="Path 726" d="M347.8,241.8a2.36,2.36,0,0,1-2.5,2.5,3,3,0,0,1-3-2.6,2.39,2.39,0,0,1,2.6-2.5,3,3,0,0,1,2.9,2.6Z" fill="#6dafa7"/>
    <line id="Line_117" data-name="Line 117" x2="14.3" y2="0.2" transform="translate(352.4 241.9)" fill="none" stroke="#63737a" stroke-linecap="round" stroke-linejoin="round" stroke-width="1.8"/>
    <path id="Path_727" data-name="Path 727" d="M348.6,250.6a2.49,2.49,0,0,1-2.5,2.6,3,3,0,0,1-3-2.5,2.46,2.46,0,0,1,2.6-2.6,2.92,2.92,0,0,1,2.9,2.5Z" fill="#6dafa7"/>
    <line id="Line_118" data-name="Line 118" y1="0.2" x2="14.2" transform="translate(353.2 250.3)" fill="none" stroke="#63737a" stroke-linecap="round" stroke-linejoin="round" stroke-width="1.8"/>
    <path id="Path_728" data-name="Path 728" d="M349.4,259.3a2.49,2.49,0,0,1-2.5,2.6,2.79,2.79,0,0,1-3-2.4,2.46,2.46,0,0,1,2.6-2.6A2.82,2.82,0,0,1,349.4,259.3Z" fill="#6dafa7"/>
    <line id="Line_119" data-name="Line 119" y1="0.6" x2="14.2" transform="translate(353.9 258.5)" fill="none" stroke="#63737a" stroke-linecap="round" stroke-linejoin="round" stroke-width="1.8"/>
    <path id="Path_729" data-name="Path 729" d="M333.4,354.6c-1.3,0,4.5-13.8,10.5-11.9S341,354.7,333.4,354.6Z" fill="#6dafa7"/>
    <path id="Path_730" data-name="Path 730" d="M334.1,356.5s-6.5-8.2-13-6.3S322.7,361.3,334.1,356.5Z" fill="#6dafa7"/>
    <path id="Path_731" data-name="Path 731" d="M332.2,348.3s9.7-16.7,5.6-20.7C330.5,320.5,321.3,341.5,332.2,348.3Z" fill="#6dafa7"/>
    <path id="Path_732" data-name="Path 732" d="M348.4,386.3l-14.2,3.2a8.39,8.39,0,0,1-9.6-5l-6.5-15.6a5.27,5.27,0,0,1,3.7-7.2l25.8-5.8a5.23,5.23,0,0,1,6.4,4.9l.8,16.8A8.1,8.1,0,0,1,348.4,386.3Z" fill="#22272e"/>
    <path id="Path_733" data-name="Path 733" d="M335,360s-4.5-13.7-2.8-20.1" fill="none" stroke="#000" stroke-linecap="round" stroke-linejoin="round" stroke-width="1.8"/>
    <path id="Path_734" data-name="Path 734" d="M385.6,416.6s-.6,6.9-2.2,11-4.4,9.1-3.5,16,7.5,17,10.1,16.7,1.2-4.7,1.2-4.7,2.6,3.7,5.1,2.6-.9-9.1-.9-9.1,3.1,5,5.9,4.4-2.8-8.5-2.8-8.5,3.7,4.1,4.7,3.5,1.9-.3,0-5,1.2-20,1.1-23.5S390.6,413.4,385.6,416.6Z" fill="#f4c2c9"/>
    <path id="Path_735" data-name="Path 735" d="M422.7,430.5l19.5,40.8a3.21,3.21,0,0,1-1.5,4.3l-57.9,29.2a3.22,3.22,0,0,1-4.5-1.7l-21.7-55.8a3.24,3.24,0,0,1,2.3-4.3L419,428.8a3.12,3.12,0,0,1,3.7,1.7Z" fill="#ffb48b"/>
    <path id="Path_736" data-name="Path 736" d="M395.2,476l3.2,7.7a1.87,1.87,0,0,1-1,2.5l-8.2,3.7a1.9,1.9,0,0,1-2.6-1l-3.3-8.1a1.92,1.92,0,0,1,1.1-2.5l8.2-3.3A2.12,2.12,0,0,1,395.2,476Z" fill="#6dafa7"/>
    <line id="Line_120" data-name="Line 120" x1="8.2" y1="20.3" transform="translate(370.7 449.6)" fill="none" stroke="#63737a" stroke-linecap="round" stroke-linejoin="round" stroke-width="1.8"/>
    <line id="Line_121" data-name="Line 121" x1="8.2" y1="19.8" transform="translate(376.8 447.9)" fill="none" stroke="#63737a" stroke-linecap="round" stroke-linejoin="round" stroke-width="1.8"/>
    <path id="Path_737" data-name="Path 737" d="M413.5,468.6l3,6.8a1.87,1.87,0,0,1-1,2.5l-6.4,2.9a2,2,0,0,1-2.6-1l-3.1-7.1a2,2,0,0,1,1-2.6l6.5-2.6A2.18,2.18,0,0,1,413.5,468.6Z" fill="#f4c2c9"/>
    <line id="Line_122" data-name="Line 122" x1="8" y1="18.6" transform="translate(391.1 444)" fill="none" stroke="#63737a" stroke-linecap="round" stroke-linejoin="round" stroke-width="1.8"/>
    <line id="Line_123" data-name="Line 123" x1="8" y1="18.1" transform="translate(396.3 442.6)" fill="none" stroke="#63737a" stroke-linecap="round" stroke-linejoin="round" stroke-width="1.8"/>
    <path id="Path_738" data-name="Path 738" d="M428.5,460.6l4.4,9.4-8.5,3.9-4.5-9.8Z" fill="none" stroke="#000" stroke-linecap="round" stroke-linejoin="round" stroke-width="1.8"/>
    <line id="Line_124" data-name="Line 124" x1="7.8" y1="17.1" transform="translate(408.6 439.3)" fill="none" stroke="#63737a" stroke-linecap="round" stroke-linejoin="round" stroke-width="1.8"/>
    <line id="Line_125" data-name="Line 125" x1="7.7" y1="16.7" transform="translate(413.1 438.1)" fill="none" stroke="#63737a" stroke-linecap="round" stroke-linejoin="round" stroke-width="1.8"/>
    <path id="Path_739" data-name="Path 739" d="M405.1,418.9a47.43,47.43,0,0,0,1.6,9.1,86,86,0,0,1,2.2,15.6c.1,2.7-4,1.8-6.3-2.4s-3.4-5.4-5.4-6.5a9.17,9.17,0,0,1-5-6C391,425,401.7,414.8,405.1,418.9Z" fill="#f4c2c9"/>
    <path id="Path_740" data-name="Path 740" d="M437.8,253.1c-5.7,0-21.1,2.2-34.3,31.7-11,24.5-17.4,38.2-19,49.3s-2.9,37.6-1.8,57,2,27.6,2,27.6,9,5.9,20.9,0c0,0,3.1-23.8,5.5-37.8s3.3-28.1,2.7-34.4c0,0,15.7-27.6,22.7-38.6C443.7,296.9,470,253.1,437.8,253.1Z" fill="#6dafa7"/>
    <path id="Path_741" data-name="Path 741" d="M384.1,411.2a26.32,26.32,0,0,0,22.5,0" fill="none" stroke="#000" stroke-linecap="round" stroke-linejoin="round" stroke-width="1.8"/>
    <path id="Path_742" data-name="Path 742" d="M384.9,331.4a8.62,8.62,0,0,1,7-5.4c6.8-1,10.6,5.9,9,14.1s-7.8,12.3-12.8,11.4a5.88,5.88,0,0,1-4.5-3.7" fill="none" stroke="#000" stroke-linecap="round" stroke-linejoin="round" stroke-width="1.8"/>
    <path id="Path_743" data-name="Path 743" d="M514.5,645.3a14.54,14.54,0,0,1,5.8-10c5.4-3.8,11.6,3.2-2.5,8.9" fill="none" stroke="#63737a" stroke-linecap="round" stroke-linejoin="round" stroke-width="1.8"/>
    <path id="Path_744" data-name="Path 744" d="M519.8,643.4s5.8-2.7,8.8.7-5.5,5.7-10,2.7" fill="none" stroke="#63737a" stroke-linecap="round" stroke-linejoin="round" stroke-width="1.8"/>
    <path id="Path_745" data-name="Path 745" d="M427.7,645.3s8.5-9.9,15.9-10-1,8.2-10.3,11.1" fill="none" stroke="#63737a" stroke-linecap="round" stroke-linejoin="round" stroke-width="1.8"/>
    <path id="Path_746" data-name="Path 746" d="M434.1,645.3s10.4-4,11.7,0-11,2.9-11,2.9" fill="none" stroke="#63737a" stroke-linecap="round" stroke-linejoin="round" stroke-width="1.8"/>
    <path id="Path_747" data-name="Path 747" d="M489.5,619.3s-.4,17.8,0,22.7,9.4,8,16.6,5.7,7.4-7,7.4-7,1.6-21.5,1.6-25.6S489.6,611.2,489.5,619.3Z" fill="#f4c2c9"/>
    <path id="Path_748" data-name="Path 748" d="M489.5,619.3s-.1,4.3-.1,9.3c8.1,3.1,18,2.1,25,.9.4-6,.8-12.5.8-14.6C515.1,610.9,489.6,611.2,489.5,619.3Z" fill="#22272e"/>
    <path id="Path_749" data-name="Path 749" d="M489.3,639s-1.4-.2-2.8,10.4-2.5,17,1.7,17.8,44.1,0,48.4,0,7.2-2.3,7-5.1-11-7.2-16-11.2-12.3-8.8-13.1-11.5c-1.4-4.5-4.2-6.2-6.6-.4-1.9,4.5-6.9,5-13.1,4.2A6.42,6.42,0,0,1,489.3,639Z" fill="#22272e"/>
    <path id="Path_750" data-name="Path 750" d="M529.1,652s-8.3,1.8-7.1,12.1" fill="none" stroke="#63737a" stroke-linecap="round" stroke-linejoin="round" stroke-width="1.8"/>
    <path id="Path_751" data-name="Path 751" d="M408,615.9s-2.2,22.1-2,25.1,9.8,3.9,16,3.1,7-2.7,7-2.7,4.9-20.7,4.9-25.4S410,610.1,408,615.9Z" fill="#f4c2c9"/>
    <path id="Path_752" data-name="Path 752" d="M408,615.9s-.4,3.9-.8,8.7c8.1,3.8,16.4,4.1,24.9,3.4,1-5,1.9-10,1.9-12C434.1,611.2,410,610.1,408,615.9Z" fill="#22272e"/>
    <path id="Path_753" data-name="Path 753" d="M406.1,635.3a66.093,66.093,0,0,0-2.3,10c-.6,4.7-4.9,20.1-2,22.3s44.4,0,48,0,8.1-2.2,7.6-6.1-8.2-5.5-13.8-9.4A120.663,120.663,0,0,1,430.8,641s1.2-6,.2-7.7-4.1,5.1-6.3,5.9-6.9,1.5-14.4,0a5.34,5.34,0,0,1-4.2-3.9Z" fill="#22272e"/>
    <path id="Path_754" data-name="Path 754" d="M443.6,652s-7,2.4-7.9,12.1" fill="none" stroke="#63737a" stroke-linecap="round" stroke-linejoin="round" stroke-width="1.8"/>
    <path id="Path_755" data-name="Path 755" d="M512.6,372.5s3.5,12.1,5.5,37.2,4.7,70.9,5.5,79.9.8,32.9-1.6,61.8-1.2,52.8-.4,58.3-3.1,10.2-7,11.7-21.5,1.6-25.1,0c0,0-8.6-4.7-7.4-12.9s1.6-24.7-2.3-55.2,0-52.5,0-52.5-4.5-13.8-9.6-28.1c-1.8-5.1-3.7-10.3-5.4-15a116.879,116.879,0,0,0-6.2-14.5c-5.1-8.6-9-46.2-3.1-65.8C461.3,358,502.8,358,512.6,372.5Z" fill="#22272e"/>
    <path id="Path_756" data-name="Path 756" d="M421,371.3s-10.2,27.4-7.4,58.7,8.6,67.7,7.4,70.5-5.5,16.8-9.8,48.1-13.7,55.2-11.4,61.1,8.8,9,10.5,9.4,19.7,2.3,24,1.6,11-7.8,11-16,.8-25.8,9-54,11.1-36.5,14-49.4,5.6-81.3,5.6-81.3,7.3-34.1-15.9-41.1C434.8,371.7,421,371.3,421,371.3Z" fill="#22272e"/>
    <path id="Path_757" data-name="Path 757" d="M443.3,442s16.3-2.6,22.2,1.6" fill="none" stroke="#63737a" stroke-linecap="round" stroke-linejoin="round" stroke-width="1.8"/>
    <path id="Path_758" data-name="Path 758" d="M420.4,396s9.9,3.5,26.9,5.2c0,0-1.8,17.6-2.9,21.3s-8.6,6.9-14.2,6.9c-5.2,0-10.9-5.7-12.1-9.9C416.6,413.8,420.4,396,420.4,396Z" fill="none" stroke="#63737a" stroke-linecap="round" stroke-linejoin="round" stroke-width="1.8"/>
    <path id="Path_759" data-name="Path 759" d="M466.5,401.4s16.8,1.8,29.3-2.8c0,0,1.9,18.9,1.6,22s-7.3,8.9-12.5,10.1c-4.4,1-11.6-2.3-15-5.3S466.5,401.4,466.5,401.4Z" fill="none" stroke="#63737a" stroke-linecap="round" stroke-linejoin="round" stroke-width="1.8"/>
    <path id="Path_760" data-name="Path 760" d="M519.1,424.5s-7.9-4.8-8.7-26" fill="none" stroke="#63737a" stroke-linecap="round" stroke-linejoin="round" stroke-width="1.8"/>
    <path id="Path_761" data-name="Path 761" d="M470.1,472.8c-1.8-5.1-3.7-10.3-5.4-15a116.89,116.89,0,0,0-6.2-14.5" fill="none" stroke="#63737a" stroke-linecap="round" stroke-linejoin="round" stroke-width="1.8"/>
    <path id="Path_762" data-name="Path 762" d="M429.9,499.4s12.1-2.7,19.4,0" fill="none" stroke="#63737a" stroke-linecap="round" stroke-linejoin="round" stroke-width="1.8"/>
    <path id="Path_763" data-name="Path 763" d="M479.7,500.9a26,26,0,0,1,12.2-1.4" fill="none" stroke="#63737a" stroke-linecap="round" stroke-linejoin="round" stroke-width="1.8"/>
    <path id="Path_764" data-name="Path 764" d="M411.6,622.6s-.4,3.5-.4,4.3" fill="none" stroke="#63737a" stroke-linecap="round" stroke-linejoin="round" stroke-width="1.8"/>
    <path id="Path_765" data-name="Path 765" d="M419.3,624.3s-.2,3.7-.4,4.4" fill="none" stroke="#63737a" stroke-linecap="round" stroke-linejoin="round" stroke-width="1.8"/>
    <path id="Path_766" data-name="Path 766" d="M429.1,624.7s-.5,3.5-.6,4" fill="none" stroke="#63737a" stroke-linecap="round" stroke-linejoin="round" stroke-width="1.8"/>
    <path id="Path_767" data-name="Path 767" d="M493.2,625.8v4.7" fill="none" stroke="#63737a" stroke-linecap="round" stroke-linejoin="round" stroke-width="1.8"/>
    <path id="Path_768" data-name="Path 768" d="M502.2,626.1a42.3,42.3,0,0,1-.6,4.9" fill="none" stroke="#63737a" stroke-linecap="round" stroke-linejoin="round" stroke-width="1.8"/>
    <path id="Path_769" data-name="Path 769" d="M511.3,626.1s-.2,3-.3,4.3" fill="none" stroke="#63737a" stroke-linecap="round" stroke-linejoin="round" stroke-width="1.8"/>
    <ellipse id="Ellipse_163" data-name="Ellipse 163" cx="7.2" cy="8.7" rx="7.2" ry="8.7" transform="translate(482.9 203.2)" fill="none" stroke="#000" stroke-linecap="round" stroke-linejoin="round" stroke-width="1.8"/>
    <path id="Path_770" data-name="Path 770" d="M490,192.3s2.6,4.6,1.8,14.5,1.4,18.1.2,24.6a13.94,13.94,0,0,1-9.3,10.6c-2.7.8-16.7,2.7-23.6-6.5s-13.2-36.3-2-41.5S485.3,187,490,192.3Z" fill="#f4c2c9"/>
    <path id="Path_771" data-name="Path 771" d="M491.9,231.4c1.3-6.6-1.1-14.6-.2-24.6s-1.8-14.5-1.8-14.5c-4.7-5.3-21.6-3.4-32.9,1.8-8.5,3.9-6.9,20.4-2.7,32.1,8.1,9,19.7,14.7,32.1,12.8a7.174,7.174,0,0,0,1.3-.1,12.84,12.84,0,0,0,4.2-7.5Z" fill="#f4c2c9"/>
    <path id="Path_772" data-name="Path 772" d="M454.4,226.2a39.087,39.087,0,0,0,4.7,9.4c6.9,9.2,20.8,7.2,23.6,6.5a14.84,14.84,0,0,0,5.1-3C487.2,239,476.6,245.7,454.4,226.2Z" fill="#e26e85"/>
    <line id="Line_126" data-name="Line 126" y1="0.4" x2="12" transform="translate(485.3 211.4)" fill="none" stroke="#000" stroke-linecap="round" stroke-linejoin="round" stroke-width="1.8"/>
    <path id="Path_773" data-name="Path 773" d="M471,236.2s5.2,1.9,8.3,5.3c0,0-1,5.8-.6,8.7s-3.8,9.1-12.9,8.6-16.9-7.4-16.9-7.4,1.1-12.6,2.6-16.3S471,236.2,471,236.2Z" fill="#f4c2c9"/>
    <path id="Path_774" data-name="Path 774" d="M476.6,239.1h0a5.61,5.61,0,0,1,2.3,5.2,29.077,29.077,0,0,0-.2,5.8" fill="none" stroke="#e26e85" stroke-linecap="round" stroke-linejoin="round" stroke-width="1.8"/>
    <path id="Path_775" data-name="Path 775" d="M484.6,212.4a8.52,8.52,0,0,0,2.9-4.2c.7-2.6,1.1-4.6,1.1-4.6a11.39,11.39,0,0,0,3.2,2c1.9.7,6.8-4.5,7.5-11.6s-2.6-14.5-10.7-17.6c-3.1-1.2-7.8-1.4-12.5-1.1a39.44,39.44,0,0,0-18.5,6.1,11.5,11.5,0,0,1-4.4,1.6c-5.8.8-9.4,3.1-12.8,11.2s-3.8,14.3.8,24,6,10.3,6.7,14.3-.2,8.5,3,7.8c8.8-2,17.8.5,19.9-.8s9.1-13.7,9.9-19.7S483.3,211.7,484.6,212.4Z" fill="#22272e"/>
    <path id="Path_776" data-name="Path 776" d="M485.9,213s-2.1-5.6-6.1-3.9c-5.4,2.3-2.1,11.8,3.1,13.4" fill="#f4c2c9"/>
    <path id="Path_777" data-name="Path 777" d="M480,214a2.23,2.23,0,0,1,0-1.4,1.53,1.53,0,0,1,.5-.7,1.39,1.39,0,0,1,1.5-.3,1,1,0,0,1,.5.4c.1.1.2.3.3.4s.1.3.2.4a3.18,3.18,0,0,1,.2,1.3c.1.8,0,1.6.1,2.1s.5.9,1.4,1.1a1.48,1.48,0,0,1-1.3.4,2.16,2.16,0,0,1-1.4-.9,6.9,6.9,0,0,1-.6-2.6c0-.4-.1-.8-.1-1v-.3h.1c-.1-.1-.3-.1-.6.1a2.54,2.54,0,0,0-.8,1Z"/>
    <path id="Path_778" data-name="Path 778" d="M448,250.2s.9-6.4,1.5-7.5,15.6-2.2,24.2,0,7.8,9.5,7.8,9.5S466,250.4,448,250.2Z" fill="#6dafa7"/>
    <path id="Path_779" data-name="Path 779" d="M418.1,273.5c1.7-9.6,5.3-24.5,40-24.6,29.6-.1,43.3,4.3,50.5,9.8s8,20,5.7,42.7-2.7,36.2-1.4,50.3,7,20.2-.6,27.8a176.927,176.927,0,0,1-49.9,7.2c-28,0-41.9-7.8-42.5-10s-3.3-2.9-.8-8.6,4.2-25.8,2.6-37.9S413.9,297.6,418.1,273.5Z" fill="#ffb48b"/>
    <g id="Group_11" data-name="Group 11" clip-path="url(#clip-path-2)">
      <rect id="Rectangle_49" data-name="Rectangle 49" width="5.1" height="5.1" transform="matrix(0.7, -0.714, 0.714, 0.7, 422.348, 389.039)" fill="#cb7d53"/>
      <rect id="Rectangle_50" data-name="Rectangle 50" width="5.1" height="5.1" transform="matrix(0.7, -0.714, 0.714, 0.7, 422.172, 372.461)" fill="#cb7d53"/>
      <rect id="Rectangle_51" data-name="Rectangle 51" width="5.1" height="5.1" transform="matrix(0.7, -0.714, 0.714, 0.7, 421.917, 355.804)" fill="#cb7d53"/>
      <rect id="Rectangle_52" data-name="Rectangle 52" width="5.1" height="5.1" transform="matrix(0.7, -0.714, 0.714, 0.7, 421.81, 339.157)" fill="#cb7d53"/>
      <rect id="Rectangle_53" data-name="Rectangle 53" width="5.1" height="5.1" transform="matrix(0.7, -0.714, 0.714, 0.7, 421.624, 322.579)" fill="#cb7d53"/>
      <rect id="Rectangle_54" data-name="Rectangle 54" width="5.1" height="5.1" transform="matrix(0.7, -0.714, 0.714, 0.7, 437.227, 388.888)" fill="#cb7d53"/>
      <rect id="Rectangle_55" data-name="Rectangle 55" width="5.1" height="5.1" transform="matrix(0.7, -0.714, 0.714, 0.7, 437.11, 372.241)" fill="#cb7d53"/>
      <rect id="Rectangle_56" data-name="Rectangle 56" width="5.1" height="5.1" transform="matrix(0.7, -0.714, 0.714, 0.7, 436.941, 355.67)" fill="#cb7d53"/>
      <rect id="Rectangle_57" data-name="Rectangle 57" width="5.1" height="5.1" transform="matrix(0.7, -0.714, 0.714, 0.7, 436.765, 339.092)" fill="#cb7d53"/>
      <rect id="Rectangle_58" data-name="Rectangle 58" width="5.1" height="5.1" transform="matrix(0.7, -0.714, 0.714, 0.7, 436.648, 322.435)" fill="#cb7d53"/>
      <rect id="Rectangle_59" data-name="Rectangle 59" width="5.1" height="5.1" transform="matrix(0.7, -0.714, 0.714, 0.7, 452.252, 388.754)" fill="#cb7d53"/>
      <rect id="Rectangle_60" data-name="Rectangle 60" width="5.1" height="5.1" transform="matrix(0.7, -0.714, 0.714, 0.7, 452.066, 372.176)" fill="#cb7d53"/>
      <rect id="Rectangle_61" data-name="Rectangle 61" width="5.1" height="5.1" transform="matrix(0.7, -0.714, 0.714, 0.7, 451.89, 355.45)" fill="#cb7d53"/>
      <rect id="Rectangle_62" data-name="Rectangle 62" width="5.1" height="5.1" transform="matrix(0.7, -0.714, 0.714, 0.7, 451.704, 338.872)" fill="#cb7d53"/>
      <rect id="Rectangle_63" data-name="Rectangle 63" width="5.1" height="5.1" transform="matrix(0.7, -0.714, 0.714, 0.7, 451.535, 322.301)" fill="#cb7d53"/>
      <rect id="Rectangle_64" data-name="Rectangle 64" width="5.1" height="5.1" transform="matrix(0.7, -0.714, 0.714, 0.7, 467.128, 388.61)" fill="#cb7d53"/>
      <rect id="Rectangle_65" data-name="Rectangle 65" width="5.1" height="5.1" transform="matrix(0.7, -0.714, 0.714, 0.7, 467.021, 371.963)" fill="#cb7d53"/>
      <rect id="Rectangle_66" data-name="Rectangle 66" width="5.1" height="5.1" transform="matrix(0.7, -0.714, 0.714, 0.7, 466.835, 355.385)" fill="#cb7d53"/>
      <rect id="Rectangle_67" data-name="Rectangle 67" width="5.1" height="5.1" transform="matrix(0.7, -0.714, 0.714, 0.7, 466.659, 338.797)" fill="#cb7d53"/>
      <rect id="Rectangle_68" data-name="Rectangle 68" width="5.1" height="5.1" transform="matrix(0.7, -0.714, 0.714, 0.7, 466.553, 322.15)" fill="#cb7d53"/>
      <rect id="Rectangle_69" data-name="Rectangle 69" width="5.1" height="5.1" transform="matrix(0.7, -0.714, 0.714, 0.7, 482.16, 388.469)" fill="#cb7d53"/>
      <rect id="Rectangle_70" data-name="Rectangle 70" width="5.1" height="5.1" transform="matrix(0.7, -0.714, 0.714, 0.7, 481.984, 371.881)" fill="#cb7d53"/>
      <rect id="Rectangle_71" data-name="Rectangle 71" width="5.1" height="5.1" transform="matrix(0.7, -0.714, 0.714, 0.7, 481.798, 355.165)" fill="#cb7d53"/>
      <rect id="Rectangle_72" data-name="Rectangle 72" width="5.1" height="5.1" transform="matrix(0.7, -0.714, 0.714, 0.7, 481.622, 338.587)" fill="#cb7d53"/>
      <rect id="Rectangle_73" data-name="Rectangle 73" width="5.1" height="5.1" transform="matrix(0.7, -0.714, 0.714, 0.7, 481.436, 322.009)" fill="#cb7d53"/>
      <rect id="Rectangle_74" data-name="Rectangle 74" width="5.1" height="5.1" transform="matrix(0.7, -0.714, 0.714, 0.7, 497.108, 388.249)" fill="#cb7d53"/>
      <rect id="Rectangle_75" data-name="Rectangle 75" width="5.1" height="5.1" transform="matrix(0.7, -0.714, 0.714, 0.7, 496.923, 371.671)" fill="#cb7d53"/>
      <rect id="Rectangle_76" data-name="Rectangle 76" width="5.1" height="5.1" transform="matrix(0.7, -0.714, 0.714, 0.7, 496.754, 355.1)" fill="#cb7d53"/>
      <rect id="Rectangle_77" data-name="Rectangle 77" width="5.1" height="5.1" transform="matrix(0.7, -0.714, 0.714, 0.7, 496.637, 338.443)" fill="#cb7d53"/>
      <rect id="Rectangle_78" data-name="Rectangle 78" width="5.1" height="5.1" transform="matrix(0.7, -0.714, 0.714, 0.7, 496.461, 321.865)" fill="#cb7d53"/>
      <rect id="Rectangle_79" data-name="Rectangle 79" width="5.1" height="5.1" transform="matrix(0.7, -0.714, 0.714, 0.7, 512.054, 388.184)" fill="#cb7d53"/>
      <rect id="Rectangle_80" data-name="Rectangle 80" width="5.1" height="5.1" transform="matrix(0.7, -0.714, 0.714, 0.7, 511.947, 371.527)" fill="#cb7d53"/>
      <rect id="Rectangle_81" data-name="Rectangle 81" width="5.1" height="5.1" transform="matrix(0.7, -0.714, 0.714, 0.7, 511.692, 354.88)" fill="#cb7d53"/>
      <rect id="Rectangle_82" data-name="Rectangle 82" width="5.1" height="5.1" transform="matrix(0.7, -0.714, 0.714, 0.7, 511.516, 338.302)" fill="#cb7d53"/>
      <rect id="Rectangle_83" data-name="Rectangle 83" width="5.1" height="5.1" transform="matrix(0.7, -0.714, 0.714, 0.7, 511.409, 321.645)" fill="#cb7d53"/>
      <rect id="Rectangle_84" data-name="Rectangle 84" width="5.1" height="5.1" transform="matrix(0.7, -0.714, 0.714, 0.7, 421.448, 306.001)" fill="#cb7d53"/>
      <rect id="Rectangle_85" data-name="Rectangle 85" width="5.1" height="5.1" transform="matrix(0.7, -0.714, 0.714, 0.7, 421.341, 289.344)" fill="#cb7d53"/>
      <rect id="Rectangle_86" data-name="Rectangle 86" width="5.1" height="5.1" transform="matrix(0.7, -0.714, 0.714, 0.7, 421.155, 272.765)" fill="#cb7d53"/>
      <rect id="Rectangle_87" data-name="Rectangle 87" width="5.1" height="5.1" transform="matrix(0.7, -0.714, 0.714, 0.7, 420.979, 256.187)" fill="#cb7d53"/>
      <rect id="Rectangle_88" data-name="Rectangle 88" width="5.1" height="5.1" transform="matrix(0.7, -0.714, 0.714, 0.7, 436.404, 305.788)" fill="#cb7d53"/>
      <rect id="Rectangle_89" data-name="Rectangle 89" width="5.1" height="5.1" transform="matrix(0.7, -0.714, 0.714, 0.7, 436.218, 289.21)" fill="#cb7d53"/>
      <rect id="Rectangle_90" data-name="Rectangle 90" width="5.1" height="5.1" transform="matrix(0.7, -0.714, 0.714, 0.7, 436.111, 272.552)" fill="#cb7d53"/>
      <rect id="Rectangle_91" data-name="Rectangle 91" width="5.1" height="5.1" transform="matrix(0.7, -0.714, 0.714, 0.7, 435.925, 255.974)" fill="#cb7d53"/>
      <rect id="Rectangle_92" data-name="Rectangle 92" width="5.1" height="5.1" transform="matrix(0.7, -0.714, 0.714, 0.7, 451.418, 305.644)" fill="#cb7d53"/>
      <rect id="Rectangle_93" data-name="Rectangle 93" width="5.1" height="5.1" transform="matrix(0.7, -0.714, 0.714, 0.7, 451.242, 289.066)" fill="#cb7d53"/>
      <rect id="Rectangle_94" data-name="Rectangle 94" width="5.1" height="5.1" transform="matrix(0.7, -0.714, 0.714, 0.7, 451.066, 272.488)" fill="#cb7d53"/>
      <rect id="Rectangle_95" data-name="Rectangle 95" width="5.1" height="5.1" transform="matrix(0.7, -0.714, 0.714, 0.7, 450.949, 255.84)" fill="#cb7d53"/>
      <rect id="Rectangle_96" data-name="Rectangle 96" width="5.1" height="5.1" transform="matrix(0.7, -0.714, 0.714, 0.7, 466.374, 305.565)" fill="#cb7d53"/>
      <rect id="Rectangle_97" data-name="Rectangle 97" width="5.1" height="5.1" transform="matrix(0.7, -0.714, 0.714, 0.7, 466.191, 288.856)" fill="#cb7d53"/>
      <rect id="Rectangle_98" data-name="Rectangle 98" width="5.1" height="5.1" transform="matrix(0.7, -0.714, 0.714, 0.7, 466.012, 272.275)" fill="#cb7d53"/>
      <rect id="Rectangle_99" data-name="Rectangle 99" width="5.1" height="5.1" transform="matrix(0.7, -0.714, 0.714, 0.7, 465.836, 255.696)" fill="#cb7d53"/>
      <rect id="Rectangle_100" data-name="Rectangle 100" width="5.1" height="5.1" transform="matrix(0.7, -0.714, 0.714, 0.7, 481.329, 305.352)" fill="#cb7d53"/>
      <rect id="Rectangle_101" data-name="Rectangle 101" width="5.1" height="5.1" transform="matrix(0.7, -0.714, 0.714, 0.7, 481.143, 288.774)" fill="#cb7d53"/>
      <rect id="Rectangle_102" data-name="Rectangle 102" width="5.1" height="5.1" transform="matrix(0.7, -0.714, 0.714, 0.7, 480.967, 272.195)" fill="#cb7d53"/>
      <rect id="Rectangle_103" data-name="Rectangle 103" width="5.1" height="5.1" transform="matrix(0.7, -0.714, 0.714, 0.7, 480.86, 255.548)" fill="#cb7d53"/>
      <rect id="Rectangle_104" data-name="Rectangle 104" width="5.1" height="5.1" transform="matrix(0.7, -0.714, 0.714, 0.7, 496.275, 305.287)" fill="#cb7d53"/>
      <rect id="Rectangle_105" data-name="Rectangle 105" width="5.1" height="5.1" transform="matrix(0.7, -0.714, 0.714, 0.7, 496.099, 288.561)" fill="#cb7d53"/>
      <rect id="Rectangle_106" data-name="Rectangle 106" width="5.1" height="5.1" transform="matrix(0.7, -0.714, 0.714, 0.7, 495.923, 271.983)" fill="#cb7d53"/>
      <rect id="Rectangle_107" data-name="Rectangle 107" width="5.1" height="5.1" transform="matrix(0.7, -0.714, 0.714, 0.7, 495.737, 255.404)" fill="#cb7d53"/>
      <rect id="Rectangle_108" data-name="Rectangle 108" width="5.1" height="5.1" transform="matrix(0.7, -0.714, 0.714, 0.7, 511.23, 305.074)" fill="#cb7d53"/>
      <rect id="Rectangle_109" data-name="Rectangle 109" width="5.1" height="5.1" transform="matrix(0.7, -0.714, 0.714, 0.7, 511.055, 288.496)" fill="#cb7d53"/>
      <rect id="Rectangle_110" data-name="Rectangle 110" width="5.1" height="5.1" transform="matrix(0.7, -0.714, 0.714, 0.7, 510.938, 271.849)" fill="#cb7d53"/>
      <rect id="Rectangle_111" data-name="Rectangle 111" width="5.1" height="5.1" transform="matrix(0.7, -0.714, 0.714, 0.7, 510.762, 255.27)" fill="#cb7d53"/>
    </g>
    <path id="Path_781" data-name="Path 781" d="M553.8,249s2.3-7.5,2-10.2-2.5-8.7-3.5-10.9-.2-8.4-.4-11.5,3.4-2.3,4.4.8a14,14,0,0,0,2.2,4.5s3.9-9,4.5-11.5,2.2-10.5,4.6-12.4,3.3.1,2,5.5a23.083,23.083,0,0,0-.8,6.1c0,.3,2.9.8,4.1,2.5a12.73,12.73,0,0,1,.9,3.3,5.4,5.4,0,0,1,2.4.6c.7.4,1.5,1.7,2.2,2.3a13,13,0,0,1,1.9,2.2c.9,1.3,1.6,3.9-1.1,14.9-1.5,6-4.2,8.1-6.2,22.1C570.7,271.3,551.8,257.9,553.8,249Z" fill="#f4c2c9"/>
    <path id="Path_782" data-name="Path 782" d="M555.4,242.3c-.6,3.1-1.6,6.6-1.6,6.6-2,8.9,16.9,22.3,19,8.3.5-3.6,1.1-6.5,1.6-8.8C569.5,243.3,563,240.4,555.4,242.3Z" fill="#63737a"/>
    <ellipse id="Ellipse_164" data-name="Ellipse 164" cx="4.5" cy="4.9" rx="4.5" ry="4.9" transform="translate(561.632 244.098) rotate(-25.35)" fill="#fff"/>
    <path id="Path_783" data-name="Path 783" d="M505.6,256.8s7.9,0,19.1,15.1,13.5,19,13.5,19a211.78,211.78,0,0,1,7-20.2,168.1,168.1,0,0,0,6.4-20.1,5,5,0,0,1,3.7-3.7c4.1-.9,11.5-1,17.8,8.2a5.2,5.2,0,0,1,.8,3.6c-1,5.8-3.9,23.7-6.3,41.1-2.9,21.1-4.5,38.9-18.8,40.7-10.3,1.3-25.3-12.2-35.8-22.7-4.1-4.1-7.5-7.8-9.6-10-5.3-5.4-13.6-15.9-13.6-31C489.8,260.2,502.1,255.8,505.6,256.8Z" fill="#6dafa7"/>
    <path id="Path_784" data-name="Path 784" d="M513,317.9c-4.1-4.1-7.5-7.8-9.6-10-5.3-5.4-13.6-15.9-13.6-31" fill="none" stroke="#c46b3b" stroke-linecap="round" stroke-linejoin="round" stroke-width="1.8"/>
    <path id="Path_785" data-name="Path 785" d="M538.2,290.8s12.9,16.8,16,24.9" fill="none" stroke="#000" stroke-linecap="round" stroke-linejoin="round" stroke-width="1.8"/>
    <path id="Path_786" data-name="Path 786" d="M542.4,339.6c-.7-.5-1.5-1.5-1.4-3.6.2-3.8,4-9.9,11.2-11.4,6.1-1.3,9.2.6,9.8,2.6" fill="none" stroke="#000" stroke-linecap="round" stroke-linejoin="round" stroke-width="1.8"/>
    <path id="Path_787" data-name="Path 787" d="M550.8,253.6s12.8-5.6,22.3,9.7" fill="none" stroke="#000" stroke-linecap="round" stroke-linejoin="round" stroke-width="1.8"/>
    <path id="Path_788" data-name="Path 788" d="M568.6,209.3s-.2,3.4-.3,4-1,4.3-1.1,5.7" fill="none" stroke="#e26e85" stroke-linecap="round" stroke-linejoin="round" stroke-width="1.8"/>
    <path id="Path_789" data-name="Path 789" d="M573.6,215.1V218a25.822,25.822,0,0,1-.5,3.4" fill="none" stroke="#e26e85" stroke-linecap="round" stroke-linejoin="round" stroke-width="1.8"/>
    <path id="Path_790" data-name="Path 790" d="M577.9,218.2a16.567,16.567,0,0,1,.3,2.7,32.067,32.067,0,0,1-.5,3.9" fill="none" stroke="#e26e85" stroke-linecap="round" stroke-linejoin="round" stroke-width="1.8"/>
    <path id="Path_791" data-name="Path 791" d="M558.4,221.6a9.889,9.889,0,0,1-1.3,2.3" fill="none" stroke="#e26e85" stroke-linecap="round" stroke-linejoin="round" stroke-width="1.8"/>
    <path id="Path_792" data-name="Path 792" d="M507.8,111.9s-6.1,24.3,2.9,40.7a2.65,2.65,0,0,0,3.6,1.1l12.2-6.8-4.9-36.8Z" fill="#6dafa7"/>
    <path id="Path_793" data-name="Path 793" d="M510.5,112.4s-5.8,24.1,8.2,41.7a2.74,2.74,0,0,0,3.5.6l15.3-9.2-12.6-36.8C524.8,108.8,512.5,109.4,510.5,112.4Z" fill="#ffb48b"/>
    <path id="Path_794" data-name="Path 794" d="M507.8,111.9l5.8,1.2,32.7-12.6-6.2-1Z" fill="#b0d7c0"/>
    <path id="Path_795" data-name="Path 795" d="M546.3,100.5s.5,16,19.7,28.1a2.62,2.62,0,0,1,0,4.5l-30.6,18.1a2.68,2.68,0,0,1-2.6.1C513.3,141,513.6,113,513.6,113Z" fill="#6dafa7"/>
    <path id="Path_796" data-name="Path 796" d="M537.9,120.7a3.629,3.629,0,0,0-.9-.8,3,3,0,0,0-4.2,3.1,12.08,12.08,0,0,0,1.1,3.5,4.362,4.362,0,0,1,1.2-1.9,8.532,8.532,0,0,1,2.1-1.4,8.91,8.91,0,0,1,5.5-.7,7.2,7.2,0,0,1,4.4,2.8,6.56,6.56,0,0,1,1.2,5.1c-.3,1.9-1.7,3.6-4.4,5a8.52,8.52,0,0,1-8.2,0,12.38,12.38,0,0,1-4.9-5.4,17.422,17.422,0,0,1-1.6-3.6,8.91,8.91,0,0,1-.5-4.4,5.92,5.92,0,0,1,1.3-2.9,7.658,7.658,0,0,1,3-2.1,8.67,8.67,0,0,1,5.1-.7,5.86,5.86,0,0,1,3.8,2.3C540.3,119.5,539.5,119.9,537.9,120.7ZM539,133a4.74,4.74,0,0,0,3.1-.2,3,3,0,0,0,1.7-2,3.36,3.36,0,0,0-.7-2.6,4.07,4.07,0,0,0-2.4-1.8,4.15,4.15,0,0,0-2.7.2,3.17,3.17,0,0,0-1.6,1.4,3,3,0,0,0,.3,3.1A4.35,4.35,0,0,0,539,133Z" fill="#ffb48b"/>
    <path id="Path_797" data-name="Path 797" d="M407.2,172.8h33l3.4,2.2a1.63,1.63,0,0,0,2.5-1.4V150.3a4.27,4.27,0,0,0-4.3-4.3H407.2a4.27,4.27,0,0,0-4.3,4.3v18.2a4.27,4.27,0,0,0,4.3,4.3Z" fill="#f4c2c9"/>
    <path id="Path_798" data-name="Path 798" d="M412.7,155.3l1.7,1.7,3.3-3.3" fill="none" stroke="#22272e" stroke-linecap="round" stroke-linejoin="round" stroke-width="1.8"/>
    <line id="Line_127" data-name="Line 127" x2="11.6" transform="translate(422.8 155.8)" fill="none" stroke="#22272e" stroke-linecap="round" stroke-linejoin="round" stroke-width="1.8"/>
    <path id="Path_799" data-name="Path 799" d="M412.7,163.4l1.7,1.7,3.3-3.3" fill="none" stroke="#22272e" stroke-linecap="round" stroke-linejoin="round" stroke-width="1.8"/>
    <line id="Line_128" data-name="Line 128" x2="11.6" transform="translate(422.8 163.9)" fill="none" stroke="#22272e" stroke-linecap="round" stroke-linejoin="round" stroke-width="1.8"/>
    <path id="Path_800" data-name="Path 800" d="M561.8,462.4l-3,3.2a1.27,1.27,0,0,0,0,1.8h0a1.24,1.24,0,0,0,1.7.2l3.5-2.1Z" fill="#22272e"/>
    <path id="Path_801" data-name="Path 801" d="M588.5,470.2l.8,4.3a1.33,1.33,0,0,1-1,1.5h0a1.23,1.23,0,0,1-1.5-.7l-1.8-3.7Z" fill="#22272e"/>
    <circle id="Ellipse_165" data-name="Ellipse 165" cx="19.9" cy="19.9" r="19.9" transform="translate(558.8 434.1)" fill="#6dafa7"/>
    <circle id="Ellipse_166" data-name="Ellipse 166" cx="12.8" cy="12.8" r="12.8" transform="translate(565.9 441.2)" fill="#ffb48b"/>
    <path id="Path_802" data-name="Path 802" d="M582.3,458.6l-3.6-4.6,1.9-6.4" fill="none" stroke="#63737a" stroke-linecap="round" stroke-linejoin="round" stroke-width="1.8"/>
    <path id="Path_803" data-name="Path 803" d="M566,434.8a1,1,0,0,1-1.3-.7,5.8,5.8,0,0,1,3.6-6.3,5.68,5.68,0,0,1,6.9,2.3,1,1,0,0,1-.5,1.4Z" fill="#6dafa7"/>
    <path id="Path_804" data-name="Path 804" d="M599.7,444.6a.94.94,0,0,0,1.5.1,5.75,5.75,0,0,0-6.8-9,1,1,0,0,0-.3,1.5Z" fill="#6dafa7"/>
    <path id="Path_805" data-name="Path 805" d="M587.7,432.6l-5.2-1.5a1.58,1.58,0,0,1-1.1-2h0a1.58,1.58,0,0,1,2-1.1l5.2,1.5a1.58,1.58,0,0,1,1.1,2h0a1.51,1.51,0,0,1-2,1.1Z" fill="#6dafa7"/>
    <rect id="Rectangle_112" data-name="Rectangle 112" width="5.1" height="3.9" transform="translate(582.055 435.359) rotate(-73.8)" fill="#6dafa7"/>
  </g>
</svg>
