<svg xmlns="http://www.w3.org/2000/svg" width="151.247" height="101.988" viewBox="0 0 151.247 101.988">
  <g id="salla_zappier_white" transform="translate(-1191.4 -5429.812)">
    <g id="Zapier_New_2022" data-name="Zapier New 2022" transform="translate(1223.708 5429.812)">
      <path id="Path_157" data-name="Path 157" d="M218.52,265.489l-.017-.053,10.575-9.682V251.09H212.112v4.664h10.134l.017.044-10.473,9.689v4.664h17.459v-4.664H218.52Z" transform="translate(-190.593 -243.403)" fill="#fff"/>
      <path id="Path_158" data-name="Path 158" d="M322.591,248.66a11.124,11.124,0,0,0-4.785.886,6.264,6.264,0,0,0-2.777,2.433,8.9,8.9,0,0,0-1.166,3.519l5.147.723a3.718,3.718,0,0,1,1.118-2.333,3.411,3.411,0,0,1,2.212-.684,2.812,2.812,0,0,1,2.273.838,3.546,3.546,0,0,1,.7,2.351v.509H320.37q-3.78,0-5.431,1.676A6.022,6.022,0,0,0,313.29,263a5.147,5.147,0,0,0,1.649,4.191,6.213,6.213,0,0,0,4.145,1.365,5.691,5.691,0,0,0,4.765-2.132,7.925,7.925,0,0,0,1.378-2.935h.187l.71,4.664h4.664V256.342a7.863,7.863,0,0,0-1.93-5.673Q326.932,248.66,322.591,248.66Zm1.632,14.56a4.4,4.4,0,0,1-2.917.924,3.142,3.142,0,0,1-2.073-.521,1.918,1.918,0,0,1-.474-2.02,1.758,1.758,0,0,1,.373-.595,1.787,1.787,0,0,1,.613-.377,1.821,1.821,0,0,1,.714-.106h4.869v.322a2.962,2.962,0,0,1-1.105,2.373Z" transform="translate(-273.52 -241.418)" fill="#fff"/>
      <path id="Path_159" data-name="Path 159" d="M538.461,251.08H532.95v19.067h5.511Z" transform="translate(-452.985 -243.395)" fill="#fff"/>
      <path id="Path_160" data-name="Path 160" d="M692.941,251.08a4.5,4.5,0,0,0-3.682,1.649,8.325,8.325,0,0,0-1.469,3.5h-.163l-.721-5.147H682.2v19.064h5.511v-9.777a3.368,3.368,0,0,1,4.06-3.821h2.092v-5.466h-.922Z" transform="translate(-574.925 -243.395)" fill="#fff"/>
      <path id="Path_161" data-name="Path 161" d="M586.559,249.376a9.386,9.386,0,0,0-4.867-1.146,9.744,9.744,0,0,0-7.24,2.635,9.854,9.854,0,0,0-2.615,7.263,11.574,11.574,0,0,0,1.188,5.389,8.546,8.546,0,0,0,3.38,3.561,10.259,10.259,0,0,0,5.21,1.268,10.439,10.439,0,0,0,4.362-.805,7.013,7.013,0,0,0,2.776-2.192,9.565,9.565,0,0,0,1.508-3.118l-4.749-1.33a4.382,4.382,0,0,1-1.118,1.932,3.725,3.725,0,0,1-2.7.805,4.173,4.173,0,0,1-3.352-1.288,4.967,4.967,0,0,1-1.017-2.653h13q.08-.8.081-1.349V257.16a10.582,10.582,0,0,0-.964-4.626A7.206,7.206,0,0,0,586.559,249.376Zm-5.027,3.4a3.432,3.432,0,0,1,3.8,3.3h-7.9a4.555,4.555,0,0,1,.886-2.015A3.968,3.968,0,0,1,581.532,252.775Z" transform="translate(-484.753 -241.066)" fill="#fff"/>
      <path id="Path_162" data-name="Path 162" d="M534.31,209.083a3.1,3.1,0,0,0-2.254.867,2.993,2.993,0,0,0-.886,2.234,3.031,3.031,0,0,0,3.139,3.138,2.975,2.975,0,0,0,2.236-.886,3.067,3.067,0,0,0,.864-2.251,2.966,2.966,0,0,0-3.1-3.1Z" transform="translate(-451.529 -209.081)" fill="#fff"/>
      <path id="Path_163" data-name="Path 163" d="M432.605,248.23A6.006,6.006,0,0,0,428.08,250a8.124,8.124,0,0,0-1.857,3.91h-.176l-.721-5.147H420.62V273.3h5.511V263.191h.2a10.357,10.357,0,0,0,.7,1.956,5.543,5.543,0,0,0,2.194,2.452,6.459,6.459,0,0,0,3.257.785,5.95,5.95,0,0,0,5.27-2.7q1.809-2.7,1.81-7.523a13.085,13.085,0,0,0-1.751-7.3A5.848,5.848,0,0,0,432.605,248.23Zm.56,13.815a3.409,3.409,0,0,1-3.017,1.4,3.549,3.549,0,0,1-2.953-1.349,5.73,5.73,0,0,1-1.067-3.678v-.362a5.47,5.47,0,0,1,1.067-3.63,3.63,3.63,0,0,1,2.955-1.246,3.472,3.472,0,0,1,3.036,1.327,6.282,6.282,0,0,1,.946,3.7,6.612,6.612,0,0,1-.961,3.843h-.005Z" transform="translate(-361.21 -241.066)" fill="#fff"/>
      <path id="Path_164" data-name="Path 164" d="M115.017,329.78H95.95v4.67h19.067Z" transform="translate(-95.95 -307.694)" fill="#e9521d"/>
    </g>
    <g id="salla_logo_white" transform="translate(1191.4 5470.2)">
      <path id="Path_47" data-name="Path 47" d="M311.907,43.844l-3.566-29.725A15.947,15.947,0,0,0,292.518.079H258.461a15.948,15.948,0,0,0-15.824,14.04l-3.562,29.725A15.938,15.938,0,0,0,254.9,61.679h41.184a15.937,15.937,0,0,0,15.824-17.834Zm-9.768,7.308a8.3,8.3,0,0,1-6.286,2.827H255.13a8.4,8.4,0,0,1-8.344-9.406l3.522-29.392a8.411,8.411,0,0,1,8.344-7.4h33.676a8.411,8.411,0,0,1,8.344,7.4L304.2,44.574A8.318,8.318,0,0,1,302.14,51.153Z" transform="translate(-165.352 -0.079)" fill="#fff"/>
      <path id="Path_48" data-name="Path 48" d="M330.133,108.548a3.842,3.842,0,0,0-5.316-1.119c-10.254,6.687-20.233,6.686-30.507,0a3.84,3.84,0,1,0-4.191,6.437c6.42,4.179,12.965,6.3,19.453,6.3s13.029-2.119,19.44-6.3a3.842,3.842,0,0,0,1.12-5.315Z" transform="translate(-199.533 -73.907)" fill="#fff"/>
      <path id="Path_49" data-name="Path 49" d="M85.515,38.625,81.872,39.88a17.8,17.8,0,0,1,.887,4.193c0,1.163-.735,1.867-2.143,1.867-1.439,0-2.3-.337-2.3-2.235V40.431H74.464v3.275c0,1.9-.857,2.235-2.388,2.235-1.5,0-2.357-.337-2.357-2.235V40.431H65.831v3.244c0,1.929-1.041,2.265-3.275,2.265-2.3,0-3.092-.459-3.092-2.97V28.921H55.392V43.186c0,2.326-.8,2.755-3.091,2.755h0c-1.807,0-2.877-.366-2.877-2.662V32.747H45.6v2.175c-7.255,1.5-9.856,4.529-9.856,8.325a5.576,5.576,0,0,0,5.876,5.939,4.276,4.276,0,0,0,4.5-3.093c.521,3.153,2.354,4.988,5.933,4.99h.006c2.725,0,4.255-1.225,4.9-3.092.8,2.081,2.6,3.092,5.357,3.092,2.54,0,4.193-.918,4.836-2.816.643,1.929,2.174,2.816,4.347,2.816s3.674-.918,4.286-2.847c.643,1.929,2.2,2.847,4.714,2.847,3.8,0,6.122-2.48,6.122-6.98A16.144,16.144,0,0,0,85.515,38.625ZM45.6,43.155a5.744,5.744,0,0,1-3.49.859c-1.562,0-3.122-.427-3.122-1.47,0-1.134,1.621-2.266,6.611-3.093v3.7Z" transform="translate(-24.772 -20.031)" fill="#fff"/>
      <path id="Path_50" data-name="Path 50" d="M69.281,28.52a2.171,2.171,0,1,0-2.29-2.168A2.18,2.18,0,0,0,69.281,28.52Z" transform="translate(-46.39 -16.754)" fill="#fff"/>
      <path id="Path_51" data-name="Path 51" d="M52.674,28.52a2.171,2.171,0,1,0-2.29-2.168A2.18,2.18,0,0,0,52.674,28.52Z" transform="translate(-34.902 -16.754)" fill="#fff"/>
      <path id="Path_52" data-name="Path 52" d="M.157,141.721l.6-3.273a9.7,9.7,0,0,0,5.027,1.6c1.519,0,2.409-.5,2.409-1.335,0-2.278-7.907-.158-7.907-5.682,0-2.88,2.383-4.765,6.232-4.765a11.9,11.9,0,0,1,5.342,1.283l-.655,3.194a10.015,10.015,0,0,0-4.477-1.309c-1.44,0-2.33.549-2.33,1.335,0,2.383,7.907.341,7.907,5.5,0,2.828-2.7,4.817-6.677,4.817A11.41,11.41,0,0,1,.157,141.721Z" transform="translate(-0.157 -88.751)" fill="#fff"/>
      <path id="Path_53" data-name="Path 53" d="M56.342,128.851h4.137v13.955H56.342v-2.3a5.554,5.554,0,0,1-4.791,2.645c-3.509,0-6.887-2.487-6.887-7.332s3.22-7.384,6.887-7.384a5.675,5.675,0,0,1,4.791,2.278Zm0,6.913c-.759-2.593-2.278-3.9-4.006-3.9-1.859,0-3.3,1.387-3.3,3.9,0,2.487,1.466,3.954,3.326,3.954C54.17,139.717,55.662,138.12,56.342,135.764Z" transform="translate(-30.945 -88.868)" fill="#fff"/>
      <path id="Path_54" data-name="Path 54" d="M105.825,133.757V115.35h4.137v18.407Z" transform="translate(-73.254 -79.818)" fill="#fff"/>
      <path id="Path_55" data-name="Path 55" d="M129.1,133.757V115.35h4.137v18.407Z" transform="translate(-89.354 -79.818)" fill="#fff"/>
      <path id="Path_56" data-name="Path 56" d="M161.841,128.851h4.137v13.955h-4.137v-2.3a5.554,5.554,0,0,1-4.791,2.645c-3.509,0-6.886-2.487-6.886-7.332s3.22-7.384,6.886-7.384a5.675,5.675,0,0,1,4.791,2.278Zm0,6.913c-.759-2.593-2.278-3.9-4.006-3.9-1.859,0-3.3,1.387-3.3,3.9,0,2.487,1.466,3.954,3.326,3.954C159.667,139.717,161.16,138.12,161.841,135.764Z" transform="translate(-103.925 -88.868)" fill="#fff"/>
    </g>
  </g>
</svg>
