<svg id="salla_logo_white" xmlns="http://www.w3.org/2000/svg" width="166.422" height="69.896" viewBox="0 0 166.422 69.896">
  <path id="Path_47" data-name="Path 47" d="M321.731,49.739,317.685,16.01A18.1,18.1,0,0,0,299.731.079H261.087A18.1,18.1,0,0,0,243.132,16.01L239.09,49.739a18.084,18.084,0,0,0,17.955,20.236h46.731a18.084,18.084,0,0,0,17.955-20.236Zm-11.083,8.293a9.419,9.419,0,0,1-7.133,3.207H257.307a9.537,9.537,0,0,1-9.468-10.673l4-33.351a9.544,9.544,0,0,1,9.468-8.4h38.211a9.543,9.543,0,0,1,9.468,8.4l4,33.351A9.438,9.438,0,0,1,310.648,58.032Z" transform="translate(-155.438 -0.079)" fill="#fff"/>
  <path id="Path_48" data-name="Path 48" d="M335.757,108.783a4.359,4.359,0,0,0-6.032-1.27c-11.635,7.588-22.958,7.587-34.615,0a4.358,4.358,0,1,0-4.755,7.3c7.285,4.742,14.711,7.146,22.073,7.146s14.784-2.4,22.058-7.148a4.36,4.36,0,0,0,1.271-6.031Z" transform="translate(-187.567 -69.476)" fill="#fff"/>
  <path id="Path_49" data-name="Path 49" d="M92.218,39.932l-4.134,1.424a20.193,20.193,0,0,1,1.007,4.758c0,1.32-.834,2.119-2.432,2.119-1.632,0-2.6-.383-2.6-2.536V41.981H79.679V45.7c0,2.153-.972,2.536-2.71,2.536-1.7,0-2.674-.383-2.674-2.536V41.981H69.884v3.681c0,2.188-1.181,2.57-3.717,2.57-2.6,0-3.508-.521-3.508-3.37V28.921h-4.62V45.108c0,2.64-.9,3.126-3.507,3.126h0c-2.05,0-3.264-.415-3.264-3.021V33.262H46.924v2.468c-8.233,1.7-11.184,5.139-11.184,9.447a6.327,6.327,0,0,0,6.668,6.738,4.852,4.852,0,0,0,5.107-3.509c.591,3.578,2.671,5.66,6.732,5.662h.006c3.092,0,4.828-1.39,5.557-3.508.9,2.362,2.952,3.508,6.078,3.508,2.882,0,4.758-1.042,5.487-3.2.729,2.188,2.466,3.2,4.933,3.2s4.169-1.042,4.863-3.23c.729,2.188,2.5,3.23,5.349,3.23,4.307,0,6.947-2.814,6.947-7.92A18.319,18.319,0,0,0,92.218,39.932Zm-45.293,5.14a6.518,6.518,0,0,1-3.96.974c-1.772,0-3.542-.485-3.542-1.667,0-1.287,1.84-2.571,7.5-3.509v4.2Z" transform="translate(-23.295 -18.833)" fill="#fff"/>
  <path id="Path_50" data-name="Path 50" d="M69.589,29.1a2.464,2.464,0,1,0-2.6-2.46A2.473,2.473,0,0,0,69.589,29.1Z" transform="translate(-43.615 -15.753)" fill="#fff"/>
  <path id="Path_51" data-name="Path 51" d="M52.982,29.1a2.464,2.464,0,1,0-2.6-2.46A2.473,2.473,0,0,0,52.982,29.1Z" transform="translate(-32.817 -15.753)" fill="#fff"/>
  <path id="Path_52" data-name="Path 52" d="M.157,143.534l.684-3.714a11,11,0,0,0,5.7,1.812c1.723,0,2.734-.564,2.734-1.515,0-2.585-8.972-.179-8.972-6.447,0-3.268,2.7-5.407,7.071-5.407a13.507,13.507,0,0,1,6.061,1.456l-.743,3.625a11.364,11.364,0,0,0-5.08-1.486c-1.634,0-2.644.623-2.644,1.515,0,2.7,8.972.387,8.972,6.239,0,3.209-3.06,5.466-7.576,5.466A12.946,12.946,0,0,1,.157,143.534Z" transform="translate(-0.157 -83.429)" fill="#fff"/>
  <path id="Path_53" data-name="Path 53" d="M57.915,128.908h4.694v15.835H57.915v-2.614a6.3,6.3,0,0,1-5.437,3c-3.982,0-7.814-2.822-7.814-8.319s3.654-8.378,7.814-8.378a6.439,6.439,0,0,1,5.437,2.585Zm0,7.844c-.861-2.942-2.585-4.427-4.546-4.427-2.109,0-3.744,1.574-3.744,4.427,0,2.822,1.663,4.486,3.773,4.486C55.45,141.237,57.143,139.425,57.915,136.751Z" transform="translate(-29.098 -83.539)" fill="#fff"/>
  <path id="Path_54" data-name="Path 54" d="M105.825,136.236V115.35h4.694v20.886Z" transform="translate(-68.867 -75.033)" fill="#fff"/>
  <path id="Path_55" data-name="Path 55" d="M129.1,136.236V115.35h4.694v20.886Z" transform="translate(-84.001 -75.033)" fill="#fff"/>
  <path id="Path_56" data-name="Path 56" d="M163.414,128.908h4.694v15.835h-4.694v-2.614a6.3,6.3,0,0,1-5.437,3c-3.981,0-7.814-2.822-7.814-8.319s3.654-8.378,7.814-8.378a6.439,6.439,0,0,1,5.437,2.585Zm0,7.844c-.861-2.942-2.584-4.427-4.546-4.427-2.109,0-3.744,1.574-3.744,4.427,0,2.822,1.663,4.486,3.774,4.486C160.947,141.237,162.641,139.425,163.414,136.751Z" transform="translate(-97.697 -83.539)" fill="#fff"/>
</svg>
