<svg xmlns="http://www.w3.org/2000/svg" xmlns:xlink="http://www.w3.org/1999/xlink" width="160.046" height="102.865" viewBox="0 0 160.046 102.865">
  <defs>
    <clipPath id="clip-path">
      <path id="Path_169" data-name="Path 169" d="M152.028,44.34h4.834a.669.669,0,0,1,.668.668V62.855a.669.669,0,0,1-.668.668h-4.834a.669.669,0,0,1-.668-.668V45.008A.669.669,0,0,1,152.028,44.34Z" transform="translate(-151.36 -44.34)" fill="none"/>
    </clipPath>
    <linearGradient id="linear-gradient" x1="-3.41" y1="3.042" x2="-3.398" y2="3.042" gradientUnits="objectBoundingBox">
      <stop offset="0" stop-color="#b02de9"/>
      <stop offset="0.02" stop-color="#b02de9"/>
      <stop offset="0.8" stop-color="#6d00cc"/>
      <stop offset="1" stop-color="#6d00cc"/>
    </linearGradient>
    <clipPath id="clip-path-2">
      <path id="Path_170" data-name="Path 170" d="M8.086,43.776.072,59.722a.667.667,0,0,0,.3.9l4.319,2.17a.667.667,0,0,0,.9-.3L13.6,46.546a.667.667,0,0,0-.3-.9L8.982,43.478a.667.667,0,0,0-.9.3" transform="translate(-0.001 -43.407)" fill="none"/>
    </clipPath>
    <linearGradient id="linear-gradient-2" x1="-1.001" y1="2.681" x2="-0.994" y2="2.681" gradientUnits="objectBoundingBox">
      <stop offset="0" stop-color="#f0f"/>
      <stop offset="0.17" stop-color="#e90cf9"/>
      <stop offset="0.54" stop-color="#c023ed"/>
      <stop offset="0.73" stop-color="#b02de9"/>
      <stop offset="1" stop-color="#b02de9"/>
    </linearGradient>
    <clipPath id="clip-path-3">
      <path id="Path_171" data-name="Path 171" d="M83.222,43.157,79.793,60.539a.667.667,0,0,0,.524.783l4.739.956a.669.669,0,0,0,.788-.525l3.429-17.382a.667.667,0,0,0-.524-.783l-4.739-.956a.7.7,0,0,0-.133-.013.668.668,0,0,0-.655.538" transform="translate(-79.781 -42.619)" fill="none"/>
    </clipPath>
    <linearGradient id="linear-gradient-3" x1="-2.027" y1="2.842" x2="-2.018" y2="2.842" gradientUnits="objectBoundingBox">
      <stop offset="0" stop-color="#f0f"/>
      <stop offset="0.02" stop-color="#f0f"/>
      <stop offset="0.09" stop-color="#e90cf9"/>
      <stop offset="0.23" stop-color="#c023ed"/>
      <stop offset="0.3" stop-color="#b02de9"/>
      <stop offset="0.42" stop-color="#a42be3"/>
      <stop offset="0.63" stop-color="#8626d5"/>
      <stop offset="0.85" stop-color="#6021c3"/>
      <stop offset="1" stop-color="#6021c3"/>
    </linearGradient>
  </defs>
  <g id="salla_make_white" transform="translate(-2699.371 -5465.835)">
    <g id="Make-Logo-RGB" transform="translate(2733.471 5465.835)">
      <path id="Path_165" data-name="Path 165" d="M264.808,48.949V60.293a.669.669,0,0,1-.668.668h-4.9a.668.668,0,0,1-.668-.668V42.379a.669.669,0,0,1,.668-.668h4.9a.669.669,0,0,1,.668.668V43.79a6.536,6.536,0,0,1,5.39-2.5,6.373,6.373,0,0,1,5.428,2.657,7.645,7.645,0,0,1,6.083-2.657c4.312,0,7.276,2.541,7.276,7.392V60.293a.669.669,0,0,1-.668.668h-4.9a.668.668,0,0,1-.668-.668v-10.3c0-2.118-1.193-3.157-2.811-3.157a3.41,3.41,0,0,0-3.042,2.118V60.295a.669.669,0,0,1-.668.668h-4.9a.668.668,0,0,1-.668-.668v-10.3c0-2.118-1.193-3.156-2.811-3.156a3.368,3.368,0,0,0-3.042,2.118" transform="translate(-221.674 -35.396)" fill="#fff"/>
      <path id="Path_166" data-name="Path 166" d="M489.141,60.414c-3.619,0-6.661-2.387-6.661-6.083,0-3.388,2.233-4.967,6.391-6.045l5.314-1.386c-.154-1.271-1.156-1.886-2.773-1.886a2.911,2.911,0,0,0-2.938,1.644.679.679,0,0,1-.776.408l-4.212-1a.672.672,0,0,1-.477-.88c1.209-3.27,4.568-4.984,8.632-4.984,5.467,0,8.624,2.58,8.624,7.122V59.36a.668.668,0,0,1-.668.668h-4.647a.668.668,0,0,1-.668-.652l-.023-1-.038.038a7.39,7.39,0,0,1-5.083,2m1.578-4.813a4.333,4.333,0,0,0,2.349-.771l1.077-.655.038-3.118-2.773.771c-1.887.539-2.734,1-2.734,2.079,0,1.193,1.039,1.694,2.041,1.694" transform="translate(-413.632 -34.464)" fill="#fff"/>
      <path id="Path_167" data-name="Path 167" d="M628.808,16.48l-1.887,1.732V24.9a.668.668,0,0,1-.668.668h-4.786a.668.668,0,0,1-.668-.668V.668A.669.669,0,0,1,621.468,0h4.786a.669.669,0,0,1,.668.668v10.96l5.584-5.137a.672.672,0,0,1,.452-.177h5.909a.668.668,0,0,1,.451,1.162l-5.734,5.23,6.538,11.869a.668.668,0,0,1-.585.99h-5.586a.667.667,0,0,1-.592-.36l-4.549-8.727Z" transform="translate(-532.215 0)" fill="#fff"/>
      <path id="Path_168" data-name="Path 168" d="M757.726,60.692c-5.351,0-10.241-3.349-10.241-10.126a9.643,9.643,0,0,1,9.856-10.087c5.158,0,9.241,3.734,9.394,9.625.017.622.027,1.056.033,1.364a.666.666,0,0,1-.668.676H753.644a4.128,4.128,0,0,0,4.389,3.773,4.855,4.855,0,0,0,4-1.951.662.662,0,0,1,.9-.147l3.111,2.083a.675.675,0,0,1,.178.94c-1.667,2.453-4.415,3.849-8.493,3.849m-3.965-12.32H760.5a3.092,3.092,0,0,0-3.349-3.157,3.243,3.243,0,0,0-3.388,3.157" transform="translate(-640.822 -34.703)" fill="#fff"/>
      <g id="Group_123" data-name="Group 123" transform="translate(21.598 6.327)" clip-path="url(#clip-path)">
        <rect id="Rectangle_249" data-name="Rectangle 249" width="12.426" height="20.133" transform="translate(-6.225 2.295) rotate(-20.24)" fill="url(#linear-gradient)"/>
      </g>
      <g id="Group_124" data-name="Group 124" transform="translate(0 6.194)" clip-path="url(#clip-path-2)">
        <rect id="Rectangle_250" data-name="Rectangle 250" width="20.478" height="23.442" transform="translate(-7.216 3.08) rotate(-23.38)" fill="url(#linear-gradient-2)"/>
      </g>
      <g id="Group_125" data-name="Group 125" transform="translate(11.384 6.082)" clip-path="url(#clip-path-3)">
        <rect id="Rectangle_251" data-name="Rectangle 251" width="15.846" height="21.844" transform="translate(-6.456 2.356) rotate(-20.21)" fill="url(#linear-gradient-3)"/>
      </g>
    </g>
    <g id="salla_logo_white" transform="translate(2699.371 5502.074)">
      <path id="Path_47" data-name="Path 47" d="M317.011,47.415,313.2,15.264A17.129,17.129,0,0,0,296.265.079H259.825a17.129,17.129,0,0,0-16.931,15.186l-3.811,32.15a17.367,17.367,0,0,0,4.176,13.492,16.971,16.971,0,0,0,12.755,5.8H300.08a16.984,16.984,0,0,0,12.755-5.8A17.379,17.379,0,0,0,317.011,47.415Zm-10.451,7.9a8.841,8.841,0,0,1-6.726,3.057H256.261a8.827,8.827,0,0,1-6.726-3.057,9.043,9.043,0,0,1-2.2-7.116l3.768-31.79a9.034,9.034,0,0,1,8.928-8.007h36.032a9.034,9.034,0,0,1,8.928,8.007l3.772,31.79A9.061,9.061,0,0,1,306.56,55.319Z" transform="translate(-161.582 -0.079)" fill="#fff"/>
      <path id="Path_48" data-name="Path 48" d="M333.054,108.67a4.111,4.111,0,0,0-5.688-1.2c-10.971,7.155-21.649,7.154-32.641,0a4.109,4.109,0,1,0-4.484,6.887c6.869,4.472,13.872,6.739,20.814,6.739s13.941-2.268,20.8-6.741a4.111,4.111,0,0,0,1.2-5.687Z" transform="translate(-194.697 -71.117)" fill="#fff"/>
      <path id="Path_49" data-name="Path 49" d="M89,39.3l-3.9,1.343a19.041,19.041,0,0,1,.95,4.487c0,1.244-.786,2-2.293,2-1.539,0-2.456-.361-2.456-2.391v-3.5H77.173v3.5c0,2.031-.917,2.391-2.555,2.391-1.605,0-2.522-.361-2.522-2.391v-3.5h-4.16v3.471c0,2.064-1.114,2.423-3.5,2.423-2.456,0-3.308-.491-3.308-3.178V28.921H56.767V44.184c0,2.489-.852,2.947-3.307,2.947h0c-1.933,0-3.078-.392-3.078-2.849V33.015h-4.1v2.328c-7.763,1.6-10.546,4.846-10.546,8.908A5.966,5.966,0,0,0,42.028,50.6,4.575,4.575,0,0,0,46.843,47.3c.557,3.374,2.519,5.337,6.348,5.339H53.2c2.915,0,4.552-1.31,5.24-3.308.852,2.227,2.784,3.308,5.731,3.308,2.718,0,4.487-.983,5.174-3.013.688,2.064,2.326,3.013,4.651,3.013s3.931-.983,4.585-3.046c.688,2.064,2.359,3.046,5.044,3.046,4.061,0,6.55-2.654,6.55-7.468A17.274,17.274,0,0,0,89,39.3Zm-42.71,4.847a6.146,6.146,0,0,1-3.735.919c-1.671,0-3.34-.457-3.34-1.572,0-1.214,1.735-2.424,7.073-3.309v3.963Z" transform="translate(-24.005 -19.409)" fill="#fff"/>
      <path id="Path_50" data-name="Path 50" d="M69.441,28.824a2.323,2.323,0,1,0-2.45-2.32A2.332,2.332,0,0,0,69.441,28.824Z" transform="translate(-44.949 -16.234)" fill="#fff"/>
      <path id="Path_51" data-name="Path 51" d="M52.834,28.824a2.323,2.323,0,1,0-2.45-2.32A2.332,2.332,0,0,0,52.834,28.824Z" transform="translate(-33.819 -16.234)" fill="#fff"/>
      <path id="Path_52" data-name="Path 52" d="M.157,142.663l.645-3.5a10.375,10.375,0,0,0,5.379,1.709c1.625,0,2.578-.532,2.578-1.429,0-2.437-8.46-.169-8.46-6.079,0-3.082,2.55-5.1,6.668-5.1a12.736,12.736,0,0,1,5.715,1.373l-.7,3.418a10.715,10.715,0,0,0-4.791-1.4c-1.54,0-2.493.588-2.493,1.429,0,2.55,8.46.365,8.46,5.883,0,3.026-2.886,5.154-7.144,5.154A12.208,12.208,0,0,1,.157,142.663Z" transform="translate(-0.157 -85.271)" fill="#fff"/>
      <path id="Path_53" data-name="Path 53" d="M57.159,128.881h4.426v14.932H57.159v-2.465a5.943,5.943,0,0,1-5.126,2.83c-3.754,0-7.368-2.661-7.368-7.845s3.446-7.9,7.368-7.9a6.072,6.072,0,0,1,5.126,2.437Zm0,7.4c-.812-2.774-2.437-4.174-4.286-4.174-1.989,0-3.53,1.484-3.53,4.174,0,2.661,1.568,4.23,3.558,4.23C54.835,140.506,56.431,138.8,57.159,136.277Z" transform="translate(-29.986 -85.384)" fill="#fff"/>
      <path id="Path_54" data-name="Path 54" d="M105.825,135.045V115.35h4.426v19.695Z" transform="translate(-71.29 -76.617)" fill="#fff"/>
      <path id="Path_55" data-name="Path 55" d="M129.1,135.045V115.35h4.426v19.695Z" transform="translate(-86.958 -76.617)" fill="#fff"/>
      <path id="Path_56" data-name="Path 56" d="M162.658,128.881h4.426v14.932h-4.426v-2.465a5.943,5.943,0,0,1-5.127,2.83c-3.754,0-7.368-2.661-7.368-7.845s3.446-7.9,7.368-7.9a6.072,6.072,0,0,1,5.127,2.437Zm0,7.4c-.812-2.774-2.437-4.174-4.287-4.174-1.989,0-3.53,1.484-3.53,4.174,0,2.661,1.569,4.23,3.558,4.23C160.332,140.506,161.93,138.8,162.658,136.277Z" transform="translate(-101.178 -85.384)" fill="#fff"/>
    </g>
  </g>
</svg>
