<svg xmlns="http://www.w3.org/2000/svg" width="32" height="34.832" viewBox="0 0 32 34.832">
  <g id="settings_hp" transform="translate(-2 -0.584)">
    <path id="Path_82" data-name="Path 82" d="M8.377,4.167c6.917,0,11.667-3.583,15-3.583S33.71,2.5,33.71,17.833,24.293,35.416,20.627,35.416c-17.167,0-24.5-31.249-12.25-31.249Z" fill="#efefef"/>
    <path id="Path_83" data-name="Path 83" d="M13.5,6A1.5,1.5,0,1,1,15,4.5,1.5,1.5,0,0,1,13.5,6Zm0-2a.5.5,0,1,0,.5.5A.5.5,0,0,0,13.5,4Z" fill="#a4afc1"/>
    <path id="Path_84" data-name="Path 84" d="M24,10.75H7.75a1,1,0,0,0-1,1v1a1,1,0,0,0,1,1H24Z" fill="#f7a45d"/>
    <path id="Path_85" data-name="Path 85" d="M8.75,13.75h15.5v10.5H8.75Z" fill="#f3f3f1"/>
    <circle id="Ellipse_3" data-name="Ellipse 3" cx="2.75" cy="2.75" r="2.75" transform="translate(22.25 8.693)" fill="#f7a45d"/>
    <path id="Path_86" data-name="Path 86" d="M9,12.75v-1a1,1,0,0,1,1-1H7.75a1,1,0,0,0-1,1v1a1,1,0,0,0,1,1H10A1,1,0,0,1,9,12.75Z" fill="#dd7b26"/>
    <path id="Path_87" data-name="Path 87" d="M8.75,13.75H11v10.5H8.75Z" fill="#d5dbe1"/>
    <path id="Path_88" data-name="Path 88" d="M24.5,11.443a2.746,2.746,0,0,1,1.625-2.5,2.75,2.75,0,1,0,0,5.008A2.746,2.746,0,0,1,24.5,11.443Z" fill="#dd7b26"/>
    <path id="Path_89" data-name="Path 89" d="M18,14.5H7.75A1.752,1.752,0,0,1,6,12.75v-1A1.752,1.752,0,0,1,7.75,10H18v1.5H7.75a.253.253,0,0,0-.25.25v1a.253.253,0,0,0,.25.25H18Z"/>
    <path id="Path_90" data-name="Path 90" d="M7,23.5H26V25H7Z"/>
    <path id="Path_91" data-name="Path 91" d="M19.661,29.715,16.5,25.71l-3.161,4-1.178-.93,3.75-4.75a.777.777,0,0,1,1.178,0l3.75,4.75Z"/>
    <path id="Path_92" data-name="Path 92" d="M25,14.943a3.5,3.5,0,1,1,3.5-3.5A3.5,3.5,0,0,1,25,14.943Zm0-5.5a2,2,0,1,0,2,2A2,2,0,0,0,25,9.443Z"/>
    <path id="Path_93" data-name="Path 93" d="M24.25,13.443h1.5v3.5h-1.5Z"/>
    <path id="Path_94" data-name="Path 94" d="M24.25,5.943h1.5v3.5h-1.5Z"/>
    <path id="Path_95" data-name="Path 95" d="M26.5,8.823h3.62v1.5h-3.62Z" transform="matrix(0.882, -0.471, 0.471, 0.882, -1.169, 14.478)"/>
    <path id="Path_96" data-name="Path 96" d="M19.875,12.563h3.62v1.5h-3.62Z" transform="matrix(0.882, -0.471, 0.471, 0.882, -3.715, 11.794)"/>
    <path id="Path_97" data-name="Path 97" d="M20.935,7.763h1.5v3.62h-1.5Z" transform="translate(3.016 24.18) rotate(-61.847)"/>
    <path id="Path_98" data-name="Path 98" d="M27.565,11.5h1.5v3.62h-1.5Z" transform="translate(3.221 32.002) rotate(-61.847)"/>
    <path id="Path_99" data-name="Path 99" d="M2,28.5H34V30H2Z"/>
    <path id="Path_100" data-name="Path 100" d="M8,13.75H9.5v10.5H8Z"/>
    <path id="Path_101" data-name="Path 101" d="M23.5,19.75H25v4.5H23.5Z"/>
  </g>
</svg>
