<svg xmlns="http://www.w3.org/2000/svg" width="99.8" height="28.502" viewBox="0 0 99.8 28.502">
  <g id="shopify_logo_white" transform="translate(0 -0.098)">
    <path id="Path_19" data-name="Path 19" d="M11.3,1c.2,0,.3.1.5.2-1.2.5-2.4,1.8-3,4.6l-2.2.6C7.3,4.4,8.7,1,11.3,1Zm1.1,1a6.973,6.973,0,0,1,.4,2.4v.2l-2.9.8C10.5,3.3,11.5,2.4,12.4,2ZM15,3.8l-1.3.4V3.9a6.873,6.873,0,0,0-.3-2.2A3.011,3.011,0,0,1,15,3.8Zm6.5,1.6a.215.215,0,0,0-.2-.2C21.1,5.2,19,5,19,5s-1.5-1.5-1.7-1.6c-.2-.2-.5-.1-.6-.1,0,0-.3.1-.8.3C15.4,2.2,14.5.9,13,.9h-.1A1.768,1.768,0,0,0,11.4.1C7.8,0,6.1,4.5,5.5,6.8c-.8.2-1.6.5-2.5.8-.8.2-.8.3-.9,1C2,9.1,0,24.9,0,24.9l15.9,3L24.5,26S21.5,5.6,21.5,5.4Z" fill="#8db849"/>
    <path id="Path_20" data-name="Path 20" d="M21.2,5.2C21.1,5.2,19,5,19,5s-1.5-1.5-1.7-1.6c-.1-.1-.1-.1-.2-.1L15.9,27.9,24.5,26s-3-20.4-3-20.6c0-.1-.2-.2-.3-.2" fill="#5a863e"/>
    <path id="Path_21" data-name="Path 21" d="M13,10l-1.1,3.2a4.742,4.742,0,0,0-2.1-.5C8.1,12.7,8,13.7,8,14c0,1.4,3.8,2,3.8,5.4,0,2.7-1.7,4.4-4,4.4a5.5,5.5,0,0,1-4.1-1.7l.7-2.4A5.1,5.1,0,0,0,7,20.9a1.044,1.044,0,0,0,1.1-1.1c0-1.9-3.1-2-3.1-5.1,0-2.6,1.9-5.1,5.6-5.1A3.972,3.972,0,0,1,13,10" fill="#fffffe"/>
    <path id="Path_22" data-name="Path 22" d="M34.6,15.9c-.9-.5-1.3-.9-1.3-1.4,0-.7.6-1.1,1.6-1.1a5.317,5.317,0,0,1,2.1.5l.8-2.4a4.563,4.563,0,0,0-2.8-.6c-3,0-5,1.7-5,4.1a3.739,3.739,0,0,0,2.2,3.1c1,.6,1.4,1,1.4,1.6s-.5,1.2-1.5,1.2a7.24,7.24,0,0,1-2.8-.7l-.8,2.4a6.329,6.329,0,0,0,3.3.8c3,0,5.2-1.5,5.2-4.2a3.931,3.931,0,0,0-2.4-3.3m12.1-5.1a4.547,4.547,0,0,0-3.6,1.8h0l1.3-6.8H41L37.7,23.1h3.4l1.1-5.9c.4-2.2,1.6-3.6,2.7-3.6.8,0,1.1.5,1.1,1.3a7.569,7.569,0,0,1-.1,1.5l-1.3,6.8H48l1.3-7a17.96,17.96,0,0,0,.2-2.2c0-2-1-3.2-2.8-3.2m8.7,9.9c-1.2,0-1.6-1-1.6-2.2,0-1.9,1-5.1,2.8-5.1,1.2,0,1.6,1,1.6,2C58.2,17.6,57.2,20.7,55.4,20.7Zm1.7-9.9c-4.1,0-6.8,3.7-6.8,7.8A4.406,4.406,0,0,0,55,23.3c4,0,6.7-3.6,6.7-7.8A4.37,4.37,0,0,0,57.1,10.8Zm10,10a2.07,2.07,0,0,1-1.4-.5l.6-3.2c.4-2.1,1.5-3.5,2.7-3.5,1,0,1.4,1,1.4,1.9C70.3,17.7,69,20.8,67.1,20.8Zm3.3-10a4.654,4.654,0,0,0-3.6,2h0L67,11H64a41.4,41.4,0,0,1-.7,4.5L60.9,27.9h3.4l.9-5h.1a4.318,4.318,0,0,0,2,.4c4,0,6.6-4.1,6.6-8.2C73.9,12.9,72.9,10.8,70.4,10.8ZM78.7,6a1.923,1.923,0,0,0-1.9,2,1.55,1.55,0,0,0,1.6,1.7h0a1.888,1.888,0,0,0,2-2A1.628,1.628,0,0,0,78.7,6M74,23.1h3.4l2.3-12H76.3Zm14.3-12H85.9l.1-.6c.2-1.2.9-2.2,2-2.2a3.3,3.3,0,0,1,1.1.2l.7-2.7A4.355,4.355,0,0,0,88,5.5a4.884,4.884,0,0,0-3.3,1.1,6.438,6.438,0,0,0-2,3.8l-.1.6H81l-.5,2.6h1.6l-1.8,9.5h3.4l1.8-9.5h2.3Zm8.1,0s-2.1,5.3-3.1,8.2h0c-.1-.9-.8-8.2-.8-8.2H88.9l2,11a1.268,1.268,0,0,1-.1.6,5.775,5.775,0,0,1-1.8,2,7.017,7.017,0,0,1-1.9,1l.9,2.9a7.258,7.258,0,0,0,3.3-1.8,22.131,22.131,0,0,0,4.4-6.7l4.1-8.9Z" fill="#fff"/>
  </g>
</svg>
