<svg xmlns="http://www.w3.org/2000/svg" width="35.128" height="33.268" viewBox="0 0 35.128 33.268">
  <g id="starred" transform="translate(-0.436 -1.366)">
    <path id="Path_19359" data-name="Path 19359" d="M8.114,5.564C6.309,12.241,1.61,15.891.74,19.109S-.107,29.584,14.695,33.586s19.432-4.5,20.388-8.041C39.564,8.973,11.311-6.262,8.114,5.564Z" fill="#efefef"/>
    <path id="Path_19360" data-name="Path 19360" d="M25.25,6.75H7.75a1,1,0,0,0-1,1v17.5a1,1,0,0,0,1,1h16.5a2,2,0,0,0,2-2V7.75A1,1,0,0,0,25.25,6.75Z" fill="#f3f3f1"/>
    <path id="Path_19361" data-name="Path 19361" d="M12.75,6.75v7.5l3.75-3.5,3.75,3.5V6.75Z" fill="#df814e"/>
    <path id="Path_19362" data-name="Path 19362" d="M23.5,26.831,19.946,29.25l1.09-4.3L17.75,22.143l4.227-.24L23.5,17.75,25.023,21.9l4.227.24-3.286,2.806,1.09,4.3Z" fill="#df814e"/>
    <path id="Path_19363" data-name="Path 19363" d="M25.75,26.831l-1.125.766,2.429,1.653-.469-1.85Z" fill="#00b871"/>
    <path id="Path_19364" data-name="Path 19364" d="M22.665,27.4l.621-2.451L20,22.143l4.227-.24.4-1.085L23.5,17.75,21.977,21.9l-4.227.24,3.286,2.806-1.09,4.3Z" fill="#bb6131"/>
    <path id="Path_19365" data-name="Path 19365" d="M9,25.25V7.75a1,1,0,0,1,1-1H7.75a1,1,0,0,0-1,1v17.5a1,1,0,0,0,1,1H10A1,1,0,0,1,9,25.25Z" fill="#d5dbe1"/>
    <path id="Path_19366" data-name="Path 19366" d="M15,6.75H12.75v7.5L15,12.15Z" fill="#bb6131"/>
    <path id="Path_19367" data-name="Path 19367" d="M18.75,10.75,17.625,11.8l2.625,2.45v-2.1Z" fill="#bb6131"/>
    <g id="Group_2952" data-name="Group 2952">
      <path id="Path_19368" data-name="Path 19368" d="M2.623,25.354h1v2h-1Z" transform="translate(-17.72 9.927) rotate(-45)" fill="#a4afc1"/>
      <path id="Path_19369" data-name="Path 19369" d="M6.689,29.42h1v2h-1Z" transform="translate(-19.404 13.993) rotate(-45)" fill="#a4afc1"/>
      <path id="Path_19370" data-name="Path 19370" d="M1.946,29.919h2v1h-2Z" transform="translate(-20.647 10.993) rotate(-45)" fill="#a4afc1"/>
      <path id="Path_19371" data-name="Path 19371" d="M30.25,18.121a1.5,1.5,0,1,1,1.5-1.5A1.5,1.5,0,0,1,30.25,18.121Zm0-2a.5.5,0,1,0,.5.5A.5.5,0,0,0,30.25,16.121Z" fill="#a4afc1"/>
    </g>
    <path id="Path_19372" data-name="Path 19372" d="M27.054,30a.749.749,0,0,1-.422-.13L23.5,27.739,20.368,29.87a.75.75,0,0,1-1.149-.8l.975-3.85-2.932-2.5a.75.75,0,0,1,.444-1.319l3.735-.211,1.354-3.69a.75.75,0,0,1,1.409,0l1.354,3.69,3.735.211a.75.75,0,0,1,.444,1.319l-2.932,2.5.975,3.85a.748.748,0,0,1-.3.8.736.736,0,0,1-.429.137ZM23.5,26.082a.749.749,0,0,1,.422.13l1.919,1.306-.6-2.385a.75.75,0,0,1,.24-.754l1.865-1.593-2.362-.134a.75.75,0,0,1-.662-.491L23.5,19.928l-.819,2.233a.75.75,0,0,1-.662.491l-2.362.134,1.865,1.593a.75.75,0,0,1,.24.754l-.6,2.385,1.919-1.306A.754.754,0,0,1,23.5,26.082Z"/>
    <path id="Path_19373" data-name="Path 19373" d="M17.25,27H7.75A1.752,1.752,0,0,1,6,25.25V7.75A1.752,1.752,0,0,1,7.75,6h17.5A1.752,1.752,0,0,1,27,7.75v10.5H25.5V7.75a.25.25,0,0,0-.25-.25H7.75a.25.25,0,0,0-.25.25v17.5a.25.25,0,0,0,.25.25h9.5Z"/>
    <path id="Path_19374" data-name="Path 19374" d="M20.25,15a.746.746,0,0,1-.512-.2L16.5,11.776,13.262,14.8A.75.75,0,0,1,12,14.25V6.75A.75.75,0,0,1,12.75,6h7.5a.75.75,0,0,1,.75.75v7.5a.75.75,0,0,1-.451.688.763.763,0,0,1-.3.062ZM16.5,10a.746.746,0,0,1,.512.2L19.5,12.524V7.5h-6v5.024L15.988,10.2A.746.746,0,0,1,16.5,10Z"/>
  </g>
</svg>
