<svg xmlns="http://www.w3.org/2000/svg" xmlns:xlink="http://www.w3.org/1999/xlink" width="675.104" height="435.988" viewBox="0 0 675.104 435.988">
  <defs>
    <clipPath id="clip-path">
      <path id="Path_209" data-name="Path 209" d="M766.3,602l-520-14.9a48.07,48.07,0,0,1-46.5-43.3l-25.1-248a48.18,48.18,0,0,1,47.2-53l578.8-8a48.21,48.21,0,0,1,48.5,54.1L815.5,559.8A48.27,48.27,0,0,1,766.3,602Z" fill="none"/>
    </clipPath>
    <clipPath id="clip-path-3">
      <path id="Path_370" data-name="Path 370" d="M495,351.5s-21.6,1.2-34.2,5.7-10.3,14.5-11.9,25-11.9,21.2-6.7,35.5,10.3,22.4,7.6,33.4-5.2,16.5-4.8,19.6,14.8,12.6,20.3,14.5,16.2-5.7,16.2-5.7,5.5,7.2,13.5,8.8,40.4-6.7,47.8-15a51.86,51.86,0,0,1-5-20.5c-.2-11.2,6.3-25.1,8.7-32.8s15.9-37.4,10.6-47.3C553.3,365.6,524.9,349.6,495,351.5Z" fill="none"/>
    </clipPath>
  </defs>
  <g id="success" transform="translate(-174.458 -166.03)">
    <path id="Path_187" data-name="Path 187" d="M766.3,602l-520-14.9a48.07,48.07,0,0,1-46.5-43.3l-25.1-248a48.18,48.18,0,0,1,47.2-53l578.8-8a48.21,48.21,0,0,1,48.5,54.1L815.5,559.8A48.27,48.27,0,0,1,766.3,602Z" fill="#fffaf7"/>
    <g id="Group_3" data-name="Group 3" clip-path="url(#clip-path)">
      <path id="Path_188" data-name="Path 188" d="M341.9,647H-73.6a15,15,0,0,1-15-15V396.3a15,15,0,0,1,15-15H341.9a15,15,0,0,1,15,15V632a15,15,0,0,1-15,15Z" fill="none" stroke="#ffd1b8" stroke-linecap="round" stroke-linejoin="round" stroke-width="1.8"/>
      <path id="Path_189" data-name="Path 189" d="M891,631.2H471.9a15,15,0,0,1-15-15V271.9a15,15,0,0,1,15-15H891a15,15,0,0,1,15,15V616.2A15,15,0,0,1,891,631.2Z" fill="none" stroke="#ffd1b8" stroke-linecap="round" stroke-linejoin="round" stroke-width="1.8"/>
      <path id="Path_190" data-name="Path 190" d="M242.3,311H152.4v-8.9h89.9a1.79,1.79,0,0,1,1.8,1.8v5.2a1.82,1.82,0,0,1-1.8,1.9Z" fill="none" stroke="#ffd1b8" stroke-linecap="round" stroke-linejoin="round" stroke-width="1.8"/>
      <path id="Path_191" data-name="Path 191" d="M226,302.1H205.7a4.32,4.32,0,0,1-4.3-3.8l-1.6-14.4a4.33,4.33,0,0,1,4.3-4.8h23.5a4.34,4.34,0,0,1,4.3,4.8l-1.6,14.4a4.41,4.41,0,0,1-4.3,3.8Z" fill="none" stroke="#ffd1b8" stroke-linecap="round" stroke-linejoin="round" stroke-width="1.8"/>
      <path id="Path_192" data-name="Path 192" d="M213.4,279.1s-8-.8-9.6-11.6c0,0,7.2,2.1,9.5,7.2,0,0,1-11.4,6.4-12.5,0,0,2.4,8.5-1.4,12.7,0,0,2.9-4.8,10.3-4.7a13.6,13.6,0,0,1-9.2,8.8" fill="#ffd1b8"/>
      <path id="Path_193" data-name="Path 193" d="M338.7,431.1H248.5a4.23,4.23,0,0,1-4.2-4.2V399.5a4.23,4.23,0,0,1,4.2-4.2h90.2a4.23,4.23,0,0,1,4.2,4.2v27.4a4.1,4.1,0,0,1-4.2,4.2Z" fill="none" stroke="#ffd1b8" stroke-linecap="round" stroke-linejoin="round" stroke-width="1.8"/>
      <path id="Path_194" data-name="Path 194" d="M304,404.9H283.2a1.54,1.54,0,0,1-1.5-1.5h0a1.54,1.54,0,0,1,1.5-1.5H304a1.54,1.54,0,0,1,1.5,1.5h0a1.54,1.54,0,0,1-1.5,1.5Z" fill="#ffd1b8"/>
      <path id="Path_195" data-name="Path 195" d="M338.7,476.9H248.5a4.23,4.23,0,0,1-4.2-4.2V445.3a4.23,4.23,0,0,1,4.2-4.2h90.2a4.23,4.23,0,0,1,4.2,4.2v27.4a4.1,4.1,0,0,1-4.2,4.2Z" fill="none" stroke="#ffd1b8" stroke-linecap="round" stroke-linejoin="round" stroke-width="1.8"/>
      <path id="Path_196" data-name="Path 196" d="M304,450.7H283.2a1.54,1.54,0,0,1-1.5-1.5h0a1.54,1.54,0,0,1,1.5-1.5H304a1.54,1.54,0,0,1,1.5,1.5h0a1.47,1.47,0,0,1-1.5,1.5Z" fill="#ffd1b8"/>
      <path id="Path_197" data-name="Path 197" d="M801.9,509.2H711.7a4.23,4.23,0,0,1-4.2-4.2V477.6a4.23,4.23,0,0,1,4.2-4.2h90.2a4.23,4.23,0,0,1,4.2,4.2V505a4.1,4.1,0,0,1-4.2,4.2Z" fill="none" stroke="#ffd1b8" stroke-linecap="round" stroke-linejoin="round" stroke-width="1.8"/>
      <path id="Path_198" data-name="Path 198" d="M767.2,483.1H746.4a1.54,1.54,0,0,1-1.5-1.5h0a1.54,1.54,0,0,1,1.5-1.5h20.8a1.54,1.54,0,0,1,1.5,1.5h0a1.54,1.54,0,0,1-1.5,1.5Z" fill="#ffd1b8"/>
      <path id="Path_199" data-name="Path 199" d="M686.1,509.2H595.9a4.23,4.23,0,0,1-4.2-4.2V477.6a4.23,4.23,0,0,1,4.2-4.2h90.2a4.23,4.23,0,0,1,4.2,4.2V505a4.23,4.23,0,0,1-4.2,4.2Z" fill="none" stroke="#ffd1b8" stroke-linecap="round" stroke-linejoin="round" stroke-width="1.8"/>
      <path id="Path_200" data-name="Path 200" d="M651.4,483.1H630.6a1.54,1.54,0,0,1-1.5-1.5h0a1.54,1.54,0,0,1,1.5-1.5h20.8a1.54,1.54,0,0,1,1.5,1.5h0a1.54,1.54,0,0,1-1.5,1.5Z" fill="#ffd1b8"/>
      <path id="Path_201" data-name="Path 201" d="M223.7,431.1H133.5a4.23,4.23,0,0,1-4.2-4.2V399.5a4.23,4.23,0,0,1,4.2-4.2h90.2a4.23,4.23,0,0,1,4.2,4.2v27.4a4.1,4.1,0,0,1-4.2,4.2Z" fill="none" stroke="#ffd1b8" stroke-linecap="round" stroke-linejoin="round" stroke-width="1.8"/>
      <path id="Path_202" data-name="Path 202" d="M189,404.9H168.2a1.54,1.54,0,0,1-1.5-1.5h0a1.54,1.54,0,0,1,1.5-1.5H189a1.54,1.54,0,0,1,1.5,1.5h0a1.47,1.47,0,0,1-1.5,1.5Z" fill="#ffd1b8"/>
      <path id="Path_203" data-name="Path 203" d="M223.7,476.9H133.5a4.23,4.23,0,0,1-4.2-4.2V445.3a4.23,4.23,0,0,1,4.2-4.2h90.2a4.23,4.23,0,0,1,4.2,4.2v27.4a4.1,4.1,0,0,1-4.2,4.2Z" fill="none" stroke="#ffd1b8" stroke-linecap="round" stroke-linejoin="round" stroke-width="1.8"/>
      <path id="Path_204" data-name="Path 204" d="M189,450.7H168.2a1.54,1.54,0,0,1-1.5-1.5h0a1.54,1.54,0,0,1,1.5-1.5H189a1.54,1.54,0,0,1,1.5,1.5h0a1.42,1.42,0,0,1-1.5,1.5Z" fill="#ffd1b8"/>
      <path id="Path_205" data-name="Path 205" d="M933.2,361.7h-455a4.65,4.65,0,0,1-4.6-4.6V277.4a4.65,4.65,0,0,1,4.6-4.6h455a4.65,4.65,0,0,1,4.6,4.6v79.7a4.59,4.59,0,0,1-4.6,4.6Z" fill="none" stroke="#ffd1b8" stroke-linecap="round" stroke-linejoin="round" stroke-width="1.8"/>
      <path id="Path_206" data-name="Path 206" d="M933.2,460.6h-455a4.65,4.65,0,0,1-4.6-4.6V376.3a4.65,4.65,0,0,1,4.6-4.6h455a4.65,4.65,0,0,1,4.6,4.6V456a4.53,4.53,0,0,1-4.6,4.6Z" fill="none" stroke="#ffd1b8" stroke-linecap="round" stroke-linejoin="round" stroke-width="1.8"/>
      <rect id="Rectangle_19" data-name="Rectangle 19" width="9.9" height="50.3" transform="translate(504.3 311.4)" fill="none" stroke="#ffd1b8" stroke-linecap="round" stroke-linejoin="round" stroke-width="1.8"/>
      <rect id="Rectangle_20" data-name="Rectangle 20" width="10.3" height="36.6" transform="translate(514.1 325.1)" fill="none" stroke="#ffd1b8" stroke-linecap="round" stroke-linejoin="round" stroke-width="1.8"/>
      <rect id="Rectangle_21" data-name="Rectangle 21" width="9.9" height="50.3" transform="translate(802.6 410.2)" fill="none" stroke="#ffd1b8" stroke-linecap="round" stroke-linejoin="round" stroke-width="1.8"/>
      <rect id="Rectangle_22" data-name="Rectangle 22" width="10.3" height="36.6" transform="translate(812.5 423.9)" fill="none" stroke="#ffd1b8" stroke-linecap="round" stroke-linejoin="round" stroke-width="1.8"/>
      <rect id="Rectangle_23" data-name="Rectangle 23" width="9.9" height="50.3" transform="translate(782.5 410.2)" fill="none" stroke="#ffd1b8" stroke-linecap="round" stroke-linejoin="round" stroke-width="1.8"/>
      <rect id="Rectangle_24" data-name="Rectangle 24" width="50.3" height="9.9" transform="translate(758.015 457.02) rotate(-72.48)" fill="none" stroke="#ffd1b8" stroke-linecap="round" stroke-linejoin="round" stroke-width="1.8"/>
      <rect id="Rectangle_25" data-name="Rectangle 25" width="10.3" height="36.6" transform="translate(792.4 423.9)" fill="none" stroke="#ffd1b8" stroke-linecap="round" stroke-linejoin="round" stroke-width="1.8"/>
      <rect id="Rectangle_26" data-name="Rectangle 26" width="9.9" height="50.3" transform="translate(669.1 311.4)" fill="none" stroke="#ffd1b8" stroke-linecap="round" stroke-linejoin="round" stroke-width="1.8"/>
      <rect id="Rectangle_27" data-name="Rectangle 27" width="10.3" height="36.6" transform="translate(679 325.1)" fill="none" stroke="#ffd1b8" stroke-linecap="round" stroke-linejoin="round" stroke-width="1.8"/>
      <rect id="Rectangle_28" data-name="Rectangle 28" width="9.9" height="50.3" transform="translate(571.3 311.4)" fill="none" stroke="#ffd1b8" stroke-linecap="round" stroke-linejoin="round" stroke-width="1.8"/>
      <rect id="Rectangle_29" data-name="Rectangle 29" width="50.3" height="9.9" transform="translate(546.827 358.216) rotate(-72.48)" fill="none" stroke="#ffd1b8" stroke-linecap="round" stroke-linejoin="round" stroke-width="1.8"/>
      <rect id="Rectangle_30" data-name="Rectangle 30" width="10.3" height="36.6" transform="translate(581.2 325.1)" fill="none" stroke="#ffd1b8" stroke-linecap="round" stroke-linejoin="round" stroke-width="1.8"/>
      <path id="Path_207" data-name="Path 207" d="M812.4,318l1.1-14.9a1.65,1.65,0,0,0-1.7-1.8h-8.6a1.71,1.71,0,0,0-1.7,1.8l1.1,14.9s-9,5.8-8.9,10.6c.1,3.7,2.3,21.4,3.3,29.2a4.32,4.32,0,0,0,4.3,3.8h12.4a4.32,4.32,0,0,0,4.3-3.8c1-7.8,3.2-25.5,3.3-29.2C821.4,323.7,812.4,318,812.4,318Z" fill="#ffd1b8"/>
      <path id="Path_208" data-name="Path 208" d="M772.5,318l1.1-14.9a1.65,1.65,0,0,0-1.7-1.8h-8.6a1.71,1.71,0,0,0-1.7,1.8l1.1,14.9s-9,5.8-8.9,10.6c.1,3.7,2.3,21.4,3.3,29.2a4.32,4.32,0,0,0,4.3,3.8h12.4a4.32,4.32,0,0,0,4.3-3.8c1-7.8,3.2-25.5,3.3-29.2C781.5,323.7,772.5,318,772.5,318Z" fill="#ffd1b8"/>
      <line id="Line_40" data-name="Line 40" x2="955.8" transform="translate(173.2 555)" fill="none" stroke="#ffd1b8" stroke-linecap="round" stroke-linejoin="round" stroke-width="1.8"/>
    </g>
    <g id="Group_4" data-name="Group 4" clip-path="url(#clip-path)">
      <path id="Path_210" data-name="Path 210" d="M261.1,565.2V685.5h8.1l2.6-120.3Z" fill="#b0d7c0"/>
      <path id="Path_211" data-name="Path 211" d="M271.8,565.2H261.1v13.1h10.4Z" fill="#6dafa7"/>
      <path id="Path_212" data-name="Path 212" d="M741.6,565.2V685.5h-8.2l-2.5-120.3Z" fill="#b0d7c0"/>
      <path id="Path_213" data-name="Path 213" d="M730.9,565.2h10.7v13.1H731.2Z" fill="#6dafa7"/>
      <path id="Path_214" data-name="Path 214" d="M776.2,560.3H226.5L285,534.7H717.6Z" fill="#ffb48b"/>
      <rect id="Rectangle_31" data-name="Rectangle 31" width="549.7" height="7.7" transform="translate(226.5 560.3)" fill="#b0d7c0"/>
    </g>
    <path id="Path_216" data-name="Path 216" d="M291.4,501.4l-12.7,7.3a4,4,0,0,1-5.5-1.5l-36.4-62.8a4,4,0,0,1,1.5-5.5l12.7-7.3a4,4,0,0,1,5.5,1.5l36.4,62.8a4.07,4.07,0,0,1-1.5,5.5Z" fill="#22272e"/>
    <path id="Path_217" data-name="Path 217" d="M282.5,492.5A4,4,0,1,0,281,498a4.07,4.07,0,0,0,1.5-5.5Z" fill="#63737a"/>
    <line id="Line_41" data-name="Line 41" y1="5.4" x2="9.3" transform="translate(265.8 477.1)" fill="none" stroke="#63737a" stroke-linecap="round" stroke-linejoin="round" stroke-width="1.8"/>
    <line id="Line_42" data-name="Line 42" y1="5.4" x2="9.4" transform="translate(263.2 472.7)" fill="none" stroke="#63737a" stroke-linecap="round" stroke-linejoin="round" stroke-width="1.8"/>
    <path id="Path_218" data-name="Path 218" d="M310.6,458.5l-8.2,34.7c-.3,1,4.5,3.5,10.9,5.7s11.8,3.2,12.1,2.3l15.1-32.3Z" fill="#ffb48b"/>
    <path id="Path_219" data-name="Path 219" d="M332.7,477.6l5.6,1.9a4.26,4.26,0,0,1,2.4,6l-4.7,9a4.24,4.24,0,0,1-5.2,2l-6.1-2.1" fill="none" stroke="#ffb48b" stroke-linecap="round" stroke-linejoin="round" stroke-width="1.8"/>
    <path id="Path_220" data-name="Path 220" d="M340.5,469c-.4,1.2-7.5-.1-15.7-3s-14.6-6.2-14.2-7.5,7.5.1,15.7,3S340.9,467.7,340.5,469Z" fill="#6dafa7"/>
    <path id="Path_221" data-name="Path 221" d="M393.7,288.8,279,319.2a7,7,0,0,1-8.8-6L255.9,189.5a4.74,4.74,0,0,1,5.1-5.3l116.6,8.1a7,7,0,0,1,6.5,6l13,85.2a4.65,4.65,0,0,1-3.4,5.3Z" fill="#63737a"/>
    <path id="Path_222" data-name="Path 222" d="M399,289.2,283.1,319.9a7.16,7.16,0,0,1-8.9-6.1l-14.4-125a4.89,4.89,0,0,1,5.2-5.4l117.9,8.1a7.13,7.13,0,0,1,6.6,6l13.2,86.1a5.27,5.27,0,0,1-3.7,5.6Z" fill="#22272e"/>
    <path id="Path_223" data-name="Path 223" d="M308.3,207.1l-28.3-.4a1.09,1.09,0,0,1-1.1-1l-.4-3.2a1.16,1.16,0,0,1,1.1-1.3l28.4.8a1.09,1.09,0,0,1,1.1,1l.4,2.9A1.22,1.22,0,0,1,308.3,207.1Z" fill="#6dafa7"/>
    <line id="Line_43" data-name="Line 43" y1="0.7" x2="54.8" transform="translate(280.3 217)" fill="none" stroke="#63737a" stroke-linecap="round" stroke-linejoin="round" stroke-width="1.8"/>
    <line id="Line_44" data-name="Line 44" y1="1.4" x2="34.7" transform="translate(281.7 227.4)" fill="none" stroke="#63737a" stroke-linecap="round" stroke-linejoin="round" stroke-width="1.8"/>
    <path id="Path_224" data-name="Path 224" d="M294.7,297.2l-3.3.7a1.21,1.21,0,0,1-1.5-1.1l-3.3-27.7a1.24,1.24,0,0,1,1.1-1.4l3.3-.5a1.24,1.24,0,0,1,1.4,1.1l3.4,27.5A1.52,1.52,0,0,1,294.7,297.2Z" fill="#ffb48b"/>
    <path id="Path_225" data-name="Path 225" d="M306.4,293.3l-5.5-44a1.24,1.24,0,0,1,1.1-1.4l2.8-.3a1.11,1.11,0,0,1,1.3,1.1l5.5,43.6a1.28,1.28,0,0,1-1,1.4l-2.9.6C307.2,294.5,306.5,294,306.4,293.3Z" fill="#6dafa7"/>
    <path id="Path_226" data-name="Path 226" d="M321.7,290l-2.1-16.2a1.25,1.25,0,0,1,1-1.4l2.4-.4a1.24,1.24,0,0,1,1.4,1.1l2.1,16.1a1.28,1.28,0,0,1-1,1.4l-2.4.5a1.19,1.19,0,0,1-1.4-1.1Z" fill="#ffb48b"/>
    <path id="Path_227" data-name="Path 227" d="M339.3,287.6l-2.1.4a1.2,1.2,0,0,1-1.5-1l-1.2-8.7a1.25,1.25,0,0,1,1-1.4l2.1-.4a1.19,1.19,0,0,1,1.4,1.1l1.2,8.7a1.13,1.13,0,0,1-.9,1.3Z" fill="#f4c2c9"/>
    <path id="Path_228" data-name="Path 228" d="M380.1,275.5l-8.6-19.3,7.4-17.1c3.4,3.6,5.9,9,6.9,15.1C386.9,262.9,384.6,271.2,380.1,275.5Z" fill="#6dafa7"/>
    <path id="Path_229" data-name="Path 229" d="M378.8,239.1l-7.4,17.1-14.5-11.6c2.1-5.9,6.2-10,11.3-10.3C372,234,375.8,235.8,378.8,239.1Z" fill="#f4c2c9"/>
    <path id="Path_230" data-name="Path 230" d="M380.1,275.5a11,11,0,0,1-5.4,2.9c-8.4,1.8-17.1-7.2-18.9-20.1a30.88,30.88,0,0,1,1.1-13.8l14.5,11.6Z" fill="#ffb48b"/>
    <path id="Path_231" data-name="Path 231" d="M477,190.3A229.639,229.639,0,0,0,491.4,214a4.88,4.88,0,0,0,6.9,1.2,119.822,119.822,0,0,1,14.7-8.5,5.45,5.45,0,0,0,2.6-6.9c-2.7-6.3-5.5-14.7-7.8-22.1a16.59,16.59,0,0,0-23.3-9.9h0a16.53,16.53,0,0,0-7.5,22.5Z" fill="#ffb48b"/>
    <path id="Path_232" data-name="Path 232" d="M510.2,201.2a4.33,4.33,0,0,1,3.7,1.8,37.671,37.671,0,0,0,7.8,8.5c4.7,3.3,21.8,6.2,23.2,8.7s-2.7,3.3-5.5,3-5.2-.6-5.8.6.2,6.2,4.1,9.7,10.9,7.2,11.2,10.4-7.6.1-11.1-2.1a37.76,37.76,0,0,0-4.5-2.6s-.5,1-3.3,2c-1.6.5-3.3-.8-4.8-.5s-8.2,3.7-11.4,2.1c-2.3-1.2-7.4-12.8-9.9-15.9-1.8-2.3-6.1-8.9-8.2-12.2a4.12,4.12,0,0,1-.1-4.4,16.75,16.75,0,0,1,14.6-9.1Z" fill="#f4c2c9"/>
    <path id="Path_233" data-name="Path 233" d="M533.2,239.3a29.25,29.25,0,0,1-5.5-3.6,11,11,0,0,1-1.6-2.2" fill="none" stroke="#e26e85" stroke-linecap="round" stroke-linejoin="round" stroke-width="1.8"/>
    <path id="Path_234" data-name="Path 234" d="M525.1,240.7a20.783,20.783,0,0,1-3.3-1.7,17.836,17.836,0,0,1-2.2-2.9" fill="none" stroke="#e26e85" stroke-linecap="round" stroke-linejoin="round" stroke-width="1.8"/>
    <path id="Path_235" data-name="Path 235" d="M519.3,242.7a11.081,11.081,0,0,1-2.8-1.6,24.575,24.575,0,0,1-2.1-2.4" fill="none" stroke="#e26e85" stroke-linecap="round" stroke-linejoin="round" stroke-width="1.8"/>
    <path id="Path_236" data-name="Path 236" d="M444,269.4a.83.83,0,0,1,1.6,0,11.219,11.219,0,0,0,1.8,3.8,12.25,12.25,0,0,0,3.8,1.8.83.83,0,0,1,0,1.6,11.22,11.22,0,0,0-3.8,1.8,12.25,12.25,0,0,0-1.8,3.8.83.83,0,0,1-1.6,0,11.219,11.219,0,0,0-1.8-3.8,12.25,12.25,0,0,0-3.8-1.8.83.83,0,0,1,0-1.6,6.25,6.25,0,0,0,5.6-5.6Z" fill="#6dafa7"/>
    <path id="Path_237" data-name="Path 237" d="M456.1,211.7a.63.63,0,0,1,1.2,0,7.51,7.51,0,0,0,1.3,2.7,8.48,8.48,0,0,0,2.7,1.3.62.62,0,0,1,0,1.2,7.511,7.511,0,0,0-2.7,1.3,8.48,8.48,0,0,0-1.3,2.7.63.63,0,0,1-1.2,0,7.51,7.51,0,0,0-1.3-2.7,8.48,8.48,0,0,0-2.7-1.3.62.62,0,0,1,0-1.2,4.54,4.54,0,0,0,4-4Z" fill="#6dafa7"/>
    <path id="Path_238" data-name="Path 238" d="M550.8,261.4a.62.62,0,0,1,1.2,0,7.51,7.51,0,0,0,1.3,2.7,11.342,11.342,0,0,0,2.7,1.3.63.63,0,0,1,0,1.2,7.51,7.51,0,0,0-2.7,1.3,8.48,8.48,0,0,0-1.3,2.7.63.63,0,0,1-1.2,0,7.509,7.509,0,0,0-1.3-2.7,8.479,8.479,0,0,0-2.7-1.3.63.63,0,0,1,0-1.2,7.509,7.509,0,0,0,2.7-1.3A6.17,6.17,0,0,0,550.8,261.4Z" fill="#6dafa7"/>
    <path id="Path_239" data-name="Path 239" d="M466.2,244.3c.2-.5.8-.5.9,0a9.26,9.26,0,0,0,1,2.2,5,5,0,0,0,2.2,1c.5.2.5.8,0,.9a9.26,9.26,0,0,0-2.2,1,5,5,0,0,0-1,2.2c-.2.5-.8.5-.9,0a9.259,9.259,0,0,0-1-2.2,5,5,0,0,0-2.2-1c-.5-.2-.5-.8,0-.9a9.261,9.261,0,0,0,2.2-1,7.66,7.66,0,0,0,1-2.2Z" fill="#ffb48b"/>
    <path id="Path_240" data-name="Path 240" d="M558.8,288.1a.83.83,0,0,1,1.6,0,11.22,11.22,0,0,0,1.8,3.8,12.25,12.25,0,0,0,3.8,1.8.83.83,0,0,1,0,1.6,11.22,11.22,0,0,0-3.8,1.8,12.251,12.251,0,0,0-1.8,3.8.83.83,0,0,1-1.6,0,11.22,11.22,0,0,0-1.8-3.8,12.251,12.251,0,0,0-3.8-1.8.83.83,0,0,1,0-1.6,11.22,11.22,0,0,0,3.8-1.8A13.5,13.5,0,0,0,558.8,288.1Z" fill="#ffb48b"/>
    <path id="Path_241" data-name="Path 241" d="M727.8,268.2s-1.4,1.4,1.2,12a59.48,59.48,0,0,0,8.5,18.7,18.42,18.42,0,0,0,5.3-17.4C740.6,270.5,727.8,268.2,727.8,268.2Z" fill="#22272e"/>
    <path id="Path_242" data-name="Path 242" d="M729.3,299.4s-2,.6-6.7,5.5S711,312.3,702.8,316s-12.2-13.5-10.1-22.2,11-14.7,11-14.7l17.5,2.4s5.8-6.9,8.1-2.4S731.3,293.7,729.3,299.4Z" fill="#f4c2c9"/>
    <path id="Path_243" data-name="Path 243" d="M714.3,331.3,654.7,345a4.82,4.82,0,0,1-5.8-3.6L632,268.2a4.82,4.82,0,0,1,3.6-5.8l59.6-13.7a4.82,4.82,0,0,1,5.8,3.6l16.8,73.2a4.69,4.69,0,0,1-3.5,5.8Z" fill="#22272e"/>
    <path id="Path_244" data-name="Path 244" d="M689.2,269.7l-38.8,8.9a2.31,2.31,0,0,1-2.8-1.8h0a2.31,2.31,0,0,1,1.8-2.8l38.8-8.9a2.31,2.31,0,0,1,2.8,1.8h0a2.53,2.53,0,0,1-1.8,2.8Z" fill="#ffb48b"/>
    <line id="Line_45" data-name="Line 45" y1="10" x2="43.4" transform="translate(650.3 278.9)" fill="none" stroke="#63737a" stroke-linecap="round" stroke-linejoin="round" stroke-width="1.8"/>
    <line id="Line_46" data-name="Line 46" y1="10" x2="43.4" transform="translate(652 286.2)" fill="none" stroke="#63737a" stroke-linecap="round" stroke-linejoin="round" stroke-width="1.8"/>
    <path id="Path_245" data-name="Path 245" d="M677.9,325l-16,3.7a2.31,2.31,0,0,1-2.8-1.8l-3.7-16a2.31,2.31,0,0,1,1.8-2.8l16-3.7a2.31,2.31,0,0,1,2.8,1.8l3.7,16a2.53,2.53,0,0,1-1.8,2.8Z" fill="#ffb48b"/>
    <line id="Line_47" data-name="Line 47" y1="3.8" x2="16.3" transform="translate(681.9 298.5)" fill="none" stroke="#63737a" stroke-linecap="round" stroke-linejoin="round" stroke-width="1.8"/>
    <line id="Line_48" data-name="Line 48" y1="3.7" x2="16.4" transform="translate(683.7 306.5)" fill="none" stroke="#63737a" stroke-linecap="round" stroke-linejoin="round" stroke-width="1.8"/>
    <line id="Line_49" data-name="Line 49" y1="2.3" x2="9.9" transform="translate(685.5 315.9)" fill="none" stroke="#63737a" stroke-linecap="round" stroke-linejoin="round" stroke-width="1.8"/>
    <path id="Path_246" data-name="Path 246" d="M676.6,255.3l-21.2,4.9a2.11,2.11,0,0,1-2.5-2.5l.2-1a2.17,2.17,0,0,1,1.6-1.6l20.3-4.7a2.07,2.07,0,0,1,2.1.7l.6.8a2.09,2.09,0,0,1-1.1,3.4Z" fill="#6dafa7"/>
    <path id="Path_247" data-name="Path 247" d="M722.6,275.4s-2.5,1.3-7.3,0-5.6-2.5-10.6-3.8-11.9.1-13.1,2.2,2,3.4,6.3,3.9,6.3,8.7,13.2,11.8C722.6,294.6,732.8,279,722.6,275.4Z" fill="#f4c2c9"/>
    <path id="Path_248" data-name="Path 248" d="M691.6,273.8c-1.2,2.1,2,3.4,6.3,3.9s6.3,8.7,13.2,11.8a11,11,0,0,0,6.8.8" fill="none" stroke="#e26e85" stroke-linecap="round" stroke-linejoin="round" stroke-width="1.8"/>
    <path id="Path_249" data-name="Path 249" d="M730.2,270.8s-5.3,3.4-7.6,4.6a26.6,26.6,0,0,1,6.3,12.3c1.8,7.9.4,11.7.4,11.7s5.9-.6,8.8-2.7c0,0,2.8-4.6.5-13.6S730.2,270.8,730.2,270.8Z" fill="#fff"/>
    <path id="Path_250" data-name="Path 250" d="M793,258.6a20.15,20.15,0,0,0-30.9-10.7,222.285,222.285,0,0,1-19,12.1l-15.3,8.3s8.7,8.6,10,18.1-.3,12.6-.3,12.6,23.9-5.9,45-16.2A20.5,20.5,0,0,0,793,258.6Z" fill="#6dafa7"/>
    <path id="Path_251" data-name="Path 251" d="M735.5,291.7a1.2,1.2,0,1,0-1.2,1.2,1.16,1.16,0,0,0,1.2-1.2Z" fill="#22272e"/>
    <path id="Path_252" data-name="Path 252" d="M601.3,476.3,672,468l-1.2,12.8-13.9,2-1.4,2.6Z" fill="#63737a"/>
    <path id="Path_253" data-name="Path 253" d="M655.5,484l18.4-72.9a6.41,6.41,0,0,1,5.3-4.8l94.5-14.1a2.82,2.82,0,0,1,3.1,3.6l-19.3,65.3a6.62,6.62,0,0,1-4.8,4.5l-93.9,21.9a2.84,2.84,0,0,1-3.3-3.5Z" fill="#22272e"/>
    <path id="Path_254" data-name="Path 254" d="M727.8,437.4c-1,3.6-4.3,7.1-7.6,7.8s-5.1-1.7-4.1-5.3,4.3-7.1,7.6-7.8S728.8,433.8,727.8,437.4Z" fill="#63737a"/>
    <path id="Path_255" data-name="Path 255" d="M656.9,487.2c-.3-.2-41.3-5.6-52.7-7.2a3.26,3.26,0,0,1-2.9-3.3v-.4l55.6,6.5v4.4Z" fill="#22272e"/>
    <path id="Path_256" data-name="Path 256" d="M742.9,349.8h30.8a2.53,2.53,0,0,1,2.5,2.7l-1.6,19.3a3.43,3.43,0,0,1-3.1,3.2l-31,3.4a2.44,2.44,0,0,1-2.7-2.6l1.7-22.7a3.35,3.35,0,0,1,3.4-3.3Z" fill="none" stroke="#6dafa7" stroke-linecap="round" stroke-linejoin="round" stroke-width="1.8"/>
    <path id="Path_257" data-name="Path 257" d="M740.9,350.5l18,9.7a3.54,3.54,0,0,0,3.7-.3l12.8-9.4" fill="none" stroke="#6dafa7" stroke-linecap="round" stroke-linejoin="round" stroke-width="1.8"/>
    <path id="Path_258" data-name="Path 258" d="M569.8,252.5l-3.2,3.5a1.52,1.52,0,0,0,0,2h0a1.53,1.53,0,0,0,1.8.3l3.8-2.3Z" fill="#22272e"/>
    <path id="Path_259" data-name="Path 259" d="M599,261l.9,4.7a1.55,1.55,0,0,1-1,1.7h0a1.38,1.38,0,0,1-1.7-.8l-2-4Z" fill="#22272e"/>
    <circle id="Ellipse_17" data-name="Ellipse 17" cx="21.8" cy="21.8" r="21.8" transform="translate(566.5 221.5)" fill="#6dafa7"/>
    <circle id="Ellipse_18" data-name="Ellipse 18" cx="14" cy="14" r="14" transform="matrix(0.876, -0.482, 0.482, 0.876, 569.262, 237.776)" fill="#ffb48b"/>
    <path id="Path_260" data-name="Path 260" d="M592.2,248.3l-3.9-5,2.1-7" fill="none" stroke="#63737a" stroke-linecap="round" stroke-linejoin="round" stroke-width="1.8"/>
    <path id="Path_261" data-name="Path 261" d="M574.4,222.2a1.16,1.16,0,0,1-1.5-.8,6.34,6.34,0,0,1,11.6-4.4,1.07,1.07,0,0,1-.6,1.6Z" fill="#6dafa7"/>
    <path id="Path_262" data-name="Path 262" d="M611.3,233a1.15,1.15,0,0,0,1.7.1,6.31,6.31,0,0,0-7.4-9.9,1.08,1.08,0,0,0-.4,1.6Z" fill="#6dafa7"/>
    <path id="Path_263" data-name="Path 263" d="M598.2,219.9l-5.7-1.6a1.77,1.77,0,0,1-1.2-2.2h0a1.77,1.77,0,0,1,2.2-1.2l5.7,1.6a1.77,1.77,0,0,1,1.2,2.2h0A1.81,1.81,0,0,1,598.2,219.9Z" fill="#6dafa7"/>
    <rect id="Rectangle_32" data-name="Rectangle 32" width="5.6" height="4.3" transform="translate(591.971 222.808) rotate(-73.8)" fill="#6dafa7"/>
    <path id="Path_264" data-name="Path 264" d="M355.6,388.7l.9,9.2a2.16,2.16,0,0,1-1.3,2.2,7.22,7.22,0,0,0-4.2,7.2l1.1,10.2a7,7,0,0,0,5.6,6.2,2.24,2.24,0,0,1,1.7,1.9l.9,9.2a2.11,2.11,0,0,1-3.1,2.1l-2.2-1.1a15.78,15.78,0,0,1-8.6-12.6l-2.1-20.3a16,16,0,0,1,5.9-14.1l2-1.6a2.14,2.14,0,0,1,3.4,1.5Z" fill="#22272e"/>
    <path id="Path_265" data-name="Path 265" d="M402.3,194.4c1.8,12.2-5,23.3-16.4,24.9-13.1,1.8-26.8-9.5-28.6-25.1-1.7-15.3,9-25.8,22.1-24C390.9,171.8,400.6,182.4,402.3,194.4Z" fill="#ac6b47"/>
    <path id="Path_266" data-name="Path 266" d="M407,192.3c1.8,12.6-5.1,24.1-16.9,25.7-13.6,1.9-27.7-9.8-29.5-25.9-1.8-15.8,9.3-26.6,22.8-24.8C395.2,169,405.2,180,407,192.3Z" fill="#ffb48b"/>
    <path id="Path_267" data-name="Path 267" d="M390.6,185.3c.4,3.1-1.5,5.5-4.3,5.5s-5.7-2.7-6.1-5.9,1.7-5.6,4.6-5.4a6.79,6.79,0,0,1,5.8,5.8Z" fill="#22272e"/>
    <path id="Path_268" data-name="Path 268" d="M393.3,204.9l-10.3.7c-2.5.2-4.8-1.9-5.2-4.7h0c-.8-6.1,3.2-10.9,8.5-10.8h0c5,.1,9.5,4.6,10.3,10h0C396.8,202.7,395.4,204.8,393.3,204.9Z" fill="#22272e"/>
    <path id="Path_269" data-name="Path 269" d="M714.8,372.6a4,4,0,1,0-.3,5.6,3.88,3.88,0,0,0,.3-5.6Z" fill="#22272e"/>
    <path id="Path_270" data-name="Path 270" d="M709.6,363.5l-.7-.8a6.28,6.28,0,0,0-8.8-.4h0a6.28,6.28,0,0,0-.4,8.8l.7.8a7.26,7.26,0,0,1,1.7,3.1c.2.9.5,1.9.7,2.9a2.91,2.91,0,0,0,4.8,1.4l4.4-4,4.4-4a2.92,2.92,0,0,0-1-4.9c-1-.3-1.9-.7-2.8-1a6.72,6.72,0,0,1-3-1.9Z" fill="#6dafa7"/>
    <path id="Path_271" data-name="Path 271" d="M630.2,379.2a74,74,0,0,1,0,25.2l32.4-7s-7.2-12-9.1-23Z" fill="#22272e"/>
    <line id="Line_50" data-name="Line 50" y1="5" x2="23.8" transform="translate(630.9 379.4)" fill="none" stroke="#63737a" stroke-linecap="round" stroke-linejoin="round" stroke-width="1.8"/>
    <line id="Line_51" data-name="Line 51" y1="3.7" x2="15.4" transform="translate(636.5 385.4)" fill="none" stroke="#63737a" stroke-linecap="round" stroke-linejoin="round" stroke-width="1.8"/>
    <line id="Line_52" data-name="Line 52" y1="2.4" x2="10.3" transform="translate(636.8 391.5)" fill="none" stroke="#63737a" stroke-linecap="round" stroke-linejoin="round" stroke-width="1.8"/>
    <path id="Path_272" data-name="Path 272" d="M706.8,489.2l21.8-4.9s.3,10,15.7,15.9c0,0-17.1,13-22.4,16.4C722,516.5,709.2,509.9,706.8,489.2Z" fill="#6dafa7"/>
    <line id="Line_53" data-name="Line 53" y1="7.1" x2="21.9" transform="translate(708.1 488.7)" fill="none" stroke="#22272e" stroke-linecap="round" stroke-linejoin="round" stroke-width="1.8"/>
    <line id="Line_54" data-name="Line 54" y1="6.3" x2="13.7" transform="translate(715.3 493.6)" fill="none" stroke="#22272e" stroke-linecap="round" stroke-linejoin="round" stroke-width="1.8"/>
    <line id="Line_55" data-name="Line 55" y1="7.4" x2="13.7" transform="translate(717.6 496.7)" fill="none" stroke="#22272e" stroke-linecap="round" stroke-linejoin="round" stroke-width="1.8"/>
    <line id="Line_56" data-name="Line 56" y1="4.8" x2="7.9" transform="translate(720.6 503.3)" fill="none" stroke="#22272e" stroke-linecap="round" stroke-linejoin="round" stroke-width="1.8"/>
    <path id="Path_273" data-name="Path 273" d="M361,333.3a16.55,16.55,0,0,1-5.7.2l1.8-2.8c-3.9.1-13.3-5-14.3-9.7a2.79,2.79,0,0,1,.1-1.6h0v-.1c1.5-3,9.4-2.3,15.2,3.4C365,329.4,361,333.3,361,333.3Z" fill="#b8d8c7"/>
    <path id="Path_274" data-name="Path 274" d="M357.2,330.7l-1.8,2.8a22.151,22.151,0,0,1-8-2.7,14.25,14.25,0,0,1-6.5-6.9c1.1-2.5,1.9-4.2,2.1-4.6a2.86,2.86,0,0,0-.1,1.6C343.9,325.7,353.3,330.8,357.2,330.7Z" fill="#6dafa7"/>
    <path id="Path_275" data-name="Path 275" d="M301.6,361s4.6,2.1,8.9,1.5,12.7-3,14.4-2.1,4.6,1,3.7,3.9-2.6,6.3-6.4,6.5-7.6,3.2-13.9,1.4-10-2.7-10.2-5.2S301.6,361,301.6,361Z" fill="#f4c2c9"/>
    <path id="Path_276" data-name="Path 276" d="M361,333.3c-1.6,4.7-22.5,32.2-32.4,46.6s-26.7,55.2-35.1,53.5-18.8-9.9-17-14.6,23.1-18.1,39.3-41.2,15.8-39.1,20.7-52.2c2.1-5.6,3.6-5.2,3.6-5.2a10.349,10.349,0,0,0,.7,3.8,13.35,13.35,0,0,0,6.5,6.9,22.15,22.15,0,0,0,8,2.7,14.9,14.9,0,0,0,5.7-.3Z" fill="#fff"/>
    <path id="Path_277" data-name="Path 277" d="M325,374.7s4-7.4,5-11.9" fill="none" stroke="#b8d8c7" stroke-linecap="round" stroke-linejoin="round" stroke-width="1.8"/>
    <path id="Path_278" data-name="Path 278" d="M328.8,375.7s2.7-5.1,4.1-6.4" fill="none" stroke="#b8d8c7" stroke-linecap="round" stroke-linejoin="round" stroke-width="1.8"/>
    <path id="Path_279" data-name="Path 279" d="M314.1,395.1a64.331,64.331,0,0,1-4,8.5" fill="none" stroke="#b8d8c7" stroke-linecap="round" stroke-linejoin="round" stroke-width="1.8"/>
    <path id="Path_280" data-name="Path 280" d="M308.5,393.7a52.361,52.361,0,0,1-10.4,11.2" fill="none" stroke="#b8d8c7" stroke-linecap="round" stroke-linejoin="round" stroke-width="1.8"/>
    <path id="Path_281" data-name="Path 281" d="M317,367.2a80.367,80.367,0,0,0,9.7,5.4c3.6,1.4,8.2-.1,8.6-.1s2.3,3,.6,5.1-3.6,2.4-3.8,3.1.3,4.7-.8,6.1-3.2,2.2-3.9,3.1-1.4,5.4-2.5,6.1-2.5,3-5.3,3.4-13.8-4-24-11.9a56.209,56.209,0,0,0-10.7-6.8s4.5-19.7,12.7-17.9S317,367.2,317,367.2Z" fill="#f4c2c9"/>
    <path id="Path_282" data-name="Path 282" d="M317,367.2a80.367,80.367,0,0,0,9.7,5.4c3.6,1.4,8.2-.1,8.6-.1" fill="none" stroke="#e26e85" stroke-linecap="round" stroke-linejoin="round" stroke-width="1.8"/>
    <path id="Path_283" data-name="Path 283" d="M292.3,354.4a1.92,1.92,0,0,1,2.4.1c1.3,1,6.2,4.9,6.8,6.5s-2.7,11.5-8,17.6-8.1,6.1-8.4,6-7.7-3.5-8.7-4.8a3.26,3.26,0,0,1-.6-2.7S289.9,354.3,292.3,354.4Z" fill="#6dafa7"/>
    <path id="Path_284" data-name="Path 284" d="M227.6,319.8a20.45,20.45,0,0,0,1.9,27.9c2.3,2.1,4.9,4.5,7.8,7.1,15.6,14,39.8,22.7,39.8,22.7,13.2-6.1,15.2-23.1,15.2-23.1-11.9-7.5-23.7-21.5-32.4-33.7a20.44,20.44,0,0,0-32.3-.9Z" fill="#ffb48b"/>
    <path id="Path_285" data-name="Path 285" d="M332.2,380.8a18.672,18.672,0,0,1-4.4,1.5,25.346,25.346,0,0,1-4.1,0" fill="none" stroke="#e26e85" stroke-linecap="round" stroke-linejoin="round" stroke-width="1.8"/>
    <path id="Path_286" data-name="Path 286" d="M328,389.6a6.849,6.849,0,0,1-2.9,1.3,5.57,5.57,0,0,1-3.1-.6" fill="none" stroke="#e26e85" stroke-linecap="round" stroke-linejoin="round" stroke-width="1.8"/>
    <path id="Path_287" data-name="Path 287" d="M324.1,396.9s-2.4.8-3.7-.4" fill="none" stroke="#e26e85" stroke-linecap="round" stroke-linejoin="round" stroke-width="1.8"/>
    <path id="Path_288" data-name="Path 288" d="M592.6,496c-19.1.4-49.1,7.6-67.3,15a312.165,312.165,0,0,0-30.5,14.3s4.3-2.4,9.4,7.4,3.3,21.2,3.3,21.2c2.6-.7,64.6-2.6,84.4-5.2s42.7-9.8,41.3-29.1-18.4-24.6-41.7-28.9-36.3-2.5-37.7-2.9a18.49,18.49,0,0,1-8.3-5.1c-2.4-2.9-4.9-10.8-4.9-10.8s-60.4-3.8-66.5,6.4,21.3,39.4,21.3,39.4Z" fill="#22272e"/>
    <path id="Path_289" data-name="Path 289" d="M448.6,470.7s-3.3,7.2-4.5,9.8-28.9,3.6-41.3,3.8-36.7,5.2-38.6,23.1c-2.2,20.4,14.9,29.9,45.4,32.1,34.3,2.5,66.1,1.7,72.8,2.4s25.2-7.6,27.3-15.3S540.9,513,540.9,513s6.4-32-4.1-38.4S448.6,470.7,448.6,470.7Z" fill="#22272e"/>
    <path id="Path_290" data-name="Path 290" d="M509.7,519.4s-56.8-32.7-101.9-30.8" fill="none" stroke="#63737a" stroke-linecap="round" stroke-linejoin="round" stroke-width="1.8"/>
    <path id="Path_291" data-name="Path 291" d="M494.8,525.4s-2.8,1.2-1.2,10.8S504,556,507.5,554s1.7-19.4-2.3-25.2S494.8,525.4,494.8,525.4Z" fill="#22272e"/>
    <path id="Path_292" data-name="Path 292" d="M488.3,528.6s-5.5,6.7-8,8.6-13.7,2.7-17.8,9.1,5.3,21.1,12.9,18.7c-2.1,1.3-3.9,2.5-5.3,3.4-6.8,4.6-19.2,11.5-28,1.4-7.4-8.6-4.8-19,.6-25.9s19.3-7.7,22.5-8.6,10.5-6.2,13.7-8.1C481.6,525.6,483.6,527.7,488.3,528.6Z" fill="#6dafa7"/>
    <path id="Path_293" data-name="Path 293" d="M507.7,550.7c-.4.1-7.6,1.3-10.6,1.9-2.4.5-13.8,7.2-21.8,12.3-7.6,2.4-17-12.3-12.9-18.7s15.3-7.2,17.8-9.1,8-8.6,8-8.6l2.3.3c6.4.5,9.7-1.7,9.7-1.7a19.082,19.082,0,0,1,3.8,5.5C507.6,539.3,507.9,546.6,507.7,550.7Z" fill="#f4c2c9"/>
    <path id="Path_294" data-name="Path 294" d="M592.6,496c-19.1.4-49.1,7.6-67.3,15a312.165,312.165,0,0,0-30.5,14.3" fill="none" stroke="#63737a" stroke-linecap="round" stroke-linejoin="round" stroke-width="1.8"/>
    <path id="Path_295" data-name="Path 295" d="M368.3,497.4a7.16,7.16,0,0,1,5.5-.1c5.4,1.8,7.2,13.7,4.5,21.1s-8.7,7.1-10.7,5" fill="none" stroke="#63737a" stroke-linecap="round" stroke-linejoin="round" stroke-width="1.8"/>
    <path id="Path_296" data-name="Path 296" d="M629.7,508.1s-5-5.7-10.9,1.4c-6.5,7.7-3.1,20.7,2.1,23.8s8.2,0,8.2,0" fill="none" stroke="#63737a" stroke-linecap="round" stroke-linejoin="round" stroke-width="1.8"/>
    <path id="Path_297" data-name="Path 297" d="M411.4,367a1.1,1.1,0,1,1-1.1-1.1,1.1,1.1,0,0,1,1.1,1.1Z" fill="none" stroke="#22272e" stroke-linecap="round" stroke-linejoin="round" stroke-width="1.8"/>
    <path id="Path_298" data-name="Path 298" d="M433.2,348.3c-2.1,7-4.3,10-4.1,16.4a22.61,22.61,0,0,1-21.1-4.2c.6-2.7.9-4.8.5-6.1-1.2-4.8-7.7-7-12.2-13s-4.9-16.6-2.7-17.9c1-.6,2-.4,3.5,4.6a29.608,29.608,0,0,0,2.5,5.9c-2.1-4.8-3-20.6,2.8-18.2,1.9.8-.3,4.2,2,10.3a15.39,15.39,0,0,0,6,8,12.89,12.89,0,0,1,1.9-8.4c2.2-3.1,7.8-6.6,8.8-3.3s-4,4.4-4.4,8.5c-.6,4.9,4.9,8.7,8.6,5.5s1.6-6.8,0-9.1-4.1-5.1-2.3-6.4,6.3.2,9.5,5.7S435.3,341.3,433.2,348.3Z" fill="#f4c2c9"/>
    <path id="Path_299" data-name="Path 299" d="M453.5,420s-22.5,28.4-37.3,34.8-24.8,1.9-27.7-13.6,6.3-43.2,10.3-53.4c2.9-7.6,7.5-19.6,9.2-27.2a23,23,0,0,0,21.1,4.2c.1,6.1-2.7,28.6-3,30.7.1-.7,1.3-4,9.7-15.8,9.7-13.5,19.4-19.4,19.4-19.4s8.2,3.9,10.6,22.2S453.5,420,453.5,420Z" fill="#6dafa7"/>
    <path id="Path_300" data-name="Path 300" d="M426.1,395.5s-.9,25.6-4.2,33.9" fill="none" stroke="#22272e" stroke-linecap="round" stroke-linejoin="round" stroke-width="1.8"/>
    <path id="Path_301" data-name="Path 301" d="M410.3,334.2a11.531,11.531,0,0,0,1.6,4.4" fill="none" stroke="#e26e85" stroke-linecap="round" stroke-linejoin="round" stroke-width="1.8"/>
    <path id="Path_302" data-name="Path 302" d="M405.7,368.5s5.7,8.2,22.8,5.8" fill="none" stroke="#22272e" stroke-linecap="round" stroke-linejoin="round" stroke-width="1.8"/>
    <path id="Path_303" data-name="Path 303" d="M391.4,449.9s-2.6-8.9,7-11,21.3,11.8,13.9,17.3" fill="none" stroke="#22272e" stroke-linecap="round" stroke-linejoin="round" stroke-width="1.8"/>
    <path id="Path_304" data-name="Path 304" d="M399.5,334.2a18,18,0,0,0,3.5,4.9c1,1,2.4,2,3,3.3" fill="none" stroke="#e26e85" stroke-linecap="round" stroke-linejoin="round" stroke-width="1.8"/>
    <path id="Path_305" data-name="Path 305" d="M518.9,273.7c11.4,2.9,16.8,9.4,16.3,25.8s-2.7,22.3,5.1,31.4,9.9,21.9-4.9,30-47.2,10.2-63.3,0-18-21.1-13.2-31.8,17.6-17.7,14.8-25.4.6.7.6.7a21.64,21.64,0,0,1-7.7-18.3c.6-12.2,15.6-16.8,23.4-17.2,4-.2,8.3,2.3,14.2,3.3C510.1,273,516,273,518.9,273.7Z" fill="#22272e"/>
    <path id="Path_306" data-name="Path 306" d="M495,351.5s-21.6,1.2-34.2,5.7-10.3,14.5-11.9,25-11.9,21.2-6.7,35.5,10.3,22.4,7.6,33.4-5.2,16.5-4.8,19.6,14.8,12.6,20.3,14.5,16.2-5.7,16.2-5.7,5.5,7.2,13.5,8.8,40.4-6.7,47.8-15a51.86,51.86,0,0,1-5-20.5c-.2-11.2,6.3-25.1,8.7-32.8s15.9-37.4,10.6-47.3C553.3,365.6,524.9,349.6,495,351.5Z" fill="#ffb48b"/>
    <g id="Group_5" data-name="Group 5" clip-path="url(#clip-path-3)">
      <path id="Path_307" data-name="Path 307" d="M440.6,482.6l1,1.2a2,2,0,0,1-.3,2.8l-1.2,1a2,2,0,0,1-2.8-.3l-1-1.2a2,2,0,0,1,.3-2.8l1.2-1a1.94,1.94,0,0,1,2.8.3Z" fill="#cb7d53"/>
      <path id="Path_308" data-name="Path 308" d="M442.7,464.5l1,1.2a2,2,0,0,1-.3,2.8l-1.2,1a2,2,0,0,1-2.8-.3l-1-1.2a2,2,0,0,1,.3-2.8l1.2-1A2,2,0,0,1,442.7,464.5Z" fill="#cb7d53"/>
      <path id="Path_309" data-name="Path 309" d="M444.9,446.5l1,1.2a2,2,0,0,1-.3,2.8l-1.2,1a2,2,0,0,1-2.8-.3l-1-1.2a2,2,0,0,1,.3-2.8l1.2-1a1.87,1.87,0,0,1,2.8.3Z" fill="#cb7d53"/>
      <path id="Path_310" data-name="Path 310" d="M447,428.4l1,1.2a2,2,0,0,1-.3,2.8l-1.2,1a2,2,0,0,1-2.8-.3l-1-1.2a2,2,0,0,1,.3-2.8l1.2-1A2,2,0,0,1,447,428.4Z" fill="#cb7d53"/>
      <path id="Path_311" data-name="Path 311" d="M449.1,410.3l1,1.2a2,2,0,0,1-.3,2.8l-1.2,1a2,2,0,0,1-2.8-.3l-1-1.2a2,2,0,0,1,.3-2.8l1.2-1A2,2,0,0,1,449.1,410.3Z" fill="#cb7d53"/>
      <path id="Path_312" data-name="Path 312" d="M456.9,484.5l1,1.2a2,2,0,0,1-.3,2.8l-1.2,1a2,2,0,0,1-2.8-.3l-1-1.2a2,2,0,0,1,.3-2.8l1.2-1a1.94,1.94,0,0,1,2.8.3Z" fill="#cb7d53"/>
      <path id="Path_313" data-name="Path 313" d="M459,466.4l1,1.2a2,2,0,0,1-.3,2.8l-1.2,1a2,2,0,0,1-2.8-.3l-1-1.2a2,2,0,0,1,.3-2.8l1.2-1A2,2,0,0,1,459,466.4Z" fill="#cb7d53"/>
      <path id="Path_314" data-name="Path 314" d="M461.1,448.4l1,1.2a2,2,0,0,1-.3,2.8l-1.2,1a2,2,0,0,1-2.8-.3l-1-1.2a2,2,0,0,1,.3-2.8l1.2-1a1.93,1.93,0,0,1,2.8.3Z" fill="#cb7d53"/>
      <path id="Path_315" data-name="Path 315" d="M463.3,430.3l1,1.2a2,2,0,0,1-.3,2.8l-1.2,1a2,2,0,0,1-2.8-.3l-1-1.2a2,2,0,0,1,.3-2.8l1.2-1A2,2,0,0,1,463.3,430.3Z" fill="#cb7d53"/>
      <path id="Path_316" data-name="Path 316" d="M465.4,412.2l1,1.2a2,2,0,0,1-.3,2.8l-1.2,1a2,2,0,0,1-2.8-.3l-1-1.2a2,2,0,0,1,.3-2.8l1.2-1A2,2,0,0,1,465.4,412.2Z" fill="#cb7d53"/>
      <path id="Path_317" data-name="Path 317" d="M473.2,486.4l1,1.2a2,2,0,0,1-.3,2.8l-1.2,1a2,2,0,0,1-2.8-.3l-1-1.2a2,2,0,0,1,.3-2.8l1.2-1A2,2,0,0,1,473.2,486.4Z" fill="#cb7d53"/>
      <path id="Path_318" data-name="Path 318" d="M475.3,468.3l1,1.2a2,2,0,0,1-.3,2.8l-1.2,1a2,2,0,0,1-2.8-.3l-1-1.2a2,2,0,0,1,.3-2.8l1.2-1A2,2,0,0,1,475.3,468.3Z" fill="#cb7d53"/>
      <path id="Path_319" data-name="Path 319" d="M477.4,450.3l1,1.2a2,2,0,0,1-.3,2.8l-1.2,1a2,2,0,0,1-2.8-.3l-1-1.2a2,2,0,0,1,.3-2.8l1.2-1a1.94,1.94,0,0,1,2.8.3Z" fill="#cb7d53"/>
      <path id="Path_320" data-name="Path 320" d="M479.5,432.2l1,1.2a2,2,0,0,1-.3,2.8l-1.2,1a2,2,0,0,1-2.8-.3l-1-1.2a2,2,0,0,1,.3-2.8l1.2-1a1.94,1.94,0,0,1,2.8.3Z" fill="#cb7d53"/>
      <path id="Path_321" data-name="Path 321" d="M481.6,414.1l1,1.2a2,2,0,0,1-.3,2.8l-1.2,1a2,2,0,0,1-2.8-.3l-1-1.2a2,2,0,0,1,.3-2.8l1.2-1A2,2,0,0,1,481.6,414.1Z" fill="#cb7d53"/>
      <path id="Path_322" data-name="Path 322" d="M489.4,488.3l1,1.2a2,2,0,0,1-.3,2.8l-1.2,1a2,2,0,0,1-2.8-.3l-1-1.2a2,2,0,0,1,.3-2.8l1.2-1A2,2,0,0,1,489.4,488.3Z" fill="#cb7d53"/>
      <path id="Path_323" data-name="Path 323" d="M491.6,470.3l1,1.2a2,2,0,0,1-.3,2.8l-1.2,1a2,2,0,0,1-2.8-.3l-1-1.2a2,2,0,0,1,.3-2.8l1.2-1a1.87,1.87,0,0,1,2.8.3Z" fill="#cb7d53"/>
      <path id="Path_324" data-name="Path 324" d="M493.7,452.2l1,1.2a2,2,0,0,1-.3,2.8l-1.2,1a2,2,0,0,1-2.8-.3l-1-1.2a2,2,0,0,1,.3-2.8l1.2-1A2,2,0,0,1,493.7,452.2Z" fill="#cb7d53"/>
      <path id="Path_325" data-name="Path 325" d="M495.8,434.1l1,1.2a2,2,0,0,1-.3,2.8l-1.2,1a2,2,0,0,1-2.8-.3l-1-1.2a2,2,0,0,1,.3-2.8l1.2-1A2,2,0,0,1,495.8,434.1Z" fill="#cb7d53"/>
      <path id="Path_326" data-name="Path 326" d="M497.9,416.1l1,1.2a2,2,0,0,1-.3,2.8l-1.2,1a2,2,0,0,1-2.8-.3l-1-1.2a2,2,0,0,1,.3-2.8l1.2-1a1.87,1.87,0,0,1,2.8.3Z" fill="#cb7d53"/>
      <path id="Path_327" data-name="Path 327" d="M505.7,490.2l1,1.2a2,2,0,0,1-.3,2.8l-1.2,1a2,2,0,0,1-2.8-.3l-1-1.2a2,2,0,0,1,.3-2.8l1.2-1A2,2,0,0,1,505.7,490.2Z" fill="#cb7d53"/>
      <path id="Path_328" data-name="Path 328" d="M507.8,472.2l1,1.2a2,2,0,0,1-.3,2.8l-1.2,1a2,2,0,0,1-2.8-.3l-1-1.2a2,2,0,0,1,.3-2.8l1.2-1a1.87,1.87,0,0,1,2.8.3Z" fill="#cb7d53"/>
      <path id="Path_329" data-name="Path 329" d="M509.9,454.1l1,1.2a2,2,0,0,1-.3,2.8l-1.2,1a2,2,0,0,1-2.8-.3l-1-1.2a2,2,0,0,1,.3-2.8l1.2-1a1.93,1.93,0,0,1,2.8.3Z" fill="#cb7d53"/>
      <path id="Path_330" data-name="Path 330" d="M512.1,436l1,1.2a2,2,0,0,1-.3,2.8l-1.2,1a2,2,0,0,1-2.8-.3l-1-1.2a2,2,0,0,1,.3-2.8l1.2-1A2,2,0,0,1,512.1,436Z" fill="#cb7d53"/>
      <path id="Path_331" data-name="Path 331" d="M514.2,418l1,1.2a2,2,0,0,1-.3,2.8l-1.2,1a2,2,0,0,1-2.8-.3l-1-1.2a2,2,0,0,1,.3-2.8l1.2-1A2,2,0,0,1,514.2,418Z" fill="#cb7d53"/>
      <path id="Path_332" data-name="Path 332" d="M522,492.1l1,1.2a2,2,0,0,1-.3,2.8l-1.2,1a2,2,0,0,1-2.8-.3l-1-1.2a2,2,0,0,1,.3-2.8l1.2-1a2,2,0,0,1,2.8.3Z" fill="#cb7d53"/>
      <path id="Path_333" data-name="Path 333" d="M524.1,474.1l1,1.2a2,2,0,0,1-.3,2.8l-1.2,1a2,2,0,0,1-2.8-.3l-1-1.2a2,2,0,0,1,.3-2.8l1.2-1a2,2,0,0,1,2.8.3Z" fill="#cb7d53"/>
      <path id="Path_334" data-name="Path 334" d="M526.2,456l1,1.2a2,2,0,0,1-.3,2.8l-1.2,1a2,2,0,0,1-2.8-.3l-1-1.2a2,2,0,0,1,.3-2.8l1.2-1a1.94,1.94,0,0,1,2.8.3Z" fill="#cb7d53"/>
      <path id="Path_335" data-name="Path 335" d="M528.3,437.9l1,1.2a2,2,0,0,1-.3,2.8l-1.2,1a2,2,0,0,1-2.8-.3l-1-1.2a2,2,0,0,1,.3-2.8l1.2-1A2,2,0,0,1,528.3,437.9Z" fill="#cb7d53"/>
      <path id="Path_336" data-name="Path 336" d="M530.4,419.9l1,1.2a2,2,0,0,1-.3,2.8l-1.2,1a2,2,0,0,1-2.8-.3l-1-1.2a2,2,0,0,1,.3-2.8l1.2-1a1.93,1.93,0,0,1,2.8.3Z" fill="#cb7d53"/>
      <path id="Path_337" data-name="Path 337" d="M538.2,494l1,1.2a2,2,0,0,1-.3,2.8l-1.2,1a2,2,0,0,1-2.8-.3l-1-1.2a2,2,0,0,1,.3-2.8l1.2-1A2,2,0,0,1,538.2,494Z" fill="#cb7d53"/>
      <path id="Path_338" data-name="Path 338" d="M540.4,476l1,1.2a2,2,0,0,1-.3,2.8l-1.2,1a2,2,0,0,1-2.8-.3l-1-1.2a2,2,0,0,1,.3-2.8l1.2-1a2,2,0,0,1,2.8.3Z" fill="#cb7d53"/>
      <path id="Path_339" data-name="Path 339" d="M542.5,457.9l1,1.2a2,2,0,0,1-.3,2.8l-1.2,1a2,2,0,0,1-2.8-.3l-1-1.2a2,2,0,0,1,.3-2.8l1.2-1a2,2,0,0,1,2.8.3Z" fill="#cb7d53"/>
      <path id="Path_340" data-name="Path 340" d="M544.6,439.8l1,1.2a2,2,0,0,1-.3,2.8l-1.2,1a2,2,0,0,1-2.8-.3l-1-1.2a2,2,0,0,1,.3-2.8l1.2-1a2,2,0,0,1,2.8.3Z" fill="#cb7d53"/>
      <path id="Path_341" data-name="Path 341" d="M546.7,421.8l1,1.2a2,2,0,0,1-.3,2.8l-1.2,1a2,2,0,0,1-2.8-.3l-1-1.2a2,2,0,0,1,.3-2.8l1.2-1a1.94,1.94,0,0,1,2.8.3Z" fill="#cb7d53"/>
      <path id="Path_342" data-name="Path 342" d="M451.2,392.3l1,1.2a2,2,0,0,1-.3,2.8l-1.2,1a2,2,0,0,1-2.8-.3l-1-1.2a2,2,0,0,1,.3-2.8l1.2-1a1.87,1.87,0,0,1,2.8.3Z" fill="#cb7d53"/>
      <path id="Path_343" data-name="Path 343" d="M453.3,374.2l1,1.2a2,2,0,0,1-.3,2.8l-1.2,1a2,2,0,0,1-2.8-.3l-1-1.2a2,2,0,0,1,.3-2.8l1.2-1a1.93,1.93,0,0,1,2.8.3Z" fill="#cb7d53"/>
      <path id="Path_344" data-name="Path 344" d="M455.5,356.1l1,1.2a2,2,0,0,1-.3,2.8l-1.2,1a2,2,0,0,1-2.8-.3l-1-1.2a2,2,0,0,1,.3-2.8l1.2-1A2,2,0,0,1,455.5,356.1Z" fill="#cb7d53"/>
      <path id="Path_345" data-name="Path 345" d="M457.6,338.1l1,1.2a2,2,0,0,1-.3,2.8l-1.2,1a2,2,0,0,1-2.8-.3l-1-1.2a2,2,0,0,1,.3-2.8l1.2-1A2,2,0,0,1,457.6,338.1Z" fill="#cb7d53"/>
      <path id="Path_346" data-name="Path 346" d="M467.5,394.2l1,1.2a2,2,0,0,1-.3,2.8l-1.2,1a2,2,0,0,1-2.8-.3l-1-1.2a2,2,0,0,1,.3-2.8l1.2-1a1.94,1.94,0,0,1,2.8.3Z" fill="#cb7d53"/>
      <path id="Path_347" data-name="Path 347" d="M469.6,376.1l1,1.2a2,2,0,0,1-.3,2.8l-1.2,1a2,2,0,0,1-2.8-.3l-1-1.2a2,2,0,0,1,.3-2.8l1.2-1a1.94,1.94,0,0,1,2.8.3Z" fill="#cb7d53"/>
      <path id="Path_348" data-name="Path 348" d="M471.7,358l1,1.2a2,2,0,0,1-.3,2.8l-1.2,1a2,2,0,0,1-2.8-.3l-1-1.2a2,2,0,0,1,.3-2.8l1.2-1A2,2,0,0,1,471.7,358Z" fill="#cb7d53"/>
      <path id="Path_349" data-name="Path 349" d="M473.9,340l1,1.2a2,2,0,0,1-.3,2.8l-1.2,1a2,2,0,0,1-2.8-.3l-1-1.2a2,2,0,0,1,.3-2.8l1.2-1A2,2,0,0,1,473.9,340Z" fill="#cb7d53"/>
      <path id="Path_350" data-name="Path 350" d="M483.8,396.1l1,1.2a2,2,0,0,1-.3,2.8l-1.2,1a2,2,0,0,1-2.8-.3l-1-1.2a2,2,0,0,1,.3-2.8l1.2-1A2,2,0,0,1,483.8,396.1Z" fill="#cb7d53"/>
      <path id="Path_351" data-name="Path 351" d="M485.9,378l1,1.2a2,2,0,0,1-.3,2.8l-1.2,1a2,2,0,0,1-2.8-.3l-1-1.2a2,2,0,0,1,.3-2.8l1.2-1A2,2,0,0,1,485.9,378Z" fill="#cb7d53"/>
      <path id="Path_352" data-name="Path 352" d="M488,359.9l1,1.2a2,2,0,0,1-.3,2.8l-1.2,1a2,2,0,0,1-2.8-.3l-1-1.2a2,2,0,0,1,.3-2.8l1.2-1A2,2,0,0,1,488,359.9Z" fill="#cb7d53"/>
      <path id="Path_353" data-name="Path 353" d="M490.1,341.9l1,1.2a2,2,0,0,1-.3,2.8l-1.2,1a2,2,0,0,1-2.8-.3l-1-1.2a2,2,0,0,1,.3-2.8l1.2-1a1.94,1.94,0,0,1,2.8.3Z" fill="#cb7d53"/>
      <path id="Path_354" data-name="Path 354" d="M500,398l1,1.2a2,2,0,0,1-.3,2.8l-1.2,1a2,2,0,0,1-2.8-.3l-1-1.2a2,2,0,0,1,.3-2.8l1.2-1a1.94,1.94,0,0,1,2.8.3Z" fill="#cb7d53"/>
      <path id="Path_355" data-name="Path 355" d="M502.2,379.9l1,1.2a2,2,0,0,1-.3,2.8l-1.2,1a2,2,0,0,1-2.8-.3l-1-1.2a2,2,0,0,1,.3-2.8l1.2-1A2,2,0,0,1,502.2,379.9Z" fill="#cb7d53"/>
      <path id="Path_356" data-name="Path 356" d="M504.3,361.9l1,1.2a2,2,0,0,1-.3,2.8l-1.2,1a2,2,0,0,1-2.8-.3l-1-1.2a2,2,0,0,1,.3-2.8l1.2-1a1.87,1.87,0,0,1,2.8.3Z" fill="#cb7d53"/>
      <path id="Path_357" data-name="Path 357" d="M506.4,343.8l1,1.2a2,2,0,0,1-.3,2.8l-1.2,1a2,2,0,0,1-2.8-.3l-1-1.2a2,2,0,0,1,.3-2.8l1.2-1A2,2,0,0,1,506.4,343.8Z" fill="#cb7d53"/>
      <path id="Path_358" data-name="Path 358" d="M516.3,399.9l1,1.2a2,2,0,0,1-.3,2.8l-1.2,1a2,2,0,0,1-2.8-.3l-1-1.2a2,2,0,0,1,.3-2.8l1.2-1a1.94,1.94,0,0,1,2.8.3Z" fill="#cb7d53"/>
      <path id="Path_359" data-name="Path 359" d="M518.4,381.8l1,1.2a2,2,0,0,1-.3,2.8l-1.2,1a2,2,0,0,1-2.8-.3l-1-1.2a2,2,0,0,1,.3-2.8l1.2-1a2,2,0,0,1,2.8.3Z" fill="#cb7d53"/>
      <path id="Path_360" data-name="Path 360" d="M520.5,363.8l1,1.2a2,2,0,0,1-.3,2.8l-1.2,1a2,2,0,0,1-2.8-.3l-1-1.2a2,2,0,0,1,.3-2.8l1.2-1a1.93,1.93,0,0,1,2.8.3Z" fill="#cb7d53"/>
      <path id="Path_361" data-name="Path 361" d="M522.7,345.7l1,1.2a2,2,0,0,1-.3,2.8l-1.2,1a2,2,0,0,1-2.8-.3l-1-1.2a2,2,0,0,1,.3-2.8l1.2-1A2,2,0,0,1,522.7,345.7Z" fill="#cb7d53"/>
      <path id="Path_362" data-name="Path 362" d="M532.6,401.8l1,1.2a2,2,0,0,1-.3,2.8l-1.2,1a2,2,0,0,1-2.8-.3l-1-1.2a2,2,0,0,1,.3-2.8l1.2-1a2,2,0,0,1,2.8.3Z" fill="#cb7d53"/>
      <path id="Path_363" data-name="Path 363" d="M534.7,383.7l1,1.2a2,2,0,0,1-.3,2.8l-1.2,1a2,2,0,0,1-2.8-.3l-1-1.2a2,2,0,0,1,.3-2.8l1.2-1A2,2,0,0,1,534.7,383.7Z" fill="#cb7d53"/>
      <path id="Path_364" data-name="Path 364" d="M536.8,365.7l1,1.2a2,2,0,0,1-.3,2.8l-1.2,1a2,2,0,0,1-2.8-.3l-1-1.2a2,2,0,0,1,.3-2.8l1.2-1a1.94,1.94,0,0,1,2.8.3Z" fill="#cb7d53"/>
      <path id="Path_365" data-name="Path 365" d="M538.9,347.6l1,1.2a2,2,0,0,1-.3,2.8l-1.2,1a2,2,0,0,1-2.8-.3l-1-1.2a2,2,0,0,1,.3-2.8l1.2-1a1.94,1.94,0,0,1,2.8.3Z" fill="#cb7d53"/>
      <path id="Path_366" data-name="Path 366" d="M548.8,403.7l1,1.2a2,2,0,0,1-.3,2.8l-1.2,1a2,2,0,0,1-2.8-.3l-1-1.2a2,2,0,0,1,.3-2.8l1.2-1a1.93,1.93,0,0,1,2.8.3Z" fill="#cb7d53"/>
      <path id="Path_367" data-name="Path 367" d="M551,385.7l1,1.2a2,2,0,0,1-.3,2.8l-1.2,1a2,2,0,0,1-2.8-.3l-1-1.2a2,2,0,0,1,.3-2.8l1.2-1a1.87,1.87,0,0,1,2.8.3Z" fill="#cb7d53"/>
      <path id="Path_368" data-name="Path 368" d="M553.1,367.6l1,1.2a2,2,0,0,1-.3,2.8l-1.2,1a2,2,0,0,1-2.8-.3l-1-1.2a2,2,0,0,1,.3-2.8l1.2-1a2,2,0,0,1,2.8.3Z" fill="#cb7d53"/>
      <path id="Path_369" data-name="Path 369" d="M555.2,349.5l1,1.2a2,2,0,0,1-.3,2.8l-1.2,1a2,2,0,0,1-2.8-.3l-1-1.2a2,2,0,0,1,.3-2.8l1.2-1A2,2,0,0,1,555.2,349.5Z" fill="#cb7d53"/>
    </g>
    <path id="Path_371" data-name="Path 371" d="M557.5,373.8a108.672,108.672,0,0,1,18.4,27s.5-34.6,1.2-37a39.27,39.27,0,0,0,21.5-1.7s2.9,26.7,7.2,47,9.1,50.6-5.5,54.6-27.9-5.2-45.6-28.9-16.2-35.5-16.2-41.5C538.4,386.2,548,368,557.5,373.8Z" fill="#6dafa7"/>
    <path id="Path_372" data-name="Path 372" d="M575.9,400.9s-.7,21.5,1.9,35.1" fill="none" stroke="#22272e" stroke-linecap="round" stroke-linejoin="round" stroke-width="1.8"/>
    <path id="Path_373" data-name="Path 373" d="M576.5,373.2s12.8,4,23-2.5" fill="none" stroke="#22272e" stroke-linecap="round" stroke-linejoin="round" stroke-width="1.8"/>
    <path id="Path_374" data-name="Path 374" d="M595.6,368.1a1.1,1.1,0,1,1-1.1-1.1,1,1,0,0,1,1.1,1.1Z" fill="none" stroke="#22272e" stroke-linecap="round" stroke-linejoin="round" stroke-width="1.8"/>
    <path id="Path_375" data-name="Path 375" d="M597.8,362.5s-1-7.1,3.8-9.4,9.2-1.2,14.1-4.8,13.2-15,12.9-17.5-2.1-1.4-5.4,1.3a19.692,19.692,0,0,1-4.8,3.3s2-6.8,1.1-11.8-4.3-5.6-5.1-5.1,0,2.6-.2,6.6-1.4,7.3-4.9,9.8a12.5,12.5,0,0,0-.7-7c-1.6-3.8-4.3-6.3-6.4-5.7s-1.4,2.2-.4,4.4,2.6,6.2-1.6,10.4a5.24,5.24,0,0,1-8.7-5.6c2.3-5.6,5.8-6.9,7.6-8.4s1.3-4.2-2.5-3.6-10.3,5.2-14.1,10.3-4.9,12-5,18.8-.4,15.5-.4,15.5,2.5,3.1,8,3.1S597.8,365,597.8,362.5Z" fill="#f4c2c9"/>
    <path id="Path_376" data-name="Path 376" d="M618.4,335.5a50.922,50.922,0,0,1-4.1,8.5" fill="none" stroke="#e26e85" stroke-linecap="round" stroke-linejoin="round" stroke-width="1.8"/>
    <path id="Path_377" data-name="Path 377" d="M609.2,334.9a17.511,17.511,0,0,1-3.2,7.8" fill="none" stroke="#e26e85" stroke-linecap="round" stroke-linejoin="round" stroke-width="1.8"/>
    <path id="Path_378" data-name="Path 378" d="M585.6,463.3s-2.5-4,3.6-10.1,19.1-5.4,19.5.9" fill="none" stroke="#22272e" stroke-linecap="round" stroke-linejoin="round" stroke-width="1.8"/>
    <path id="Path_379" data-name="Path 379" d="M488.5,350.1s-5.6-.3-9.1,7.3-2.5,23.2,1.3,25.6,14-7.9,14-7.9,8.6,11.6,14.8,11.1,14-11.6,13.5-23.8-5.5-13.6-8.2-13.9C512.2,348,488.5,350.1,488.5,350.1Z" fill="#fff"/>
    <path id="Path_380" data-name="Path 380" d="M494.7,375s-19.7,21.8-19.9,25.9,6.5,5.4,8.3,4.5S496.7,374.7,494.7,375Z" fill="#fff"/>
    <path id="Path_381" data-name="Path 381" d="M494.5,377.7s3.4,24.2,5.6,28,9.2-1.9,8.4-5.2-10.3-22.6-13.8-25.4S494.5,377.7,494.5,377.7Z" fill="#fff"/>
    <path id="Path_382" data-name="Path 382" d="M518.9,328.8s-2.2,13.7-.6,24c0,0-9.5,21.1-23.5,21.1-6.9,0-9.1-14.2-7.9-19.8l2.1-15.6S503,314.3,518.9,328.8Z" fill="#f4c2c9"/>
    <path id="Path_383" data-name="Path 383" d="M507.4,343.3c-6,3.6-12.6,5.4-19.6,4l-.8,5.9C494.6,351.7,502.3,349.5,507.4,343.3Z" fill="#e26e85"/>
    <path id="Path_384" data-name="Path 384" d="M475.3,299.3a136.911,136.911,0,0,1-.8,20.5c-1.3,12.7-.8,21,10,26.4s28.3.5,34.7-14.9,14.9-44.7-8.1-49.1S475,283.3,475.3,299.3Z" fill="#f4c2c9"/>
    <path id="Path_385" data-name="Path 385" d="M491.3,289.2s4.4,14.8,14.2,18.6,8.3,13,13.2,11.9,8.7-5.1,12-1.2,3.6-30.4-13.3-36.3-34.8-6.2-40.1-.8-3.4,22.7-3.4,22.7S484.7,301.6,491.3,289.2Z" fill="#22272e"/>
    <path id="Path_386" data-name="Path 386" d="M519.8,319.8s2.3-5.7,7.2-4.7,4.5,16.5-8,15.7" fill="#f4c2c9"/>
    <path id="Path_387" data-name="Path 387" d="M484.8,314.5a6.06,6.06,0,0,1,.2,4.2,7.218,7.218,0,0,1-.9,2l-.6.9c-.1.2-.3.5-.4.7a3.1,3.1,0,0,0,.4,2.9,5.5,5.5,0,0,0,3,2.1,3,3,0,0,1-2.1,0,4.53,4.53,0,0,1-1.9-1.1,4.64,4.64,0,0,1-1.3-2,4.3,4.3,0,0,1,.2-2.5,8.79,8.79,0,0,1,.6-1c.2-.3.4-.5.6-.8a8.641,8.641,0,0,0,1-1.6A10,10,0,0,0,484.8,314.5Z" fill="#22272e"/>
    <path id="Path_388" data-name="Path 388" d="M492.2,334a7.23,7.23,0,0,0,8-3.7" fill="none" stroke="#22272e" stroke-linecap="round" stroke-linejoin="round" stroke-width="1.8"/>
    <path id="Path_389" data-name="Path 389" d="M498.6,314.5s.4,2.2,4.2,2.6a4.84,4.84,0,0,0,4.7-2.2" fill="none" stroke="#22272e" stroke-linecap="round" stroke-linejoin="round" stroke-width="1.8"/>
    <path id="Path_390" data-name="Path 390" d="M483,312.9s-3,2.4-5.4-.6" fill="none" stroke="#22272e" stroke-linecap="round" stroke-linejoin="round" stroke-width="1.8"/>
    <path id="Path_391" data-name="Path 391" d="M485.8,303.4c.2-1.3-1.3-3.5-3.3-4.1s-5.2,2.2-4.9,3.4,2.3-.6,4.1-.4C483.3,302.5,485.6,304.5,485.8,303.4Z" fill="#22272e"/>
    <path id="Path_392" data-name="Path 392" d="M509.7,305.6c.2-1.3-1.3-3.5-3.3-4.1s-5.2,2.2-4.9,3.4,2.3-.6,4.1-.4S509.6,306.7,509.7,305.6Z" fill="#22272e"/>
    <path id="Path_393" data-name="Path 393" d="M526.6,319.8a3.4,3.4,0,0,0-2.1,1.4,3,3,0,0,0-.2,1v1.4a4.669,4.669,0,0,1-.3,1.7,2.26,2.26,0,0,1-1.3,1.4,3.8,3.8,0,0,1-3.3-.3,6.5,6.5,0,0,0,2.5-1,2.42,2.42,0,0,0,.6-2v-1.6a2.72,2.72,0,0,1,.8-1.7,3.59,3.59,0,0,1,3.3-.3Z" fill="#22272e"/>
    <ellipse id="Ellipse_19" data-name="Ellipse 19" cx="8.9" cy="9.7" rx="8.9" ry="9.7" transform="translate(467.1 303.3)" fill="none" stroke="#22272e" stroke-linecap="round" stroke-linejoin="round" stroke-width="1.8"/>
    <circle id="Ellipse_20" data-name="Ellipse 20" cx="10.3" cy="10.3" r="10.3" transform="translate(491.38 305.47)" fill="none" stroke="#22272e" stroke-linecap="round" stroke-linejoin="round" stroke-width="1.8"/>
    <path id="Path_394" data-name="Path 394" d="M484.9,313.8s1.6-1.7,6.6.4" fill="none" stroke="#22272e" stroke-linecap="round" stroke-linejoin="round" stroke-width="1.8"/>
    <line id="Line_57" data-name="Line 57" x2="9.8" y2="0.9" transform="translate(512 315.8)" fill="none" stroke="#22272e" stroke-linecap="round" stroke-linejoin="round" stroke-width="1.8"/>
    <path id="Path_395" data-name="Path 395" d="M524.2,328.4l-3.4,5.9a1.14,1.14,0,0,0,1,1.7h6.8a1.14,1.14,0,0,0,1-1.7l-3.4-5.9a1.21,1.21,0,0,0-2,0Z" fill="#ffe779"/>
    <path id="Path_396" data-name="Path 396" d="M663.5,528.5l2.4,22.2c0,1.6,8.3,2.8,18.5,2.8s18.5-1.3,18.5-2.8l2.4-22.2Z" fill="#22272e"/>
    <path id="Path_397" data-name="Path 397" d="M705.3,528.5c0,1.8-9.4,3.2-20.9,3.2s-20.9-1.4-20.9-3.2,9.4-3.2,20.9-3.2S705.3,526.8,705.3,528.5Z" fill="#ffb48b"/>
    <path id="Path_398" data-name="Path 398" d="M678.8,528.5s-11.2-4.4-10-13,9.5,9.2,11.6,6.5-.6-15.8,4-17,3.4,17.2,3.4,17.2a27.292,27.292,0,0,0,7.6-5.7c2.9-3.4,7.1,4.2-4.8,12a15.48,15.48,0,0,1-11.8,0Z" fill="#6dafa7"/>
    <path id="Path_399" data-name="Path 399" d="M777.5,522.7a5.4,5.4,0,1,1-5.4-5.4A5.51,5.51,0,0,1,777.5,522.7Z" fill="#ffb48b"/>
    <path id="Path_400" data-name="Path 400" d="M392.6,542a19.38,19.38,0,0,0-8,4.2,26.9,26.9,0,0,1-18.5,5.9,25.93,25.93,0,0,1-20-10.9,280.122,280.122,0,0,0,46.5.8Z" fill="#fff"/>
    <path id="Path_401" data-name="Path 401" d="M366,552.2c-17.6.3-42.2,0-49.8-.1-8.8.7-18.7-2.7-25.3-13.6,0,0,6.5,1,23.2,1.1s30-1.1,30-1.1c.6,1,1.2,1.9,1.8,2.8A26.88,26.88,0,0,0,366,552.2Z" fill="#22272e"/>
  </g>
</svg>
