<svg xmlns="http://www.w3.org/2000/svg" width="35.453" height="35.322" viewBox="0 0 35.453 35.322">
  <g id="timeline" transform="translate(-0.547)">
    <path id="Path_19375" data-name="Path 19375" d="M3.442,23.883c6.061,3.333,8.5,8.761,11.417,10.367s9.978,3.3,17.366-10.137S32.446,4.168,29.233,2.4C14.191-5.869-7.292,17.981,3.442,23.883Z" fill="#efefef"/>
    <path id="Path_19376" data-name="Path 19376" d="M25.25,6.75H7.75a1,1,0,0,0-1,1v17.5a1,1,0,0,0,1,1h16.5a2,2,0,0,0,2-2V7.75A1,1,0,0,0,25.25,6.75Z" fill="#f3f3f1"/>
    <path id="Path_19377" data-name="Path 19377" d="M12.75,6.75v7.5l3.75-3.5,3.75,3.5V6.75Z" fill="#df814e"/>
    <circle id="Ellipse_148" data-name="Ellipse 148" cx="5.75" cy="5.75" r="5.75" transform="translate(17.75 17.75)" fill="#df814e"/>
    <path id="Path_19378" data-name="Path 19378" d="M20,23.5a5.75,5.75,0,0,1,4.625-5.638A5.75,5.75,0,1,0,23.5,29.25a5.715,5.715,0,0,0,1.125-.112A5.75,5.75,0,0,1,20,23.5Z" fill="#bb6131"/>
    <path id="Path_19379" data-name="Path 19379" d="M9,25.25V7.75a1,1,0,0,1,1-1H7.75a1,1,0,0,0-1,1v17.5a1,1,0,0,0,1,1H10A1,1,0,0,1,9,25.25Z" fill="#d5dbe1"/>
    <path id="Path_19380" data-name="Path 19380" d="M15,6.75H12.75v7.5L15,12.15Z" fill="#bb6131"/>
    <path id="Path_19381" data-name="Path 19381" d="M18.75,10.75,17.625,11.8l2.625,2.45v-2.1Z" fill="#bb6131"/>
    <g id="Group_2953" data-name="Group 2953">
      <path id="Path_19382" data-name="Path 19382" d="M3.25,29.75a1.5,1.5,0,1,1,1.5-1.5A1.5,1.5,0,0,1,3.25,29.75Zm0-2a.5.5,0,1,0,.5.5A.5.5,0,0,0,3.25,27.75Z" fill="#a4afc1"/>
      <path id="Path_19383" data-name="Path 19383" d="M28.25,3.25h2v1h-2Z" fill="#a4afc1"/>
      <path id="Path_19384" data-name="Path 19384" d="M34,3.25h2v1H34Z" fill="#a4afc1"/>
      <path id="Path_19385" data-name="Path 19385" d="M31.5,5.75h1v2h-1Z" fill="#a4afc1"/>
      <path id="Path_19386" data-name="Path 19386" d="M31.5,0h1V2h-1Z" fill="#a4afc1"/>
    </g>
    <path id="Path_19387" data-name="Path 19387" d="M25.29,26.342l-2.25-1.75A.749.749,0,0,1,22.75,24V20.75h1.5v2.883l1.96,1.525Z"/>
    <path id="Path_19388" data-name="Path 19388" d="M15.25,27H7.75A1.752,1.752,0,0,1,6,25.25V7.75A1.752,1.752,0,0,1,7.75,6h17.5A1.752,1.752,0,0,1,27,7.75v7.5H25.5V7.75a.25.25,0,0,0-.25-.25H7.75a.25.25,0,0,0-.25.25v17.5a.25.25,0,0,0,.25.25h7.5Z"/>
    <path id="Path_19389" data-name="Path 19389" d="M23.5,30A6.5,6.5,0,1,1,30,23.5,6.508,6.508,0,0,1,23.5,30Zm0-11.5a5,5,0,1,0,5,5A5.006,5.006,0,0,0,23.5,18.5Z"/>
    <path id="Path_19390" data-name="Path 19390" d="M20.25,15a.746.746,0,0,1-.512-.2L16.5,11.776,13.262,14.8A.75.75,0,0,1,12,14.25V6.75A.75.75,0,0,1,12.75,6h7.5a.75.75,0,0,1,.75.75v7.5a.75.75,0,0,1-.451.688.763.763,0,0,1-.3.062ZM16.5,10a.746.746,0,0,1,.512.2L19.5,12.524V7.5h-6v5.024L15.988,10.2A.746.746,0,0,1,16.5,10Z"/>
  </g>
</svg>
