<svg xmlns="http://www.w3.org/2000/svg" width="240.005" height="172.014" viewBox="0 0 240.005 172.014">
  <path id="users" d="M246.4,143.194a4,4,0,0,1-5.6-.8A55.579,55.579,0,0,0,196,120a4,4,0,0,1,0-8,28,28,0,1,0-27.507-33.261,4,4,0,1,1-7.86-1.492A36,36,0,1,1,214.7,114.752a63.581,63.581,0,0,1,32.5,22.842,4,4,0,0,1-.8,5.6Zm-57.243,71.053a4,4,0,1,1-7.191,3.5,60.026,60.026,0,0,0-107.939,0,4,4,0,0,1-7.191-3.5,67.56,67.56,0,0,1,40.906-35.206,44,44,0,1,1,40.51,0,67.561,67.561,0,0,1,40.905,35.206ZM128,176a36,36,0,1,0-36-36,36,36,0,0,0,36,36ZM60,112A28,28,0,1,1,87.507,78.738a4,4,0,1,0,7.859-1.492A36,36,0,1,0,41.3,114.752,63.583,63.583,0,0,0,8.8,137.6a4,4,0,1,0,6.4,4.8A55.581,55.581,0,0,1,60,120a4,4,0,1,0,0-8Z" transform="translate(-7.997 -47.985)" fill="#fff"/>
</svg>
