<svg xmlns="http://www.w3.org/2000/svg" width="32" height="34.833" viewBox="0 0 32 34.833">
  <g id="video-call" transform="translate(-2 -0.583)">
    <g id="Group_3061" data-name="Group 3061">
      <path id="Path_19697" data-name="Path 19697" d="M8.377,31.833c6.917,0,11.667,3.583,15,3.583S33.71,33.5,33.71,18.167,24.293.583,20.627.583c-17.167,0-24.5,31.25-12.25,31.25Z" fill="#efefef"/>
    </g>
    <g id="Group_3062" data-name="Group 3062">
      <path id="Path_19698" data-name="Path 19698" d="M6.75,6.25h2v1h-2Z" fill="#a4afc1"/>
    </g>
    <g id="Group_3063" data-name="Group 3063">
      <path id="Path_19699" data-name="Path 19699" d="M10.25,2.75h1v2h-1Z" fill="#a4afc1"/>
    </g>
    <g id="Group_3064" data-name="Group 3064">
      <path id="Path_19700" data-name="Path 19700" d="M18.75,8.75a2.006,2.006,0,0,1,2-2h6.5a2.006,2.006,0,0,1,2,2v13.5a2.006,2.006,0,0,1-2,2h-6.5a2,2,0,0,1-2-2Z" fill="#df814e"/>
    </g>
    <g id="Group_3065" data-name="Group 3065">
      <path id="Path_19701" data-name="Path 19701" d="M9.75,22.75h8.5a3,3,0,0,1,3,3v3.5H6.75v-3.5A3,3,0,0,1,9.75,22.75Z" fill="#f3f3f1"/>
    </g>
    <g id="Group_3066" data-name="Group 3066">
      <circle id="Ellipse_176" data-name="Ellipse 176" cx="3.75" cy="3.75" r="3.75" transform="translate(10.25 11.75)" fill="#f3f3f1"/>
    </g>
    <g id="Group_3067" data-name="Group 3067">
      <path id="Path_19702" data-name="Path 19702" d="M26.25,19v-.75a1.5,1.5,0,0,0-1.5-1.5h-1.5a1.5,1.5,0,0,0-1.5,1.5V19Z" fill="#f3f3f1"/>
    </g>
    <g id="Group_3068" data-name="Group 3068">
      <path id="Path_19703" data-name="Path 19703" d="M27.25,6.75a1,1,0,0,0-1,1,1,1,0,0,1-1,1h-2.5a1,1,0,0,1-1-1,1,1,0,0,0-1-1Z" fill="#f3f3f1"/>
    </g>
    <g id="Group_3069" data-name="Group 3069">
      <path id="Path_19704" data-name="Path 19704" d="M17.74,15.3c-1.7.26-2.74-1.55-2.74-1.55a6.236,6.236,0,0,1-4.74,1.53,3.746,3.746,0,0,1,7.48.02Z" fill="#df814e"/>
    </g>
    <g id="Group_3070" data-name="Group 3070">
      <path id="Path_19705" data-name="Path 19705" d="M12,22.75H9.75a3,3,0,0,0-3,3v3.5H9v-3.5A3,3,0,0,1,12,22.75Z" fill="#d5dbe1"/>
    </g>
    <g id="Group_3071" data-name="Group 3071">
      <path id="Path_19706" data-name="Path 19706" d="M12.5,15.5a3.737,3.737,0,0,1,2.625-3.559A3.707,3.707,0,0,0,14,11.75a3.75,3.75,0,0,0,0,7.5,3.707,3.707,0,0,0,1.125-.191A3.737,3.737,0,0,1,12.5,15.5Z" fill="#d5dbe1"/>
    </g>
    <g id="Group_3072" data-name="Group 3072">
      <path id="Path_19707" data-name="Path 19707" d="M25.125,16.8a1.5,1.5,0,0,0-.375-.053h-1.5a1.5,1.5,0,0,0-1.5,1.5V19H24v-.75A1.5,1.5,0,0,1,25.125,16.8Z" fill="#d5dbe1"/>
    </g>
    <g id="Group_3073" data-name="Group 3073">
      <path id="Path_19708" data-name="Path 19708" d="M24,7.75a1,1,0,0,0-1-1H20.75a1,1,0,0,1,1,1,1,1,0,0,0,1,1H25A1,1,0,0,1,24,7.75Z" fill="#d5dbe1"/>
    </g>
    <g id="Group_3074" data-name="Group 3074">
      <path id="Path_19709" data-name="Path 19709" d="M15.123,11.939A3.7,3.7,0,0,0,14,11.75a3.741,3.741,0,0,0-3.74,3.53,6.862,6.862,0,0,0,2.281-.2,3.722,3.722,0,0,1,2.582-3.138Z" fill="#bb6131"/>
    </g>
    <g id="Group_3075" data-name="Group 3075">
      <path id="Path_19710" data-name="Path 19710" d="M21,22.25V8.75a2.006,2.006,0,0,1,2-2H20.75a2.006,2.006,0,0,0-2,2v13.5a2,2,0,0,0,2,2H23A2,2,0,0,1,21,22.25Z" fill="#bb6131"/>
    </g>
    <g id="Group_3076" data-name="Group 3076">
      <path id="Path_19711" data-name="Path 19711" d="M17.4,16.076a3.467,3.467,0,0,1-2.527-1.255,7.207,7.207,0,0,1-4.681,1.206l.14-1.493A5.508,5.508,0,0,0,14.489,13.2a.743.743,0,0,1,.623-.193.751.751,0,0,1,.539.368c.006.01.812,1.351,1.977,1.182l.227,1.482a3.036,3.036,0,0,1-.457.035Z"/>
    </g>
    <g id="Group_3077" data-name="Group 3077">
      <path id="Path_19712" data-name="Path 19712" d="M14,20a4.5,4.5,0,1,1,4.5-4.5A4.505,4.505,0,0,1,14,20Zm0-7.5a3,3,0,1,0,3,3A3,3,0,0,0,14,12.5Z"/>
    </g>
    <g id="Group_3078" data-name="Group 3078">
      <path id="Path_19713" data-name="Path 19713" d="M21.25,30H6.75A.75.75,0,0,1,6,29.25v-3.5A3.754,3.754,0,0,1,9.75,22h8.5A3.754,3.754,0,0,1,22,25.75v3.5A.75.75,0,0,1,21.25,30ZM7.5,28.5h13V25.75a2.252,2.252,0,0,0-2.25-2.25H9.75A2.252,2.252,0,0,0,7.5,25.75Z"/>
    </g>
    <g id="Group_3079" data-name="Group 3079">
      <path id="Path_19714" data-name="Path 19714" d="M24,15a1.5,1.5,0,1,1,1.5-1.5A1.5,1.5,0,0,1,24,15Z"/>
    </g>
    <g id="Group_3080" data-name="Group 3080">
      <path id="Path_19715" data-name="Path 19715" d="M27,19H25.5v-.75a.75.75,0,0,0-.75-.75h-1.5a.75.75,0,0,0-.75.75V19H21v-.75A2.252,2.252,0,0,1,23.25,16h1.5A2.252,2.252,0,0,1,27,18.25Z"/>
    </g>
    <g id="Group_3081" data-name="Group 3081">
      <path id="Path_19716" data-name="Path 19716" d="M27.25,25H24V23.5h3.25a1.252,1.252,0,0,0,1.25-1.25V8.75A1.252,1.252,0,0,0,27.25,7.5h-6.5A1.252,1.252,0,0,0,19.5,8.75v2.33H18V8.75A2.752,2.752,0,0,1,20.75,6h6.5A2.752,2.752,0,0,1,30,8.75v13.5A2.752,2.752,0,0,1,27.25,25Z"/>
    </g>
    <g id="Group_3082" data-name="Group 3082">
      <path id="Path_19717" data-name="Path 19717" d="M25.25,9.5h-2.5A1.752,1.752,0,0,1,21,7.75a.25.25,0,0,0-.25-.25V6A1.752,1.752,0,0,1,22.5,7.75a.25.25,0,0,0,.25.25h2.5a.25.25,0,0,0,.25-.25A1.752,1.752,0,0,1,27.25,6V7.5a.25.25,0,0,0-.25.25A1.752,1.752,0,0,1,25.25,9.5Z"/>
    </g>
    <g id="Group_3083" data-name="Group 3083">
      <path id="Path_19718" data-name="Path 19718" d="M2,28.5H34V30H2Z"/>
    </g>
  </g>
</svg>
