<svg enable-background="new 0 0 36 36" height="512" viewBox="0 0 36 36" width="512" xmlns="http://www.w3.org/2000/svg"><g id="Layer_2"><g><path d="m4.167 27.671c0-6.917-3.583-11.667-3.583-15s1.916-10.334 17.249-10.334 17.583 9.417 17.583 13.083c.001 17.167-31.249 24.501-31.249 12.251z" fill="#efefef"/></g></g><g id="color"><g><path d="m24.25 10.247v3h-15.5c-1.1 0-2-.89-2-2 0-.55.22-1.05.59-1.41.36-.37.86-.59 1.41-.59h14.5c.56 0 1 .45 1 1z" fill="#f3f3f1"/></g><g><path d="m9 11.247c0-.55.22-1.05.59-1.41.36-.37.86-.59 1.41-.59h-2.25c-.55 0-1.05.22-1.41.59-.37.36-.59.86-.59 1.41 0 1.11.9 2 2 2h2.25c-1.1 0-2-.89-2-2z" fill="#d5dbe1"/></g><g><path d="m27.25 14.247v12.5c0 .55-.45 1-1 1h-17.5c-1.1 0-2-.9-2-2v-14.5c0 1.11.9 2 2 2h17.5c.55 0 1 .45 1 1z" fill="#f3f3f1"/></g><g><path d="m9 25.747v-12.5h-.25c-1.1 0-2-.89-2-2v14.5c0 1.1.9 2 2 2h2.25c-1.1 0-2-.9-2-2z" fill="#d5dbe1"/></g><g><path d="m29.25 22.75h-3.75c-1.243 0-2.25-1.007-2.25-2.25 0-1.243 1.007-2.25 2.25-2.25h3.75z" fill="#2fdf84"/></g><g><path d="m25.5 20.5c0-1.243 1.007-2.25 2.25-2.25h-2.25c-1.243 0-2.25 1.007-2.25 2.25s1.007 2.25 2.25 2.25h2.25c-1.243 0-2.25-1.007-2.25-2.25z" fill="#00b871"/></g><g><path d="m20.5 7.75-2.5 1.5-6.67 4h12.38z" fill="#2fdf84"/></g><g><path d="m20.5 7.75-2.5 1.5-6.67 4h3.5l6.578-3.945z" fill="#00b871"/></g><g><path d="m6.75 6.467c-.827 0-1.5-.673-1.5-1.5s.673-1.5 1.5-1.5 1.5.673 1.5 1.5-.673 1.5-1.5 1.5zm0-2c-.275 0-.5.224-.5.5s.225.5.5.5.5-.224.5-.5-.225-.5-.5-.5z" fill="#a4afc1"/></g><g><g><path d="m30.125 7.375h2v1h-2z" fill="#a4afc1"/></g><g><path d="m27.875 3.875h1v2h-1z" fill="#a4afc1"/></g><g><path d="m27.875 9.625h1v2h-1z" fill="#a4afc1"/></g></g></g><g id="line"><g><path d="m7.5 11.25h-1.5c0-1.516 1.233-2.75 2.75-2.75h9.25v1.5h-9.25c-.689 0-1.25.561-1.25 1.25z"/></g><g><path d="m26.25 28.5h-17.5c-1.517 0-2.75-1.233-2.75-2.75v-14.5h1.5v14.5c0 .69.561 1.25 1.25 1.25h17.5c.136 0 .25-.114.25-.25v-4h1.5v4c0 .965-.785 1.75-1.75 1.75z"/></g><g><path d="m29.25 23.5h-3.75c-1.654 0-3-1.346-3-3s1.346-3 3-3h3.75c.414 0 .75.336.75.75v4.5c0 .414-.336.75-.75.75zm-3.75-4.5c-.827 0-1.5.673-1.5 1.5s.673 1.5 1.5 1.5h3v-3z"/></g><g><path d="m25 13.25h-1.5v-3c0-.136-.114-.25-.25-.25h-1.87v-1.5h1.87c.965 0 1.75.785 1.75 1.75z"/></g><g><path d="m11.716 13.893-.771-1.286 9.17-5.5c.172-.103.379-.133.572-.083.194.05.36.175.461.349l3.21 5.5-1.295.756-2.827-4.844z"/></g><g><path d="m28 18.25h-1.5v-4c0-.136-.114-.25-.25-.25h-17.5c-.729 0-1.418-.288-1.94-.81-.523-.523-.81-1.211-.81-1.94h1.5c0 .328.132.641.37.88.239.238.552.37.88.37h17.5c.965 0 1.75.785 1.75 1.75z"/></g></g></svg>