<svg id="wb_blocked" xmlns="http://www.w3.org/2000/svg" width="40.018" height="39.455" viewBox="0 0 40.018 39.455">
  <g id="BG" transform="translate(0 1.556)">
    <path id="Path_19551" data-name="Path 19551" d="M8.747,6.148C6.691,13.755,1.337,17.913.346,21.579s-.965,11.933,15.9,16.492,22.137-5.128,23.226-9.16C44.575,10.032,12.389-7.324,8.747,6.148Z" transform="translate(0 -1.366)" fill="#efefef"/>
  </g>
  <g id="effect" transform="translate(9.826)">
    <g id="Group_3017" data-name="Group 3017" transform="translate(6.55 3.987)">
      <path id="Path_19552" data-name="Path 19552" d="M14.375,3.5h2.278V4.639H14.375Z" transform="translate(-14.375 -3.5)" fill="#a4afc1"/>
    </g>
    <g id="Group_3018" data-name="Group 3018" transform="translate(0 3.987)">
      <path id="Path_19553" data-name="Path 19553" d="M8.625,3.5H10.9V4.639H8.625Z" transform="translate(-8.625 -3.5)" fill="#a4afc1"/>
    </g>
    <g id="Group_3019" data-name="Group 3019" transform="translate(3.987)">
      <path id="Path_19554" data-name="Path 19554" d="M12.125,0h1.139V2.278H12.125Z" transform="translate(-12.125)" fill="#a4afc1"/>
    </g>
    <path id="Path_19555" data-name="Path 19555" d="M26.834,17.566a1.709,1.709,0,1,1,1.709-1.709A1.711,1.711,0,0,1,26.834,17.566Zm0-2.278a.57.57,0,1,0,.57.57A.571.571,0,0,0,26.834,15.287Z" transform="translate(-6.328 1.969)" fill="#a4afc1"/>
  </g>
  <g id="color" transform="translate(7.69 7.69)">
    <path id="Path_19556" data-name="Path 19556" d="M21.1,16.75H8.25V28.712H24.768V16.75Z" transform="translate(-6.541 -5.358)" fill="#f3f3f1"/>
    <path id="Path_19557" data-name="Path 19557" d="M25.6,20.3H22.75v7.917h7.4V24.857A4.557,4.557,0,0,0,25.6,20.3Z" transform="translate(-4.523 -4.864)" fill="#f38686"/>
    <circle id="Ellipse_159" data-name="Ellipse 159" cx="1.994" cy="1.994" r="1.994" transform="translate(5.696 21.645)" fill="#f3f3f1"/>
    <circle id="Ellipse_160" data-name="Ellipse 160" cx="1.994" cy="1.994" r="1.994" transform="translate(19.367 21.645)" fill="#f3f3f1"/>
    <circle id="Ellipse_161" data-name="Ellipse 161" cx="6.55" cy="6.55" r="6.55" fill="#f38686"/>
  </g>
  <g id="shadow" transform="translate(7.69 7.69)">
    <path id="Path_19558" data-name="Path 19558" d="M10.813,16.75H8.25V28.712h2.563V16.75Z" transform="translate(-6.541 -5.358)" fill="#d5dbe1"/>
    <path id="Path_19559" data-name="Path 19559" d="M22.75,20.3v7.917h2.563V20.3Z" transform="translate(-4.523 -4.864)" fill="#b24848"/>
    <path id="Path_19560" data-name="Path 19560" d="M14.313,27.744a1.98,1.98,0,0,1,.712-1.515,1.994,1.994,0,1,0,0,3.03A1.98,1.98,0,0,1,14.313,27.744Z" transform="translate(-6.054 -4.105)" fill="#d5dbe1"/>
    <path id="Path_19561" data-name="Path 19561" d="M26.313,27.744a1.98,1.98,0,0,1,.712-1.515,1.994,1.994,0,1,0,0,3.03A1.98,1.98,0,0,1,26.313,27.744Z" transform="translate(-4.383 -4.105)" fill="#d5dbe1"/>
    <path id="Path_19562" data-name="Path 19562" d="M9.313,13.3a6.551,6.551,0,0,1,5.269-6.423,6.55,6.55,0,1,0,0,12.846A6.551,6.551,0,0,1,9.313,13.3Z" transform="translate(-6.75 -6.75)" fill="#b24848"/>
  </g>
  <g id="reg" transform="translate(6.835 6.835)">
    <path id="Path_19563" data-name="Path 19563" d="M0,0H13.115V1.709H0Z" transform="translate(2.161 11.437) rotate(-45)"/>
    <path id="Path_19564" data-name="Path 19564" d="M13.4,20.81a7.4,7.4,0,1,1,7.4-7.4A7.413,7.413,0,0,1,13.4,20.81Zm0-13.1a5.7,5.7,0,1,0,5.7,5.7A5.7,5.7,0,0,0,13.4,7.709Z" transform="translate(-6 -6)"/>
    <path id="Path_19565" data-name="Path 19565" d="M13.2,29.2H8.354a.855.855,0,0,1-.854-.854V19.39H9.209v8.1H13.2Z" transform="translate(-5.791 -4.136)"/>
    <path id="Path_19566" data-name="Path 19566" d="M23.9,29.67H14.48V27.962h8.567V17.709H20.074V16H23.9a.855.855,0,0,1,.854.854V28.816A.855.855,0,0,1,23.9,29.67Z" transform="translate(-4.82 -4.608)"/>
    <path id="Path_19567" data-name="Path 19567" d="M30.259,29.176H27.1V27.467h2.3V24.961a3.707,3.707,0,0,0-3.7-3.7H23.709v6.209h1.139v1.709H22.854A.855.855,0,0,1,22,28.322V20.4a.855.855,0,0,1,.854-.854H25.7a5.418,5.418,0,0,1,5.411,5.411v3.361A.855.855,0,0,1,30.259,29.176Z" transform="translate(-3.773 -4.114)"/>
    <path id="Path_19568" data-name="Path 19568" d="M13.848,30.7A2.848,2.848,0,1,1,16.7,27.848,2.851,2.851,0,0,1,13.848,30.7Zm0-3.987a1.139,1.139,0,1,0,1.139,1.139A1.14,1.14,0,0,0,13.848,26.709Z" transform="translate(-5.304 -3.355)"/>
    <path id="Path_19569" data-name="Path 19569" d="M25.848,30.7A2.848,2.848,0,1,1,28.7,27.848,2.851,2.851,0,0,1,25.848,30.7Zm0-3.987a1.139,1.139,0,1,0,1.139,1.139A1.14,1.14,0,0,0,25.848,26.709Z" transform="translate(-3.633 -3.355)"/>
  </g>
</svg>
