<svg id="wb_warning" xmlns="http://www.w3.org/2000/svg" width="40.631" height="36.529" viewBox="0 0 40.631 36.529">
  <path id="Path_19629" data-name="Path 19629" d="M1.188,17.167c4.164,6.689,3.558,13.44,5.565,16.664s8.075,8.84,22.9-.391S40.993,13.749,38.786,10.2C28.451-6.4-6.186,5.321,1.188,17.167Z" transform="translate(-0.167 -1.967)" fill="#efefef"/>
  <path id="Path_19630" data-name="Path 19630" d="M7.75,13.25V25.781A1.143,1.143,0,0,0,8.889,26.92H24.268a2.278,2.278,0,0,0,2.278-2.278V13.25Z" transform="translate(0.889 -0.397)" fill="#f3f3f1"/>
  <g id="Group_3030" data-name="Group 3030" transform="translate(7.5 5.449)">
    <path id="Path_19631" data-name="Path 19631" d="M6.75,9.75H27.825v3.987H6.75Z" transform="translate(-6.75 -6.332)" fill="#eff386"/>
    <path id="Path_19632" data-name="Path 19632" d="M24.693,6.75H9.883L6.75,10.168H27.825Z" transform="translate(-6.75 -6.75)" fill="#eff386"/>
    <path id="Path_19633" data-name="Path 19633" d="M30.99,29.624a1.1,1.1,0,0,1-1.1,1.088H17.846a1.1,1.1,0,0,1-1.1-1.088,1.007,1.007,0,0,1,.164-.565l6.024-9.787a1.091,1.091,0,0,1,1.861,0l6.024,9.787a.991.991,0,0,1,.166.565Z" transform="translate(-5.358 -5.08)" fill="#eff386"/>
  </g>
  <path id="Path_19634" data-name="Path 19634" d="M10.313,25.781V13.25H7.75V25.781A1.143,1.143,0,0,0,8.889,26.92h2.563A1.143,1.143,0,0,1,10.313,25.781Z" transform="translate(0.889 -0.397)" fill="#d5dbe1"/>
  <path id="Path_19635" data-name="Path 19635" d="M6.75,9.75H9.313v3.987H6.75Z" transform="translate(0.75 -0.884)" fill="#b4b75d"/>
  <path id="Path_19636" data-name="Path 19636" d="M9.883,6.75,6.75,10.168H9.313L12.446,6.75Z" transform="translate(0.75 -1.301)" fill="#b4b75d"/>
  <path id="Path_19637" data-name="Path 19637" d="M19.313,29.624a1.007,1.007,0,0,1,.164-.565l5.674-9.217-.351-.57a1.091,1.091,0,0,0-1.861,0l-6.024,9.787a1.007,1.007,0,0,0-.164.565,1.1,1.1,0,0,0,1.1,1.088H20.41a1.1,1.1,0,0,1-1.1-1.088Z" transform="translate(2.142 0.369)" fill="#b4b75d"/>
  <g id="Group_3031" data-name="Group 3031" transform="translate(11.487 13.401)">
    <path id="Path_19638" data-name="Path 19638" d="M11.959,31.168a1.709,1.709,0,1,1,1.709-1.709A1.711,1.711,0,0,1,11.959,31.168Zm0-2.278a.57.57,0,1,0,.57.57A.571.571,0,0,0,11.959,28.889Z" transform="translate(-10.25 -11.779)" fill="#a4afc1"/>
    <path id="Path_19639" data-name="Path 19639" d="M0,0H2.278V1.139H0Z" transform="translate(24.339 1.824) rotate(-45)" fill="#a4afc1"/>
    <path id="Path_19640" data-name="Path 19640" d="M0,0H2.278V1.139H0Z" transform="translate(19.706 6.456) rotate(-45)" fill="#a4afc1"/>
    <path id="Path_19641" data-name="Path 19641" d="M0,0H1.139V2.278H0Z" transform="translate(19.703 0.805) rotate(-45)" fill="#a4afc1"/>
    <path id="Path_19642" data-name="Path 19642" d="M0,0H1.139V2.278H0Z" transform="translate(24.338 5.449) rotate(-45)" fill="#a4afc1"/>
  </g>
  <path id="Path_19643" data-name="Path 19643" d="M30,31.67H17.95A1.948,1.948,0,0,1,16,29.729a1.86,1.86,0,0,1,.31-1.044l6-9.757a1.947,1.947,0,0,1,3.326.014l6.016,9.772a1.83,1.83,0,0,1,.292,1.015A1.948,1.948,0,0,1,30,31.67ZM23.974,19.709a.228.228,0,0,0-.2.1l-6.07,9.919a.241.241,0,0,0,.242.232H30a.241.241,0,0,0,.242-.232.169.169,0,0,0-.019-.089l-6.043-9.815a.227.227,0,0,0-.2-.116Z" transform="translate(2.037 0.265)"/>
  <path id="Path_19644" data-name="Path 19644" d="M22.25,21.75h1.709v3.987H22.25Z" transform="translate(2.907 0.787)"/>
  <path id="Path_19645" data-name="Path 19645" d="M16.4,27.879h-7.4A2,2,0,0,1,7,25.886V13.354a.855.855,0,0,1,.854-.854h18.8a.855.855,0,0,1,.854.854v3.418H25.8V14.209H8.709V25.886a.288.288,0,0,0,.285.285h7.4Z" transform="translate(0.784 -0.501)"/>
  <path id="Path_19646" data-name="Path 19646" d="M13.75,15.5h5.126v1.709H13.75Z" transform="translate(1.724 -0.083)"/>
  <path id="Path_19647" data-name="Path 19647" d="M27.93,14.7H6.854A.855.855,0,0,1,6,13.842V9.854A.855.855,0,0,1,6.854,9H27.93a.855.855,0,0,1,.854.854v3.987A.855.855,0,0,1,27.93,14.7ZM7.709,12.987H27.075V10.709H7.709Z" transform="translate(0.645 -0.988)"/>
  <path id="Path_19648" data-name="Path 19648" d="M27.272,10.85,24.394,7.709H10.336L7.457,10.85,6.2,9.694,9.33,6.277A.855.855,0,0,1,9.96,6h14.81a.855.855,0,0,1,.63.277l3.133,3.418Z" transform="translate(0.673 -1.406)"/>
  <path id="Path_19649" data-name="Path 19649" d="M23.1,28.207a.856.856,0,0,1-.854-.854.813.813,0,0,1,.068-.33.721.721,0,0,1,.182-.273.883.883,0,0,1,1.209,0,.854.854,0,0,1,.251.6.818.818,0,0,1-.069.33.9.9,0,0,1-.181.273.858.858,0,0,1-.6.251Z" transform="translate(2.907 1.449)"/>
</svg>
