<svg xmlns="http://www.w3.org/2000/svg" width="80.303" height="74.759" viewBox="0 0 80.303 74.759">
  <g id="webhooks_white" transform="translate(-0.001 -0.973)">
    <path id="Path_57" data-name="Path 57" d="M62.452,32.308c-3.34,5.615-6.541,11.053-9.808,16.45a4.3,4.3,0,0,0-.584,4.275,8,8,0,0,1-5.666,10.885c-4.627,1.212-9.135-1.829-10.053-6.782-.814-4.385,2.589-8.683,7.424-9.368.4-.058.819-.065,1.5-.116l7.354-12.331c-4.625-4.6-7.378-9.975-6.769-16.636A18.913,18.913,0,0,1,51.516,6.571a19.239,19.239,0,0,1,24-2.519c7.33,4.709,10.688,13.882,7.826,21.733l-6.719-1.823c.9-4.365.234-8.285-2.71-11.643a11.627,11.627,0,0,0-7.279-3.807A11.841,11.841,0,0,0,53.7,16.892c-1.881,6.337.966,11.515,8.747,15.416Z" transform="translate(-24.817 0)" fill="#c73a63"/>
    <path id="Path_58" data-name="Path 58" d="M117.326,50.946c2.353,4.152,4.743,8.366,7.111,12.541,11.97-3.7,20.995,2.923,24.232,10.017a19.354,19.354,0,0,1-6.443,24.006c-7.883,5.427-17.853,4.5-24.837-2.472l5.48-4.586c6.9,4.468,12.932,4.258,17.412-1.033a12,12,0,0,0-.194-15.663c-4.536-5.1-10.612-5.255-17.956-.36-3.047-5.4-6.146-10.767-9.1-16.211A5.532,5.532,0,0,0,108.7,53.9a7.713,7.713,0,0,1-6.307-7.467,8.141,8.141,0,0,1,14.486-5.515,7.661,7.661,0,0,1,1.414,7.582c-.261.776-.6,1.528-.967,2.447Z" transform="translate(-70.152 -25.279)" fill="#fff"/>
    <path id="Path_59" data-name="Path 59" d="M52.8,138.729H38.39c-1.381,5.681-4.364,10.267-9.5,13.184A19.218,19.218,0,0,1,16,154.208,19.581,19.581,0,0,1,.05,136.694,19.382,19.382,0,0,1,14.9,116.453c.613,2.226,1.233,4.474,1.846,6.695C8.6,127.3,5.782,132.541,8.062,139.089a11.867,11.867,0,0,0,13.9,7.7c6.322-1.247,9.509-6.5,9.12-14.933,5.993,0,11.991-.062,17.985.031,2.34.037,4.147-.206,5.91-2.269,2.9-3.4,8.246-3.089,11.372.118a8.169,8.169,0,1,1-11.806,11.292,28.191,28.191,0,0,1-1.742-2.3Z" transform="translate(0 -79.124)" fill="#fff"/>
  </g>
</svg>
