<svg id="woocomerce_logo" xmlns="http://www.w3.org/2000/svg" width="243.036" height="48.978" viewBox="0 0 243.036 48.978">
  <path id="Path_33" data-name="Path 33" d="M1283.693,387.964a11.421,11.421,0,0,0-3.354,8.471,12.217,12.217,0,0,0,3.331,8.929,11.648,11.648,0,0,0,8.711,3.4,13.542,13.542,0,0,0,3.507-.544v-5.444a12.266,12.266,0,0,1-3.071.523,5.417,5.417,0,0,1-4.269-1.786,7.086,7.086,0,0,1-1.611-4.878,6.974,6.974,0,0,1,1.589-4.726,5.083,5.083,0,0,1,4.007-1.851,12.487,12.487,0,0,1,3.354.479v-5.466a13.957,13.957,0,0,0-3.681-.436A11.623,11.623,0,0,0,1283.693,387.964Zm23.345-3.332a8.975,8.975,0,0,0-7.274,3.092c-1.742,2.069-2.614,4.944-2.592,8.646,0,4.007.871,7.078,2.592,9.19s4.247,3.18,7.535,3.18a8.967,8.967,0,0,0,7.361-3.18c1.72-2.134,2.592-5.1,2.592-8.929s-.871-6.795-2.635-8.863Q1312.037,384.632,1307.039,384.632Zm2.679,17.487a3,3,0,0,1-2.657,1.416,2.724,2.724,0,0,1-2.461-1.416q-.848-1.4-.849-5.684c0-4.421,1.111-6.642,3.354-6.642,2.373,0,3.571,2.243,3.571,6.707C1310.654,399.31,1310.327,401.161,1309.717,402.119Zm24.2-16.834-1.2,5.14c-.3,1.328-.61,2.679-.871,4.051l-.675,3.572c-.654-3.55-1.525-7.818-2.636-12.74h-7.818l-2.94,22.91h5.859l1.589-15.789,4.007,15.789h4.182l3.811-15.789,1.655,15.745H1345l-3.114-22.888Zm28.049,0-1.2,5.14c-.3,1.328-.61,2.679-.871,4.051l-.675,3.572c-.654-3.55-1.525-7.818-2.636-12.74h-7.818l-2.94,22.888h5.858l1.59-15.789,4.006,15.789h4.182l3.833-15.767,1.655,15.745h6.12l-3.114-22.888Zm19.011,13.829h5.51v-4.769h-5.51v-4.2h6.337v-4.856h-12.522v22.91h12.566v-4.9h-6.381Zm23.8-3.615a6.248,6.248,0,0,0-1.568-8.341,11.4,11.4,0,0,0-6.9-1.873H1389.1v22.91h6.185V397.742h.108l5.01,10.431h6.533l-4.944-10.323A6.008,6.008,0,0,0,1404.776,395.5Zm-9.5-.37v-5.444a5.884,5.884,0,0,1,3.158.74,2.622,2.622,0,0,1,.958,2.265C1399.4,394.279,1398.025,395.085,1395.281,395.128Zm14.134-7.165a11.435,11.435,0,0,0-3.375,8.471,12.127,12.127,0,0,0,3.331,8.907,11.682,11.682,0,0,0,8.711,3.4,13.822,13.822,0,0,0,3.528-.523v-5.444a12.253,12.253,0,0,1-3.071.523,5.494,5.494,0,0,1-4.29-1.786,7.082,7.082,0,0,1-1.612-4.878,6.974,6.974,0,0,1,1.59-4.726,5.083,5.083,0,0,1,4.007-1.851,12.476,12.476,0,0,1,3.354.479v-5.466a13.951,13.951,0,0,0-3.68-.436A11.571,11.571,0,0,0,1409.415,387.964Zm20.078,15.31v-4.16H1435v-4.769h-5.51v-4.2h6.338v-4.856h-12.523v22.91h12.566v-4.9h-6.381Z" transform="translate(-1192.838 -376.03)"/>
  <path id="Path_34" data-name="Path 34" d="M294.687,287H361.7a7.677,7.677,0,0,1,7.665,7.666v25.567A7.677,7.677,0,0,1,361.7,327.9H337.654l3.288,8.079L326.417,327.9H294.666A7.677,7.677,0,0,1,287,320.232V294.666A7.682,7.682,0,0,1,294.687,287Z" transform="translate(-287 -287)" fill="#7f54b3" fill-rule="evenodd"/>
  <path id="Path_35" data-name="Path 35" d="M328.163,340.28a2.845,2.845,0,0,1,2.112-1.045,2.512,2.512,0,0,1,2.94,2.417q1.568,10.519,3.375,17.879l7.383-14.025a3.186,3.186,0,0,1,2.526-2c1.481-.109,2.4.828,2.766,2.831a63.83,63.83,0,0,0,3.179,11.5q1.339-12.805,4.443-18.533a2.584,2.584,0,0,1,2.221-1.481,2.879,2.879,0,0,1,2.112.675,2.611,2.611,0,0,1,1.023,1.938,2.91,2.91,0,0,1-.327,1.612q-1.96,3.659-3.245,12.152a62.369,62.369,0,0,0-.936,12.827,4.016,4.016,0,0,1-.392,2.2,2.133,2.133,0,0,1-1.786,1.22A3.433,3.433,0,0,1,352.9,369.2q-4.7-4.8-7.448-14.308c-2.156,4.312-3.789,7.557-4.856,9.691-1.982,3.811-3.68,5.749-5.074,5.858-.915.065-1.7-.7-2.33-2.308q-2.581-6.6-5.553-25.545A2.81,2.81,0,0,1,328.163,340.28Z" transform="translate(-324.003 -333.332)" fill="#fff"/>
  <path id="Path_36" data-name="Path 36" d="M732.408,383.555a7.856,7.856,0,0,0-5.379-3.9,8.71,8.71,0,0,0-1.829-.2q-4.835,0-7.905,5.031a17.757,17.757,0,0,0-2.613,9.473,13.13,13.13,0,0,0,1.612,6.664,7.856,7.856,0,0,0,5.379,3.9,8.709,8.709,0,0,0,1.829.2q4.867,0,7.905-5.031a17.928,17.928,0,0,0,2.613-9.538A12.77,12.77,0,0,0,732.408,383.555Zm-4.247,9.342a8.882,8.882,0,0,1-2.57,4.987,3.255,3.255,0,0,1-2.722,1.089c-.828-.152-1.481-.893-1.982-2.178a8.645,8.645,0,0,1-.588-3.071,13.279,13.279,0,0,1,.24-2.461,11.059,11.059,0,0,1,1.786-4.007c1.111-1.633,2.287-2.33,3.506-2.069.828.174,1.481.893,1.982,2.178a8.621,8.621,0,0,1,.588,3.049A11.987,11.987,0,0,1,728.162,392.9Z" transform="translate(-677.006 -371.316)" fill="#fff"/>
  <path id="Path_37" data-name="Path 37" d="M971.717,383.555a7.854,7.854,0,0,0-5.379-3.9,8.707,8.707,0,0,0-1.83-.2q-4.833,0-7.9,5.031a17.757,17.757,0,0,0-2.613,9.473,13.13,13.13,0,0,0,1.611,6.664,7.857,7.857,0,0,0,5.379,3.9,8.718,8.718,0,0,0,1.83.2q4.868,0,7.905-5.031a17.93,17.93,0,0,0,2.614-9.538A12.765,12.765,0,0,0,971.717,383.555Zm-4.246,9.342a8.887,8.887,0,0,1-2.57,4.987,3.254,3.254,0,0,1-2.722,1.089c-.827-.152-1.481-.893-1.982-2.178a8.65,8.65,0,0,1-.588-3.071,13.279,13.279,0,0,1,.24-2.461,11.059,11.059,0,0,1,1.786-4.007c1.111-1.633,2.287-2.33,3.506-2.069.828.174,1.481.893,1.982,2.178a8.625,8.625,0,0,1,.588,3.049A12.037,12.037,0,0,1,967.471,392.9Z" transform="translate(-895.235 -371.316)" fill="#fff"/>
</svg>
