<svg xmlns="http://www.w3.org/2000/svg" width="80" height="65" viewBox="0 0 80 65" fill="none"><g clip-path="url(#clip0_2696_95907)"><path d="M61.8725 35.1912C59.9271 35.1912 57.9251 33.8577 57.865 31.3352C57.7724 27.9802 58.6913 24.6739 60.5045 21.8387C59.7469 20.8667 58.8694 19.9925 57.8923 19.2367C55.0179 21.0138 51.6735 21.9009 48.2871 21.7845C45.7369 21.7033 44.4144 19.7113 44.4217 17.7842C44.429 15.8571 45.7679 13.8759 48.3145 13.8145C51.7016 13.7217 55.0396 14.632 57.9015 16.4291C58.3918 16.055 58.8579 15.6506 59.2968 15.2184C59.7362 14.7864 60.148 14.3278 60.53 13.8452C58.7358 10.9979 57.8402 7.68506 57.9579 4.33065C58.0381 1.8045 60.0491 0.496313 61.9946 0.501726C63.94 0.507139 65.9419 1.83517 66.002 4.35771C66.0949 7.71275 65.1759 11.019 63.3626 13.8542C63.7407 14.3396 64.1489 14.8012 64.5848 15.2364C65.0214 15.6712 65.4843 16.0791 65.9711 16.458C68.8456 14.6809 72.1899 13.7938 75.5763 13.9102C78.1265 13.9896 79.449 15.9816 79.4417 17.9087C79.4344 19.8358 78.0955 21.8188 75.549 21.8784C72.1617 21.9721 68.8234 21.0617 65.962 19.2638C64.9814 20.015 64.0985 20.8835 63.3334 21.8495C65.1285 24.6965 66.0247 28.0094 65.9073 31.3641C65.8272 33.8902 63.8161 35.1984 61.8707 35.1912M61.9108 24.0166C60.7111 26.2489 60.1167 28.7513 60.1857 31.2793C60.2167 32.4611 61.1166 32.8852 61.8798 32.887C62.643 32.8888 63.5447 32.4738 63.583 31.2901C63.6701 28.7631 63.0939 26.257 61.9108 24.0166ZM59.8433 17.8383C60.2185 18.1523 60.581 18.4861 60.9362 18.8344C61.2914 19.1826 61.6175 19.5435 61.9326 19.917C62.2496 19.5471 62.5847 19.1862 62.9363 18.8344C63.2879 18.4825 63.654 18.1577 64.0293 17.8455C63.654 17.5316 63.2897 17.2002 62.9363 16.8513C62.5884 16.5031 62.255 16.1404 61.9399 15.7687C61.623 16.138 61.2878 16.4989 60.9344 16.8513C60.581 17.2038 60.2167 17.5328 59.8414 17.8383M48.8026 16.1115H48.3709C47.1778 16.1404 46.7515 17.0318 46.7479 17.7878C46.7442 18.5438 47.165 19.437 48.36 19.4749C50.9119 19.5649 53.4436 18.996 55.7064 17.8239C53.5823 16.703 51.2131 16.115 48.8063 16.1115M68.1661 17.8672C70.4187 19.0564 72.9446 19.6452 75.4961 19.576C76.6911 19.5471 77.1174 18.6539 77.121 17.8997C77.1246 17.1454 76.7038 16.2487 75.5089 16.2108C72.9579 16.125 70.428 16.6957 68.1661 17.8672ZM61.9891 2.80413C61.2277 2.80413 60.3242 3.21914 60.2859 4.40102C60.1982 6.92804 60.7744 9.43431 61.9581 11.6745C63.1574 9.44276 63.7518 6.941 63.6832 4.41365C63.6522 3.22997 62.7523 2.80774 61.9891 2.80413Z" fill="#7462F4"></path><path d="M0.93866 47.104H18.0215V42.2411C18.0215 39.8268 17.0591 37.984 15.1343 36.7125C13.2095 35.441 10.7552 34.8052 7.77143 34.8052C6.38336 34.8151 4.99872 34.943 3.63278 35.1878C3.45865 34.2273 3.36241 33.2547 3.34497 32.2791C3.34497 30.7862 3.65768 29.7301 4.28309 29.1106C4.9085 28.491 5.89459 28.1199 7.24134 27.9972C8.3343 27.9347 9.1364 27.9028 9.64766 27.9016C12.8245 27.9016 15.5915 28.4736 17.9486 29.6176C20.2248 30.688 22.1205 32.416 23.3861 34.5743C24.6527 36.7395 25.286 39.2976 25.286 42.2483V54.1573H0.93866V47.104Z" fill="#7462F4"></path><path d="M30.2899 57.7804C31.2844 57.7804 32.0064 57.5104 32.4557 56.9703C32.905 56.4302 33.1297 55.4925 33.1297 54.1572V35.5756C33.1297 34.019 33.4667 32.8672 34.1407 32.1202C34.8147 31.3731 35.9532 30.9996 37.5562 30.9996C38.5122 31.0115 39.4654 31.1051 40.4051 31.2793V54.1608C40.4051 57.5603 39.6352 60.134 38.0954 61.8818C36.5555 63.6297 34.355 64.5024 31.4939 64.5C29.4293 64.4709 27.3824 64.1171 25.4299 63.4516L26.8252 57.2554C28.3007 57.6054 29.4544 57.7804 30.2862 57.7804M33.8966 25.8932C33.2346 25.2322 32.8242 24.3644 32.7353 23.4375C32.6465 22.5105 32.8846 21.5817 33.4092 20.8091C33.9338 20.0364 34.7124 19.4677 35.6126 19.1997C36.5128 18.9317 37.479 18.981 38.3467 19.3391C39.2143 19.6972 39.9299 20.3421 40.3717 21.164C40.8135 21.9859 40.9541 22.934 40.7696 23.847C40.5852 24.76 40.0871 25.5815 39.36 26.1717C38.633 26.7619 37.722 27.0843 36.782 27.0841C36.2444 27.0914 35.711 26.9895 35.2148 26.7847C34.7185 26.5798 34.2699 26.2764 33.8966 25.8932Z" fill="#7462F4"></path></g><defs><clipPath id="clip0_2696_95907"><rect width="78.5067" height="64" fill="white" transform="translate(0.93866 0.5)"></rect></clipPath></defs></svg>