<svg xmlns="http://www.w3.org/2000/svg" xmlns:xlink="http://www.w3.org/1999/xlink" width="78.507" height="64" viewBox="0 0 78.507 64">
  <defs>
    <clipPath id="clip-path">
      <rect id="Rectangle_3" data-name="Rectangle 3" width="78.507" height="64" transform="translate(0.939 0.5)" fill="#fff"/>
    </clipPath>
  </defs>
  <g id="zid_logo" transform="translate(-0.939 -0.5)" clip-path="url(#clip-path)">
    <path id="Path_41" data-name="Path 41" d="M61.873,35.191a3.879,3.879,0,0,1-4.007-3.856,16.764,16.764,0,0,1,2.639-9.5,14.766,14.766,0,0,0-2.612-2.6,17.15,17.15,0,0,1-9.605,2.548,3.881,3.881,0,0,1-3.865-4,3.88,3.88,0,0,1,3.893-3.97A17.149,17.149,0,0,1,57.9,16.429a14.679,14.679,0,0,0,1.4-1.211,14.854,14.854,0,0,0,1.233-1.373,16.741,16.741,0,0,1-2.572-9.515A4.026,4.026,0,0,1,66,4.358a16.76,16.76,0,0,1-2.639,9.5,14.838,14.838,0,0,0,1.222,1.382,15.162,15.162,0,0,0,1.386,1.222,17.15,17.15,0,0,1,9.605-2.548,3.878,3.878,0,0,1,3.865,4,3.879,3.879,0,0,1-3.893,3.97,17.133,17.133,0,0,1-9.587-2.615,14.952,14.952,0,0,0-2.629,2.586,16.737,16.737,0,0,1,2.574,9.515,3.883,3.883,0,0,1-4.037,3.827m.04-11.175a14.5,14.5,0,0,0-1.725,7.263,1.7,1.7,0,0,0,3.4.011A14.5,14.5,0,0,0,61.911,24.017Zm-2.068-6.178c.375.314.738.648,1.093,1s.681.709,1,1.083q.476-.555,1-1.083c.352-.352.718-.677,1.093-.989q-.563-.471-1.093-.994c-.348-.348-.681-.711-1-1.083q-.475.554-1.006,1.083a14.6,14.6,0,0,1-1.093.987M48.8,16.111h-.432a1.58,1.58,0,0,0-1.623,1.676,1.579,1.579,0,0,0,1.612,1.687,14.839,14.839,0,0,0,7.346-1.651,14.833,14.833,0,0,0-6.9-1.712m19.36,1.756a14.842,14.842,0,0,0,7.33,1.709A1.582,1.582,0,0,0,77.121,17.9a1.581,1.581,0,0,0-1.612-1.689A14.882,14.882,0,0,0,68.166,17.867ZM61.989,2.8a1.586,1.586,0,0,0-1.7,1.6,14.49,14.49,0,0,0,1.672,7.273,14.5,14.5,0,0,0,1.725-7.261A1.586,1.586,0,0,0,61.989,2.8Z" fill="#7462f4"/>
    <path id="Path_42" data-name="Path 42" d="M.939,47.1H18.021V42.241a6.219,6.219,0,0,0-2.887-5.529,13.107,13.107,0,0,0-7.363-1.907,24.45,24.45,0,0,0-4.139.383,18.121,18.121,0,0,1-.288-2.909,4.364,4.364,0,0,1,.938-3.168A4.7,4.7,0,0,1,7.241,28q1.639-.094,2.406-.1a18.815,18.815,0,0,1,8.3,1.716,12.432,12.432,0,0,1,5.438,4.957,14.929,14.929,0,0,1,1.9,7.674V54.157H.939Z" fill="#7462f4"/>
    <path id="Path_43" data-name="Path 43" d="M30.29,57.78a2.663,2.663,0,0,0,2.166-.81,4.472,4.472,0,0,0,.674-2.813V35.576a5.037,5.037,0,0,1,1.011-3.455A4.424,4.424,0,0,1,37.556,31a16.776,16.776,0,0,1,2.849.28V54.161q0,5.1-2.31,7.721a8.321,8.321,0,0,1-6.6,2.618,19.657,19.657,0,0,1-6.064-1.048l1.4-6.2a16.064,16.064,0,0,0,3.461.525M33.9,25.893a4,4,0,0,1-.487-5.084,4.084,4.084,0,0,1,6.963.355,4,4,0,0,1-1.012,5.008,4.09,4.09,0,0,1-2.578.912A3.953,3.953,0,0,1,33.9,25.893Z" fill="#7462f4"/>
  </g>
</svg>
